<?xml version="1.0" encoding="UTF-8" standalone="no"?>
<!DOCTYPE svg PUBLIC "-//W3C//DTD SVG 1.1//EN"
 "http://www.w3.org/Graphics/SVG/1.1/DTD/svg11.dtd">
<!-- Generated by graphviz version 2.43.0 (0)
 -->
<!-- Title: dependency&#45;graph&#45;[object Object] Pages: 1 -->
<svg width="264pt" height="267pt"
 viewBox="0.00 0.00 264.20 267.20" xmlns="http://www.w3.org/2000/svg" xmlns:xlink="http://www.w3.org/1999/xlink">
<g id="graph0" class="graph" transform="scale(1 1) rotate(0) translate(21.6 245.6)">
<title>dependency&#45;graph&#45;[object Object]</title>
<polygon fill="#ffffff" stroke="transparent" points="-21.6,21.6 -21.6,-245.6 242.6,-245.6 242.6,21.6 -21.6,21.6"/>
<g id="clust1" class="cluster">
<title>cluster_src</title>
<polygon fill="#ffffff" stroke="#000000" points="39.5,-43 39.5,-216 207.5,-216 207.5,-43 39.5,-43"/>
</g>
<g id="clust2" class="cluster">
<title>cluster_src</title>
<polygon fill="#ffffff" stroke="#000000" points="47.5,-51 47.5,-208 199.5,-208 199.5,-51 47.5,-51"/>
</g>
<!-- dependency&#45;graph&#45;[object Object] -->
<!-- src/thenable.ts -->
<g id="node2" class="node">
<title>src/thenable.ts</title>
<path fill="none" stroke="#000000" d="M131.33,-141C131.33,-141 63.67,-141 63.67,-141 59.83,-141 56,-137.17 56,-133.33 56,-133.33 56,-125.67 56,-125.67 56,-121.83 59.83,-118 63.67,-118 63.67,-118 131.33,-118 131.33,-118 135.17,-118 139,-121.83 139,-125.67 139,-125.67 139,-133.33 139,-133.33 139,-137.17 135.17,-141 131.33,-141"/>
<text text-anchor="middle" x="97.5" y="-125.8" font-family="Arial" font-size="14.00" fill="#000000">thenable.ts</text>
</g>
<!-- exit_src -->
<!-- src/thenable.ts&#45;&gt;exit_src -->
<!-- name_src -->
<g id="node3" class="node">
<title>name_src</title>
<path fill="none" stroke="#ff0000" stroke-width="5" d="M183.83,-200C183.83,-200 145.17,-200 145.17,-200 141.33,-200 137.5,-196.17 137.5,-192.33 137.5,-192.33 137.5,-184.67 137.5,-184.67 137.5,-180.83 141.33,-177 145.17,-177 145.17,-177 183.83,-177 183.83,-177 187.67,-177 191.5,-180.83 191.5,-184.67 191.5,-184.67 191.5,-192.33 191.5,-192.33 191.5,-196.17 187.67,-200 183.83,-200"/>
<text text-anchor="middle" x="164.5" y="-184.8" font-family="Arial" font-size="14.00" fill="#000000">src</text>
</g>
<!-- exit_src&#45;&gt;dependency&#45;graph&#45;[object Object] -->
<!-- exit_src&#45;&gt;exit_src -->
<!-- exit_src&#45;&gt;exit_src -->
<!-- src/index.ts -->
<g id="node5" class="node">
<title>src/index.ts</title>
<path fill="none" stroke="#ff0000" stroke-width="5" d="M111.33,-200C111.33,-200 63.67,-200 63.67,-200 59.83,-200 56,-196.17 56,-192.33 56,-192.33 56,-184.67 56,-184.67 56,-180.83 59.83,-177 63.67,-177 63.67,-177 111.33,-177 111.33,-177 115.17,-177 119,-180.83 119,-184.67 119,-184.67 119,-192.33 119,-192.33 119,-196.17 115.17,-200 111.33,-200"/>
<text text-anchor="middle" x="87.5" y="-184.8" font-family="Arial" font-size="14.00" fill="#000000">index.ts</text>
</g>
<!-- src/index.ts&#45;&gt;src/thenable.ts -->
<!-- src/index.ts&#45;&gt;src/thenable.ts -->
<g id="edge7" class="edge">
<title>src/index.ts&#45;&gt;src/thenable.ts</title>
<path fill="none" stroke="black" d="M94.79,-176.78C97.31,-169.61 99.37,-159.95 100.38,-151.31"/>
<polygon fill="black" stroke="black" points="103.88,-151.38 101.03,-141.17 96.89,-150.93 103.88,-151.38"/>
</g>
<!-- src/index.ts&#45;&gt;exit_src -->
</g>
</svg>
