<?xml version="1.0" encoding="UTF-8" standalone="no"?>
<!DOCTYPE svg PUBLIC "-//W3C//DTD SVG 1.1//EN"
 "http://www.w3.org/Graphics/SVG/1.1/DTD/svg11.dtd">
<!-- Generated by graphviz version 2.43.0 (0)
 -->
<!-- Title: dependency&#45;graph&#45;@siteimprove/alfa&#45;comparable Pages: 1 -->
<svg width="259pt" height="350pt"
 viewBox="0.00 0.00 259.20 350.20" xmlns="http://www.w3.org/2000/svg" xmlns:xlink="http://www.w3.org/1999/xlink">
<g id="graph0" class="graph" transform="scale(1 1) rotate(0) translate(21.6 328.6)">
<title>dependency&#45;graph&#45;@siteimprove/alfa&#45;comparable</title>
<polygon fill="#ffffff" stroke="transparent" points="-21.6,21.6 -21.6,-328.6 237.6,-328.6 237.6,21.6 -21.6,21.6"/>
<g id="clust1" class="cluster">
<title>cluster_src</title>
<polygon fill="#ffffff" stroke="#000000" points="8,-8 8,-299 208,-299 208,-8 8,-8"/>
</g>
<g id="clust2" class="cluster">
<title>cluster_src</title>
<polygon fill="#ffffff" stroke="#000000" points="16,-16 16,-291 200,-291 200,-16 16,-16"/>
</g>
<!-- src/comparison.ts -->
<g id="node1" class="node">
<title>src/comparison.ts</title>
<path fill="none" stroke="#000000" d="M140.83,-106C140.83,-106 55.17,-106 55.17,-106 51.33,-106 47.5,-102.17 47.5,-98.33 47.5,-98.33 47.5,-90.67 47.5,-90.67 47.5,-86.83 51.33,-83 55.17,-83 55.17,-83 140.83,-83 140.83,-83 144.67,-83 148.5,-86.83 148.5,-90.67 148.5,-90.67 148.5,-98.33 148.5,-98.33 148.5,-102.17 144.67,-106 140.83,-106"/>
<text text-anchor="middle" x="98" y="-90.8" font-family="Arial" font-size="14.00" fill="#000000">comparison.ts</text>
</g>
<!-- exit_src -->
<!-- src/comparison.ts&#45;&gt;exit_src -->
<!-- src/comparer.ts -->
<g id="node2" class="node">
<title>src/comparer.ts</title>
<path fill="none" stroke="#000000" d="M164.33,-165C164.33,-165 91.67,-165 91.67,-165 87.83,-165 84,-161.17 84,-157.33 84,-157.33 84,-149.67 84,-149.67 84,-145.83 87.83,-142 91.67,-142 91.67,-142 164.33,-142 164.33,-142 168.17,-142 172,-145.83 172,-149.67 172,-149.67 172,-157.33 172,-157.33 172,-161.17 168.17,-165 164.33,-165"/>
<text text-anchor="middle" x="128" y="-149.8" font-family="Arial" font-size="14.00" fill="#000000">comparer.ts</text>
</g>
<!-- src/comparer.ts&#45;&gt;src/comparison.ts -->
<!-- src/comparer.ts&#45;&gt;src/comparison.ts -->
<g id="edge10" class="edge">
<title>src/comparer.ts&#45;&gt;src/comparison.ts</title>
<path fill="none" stroke="black" stroke-dasharray="1,5" d="M127.77,-141.78C125.09,-134.14 119.9,-123.65 114.46,-114.6"/>
<polygon fill="black" stroke="black" points="117.39,-112.67 109.02,-106.17 111.51,-116.47 117.39,-112.67"/>
</g>
<!-- src/comparer.ts&#45;&gt;exit_src -->
<!-- src/comparable.ts -->
<g id="node3" class="node">
<title>src/comparable.ts</title>
<path fill="none" stroke="#000000" d="M138.33,-224C138.33,-224 51.67,-224 51.67,-224 47.83,-224 44,-220.17 44,-216.33 44,-216.33 44,-208.67 44,-208.67 44,-204.83 47.83,-201 51.67,-201 51.67,-201 138.33,-201 138.33,-201 142.17,-201 146,-204.83 146,-208.67 146,-208.67 146,-216.33 146,-216.33 146,-220.17 142.17,-224 138.33,-224"/>
<text text-anchor="middle" x="95" y="-208.8" font-family="Arial" font-size="14.00" fill="#000000">comparable.ts</text>
</g>
<!-- src/comparable.ts&#45;&gt;src/comparison.ts -->
<!-- src/comparable.ts&#45;&gt;src/comparison.ts -->
<g id="edge14" class="edge">
<title>src/comparable.ts&#45;&gt;src/comparison.ts</title>
<path fill="none" stroke="black" d="M94.64,-200.75C89.8,-187.17 79.08,-163.03 84,-142 86.16,-132.75 90.45,-123.23 94.11,-115.23"/>
<polygon fill="black" stroke="black" points="97.33,-116.61 98.21,-106.05 90.94,-113.75 97.33,-116.61"/>
</g>
<!-- src/comparable.ts&#45;&gt;src/comparer.ts -->
<!-- src/comparable.ts&#45;&gt;src/comparer.ts -->
<g id="edge12" class="edge">
<title>src/comparable.ts&#45;&gt;src/comparer.ts</title>
<path fill="none" stroke="black" stroke-dasharray="1,5" d="M106.62,-200.78C112.2,-193.37 118.39,-183.3 122.92,-174.45"/>
<polygon fill="black" stroke="black" points="126.19,-175.72 127.22,-165.17 119.84,-172.77 126.19,-175.72"/>
</g>
<!-- src/comparable.ts&#45;&gt;exit_src -->
<!-- exit_src&#45;&gt;exit_src -->
<!-- exit_src&#45;&gt;exit_src -->
<!-- exit_src&#45;&gt;exit_src -->
<!-- exit_src&#45;&gt;exit_src -->
<!-- name_src -->
<g id="node5" class="node">
<title>name_src</title>
<path fill="none" stroke="#ff0000" stroke-width="5" d="M184.33,-283C184.33,-283 145.67,-283 145.67,-283 141.83,-283 138,-279.17 138,-275.33 138,-275.33 138,-267.67 138,-267.67 138,-263.83 141.83,-260 145.67,-260 145.67,-260 184.33,-260 184.33,-260 188.17,-260 192,-263.83 192,-267.67 192,-267.67 192,-275.33 192,-275.33 192,-279.17 188.17,-283 184.33,-283"/>
<text text-anchor="middle" x="165" y="-267.8" font-family="Arial" font-size="14.00" fill="#000000">src</text>
</g>
<!-- src/index.ts -->
<g id="node6" class="node">
<title>src/index.ts</title>
<path fill="none" stroke="#ff0000" stroke-width="5" d="M111.83,-283C111.83,-283 64.17,-283 64.17,-283 60.33,-283 56.5,-279.17 56.5,-275.33 56.5,-275.33 56.5,-267.67 56.5,-267.67 56.5,-263.83 60.33,-260 64.17,-260 64.17,-260 111.83,-260 111.83,-260 115.67,-260 119.5,-263.83 119.5,-267.67 119.5,-267.67 119.5,-275.33 119.5,-275.33 119.5,-279.17 115.67,-283 111.83,-283"/>
<text text-anchor="middle" x="88" y="-267.8" font-family="Arial" font-size="14.00" fill="#000000">index.ts</text>
</g>
<!-- src/index.ts&#45;&gt;src/comparison.ts -->
<!-- src/index.ts&#45;&gt;src/comparison.ts -->
<g id="edge20" class="edge">
<title>src/index.ts&#45;&gt;src/comparison.ts</title>
<path fill="none" stroke="black" d="M76.63,-259.78C65.83,-251.7 50.97,-239.39 44,-224 39.78,-214.69 41.36,-210.87 44,-201 52.85,-167.91 75.38,-134.82 88.73,-114.76"/>
<polygon fill="black" stroke="black" points="91.75,-116.54 94.29,-106.25 85.89,-112.71 91.75,-116.54"/>
</g>
<!-- src/index.ts&#45;&gt;src/comparer.ts -->
<!-- src/index.ts&#45;&gt;src/comparer.ts -->
<g id="edge18" class="edge">
<title>src/index.ts&#45;&gt;src/comparer.ts</title>
<path fill="none" stroke="black" d="M119.76,-260.84C136.45,-253.3 155.01,-241.19 164,-224 172.73,-207.32 162.82,-187.16 150.99,-172.85"/>
<polygon fill="black" stroke="black" points="153.27,-170.17 143.92,-165.18 148.12,-174.91 153.27,-170.17"/>
</g>
<!-- src/index.ts&#45;&gt;src/comparable.ts -->
<!-- src/index.ts&#45;&gt;src/comparable.ts -->
<g id="edge16" class="edge">
<title>src/index.ts&#45;&gt;src/comparable.ts</title>
<path fill="none" stroke="black" d="M94.73,-259.78C96.86,-252.61 98.42,-242.95 98.97,-234.31"/>
<polygon fill="black" stroke="black" points="102.47,-234.21 99.09,-224.17 95.47,-234.13 102.47,-234.21"/>
</g>
<!-- src/index.ts&#45;&gt;exit_src -->
</g>
</svg>
