<?xml version="1.0" encoding="UTF-8" standalone="no"?>
<!DOCTYPE svg PUBLIC "-//W3C//DTD SVG 1.1//EN"
 "http://www.w3.org/Graphics/SVG/1.1/DTD/svg11.dtd">
<!-- Generated by graphviz version 2.43.0 (0)
 -->
<!-- Title: dependency&#45;graph&#45;[object Object] Pages: 1 -->
<svg width="282pt" height="385pt"
 viewBox="0.00 0.00 281.70 385.20" xmlns="http://www.w3.org/2000/svg" xmlns:xlink="http://www.w3.org/1999/xlink">
<g id="graph0" class="graph" transform="scale(1 1) rotate(0) translate(21.6 363.6)">
<title>dependency&#45;graph&#45;[object Object]</title>
<polygon fill="#ffffff" stroke="transparent" points="-21.6,21.6 -21.6,-363.6 260.1,-363.6 260.1,21.6 -21.6,21.6"/>
<g id="clust1" class="cluster">
<title>cluster_src</title>
<polygon fill="#ffffff" stroke="#000000" points="30.5,-43 30.5,-334 230.5,-334 230.5,-43 30.5,-43"/>
</g>
<g id="clust2" class="cluster">
<title>cluster_src</title>
<polygon fill="#ffffff" stroke="#000000" points="38.5,-51 38.5,-326 222.5,-326 222.5,-51 38.5,-51"/>
</g>
<!-- dependency&#45;graph&#45;[object Object] -->
<!-- src/comparer.ts -->
<g id="node2" class="node">
<title>src/comparer.ts</title>
<path fill="none" stroke="#000000" d="M166.83,-200C166.83,-200 94.17,-200 94.17,-200 90.33,-200 86.5,-196.17 86.5,-192.33 86.5,-192.33 86.5,-184.67 86.5,-184.67 86.5,-180.83 90.33,-177 94.17,-177 94.17,-177 166.83,-177 166.83,-177 170.67,-177 174.5,-180.83 174.5,-184.67 174.5,-184.67 174.5,-192.33 174.5,-192.33 174.5,-196.17 170.67,-200 166.83,-200"/>
<text text-anchor="middle" x="130.5" y="-184.8" font-family="Arial" font-size="14.00" fill="#000000">comparer.ts</text>
</g>
<!-- src/comparison.ts -->
<g id="node3" class="node">
<title>src/comparison.ts</title>
<path fill="none" stroke="#000000" d="M160.33,-141C160.33,-141 74.67,-141 74.67,-141 70.83,-141 67,-137.17 67,-133.33 67,-133.33 67,-125.67 67,-125.67 67,-121.83 70.83,-118 74.67,-118 74.67,-118 160.33,-118 160.33,-118 164.17,-118 168,-121.83 168,-125.67 168,-125.67 168,-133.33 168,-133.33 168,-137.17 164.17,-141 160.33,-141"/>
<text text-anchor="middle" x="117.5" y="-125.8" font-family="Arial" font-size="14.00" fill="#000000">comparison.ts</text>
</g>
<!-- src/comparer.ts&#45;&gt;src/comparison.ts -->
<!-- src/comparer.ts&#45;&gt;src/comparison.ts -->
<g id="edge15" class="edge">
<title>src/comparer.ts&#45;&gt;src/comparison.ts</title>
<path fill="none" stroke="black" stroke-dasharray="1,5" d="M133.47,-176.78C133.08,-169.45 131.17,-159.52 128.61,-150.74"/>
<polygon fill="black" stroke="black" points="131.88,-149.5 125.34,-141.17 125.26,-151.77 131.88,-149.5"/>
</g>
<!-- exit_src -->
<!-- src/comparer.ts&#45;&gt;exit_src -->
<!-- src/comparison.ts&#45;&gt;exit_src -->
<!-- src/comparable.ts -->
<g id="node4" class="node">
<title>src/comparable.ts</title>
<path fill="none" stroke="#000000" d="M140.83,-259C140.83,-259 54.17,-259 54.17,-259 50.33,-259 46.5,-255.17 46.5,-251.33 46.5,-251.33 46.5,-243.67 46.5,-243.67 46.5,-239.83 50.33,-236 54.17,-236 54.17,-236 140.83,-236 140.83,-236 144.67,-236 148.5,-239.83 148.5,-243.67 148.5,-243.67 148.5,-251.33 148.5,-251.33 148.5,-255.17 144.67,-259 140.83,-259"/>
<text text-anchor="middle" x="97.5" y="-243.8" font-family="Arial" font-size="14.00" fill="#000000">comparable.ts</text>
</g>
<!-- src/comparable.ts&#45;&gt;src/comparer.ts -->
<!-- src/comparable.ts&#45;&gt;src/comparer.ts -->
<g id="edge11" class="edge">
<title>src/comparable.ts&#45;&gt;src/comparer.ts</title>
<path fill="none" stroke="black" stroke-dasharray="1,5" d="M109.12,-235.78C114.7,-228.37 120.89,-218.3 125.42,-209.45"/>
<polygon fill="black" stroke="black" points="128.69,-210.72 129.72,-200.17 122.34,-207.77 128.69,-210.72"/>
</g>
<!-- src/comparable.ts&#45;&gt;src/comparison.ts -->
<!-- src/comparable.ts&#45;&gt;src/comparison.ts -->
<g id="edge13" class="edge">
<title>src/comparable.ts&#45;&gt;src/comparison.ts</title>
<path fill="none" stroke="black" d="M96.49,-235.98C90.87,-222.23 78.9,-197.48 86.5,-177 90.46,-166.33 98.08,-156.46 104.97,-148.59"/>
<polygon fill="black" stroke="black" points="107.58,-150.92 111.69,-141.16 102.39,-146.23 107.58,-150.92"/>
</g>
<!-- src/comparable.ts&#45;&gt;exit_src -->
<!-- name_src -->
<g id="node5" class="node">
<title>name_src</title>
<path fill="none" stroke="#ff0000" stroke-width="5" d="M206.83,-318C206.83,-318 168.17,-318 168.17,-318 164.33,-318 160.5,-314.17 160.5,-310.33 160.5,-310.33 160.5,-302.67 160.5,-302.67 160.5,-298.83 164.33,-295 168.17,-295 168.17,-295 206.83,-295 206.83,-295 210.67,-295 214.5,-298.83 214.5,-302.67 214.5,-302.67 214.5,-310.33 214.5,-310.33 214.5,-314.17 210.67,-318 206.83,-318"/>
<text text-anchor="middle" x="187.5" y="-302.8" font-family="Arial" font-size="14.00" fill="#000000">src</text>
</g>
<!-- exit_src&#45;&gt;dependency&#45;graph&#45;[object Object] -->
<!-- exit_src&#45;&gt;exit_src -->
<!-- exit_src&#45;&gt;exit_src -->
<!-- exit_src&#45;&gt;exit_src -->
<!-- exit_src&#45;&gt;exit_src -->
<!-- src/index.ts -->
<g id="node7" class="node">
<title>src/index.ts</title>
<path fill="none" stroke="#ff0000" stroke-width="5" d="M134.33,-318C134.33,-318 86.67,-318 86.67,-318 82.83,-318 79,-314.17 79,-310.33 79,-310.33 79,-302.67 79,-302.67 79,-298.83 82.83,-295 86.67,-295 86.67,-295 134.33,-295 134.33,-295 138.17,-295 142,-298.83 142,-302.67 142,-302.67 142,-310.33 142,-310.33 142,-314.17 138.17,-318 134.33,-318"/>
<text text-anchor="middle" x="110.5" y="-302.8" font-family="Arial" font-size="14.00" fill="#000000">index.ts</text>
</g>
<!-- src/index.ts&#45;&gt;src/comparer.ts -->
<!-- src/index.ts&#45;&gt;src/comparer.ts -->
<g id="edge19" class="edge">
<title>src/index.ts&#45;&gt;src/comparer.ts</title>
<path fill="none" stroke="black" d="M133.89,-295C146.45,-286.7 160.22,-274.04 166.5,-259 173.67,-241.82 164.27,-222.02 153.05,-207.95"/>
<polygon fill="black" stroke="black" points="155.61,-205.56 146.35,-200.4 150.37,-210.2 155.61,-205.56"/>
</g>
<!-- src/index.ts&#45;&gt;src/comparison.ts -->
<!-- src/index.ts&#45;&gt;src/comparison.ts -->
<g id="edge21" class="edge">
<title>src/index.ts&#45;&gt;src/comparison.ts</title>
<path fill="none" stroke="black" d="M134.11,-294.83C147.38,-286.36 162.78,-273.56 172.5,-259 187.88,-235.97 188,-227.32 192.5,-200 194.16,-189.91 197.21,-186.07 192.5,-177 185.58,-163.66 172.87,-153.33 159.78,-145.84"/>
<polygon fill="black" stroke="black" points="161.21,-142.63 150.72,-141.1 157.96,-148.84 161.21,-142.63"/>
</g>
<!-- src/index.ts&#45;&gt;src/comparable.ts -->
<!-- src/index.ts&#45;&gt;src/comparable.ts -->
<g id="edge17" class="edge">
<title>src/index.ts&#45;&gt;src/comparable.ts</title>
<path fill="none" stroke="black" d="M113.47,-294.78C113.08,-287.45 111.17,-277.52 108.61,-268.74"/>
<polygon fill="black" stroke="black" points="111.88,-267.5 105.34,-259.17 105.26,-269.77 111.88,-267.5"/>
</g>
<!-- src/index.ts&#45;&gt;exit_src -->
</g>
</svg>
