<?xml version="1.0" encoding="UTF-8" standalone="no"?>
<!DOCTYPE svg PUBLIC "-//W3C//DTD SVG 1.1//EN"
 "http://www.w3.org/Graphics/SVG/1.1/DTD/svg11.dtd">
<!-- Generated by graphviz version 2.43.0 (0)
 -->
<!-- Title: dependency&#45;graph&#45;[object Object] Pages: 1 -->
<svg width="264pt" height="267pt"
 viewBox="0.00 0.00 264.20 267.20" xmlns="http://www.w3.org/2000/svg" xmlns:xlink="http://www.w3.org/1999/xlink">
<g id="graph0" class="graph" transform="scale(1 1) rotate(0) translate(21.6 245.6)">
<title>dependency&#45;graph&#45;[object Object]</title>
<polygon fill="#ffffff" stroke="transparent" points="-21.6,21.6 -21.6,-245.6 242.6,-245.6 242.6,21.6 -21.6,21.6"/>
<g id="clust1" class="cluster">
<title>cluster_src</title>
<polygon fill="#ffffff" stroke="#000000" points="40.5,-43 40.5,-216 208.5,-216 208.5,-43 40.5,-43"/>
</g>
<g id="clust2" class="cluster">
<title>cluster_src</title>
<polygon fill="#ffffff" stroke="#000000" points="48.5,-51 48.5,-208 200.5,-208 200.5,-51 48.5,-51"/>
</g>
<!-- dependency&#45;graph&#45;[object Object] -->
<!-- src/callback.ts -->
<g id="node2" class="node">
<title>src/callback.ts</title>
<path fill="none" stroke="#000000" d="M128.83,-141C128.83,-141 64.17,-141 64.17,-141 60.33,-141 56.5,-137.17 56.5,-133.33 56.5,-133.33 56.5,-125.67 56.5,-125.67 56.5,-121.83 60.33,-118 64.17,-118 64.17,-118 128.83,-118 128.83,-118 132.67,-118 136.5,-121.83 136.5,-125.67 136.5,-125.67 136.5,-133.33 136.5,-133.33 136.5,-137.17 132.67,-141 128.83,-141"/>
<text text-anchor="middle" x="96.5" y="-125.8" font-family="Arial" font-size="14.00" fill="#000000">callback.ts</text>
</g>
<!-- exit_src -->
<!-- src/callback.ts&#45;&gt;exit_src -->
<!-- name_src -->
<g id="node3" class="node">
<title>name_src</title>
<path fill="none" stroke="#ff0000" stroke-width="5" d="M184.83,-200C184.83,-200 146.17,-200 146.17,-200 142.33,-200 138.5,-196.17 138.5,-192.33 138.5,-192.33 138.5,-184.67 138.5,-184.67 138.5,-180.83 142.33,-177 146.17,-177 146.17,-177 184.83,-177 184.83,-177 188.67,-177 192.5,-180.83 192.5,-184.67 192.5,-184.67 192.5,-192.33 192.5,-192.33 192.5,-196.17 188.67,-200 184.83,-200"/>
<text text-anchor="middle" x="165.5" y="-184.8" font-family="Arial" font-size="14.00" fill="#000000">src</text>
</g>
<!-- exit_src&#45;&gt;dependency&#45;graph&#45;[object Object] -->
<!-- exit_src&#45;&gt;exit_src -->
<!-- exit_src&#45;&gt;exit_src -->
<!-- src/index.ts -->
<g id="node5" class="node">
<title>src/index.ts</title>
<path fill="none" stroke="#ff0000" stroke-width="5" d="M112.33,-200C112.33,-200 64.67,-200 64.67,-200 60.83,-200 57,-196.17 57,-192.33 57,-192.33 57,-184.67 57,-184.67 57,-180.83 60.83,-177 64.67,-177 64.67,-177 112.33,-177 112.33,-177 116.17,-177 120,-180.83 120,-184.67 120,-184.67 120,-192.33 120,-192.33 120,-196.17 116.17,-200 112.33,-200"/>
<text text-anchor="middle" x="88.5" y="-184.8" font-family="Arial" font-size="14.00" fill="#000000">index.ts</text>
</g>
<!-- src/index.ts&#45;&gt;src/callback.ts -->
<!-- src/index.ts&#45;&gt;src/callback.ts -->
<g id="edge7" class="edge">
<title>src/index.ts&#45;&gt;src/callback.ts</title>
<path fill="none" stroke="black" d="M95.42,-176.78C97.68,-169.61 99.41,-159.95 100.11,-151.31"/>
<polygon fill="black" stroke="black" points="103.61,-151.27 100.41,-141.17 96.61,-151.07 103.61,-151.27"/>
</g>
<!-- src/index.ts&#45;&gt;exit_src -->
</g>
</svg>
