<?xml version="1.0" encoding="UTF-8" standalone="no"?>
<!DOCTYPE svg PUBLIC "-//W3C//DTD SVG 1.1//EN"
 "http://www.w3.org/Graphics/SVG/1.1/DTD/svg11.dtd">
<!-- Generated by graphviz version 2.43.0 (0)
 -->
<!-- Title: dependency&#45;graph&#45;[object Object] Pages: 1 -->
<svg width="264pt" height="326pt"
 viewBox="0.00 0.00 264.20 326.20" xmlns="http://www.w3.org/2000/svg" xmlns:xlink="http://www.w3.org/1999/xlink">
<g id="graph0" class="graph" transform="scale(1 1) rotate(0) translate(21.6 304.6)">
<title>dependency&#45;graph&#45;[object Object]</title>
<polygon fill="#ffffff" stroke="transparent" points="-21.6,21.6 -21.6,-304.6 242.6,-304.6 242.6,21.6 -21.6,21.6"/>
<g id="clust1" class="cluster">
<title>cluster_src</title>
<polygon fill="#ffffff" stroke="#000000" points="42.5,-43 42.5,-275 212.5,-275 212.5,-43 42.5,-43"/>
</g>
<g id="clust2" class="cluster">
<title>cluster_src</title>
<polygon fill="#ffffff" stroke="#000000" points="50.5,-51 50.5,-267 204.5,-267 204.5,-51 50.5,-51"/>
</g>
<!-- dependency&#45;graph&#45;[object Object] -->
<!-- src/sarif.ts -->
<g id="node2" class="node">
<title>src/sarif.ts</title>
<path fill="none" stroke="#000000" d="M106.83,-141C106.83,-141 66.17,-141 66.17,-141 62.33,-141 58.5,-137.17 58.5,-133.33 58.5,-133.33 58.5,-125.67 58.5,-125.67 58.5,-121.83 62.33,-118 66.17,-118 66.17,-118 106.83,-118 106.83,-118 110.67,-118 114.5,-121.83 114.5,-125.67 114.5,-125.67 114.5,-133.33 114.5,-133.33 114.5,-137.17 110.67,-141 106.83,-141"/>
<text text-anchor="middle" x="86.5" y="-125.8" font-family="Arial" font-size="14.00" fill="#000000">sarif.ts</text>
</g>
<!-- exit_src -->
<!-- src/sarif.ts&#45;&gt;exit_src -->
<!-- src/serializable.ts -->
<g id="node3" class="node">
<title>src/serializable.ts</title>
<path fill="none" stroke="#000000" d="M168.83,-200C168.83,-200 86.17,-200 86.17,-200 82.33,-200 78.5,-196.17 78.5,-192.33 78.5,-192.33 78.5,-184.67 78.5,-184.67 78.5,-180.83 82.33,-177 86.17,-177 86.17,-177 168.83,-177 168.83,-177 172.67,-177 176.5,-180.83 176.5,-184.67 176.5,-184.67 176.5,-192.33 176.5,-192.33 176.5,-196.17 172.67,-200 168.83,-200"/>
<text text-anchor="middle" x="127.5" y="-184.8" font-family="Arial" font-size="14.00" fill="#000000">serializable.ts</text>
</g>
<!-- src/serializable.ts&#45;&gt;src/sarif.ts -->
<!-- src/serializable.ts&#45;&gt;src/sarif.ts -->
<g id="edge13" class="edge">
<title>src/serializable.ts&#45;&gt;src/sarif.ts</title>
<path fill="none" stroke="black" d="M125.2,-176.78C120.96,-168.98 113.53,-158.21 106.2,-149.03"/>
<polygon fill="black" stroke="black" points="108.7,-146.57 99.58,-141.17 103.34,-151.08 108.7,-146.57"/>
</g>
<!-- src/serializable.ts&#45;&gt;exit_src -->
<!-- name_src -->
<g id="node4" class="node">
<title>name_src</title>
<path fill="none" stroke="#ff0000" stroke-width="5" d="M188.83,-259C188.83,-259 150.17,-259 150.17,-259 146.33,-259 142.5,-255.17 142.5,-251.33 142.5,-251.33 142.5,-243.67 142.5,-243.67 142.5,-239.83 146.33,-236 150.17,-236 150.17,-236 188.83,-236 188.83,-236 192.67,-236 196.5,-239.83 196.5,-243.67 196.5,-243.67 196.5,-251.33 196.5,-251.33 196.5,-255.17 192.67,-259 188.83,-259"/>
<text text-anchor="middle" x="169.5" y="-243.8" font-family="Arial" font-size="14.00" fill="#000000">src</text>
</g>
<!-- exit_src&#45;&gt;dependency&#45;graph&#45;[object Object] -->
<!-- exit_src&#45;&gt;exit_src -->
<!-- exit_src&#45;&gt;exit_src -->
<!-- exit_src&#45;&gt;exit_src -->
<!-- src/index.ts -->
<g id="node6" class="node">
<title>src/index.ts</title>
<path fill="none" stroke="#ff0000" stroke-width="5" d="M116.33,-259C116.33,-259 68.67,-259 68.67,-259 64.83,-259 61,-255.17 61,-251.33 61,-251.33 61,-243.67 61,-243.67 61,-239.83 64.83,-236 68.67,-236 68.67,-236 116.33,-236 116.33,-236 120.17,-236 124,-239.83 124,-243.67 124,-243.67 124,-251.33 124,-251.33 124,-255.17 120.17,-259 116.33,-259"/>
<text text-anchor="middle" x="92.5" y="-243.8" font-family="Arial" font-size="14.00" fill="#000000">index.ts</text>
</g>
<!-- src/index.ts&#45;&gt;src/sarif.ts -->
<!-- src/index.ts&#45;&gt;src/sarif.ts -->
<g id="edge9" class="edge">
<title>src/index.ts&#45;&gt;src/sarif.ts</title>
<path fill="none" stroke="black" d="M92.71,-235.95C88.94,-226.86 81.58,-213.15 78.5,-200 74.66,-183.58 79.67,-165.04 83.89,-151.24"/>
<polygon fill="black" stroke="black" points="87.34,-151.9 86.91,-141.32 80.65,-149.86 87.34,-151.9"/>
</g>
<!-- src/index.ts&#45;&gt;src/serializable.ts -->
<!-- src/index.ts&#45;&gt;src/serializable.ts -->
<g id="edge11" class="edge">
<title>src/index.ts&#45;&gt;src/serializable.ts</title>
<path fill="none" stroke="black" d="M104.49,-235.78C110.4,-228.29 117.02,-218.09 121.88,-209.16"/>
<polygon fill="black" stroke="black" points="125.03,-210.69 126.35,-200.17 118.76,-207.57 125.03,-210.69"/>
</g>
<!-- src/index.ts&#45;&gt;exit_src -->
</g>
</svg>
