<?xml version="1.0" encoding="UTF-8" standalone="no"?>
<!DOCTYPE svg PUBLIC "-//W3C//DTD SVG 1.1//EN"
 "http://www.w3.org/Graphics/SVG/1.1/DTD/svg11.dtd">
<!-- Generated by graphviz version 2.43.0 (0)
 -->
<!-- Title: dependency&#45;graph&#45;@siteimprove/alfa&#45;sarif Pages: 1 -->
<svg width="229pt" height="291pt"
 viewBox="0.00 0.00 229.20 291.20" xmlns="http://www.w3.org/2000/svg" xmlns:xlink="http://www.w3.org/1999/xlink">
<g id="graph0" class="graph" transform="scale(1 1) rotate(0) translate(21.6 269.6)">
<title>dependency&#45;graph&#45;@siteimprove/alfa&#45;sarif</title>
<polygon fill="#ffffff" stroke="transparent" points="-21.6,21.6 -21.6,-269.6 207.6,-269.6 207.6,21.6 -21.6,21.6"/>
<g id="clust1" class="cluster">
<title>cluster_src</title>
<polygon fill="#ffffff" stroke="#000000" points="8,-8 8,-240 178,-240 178,-8 8,-8"/>
</g>
<g id="clust2" class="cluster">
<title>cluster_src</title>
<polygon fill="#ffffff" stroke="#000000" points="16,-16 16,-232 170,-232 170,-16 16,-16"/>
</g>
<!-- src/sarif.ts -->
<g id="node1" class="node">
<title>src/sarif.ts</title>
<path fill="none" stroke="#000000" d="M72.33,-106C72.33,-106 31.67,-106 31.67,-106 27.83,-106 24,-102.17 24,-98.33 24,-98.33 24,-90.67 24,-90.67 24,-86.83 27.83,-83 31.67,-83 31.67,-83 72.33,-83 72.33,-83 76.17,-83 80,-86.83 80,-90.67 80,-90.67 80,-98.33 80,-98.33 80,-102.17 76.17,-106 72.33,-106"/>
<text text-anchor="middle" x="52" y="-90.8" font-family="Arial" font-size="14.00" fill="#000000">sarif.ts</text>
</g>
<!-- exit_src -->
<!-- src/sarif.ts&#45;&gt;exit_src -->
<!-- src/serializable.ts -->
<g id="node2" class="node">
<title>src/serializable.ts</title>
<path fill="none" stroke="#000000" d="M134.33,-165C134.33,-165 51.67,-165 51.67,-165 47.83,-165 44,-161.17 44,-157.33 44,-157.33 44,-149.67 44,-149.67 44,-145.83 47.83,-142 51.67,-142 51.67,-142 134.33,-142 134.33,-142 138.17,-142 142,-145.83 142,-149.67 142,-149.67 142,-157.33 142,-157.33 142,-161.17 138.17,-165 134.33,-165"/>
<text text-anchor="middle" x="93" y="-149.8" font-family="Arial" font-size="14.00" fill="#000000">serializable.ts</text>
</g>
<!-- src/serializable.ts&#45;&gt;src/sarif.ts -->
<!-- src/serializable.ts&#45;&gt;src/sarif.ts -->
<g id="edge8" class="edge">
<title>src/serializable.ts&#45;&gt;src/sarif.ts</title>
<path fill="none" stroke="black" stroke-dasharray="1,5" d="M90.7,-141.78C86.46,-133.98 79.03,-123.21 71.7,-114.03"/>
<polygon fill="black" stroke="black" points="74.2,-111.57 65.08,-106.17 68.84,-116.08 74.2,-111.57"/>
</g>
<!-- src/serializable.ts&#45;&gt;exit_src -->
<!-- exit_src&#45;&gt;exit_src -->
<!-- exit_src&#45;&gt;exit_src -->
<!-- exit_src&#45;&gt;exit_src -->
<!-- name_src -->
<g id="node4" class="node">
<title>name_src</title>
<path fill="none" stroke="#ff0000" stroke-width="5" d="M154.33,-224C154.33,-224 115.67,-224 115.67,-224 111.83,-224 108,-220.17 108,-216.33 108,-216.33 108,-208.67 108,-208.67 108,-204.83 111.83,-201 115.67,-201 115.67,-201 154.33,-201 154.33,-201 158.17,-201 162,-204.83 162,-208.67 162,-208.67 162,-216.33 162,-216.33 162,-220.17 158.17,-224 154.33,-224"/>
<text text-anchor="middle" x="135" y="-208.8" font-family="Arial" font-size="14.00" fill="#000000">src</text>
</g>
<!-- src/index.ts -->
<g id="node5" class="node">
<title>src/index.ts</title>
<path fill="none" stroke="#ff0000" stroke-width="5" d="M81.83,-224C81.83,-224 34.17,-224 34.17,-224 30.33,-224 26.5,-220.17 26.5,-216.33 26.5,-216.33 26.5,-208.67 26.5,-208.67 26.5,-204.83 30.33,-201 34.17,-201 34.17,-201 81.83,-201 81.83,-201 85.67,-201 89.5,-204.83 89.5,-208.67 89.5,-208.67 89.5,-216.33 89.5,-216.33 89.5,-220.17 85.67,-224 81.83,-224"/>
<text text-anchor="middle" x="58" y="-208.8" font-family="Arial" font-size="14.00" fill="#000000">index.ts</text>
</g>
<!-- src/index.ts&#45;&gt;src/sarif.ts -->
<!-- src/index.ts&#45;&gt;src/sarif.ts -->
<g id="edge10" class="edge">
<title>src/index.ts&#45;&gt;src/sarif.ts</title>
<path fill="none" stroke="black" d="M58.21,-200.95C54.44,-191.86 47.08,-178.15 44,-165 40.16,-148.58 45.17,-130.04 49.39,-116.24"/>
<polygon fill="black" stroke="black" points="52.84,-116.9 52.41,-106.32 46.15,-114.86 52.84,-116.9"/>
</g>
<!-- src/index.ts&#45;&gt;src/serializable.ts -->
<!-- src/index.ts&#45;&gt;src/serializable.ts -->
<g id="edge12" class="edge">
<title>src/index.ts&#45;&gt;src/serializable.ts</title>
<path fill="none" stroke="black" d="M69.99,-200.78C75.9,-193.29 82.52,-183.09 87.38,-174.16"/>
<polygon fill="black" stroke="black" points="90.53,-175.69 91.85,-165.17 84.26,-172.57 90.53,-175.69"/>
</g>
<!-- src/index.ts&#45;&gt;exit_src -->
</g>
</svg>
