<?xml version="1.0" encoding="UTF-8" standalone="no"?>
<!DOCTYPE svg PUBLIC "-//W3C//DTD SVG 1.1//EN"
 "http://www.w3.org/Graphics/SVG/1.1/DTD/svg11.dtd">
<!-- Generated by graphviz version 2.43.0 (0)
 -->
<!-- Title: dependency&#45;graph&#45;[object Object] Pages: 1 -->
<svg width="407pt" height="385pt"
 viewBox="0.00 0.00 406.70 385.20" xmlns="http://www.w3.org/2000/svg" xmlns:xlink="http://www.w3.org/1999/xlink">
<g id="graph0" class="graph" transform="scale(1 1) rotate(0) translate(21.6 363.6)">
<title>dependency&#45;graph&#45;[object Object]</title>
<polygon fill="#ffffff" stroke="transparent" points="-21.6,21.6 -21.6,-363.6 385.1,-363.6 385.1,21.6 -21.6,21.6"/>
<g id="clust1" class="cluster">
<title>cluster_src</title>
<polygon fill="#ffffff" stroke="#000000" points="8,-43 8,-334 355,-334 355,-43 8,-43"/>
</g>
<g id="clust2" class="cluster">
<title>cluster_src</title>
<polygon fill="#ffffff" stroke="#000000" points="16,-51 16,-326 347,-326 347,-51 16,-51"/>
</g>
<g id="clust3" class="cluster">
<title>cluster_src/predicate</title>
<polygon fill="#ffffff" stroke="#000000" points="24,-110 24,-208 307,-208 307,-110 24,-110"/>
</g>
<!-- dependency&#45;graph&#45;[object Object] -->
<!-- src/painting&#45;order.ts -->
<g id="node2" class="node">
<title>src/painting&#45;order.ts</title>
<path fill="none" stroke="#000000" d="M283.83,-259C283.83,-259 186.17,-259 186.17,-259 182.33,-259 178.5,-255.17 178.5,-251.33 178.5,-251.33 178.5,-243.67 178.5,-243.67 178.5,-239.83 182.33,-236 186.17,-236 186.17,-236 283.83,-236 283.83,-236 287.67,-236 291.5,-239.83 291.5,-243.67 291.5,-243.67 291.5,-251.33 291.5,-251.33 291.5,-255.17 287.67,-259 283.83,-259"/>
<text text-anchor="middle" x="235" y="-243.8" font-family="Arial" font-size="14.00" fill="#000000">painting&#45;order.ts</text>
</g>
<!-- name_src/predicate -->
<g id="node4" class="node">
<title>name_src/predicate</title>
<path fill="none" stroke="#00ffff" stroke-width="5" d="M96.33,-200C96.33,-200 39.67,-200 39.67,-200 35.83,-200 32,-196.17 32,-192.33 32,-192.33 32,-184.67 32,-184.67 32,-180.83 35.83,-177 39.67,-177 39.67,-177 96.33,-177 96.33,-177 100.17,-177 104,-180.83 104,-184.67 104,-184.67 104,-192.33 104,-192.33 104,-196.17 100.17,-200 96.33,-200"/>
<text text-anchor="middle" x="68" y="-184.8" font-family="Arial" font-size="14.00" fill="#000000">predicate</text>
</g>
<!-- src/painting&#45;order.ts&#45;&gt;name_src/predicate -->
<g id="edge11" class="edge">
<title>src/painting&#45;order.ts&#45;&gt;name_src/predicate</title>
<path fill="none" stroke="#ff0000" d="M199.56,-235.98C177.96,-229.41 149.59,-220.48 123.5,-211.36"/>
<polygon fill="#ff0000" stroke="#ff0000" points="124.59,-208.04 114,-208 122.26,-214.64 124.59,-208.04"/>
</g>
<!-- exit_src -->
<!-- src/painting&#45;order.ts&#45;&gt;exit_src -->
<!-- src/predicate/creates&#45;stacking&#45;context.ts -->
<g id="node3" class="node">
<title>src/predicate/creates&#45;stacking&#45;context.ts</title>
<path fill="none" stroke="#000000" d="M291.83,-200C291.83,-200 130.17,-200 130.17,-200 126.33,-200 122.5,-196.17 122.5,-192.33 122.5,-192.33 122.5,-184.67 122.5,-184.67 122.5,-180.83 126.33,-177 130.17,-177 130.17,-177 291.83,-177 291.83,-177 295.67,-177 299.5,-180.83 299.5,-184.67 299.5,-184.67 299.5,-192.33 299.5,-192.33 299.5,-196.17 295.67,-200 291.83,-200"/>
<text text-anchor="middle" x="211" y="-184.8" font-family="Arial" font-size="14.00" fill="#000000">creates&#45;stacking&#45;context.ts</text>
</g>
<!-- exit_src/predicate -->
<!-- src/predicate/creates&#45;stacking&#45;context.ts&#45;&gt;exit_src/predicate -->
<!-- name_src -->
<g id="node5" class="node">
<title>name_src</title>
<path fill="none" stroke="#ff0000" stroke-width="5" d="M331.33,-318C331.33,-318 292.67,-318 292.67,-318 288.83,-318 285,-314.17 285,-310.33 285,-310.33 285,-302.67 285,-302.67 285,-298.83 288.83,-295 292.67,-295 292.67,-295 331.33,-295 331.33,-295 335.17,-295 339,-298.83 339,-302.67 339,-302.67 339,-310.33 339,-310.33 339,-314.17 335.17,-318 331.33,-318"/>
<text text-anchor="middle" x="312" y="-302.8" font-family="Arial" font-size="14.00" fill="#000000">src</text>
</g>
<!-- exit_src&#45;&gt;dependency&#45;graph&#45;[object Object] -->
<!-- exit_src&#45;&gt;exit_src -->
<!-- exit_src&#45;&gt;exit_src -->
<!-- exit_src&#45;&gt;exit_src -->
<!-- src/index.ts -->
<g id="node7" class="node">
<title>src/index.ts</title>
<path fill="none" stroke="#ff0000" stroke-width="5" d="M258.83,-318C258.83,-318 211.17,-318 211.17,-318 207.33,-318 203.5,-314.17 203.5,-310.33 203.5,-310.33 203.5,-302.67 203.5,-302.67 203.5,-298.83 207.33,-295 211.17,-295 211.17,-295 258.83,-295 258.83,-295 262.67,-295 266.5,-298.83 266.5,-302.67 266.5,-302.67 266.5,-310.33 266.5,-310.33 266.5,-314.17 262.67,-318 258.83,-318"/>
<text text-anchor="middle" x="235" y="-302.8" font-family="Arial" font-size="14.00" fill="#000000">index.ts</text>
</g>
<!-- src/index.ts&#45;&gt;src/painting&#45;order.ts -->
<!-- src/index.ts&#45;&gt;src/painting&#45;order.ts -->
<g id="edge10" class="edge">
<title>src/index.ts&#45;&gt;src/painting&#45;order.ts</title>
<path fill="none" stroke="black" d="M240.41,-294.78C241.67,-287.61 242.04,-277.95 241.53,-269.31"/>
<polygon fill="black" stroke="black" points="244.98,-268.73 240.4,-259.17 238.03,-269.5 244.98,-268.73"/>
</g>
<!-- src/index.ts&#45;&gt;exit_src -->
<!-- exit_src/predicate&#45;&gt;exit_src -->
</g>
</svg>
