<?xml version="1.0" encoding="UTF-8" standalone="no"?>
<!DOCTYPE svg PUBLIC "-//W3C//DTD SVG 1.1//EN"
 "http://www.w3.org/Graphics/SVG/1.1/DTD/svg11.dtd">
<!-- Generated by graphviz version 2.43.0 (0)
 -->
<!-- Title: dependency&#45;graph&#45;@siteimprove/alfa&#45;painting&#45;order Pages: 1 -->
<svg width="406pt" height="350pt"
 viewBox="0.00 0.00 406.20 350.20" xmlns="http://www.w3.org/2000/svg" xmlns:xlink="http://www.w3.org/1999/xlink">
<g id="graph0" class="graph" transform="scale(1 1) rotate(0) translate(21.6 328.6)">
<title>dependency&#45;graph&#45;@siteimprove/alfa&#45;painting&#45;order</title>
<polygon fill="#ffffff" stroke="transparent" points="-21.6,21.6 -21.6,-328.6 384.6,-328.6 384.6,21.6 -21.6,21.6"/>
<g id="clust1" class="cluster">
<title>cluster_src</title>
<polygon fill="#ffffff" stroke="#000000" points="8,-8 8,-299 355,-299 355,-8 8,-8"/>
</g>
<g id="clust2" class="cluster">
<title>cluster_src</title>
<polygon fill="#ffffff" stroke="#000000" points="16,-16 16,-291 347,-291 347,-16 16,-16"/>
</g>
<g id="clust3" class="cluster">
<title>cluster_src/predicate</title>
<polygon fill="#ffffff" stroke="#000000" points="24,-75 24,-173 307,-173 307,-75 24,-75"/>
</g>
<!-- src/predicate/creates&#45;stacking&#45;context.ts -->
<g id="node1" class="node">
<title>src/predicate/creates&#45;stacking&#45;context.ts</title>
<path fill="none" stroke="#000000" d="M291.83,-165C291.83,-165 130.17,-165 130.17,-165 126.33,-165 122.5,-161.17 122.5,-157.33 122.5,-157.33 122.5,-149.67 122.5,-149.67 122.5,-145.83 126.33,-142 130.17,-142 130.17,-142 291.83,-142 291.83,-142 295.67,-142 299.5,-145.83 299.5,-149.67 299.5,-149.67 299.5,-157.33 299.5,-157.33 299.5,-161.17 295.67,-165 291.83,-165"/>
<text text-anchor="middle" x="211" y="-149.8" font-family="Arial" font-size="14.00" fill="#000000">creates&#45;stacking&#45;context.ts</text>
</g>
<!-- exit_src/predicate -->
<!-- src/predicate/creates&#45;stacking&#45;context.ts&#45;&gt;exit_src/predicate -->
<!-- name_src/predicate -->
<g id="node2" class="node">
<title>name_src/predicate</title>
<path fill="none" stroke="#00ffff" stroke-width="5" d="M96.33,-165C96.33,-165 39.67,-165 39.67,-165 35.83,-165 32,-161.17 32,-157.33 32,-157.33 32,-149.67 32,-149.67 32,-145.83 35.83,-142 39.67,-142 39.67,-142 96.33,-142 96.33,-142 100.17,-142 104,-145.83 104,-149.67 104,-149.67 104,-157.33 104,-157.33 104,-161.17 100.17,-165 96.33,-165"/>
<text text-anchor="middle" x="68" y="-149.8" font-family="Arial" font-size="14.00" fill="#000000">predicate</text>
</g>
<!-- src/painting&#45;order.ts -->
<g id="node3" class="node">
<title>src/painting&#45;order.ts</title>
<path fill="none" stroke="#000000" d="M283.83,-224C283.83,-224 186.17,-224 186.17,-224 182.33,-224 178.5,-220.17 178.5,-216.33 178.5,-216.33 178.5,-208.67 178.5,-208.67 178.5,-204.83 182.33,-201 186.17,-201 186.17,-201 283.83,-201 283.83,-201 287.67,-201 291.5,-204.83 291.5,-208.67 291.5,-208.67 291.5,-216.33 291.5,-216.33 291.5,-220.17 287.67,-224 283.83,-224"/>
<text text-anchor="middle" x="235" y="-208.8" font-family="Arial" font-size="14.00" fill="#000000">painting&#45;order.ts</text>
</g>
<!-- src/painting&#45;order.ts&#45;&gt;name_src/predicate -->
<g id="edge8" class="edge">
<title>src/painting&#45;order.ts&#45;&gt;name_src/predicate</title>
<path fill="none" stroke="#ff0000" d="M199.56,-200.98C177.96,-194.41 149.59,-185.48 123.5,-176.36"/>
<polygon fill="#ff0000" stroke="#ff0000" points="124.59,-173.04 114,-173 122.26,-179.64 124.59,-173.04"/>
</g>
<!-- exit_src -->
<!-- src/painting&#45;order.ts&#45;&gt;exit_src -->
<!-- exit_src&#45;&gt;exit_src -->
<!-- exit_src&#45;&gt;exit_src -->
<!-- exit_src&#45;&gt;exit_src -->
<!-- name_src -->
<g id="node5" class="node">
<title>name_src</title>
<path fill="none" stroke="#ff0000" stroke-width="5" d="M331.33,-283C331.33,-283 292.67,-283 292.67,-283 288.83,-283 285,-279.17 285,-275.33 285,-275.33 285,-267.67 285,-267.67 285,-263.83 288.83,-260 292.67,-260 292.67,-260 331.33,-260 331.33,-260 335.17,-260 339,-263.83 339,-267.67 339,-267.67 339,-275.33 339,-275.33 339,-279.17 335.17,-283 331.33,-283"/>
<text text-anchor="middle" x="312" y="-267.8" font-family="Arial" font-size="14.00" fill="#000000">src</text>
</g>
<!-- src/index.ts -->
<g id="node6" class="node">
<title>src/index.ts</title>
<path fill="none" stroke="#ff0000" stroke-width="5" d="M258.83,-283C258.83,-283 211.17,-283 211.17,-283 207.33,-283 203.5,-279.17 203.5,-275.33 203.5,-275.33 203.5,-267.67 203.5,-267.67 203.5,-263.83 207.33,-260 211.17,-260 211.17,-260 258.83,-260 258.83,-260 262.67,-260 266.5,-263.83 266.5,-267.67 266.5,-267.67 266.5,-275.33 266.5,-275.33 266.5,-279.17 262.67,-283 258.83,-283"/>
<text text-anchor="middle" x="235" y="-267.8" font-family="Arial" font-size="14.00" fill="#000000">index.ts</text>
</g>
<!-- src/index.ts&#45;&gt;src/painting&#45;order.ts -->
<!-- src/index.ts&#45;&gt;src/painting&#45;order.ts -->
<g id="edge10" class="edge">
<title>src/index.ts&#45;&gt;src/painting&#45;order.ts</title>
<path fill="none" stroke="black" d="M240.41,-259.78C241.67,-252.61 242.04,-242.95 241.53,-234.31"/>
<polygon fill="black" stroke="black" points="244.98,-233.73 240.4,-224.17 238.03,-234.5 244.98,-233.73"/>
</g>
<!-- src/index.ts&#45;&gt;exit_src -->
<!-- exit_src/predicate&#45;&gt;exit_src -->
</g>
</svg>
