<?xml version="1.0" encoding="UTF-8" standalone="no"?>
<!DOCTYPE svg PUBLIC "-//W3C//DTD SVG 1.1//EN"
 "http://www.w3.org/Graphics/SVG/1.1/DTD/svg11.dtd">
<!-- Generated by graphviz version 2.43.0 (0)
 -->
<!-- Title: dependency&#45;graph&#45;[object Object] Pages: 1 -->
<svg width="786pt" height="1034pt"
 viewBox="0.00 0.00 786.01 1034.20" xmlns="http://www.w3.org/2000/svg" xmlns:xlink="http://www.w3.org/1999/xlink">
<g id="graph0" class="graph" transform="scale(1 1) rotate(0) translate(21.6 1012.6)">
<title>dependency&#45;graph&#45;[object Object]</title>
<polygon fill="#ffffff" stroke="transparent" points="-21.6,21.6 -21.6,-1012.6 764.41,-1012.6 764.41,21.6 -21.6,21.6"/>
<g id="clust1" class="cluster">
<title>cluster_src</title>
<polygon fill="#ffffff" stroke="#000000" points="22.81,-43 22.81,-983 734.81,-983 734.81,-43 22.81,-43"/>
</g>
<g id="clust2" class="cluster">
<title>cluster_src</title>
<polygon fill="#ffffff" stroke="#000000" points="30.81,-51 30.81,-975 726.81,-975 726.81,-51 30.81,-51"/>
</g>
<g id="clust3" class="cluster">
<title>cluster_src/condition</title>
<polygon fill="#ffffff" stroke="#000000" points="182.81,-700 182.81,-916 436.81,-916 436.81,-700 182.81,-700"/>
</g>
<g id="clust4" class="cluster">
<title>cluster_src/feature</title>
<polygon fill="#ffffff" stroke="#000000" points="70.81,-405 70.81,-680 486.81,-680 486.81,-405 70.81,-405"/>
</g>
<g id="clust5" class="cluster">
<title>cluster_src/value</title>
<polygon fill="#ffffff" stroke="#000000" points="52.81,-110 52.81,-385 292.81,-385 292.81,-110 52.81,-110"/>
</g>
<!-- dependency&#45;graph&#45;[object Object] -->
<!-- src/condition/condition.ts -->
<g id="node2" class="node">
<title>src/condition/condition.ts</title>
<path fill="none" stroke="#000000" d="M338.64,-849C338.64,-849 268.97,-849 268.97,-849 265.14,-849 261.31,-845.17 261.31,-841.33 261.31,-841.33 261.31,-833.67 261.31,-833.67 261.31,-829.83 265.14,-826 268.97,-826 268.97,-826 338.64,-826 338.64,-826 342.47,-826 346.31,-829.83 346.31,-833.67 346.31,-833.67 346.31,-841.33 346.31,-841.33 346.31,-845.17 342.47,-849 338.64,-849"/>
<text text-anchor="middle" x="303.81" y="-833.8" font-family="Arial" font-size="14.00" fill="#000000">condition.ts</text>
</g>
<!-- exit_src/condition -->
<!-- src/condition/condition.ts&#45;&gt;exit_src/condition -->
<!-- src/condition/and.ts -->
<g id="node7" class="node">
<title>src/condition/and.ts</title>
<path fill="none" stroke="#000000" d="M349.14,-790C349.14,-790 310.47,-790 310.47,-790 306.64,-790 302.81,-786.17 302.81,-782.33 302.81,-782.33 302.81,-774.67 302.81,-774.67 302.81,-770.83 306.64,-767 310.47,-767 310.47,-767 349.14,-767 349.14,-767 352.97,-767 356.81,-770.83 356.81,-774.67 356.81,-774.67 356.81,-782.33 356.81,-782.33 356.81,-786.17 352.97,-790 349.14,-790"/>
<text text-anchor="middle" x="329.81" y="-774.8" font-family="Arial" font-size="14.00" fill="#000000">and.ts</text>
</g>
<!-- src/condition/condition.ts&#45;&gt;src/condition/and.ts -->
<!-- src/condition/condition.ts&#45;&gt;src/condition/and.ts -->
<g id="edge73" class="edge">
<title>src/condition/condition.ts&#45;&gt;src/condition/and.ts</title>
<path fill="none" stroke="black" d="M324.93,-825.78C331.97,-818.61 337.49,-808.95 339.89,-800.31"/>
<polygon fill="black" stroke="black" points="343.39,-800.53 341.15,-790.17 336.45,-799.67 343.39,-800.53"/>
</g>
<!-- src/condition/not.ts -->
<g id="node8" class="node">
<title>src/condition/not.ts</title>
<path fill="none" stroke="#000000" d="M257.14,-790C257.14,-790 218.47,-790 218.47,-790 214.64,-790 210.81,-786.17 210.81,-782.33 210.81,-782.33 210.81,-774.67 210.81,-774.67 210.81,-770.83 214.64,-767 218.47,-767 218.47,-767 257.14,-767 257.14,-767 260.97,-767 264.81,-770.83 264.81,-774.67 264.81,-774.67 264.81,-782.33 264.81,-782.33 264.81,-786.17 260.97,-790 257.14,-790"/>
<text text-anchor="middle" x="237.81" y="-774.8" font-family="Arial" font-size="14.00" fill="#000000">not.ts</text>
</g>
<!-- src/condition/condition.ts&#45;&gt;src/condition/not.ts -->
<!-- src/condition/condition.ts&#45;&gt;src/condition/not.ts -->
<g id="edge75" class="edge">
<title>src/condition/condition.ts&#45;&gt;src/condition/not.ts</title>
<path fill="none" stroke="black" d="M285.98,-825.78C275.26,-817.74 262.01,-806.55 251.99,-797.19"/>
<polygon fill="black" stroke="black" points="254.37,-794.63 244.76,-790.17 249.5,-799.65 254.37,-794.63"/>
</g>
<!-- src/condition/or.ts -->
<g id="node9" class="node">
<title>src/condition/or.ts</title>
<path fill="none" stroke="#000000" d="M421.14,-790C421.14,-790 382.47,-790 382.47,-790 378.64,-790 374.81,-786.17 374.81,-782.33 374.81,-782.33 374.81,-774.67 374.81,-774.67 374.81,-770.83 378.64,-767 382.47,-767 382.47,-767 421.14,-767 421.14,-767 424.97,-767 428.81,-770.83 428.81,-774.67 428.81,-774.67 428.81,-782.33 428.81,-782.33 428.81,-786.17 424.97,-790 421.14,-790"/>
<text text-anchor="middle" x="401.81" y="-774.8" font-family="Arial" font-size="14.00" fill="#000000">or.ts</text>
</g>
<!-- src/condition/condition.ts&#45;&gt;src/condition/or.ts -->
<!-- src/condition/condition.ts&#45;&gt;src/condition/or.ts -->
<g id="edge77" class="edge">
<title>src/condition/condition.ts&#45;&gt;src/condition/or.ts</title>
<path fill="none" stroke="black" d="M316.83,-825.78C330.23,-817.1 351.22,-804.76 369.06,-795.01"/>
<polygon fill="black" stroke="black" points="370.9,-797.99 378.05,-790.17 367.59,-791.83 370.9,-797.99"/>
</g>
<!-- src/feature/index.ts -->
<g id="node3" class="node">
<title>src/feature/index.ts</title>
<path fill="none" stroke="#ff0000" stroke-width="5" d="M354.64,-672C354.64,-672 306.97,-672 306.97,-672 303.14,-672 299.31,-668.17 299.31,-664.33 299.31,-664.33 299.31,-656.67 299.31,-656.67 299.31,-652.83 303.14,-649 306.97,-649 306.97,-649 354.64,-649 354.64,-649 358.47,-649 362.31,-652.83 362.31,-656.67 362.31,-656.67 362.31,-664.33 362.31,-664.33 362.31,-668.17 358.47,-672 354.64,-672"/>
<text text-anchor="middle" x="330.81" y="-656.8" font-family="Arial" font-size="14.00" fill="#000000">index.ts</text>
</g>
<!-- exit_src/feature -->
<!-- src/feature/index.ts&#45;&gt;exit_src/feature -->
<!-- src/feature/feature.ts -->
<g id="node14" class="node">
<title>src/feature/feature.ts</title>
<path fill="none" stroke="#000000" d="M288.64,-554C288.64,-554 230.97,-554 230.97,-554 227.14,-554 223.31,-550.17 223.31,-546.33 223.31,-546.33 223.31,-538.67 223.31,-538.67 223.31,-534.83 227.14,-531 230.97,-531 230.97,-531 288.64,-531 288.64,-531 292.47,-531 296.31,-534.83 296.31,-538.67 296.31,-538.67 296.31,-546.33 296.31,-546.33 296.31,-550.17 292.47,-554 288.64,-554"/>
<text text-anchor="middle" x="259.81" y="-538.8" font-family="Arial" font-size="14.00" fill="#000000">feature.ts</text>
</g>
<!-- src/feature/index.ts&#45;&gt;src/feature/feature.ts -->
<!-- src/feature/index.ts&#45;&gt;src/feature/feature.ts -->
<g id="edge108" class="edge">
<title>src/feature/index.ts&#45;&gt;src/feature/feature.ts</title>
<path fill="none" stroke="black" d="M299.63,-648.91C264.12,-637.93 210.69,-621.25 204.81,-613 190.64,-593.14 214.54,-572.89 235.29,-559.41"/>
<polygon fill="black" stroke="black" points="237.23,-562.33 243.87,-554.07 233.53,-556.39 237.23,-562.33"/>
</g>
<!-- src/feature/height.ts -->
<g id="node16" class="node">
<title>src/feature/height.ts</title>
<path fill="none" stroke="#000000" d="M159.14,-613C159.14,-613 106.47,-613 106.47,-613 102.64,-613 98.81,-609.17 98.81,-605.33 98.81,-605.33 98.81,-597.67 98.81,-597.67 98.81,-593.83 102.64,-590 106.47,-590 106.47,-590 159.14,-590 159.14,-590 162.97,-590 166.81,-593.83 166.81,-597.67 166.81,-597.67 166.81,-605.33 166.81,-605.33 166.81,-609.17 162.97,-613 159.14,-613"/>
<text text-anchor="middle" x="132.81" y="-597.8" font-family="Arial" font-size="14.00" fill="#000000">height.ts</text>
</g>
<!-- src/feature/index.ts&#45;&gt;src/feature/height.ts -->
<!-- src/feature/index.ts&#45;&gt;src/feature/height.ts -->
<g id="edge110" class="edge">
<title>src/feature/index.ts&#45;&gt;src/feature/height.ts</title>
<path fill="none" stroke="black" d="M299.42,-648.91C266.34,-638.88 214.21,-623.86 177,-613.64"/>
<polygon fill="black" stroke="black" points="177.5,-610.15 166.94,-610.9 175.66,-616.91 177.5,-610.15"/>
</g>
<!-- src/feature/orientation.ts -->
<g id="node17" class="node">
<title>src/feature/orientation.ts</title>
<path fill="none" stroke="#000000" d="M291.14,-613C291.14,-613 212.47,-613 212.47,-613 208.64,-613 204.81,-609.17 204.81,-605.33 204.81,-605.33 204.81,-597.67 204.81,-597.67 204.81,-593.83 208.64,-590 212.47,-590 212.47,-590 291.14,-590 291.14,-590 294.97,-590 298.81,-593.83 298.81,-597.67 298.81,-597.67 298.81,-605.33 298.81,-605.33 298.81,-609.17 294.97,-613 291.14,-613"/>
<text text-anchor="middle" x="251.81" y="-597.8" font-family="Arial" font-size="14.00" fill="#000000">orientation.ts</text>
</g>
<!-- src/feature/index.ts&#45;&gt;src/feature/orientation.ts -->
<!-- src/feature/index.ts&#45;&gt;src/feature/orientation.ts -->
<g id="edge112" class="edge">
<title>src/feature/index.ts&#45;&gt;src/feature/orientation.ts</title>
<path fill="none" stroke="black" d="M321.36,-648.78C311.14,-640.34 294.9,-628.44 280.59,-618.82"/>
<polygon fill="black" stroke="black" points="282.28,-615.74 272,-613.17 278.44,-621.59 282.28,-615.74"/>
</g>
<!-- src/feature/scripting.ts -->
<g id="node18" class="node">
<title>src/feature/scripting.ts</title>
<path fill="none" stroke="#000000" d="M390.64,-613C390.64,-613 324.97,-613 324.97,-613 321.14,-613 317.31,-609.17 317.31,-605.33 317.31,-605.33 317.31,-597.67 317.31,-597.67 317.31,-593.83 321.14,-590 324.97,-590 324.97,-590 390.64,-590 390.64,-590 394.47,-590 398.31,-593.83 398.31,-597.67 398.31,-597.67 398.31,-605.33 398.31,-605.33 398.31,-609.17 394.47,-613 390.64,-613"/>
<text text-anchor="middle" x="357.81" y="-597.8" font-family="Arial" font-size="14.00" fill="#000000">scripting.ts</text>
</g>
<!-- src/feature/index.ts&#45;&gt;src/feature/scripting.ts -->
<!-- src/feature/index.ts&#45;&gt;src/feature/scripting.ts -->
<g id="edge114" class="edge">
<title>src/feature/index.ts&#45;&gt;src/feature/scripting.ts</title>
<path fill="none" stroke="black" d="M341.3,-648.78C346.05,-641.45 351.12,-631.52 354.71,-622.74"/>
<polygon fill="black" stroke="black" points="358.06,-623.77 358.15,-613.17 351.47,-621.4 358.06,-623.77"/>
</g>
<!-- src/feature/width.ts -->
<g id="node19" class="node">
<title>src/feature/width.ts</title>
<path fill="none" stroke="#000000" d="M471.14,-613C471.14,-613 424.47,-613 424.47,-613 420.64,-613 416.81,-609.17 416.81,-605.33 416.81,-605.33 416.81,-597.67 416.81,-597.67 416.81,-593.83 420.64,-590 424.47,-590 424.47,-590 471.14,-590 471.14,-590 474.97,-590 478.81,-593.83 478.81,-597.67 478.81,-597.67 478.81,-605.33 478.81,-605.33 478.81,-609.17 474.97,-613 471.14,-613"/>
<text text-anchor="middle" x="447.81" y="-597.8" font-family="Arial" font-size="14.00" fill="#000000">width.ts</text>
</g>
<!-- src/feature/index.ts&#45;&gt;src/feature/width.ts -->
<!-- src/feature/index.ts&#45;&gt;src/feature/width.ts -->
<g id="edge116" class="edge">
<title>src/feature/index.ts&#45;&gt;src/feature/width.ts</title>
<path fill="none" stroke="black" d="M357.93,-648.91C377.46,-640.15 403.45,-627.6 422.54,-617.76"/>
<polygon fill="black" stroke="black" points="424.33,-620.77 431.57,-613.03 421.08,-614.57 424.33,-620.77"/>
</g>
<!-- name_src/feature -->
<g id="node5" class="node">
<title>name_src/feature</title>
<path fill="none" stroke="#ff0000" stroke-width="5" d="M273.64,-672C273.64,-672 229.97,-672 229.97,-672 226.14,-672 222.31,-668.17 222.31,-664.33 222.31,-664.33 222.31,-656.67 222.31,-656.67 222.31,-652.83 226.14,-649 229.97,-649 229.97,-649 273.64,-649 273.64,-649 277.47,-649 281.31,-652.83 281.31,-656.67 281.31,-656.67 281.31,-664.33 281.31,-664.33 281.31,-668.17 277.47,-672 273.64,-672"/>
<text text-anchor="middle" x="251.81" y="-656.8" font-family="Arial" font-size="14.00" fill="#000000">feature</text>
</g>
<!-- exit_src/condition&#45;&gt;name_src/feature -->
<g id="edge69" class="edge">
<title>exit_src/condition&#45;&gt;name_src/feature</title>
<path fill="none" stroke="#00ffff" stroke-dasharray="1,5" d="M232.71,-700C231.31,-694.17 231.18,-687.69 232.33,-681.74"/>
<polygon fill="#00ffff" stroke="#00ffff" points="230.54,-690.14 233.6,-680 224.88,-686.02 230.54,-690.14"/>
</g>
<!-- exit_src/condition&#45;&gt;name_src/feature -->
<!-- exit_src/condition&#45;&gt;name_src/feature -->
<!-- exit_src/condition&#45;&gt;name_src/feature -->
<!-- src/matchable.ts -->
<g id="node6" class="node">
<title>src/matchable.ts</title>
<path fill="none" stroke="#000000" d="M581.14,-495C581.14,-495 502.47,-495 502.47,-495 498.64,-495 494.81,-491.17 494.81,-487.33 494.81,-487.33 494.81,-479.67 494.81,-479.67 494.81,-475.83 498.64,-472 502.47,-472 502.47,-472 581.14,-472 581.14,-472 584.97,-472 588.81,-475.83 588.81,-479.67 588.81,-479.67 588.81,-487.33 588.81,-487.33 588.81,-491.17 584.97,-495 581.14,-495"/>
<text text-anchor="middle" x="541.81" y="-479.8" font-family="Arial" font-size="14.00" fill="#000000">matchable.ts</text>
</g>
<!-- exit_src/condition&#45;&gt;src/matchable.ts -->
<g id="edge71" class="edge">
<title>exit_src/condition&#45;&gt;src/matchable.ts</title>
<path fill="none" stroke="#00ffff" stroke-dasharray="1,5" d="M298.81,-700C336.98,-692.43 444.85,-707.08 472.81,-680 520.89,-633.43 471.72,-593.83 494.81,-531 498.49,-520.98 504.51,-510.82 511.63,-502.56"/>
<polygon fill="#00ffff" stroke="#00ffff" points="514.25,-504.88 518.75,-495.29 509.25,-499.98 514.25,-504.88"/>
</g>
<!-- exit_src/condition&#45;&gt;src/matchable.ts -->
<!-- exit_src/condition&#45;&gt;src/matchable.ts -->
<!-- exit_src -->
<!-- exit_src/condition&#45;&gt;exit_src -->
<!-- exit_src/condition&#45;&gt;exit_src -->
<!-- exit_src/condition&#45;&gt;exit_src -->
<!-- exit_src/condition&#45;&gt;exit_src -->
<!-- exit_src/condition&#45;&gt;exit_src -->
<!-- src/matchable.ts&#45;&gt;exit_src -->
<!-- src/condition/and.ts&#45;&gt;src/condition/condition.ts -->
<!-- src/condition/and.ts&#45;&gt;src/condition/condition.ts -->
<g id="edge68" class="edge">
<title>src/condition/and.ts&#45;&gt;src/condition/condition.ts</title>
<path fill="none" stroke="black" stroke-dasharray="1,5" d="M330.34,-790.17C328.23,-797.72 323.85,-808.07 319.11,-817.06"/>
<polygon fill="black" stroke="black" points="316.05,-815.36 314.11,-825.78 322.12,-818.85 316.05,-815.36"/>
</g>
<!-- src/condition/and.ts&#45;&gt;exit_src/condition -->
<!-- src/condition/and.ts&#45;&gt;src/matchable.ts -->
<!-- src/condition/not.ts&#45;&gt;src/condition/condition.ts -->
<!-- src/condition/not.ts&#45;&gt;src/condition/condition.ts -->
<g id="edge88" class="edge">
<title>src/condition/not.ts&#45;&gt;src/condition/condition.ts</title>
<path fill="none" stroke="black" stroke-dasharray="1,5" d="M265.07,-789.41C278.52,-797.19 292.45,-808.25 301.2,-817.7"/>
<polygon fill="black" stroke="black" points="298.66,-820.13 307.63,-825.78 304.14,-815.77 298.66,-820.13"/>
</g>
<!-- src/condition/not.ts&#45;&gt;exit_src/condition -->
<!-- src/condition/not.ts&#45;&gt;src/matchable.ts -->
<!-- src/condition/or.ts&#45;&gt;src/condition/condition.ts -->
<!-- src/condition/or.ts&#45;&gt;src/condition/condition.ts -->
<g id="edge93" class="edge">
<title>src/condition/or.ts&#45;&gt;src/condition/condition.ts</title>
<path fill="none" stroke="black" stroke-dasharray="1,5" d="M399.6,-790.22C389.03,-799.09 367.83,-811.77 347.44,-821.61"/>
<polygon fill="black" stroke="black" points="345.77,-818.53 338.17,-825.91 348.72,-824.88 345.77,-818.53"/>
</g>
<!-- src/condition/or.ts&#45;&gt;exit_src/condition -->
<!-- src/condition/or.ts&#45;&gt;src/matchable.ts -->
<!-- src/feature/comparison.ts -->
<g id="node10" class="node">
<title>src/feature/comparison.ts</title>
<path fill="none" stroke="#000000" d="M310.64,-495C310.64,-495 224.97,-495 224.97,-495 221.14,-495 217.31,-491.17 217.31,-487.33 217.31,-487.33 217.31,-479.67 217.31,-479.67 217.31,-475.83 221.14,-472 224.97,-472 224.97,-472 310.64,-472 310.64,-472 314.47,-472 318.31,-475.83 318.31,-479.67 318.31,-479.67 318.31,-487.33 318.31,-487.33 318.31,-491.17 314.47,-495 310.64,-495"/>
<text text-anchor="middle" x="267.81" y="-479.8" font-family="Arial" font-size="14.00" fill="#000000">comparison.ts</text>
</g>
<!-- src/feature/comparison.ts&#45;&gt;exit_src/feature -->
<!-- exit_src/feature&#45;&gt;src/matchable.ts -->
<g id="edge100" class="edge">
<title>exit_src/feature&#45;&gt;src/matchable.ts</title>
<path fill="none" stroke="#ff0000" stroke-dasharray="1,5" d="M486.8,-466.98C489.44,-467.72 492.02,-468.45 494.55,-469.16"/>
<polygon fill="#ff0000" stroke="#ff0000" points="493.71,-472.56 504.28,-471.91 495.61,-465.83 493.71,-472.56"/>
</g>
<!-- name_src/value -->
<g id="node13" class="node">
<title>name_src/value</title>
<path fill="none" stroke="#8000ff" stroke-width="5" d="M193.14,-377C193.14,-377 154.47,-377 154.47,-377 150.64,-377 146.81,-373.17 146.81,-369.33 146.81,-369.33 146.81,-361.67 146.81,-361.67 146.81,-357.83 150.64,-354 154.47,-354 154.47,-354 193.14,-354 193.14,-354 196.97,-354 200.81,-357.83 200.81,-361.67 200.81,-361.67 200.81,-369.33 200.81,-369.33 200.81,-373.17 196.97,-377 193.14,-377"/>
<text text-anchor="middle" x="173.81" y="-361.8" font-family="Arial" font-size="14.00" fill="#000000">value</text>
</g>
<!-- exit_src/feature&#45;&gt;name_src/value -->
<g id="edge101" class="edge">
<title>exit_src/feature&#45;&gt;name_src/value</title>
<path fill="none" stroke="#ff0000" d="M245.81,-405C217.96,-396.64 207.71,-396.68 184.43,-388.55"/>
<polygon fill="#ff0000" stroke="#ff0000" points="185.4,-385.18 174.81,-385 182.98,-391.74 185.4,-385.18"/>
</g>
<!-- exit_src/feature&#45;&gt;name_src/value -->
<!-- exit_src/feature&#45;&gt;name_src/value -->
<!-- exit_src/feature&#45;&gt;name_src/value -->
<!-- exit_src/feature&#45;&gt;name_src/value -->
<!-- src/resolver.ts -->
<g id="node15" class="node">
<title>src/resolver.ts</title>
<path fill="none" stroke="#000000" d="M371.14,-377C371.14,-377 308.47,-377 308.47,-377 304.64,-377 300.81,-373.17 300.81,-369.33 300.81,-369.33 300.81,-361.67 300.81,-361.67 300.81,-357.83 304.64,-354 308.47,-354 308.47,-354 371.14,-354 371.14,-354 374.97,-354 378.81,-357.83 378.81,-361.67 378.81,-361.67 378.81,-369.33 378.81,-369.33 378.81,-373.17 374.97,-377 371.14,-377"/>
<text text-anchor="middle" x="339.81" y="-361.8" font-family="Arial" font-size="14.00" fill="#000000">resolver.ts</text>
</g>
<!-- exit_src/feature&#45;&gt;src/resolver.ts -->
<g id="edge105" class="edge">
<title>exit_src/feature&#45;&gt;src/resolver.ts</title>
<path fill="none" stroke="#ff0000" d="M333.44,-405C332.99,-399.35 332.94,-393.1 333.28,-387.31"/>
<polygon fill="#ff0000" stroke="#ff0000" points="336.78,-387.5 334.4,-377.17 329.82,-386.73 336.78,-387.5"/>
</g>
<!-- exit_src/feature&#45;&gt;src/resolver.ts -->
<!-- exit_src/feature&#45;&gt;exit_src -->
<!-- exit_src/feature&#45;&gt;exit_src -->
<!-- exit_src/feature&#45;&gt;exit_src -->
<!-- exit_src/feature&#45;&gt;exit_src -->
<!-- exit_src/feature&#45;&gt;exit_src -->
<!-- exit_src/feature&#45;&gt;exit_src -->
<!-- exit_src/feature&#45;&gt;exit_src -->
<!-- src/value/index.ts -->
<g id="node12" class="node">
<title>src/value/index.ts</title>
<path fill="none" stroke="#8000ff" stroke-width="5" d="M274.64,-377C274.64,-377 226.97,-377 226.97,-377 223.14,-377 219.31,-373.17 219.31,-369.33 219.31,-369.33 219.31,-361.67 219.31,-361.67 219.31,-357.83 223.14,-354 226.97,-354 226.97,-354 274.64,-354 274.64,-354 278.47,-354 282.31,-357.83 282.31,-361.67 282.31,-361.67 282.31,-369.33 282.31,-369.33 282.31,-373.17 278.47,-377 274.64,-377"/>
<text text-anchor="middle" x="250.81" y="-361.8" font-family="Arial" font-size="14.00" fill="#000000">index.ts</text>
</g>
<!-- src/value/value.ts -->
<g id="node26" class="node">
<title>src/value/value.ts</title>
<path fill="none" stroke="#000000" d="M182.64,-318C182.64,-318 134.97,-318 134.97,-318 131.14,-318 127.31,-314.17 127.31,-310.33 127.31,-310.33 127.31,-302.67 127.31,-302.67 127.31,-298.83 131.14,-295 134.97,-295 134.97,-295 182.64,-295 182.64,-295 186.47,-295 190.31,-298.83 190.31,-302.67 190.31,-302.67 190.31,-310.33 190.31,-310.33 190.31,-314.17 186.47,-318 182.64,-318"/>
<text text-anchor="middle" x="158.81" y="-302.8" font-family="Arial" font-size="14.00" fill="#000000">value.ts</text>
</g>
<!-- src/value/index.ts&#45;&gt;src/value/value.ts -->
<!-- src/value/index.ts&#45;&gt;src/value/value.ts -->
<g id="edge156" class="edge">
<title>src/value/index.ts&#45;&gt;src/value/value.ts</title>
<path fill="none" stroke="black" d="M238.91,-353.78C226.54,-345.18 207.1,-332.99 190.38,-323.28"/>
<polygon fill="black" stroke="black" points="191.86,-320.09 181.44,-318.17 188.39,-326.17 191.86,-320.09"/>
</g>
<!-- exit_src/value -->
<!-- src/value/index.ts&#45;&gt;exit_src/value -->
<!-- src/feature/feature.ts&#45;&gt;src/matchable.ts -->
<!-- src/feature/feature.ts&#45;&gt;src/feature/comparison.ts -->
<!-- src/feature/feature.ts&#45;&gt;src/feature/comparison.ts -->
<g id="edge98" class="edge">
<title>src/feature/feature.ts&#45;&gt;src/feature/comparison.ts</title>
<path fill="none" stroke="black" d="M266.72,-530.78C268.98,-523.61 270.71,-513.95 271.41,-505.31"/>
<polygon fill="black" stroke="black" points="274.91,-505.27 271.71,-495.17 267.92,-505.07 274.91,-505.27"/>
</g>
<!-- src/feature/feature.ts&#45;&gt;exit_src/feature -->
<!-- src/resolver.ts&#45;&gt;exit_src -->
<!-- src/feature/height.ts&#45;&gt;exit_src/feature -->
<!-- src/feature/height.ts&#45;&gt;src/feature/feature.ts -->
<!-- src/feature/height.ts&#45;&gt;src/feature/feature.ts -->
<g id="edge103" class="edge">
<title>src/feature/height.ts&#45;&gt;src/feature/feature.ts</title>
<path fill="none" stroke="black" d="M161.78,-589.91C183.05,-581.07 211.56,-568.37 232.44,-558.49"/>
<polygon fill="black" stroke="black" points="234.22,-561.51 241.72,-554.03 231.19,-555.2 234.22,-561.51"/>
</g>
<!-- src/feature/height.ts&#45;&gt;src/resolver.ts -->
<!-- src/feature/orientation.ts&#45;&gt;exit_src/feature -->
<!-- src/feature/orientation.ts&#45;&gt;src/feature/feature.ts -->
<!-- src/feature/orientation.ts&#45;&gt;src/feature/feature.ts -->
<g id="edge118" class="edge">
<title>src/feature/orientation.ts&#45;&gt;src/feature/feature.ts</title>
<path fill="none" stroke="black" d="M258.72,-589.78C260.98,-582.61 262.71,-572.95 263.41,-564.31"/>
<polygon fill="black" stroke="black" points="266.91,-564.27 263.71,-554.17 259.92,-564.07 266.91,-564.27"/>
</g>
<!-- src/feature/scripting.ts&#45;&gt;exit_src/feature -->
<!-- src/feature/scripting.ts&#45;&gt;src/feature/feature.ts -->
<!-- src/feature/scripting.ts&#45;&gt;src/feature/feature.ts -->
<g id="edge121" class="edge">
<title>src/feature/scripting.ts&#45;&gt;src/feature/feature.ts</title>
<path fill="none" stroke="black" d="M344.78,-589.78C331.39,-581.1 310.39,-568.76 292.55,-559.01"/>
<polygon fill="black" stroke="black" points="294.02,-555.83 283.56,-554.17 290.71,-561.99 294.02,-555.83"/>
</g>
<!-- src/feature/width.ts&#45;&gt;exit_src/feature -->
<!-- src/feature/width.ts&#45;&gt;src/feature/feature.ts -->
<!-- src/feature/width.ts&#45;&gt;src/feature/feature.ts -->
<g id="edge124" class="edge">
<title>src/feature/width.ts&#45;&gt;src/feature/feature.ts</title>
<path fill="none" stroke="black" d="M418.27,-589.91C388.28,-580.3 341.61,-566.12 306.61,-555.96"/>
<polygon fill="black" stroke="black" points="307.19,-552.49 296.61,-553.08 305.25,-559.22 307.19,-552.49"/>
</g>
<!-- src/feature/width.ts&#45;&gt;src/resolver.ts -->
<!-- src/condition/index.ts -->
<g id="node20" class="node">
<title>src/condition/index.ts</title>
<path fill="none" stroke="#00ffff" stroke-width="5" d="M327.64,-908C327.64,-908 279.97,-908 279.97,-908 276.14,-908 272.31,-904.17 272.31,-900.33 272.31,-900.33 272.31,-892.67 272.31,-892.67 272.31,-888.83 276.14,-885 279.97,-885 279.97,-885 327.64,-885 327.64,-885 331.47,-885 335.31,-888.83 335.31,-892.67 335.31,-892.67 335.31,-900.33 335.31,-900.33 335.31,-904.17 331.47,-908 327.64,-908"/>
<text text-anchor="middle" x="303.81" y="-892.8" font-family="Arial" font-size="14.00" fill="#000000">index.ts</text>
</g>
<!-- src/condition/index.ts&#45;&gt;src/condition/condition.ts -->
<!-- src/condition/index.ts&#45;&gt;src/condition/condition.ts -->
<g id="edge82" class="edge">
<title>src/condition/index.ts&#45;&gt;src/condition/condition.ts</title>
<path fill="none" stroke="black" d="M309.22,-884.78C310.47,-877.61 310.85,-867.95 310.33,-859.31"/>
<polygon fill="black" stroke="black" points="313.79,-858.73 309.21,-849.17 306.83,-859.5 313.79,-858.73"/>
</g>
<!-- src/condition/index.ts&#45;&gt;exit_src/condition -->
<!-- src/condition/index.ts&#45;&gt;src/condition/and.ts -->
<!-- src/condition/index.ts&#45;&gt;src/condition/and.ts -->
<g id="edge80" class="edge">
<title>src/condition/index.ts&#45;&gt;src/condition/and.ts</title>
<path fill="none" stroke="black" d="M329.71,-884.87C343.19,-876.76 357.93,-864.37 364.81,-849 372.46,-831.89 363.02,-811.79 351.79,-797.62"/>
<polygon fill="black" stroke="black" points="354.33,-795.21 345.09,-790.03 349.08,-799.84 354.33,-795.21"/>
</g>
<!-- src/condition/index.ts&#45;&gt;src/condition/not.ts -->
<!-- src/condition/index.ts&#45;&gt;src/condition/not.ts -->
<g id="edge84" class="edge">
<title>src/condition/index.ts&#45;&gt;src/condition/not.ts</title>
<path fill="none" stroke="black" d="M294.98,-884.82C285.05,-876.44 270.29,-863.75 261.81,-849 253.17,-833.99 249.5,-814.57 246.46,-800.07"/>
<polygon fill="black" stroke="black" points="249.82,-799.08 244.19,-790.1 243,-800.63 249.82,-799.08"/>
</g>
<!-- src/condition/index.ts&#45;&gt;src/condition/or.ts -->
<!-- src/condition/index.ts&#45;&gt;src/condition/or.ts -->
<g id="edge86" class="edge">
<title>src/condition/index.ts&#45;&gt;src/condition/or.ts</title>
<path fill="none" stroke="black" d="M327.56,-884.87C341.64,-876.24 358.63,-863.21 370.81,-849 383.64,-834.03 394.51,-814.35 400.15,-799.76"/>
<polygon fill="black" stroke="black" points="403.5,-800.76 403.28,-790.17 396.85,-798.59 403.5,-800.76"/>
</g>
<!-- name_src/condition -->
<g id="node21" class="node">
<title>name_src/condition</title>
<path fill="none" stroke="#00ffff" stroke-width="5" d="M420.64,-908C420.64,-908 364.97,-908 364.97,-908 361.14,-908 357.31,-904.17 357.31,-900.33 357.31,-900.33 357.31,-892.67 357.31,-892.67 357.31,-888.83 361.14,-885 364.97,-885 364.97,-885 420.64,-885 420.64,-885 424.47,-885 428.31,-888.83 428.31,-892.67 428.31,-892.67 428.31,-900.33 428.31,-900.33 428.31,-904.17 424.47,-908 420.64,-908"/>
<text text-anchor="middle" x="392.81" y="-892.8" font-family="Arial" font-size="14.00" fill="#000000">condition</text>
</g>
<!-- src/list.ts -->
<g id="node22" class="node">
<title>src/list.ts</title>
<path fill="none" stroke="#000000" d="M576.14,-908C576.14,-908 537.47,-908 537.47,-908 533.64,-908 529.81,-904.17 529.81,-900.33 529.81,-900.33 529.81,-892.67 529.81,-892.67 529.81,-888.83 533.64,-885 537.47,-885 537.47,-885 576.14,-885 576.14,-885 579.97,-885 583.81,-888.83 583.81,-892.67 583.81,-892.67 583.81,-900.33 583.81,-900.33 583.81,-904.17 579.97,-908 576.14,-908"/>
<text text-anchor="middle" x="556.81" y="-892.8" font-family="Arial" font-size="14.00" fill="#000000">list.ts</text>
</g>
<!-- src/list.ts&#45;&gt;src/matchable.ts -->
<!-- src/list.ts&#45;&gt;src/matchable.ts -->
<g id="edge140" class="edge">
<title>src/list.ts&#45;&gt;src/matchable.ts</title>
<path fill="none" stroke="black" stroke-dasharray="1,5" d="M546.59,-884.98C521.18,-863.22 461.35,-811.57 486.81,-767 502.42,-739.66 525.79,-753.5 547.81,-731 572.58,-705.68 586.81,-696.92 586.81,-661.5 586.81,-661.5 586.81,-661.5 586.81,-600.5 586.81,-565.07 571.3,-526.19 558.1,-503.64"/>
<polygon fill="black" stroke="black" points="560.95,-501.6 552.63,-495.03 555.04,-505.35 560.95,-501.6"/>
</g>
<!-- src/query.ts -->
<g id="node24" class="node">
<title>src/query.ts</title>
<path fill="none" stroke="#000000" d="M586.14,-849C586.14,-849 537.47,-849 537.47,-849 533.64,-849 529.81,-845.17 529.81,-841.33 529.81,-841.33 529.81,-833.67 529.81,-833.67 529.81,-829.83 533.64,-826 537.47,-826 537.47,-826 586.14,-826 586.14,-826 589.97,-826 593.81,-829.83 593.81,-833.67 593.81,-833.67 593.81,-841.33 593.81,-841.33 593.81,-845.17 589.97,-849 586.14,-849"/>
<text text-anchor="middle" x="561.81" y="-833.8" font-family="Arial" font-size="14.00" fill="#000000">query.ts</text>
</g>
<!-- src/list.ts&#45;&gt;src/query.ts -->
<!-- src/list.ts&#45;&gt;src/query.ts -->
<g id="edge142" class="edge">
<title>src/list.ts&#45;&gt;src/query.ts</title>
<path fill="none" stroke="black" d="M563.16,-884.78C565.04,-877.61 566.26,-867.95 566.51,-859.31"/>
<polygon fill="black" stroke="black" points="570,-859.09 566.27,-849.17 563,-859.25 570,-859.09"/>
</g>
<!-- src/list.ts&#45;&gt;exit_src -->
<!-- src/modifier.ts -->
<g id="node23" class="node">
<title>src/modifier.ts</title>
<path fill="none" stroke="#000000" d="M671.64,-790C671.64,-790 607.97,-790 607.97,-790 604.14,-790 600.31,-786.17 600.31,-782.33 600.31,-782.33 600.31,-774.67 600.31,-774.67 600.31,-770.83 604.14,-767 607.97,-767 607.97,-767 671.64,-767 671.64,-767 675.47,-767 679.31,-770.83 679.31,-774.67 679.31,-774.67 679.31,-782.33 679.31,-782.33 679.31,-786.17 675.47,-790 671.64,-790"/>
<text text-anchor="middle" x="639.81" y="-774.8" font-family="Arial" font-size="14.00" fill="#000000">modifier.ts</text>
</g>
<!-- src/modifier.ts&#45;&gt;exit_src -->
<!-- src/query.ts&#45;&gt;name_src/feature -->
<g id="edge144" class="edge">
<title>src/query.ts&#45;&gt;name_src/feature</title>
<path fill="none" stroke="#80ff00" d="M532.07,-825.9C514.32,-818.28 492.44,-806.43 477.81,-790 449.04,-757.7 475.06,-726.4 440.81,-700 390.34,-661.11 358.76,-695.08 300.75,-682.55"/>
<polygon fill="#80ff00" stroke="#80ff00" points="301.36,-679.09 290.81,-680 299.62,-685.87 301.36,-679.09"/>
</g>
<!-- src/query.ts&#45;&gt;src/matchable.ts -->
<!-- src/query.ts&#45;&gt;src/matchable.ts -->
<g id="edge146" class="edge">
<title>src/query.ts&#45;&gt;src/matchable.ts</title>
<path fill="none" stroke="black" stroke-dasharray="1,5" d="M567.98,-825.77C571.51,-811.36 574.27,-785.41 585.81,-767 599.59,-745 620.43,-754.34 631.81,-731 637.84,-718.61 633.04,-713.72 631.81,-700 624.95,-623.94 637.62,-597.91 600.81,-531 594.36,-519.28 583.88,-508.86 573.41,-500.87"/>
<polygon fill="black" stroke="black" points="575.28,-497.9 565.09,-495 571.24,-503.62 575.28,-497.9"/>
</g>
<!-- src/query.ts&#45;&gt;name_src/condition -->
<g id="edge143" class="edge">
<title>src/query.ts&#45;&gt;name_src/condition</title>
<path fill="none" stroke="#80ff00" d="M530.58,-849.03C507.02,-856.98 474.12,-868.07 446.38,-877.43"/>
<polygon fill="#80ff00" stroke="#80ff00" points="445.16,-874.15 436.81,-880.66 447.4,-880.78 445.16,-874.15"/>
</g>
<!-- src/query.ts&#45;&gt;src/modifier.ts -->
<!-- src/query.ts&#45;&gt;src/modifier.ts -->
<g id="edge148" class="edge">
<title>src/query.ts&#45;&gt;src/modifier.ts</title>
<path fill="none" stroke="black" d="M581.89,-825.78C594.55,-817.58 610.52,-806.11 622.6,-796.64"/>
<polygon fill="black" stroke="black" points="625.02,-799.18 630.6,-790.17 620.63,-793.74 625.02,-799.18"/>
</g>
<!-- src/type.ts -->
<g id="node25" class="node">
<title>src/type.ts</title>
<path fill="none" stroke="#000000" d="M535.14,-790C535.14,-790 494.47,-790 494.47,-790 490.64,-790 486.81,-786.17 486.81,-782.33 486.81,-782.33 486.81,-774.67 486.81,-774.67 486.81,-770.83 490.64,-767 494.47,-767 494.47,-767 535.14,-767 535.14,-767 538.97,-767 542.81,-770.83 542.81,-774.67 542.81,-774.67 542.81,-782.33 542.81,-782.33 542.81,-786.17 538.97,-790 535.14,-790"/>
<text text-anchor="middle" x="514.81" y="-774.8" font-family="Arial" font-size="14.00" fill="#000000">type.ts</text>
</g>
<!-- src/query.ts&#45;&gt;src/type.ts -->
<!-- src/query.ts&#45;&gt;src/type.ts -->
<g id="edge150" class="edge">
<title>src/query.ts&#45;&gt;src/type.ts</title>
<path fill="none" stroke="black" d="M558.38,-825.78C553.21,-817.82 544.41,-806.77 535.95,-797.47"/>
<polygon fill="black" stroke="black" points="538.44,-795.01 529.01,-790.17 533.36,-799.83 538.44,-795.01"/>
</g>
<!-- src/query.ts&#45;&gt;exit_src -->
<!-- src/type.ts&#45;&gt;src/matchable.ts -->
<!-- src/type.ts&#45;&gt;src/matchable.ts -->
<g id="edge152" class="edge">
<title>src/type.ts&#45;&gt;src/matchable.ts</title>
<path fill="none" stroke="black" stroke-dasharray="1,5" d="M542.91,-768.56C559.96,-760.84 580.24,-748.21 591.81,-731 609.43,-704.77 606.81,-693.1 606.81,-661.5 606.81,-661.5 606.81,-661.5 606.81,-600.5 606.81,-568.9 606.05,-559.21 591.81,-531 586.33,-520.15 577.7,-509.83 569.01,-501.67"/>
<polygon fill="black" stroke="black" points="571.27,-499 561.42,-495.11 566.69,-504.3 571.27,-499"/>
</g>
<!-- src/type.ts&#45;&gt;exit_src -->
<!-- src/value/bound.ts -->
<g id="node27" class="node">
<title>src/value/bound.ts</title>
<path fill="none" stroke="#000000" d="M237.14,-200C237.14,-200 184.47,-200 184.47,-200 180.64,-200 176.81,-196.17 176.81,-192.33 176.81,-192.33 176.81,-184.67 176.81,-184.67 176.81,-180.83 180.64,-177 184.47,-177 184.47,-177 237.14,-177 237.14,-177 240.97,-177 244.81,-180.83 244.81,-184.67 244.81,-184.67 244.81,-192.33 244.81,-192.33 244.81,-196.17 240.97,-200 237.14,-200"/>
<text text-anchor="middle" x="210.81" y="-184.8" font-family="Arial" font-size="14.00" fill="#000000">bound.ts</text>
</g>
<!-- src/value/value.ts&#45;&gt;src/value/bound.ts -->
<!-- src/value/value.ts&#45;&gt;src/value/bound.ts -->
<g id="edge164" class="edge">
<title>src/value/value.ts&#45;&gt;src/value/bound.ts</title>
<path fill="none" stroke="black" d="M179.47,-294.73C190.69,-286.12 203.15,-273.18 209.81,-259 216.92,-243.85 219.28,-224.96 218.55,-210.7"/>
<polygon fill="black" stroke="black" points="221.98,-209.93 217.33,-200.41 215.03,-210.76 221.98,-209.93"/>
</g>
<!-- src/value/discrete.ts -->
<g id="node28" class="node">
<title>src/value/discrete.ts</title>
<path fill="none" stroke="#000000" d="M131.14,-200C131.14,-200 68.47,-200 68.47,-200 64.64,-200 60.81,-196.17 60.81,-192.33 60.81,-192.33 60.81,-184.67 60.81,-184.67 60.81,-180.83 64.64,-177 68.47,-177 68.47,-177 131.14,-177 131.14,-177 134.97,-177 138.81,-180.83 138.81,-184.67 138.81,-184.67 138.81,-192.33 138.81,-192.33 138.81,-196.17 134.97,-200 131.14,-200"/>
<text text-anchor="middle" x="99.81" y="-184.8" font-family="Arial" font-size="14.00" fill="#000000">discrete.ts</text>
</g>
<!-- src/value/value.ts&#45;&gt;src/value/discrete.ts -->
<!-- src/value/value.ts&#45;&gt;src/value/discrete.ts -->
<g id="edge166" class="edge">
<title>src/value/value.ts&#45;&gt;src/value/discrete.ts</title>
<path fill="none" stroke="black" d="M168.67,-294.81C164.47,-286.05 152.17,-272.88 144.81,-259 136.46,-243.29 131.83,-223.49 124.68,-209.05"/>
<polygon fill="black" stroke="black" points="127.67,-207.23 119.56,-200.43 121.66,-210.81 127.67,-207.23"/>
</g>
<!-- src/value/range.ts -->
<g id="node29" class="node">
<title>src/value/range.ts</title>
<path fill="none" stroke="#000000" d="M183.64,-259C183.64,-259 133.97,-259 133.97,-259 130.14,-259 126.31,-255.17 126.31,-251.33 126.31,-251.33 126.31,-243.67 126.31,-243.67 126.31,-239.83 130.14,-236 133.97,-236 133.97,-236 183.64,-236 183.64,-236 187.47,-236 191.31,-239.83 191.31,-243.67 191.31,-243.67 191.31,-251.33 191.31,-251.33 191.31,-255.17 187.47,-259 183.64,-259"/>
<text text-anchor="middle" x="158.81" y="-243.8" font-family="Arial" font-size="14.00" fill="#000000">range.ts</text>
</g>
<!-- src/value/value.ts&#45;&gt;src/value/range.ts -->
<!-- src/value/value.ts&#45;&gt;src/value/range.ts -->
<g id="edge168" class="edge">
<title>src/value/value.ts&#45;&gt;src/value/range.ts</title>
<path fill="none" stroke="black" d="M175.04,-294.78C178.89,-287.45 179.97,-277.52 178.28,-268.74"/>
<polygon fill="black" stroke="black" points="181.56,-267.51 175.01,-259.17 174.93,-269.77 181.56,-267.51"/>
</g>
<!-- src/value/value.ts&#45;&gt;exit_src/value -->
<!-- src/value/bound.ts&#45;&gt;exit_src/value -->
<!-- src/value/discrete.ts&#45;&gt;src/value/value.ts -->
<!-- src/value/discrete.ts&#45;&gt;src/value/value.ts -->
<g id="edge154" class="edge">
<title>src/value/discrete.ts&#45;&gt;src/value/value.ts</title>
<path fill="none" stroke="black" stroke-dasharray="1,5" d="M107.21,-200.43C111.98,-214.62 116.64,-239.84 126.81,-259 132.27,-269.3 140.46,-279.21 147.4,-287.22"/>
<polygon fill="black" stroke="black" points="144.8,-289.57 154.01,-294.81 150.08,-284.97 144.8,-289.57"/>
</g>
<!-- src/value/discrete.ts&#45;&gt;exit_src/value -->
<!-- src/value/range.ts&#45;&gt;src/value/value.ts -->
<!-- src/value/range.ts&#45;&gt;src/value/value.ts -->
<g id="edge162" class="edge">
<title>src/value/range.ts&#45;&gt;src/value/value.ts</title>
<path fill="none" stroke="black" stroke-dasharray="1,5" d="M164.21,-259.17C165.47,-266.33 165.85,-275.99 165.34,-284.63"/>
<polygon fill="black" stroke="black" points="161.83,-284.46 164.22,-294.78 168.79,-285.22 161.83,-284.46"/>
</g>
<!-- src/value/range.ts&#45;&gt;src/value/bound.ts -->
<!-- src/value/range.ts&#45;&gt;src/value/bound.ts -->
<g id="edge158" class="edge">
<title>src/value/range.ts&#45;&gt;src/value/bound.ts</title>
<path fill="none" stroke="black" d="M174,-235.78C182.48,-227.98 192.62,-217.21 200.27,-208.03"/>
<polygon fill="black" stroke="black" points="203.02,-210.19 206.47,-200.17 197.53,-205.85 203.02,-210.19"/>
</g>
<!-- src/value/range.ts&#45;&gt;src/value/discrete.ts -->
<!-- src/value/range.ts&#45;&gt;src/value/discrete.ts -->
<g id="edge160" class="edge">
<title>src/value/range.ts&#45;&gt;src/value/discrete.ts</title>
<path fill="none" stroke="black" d="M153.12,-235.78C146.14,-227.66 134.7,-216.33 124.11,-206.92"/>
<polygon fill="black" stroke="black" points="126.12,-204.03 116.26,-200.17 121.56,-209.34 126.12,-204.03"/>
</g>
<!-- src/value/range.ts&#45;&gt;exit_src/value -->
<!-- name_src -->
<g id="node30" class="node">
<title>name_src</title>
<path fill="none" stroke="#80ff00" stroke-width="5" d="M682.14,-967C682.14,-967 643.47,-967 643.47,-967 639.64,-967 635.81,-963.17 635.81,-959.33 635.81,-959.33 635.81,-951.67 635.81,-951.67 635.81,-947.83 639.64,-944 643.47,-944 643.47,-944 682.14,-944 682.14,-944 685.97,-944 689.81,-947.83 689.81,-951.67 689.81,-951.67 689.81,-959.33 689.81,-959.33 689.81,-963.17 685.97,-967 682.14,-967"/>
<text text-anchor="middle" x="662.81" y="-951.8" font-family="Arial" font-size="14.00" fill="#000000">src</text>
</g>
<!-- exit_src&#45;&gt;dependency&#45;graph&#45;[object Object] -->
<!-- exit_src&#45;&gt;exit_src -->
<!-- exit_src&#45;&gt;exit_src -->
<!-- exit_src&#45;&gt;exit_src -->
<!-- exit_src&#45;&gt;exit_src -->
<!-- exit_src&#45;&gt;exit_src -->
<!-- exit_src&#45;&gt;exit_src -->
<!-- exit_src&#45;&gt;exit_src -->
<!-- exit_src&#45;&gt;exit_src -->
<!-- exit_src&#45;&gt;exit_src -->
<!-- exit_src&#45;&gt;exit_src -->
<!-- exit_src&#45;&gt;exit_src -->
<!-- exit_src&#45;&gt;exit_src -->
<!-- exit_src&#45;&gt;exit_src -->
<!-- exit_src&#45;&gt;exit_src -->
<!-- exit_src&#45;&gt;exit_src -->
<!-- exit_src&#45;&gt;exit_src -->
<!-- exit_src&#45;&gt;exit_src -->
<!-- exit_src&#45;&gt;exit_src -->
<!-- exit_src&#45;&gt;exit_src -->
<!-- exit_src&#45;&gt;exit_src -->
<!-- exit_src&#45;&gt;exit_src -->
<!-- exit_src&#45;&gt;exit_src -->
<!-- exit_src&#45;&gt;exit_src -->
<!-- exit_src&#45;&gt;exit_src -->
<!-- src/index.ts -->
<g id="node32" class="node">
<title>src/index.ts</title>
<path fill="none" stroke="#80ff00" stroke-width="5" d="M580.64,-967C580.64,-967 532.97,-967 532.97,-967 529.14,-967 525.31,-963.17 525.31,-959.33 525.31,-959.33 525.31,-951.67 525.31,-951.67 525.31,-947.83 529.14,-944 532.97,-944 532.97,-944 580.64,-944 580.64,-944 584.47,-944 588.31,-947.83 588.31,-951.67 588.31,-951.67 588.31,-959.33 588.31,-959.33 588.31,-963.17 584.47,-967 580.64,-967"/>
<text text-anchor="middle" x="556.81" y="-951.8" font-family="Arial" font-size="14.00" fill="#000000">index.ts</text>
</g>
<!-- src/index.ts&#45;&gt;name_src/feature -->
<g id="edge129" class="edge">
<title>src/index.ts&#45;&gt;name_src/feature</title>
<path fill="none" stroke="#80ff00" d="M525.09,-953.54C438.52,-950.61 202.98,-940.45 178.81,-916 154.49,-891.41 171.81,-873.08 171.81,-838.5 171.81,-838.5 171.81,-838.5 171.81,-777.5 171.81,-742.92 159.32,-728.57 178.81,-700 187.91,-686.66 197.03,-687.94 209.55,-683.89"/>
<polygon fill="#80ff00" stroke="#80ff00" points="210.95,-687.11 218.81,-680 208.23,-680.65 210.95,-687.11"/>
</g>
<!-- src/index.ts&#45;&gt;name_src/value -->
<g id="edge138" class="edge">
<title>src/index.ts&#45;&gt;name_src/value</title>
<path fill="none" stroke="#80ff00" d="M525.24,-954.21C413,-952.32 39.81,-938.54 39.81,-838.5 39.81,-838.5 39.81,-838.5 39.81,-541.5 39.81,-479.66 26.48,-451.88 66.81,-405 71.74,-399.26 77.6,-394.38 83.99,-390.22"/>
<polygon fill="#80ff00" stroke="#80ff00" points="86.11,-393.04 93,-385 82.6,-386.98 86.11,-393.04"/>
</g>
<!-- src/index.ts&#45;&gt;name_src/condition -->
<g id="edge128" class="edge">
<title>src/index.ts&#45;&gt;name_src/condition</title>
<path fill="none" stroke="#80ff00" d="M525.07,-945.9C502.35,-939.47 470.86,-930.03 442.35,-919.58"/>
<polygon fill="#80ff00" stroke="#80ff00" points="443.4,-916.24 432.81,-916 440.94,-922.79 443.4,-916.24"/>
</g>
<!-- src/index.ts&#45;&gt;src/list.ts -->
<!-- src/index.ts&#45;&gt;src/list.ts -->
<g id="edge131" class="edge">
<title>src/index.ts&#45;&gt;src/list.ts</title>
<path fill="none" stroke="black" d="M562.22,-943.78C563.47,-936.61 563.85,-926.95 563.33,-918.31"/>
<polygon fill="black" stroke="black" points="566.79,-917.73 562.21,-908.17 559.83,-918.5 566.79,-917.73"/>
</g>
<!-- src/index.ts&#45;&gt;src/modifier.ts -->
<!-- src/index.ts&#45;&gt;src/modifier.ts -->
<g id="edge133" class="edge">
<title>src/index.ts&#45;&gt;src/modifier.ts</title>
<path fill="none" stroke="black" d="M579.7,-943.94C589.92,-936.95 600.87,-927.06 607.81,-916 630.92,-879.16 641.62,-828.55 643.15,-800.46"/>
<polygon fill="black" stroke="black" points="646.65,-800.26 643.26,-790.22 639.65,-800.18 646.65,-800.26"/>
</g>
<!-- src/index.ts&#45;&gt;src/query.ts -->
<!-- src/index.ts&#45;&gt;src/query.ts -->
<g id="edge135" class="edge">
<title>src/index.ts&#45;&gt;src/query.ts</title>
<path fill="none" stroke="black" d="M579.03,-943.74C588.22,-936.82 597.44,-927.07 601.81,-916 606.86,-903.18 605.8,-898.19 601.81,-885 598.68,-874.69 592.44,-864.58 585.64,-856.43"/>
<polygon fill="black" stroke="black" points="588.11,-853.95 578.74,-849.01 582.98,-858.72 588.11,-853.95"/>
</g>
<!-- src/index.ts&#45;&gt;src/type.ts -->
<!-- src/index.ts&#45;&gt;src/type.ts -->
<g id="edge137" class="edge">
<title>src/index.ts&#45;&gt;src/type.ts</title>
<path fill="none" stroke="black" d="M550.71,-943.99C543.91,-937.02 534.49,-927.14 529.81,-916 513.73,-877.75 516.82,-828.05 517.52,-800.4"/>
<polygon fill="black" stroke="black" points="521.02,-800.35 517.62,-790.32 514.02,-800.28 521.02,-800.35"/>
</g>
<!-- src/index.ts&#45;&gt;exit_src -->
<!-- exit_src/value&#45;&gt;exit_src -->
<!-- exit_src/value&#45;&gt;exit_src -->
<!-- exit_src/value&#45;&gt;exit_src -->
<!-- exit_src/value&#45;&gt;exit_src -->
<!-- exit_src/value&#45;&gt;exit_src -->
</g>
</svg>
