<?xml version="1.0" encoding="UTF-8" standalone="no"?>
<!DOCTYPE svg PUBLIC "-//W3C//DTD SVG 1.1//EN"
 "http://www.w3.org/Graphics/SVG/1.1/DTD/svg11.dtd">
<!-- Generated by graphviz version 2.43.0 (0)
 -->
<!-- Title: dependency&#45;graph&#45;[object Object] Pages: 1 -->
<svg width="536pt" height="385pt"
 viewBox="0.00 0.00 536.20 385.20" xmlns="http://www.w3.org/2000/svg" xmlns:xlink="http://www.w3.org/1999/xlink">
<g id="graph0" class="graph" transform="scale(1 1) rotate(0) translate(21.6 363.6)">
<title>dependency&#45;graph&#45;[object Object]</title>
<polygon fill="#ffffff" stroke="transparent" points="-21.6,21.6 -21.6,-363.6 514.6,-363.6 514.6,21.6 -21.6,21.6"/>
<g id="clust1" class="cluster">
<title>cluster_src</title>
<polygon fill="#ffffff" stroke="#000000" points="8,-43 8,-334 485,-334 485,-43 8,-43"/>
</g>
<g id="clust2" class="cluster">
<title>cluster_src</title>
<polygon fill="#ffffff" stroke="#000000" points="16,-51 16,-326 477,-326 477,-51 16,-51"/>
</g>
<!-- dependency&#45;graph&#45;[object Object] -->
<!-- src/display.ts -->
<g id="node2" class="node">
<title>src/display.ts</title>
<path fill="none" stroke="#000000" d="M421.33,-141C421.33,-141 364.67,-141 364.67,-141 360.83,-141 357,-137.17 357,-133.33 357,-133.33 357,-125.67 357,-125.67 357,-121.83 360.83,-118 364.67,-118 364.67,-118 421.33,-118 421.33,-118 425.17,-118 429,-121.83 429,-125.67 429,-125.67 429,-133.33 429,-133.33 429,-137.17 425.17,-141 421.33,-141"/>
<text text-anchor="middle" x="393" y="-125.8" font-family="Arial" font-size="14.00" fill="#000000">display.ts</text>
</g>
<!-- exit_src -->
<!-- src/display.ts&#45;&gt;exit_src -->
<!-- src/preference.ts -->
<g id="node3" class="node">
<title>src/preference.ts</title>
<path fill="none" stroke="#000000" d="M111.83,-141C111.83,-141 32.17,-141 32.17,-141 28.33,-141 24.5,-137.17 24.5,-133.33 24.5,-133.33 24.5,-125.67 24.5,-125.67 24.5,-121.83 28.33,-118 32.17,-118 32.17,-118 111.83,-118 111.83,-118 115.67,-118 119.5,-121.83 119.5,-125.67 119.5,-125.67 119.5,-133.33 119.5,-133.33 119.5,-137.17 115.67,-141 111.83,-141"/>
<text text-anchor="middle" x="72" y="-125.8" font-family="Arial" font-size="14.00" fill="#000000">preference.ts</text>
</g>
<!-- src/preference.ts&#45;&gt;exit_src -->
<!-- src/scripting.ts -->
<g id="node4" class="node">
<title>src/scripting.ts</title>
<path fill="none" stroke="#000000" d="M210.83,-141C210.83,-141 145.17,-141 145.17,-141 141.33,-141 137.5,-137.17 137.5,-133.33 137.5,-133.33 137.5,-125.67 137.5,-125.67 137.5,-121.83 141.33,-118 145.17,-118 145.17,-118 210.83,-118 210.83,-118 214.67,-118 218.5,-121.83 218.5,-125.67 218.5,-125.67 218.5,-133.33 218.5,-133.33 218.5,-137.17 214.67,-141 210.83,-141"/>
<text text-anchor="middle" x="178" y="-125.8" font-family="Arial" font-size="14.00" fill="#000000">scripting.ts</text>
</g>
<!-- src/scripting.ts&#45;&gt;exit_src -->
<!-- src/viewport.ts -->
<g id="node5" class="node">
<title>src/viewport.ts</title>
<path fill="none" stroke="#000000" d="M330.83,-141C330.83,-141 265.17,-141 265.17,-141 261.33,-141 257.5,-137.17 257.5,-133.33 257.5,-133.33 257.5,-125.67 257.5,-125.67 257.5,-121.83 261.33,-118 265.17,-118 265.17,-118 330.83,-118 330.83,-118 334.67,-118 338.5,-121.83 338.5,-125.67 338.5,-125.67 338.5,-133.33 338.5,-133.33 338.5,-137.17 334.67,-141 330.83,-141"/>
<text text-anchor="middle" x="298" y="-125.8" font-family="Arial" font-size="14.00" fill="#000000">viewport.ts</text>
</g>
<!-- src/viewport.ts&#45;&gt;exit_src -->
<!-- src/device.ts -->
<g id="node6" class="node">
<title>src/device.ts</title>
<path fill="none" stroke="#000000" d="M271.33,-200C271.33,-200 216.67,-200 216.67,-200 212.83,-200 209,-196.17 209,-192.33 209,-192.33 209,-184.67 209,-184.67 209,-180.83 212.83,-177 216.67,-177 216.67,-177 271.33,-177 271.33,-177 275.17,-177 279,-180.83 279,-184.67 279,-184.67 279,-192.33 279,-192.33 279,-196.17 275.17,-200 271.33,-200"/>
<text text-anchor="middle" x="244" y="-184.8" font-family="Arial" font-size="14.00" fill="#000000">device.ts</text>
</g>
<!-- src/device.ts&#45;&gt;src/display.ts -->
<!-- src/device.ts&#45;&gt;src/display.ts -->
<g id="edge17" class="edge">
<title>src/device.ts&#45;&gt;src/display.ts</title>
<path fill="none" stroke="black" d="M277.06,-176.91C302.3,-167.87 336.68,-154.79 361.51,-144.82"/>
<polygon fill="black" stroke="black" points="362.9,-148.03 370.85,-141.03 360.27,-141.55 362.9,-148.03"/>
</g>
<!-- src/device.ts&#45;&gt;src/preference.ts -->
<!-- src/device.ts&#45;&gt;src/preference.ts -->
<g id="edge19" class="edge">
<title>src/device.ts&#45;&gt;src/preference.ts</title>
<path fill="none" stroke="black" d="M217.44,-176.91C191.2,-167.67 150.74,-154.21 119.09,-144.16"/>
<polygon fill="black" stroke="black" points="119.75,-140.7 109.16,-141.03 117.64,-147.38 119.75,-140.7"/>
</g>
<!-- src/device.ts&#45;&gt;src/scripting.ts -->
<!-- src/device.ts&#45;&gt;src/scripting.ts -->
<g id="edge21" class="edge">
<title>src/device.ts&#45;&gt;src/scripting.ts</title>
<path fill="none" stroke="black" d="M237,-176.78C228.86,-168.5 215.69,-156.89 203.75,-147.36"/>
<polygon fill="black" stroke="black" points="205.81,-144.53 195.76,-141.17 201.52,-150.07 205.81,-144.53"/>
</g>
<!-- src/device.ts&#45;&gt;src/viewport.ts -->
<!-- src/device.ts&#45;&gt;src/viewport.ts -->
<g id="edge23" class="edge">
<title>src/device.ts&#45;&gt;src/viewport.ts</title>
<path fill="none" stroke="black" d="M259.57,-176.78C268.33,-168.98 278.84,-158.21 286.81,-149.03"/>
<polygon fill="black" stroke="black" points="289.63,-151.12 293.29,-141.17 284.23,-146.66 289.63,-151.12"/>
</g>
<!-- src/device.ts&#45;&gt;exit_src -->
<!-- src/common.ts -->
<g id="node7" class="node">
<title>src/common.ts</title>
<path fill="none" stroke="#ff0000" stroke-width="5" d="M294.83,-259C294.83,-259 247.17,-259 247.17,-259 243.33,-259 239.5,-255.17 239.5,-251.33 239.5,-251.33 239.5,-243.67 239.5,-243.67 239.5,-239.83 243.33,-236 247.17,-236 247.17,-236 294.83,-236 294.83,-236 298.67,-236 302.5,-239.83 302.5,-243.67 302.5,-243.67 302.5,-251.33 302.5,-251.33 302.5,-255.17 298.67,-259 294.83,-259"/>
<text text-anchor="middle" x="271" y="-243.8" font-family="Arial" font-size="14.00" fill="#000000">common.ts</text>
</g>
<!-- src/common.ts&#45;&gt;src/display.ts -->
<!-- src/common.ts&#45;&gt;src/display.ts -->
<g id="edge27" class="edge">
<title>src/common.ts&#45;&gt;src/display.ts</title>
<path fill="none" stroke="black" d="M286.37,-235.79C310.41,-215.94 355.67,-173.21 378.91,-148.72"/>
<polygon fill="black" stroke="black" points="381.66,-150.9 385.88,-141.18 376.52,-146.15 381.66,-150.9"/>
</g>
<!-- src/common.ts&#45;&gt;src/preference.ts -->
<!-- src/common.ts&#45;&gt;src/preference.ts -->
<g id="edge29" class="edge">
<title>src/common.ts&#45;&gt;src/preference.ts</title>
<path fill="none" stroke="black" d="M256.97,-235.84C240.81,-226.68 214.46,-212.94 192,-200 161.43,-182.38 127.14,-160.59 102.86,-146.15"/>
<polygon fill="black" stroke="black" points="104.47,-143.04 94.08,-141 100.93,-149.08 104.47,-143.04"/>
</g>
<!-- src/common.ts&#45;&gt;src/scripting.ts -->
<!-- src/common.ts&#45;&gt;src/scripting.ts -->
<g id="edge31" class="edge">
<title>src/common.ts&#45;&gt;src/scripting.ts</title>
<path fill="none" stroke="black" d="M254.46,-235.95C240.39,-228.09 221.11,-215.97 209,-200 198.17,-185.72 192.59,-165.97 188.24,-151.17"/>
<polygon fill="black" stroke="black" points="191.53,-149.94 185.24,-141.42 184.84,-152.01 191.53,-149.94"/>
</g>
<!-- src/common.ts&#45;&gt;src/viewport.ts -->
<!-- src/common.ts&#45;&gt;src/viewport.ts -->
<g id="edge33" class="edge">
<title>src/common.ts&#45;&gt;src/viewport.ts</title>
<path fill="none" stroke="black" d="M282.67,-235.99C288.41,-226.69 293.81,-212.67 297,-200 301.04,-183.96 303.61,-165.39 303.79,-151.49"/>
<polygon fill="black" stroke="black" points="307.28,-151.33 303.4,-141.47 300.29,-151.6 307.28,-151.33"/>
</g>
<!-- src/common.ts&#45;&gt;src/device.ts -->
<!-- src/common.ts&#45;&gt;src/device.ts -->
<g id="edge25" class="edge">
<title>src/common.ts&#45;&gt;src/device.ts</title>
<path fill="none" stroke="black" d="M271.33,-235.78C269.08,-228.22 264.52,-217.87 259.61,-208.88"/>
<polygon fill="black" stroke="black" points="262.56,-207 254.46,-200.17 256.54,-210.56 262.56,-207"/>
</g>
<!-- src/common.ts&#45;&gt;exit_src -->
<!-- name_src -->
<g id="node8" class="node">
<title>name_src</title>
<path fill="none" stroke="#ff0000" stroke-width="5" d="M428.33,-318C428.33,-318 389.67,-318 389.67,-318 385.83,-318 382,-314.17 382,-310.33 382,-310.33 382,-302.67 382,-302.67 382,-298.83 385.83,-295 389.67,-295 389.67,-295 428.33,-295 428.33,-295 432.17,-295 436,-298.83 436,-302.67 436,-302.67 436,-310.33 436,-310.33 436,-314.17 432.17,-318 428.33,-318"/>
<text text-anchor="middle" x="409" y="-302.8" font-family="Arial" font-size="14.00" fill="#000000">src</text>
</g>
<!-- exit_src&#45;&gt;dependency&#45;graph&#45;[object Object] -->
<!-- exit_src&#45;&gt;exit_src -->
<!-- exit_src&#45;&gt;exit_src -->
<!-- exit_src&#45;&gt;exit_src -->
<!-- exit_src&#45;&gt;exit_src -->
<!-- exit_src&#45;&gt;exit_src -->
<!-- exit_src&#45;&gt;exit_src -->
<!-- exit_src&#45;&gt;exit_src -->
<!-- src/native.ts -->
<g id="node10" class="node">
<title>src/native.ts</title>
<path fill="none" stroke="#000000" d="M296.83,-318C296.83,-318 245.17,-318 245.17,-318 241.33,-318 237.5,-314.17 237.5,-310.33 237.5,-310.33 237.5,-302.67 237.5,-302.67 237.5,-298.83 241.33,-295 245.17,-295 245.17,-295 296.83,-295 296.83,-295 300.67,-295 304.5,-298.83 304.5,-302.67 304.5,-302.67 304.5,-310.33 304.5,-310.33 304.5,-314.17 300.67,-318 296.83,-318"/>
<text text-anchor="middle" x="271" y="-302.8" font-family="Arial" font-size="14.00" fill="#000000">native.ts</text>
</g>
<!-- src/native.ts&#45;&gt;src/common.ts -->
<!-- src/native.ts&#45;&gt;src/common.ts -->
<g id="edge35" class="edge">
<title>src/native.ts&#45;&gt;src/common.ts</title>
<path fill="none" stroke="black" stroke-dasharray="1,5" d="M276.41,-294.78C277.67,-287.61 278.04,-277.95 277.53,-269.31"/>
<polygon fill="black" stroke="black" points="280.98,-268.73 276.4,-259.17 274.03,-269.5 280.98,-268.73"/>
</g>
<!-- src/native.ts&#45;&gt;exit_src -->
</g>
</svg>
