<?xml version="1.0" encoding="UTF-8" standalone="no"?>
<!DOCTYPE svg PUBLIC "-//W3C//DTD SVG 1.1//EN"
 "http://www.w3.org/Graphics/SVG/1.1/DTD/svg11.dtd">
<!-- Generated by graphviz version 2.43.0 (0)
 -->
<!-- Title: dependency&#45;graph&#45;@siteimprove/alfa&#45;device Pages: 1 -->
<svg width="536pt" height="350pt"
 viewBox="0.00 0.00 536.20 350.20" xmlns="http://www.w3.org/2000/svg" xmlns:xlink="http://www.w3.org/1999/xlink">
<g id="graph0" class="graph" transform="scale(1 1) rotate(0) translate(21.6 328.6)">
<title>dependency&#45;graph&#45;@siteimprove/alfa&#45;device</title>
<polygon fill="#ffffff" stroke="transparent" points="-21.6,21.6 -21.6,-328.6 514.6,-328.6 514.6,21.6 -21.6,21.6"/>
<g id="clust1" class="cluster">
<title>cluster_src</title>
<polygon fill="#ffffff" stroke="#000000" points="8,-8 8,-299 485,-299 485,-8 8,-8"/>
</g>
<g id="clust2" class="cluster">
<title>cluster_src</title>
<polygon fill="#ffffff" stroke="#000000" points="16,-16 16,-291 477,-291 477,-16 16,-16"/>
</g>
<!-- src/display.ts -->
<g id="node1" class="node">
<title>src/display.ts</title>
<path fill="none" stroke="#000000" d="M421.33,-106C421.33,-106 364.67,-106 364.67,-106 360.83,-106 357,-102.17 357,-98.33 357,-98.33 357,-90.67 357,-90.67 357,-86.83 360.83,-83 364.67,-83 364.67,-83 421.33,-83 421.33,-83 425.17,-83 429,-86.83 429,-90.67 429,-90.67 429,-98.33 429,-98.33 429,-102.17 425.17,-106 421.33,-106"/>
<text text-anchor="middle" x="393" y="-90.8" font-family="Arial" font-size="14.00" fill="#000000">display.ts</text>
</g>
<!-- exit_src -->
<!-- src/display.ts&#45;&gt;exit_src -->
<!-- src/preference.ts -->
<g id="node2" class="node">
<title>src/preference.ts</title>
<path fill="none" stroke="#000000" d="M111.83,-106C111.83,-106 32.17,-106 32.17,-106 28.33,-106 24.5,-102.17 24.5,-98.33 24.5,-98.33 24.5,-90.67 24.5,-90.67 24.5,-86.83 28.33,-83 32.17,-83 32.17,-83 111.83,-83 111.83,-83 115.67,-83 119.5,-86.83 119.5,-90.67 119.5,-90.67 119.5,-98.33 119.5,-98.33 119.5,-102.17 115.67,-106 111.83,-106"/>
<text text-anchor="middle" x="72" y="-90.8" font-family="Arial" font-size="14.00" fill="#000000">preference.ts</text>
</g>
<!-- src/preference.ts&#45;&gt;exit_src -->
<!-- src/scripting.ts -->
<g id="node3" class="node">
<title>src/scripting.ts</title>
<path fill="none" stroke="#000000" d="M210.83,-106C210.83,-106 145.17,-106 145.17,-106 141.33,-106 137.5,-102.17 137.5,-98.33 137.5,-98.33 137.5,-90.67 137.5,-90.67 137.5,-86.83 141.33,-83 145.17,-83 145.17,-83 210.83,-83 210.83,-83 214.67,-83 218.5,-86.83 218.5,-90.67 218.5,-90.67 218.5,-98.33 218.5,-98.33 218.5,-102.17 214.67,-106 210.83,-106"/>
<text text-anchor="middle" x="178" y="-90.8" font-family="Arial" font-size="14.00" fill="#000000">scripting.ts</text>
</g>
<!-- src/scripting.ts&#45;&gt;exit_src -->
<!-- src/viewport.ts -->
<g id="node4" class="node">
<title>src/viewport.ts</title>
<path fill="none" stroke="#000000" d="M330.83,-106C330.83,-106 265.17,-106 265.17,-106 261.33,-106 257.5,-102.17 257.5,-98.33 257.5,-98.33 257.5,-90.67 257.5,-90.67 257.5,-86.83 261.33,-83 265.17,-83 265.17,-83 330.83,-83 330.83,-83 334.67,-83 338.5,-86.83 338.5,-90.67 338.5,-90.67 338.5,-98.33 338.5,-98.33 338.5,-102.17 334.67,-106 330.83,-106"/>
<text text-anchor="middle" x="298" y="-90.8" font-family="Arial" font-size="14.00" fill="#000000">viewport.ts</text>
</g>
<!-- src/viewport.ts&#45;&gt;exit_src -->
<!-- src/device.ts -->
<g id="node5" class="node">
<title>src/device.ts</title>
<path fill="none" stroke="#000000" d="M271.33,-165C271.33,-165 216.67,-165 216.67,-165 212.83,-165 209,-161.17 209,-157.33 209,-157.33 209,-149.67 209,-149.67 209,-145.83 212.83,-142 216.67,-142 216.67,-142 271.33,-142 271.33,-142 275.17,-142 279,-145.83 279,-149.67 279,-149.67 279,-157.33 279,-157.33 279,-161.17 275.17,-165 271.33,-165"/>
<text text-anchor="middle" x="244" y="-149.8" font-family="Arial" font-size="14.00" fill="#000000">device.ts</text>
</g>
<!-- src/device.ts&#45;&gt;src/display.ts -->
<!-- src/device.ts&#45;&gt;src/display.ts -->
<g id="edge16" class="edge">
<title>src/device.ts&#45;&gt;src/display.ts</title>
<path fill="none" stroke="black" d="M277.06,-141.91C302.3,-132.87 336.68,-119.79 361.51,-109.82"/>
<polygon fill="black" stroke="black" points="362.9,-113.03 370.85,-106.03 360.27,-106.55 362.9,-113.03"/>
</g>
<!-- src/device.ts&#45;&gt;src/preference.ts -->
<!-- src/device.ts&#45;&gt;src/preference.ts -->
<g id="edge18" class="edge">
<title>src/device.ts&#45;&gt;src/preference.ts</title>
<path fill="none" stroke="black" d="M217.44,-141.91C191.2,-132.67 150.74,-119.21 119.09,-109.16"/>
<polygon fill="black" stroke="black" points="119.75,-105.7 109.16,-106.03 117.64,-112.38 119.75,-105.7"/>
</g>
<!-- src/device.ts&#45;&gt;src/scripting.ts -->
<!-- src/device.ts&#45;&gt;src/scripting.ts -->
<g id="edge20" class="edge">
<title>src/device.ts&#45;&gt;src/scripting.ts</title>
<path fill="none" stroke="black" d="M237,-141.78C228.86,-133.5 215.69,-121.89 203.75,-112.36"/>
<polygon fill="black" stroke="black" points="205.81,-109.53 195.76,-106.17 201.52,-115.07 205.81,-109.53"/>
</g>
<!-- src/device.ts&#45;&gt;src/viewport.ts -->
<!-- src/device.ts&#45;&gt;src/viewport.ts -->
<g id="edge22" class="edge">
<title>src/device.ts&#45;&gt;src/viewport.ts</title>
<path fill="none" stroke="black" d="M259.57,-141.78C268.33,-133.98 278.84,-123.21 286.81,-114.03"/>
<polygon fill="black" stroke="black" points="289.63,-116.12 293.29,-106.17 284.23,-111.66 289.63,-116.12"/>
</g>
<!-- src/device.ts&#45;&gt;exit_src -->
<!-- src/index.ts -->
<g id="node6" class="node">
<title>src/index.ts</title>
<path fill="none" stroke="#ff0000" stroke-width="5" d="M294.83,-224C294.83,-224 247.17,-224 247.17,-224 243.33,-224 239.5,-220.17 239.5,-216.33 239.5,-216.33 239.5,-208.67 239.5,-208.67 239.5,-204.83 243.33,-201 247.17,-201 247.17,-201 294.83,-201 294.83,-201 298.67,-201 302.5,-204.83 302.5,-208.67 302.5,-208.67 302.5,-216.33 302.5,-216.33 302.5,-220.17 298.67,-224 294.83,-224"/>
<text text-anchor="middle" x="271" y="-208.8" font-family="Arial" font-size="14.00" fill="#000000">index.ts</text>
</g>
<!-- src/index.ts&#45;&gt;src/display.ts -->
<!-- src/index.ts&#45;&gt;src/display.ts -->
<g id="edge26" class="edge">
<title>src/index.ts&#45;&gt;src/display.ts</title>
<path fill="none" stroke="black" d="M286.37,-200.79C310.41,-180.94 355.67,-138.21 378.91,-113.72"/>
<polygon fill="black" stroke="black" points="381.66,-115.9 385.88,-106.18 376.52,-111.15 381.66,-115.9"/>
</g>
<!-- src/index.ts&#45;&gt;src/preference.ts -->
<!-- src/index.ts&#45;&gt;src/preference.ts -->
<g id="edge28" class="edge">
<title>src/index.ts&#45;&gt;src/preference.ts</title>
<path fill="none" stroke="black" d="M256.97,-200.84C240.81,-191.68 214.46,-177.94 192,-165 161.43,-147.38 127.14,-125.59 102.86,-111.15"/>
<polygon fill="black" stroke="black" points="104.47,-108.04 94.08,-106 100.93,-114.08 104.47,-108.04"/>
</g>
<!-- src/index.ts&#45;&gt;src/scripting.ts -->
<!-- src/index.ts&#45;&gt;src/scripting.ts -->
<g id="edge30" class="edge">
<title>src/index.ts&#45;&gt;src/scripting.ts</title>
<path fill="none" stroke="black" d="M254.46,-200.95C240.39,-193.09 221.11,-180.97 209,-165 198.17,-150.72 192.59,-130.97 188.24,-116.17"/>
<polygon fill="black" stroke="black" points="191.53,-114.94 185.24,-106.42 184.84,-117.01 191.53,-114.94"/>
</g>
<!-- src/index.ts&#45;&gt;src/viewport.ts -->
<!-- src/index.ts&#45;&gt;src/viewport.ts -->
<g id="edge32" class="edge">
<title>src/index.ts&#45;&gt;src/viewport.ts</title>
<path fill="none" stroke="black" d="M282.67,-200.99C288.41,-191.69 293.81,-177.67 297,-165 301.04,-148.96 303.61,-130.39 303.79,-116.49"/>
<polygon fill="black" stroke="black" points="307.28,-116.33 303.4,-106.47 300.29,-116.6 307.28,-116.33"/>
</g>
<!-- src/index.ts&#45;&gt;src/device.ts -->
<!-- src/index.ts&#45;&gt;src/device.ts -->
<g id="edge24" class="edge">
<title>src/index.ts&#45;&gt;src/device.ts</title>
<path fill="none" stroke="black" d="M271.33,-200.78C269.08,-193.22 264.52,-182.87 259.61,-173.88"/>
<polygon fill="black" stroke="black" points="262.56,-172 254.46,-165.17 256.54,-175.56 262.56,-172"/>
</g>
<!-- src/index.ts&#45;&gt;exit_src -->
<!-- exit_src&#45;&gt;exit_src -->
<!-- exit_src&#45;&gt;exit_src -->
<!-- exit_src&#45;&gt;exit_src -->
<!-- exit_src&#45;&gt;exit_src -->
<!-- exit_src&#45;&gt;exit_src -->
<!-- exit_src&#45;&gt;exit_src -->
<!-- exit_src&#45;&gt;exit_src -->
<!-- name_src -->
<g id="node8" class="node">
<title>name_src</title>
<path fill="none" stroke="#ff0000" stroke-width="5" d="M428.33,-283C428.33,-283 389.67,-283 389.67,-283 385.83,-283 382,-279.17 382,-275.33 382,-275.33 382,-267.67 382,-267.67 382,-263.83 385.83,-260 389.67,-260 389.67,-260 428.33,-260 428.33,-260 432.17,-260 436,-263.83 436,-267.67 436,-267.67 436,-275.33 436,-275.33 436,-279.17 432.17,-283 428.33,-283"/>
<text text-anchor="middle" x="409" y="-267.8" font-family="Arial" font-size="14.00" fill="#000000">src</text>
</g>
<!-- src/native.ts -->
<g id="node9" class="node">
<title>src/native.ts</title>
<path fill="none" stroke="#000000" d="M296.83,-283C296.83,-283 245.17,-283 245.17,-283 241.33,-283 237.5,-279.17 237.5,-275.33 237.5,-275.33 237.5,-267.67 237.5,-267.67 237.5,-263.83 241.33,-260 245.17,-260 245.17,-260 296.83,-260 296.83,-260 300.67,-260 304.5,-263.83 304.5,-267.67 304.5,-267.67 304.5,-275.33 304.5,-275.33 304.5,-279.17 300.67,-283 296.83,-283"/>
<text text-anchor="middle" x="271" y="-267.8" font-family="Arial" font-size="14.00" fill="#000000">native.ts</text>
</g>
<!-- src/native.ts&#45;&gt;src/index.ts -->
<!-- src/native.ts&#45;&gt;src/index.ts -->
<g id="edge34" class="edge">
<title>src/native.ts&#45;&gt;src/index.ts</title>
<path fill="none" stroke="black" stroke-dasharray="1,5" d="M276.41,-259.78C277.67,-252.61 278.04,-242.95 277.53,-234.31"/>
<polygon fill="black" stroke="black" points="280.98,-233.73 276.4,-224.17 274.03,-234.5 280.98,-233.73"/>
</g>
<!-- src/native.ts&#45;&gt;exit_src -->
</g>
</svg>
