<?xml version="1.0" encoding="UTF-8" standalone="no"?>
<!DOCTYPE svg PUBLIC "-//W3C//DTD SVG 1.1//EN"
 "http://www.w3.org/Graphics/SVG/1.1/DTD/svg11.dtd">
<!-- Generated by graphviz version 2.43.0 (0)
 -->
<!-- Title: dependency&#45;graph&#45;@siteimprove/alfa&#45;affine Pages: 1 -->
<svg width="229pt" height="232pt"
 viewBox="0.00 0.00 229.20 232.20" xmlns="http://www.w3.org/2000/svg" xmlns:xlink="http://www.w3.org/1999/xlink">
<g id="graph0" class="graph" transform="scale(1 1) rotate(0) translate(21.6 210.6)">
<title>dependency&#45;graph&#45;@siteimprove/alfa&#45;affine</title>
<polygon fill="#ffffff" stroke="transparent" points="-21.6,21.6 -21.6,-210.6 207.6,-210.6 207.6,21.6 -21.6,21.6"/>
<g id="clust1" class="cluster">
<title>cluster_src</title>
<polygon fill="#ffffff" stroke="#000000" points="8,-8 8,-181 178,-181 178,-8 8,-8"/>
</g>
<g id="clust2" class="cluster">
<title>cluster_src</title>
<polygon fill="#ffffff" stroke="#000000" points="16,-16 16,-173 170,-173 170,-16 16,-16"/>
</g>
<!-- src/transformation.ts -->
<g id="node1" class="node">
<title>src/transformation.ts</title>
<path fill="none" stroke="#000000" d="M134.33,-106C134.33,-106 31.67,-106 31.67,-106 27.83,-106 24,-102.17 24,-98.33 24,-98.33 24,-90.67 24,-90.67 24,-86.83 27.83,-83 31.67,-83 31.67,-83 134.33,-83 134.33,-83 138.17,-83 142,-86.83 142,-90.67 142,-90.67 142,-98.33 142,-98.33 142,-102.17 138.17,-106 134.33,-106"/>
<text text-anchor="middle" x="83" y="-90.8" font-family="Arial" font-size="14.00" fill="#000000">transformation.ts</text>
</g>
<!-- exit_src -->
<!-- src/transformation.ts&#45;&gt;exit_src -->
<!-- exit_src&#45;&gt;exit_src -->
<!-- exit_src&#45;&gt;exit_src -->
<!-- name_src -->
<g id="node3" class="node">
<title>name_src</title>
<path fill="none" stroke="#ff0000" stroke-width="5" d="M154.33,-165C154.33,-165 115.67,-165 115.67,-165 111.83,-165 108,-161.17 108,-157.33 108,-157.33 108,-149.67 108,-149.67 108,-145.83 111.83,-142 115.67,-142 115.67,-142 154.33,-142 154.33,-142 158.17,-142 162,-145.83 162,-149.67 162,-149.67 162,-157.33 162,-157.33 162,-161.17 158.17,-165 154.33,-165"/>
<text text-anchor="middle" x="135" y="-149.8" font-family="Arial" font-size="14.00" fill="#000000">src</text>
</g>
<!-- src/index.ts -->
<g id="node4" class="node">
<title>src/index.ts</title>
<path fill="none" stroke="#ff0000" stroke-width="5" d="M81.83,-165C81.83,-165 34.17,-165 34.17,-165 30.33,-165 26.5,-161.17 26.5,-157.33 26.5,-157.33 26.5,-149.67 26.5,-149.67 26.5,-145.83 30.33,-142 34.17,-142 34.17,-142 81.83,-142 81.83,-142 85.67,-142 89.5,-145.83 89.5,-149.67 89.5,-149.67 89.5,-157.33 89.5,-157.33 89.5,-161.17 85.67,-165 81.83,-165"/>
<text text-anchor="middle" x="58" y="-149.8" font-family="Arial" font-size="14.00" fill="#000000">index.ts</text>
</g>
<!-- src/index.ts&#45;&gt;src/transformation.ts -->
<!-- src/index.ts&#45;&gt;src/transformation.ts -->
<g id="edge6" class="edge">
<title>src/index.ts&#45;&gt;src/transformation.ts</title>
<path fill="none" stroke="black" d="M68.11,-141.78C72.61,-134.45 77.33,-124.52 80.62,-115.74"/>
<polygon fill="black" stroke="black" points="83.96,-116.77 83.72,-106.17 77.3,-114.6 83.96,-116.77"/>
</g>
<!-- src/index.ts&#45;&gt;exit_src -->
</g>
</svg>
