<?xml version="1.0" encoding="UTF-8" standalone="no"?>
<!DOCTYPE svg PUBLIC "-//W3C//DTD SVG 1.1//EN"
 "http://www.w3.org/Graphics/SVG/1.1/DTD/svg11.dtd">
<!-- Generated by graphviz version 2.43.0 (0)
 -->
<!-- Title: dependency&#45;graph&#45;[object Object] Pages: 1 -->
<svg width="264pt" height="267pt"
 viewBox="0.00 0.00 264.20 267.20" xmlns="http://www.w3.org/2000/svg" xmlns:xlink="http://www.w3.org/1999/xlink">
<g id="graph0" class="graph" transform="scale(1 1) rotate(0) translate(21.6 245.6)">
<title>dependency&#45;graph&#45;[object Object]</title>
<polygon fill="#ffffff" stroke="transparent" points="-21.6,21.6 -21.6,-245.6 242.6,-245.6 242.6,21.6 -21.6,21.6"/>
<g id="clust1" class="cluster">
<title>cluster_src</title>
<polygon fill="#ffffff" stroke="#000000" points="30.5,-43 30.5,-216 200.5,-216 200.5,-43 30.5,-43"/>
</g>
<g id="clust2" class="cluster">
<title>cluster_src</title>
<polygon fill="#ffffff" stroke="#000000" points="38.5,-51 38.5,-208 192.5,-208 192.5,-51 38.5,-51"/>
</g>
<!-- dependency&#45;graph&#45;[object Object] -->
<!-- src/transformation.ts -->
<g id="node2" class="node">
<title>src/transformation.ts</title>
<path fill="none" stroke="#000000" d="M156.83,-141C156.83,-141 54.17,-141 54.17,-141 50.33,-141 46.5,-137.17 46.5,-133.33 46.5,-133.33 46.5,-125.67 46.5,-125.67 46.5,-121.83 50.33,-118 54.17,-118 54.17,-118 156.83,-118 156.83,-118 160.67,-118 164.5,-121.83 164.5,-125.67 164.5,-125.67 164.5,-133.33 164.5,-133.33 164.5,-137.17 160.67,-141 156.83,-141"/>
<text text-anchor="middle" x="105.5" y="-125.8" font-family="Arial" font-size="14.00" fill="#000000">transformation.ts</text>
</g>
<!-- exit_src -->
<!-- src/transformation.ts&#45;&gt;exit_src -->
<!-- name_src -->
<g id="node3" class="node">
<title>name_src</title>
<path fill="none" stroke="#ff0000" stroke-width="5" d="M176.83,-200C176.83,-200 138.17,-200 138.17,-200 134.33,-200 130.5,-196.17 130.5,-192.33 130.5,-192.33 130.5,-184.67 130.5,-184.67 130.5,-180.83 134.33,-177 138.17,-177 138.17,-177 176.83,-177 176.83,-177 180.67,-177 184.5,-180.83 184.5,-184.67 184.5,-184.67 184.5,-192.33 184.5,-192.33 184.5,-196.17 180.67,-200 176.83,-200"/>
<text text-anchor="middle" x="157.5" y="-184.8" font-family="Arial" font-size="14.00" fill="#000000">src</text>
</g>
<!-- exit_src&#45;&gt;dependency&#45;graph&#45;[object Object] -->
<!-- exit_src&#45;&gt;exit_src -->
<!-- exit_src&#45;&gt;exit_src -->
<!-- src/index.ts -->
<g id="node5" class="node">
<title>src/index.ts</title>
<path fill="none" stroke="#ff0000" stroke-width="5" d="M104.33,-200C104.33,-200 56.67,-200 56.67,-200 52.83,-200 49,-196.17 49,-192.33 49,-192.33 49,-184.67 49,-184.67 49,-180.83 52.83,-177 56.67,-177 56.67,-177 104.33,-177 104.33,-177 108.17,-177 112,-180.83 112,-184.67 112,-184.67 112,-192.33 112,-192.33 112,-196.17 108.17,-200 104.33,-200"/>
<text text-anchor="middle" x="80.5" y="-184.8" font-family="Arial" font-size="14.00" fill="#000000">index.ts</text>
</g>
<!-- src/index.ts&#45;&gt;src/transformation.ts -->
<!-- src/index.ts&#45;&gt;src/transformation.ts -->
<g id="edge7" class="edge">
<title>src/index.ts&#45;&gt;src/transformation.ts</title>
<path fill="none" stroke="black" d="M90.61,-176.78C95.11,-169.45 99.83,-159.52 103.12,-150.74"/>
<polygon fill="black" stroke="black" points="106.46,-151.77 106.22,-141.17 99.8,-149.6 106.46,-151.77"/>
</g>
<!-- src/index.ts&#45;&gt;exit_src -->
</g>
</svg>
