<?xml version="1.0" encoding="UTF-8" standalone="no"?>
<!DOCTYPE svg PUBLIC "-//W3C//DTD SVG 1.1//EN"
 "http://www.w3.org/Graphics/SVG/1.1/DTD/svg11.dtd">
<!-- Generated by graphviz version 2.43.0 (0)
 -->
<!-- Title: dependency&#45;graph&#45;@siteimprove/alfa&#45;compatibility Pages: 1 -->
<svg width="451pt" height="409pt"
 viewBox="0.00 0.00 451.20 409.20" xmlns="http://www.w3.org/2000/svg" xmlns:xlink="http://www.w3.org/1999/xlink">
<g id="graph0" class="graph" transform="scale(1 1) rotate(0) translate(21.6 387.6)">
<title>dependency&#45;graph&#45;@siteimprove/alfa&#45;compatibility</title>
<polygon fill="#ffffff" stroke="transparent" points="-21.6,21.6 -21.6,-387.6 429.6,-387.6 429.6,21.6 -21.6,21.6"/>
<g id="clust1" class="cluster">
<title>cluster_src</title>
<polygon fill="#ffffff" stroke="#000000" points="8,-8 8,-358 400,-358 400,-8 8,-8"/>
</g>
<g id="clust2" class="cluster">
<title>cluster_src</title>
<polygon fill="#ffffff" stroke="#000000" points="16,-16 16,-350 392,-350 392,-16 16,-16"/>
</g>
<g id="clust3" class="cluster">
<title>cluster_src/feature</title>
<polygon fill="#ffffff" stroke="#000000" points="201,-75 201,-173 352,-173 352,-75 201,-75"/>
</g>
<g id="clust4" class="cluster">
<title>cluster_src/browser</title>
<polygon fill="#ffffff" stroke="#000000" points="36,-75 36,-173 193,-173 193,-75 36,-75"/>
</g>
<!-- src/browser/data.ts -->
<g id="node1" class="node">
<title>src/browser/data.ts</title>
<path fill="none" stroke="#000000" d="M176.83,-165C176.83,-165 135.17,-165 135.17,-165 131.33,-165 127.5,-161.17 127.5,-157.33 127.5,-157.33 127.5,-149.67 127.5,-149.67 127.5,-145.83 131.33,-142 135.17,-142 135.17,-142 176.83,-142 176.83,-142 180.67,-142 184.5,-145.83 184.5,-149.67 184.5,-149.67 184.5,-157.33 184.5,-157.33 184.5,-161.17 180.67,-165 176.83,-165"/>
<text text-anchor="middle" x="156" y="-149.8" font-family="Arial" font-size="14.00" fill="#000000">data.ts</text>
</g>
<!-- exit_src/browser -->
<!-- src/browser/data.ts&#45;&gt;exit_src/browser -->
<!-- name_src/browser -->
<g id="node2" class="node">
<title>name_src/browser</title>
<path fill="none" stroke="#0000ff" stroke-width="5" d="M101.83,-165C101.83,-165 52.17,-165 52.17,-165 48.33,-165 44.5,-161.17 44.5,-157.33 44.5,-157.33 44.5,-149.67 44.5,-149.67 44.5,-145.83 48.33,-142 52.17,-142 52.17,-142 101.83,-142 101.83,-142 105.67,-142 109.5,-145.83 109.5,-149.67 109.5,-149.67 109.5,-157.33 109.5,-157.33 109.5,-161.17 105.67,-165 101.83,-165"/>
<text text-anchor="middle" x="77" y="-149.8" font-family="Arial" font-size="14.00" fill="#000000">browser</text>
</g>
<!-- src/browser.ts -->
<g id="node3" class="node">
<title>src/browser.ts</title>
<path fill="none" stroke="#000000" d="M212.33,-224C212.33,-224 149.67,-224 149.67,-224 145.83,-224 142,-220.17 142,-216.33 142,-216.33 142,-208.67 142,-208.67 142,-204.83 145.83,-201 149.67,-201 149.67,-201 212.33,-201 212.33,-201 216.17,-201 220,-204.83 220,-208.67 220,-208.67 220,-216.33 220,-216.33 220,-220.17 216.17,-224 212.33,-224"/>
<text text-anchor="middle" x="181" y="-208.8" font-family="Arial" font-size="14.00" fill="#000000">browser.ts</text>
</g>
<!-- src/browser.ts&#45;&gt;name_src/browser -->
<g id="edge13" class="edge">
<title>src/browser.ts&#45;&gt;name_src/browser</title>
<path fill="none" stroke="#00ff00" d="M161.44,-200.78C149.64,-194.31 134.12,-185.81 119.61,-177.86"/>
<polygon fill="#00ff00" stroke="#00ff00" points="121.2,-174.74 110.75,-173 117.84,-180.87 121.2,-174.74"/>
</g>
<!-- exit_src -->
<!-- src/browser.ts&#45;&gt;exit_src -->
<!-- src/feature.ts -->
<g id="node4" class="node">
<title>src/feature.ts</title>
<path fill="none" stroke="#000000" d="M265.83,-283C265.83,-283 208.17,-283 208.17,-283 204.33,-283 200.5,-279.17 200.5,-275.33 200.5,-275.33 200.5,-267.67 200.5,-267.67 200.5,-263.83 204.33,-260 208.17,-260 208.17,-260 265.83,-260 265.83,-260 269.67,-260 273.5,-263.83 273.5,-267.67 273.5,-267.67 273.5,-275.33 273.5,-275.33 273.5,-279.17 269.67,-283 265.83,-283"/>
<text text-anchor="middle" x="237" y="-267.8" font-family="Arial" font-size="14.00" fill="#000000">feature.ts</text>
</g>
<!-- src/feature.ts&#45;&gt;src/browser.ts -->
<!-- src/feature.ts&#45;&gt;src/browser.ts -->
<g id="edge19" class="edge">
<title>src/feature.ts&#45;&gt;src/browser.ts</title>
<path fill="none" stroke="black" d="M231.88,-259.78C225.32,-251.66 214.48,-240.33 204.38,-230.92"/>
<polygon fill="black" stroke="black" points="206.66,-228.26 196.89,-224.17 201.98,-233.46 206.66,-228.26"/>
</g>
<!-- name_src/feature -->
<g id="node6" class="node">
<title>name_src/feature</title>
<path fill="none" stroke="#ff0000" stroke-width="5" d="M260.83,-165C260.83,-165 217.17,-165 217.17,-165 213.33,-165 209.5,-161.17 209.5,-157.33 209.5,-157.33 209.5,-149.67 209.5,-149.67 209.5,-145.83 213.33,-142 217.17,-142 217.17,-142 260.83,-142 260.83,-142 264.67,-142 268.5,-145.83 268.5,-149.67 268.5,-149.67 268.5,-157.33 268.5,-157.33 268.5,-161.17 264.67,-165 260.83,-165"/>
<text text-anchor="middle" x="239" y="-149.8" font-family="Arial" font-size="14.00" fill="#000000">feature</text>
</g>
<!-- src/feature.ts&#45;&gt;name_src/feature -->
<g id="edge20" class="edge">
<title>src/feature.ts&#45;&gt;name_src/feature</title>
<path fill="none" stroke="#00ff00" d="M237.18,-259.79C237.51,-240.63 238.21,-200.15 238.64,-175.34"/>
<polygon fill="#00ff00" stroke="#00ff00" points="241.56,-183.23 238.82,-173 234.58,-182.71 241.56,-183.23"/>
</g>
<!-- src/feature.ts&#45;&gt;exit_src -->
<!-- src/feature/data.ts -->
<g id="node5" class="node">
<title>src/feature/data.ts</title>
<path fill="none" stroke="#000000" d="M335.83,-165C335.83,-165 294.17,-165 294.17,-165 290.33,-165 286.5,-161.17 286.5,-157.33 286.5,-157.33 286.5,-149.67 286.5,-149.67 286.5,-145.83 290.33,-142 294.17,-142 294.17,-142 335.83,-142 335.83,-142 339.67,-142 343.5,-145.83 343.5,-149.67 343.5,-149.67 343.5,-157.33 343.5,-157.33 343.5,-161.17 339.67,-165 335.83,-165"/>
<text text-anchor="middle" x="315" y="-149.8" font-family="Arial" font-size="14.00" fill="#000000">data.ts</text>
</g>
<!-- exit_src/feature -->
<!-- src/feature/data.ts&#45;&gt;exit_src/feature -->
<!-- exit_src&#45;&gt;exit_src -->
<!-- exit_src&#45;&gt;exit_src -->
<!-- exit_src&#45;&gt;exit_src -->
<!-- exit_src&#45;&gt;exit_src -->
<!-- exit_src&#45;&gt;exit_src -->
<!-- name_src -->
<g id="node8" class="node">
<title>name_src</title>
<path fill="none" stroke="#00ff00" stroke-width="5" d="M354.33,-342C354.33,-342 315.67,-342 315.67,-342 311.83,-342 308,-338.17 308,-334.33 308,-334.33 308,-326.67 308,-326.67 308,-322.83 311.83,-319 315.67,-319 315.67,-319 354.33,-319 354.33,-319 358.17,-319 362,-322.83 362,-326.67 362,-326.67 362,-334.33 362,-334.33 362,-338.17 358.17,-342 354.33,-342"/>
<text text-anchor="middle" x="335" y="-326.8" font-family="Arial" font-size="14.00" fill="#000000">src</text>
</g>
<!-- src/index.ts -->
<g id="node9" class="node">
<title>src/index.ts</title>
<path fill="none" stroke="#00ff00" stroke-width="5" d="M260.83,-342C260.83,-342 213.17,-342 213.17,-342 209.33,-342 205.5,-338.17 205.5,-334.33 205.5,-334.33 205.5,-326.67 205.5,-326.67 205.5,-322.83 209.33,-319 213.17,-319 213.17,-319 260.83,-319 260.83,-319 264.67,-319 268.5,-322.83 268.5,-326.67 268.5,-326.67 268.5,-334.33 268.5,-334.33 268.5,-338.17 264.67,-342 260.83,-342"/>
<text text-anchor="middle" x="237" y="-326.8" font-family="Arial" font-size="14.00" fill="#000000">index.ts</text>
</g>
<!-- src/index.ts&#45;&gt;src/browser.ts -->
<!-- src/index.ts&#45;&gt;src/browser.ts -->
<g id="edge15" class="edge">
<title>src/index.ts&#45;&gt;src/browser.ts</title>
<path fill="none" stroke="black" d="M230.24,-318.9C221.56,-310.38 208.23,-297.47 201,-283 193.43,-267.84 190.84,-248.72 188.62,-234.37"/>
<polygon fill="black" stroke="black" points="192.06,-233.73 186.91,-224.47 185.16,-234.92 192.06,-233.73"/>
</g>
<!-- src/index.ts&#45;&gt;src/feature.ts -->
<!-- src/index.ts&#45;&gt;src/feature.ts -->
<g id="edge17" class="edge">
<title>src/index.ts&#45;&gt;src/feature.ts</title>
<path fill="none" stroke="black" d="M242.41,-318.78C243.67,-311.61 244.04,-301.95 243.53,-293.31"/>
<polygon fill="black" stroke="black" points="246.98,-292.73 242.4,-283.17 240.03,-293.5 246.98,-292.73"/>
</g>
<!-- src/index.ts&#45;&gt;exit_src -->
<!-- exit_src/feature&#45;&gt;exit_src -->
<!-- exit_src/browser&#45;&gt;exit_src -->
</g>
</svg>
