<?xml version="1.0" encoding="UTF-8" standalone="no"?>
<!DOCTYPE svg PUBLIC "-//W3C//DTD SVG 1.1//EN"
 "http://www.w3.org/Graphics/SVG/1.1/DTD/svg11.dtd">
<!-- Generated by graphviz version 2.43.0 (0)
 -->
<!-- Title: dependency&#45;graph&#45;[object Object] Pages: 1 -->
<svg width="451pt" height="444pt"
 viewBox="0.00 0.00 451.20 444.20" xmlns="http://www.w3.org/2000/svg" xmlns:xlink="http://www.w3.org/1999/xlink">
<g id="graph0" class="graph" transform="scale(1 1) rotate(0) translate(21.6 422.6)">
<title>dependency&#45;graph&#45;[object Object]</title>
<polygon fill="#ffffff" stroke="transparent" points="-21.6,21.6 -21.6,-422.6 429.6,-422.6 429.6,21.6 -21.6,21.6"/>
<g id="clust1" class="cluster">
<title>cluster_src</title>
<polygon fill="#ffffff" stroke="#000000" points="8,-43 8,-393 400,-393 400,-43 8,-43"/>
</g>
<g id="clust2" class="cluster">
<title>cluster_src</title>
<polygon fill="#ffffff" stroke="#000000" points="16,-51 16,-385 392,-385 392,-51 16,-51"/>
</g>
<g id="clust3" class="cluster">
<title>cluster_src/browser</title>
<polygon fill="#ffffff" stroke="#000000" points="36,-110 36,-208 193,-208 193,-110 36,-110"/>
</g>
<g id="clust4" class="cluster">
<title>cluster_src/feature</title>
<polygon fill="#ffffff" stroke="#000000" points="201,-110 201,-208 352,-208 352,-110 201,-110"/>
</g>
<!-- dependency&#45;graph&#45;[object Object] -->
<!-- src/browser/data.ts -->
<g id="node2" class="node">
<title>src/browser/data.ts</title>
<path fill="none" stroke="#000000" d="M176.83,-200C176.83,-200 135.17,-200 135.17,-200 131.33,-200 127.5,-196.17 127.5,-192.33 127.5,-192.33 127.5,-184.67 127.5,-184.67 127.5,-180.83 131.33,-177 135.17,-177 135.17,-177 176.83,-177 176.83,-177 180.67,-177 184.5,-180.83 184.5,-184.67 184.5,-184.67 184.5,-192.33 184.5,-192.33 184.5,-196.17 180.67,-200 176.83,-200"/>
<text text-anchor="middle" x="156" y="-184.8" font-family="Arial" font-size="14.00" fill="#000000">data.ts</text>
</g>
<!-- exit_src/browser -->
<!-- src/browser/data.ts&#45;&gt;exit_src/browser -->
<!-- name_src/browser -->
<g id="node3" class="node">
<title>name_src/browser</title>
<path fill="none" stroke="#0000ff" stroke-width="5" d="M101.83,-200C101.83,-200 52.17,-200 52.17,-200 48.33,-200 44.5,-196.17 44.5,-192.33 44.5,-192.33 44.5,-184.67 44.5,-184.67 44.5,-180.83 48.33,-177 52.17,-177 52.17,-177 101.83,-177 101.83,-177 105.67,-177 109.5,-180.83 109.5,-184.67 109.5,-184.67 109.5,-192.33 109.5,-192.33 109.5,-196.17 105.67,-200 101.83,-200"/>
<text text-anchor="middle" x="77" y="-184.8" font-family="Arial" font-size="14.00" fill="#000000">browser</text>
</g>
<!-- src/browser.ts -->
<g id="node4" class="node">
<title>src/browser.ts</title>
<path fill="none" stroke="#000000" d="M212.33,-259C212.33,-259 149.67,-259 149.67,-259 145.83,-259 142,-255.17 142,-251.33 142,-251.33 142,-243.67 142,-243.67 142,-239.83 145.83,-236 149.67,-236 149.67,-236 212.33,-236 212.33,-236 216.17,-236 220,-239.83 220,-243.67 220,-243.67 220,-251.33 220,-251.33 220,-255.17 216.17,-259 212.33,-259"/>
<text text-anchor="middle" x="181" y="-243.8" font-family="Arial" font-size="14.00" fill="#000000">browser.ts</text>
</g>
<!-- src/browser.ts&#45;&gt;name_src/browser -->
<g id="edge14" class="edge">
<title>src/browser.ts&#45;&gt;name_src/browser</title>
<path fill="none" stroke="#00ff00" d="M161.44,-235.78C149.64,-229.31 134.12,-220.81 119.61,-212.86"/>
<polygon fill="#00ff00" stroke="#00ff00" points="121.2,-209.74 110.75,-208 117.84,-215.87 121.2,-209.74"/>
</g>
<!-- exit_src -->
<!-- src/browser.ts&#45;&gt;exit_src -->
<!-- src/feature/data.ts -->
<g id="node5" class="node">
<title>src/feature/data.ts</title>
<path fill="none" stroke="#000000" d="M335.83,-200C335.83,-200 294.17,-200 294.17,-200 290.33,-200 286.5,-196.17 286.5,-192.33 286.5,-192.33 286.5,-184.67 286.5,-184.67 286.5,-180.83 290.33,-177 294.17,-177 294.17,-177 335.83,-177 335.83,-177 339.67,-177 343.5,-180.83 343.5,-184.67 343.5,-184.67 343.5,-192.33 343.5,-192.33 343.5,-196.17 339.67,-200 335.83,-200"/>
<text text-anchor="middle" x="315" y="-184.8" font-family="Arial" font-size="14.00" fill="#000000">data.ts</text>
</g>
<!-- exit_src/feature -->
<!-- src/feature/data.ts&#45;&gt;exit_src/feature -->
<!-- name_src/feature -->
<g id="node6" class="node">
<title>name_src/feature</title>
<path fill="none" stroke="#ff0000" stroke-width="5" d="M260.83,-200C260.83,-200 217.17,-200 217.17,-200 213.33,-200 209.5,-196.17 209.5,-192.33 209.5,-192.33 209.5,-184.67 209.5,-184.67 209.5,-180.83 213.33,-177 217.17,-177 217.17,-177 260.83,-177 260.83,-177 264.67,-177 268.5,-180.83 268.5,-184.67 268.5,-184.67 268.5,-192.33 268.5,-192.33 268.5,-196.17 264.67,-200 260.83,-200"/>
<text text-anchor="middle" x="239" y="-184.8" font-family="Arial" font-size="14.00" fill="#000000">feature</text>
</g>
<!-- src/feature.ts -->
<g id="node7" class="node">
<title>src/feature.ts</title>
<path fill="none" stroke="#000000" d="M265.83,-318C265.83,-318 208.17,-318 208.17,-318 204.33,-318 200.5,-314.17 200.5,-310.33 200.5,-310.33 200.5,-302.67 200.5,-302.67 200.5,-298.83 204.33,-295 208.17,-295 208.17,-295 265.83,-295 265.83,-295 269.67,-295 273.5,-298.83 273.5,-302.67 273.5,-302.67 273.5,-310.33 273.5,-310.33 273.5,-314.17 269.67,-318 265.83,-318"/>
<text text-anchor="middle" x="237" y="-302.8" font-family="Arial" font-size="14.00" fill="#000000">feature.ts</text>
</g>
<!-- src/feature.ts&#45;&gt;src/browser.ts -->
<!-- src/feature.ts&#45;&gt;src/browser.ts -->
<g id="edge16" class="edge">
<title>src/feature.ts&#45;&gt;src/browser.ts</title>
<path fill="none" stroke="black" d="M231.88,-294.78C225.32,-286.66 214.48,-275.33 204.38,-265.92"/>
<polygon fill="black" stroke="black" points="206.66,-263.26 196.89,-259.17 201.98,-268.46 206.66,-263.26"/>
</g>
<!-- src/feature.ts&#45;&gt;name_src/feature -->
<g id="edge17" class="edge">
<title>src/feature.ts&#45;&gt;name_src/feature</title>
<path fill="none" stroke="#00ff00" d="M237.18,-294.79C237.51,-275.63 238.21,-235.15 238.64,-210.34"/>
<polygon fill="#00ff00" stroke="#00ff00" points="241.56,-218.23 238.82,-208 234.58,-217.71 241.56,-218.23"/>
</g>
<!-- src/feature.ts&#45;&gt;exit_src -->
<!-- name_src -->
<g id="node8" class="node">
<title>name_src</title>
<path fill="none" stroke="#00ff00" stroke-width="5" d="M354.33,-377C354.33,-377 315.67,-377 315.67,-377 311.83,-377 308,-373.17 308,-369.33 308,-369.33 308,-361.67 308,-361.67 308,-357.83 311.83,-354 315.67,-354 315.67,-354 354.33,-354 354.33,-354 358.17,-354 362,-357.83 362,-361.67 362,-361.67 362,-369.33 362,-369.33 362,-373.17 358.17,-377 354.33,-377"/>
<text text-anchor="middle" x="335" y="-361.8" font-family="Arial" font-size="14.00" fill="#000000">src</text>
</g>
<!-- exit_src&#45;&gt;dependency&#45;graph&#45;[object Object] -->
<!-- exit_src&#45;&gt;exit_src -->
<!-- exit_src&#45;&gt;exit_src -->
<!-- exit_src&#45;&gt;exit_src -->
<!-- exit_src&#45;&gt;exit_src -->
<!-- exit_src&#45;&gt;exit_src -->
<!-- src/common.ts -->
<g id="node10" class="node">
<title>src/common.ts</title>
<path fill="none" stroke="#00ff00" stroke-width="5" d="M260.83,-377C260.83,-377 213.17,-377 213.17,-377 209.33,-377 205.5,-373.17 205.5,-369.33 205.5,-369.33 205.5,-361.67 205.5,-361.67 205.5,-357.83 209.33,-354 213.17,-354 213.17,-354 260.83,-354 260.83,-354 264.67,-354 268.5,-357.83 268.5,-361.67 268.5,-361.67 268.5,-369.33 268.5,-369.33 268.5,-373.17 264.67,-377 260.83,-377"/>
<text text-anchor="middle" x="237" y="-361.8" font-family="Arial" font-size="14.00" fill="#000000">common.ts</text>
</g>
<!-- src/common.ts&#45;&gt;src/browser.ts -->
<!-- src/common.ts&#45;&gt;src/browser.ts -->
<g id="edge19" class="edge">
<title>src/common.ts&#45;&gt;src/browser.ts</title>
<path fill="none" stroke="black" d="M230.24,-353.9C221.56,-345.38 208.23,-332.47 201,-318 193.43,-302.84 190.84,-283.72 188.62,-269.37"/>
<polygon fill="black" stroke="black" points="192.06,-268.73 186.91,-259.47 185.16,-269.92 192.06,-268.73"/>
</g>
<!-- src/common.ts&#45;&gt;src/feature.ts -->
<!-- src/common.ts&#45;&gt;src/feature.ts -->
<g id="edge21" class="edge">
<title>src/common.ts&#45;&gt;src/feature.ts</title>
<path fill="none" stroke="black" d="M242.41,-353.78C243.67,-346.61 244.04,-336.95 243.53,-328.31"/>
<polygon fill="black" stroke="black" points="246.98,-327.73 242.4,-318.17 240.03,-328.5 246.98,-327.73"/>
</g>
<!-- src/common.ts&#45;&gt;exit_src -->
<!-- exit_src/browser&#45;&gt;exit_src -->
<!-- exit_src/feature&#45;&gt;exit_src -->
</g>
</svg>
