<?xml version="1.0" encoding="UTF-8" standalone="no"?>
<!DOCTYPE svg PUBLIC "-//W3C//DTD SVG 1.1//EN"
 "http://www.w3.org/Graphics/SVG/1.1/DTD/svg11.dtd">
<!-- Generated by graphviz version 2.43.0 (0)
 -->
<!-- Title: dependency&#45;graph&#45;@siteimprove/alfa&#45;http Pages: 1 -->
<svg width="467pt" height="350pt"
 viewBox="0.00 0.00 467.20 350.20" xmlns="http://www.w3.org/2000/svg" xmlns:xlink="http://www.w3.org/1999/xlink">
<g id="graph0" class="graph" transform="scale(1 1) rotate(0) translate(21.6 328.6)">
<title>dependency&#45;graph&#45;@siteimprove/alfa&#45;http</title>
<polygon fill="#ffffff" stroke="transparent" points="-21.6,21.6 -21.6,-328.6 445.6,-328.6 445.6,21.6 -21.6,21.6"/>
<g id="clust1" class="cluster">
<title>cluster_src</title>
<polygon fill="#ffffff" stroke="#000000" points="8,-8 8,-299 416,-299 416,-8 8,-8"/>
</g>
<g id="clust2" class="cluster">
<title>cluster_src</title>
<polygon fill="#ffffff" stroke="#000000" points="16,-16 16,-291 408,-291 408,-16 16,-16"/>
</g>
<!-- src/body.ts -->
<g id="node1" class="node">
<title>src/body.ts</title>
<path fill="none" stroke="#000000" d="M329.83,-165C329.83,-165 286.17,-165 286.17,-165 282.33,-165 278.5,-161.17 278.5,-157.33 278.5,-157.33 278.5,-149.67 278.5,-149.67 278.5,-145.83 282.33,-142 286.17,-142 286.17,-142 329.83,-142 329.83,-142 333.67,-142 337.5,-145.83 337.5,-149.67 337.5,-149.67 337.5,-157.33 337.5,-157.33 337.5,-161.17 333.67,-165 329.83,-165"/>
<text text-anchor="middle" x="308" y="-149.8" font-family="Arial" font-size="14.00" fill="#000000">body.ts</text>
</g>
<!-- exit_src -->
<!-- src/body.ts&#45;&gt;exit_src -->
<!-- src/headers.ts -->
<g id="node2" class="node">
<title>src/headers.ts</title>
<path fill="none" stroke="#000000" d="M232.33,-165C232.33,-165 167.67,-165 167.67,-165 163.83,-165 160,-161.17 160,-157.33 160,-157.33 160,-149.67 160,-149.67 160,-145.83 163.83,-142 167.67,-142 167.67,-142 232.33,-142 232.33,-142 236.17,-142 240,-145.83 240,-149.67 240,-149.67 240,-157.33 240,-157.33 240,-161.17 236.17,-165 232.33,-165"/>
<text text-anchor="middle" x="200" y="-149.8" font-family="Arial" font-size="14.00" fill="#000000">headers.ts</text>
</g>
<!-- src/header.ts -->
<g id="node4" class="node">
<title>src/header.ts</title>
<path fill="none" stroke="#000000" d="M201.33,-106C201.33,-106 144.67,-106 144.67,-106 140.83,-106 137,-102.17 137,-98.33 137,-98.33 137,-90.67 137,-90.67 137,-86.83 140.83,-83 144.67,-83 144.67,-83 201.33,-83 201.33,-83 205.17,-83 209,-86.83 209,-90.67 209,-90.67 209,-98.33 209,-98.33 209,-102.17 205.17,-106 201.33,-106"/>
<text text-anchor="middle" x="173" y="-90.8" font-family="Arial" font-size="14.00" fill="#000000">header.ts</text>
</g>
<!-- src/headers.ts&#45;&gt;src/header.ts -->
<!-- src/headers.ts&#45;&gt;src/header.ts -->
<g id="edge28" class="edge">
<title>src/headers.ts&#45;&gt;src/header.ts</title>
<path fill="none" stroke="black" d="M200.33,-141.78C198.08,-134.22 193.52,-123.87 188.61,-114.88"/>
<polygon fill="black" stroke="black" points="191.56,-113 183.46,-106.17 185.54,-116.56 191.56,-113"/>
</g>
<!-- src/headers.ts&#45;&gt;exit_src -->
<!-- src/cookie.ts -->
<g id="node3" class="node">
<title>src/cookie.ts</title>
<path fill="none" stroke="#000000" d="M91.33,-165C91.33,-165 36.67,-165 36.67,-165 32.83,-165 29,-161.17 29,-157.33 29,-157.33 29,-149.67 29,-149.67 29,-145.83 32.83,-142 36.67,-142 36.67,-142 91.33,-142 91.33,-142 95.17,-142 99,-145.83 99,-149.67 99,-149.67 99,-157.33 99,-157.33 99,-161.17 95.17,-165 91.33,-165"/>
<text text-anchor="middle" x="64" y="-149.8" font-family="Arial" font-size="14.00" fill="#000000">cookie.ts</text>
</g>
<!-- src/cookie.ts&#45;&gt;exit_src -->
<!-- src/header.ts&#45;&gt;exit_src -->
<!-- src/cookies.ts -->
<g id="node5" class="node">
<title>src/cookies.ts</title>
<path fill="none" stroke="#000000" d="M113.83,-224C113.83,-224 52.17,-224 52.17,-224 48.33,-224 44.5,-220.17 44.5,-216.33 44.5,-216.33 44.5,-208.67 44.5,-208.67 44.5,-204.83 48.33,-201 52.17,-201 52.17,-201 113.83,-201 113.83,-201 117.67,-201 121.5,-204.83 121.5,-208.67 121.5,-208.67 121.5,-216.33 121.5,-216.33 121.5,-220.17 117.67,-224 113.83,-224"/>
<text text-anchor="middle" x="83" y="-208.8" font-family="Arial" font-size="14.00" fill="#000000">cookies.ts</text>
</g>
<!-- src/cookies.ts&#45;&gt;src/cookie.ts -->
<!-- src/cookies.ts&#45;&gt;src/cookie.ts -->
<g id="edge22" class="edge">
<title>src/cookies.ts&#45;&gt;src/cookie.ts</title>
<path fill="none" stroke="black" d="M84.84,-200.78C83.67,-193.37 80.67,-183.3 77.12,-174.45"/>
<polygon fill="black" stroke="black" points="80.25,-172.86 72.96,-165.17 73.86,-175.73 80.25,-172.86"/>
</g>
<!-- src/cookies.ts&#45;&gt;exit_src -->
<!-- src/request.ts -->
<g id="node6" class="node">
<title>src/request.ts</title>
<path fill="none" stroke="#000000" d="M248.33,-224C248.33,-224 187.67,-224 187.67,-224 183.83,-224 180,-220.17 180,-216.33 180,-216.33 180,-208.67 180,-208.67 180,-204.83 183.83,-201 187.67,-201 187.67,-201 248.33,-201 248.33,-201 252.17,-201 256,-204.83 256,-208.67 256,-208.67 256,-216.33 256,-216.33 256,-220.17 252.17,-224 248.33,-224"/>
<text text-anchor="middle" x="218" y="-208.8" font-family="Arial" font-size="14.00" fill="#000000">request.ts</text>
</g>
<!-- src/request.ts&#45;&gt;src/body.ts -->
<!-- src/request.ts&#45;&gt;src/body.ts -->
<g id="edge24" class="edge">
<title>src/request.ts&#45;&gt;src/body.ts</title>
<path fill="none" stroke="black" stroke-dasharray="1,5" d="M240.34,-200.78C255.01,-192.42 273.83,-180.66 288,-171.09"/>
<polygon fill="black" stroke="black" points="290.32,-173.74 296.55,-165.17 286.34,-167.99 290.32,-173.74"/>
</g>
<!-- src/request.ts&#45;&gt;src/headers.ts -->
<!-- src/request.ts&#45;&gt;src/headers.ts -->
<g id="edge26" class="edge">
<title>src/request.ts&#45;&gt;src/headers.ts</title>
<path fill="none" stroke="black" d="M220.03,-200.78C218.99,-193.37 216.16,-183.3 212.77,-174.45"/>
<polygon fill="black" stroke="black" points="215.95,-172.97 208.77,-165.17 209.52,-175.74 215.95,-172.97"/>
</g>
<!-- src/request.ts&#45;&gt;exit_src -->
<!-- src/response.ts -->
<g id="node7" class="node">
<title>src/response.ts</title>
<path fill="none" stroke="#000000" d="M352.33,-224C352.33,-224 281.67,-224 281.67,-224 277.83,-224 274,-220.17 274,-216.33 274,-216.33 274,-208.67 274,-208.67 274,-204.83 277.83,-201 281.67,-201 281.67,-201 352.33,-201 352.33,-201 356.17,-201 360,-204.83 360,-208.67 360,-208.67 360,-216.33 360,-216.33 360,-220.17 356.17,-224 352.33,-224"/>
<text text-anchor="middle" x="317" y="-208.8" font-family="Arial" font-size="14.00" fill="#000000">response.ts</text>
</g>
<!-- src/response.ts&#45;&gt;src/body.ts -->
<!-- src/response.ts&#45;&gt;src/body.ts -->
<g id="edge18" class="edge">
<title>src/response.ts&#45;&gt;src/body.ts</title>
<path fill="none" stroke="black" stroke-dasharray="1,5" d="M320.72,-200.78C320.85,-193.53 319.66,-183.74 317.75,-175.02"/>
<polygon fill="black" stroke="black" points="321.08,-173.91 315.09,-165.17 314.32,-175.74 321.08,-173.91"/>
</g>
<!-- src/response.ts&#45;&gt;src/headers.ts -->
<!-- src/response.ts&#45;&gt;src/headers.ts -->
<g id="edge20" class="edge">
<title>src/response.ts&#45;&gt;src/headers.ts</title>
<path fill="none" stroke="black" d="M300.4,-200.78C283.74,-191.9 257.85,-179.19 236.47,-169.34"/>
<polygon fill="black" stroke="black" points="237.86,-166.13 227.31,-165.17 234.96,-172.5 237.86,-166.13"/>
</g>
<!-- src/response.ts&#45;&gt;exit_src -->
<!-- exit_src&#45;&gt;exit_src -->
<!-- exit_src&#45;&gt;exit_src -->
<!-- exit_src&#45;&gt;exit_src -->
<!-- exit_src&#45;&gt;exit_src -->
<!-- exit_src&#45;&gt;exit_src -->
<!-- exit_src&#45;&gt;exit_src -->
<!-- exit_src&#45;&gt;exit_src -->
<!-- exit_src&#45;&gt;exit_src -->
<!-- name_src -->
<g id="node9" class="node">
<title>name_src</title>
<path fill="none" stroke="#ff0000" stroke-width="5" d="M324.33,-283C324.33,-283 285.67,-283 285.67,-283 281.83,-283 278,-279.17 278,-275.33 278,-275.33 278,-267.67 278,-267.67 278,-263.83 281.83,-260 285.67,-260 285.67,-260 324.33,-260 324.33,-260 328.17,-260 332,-263.83 332,-267.67 332,-267.67 332,-275.33 332,-275.33 332,-279.17 328.17,-283 324.33,-283"/>
<text text-anchor="middle" x="305" y="-267.8" font-family="Arial" font-size="14.00" fill="#000000">src</text>
</g>
<!-- src/index.ts -->
<g id="node10" class="node">
<title>src/index.ts</title>
<path fill="none" stroke="#ff0000" stroke-width="5" d="M184.83,-283C184.83,-283 137.17,-283 137.17,-283 133.33,-283 129.5,-279.17 129.5,-275.33 129.5,-275.33 129.5,-267.67 129.5,-267.67 129.5,-263.83 133.33,-260 137.17,-260 137.17,-260 184.83,-260 184.83,-260 188.67,-260 192.5,-263.83 192.5,-267.67 192.5,-267.67 192.5,-275.33 192.5,-275.33 192.5,-279.17 188.67,-283 184.83,-283"/>
<text text-anchor="middle" x="161" y="-267.8" font-family="Arial" font-size="14.00" fill="#000000">index.ts</text>
</g>
<!-- src/index.ts&#45;&gt;src/body.ts -->
<!-- src/index.ts&#45;&gt;src/body.ts -->
<g id="edge30" class="edge">
<title>src/index.ts&#45;&gt;src/body.ts</title>
<path fill="none" stroke="black" d="M192.83,-268.57C247.68,-264.27 355.56,-252.01 378,-224 393.38,-204.81 368.51,-183.7 344.13,-169.84"/>
<polygon fill="black" stroke="black" points="345.71,-166.71 335.24,-165.08 342.4,-172.88 345.71,-166.71"/>
</g>
<!-- src/index.ts&#45;&gt;src/headers.ts -->
<!-- src/index.ts&#45;&gt;src/headers.ts -->
<g id="edge38" class="edge">
<title>src/index.ts&#45;&gt;src/headers.ts</title>
<path fill="none" stroke="black" d="M167.35,-259.81C170.72,-245.87 172.72,-220.92 180,-201 183.44,-191.6 188.95,-182.07 193.62,-174.11"/>
<polygon fill="black" stroke="black" points="196.74,-175.69 198.71,-165.28 190.68,-172.19 196.74,-175.69"/>
</g>
<!-- src/index.ts&#45;&gt;src/cookie.ts -->
<!-- src/index.ts&#45;&gt;src/cookie.ts -->
<g id="edge32" class="edge">
<title>src/index.ts&#45;&gt;src/cookie.ts</title>
<path fill="none" stroke="black" d="M129.31,-267.59C101.71,-263.13 63.46,-251.93 44,-224 33.11,-208.37 44.02,-188.01 53.77,-173.37"/>
<polygon fill="black" stroke="black" points="56.69,-175.31 59.5,-165.09 50.93,-171.33 56.69,-175.31"/>
</g>
<!-- src/index.ts&#45;&gt;src/header.ts -->
<!-- src/index.ts&#45;&gt;src/header.ts -->
<g id="edge36" class="edge">
<title>src/index.ts&#45;&gt;src/header.ts</title>
<path fill="none" stroke="black" d="M162.99,-259.68C161.36,-237.38 150.39,-184.79 160,-142 162.04,-132.91 166.07,-123.51 169.52,-115.56"/>
<polygon fill="black" stroke="black" points="172.85,-116.67 173.51,-106.09 166.4,-113.95 172.85,-116.67"/>
</g>
<!-- src/index.ts&#45;&gt;src/cookies.ts -->
<!-- src/index.ts&#45;&gt;src/cookies.ts -->
<g id="edge34" class="edge">
<title>src/index.ts&#45;&gt;src/cookies.ts</title>
<path fill="none" stroke="black" d="M151.74,-259.78C141.67,-251.34 125.64,-239.44 111.5,-229.82"/>
<polygon fill="black" stroke="black" points="113.27,-226.8 103.01,-224.17 109.4,-232.62 113.27,-226.8"/>
</g>
<!-- src/index.ts&#45;&gt;src/request.ts -->
<!-- src/index.ts&#45;&gt;src/request.ts -->
<g id="edge40" class="edge">
<title>src/index.ts&#45;&gt;src/request.ts</title>
<path fill="none" stroke="black" d="M177.13,-259.78C186.4,-251.9 197.61,-240.99 206.09,-231.75"/>
<polygon fill="black" stroke="black" points="208.78,-234 212.73,-224.17 203.51,-229.39 208.78,-234"/>
</g>
<!-- src/index.ts&#45;&gt;src/response.ts -->
<!-- src/index.ts&#45;&gt;src/response.ts -->
<g id="edge42" class="edge">
<title>src/index.ts&#45;&gt;src/response.ts</title>
<path fill="none" stroke="black" d="M192.68,-260.83C219.22,-251.78 256.79,-238.14 283.74,-227.82"/>
<polygon fill="black" stroke="black" points="285.09,-231.06 293.15,-224.19 282.57,-224.53 285.09,-231.06"/>
</g>
<!-- src/index.ts&#45;&gt;exit_src -->
</g>
</svg>
