<?xml version="1.0" encoding="UTF-8" standalone="no"?>
<!DOCTYPE svg PUBLIC "-//W3C//DTD SVG 1.1//EN"
 "http://www.w3.org/Graphics/SVG/1.1/DTD/svg11.dtd">
<!-- Generated by graphviz version 2.43.0 (0)
 -->
<!-- Title: dependency&#45;graph&#45;[object Object] Pages: 1 -->
<svg width="467pt" height="385pt"
 viewBox="0.00 0.00 467.20 385.20" xmlns="http://www.w3.org/2000/svg" xmlns:xlink="http://www.w3.org/1999/xlink">
<g id="graph0" class="graph" transform="scale(1 1) rotate(0) translate(21.6 363.6)">
<title>dependency&#45;graph&#45;[object Object]</title>
<polygon fill="#ffffff" stroke="transparent" points="-21.6,21.6 -21.6,-363.6 445.6,-363.6 445.6,21.6 -21.6,21.6"/>
<g id="clust1" class="cluster">
<title>cluster_src</title>
<polygon fill="#ffffff" stroke="#000000" points="8,-43 8,-334 416,-334 416,-43 8,-43"/>
</g>
<g id="clust2" class="cluster">
<title>cluster_src</title>
<polygon fill="#ffffff" stroke="#000000" points="16,-51 16,-326 408,-326 408,-51 16,-51"/>
</g>
<!-- dependency&#45;graph&#45;[object Object] -->
<!-- src/cookie.ts -->
<g id="node2" class="node">
<title>src/cookie.ts</title>
<path fill="none" stroke="#000000" d="M91.33,-200C91.33,-200 36.67,-200 36.67,-200 32.83,-200 29,-196.17 29,-192.33 29,-192.33 29,-184.67 29,-184.67 29,-180.83 32.83,-177 36.67,-177 36.67,-177 91.33,-177 91.33,-177 95.17,-177 99,-180.83 99,-184.67 99,-184.67 99,-192.33 99,-192.33 99,-196.17 95.17,-200 91.33,-200"/>
<text text-anchor="middle" x="64" y="-184.8" font-family="Arial" font-size="14.00" fill="#000000">cookie.ts</text>
</g>
<!-- exit_src -->
<!-- src/cookie.ts&#45;&gt;exit_src -->
<!-- src/header.ts -->
<g id="node3" class="node">
<title>src/header.ts</title>
<path fill="none" stroke="#000000" d="M201.33,-141C201.33,-141 144.67,-141 144.67,-141 140.83,-141 137,-137.17 137,-133.33 137,-133.33 137,-125.67 137,-125.67 137,-121.83 140.83,-118 144.67,-118 144.67,-118 201.33,-118 201.33,-118 205.17,-118 209,-121.83 209,-125.67 209,-125.67 209,-133.33 209,-133.33 209,-137.17 205.17,-141 201.33,-141"/>
<text text-anchor="middle" x="173" y="-125.8" font-family="Arial" font-size="14.00" fill="#000000">header.ts</text>
</g>
<!-- src/header.ts&#45;&gt;exit_src -->
<!-- src/body.ts -->
<g id="node4" class="node">
<title>src/body.ts</title>
<path fill="none" stroke="#000000" d="M329.83,-200C329.83,-200 286.17,-200 286.17,-200 282.33,-200 278.5,-196.17 278.5,-192.33 278.5,-192.33 278.5,-184.67 278.5,-184.67 278.5,-180.83 282.33,-177 286.17,-177 286.17,-177 329.83,-177 329.83,-177 333.67,-177 337.5,-180.83 337.5,-184.67 337.5,-184.67 337.5,-192.33 337.5,-192.33 337.5,-196.17 333.67,-200 329.83,-200"/>
<text text-anchor="middle" x="308" y="-184.8" font-family="Arial" font-size="14.00" fill="#000000">body.ts</text>
</g>
<!-- src/body.ts&#45;&gt;exit_src -->
<!-- src/cookies.ts -->
<g id="node5" class="node">
<title>src/cookies.ts</title>
<path fill="none" stroke="#000000" d="M113.83,-259C113.83,-259 52.17,-259 52.17,-259 48.33,-259 44.5,-255.17 44.5,-251.33 44.5,-251.33 44.5,-243.67 44.5,-243.67 44.5,-239.83 48.33,-236 52.17,-236 52.17,-236 113.83,-236 113.83,-236 117.67,-236 121.5,-239.83 121.5,-243.67 121.5,-243.67 121.5,-251.33 121.5,-251.33 121.5,-255.17 117.67,-259 113.83,-259"/>
<text text-anchor="middle" x="83" y="-243.8" font-family="Arial" font-size="14.00" fill="#000000">cookies.ts</text>
</g>
<!-- src/cookies.ts&#45;&gt;src/cookie.ts -->
<!-- src/cookies.ts&#45;&gt;src/cookie.ts -->
<g id="edge19" class="edge">
<title>src/cookies.ts&#45;&gt;src/cookie.ts</title>
<path fill="none" stroke="black" d="M84.84,-235.78C83.67,-228.37 80.67,-218.3 77.12,-209.45"/>
<polygon fill="black" stroke="black" points="80.25,-207.86 72.96,-200.17 73.86,-210.73 80.25,-207.86"/>
</g>
<!-- src/cookies.ts&#45;&gt;exit_src -->
<!-- src/headers.ts -->
<g id="node6" class="node">
<title>src/headers.ts</title>
<path fill="none" stroke="#000000" d="M232.33,-200C232.33,-200 167.67,-200 167.67,-200 163.83,-200 160,-196.17 160,-192.33 160,-192.33 160,-184.67 160,-184.67 160,-180.83 163.83,-177 167.67,-177 167.67,-177 232.33,-177 232.33,-177 236.17,-177 240,-180.83 240,-184.67 240,-184.67 240,-192.33 240,-192.33 240,-196.17 236.17,-200 232.33,-200"/>
<text text-anchor="middle" x="200" y="-184.8" font-family="Arial" font-size="14.00" fill="#000000">headers.ts</text>
</g>
<!-- src/headers.ts&#45;&gt;src/header.ts -->
<!-- src/headers.ts&#45;&gt;src/header.ts -->
<g id="edge21" class="edge">
<title>src/headers.ts&#45;&gt;src/header.ts</title>
<path fill="none" stroke="black" d="M200.33,-176.78C198.08,-169.22 193.52,-158.87 188.61,-149.88"/>
<polygon fill="black" stroke="black" points="191.56,-148 183.46,-141.17 185.54,-151.56 191.56,-148"/>
</g>
<!-- src/headers.ts&#45;&gt;exit_src -->
<!-- src/request.ts -->
<g id="node7" class="node">
<title>src/request.ts</title>
<path fill="none" stroke="#000000" d="M248.33,-259C248.33,-259 187.67,-259 187.67,-259 183.83,-259 180,-255.17 180,-251.33 180,-251.33 180,-243.67 180,-243.67 180,-239.83 183.83,-236 187.67,-236 187.67,-236 248.33,-236 248.33,-236 252.17,-236 256,-239.83 256,-243.67 256,-243.67 256,-251.33 256,-251.33 256,-255.17 252.17,-259 248.33,-259"/>
<text text-anchor="middle" x="218" y="-243.8" font-family="Arial" font-size="14.00" fill="#000000">request.ts</text>
</g>
<!-- src/request.ts&#45;&gt;src/body.ts -->
<!-- src/request.ts&#45;&gt;src/body.ts -->
<g id="edge37" class="edge">
<title>src/request.ts&#45;&gt;src/body.ts</title>
<path fill="none" stroke="black" d="M240.34,-235.78C255.01,-227.42 273.83,-215.66 288,-206.09"/>
<polygon fill="black" stroke="black" points="290.32,-208.74 296.55,-200.17 286.34,-202.99 290.32,-208.74"/>
</g>
<!-- src/request.ts&#45;&gt;src/headers.ts -->
<!-- src/request.ts&#45;&gt;src/headers.ts -->
<g id="edge39" class="edge">
<title>src/request.ts&#45;&gt;src/headers.ts</title>
<path fill="none" stroke="black" d="M220.03,-235.78C218.99,-228.37 216.16,-218.3 212.77,-209.45"/>
<polygon fill="black" stroke="black" points="215.95,-207.97 208.77,-200.17 209.52,-210.74 215.95,-207.97"/>
</g>
<!-- src/request.ts&#45;&gt;exit_src -->
<!-- src/response.ts -->
<g id="node8" class="node">
<title>src/response.ts</title>
<path fill="none" stroke="#000000" d="M352.33,-259C352.33,-259 281.67,-259 281.67,-259 277.83,-259 274,-255.17 274,-251.33 274,-251.33 274,-243.67 274,-243.67 274,-239.83 277.83,-236 281.67,-236 281.67,-236 352.33,-236 352.33,-236 356.17,-236 360,-239.83 360,-243.67 360,-243.67 360,-251.33 360,-251.33 360,-255.17 356.17,-259 352.33,-259"/>
<text text-anchor="middle" x="317" y="-243.8" font-family="Arial" font-size="14.00" fill="#000000">response.ts</text>
</g>
<!-- src/response.ts&#45;&gt;src/body.ts -->
<!-- src/response.ts&#45;&gt;src/body.ts -->
<g id="edge41" class="edge">
<title>src/response.ts&#45;&gt;src/body.ts</title>
<path fill="none" stroke="black" d="M320.72,-235.78C320.85,-228.53 319.66,-218.74 317.75,-210.02"/>
<polygon fill="black" stroke="black" points="321.08,-208.91 315.09,-200.17 314.32,-210.74 321.08,-208.91"/>
</g>
<!-- src/response.ts&#45;&gt;src/headers.ts -->
<!-- src/response.ts&#45;&gt;src/headers.ts -->
<g id="edge43" class="edge">
<title>src/response.ts&#45;&gt;src/headers.ts</title>
<path fill="none" stroke="black" d="M300.4,-235.78C283.74,-226.9 257.85,-214.19 236.47,-204.34"/>
<polygon fill="black" stroke="black" points="237.86,-201.13 227.31,-200.17 234.96,-207.5 237.86,-201.13"/>
</g>
<!-- src/response.ts&#45;&gt;exit_src -->
<!-- name_src -->
<g id="node9" class="node">
<title>name_src</title>
<path fill="none" stroke="#ff0000" stroke-width="5" d="M324.33,-318C324.33,-318 285.67,-318 285.67,-318 281.83,-318 278,-314.17 278,-310.33 278,-310.33 278,-302.67 278,-302.67 278,-298.83 281.83,-295 285.67,-295 285.67,-295 324.33,-295 324.33,-295 328.17,-295 332,-298.83 332,-302.67 332,-302.67 332,-310.33 332,-310.33 332,-314.17 328.17,-318 324.33,-318"/>
<text text-anchor="middle" x="305" y="-302.8" font-family="Arial" font-size="14.00" fill="#000000">src</text>
</g>
<!-- exit_src&#45;&gt;dependency&#45;graph&#45;[object Object] -->
<!-- exit_src&#45;&gt;exit_src -->
<!-- exit_src&#45;&gt;exit_src -->
<!-- exit_src&#45;&gt;exit_src -->
<!-- exit_src&#45;&gt;exit_src -->
<!-- exit_src&#45;&gt;exit_src -->
<!-- exit_src&#45;&gt;exit_src -->
<!-- exit_src&#45;&gt;exit_src -->
<!-- exit_src&#45;&gt;exit_src -->
<!-- src/common.ts -->
<g id="node11" class="node">
<title>src/common.ts</title>
<path fill="none" stroke="#ff0000" stroke-width="5" d="M184.83,-318C184.83,-318 137.17,-318 137.17,-318 133.33,-318 129.5,-314.17 129.5,-310.33 129.5,-310.33 129.5,-302.67 129.5,-302.67 129.5,-298.83 133.33,-295 137.17,-295 137.17,-295 184.83,-295 184.83,-295 188.67,-295 192.5,-298.83 192.5,-302.67 192.5,-302.67 192.5,-310.33 192.5,-310.33 192.5,-314.17 188.67,-318 184.83,-318"/>
<text text-anchor="middle" x="161" y="-302.8" font-family="Arial" font-size="14.00" fill="#000000">common.ts</text>
</g>
<!-- src/common.ts&#45;&gt;src/cookie.ts -->
<!-- src/common.ts&#45;&gt;src/cookie.ts -->
<g id="edge25" class="edge">
<title>src/common.ts&#45;&gt;src/cookie.ts</title>
<path fill="none" stroke="black" d="M129.31,-302.59C101.71,-298.13 63.46,-286.93 44,-259 33.11,-243.37 44.02,-223.01 53.77,-208.37"/>
<polygon fill="black" stroke="black" points="56.69,-210.31 59.5,-200.09 50.93,-206.33 56.69,-210.31"/>
</g>
<!-- src/common.ts&#45;&gt;src/header.ts -->
<!-- src/common.ts&#45;&gt;src/header.ts -->
<g id="edge29" class="edge">
<title>src/common.ts&#45;&gt;src/header.ts</title>
<path fill="none" stroke="black" d="M162.99,-294.68C161.36,-272.38 150.39,-219.79 160,-177 162.04,-167.91 166.07,-158.51 169.52,-150.56"/>
<polygon fill="black" stroke="black" points="172.85,-151.67 173.51,-141.09 166.4,-148.95 172.85,-151.67"/>
</g>
<!-- src/common.ts&#45;&gt;src/body.ts -->
<!-- src/common.ts&#45;&gt;src/body.ts -->
<g id="edge23" class="edge">
<title>src/common.ts&#45;&gt;src/body.ts</title>
<path fill="none" stroke="black" d="M192.83,-303.57C247.68,-299.27 355.56,-287.01 378,-259 393.38,-239.81 368.51,-218.7 344.13,-204.84"/>
<polygon fill="black" stroke="black" points="345.71,-201.71 335.24,-200.08 342.4,-207.88 345.71,-201.71"/>
</g>
<!-- src/common.ts&#45;&gt;src/cookies.ts -->
<!-- src/common.ts&#45;&gt;src/cookies.ts -->
<g id="edge27" class="edge">
<title>src/common.ts&#45;&gt;src/cookies.ts</title>
<path fill="none" stroke="black" d="M151.74,-294.78C141.67,-286.34 125.64,-274.44 111.5,-264.82"/>
<polygon fill="black" stroke="black" points="113.27,-261.8 103.01,-259.17 109.4,-267.62 113.27,-261.8"/>
</g>
<!-- src/common.ts&#45;&gt;src/headers.ts -->
<!-- src/common.ts&#45;&gt;src/headers.ts -->
<g id="edge31" class="edge">
<title>src/common.ts&#45;&gt;src/headers.ts</title>
<path fill="none" stroke="black" d="M167.35,-294.81C170.72,-280.87 172.72,-255.92 180,-236 183.44,-226.6 188.95,-217.07 193.62,-209.11"/>
<polygon fill="black" stroke="black" points="196.74,-210.69 198.71,-200.28 190.68,-207.19 196.74,-210.69"/>
</g>
<!-- src/common.ts&#45;&gt;src/request.ts -->
<!-- src/common.ts&#45;&gt;src/request.ts -->
<g id="edge33" class="edge">
<title>src/common.ts&#45;&gt;src/request.ts</title>
<path fill="none" stroke="black" d="M177.13,-294.78C186.4,-286.9 197.61,-275.99 206.09,-266.75"/>
<polygon fill="black" stroke="black" points="208.78,-269 212.73,-259.17 203.51,-264.39 208.78,-269"/>
</g>
<!-- src/common.ts&#45;&gt;src/response.ts -->
<!-- src/common.ts&#45;&gt;src/response.ts -->
<g id="edge35" class="edge">
<title>src/common.ts&#45;&gt;src/response.ts</title>
<path fill="none" stroke="black" d="M192.68,-295.83C219.22,-286.78 256.79,-273.14 283.74,-262.82"/>
<polygon fill="black" stroke="black" points="285.09,-266.06 293.15,-259.19 282.57,-259.53 285.09,-266.06"/>
</g>
<!-- src/common.ts&#45;&gt;exit_src -->
</g>
</svg>
