<?xml version="1.0" encoding="UTF-8" standalone="no"?>
<!DOCTYPE svg PUBLIC "-//W3C//DTD SVG 1.1//EN"
 "http://www.w3.org/Graphics/SVG/1.1/DTD/svg11.dtd">
<!-- Generated by graphviz version 2.43.0 (0)
 -->
<!-- Title: dependency&#45;graph&#45;[object Object] Pages: 1 -->
<svg width="264pt" height="326pt"
 viewBox="0.00 0.00 264.20 326.20" xmlns="http://www.w3.org/2000/svg" xmlns:xlink="http://www.w3.org/1999/xlink">
<g id="graph0" class="graph" transform="scale(1 1) rotate(0) translate(21.6 304.6)">
<title>dependency&#45;graph&#45;[object Object]</title>
<polygon fill="#ffffff" stroke="transparent" points="-21.6,21.6 -21.6,-304.6 242.6,-304.6 242.6,21.6 -21.6,21.6"/>
<g id="clust1" class="cluster">
<title>cluster_src</title>
<polygon fill="#ffffff" stroke="#000000" points="44.5,-43 44.5,-275 212.5,-275 212.5,-43 44.5,-43"/>
</g>
<g id="clust2" class="cluster">
<title>cluster_src</title>
<polygon fill="#ffffff" stroke="#000000" points="52.5,-51 52.5,-267 204.5,-267 204.5,-51 52.5,-51"/>
</g>
<!-- dependency&#45;graph&#45;[object Object] -->
<!-- src/builtin.ts -->
<g id="node2" class="node">
<title>src/builtin.ts</title>
<path fill="none" stroke="#000000" d="M118.83,-141C118.83,-141 68.17,-141 68.17,-141 64.33,-141 60.5,-137.17 60.5,-133.33 60.5,-133.33 60.5,-125.67 60.5,-125.67 60.5,-121.83 64.33,-118 68.17,-118 68.17,-118 118.83,-118 118.83,-118 122.67,-118 126.5,-121.83 126.5,-125.67 126.5,-125.67 126.5,-133.33 126.5,-133.33 126.5,-137.17 122.67,-141 118.83,-141"/>
<text text-anchor="middle" x="93.5" y="-125.8" font-family="Arial" font-size="14.00" fill="#000000">builtin.ts</text>
</g>
<!-- exit_src -->
<!-- src/builtin.ts&#45;&gt;exit_src -->
<!-- src/array.ts -->
<g id="node3" class="node">
<title>src/array.ts</title>
<path fill="none" stroke="#000000" d="M116.33,-200C116.33,-200 70.67,-200 70.67,-200 66.83,-200 63,-196.17 63,-192.33 63,-192.33 63,-184.67 63,-184.67 63,-180.83 66.83,-177 70.67,-177 70.67,-177 116.33,-177 116.33,-177 120.17,-177 124,-180.83 124,-184.67 124,-184.67 124,-192.33 124,-192.33 124,-196.17 120.17,-200 116.33,-200"/>
<text text-anchor="middle" x="93.5" y="-184.8" font-family="Arial" font-size="14.00" fill="#000000">array.ts</text>
</g>
<!-- src/array.ts&#45;&gt;src/builtin.ts -->
<!-- src/array.ts&#45;&gt;src/builtin.ts -->
<g id="edge9" class="edge">
<title>src/array.ts&#45;&gt;src/builtin.ts</title>
<path fill="none" stroke="black" d="M98.91,-176.78C100.17,-169.61 100.54,-159.95 100.03,-151.31"/>
<polygon fill="black" stroke="black" points="103.48,-150.73 98.9,-141.17 96.53,-151.5 103.48,-150.73"/>
</g>
<!-- src/array.ts&#45;&gt;exit_src -->
<!-- name_src -->
<g id="node4" class="node">
<title>name_src</title>
<path fill="none" stroke="#ff0000" stroke-width="5" d="M188.83,-259C188.83,-259 150.17,-259 150.17,-259 146.33,-259 142.5,-255.17 142.5,-251.33 142.5,-251.33 142.5,-243.67 142.5,-243.67 142.5,-239.83 146.33,-236 150.17,-236 150.17,-236 188.83,-236 188.83,-236 192.67,-236 196.5,-239.83 196.5,-243.67 196.5,-243.67 196.5,-251.33 196.5,-251.33 196.5,-255.17 192.67,-259 188.83,-259"/>
<text text-anchor="middle" x="169.5" y="-243.8" font-family="Arial" font-size="14.00" fill="#000000">src</text>
</g>
<!-- exit_src&#45;&gt;dependency&#45;graph&#45;[object Object] -->
<!-- exit_src&#45;&gt;exit_src -->
<!-- exit_src&#45;&gt;exit_src -->
<!-- exit_src&#45;&gt;exit_src -->
<!-- src/common.ts -->
<g id="node6" class="node">
<title>src/common.ts</title>
<path fill="none" stroke="#ff0000" stroke-width="5" d="M116.33,-259C116.33,-259 68.67,-259 68.67,-259 64.83,-259 61,-255.17 61,-251.33 61,-251.33 61,-243.67 61,-243.67 61,-239.83 64.83,-236 68.67,-236 68.67,-236 116.33,-236 116.33,-236 120.17,-236 124,-239.83 124,-243.67 124,-243.67 124,-251.33 124,-251.33 124,-255.17 120.17,-259 116.33,-259"/>
<text text-anchor="middle" x="92.5" y="-243.8" font-family="Arial" font-size="14.00" fill="#000000">common.ts</text>
</g>
<!-- src/common.ts&#45;&gt;src/array.ts -->
<!-- src/common.ts&#45;&gt;src/array.ts -->
<g id="edge11" class="edge">
<title>src/common.ts&#45;&gt;src/array.ts</title>
<path fill="none" stroke="black" d="M98.1,-235.78C99.48,-228.61 100.02,-218.95 99.66,-210.31"/>
<polygon fill="black" stroke="black" points="103.13,-209.8 98.72,-200.17 96.16,-210.46 103.13,-209.8"/>
</g>
<!-- src/common.ts&#45;&gt;exit_src -->
</g>
</svg>
