<?xml version="1.0" encoding="UTF-8" standalone="no"?>
<!DOCTYPE svg PUBLIC "-//W3C//DTD SVG 1.1//EN"
 "http://www.w3.org/Graphics/SVG/1.1/DTD/svg11.dtd">
<!-- Generated by graphviz version 2.43.0 (0)
 -->
<!-- Title: dependency&#45;graph&#45;[object Object] Pages: 1 -->
<svg width="709pt" height="680pt"
 viewBox="0.00 0.00 709.20 680.20" xmlns="http://www.w3.org/2000/svg" xmlns:xlink="http://www.w3.org/1999/xlink">
<g id="graph0" class="graph" transform="scale(1 1) rotate(0) translate(21.6 658.6)">
<title>dependency&#45;graph&#45;[object Object]</title>
<polygon fill="#ffffff" stroke="transparent" points="-21.6,21.6 -21.6,-658.6 687.6,-658.6 687.6,21.6 -21.6,21.6"/>
<g id="clust1" class="cluster">
<title>cluster_src</title>
<polygon fill="#ffffff" stroke="#000000" points="8,-43 8,-629 658,-629 658,-43 8,-43"/>
</g>
<g id="clust2" class="cluster">
<title>cluster_src</title>
<polygon fill="#ffffff" stroke="#000000" points="16,-51 16,-621 650,-621 650,-51 16,-51"/>
</g>
<!-- dependency&#45;graph&#45;[object Object] -->
<!-- src/cache.ts -->
<g id="node2" class="node">
<title>src/cache.ts</title>
<path fill="none" stroke="#000000" d="M252.83,-495C252.83,-495 201.17,-495 201.17,-495 197.33,-495 193.5,-491.17 193.5,-487.33 193.5,-487.33 193.5,-479.67 193.5,-479.67 193.5,-475.83 197.33,-472 201.17,-472 201.17,-472 252.83,-472 252.83,-472 256.67,-472 260.5,-475.83 260.5,-479.67 260.5,-479.67 260.5,-487.33 260.5,-487.33 260.5,-491.17 256.67,-495 252.83,-495"/>
<text text-anchor="middle" x="227" y="-479.8" font-family="Arial" font-size="14.00" fill="#000000">cache.ts</text>
</g>
<!-- src/outcome.ts -->
<g id="node4" class="node">
<title>src/outcome.ts</title>
<path fill="#ff6c60" stroke="#000000" d="M199.83,-436C199.83,-436 132.17,-436 132.17,-436 128.33,-436 124.5,-432.17 124.5,-428.33 124.5,-428.33 124.5,-420.67 124.5,-420.67 124.5,-416.83 128.33,-413 132.17,-413 132.17,-413 199.83,-413 199.83,-413 203.67,-413 207.5,-416.83 207.5,-420.67 207.5,-420.67 207.5,-428.33 207.5,-428.33 207.5,-432.17 203.67,-436 199.83,-436"/>
<text text-anchor="middle" x="166" y="-420.8" font-family="Arial" font-size="14.00" fill="#000000">outcome.ts</text>
</g>
<!-- src/cache.ts&#45;&gt;src/outcome.ts -->
<!-- src/cache.ts&#45;&gt;src/outcome.ts -->
<g id="edge35" class="edge">
<title>src/cache.ts&#45;&gt;src/outcome.ts</title>
<path fill="none" stroke="black" stroke-dasharray="1,5" d="M220.94,-471.78C213.6,-463.58 201.6,-452.11 190.59,-442.64"/>
<polygon fill="black" stroke="black" points="192.75,-439.88 182.83,-436.17 188.27,-445.26 192.75,-439.88"/>
</g>
<!-- src/question.ts -->
<g id="node5" class="node">
<title>src/question.ts</title>
<path fill="none" stroke="#000000" d="M238.33,-200C238.33,-200 171.67,-200 171.67,-200 167.83,-200 164,-196.17 164,-192.33 164,-192.33 164,-184.67 164,-184.67 164,-180.83 167.83,-177 171.67,-177 171.67,-177 238.33,-177 238.33,-177 242.17,-177 246,-180.83 246,-184.67 246,-184.67 246,-192.33 246,-192.33 246,-196.17 242.17,-200 238.33,-200"/>
<text text-anchor="middle" x="205" y="-184.8" font-family="Arial" font-size="14.00" fill="#000000">question.ts</text>
</g>
<!-- src/cache.ts&#45;&gt;src/question.ts -->
<!-- src/cache.ts&#45;&gt;src/question.ts -->
<g id="edge37" class="edge">
<title>src/cache.ts&#45;&gt;src/question.ts</title>
<path fill="none" stroke="black" stroke-dasharray="1,5" d="M231.83,-471.65C232.71,-457.96 229.34,-433.7 226,-413 219.17,-370.65 212.79,-360.72 209,-318 205.78,-281.7 207.05,-272.39 209,-236 209.45,-227.62 210.35,-218.43 210.67,-210.45"/>
<polygon fill="black" stroke="black" points="214.17,-210.17 210.64,-200.19 207.17,-210.2 214.17,-210.17"/>
</g>
<!-- src/rule.ts -->
<g id="node6" class="node">
<title>src/rule.ts</title>
<path fill="#ff6c60" stroke="#000000" d="M319.33,-377C319.33,-377 280.67,-377 280.67,-377 276.83,-377 273,-373.17 273,-369.33 273,-369.33 273,-361.67 273,-361.67 273,-357.83 276.83,-354 280.67,-354 280.67,-354 319.33,-354 319.33,-354 323.17,-354 327,-357.83 327,-361.67 327,-361.67 327,-369.33 327,-369.33 327,-373.17 323.17,-377 319.33,-377"/>
<text text-anchor="middle" x="300" y="-361.8" font-family="Arial" font-size="14.00" fill="#000000">rule.ts</text>
</g>
<!-- src/cache.ts&#45;&gt;src/rule.ts -->
<!-- src/cache.ts&#45;&gt;src/rule.ts -->
<g id="edge39" class="edge">
<title>src/cache.ts&#45;&gt;src/rule.ts</title>
<path fill="none" stroke="black" stroke-dasharray="1,5" d="M229.62,-471.79C238.88,-452.11 265.07,-409.95 282.99,-385.37"/>
<polygon fill="black" stroke="black" points="285.94,-387.27 289.17,-377.18 280.35,-383.05 285.94,-387.27"/>
</g>
<!-- exit_src -->
<!-- src/cache.ts&#45;&gt;exit_src -->
<!-- src/oracle.ts -->
<g id="node3" class="node">
<title>src/oracle.ts</title>
<path fill="none" stroke="#000000" d="M413.33,-259C413.33,-259 360.67,-259 360.67,-259 356.83,-259 353,-255.17 353,-251.33 353,-251.33 353,-243.67 353,-243.67 353,-239.83 356.83,-236 360.67,-236 360.67,-236 413.33,-236 413.33,-236 417.17,-236 421,-239.83 421,-243.67 421,-243.67 421,-251.33 421,-251.33 421,-255.17 417.17,-259 413.33,-259"/>
<text text-anchor="middle" x="387" y="-243.8" font-family="Arial" font-size="14.00" fill="#000000">oracle.ts</text>
</g>
<!-- src/oracle.ts&#45;&gt;src/question.ts -->
<!-- src/oracle.ts&#45;&gt;src/question.ts -->
<g id="edge69" class="edge">
<title>src/oracle.ts&#45;&gt;src/question.ts</title>
<path fill="none" stroke="black" stroke-dasharray="1,5" d="M358.58,-235.91C330.48,-226.59 287.16,-212.98 253.62,-202.9"/>
<polygon fill="black" stroke="black" points="254.59,-199.54 244,-200.03 252.58,-206.25 254.59,-199.54"/>
</g>
<!-- src/oracle.ts&#45;&gt;src/rule.ts -->
<!-- src/oracle.ts&#45;&gt;src/rule.ts -->
<g id="edge71" class="edge">
<title>src/oracle.ts&#45;&gt;src/rule.ts</title>
<path fill="none" stroke="black" stroke-dasharray="1,5" d="M398.49,-259.37C402.96,-273.94 398.77,-300.07 386,-318 374.27,-334.47 354.76,-346.93 336.61,-354.78"/>
<polygon fill="black" stroke="black" points="335.3,-351.54 327.29,-358.47 337.88,-358.05 335.3,-351.54"/>
</g>
<!-- src/oracle.ts&#45;&gt;exit_src -->
<!-- src/outcome.ts&#45;&gt;src/question.ts -->
<!-- src/outcome.ts&#45;&gt;src/question.ts -->
<g id="edge75" class="edge">
<title>src/outcome.ts&#45;&gt;src/question.ts</title>
<path fill="none" stroke="black" stroke-dasharray="1,5" d="M169.5,-412.65C172.6,-383.42 170.07,-300.87 189,-236 191.71,-226.72 196.43,-217.19 200.41,-209.2"/>
<polygon fill="black" stroke="black" points="203.65,-210.55 204.86,-200.03 197.35,-207.5 203.65,-210.55"/>
</g>
<!-- src/outcome.ts&#45;&gt;src/rule.ts -->
<!-- src/outcome.ts&#45;&gt;src/rule.ts -->
<g id="edge77" class="edge">
<title>src/outcome.ts&#45;&gt;src/rule.ts</title>
<path fill="none" stroke="black" d="M185.5,-412.91C205.89,-403.53 238.03,-389.8 263.16,-379.71"/>
<polygon fill="black" stroke="black" points="264.74,-382.84 272.75,-375.9 262.16,-376.34 264.74,-382.84"/>
</g>
<!-- src/diagnostic.ts -->
<g id="node8" class="node">
<title>src/diagnostic.ts</title>
<path fill="none" stroke="#000000" d="M243.33,-141C243.33,-141 166.67,-141 166.67,-141 162.83,-141 159,-137.17 159,-133.33 159,-133.33 159,-125.67 159,-125.67 159,-121.83 162.83,-118 166.67,-118 166.67,-118 243.33,-118 243.33,-118 247.17,-118 251,-121.83 251,-125.67 251,-125.67 251,-133.33 251,-133.33 251,-137.17 247.17,-141 243.33,-141"/>
<text text-anchor="middle" x="205" y="-125.8" font-family="Arial" font-size="14.00" fill="#000000">diagnostic.ts</text>
</g>
<!-- src/outcome.ts&#45;&gt;src/diagnostic.ts -->
<!-- src/outcome.ts&#45;&gt;src/diagnostic.ts -->
<g id="edge73" class="edge">
<title>src/outcome.ts&#45;&gt;src/diagnostic.ts</title>
<path fill="none" stroke="black" d="M166,-412.56C159.67,-376.83 127.39,-261.04 164,-177 169.07,-165.35 178.67,-155.3 187.44,-147.56"/>
<polygon fill="black" stroke="black" points="189.71,-150.23 195.12,-141.12 185.21,-144.87 189.71,-150.23"/>
</g>
<!-- src/outcome.ts&#45;&gt;exit_src -->
<!-- src/question.ts&#45;&gt;src/diagnostic.ts -->
<!-- src/question.ts&#45;&gt;src/diagnostic.ts -->
<g id="edge79" class="edge">
<title>src/question.ts&#45;&gt;src/diagnostic.ts</title>
<path fill="none" stroke="black" d="M210.41,-176.78C211.67,-169.61 212.04,-159.95 211.53,-151.31"/>
<polygon fill="black" stroke="black" points="214.98,-150.73 210.4,-141.17 208.03,-151.5 214.98,-150.73"/>
</g>
<!-- src/question.ts&#45;&gt;exit_src -->
<!-- src/rule.ts&#45;&gt;src/cache.ts -->
<!-- src/rule.ts&#45;&gt;src/cache.ts -->
<g id="edge81" class="edge">
<title>src/rule.ts&#45;&gt;src/cache.ts</title>
<path fill="none" stroke="black" d="M305.61,-377.18C302.6,-397.1 276.46,-440.12 253.42,-464.56"/>
<polygon fill="black" stroke="black" points="250.74,-462.28 246.08,-471.79 255.66,-467.27 250.74,-462.28"/>
</g>
<!-- src/rule.ts&#45;&gt;src/oracle.ts -->
<!-- src/rule.ts&#45;&gt;src/oracle.ts -->
<g id="edge87" class="edge">
<title>src/rule.ts&#45;&gt;src/oracle.ts</title>
<path fill="none" stroke="black" stroke-dasharray="1,5" d="M308.08,-353.87C320.23,-345.98 338.72,-333.84 350,-318 360.38,-303.43 365.09,-283.45 370.37,-268.65"/>
<polygon fill="black" stroke="black" points="373.62,-269.95 374.18,-259.37 367.14,-267.28 373.62,-269.95"/>
</g>
<!-- src/rule.ts&#45;&gt;src/outcome.ts -->
<!-- src/rule.ts&#45;&gt;src/outcome.ts -->
<g id="edge89" class="edge">
<title>src/rule.ts&#45;&gt;src/outcome.ts</title>
<path fill="none" stroke="black" d="M291.38,-377.03C274.79,-386.17 244.03,-399.48 216.59,-409.51"/>
<polygon fill="black" stroke="black" points="215.3,-406.26 207.05,-412.91 217.65,-412.85 215.3,-406.26"/>
</g>
<!-- src/rule.ts&#45;&gt;src/question.ts -->
<!-- src/rule.ts&#45;&gt;src/question.ts -->
<g id="edge91" class="edge">
<title>src/rule.ts&#45;&gt;src/question.ts</title>
<path fill="none" stroke="black" stroke-dasharray="1,5" d="M288.05,-353.96C276.23,-345.81 259.25,-333.34 249,-318 226.54,-284.37 218.44,-236.71 212.68,-209.89"/>
<polygon fill="black" stroke="black" points="216.08,-209.03 210.41,-200.08 209.26,-210.62 216.08,-209.03"/>
</g>
<!-- src/rule.ts&#45;&gt;src/diagnostic.ts -->
<!-- src/rule.ts&#45;&gt;src/diagnostic.ts -->
<g id="edge83" class="edge">
<title>src/rule.ts&#45;&gt;src/diagnostic.ts</title>
<path fill="none" stroke="black" d="M292.56,-353.76C283.78,-345.35 270.89,-332.64 265,-318 241.61,-259.86 289.23,-234.36 264,-177 258.73,-165.01 248.7,-154.71 238.27,-146.88"/>
<polygon fill="black" stroke="black" points="240.13,-143.91 229.91,-141.13 236.17,-149.68 240.13,-143.91"/>
</g>
<!-- src/interview.ts -->
<g id="node9" class="node">
<title>src/interview.ts</title>
<path fill="none" stroke="#000000" d="M339.83,-318C339.83,-318 272.17,-318 272.17,-318 268.33,-318 264.5,-314.17 264.5,-310.33 264.5,-310.33 264.5,-302.67 264.5,-302.67 264.5,-298.83 268.33,-295 272.17,-295 272.17,-295 339.83,-295 339.83,-295 343.67,-295 347.5,-298.83 347.5,-302.67 347.5,-302.67 347.5,-310.33 347.5,-310.33 347.5,-314.17 343.67,-318 339.83,-318"/>
<text text-anchor="middle" x="306" y="-302.8" font-family="Arial" font-size="14.00" fill="#000000">interview.ts</text>
</g>
<!-- src/rule.ts&#45;&gt;src/interview.ts -->
<!-- src/rule.ts&#45;&gt;src/interview.ts -->
<g id="edge85" class="edge">
<title>src/rule.ts&#45;&gt;src/interview.ts</title>
<path fill="none" stroke="black" d="M317.36,-353.78C321.94,-346.53 324.07,-336.74 323.37,-328.02"/>
<polygon fill="black" stroke="black" points="326.75,-327.13 321.09,-318.17 319.93,-328.71 326.75,-327.13"/>
</g>
<!-- src/requirement.ts -->
<g id="node10" class="node">
<title>src/requirement.ts</title>
<path fill="none" stroke="#000000" d="M542.33,-318C542.33,-318 453.67,-318 453.67,-318 449.83,-318 446,-314.17 446,-310.33 446,-310.33 446,-302.67 446,-302.67 446,-298.83 449.83,-295 453.67,-295 453.67,-295 542.33,-295 542.33,-295 546.17,-295 550,-298.83 550,-302.67 550,-302.67 550,-310.33 550,-310.33 550,-314.17 546.17,-318 542.33,-318"/>
<text text-anchor="middle" x="498" y="-302.8" font-family="Arial" font-size="14.00" fill="#000000">requirement.ts</text>
</g>
<!-- src/rule.ts&#45;&gt;src/requirement.ts -->
<!-- src/rule.ts&#45;&gt;src/requirement.ts -->
<g id="edge93" class="edge">
<title>src/rule.ts&#45;&gt;src/requirement.ts</title>
<path fill="none" stroke="black" d="M327.21,-357.96C360.81,-349 417.96,-332.67 456.88,-321.02"/>
<polygon fill="black" stroke="black" points="458.28,-324.25 466.85,-318.01 456.26,-317.55 458.28,-324.25"/>
</g>
<!-- src/tag.ts -->
<g id="node11" class="node">
<title>src/tag.ts</title>
<path fill="none" stroke="#000000" d="M614.33,-318C614.33,-318 575.67,-318 575.67,-318 571.83,-318 568,-314.17 568,-310.33 568,-310.33 568,-302.67 568,-302.67 568,-298.83 571.83,-295 575.67,-295 575.67,-295 614.33,-295 614.33,-295 618.17,-295 622,-298.83 622,-302.67 622,-302.67 622,-310.33 622,-310.33 622,-314.17 618.17,-318 614.33,-318"/>
<text text-anchor="middle" x="595" y="-302.8" font-family="Arial" font-size="14.00" fill="#000000">tag.ts</text>
</g>
<!-- src/rule.ts&#45;&gt;src/tag.ts -->
<!-- src/rule.ts&#45;&gt;src/tag.ts -->
<g id="edge95" class="edge">
<title>src/rule.ts&#45;&gt;src/tag.ts</title>
<path fill="none" stroke="black" d="M327.36,-361.31C374.48,-354.95 473.18,-339.63 557.77,-320.37"/>
<polygon fill="black" stroke="black" points="558.79,-323.72 567.75,-318.06 557.21,-316.9 558.79,-323.72"/>
</g>
<!-- src/rule.ts&#45;&gt;exit_src -->
<!-- src/audit.ts -->
<g id="node7" class="node">
<title>src/audit.ts</title>
<path fill="none" stroke="#000000" d="M298.33,-554C298.33,-554 253.67,-554 253.67,-554 249.83,-554 246,-550.17 246,-546.33 246,-546.33 246,-538.67 246,-538.67 246,-534.83 249.83,-531 253.67,-531 253.67,-531 298.33,-531 298.33,-531 302.17,-531 306,-534.83 306,-538.67 306,-538.67 306,-546.33 306,-546.33 306,-550.17 302.17,-554 298.33,-554"/>
<text text-anchor="middle" x="276" y="-538.8" font-family="Arial" font-size="14.00" fill="#000000">audit.ts</text>
</g>
<!-- src/audit.ts&#45;&gt;src/cache.ts -->
<!-- src/audit.ts&#45;&gt;src/cache.ts -->
<g id="edge25" class="edge">
<title>src/audit.ts&#45;&gt;src/cache.ts</title>
<path fill="none" stroke="black" d="M272.19,-530.78C266.75,-522.82 257.56,-511.77 248.77,-502.47"/>
<polygon fill="black" stroke="black" points="251.09,-499.84 241.58,-495.17 246.11,-504.75 251.09,-499.84"/>
</g>
<!-- src/audit.ts&#45;&gt;src/oracle.ts -->
<!-- src/audit.ts&#45;&gt;src/oracle.ts -->
<g id="edge27" class="edge">
<title>src/audit.ts&#45;&gt;src/oracle.ts</title>
<path fill="none" stroke="black" stroke-dasharray="1,5" d="M286.34,-530.79C309.51,-499.34 362.38,-404.12 387,-318 391.59,-301.94 393.85,-283.11 393.56,-269.11"/>
<polygon fill="black" stroke="black" points="397.05,-268.76 392.79,-259.06 390.07,-269.3 397.05,-268.76"/>
</g>
<!-- src/audit.ts&#45;&gt;src/outcome.ts -->
<!-- src/audit.ts&#45;&gt;src/outcome.ts -->
<g id="edge29" class="edge">
<title>src/audit.ts&#45;&gt;src/outcome.ts</title>
<path fill="none" stroke="black" stroke-dasharray="1,5" d="M247.84,-530.95C230.01,-523.7 207.99,-512.21 194,-495 182.7,-481.1 178.09,-461 174.66,-445.98"/>
<polygon fill="black" stroke="black" points="178.02,-445.02 172.28,-436.11 171.22,-446.65 178.02,-445.02"/>
</g>
<!-- src/audit.ts&#45;&gt;src/question.ts -->
<!-- src/audit.ts&#45;&gt;src/question.ts -->
<g id="edge31" class="edge">
<title>src/audit.ts&#45;&gt;src/question.ts</title>
<path fill="none" stroke="black" stroke-dasharray="1,5" d="M282.03,-530.57C284.31,-516.79 282.96,-492.45 279,-472 260.31,-375.44 233.15,-356.33 219,-259 216.64,-242.75 215.38,-224.2 213.37,-210.35"/>
<polygon fill="black" stroke="black" points="216.79,-209.6 211.57,-200.39 209.9,-210.85 216.79,-209.6"/>
</g>
<!-- src/audit.ts&#45;&gt;src/rule.ts -->
<!-- src/audit.ts&#45;&gt;src/rule.ts -->
<g id="edge33" class="edge">
<title>src/audit.ts&#45;&gt;src/rule.ts</title>
<path fill="none" stroke="black" stroke-dasharray="1,5" d="M285.42,-530.83C289.27,-521.43 292.09,-507.35 294,-495 299.84,-457.27 304.54,-413 304.4,-387.5"/>
<polygon fill="black" stroke="black" points="307.89,-387.05 303.99,-377.2 300.89,-387.33 307.89,-387.05"/>
</g>
<!-- src/audit.ts&#45;&gt;exit_src -->
<!-- src/diagnostic.ts&#45;&gt;exit_src -->
<!-- src/interview.ts&#45;&gt;src/oracle.ts -->
<!-- src/interview.ts&#45;&gt;src/oracle.ts -->
<g id="edge63" class="edge">
<title>src/interview.ts&#45;&gt;src/oracle.ts</title>
<path fill="none" stroke="black" stroke-dasharray="1,5" d="M326.65,-294.78C339.87,-286.5 356.64,-274.89 369.26,-265.36"/>
<polygon fill="black" stroke="black" points="371.48,-268.07 377.24,-259.17 367.19,-262.54 371.48,-268.07"/>
</g>
<!-- src/interview.ts&#45;&gt;src/question.ts -->
<!-- src/interview.ts&#45;&gt;src/question.ts -->
<g id="edge65" class="edge">
<title>src/interview.ts&#45;&gt;src/question.ts</title>
<path fill="none" stroke="black" d="M300.79,-294.79C286.6,-274.85 249.46,-231.84 225.63,-207.41"/>
<polygon fill="black" stroke="black" points="227.95,-204.78 218.41,-200.18 223,-209.73 227.95,-204.78"/>
</g>
<!-- src/interview.ts&#45;&gt;src/rule.ts -->
<!-- src/interview.ts&#45;&gt;src/rule.ts -->
<g id="edge67" class="edge">
<title>src/interview.ts&#45;&gt;src/rule.ts</title>
<path fill="none" stroke="black" stroke-dasharray="1,5" d="M310.28,-318.17C310.79,-325.41 310.13,-335.2 308.68,-343.92"/>
<polygon fill="black" stroke="black" points="305.24,-343.26 306.54,-353.78 312.08,-344.75 305.24,-343.26"/>
</g>
<!-- src/interview.ts&#45;&gt;src/diagnostic.ts -->
<!-- src/interview.ts&#45;&gt;src/diagnostic.ts -->
<g id="edge61" class="edge">
<title>src/interview.ts&#45;&gt;src/diagnostic.ts</title>
<path fill="none" stroke="black" stroke-dasharray="1,5" d="M308.29,-294.95C307.66,-267.84 292.7,-196.54 279,-177 270.07,-164.26 256.49,-153.76 243.3,-145.98"/>
<polygon fill="black" stroke="black" points="244.73,-142.78 234.28,-141.04 241.37,-148.92 244.73,-142.78"/>
</g>
<!-- src/interview.ts&#45;&gt;exit_src -->
<!-- src/requirement.ts&#45;&gt;exit_src -->
<!-- src/tag.ts&#45;&gt;exit_src -->
<!-- name_src -->
<g id="node12" class="node">
<title>name_src</title>
<path fill="none" stroke="#ff0000" stroke-width="5" d="M527.33,-613C527.33,-613 488.67,-613 488.67,-613 484.83,-613 481,-609.17 481,-605.33 481,-605.33 481,-597.67 481,-597.67 481,-593.83 484.83,-590 488.67,-590 488.67,-590 527.33,-590 527.33,-590 531.17,-590 535,-593.83 535,-597.67 535,-597.67 535,-605.33 535,-605.33 535,-609.17 531.17,-613 527.33,-613"/>
<text text-anchor="middle" x="508" y="-597.8" font-family="Arial" font-size="14.00" fill="#000000">src</text>
</g>
<!-- exit_src&#45;&gt;dependency&#45;graph&#45;[object Object] -->
<!-- exit_src&#45;&gt;exit_src -->
<!-- exit_src&#45;&gt;exit_src -->
<!-- exit_src&#45;&gt;exit_src -->
<!-- exit_src&#45;&gt;exit_src -->
<!-- exit_src&#45;&gt;exit_src -->
<!-- exit_src&#45;&gt;exit_src -->
<!-- exit_src&#45;&gt;exit_src -->
<!-- exit_src&#45;&gt;exit_src -->
<!-- exit_src&#45;&gt;exit_src -->
<!-- exit_src&#45;&gt;exit_src -->
<!-- exit_src&#45;&gt;exit_src -->
<!-- src/common.ts -->
<g id="node14" class="node">
<title>src/common.ts</title>
<path fill="none" stroke="#ff0000" stroke-width="5" d="M348.83,-613C348.83,-613 301.17,-613 301.17,-613 297.33,-613 293.5,-609.17 293.5,-605.33 293.5,-605.33 293.5,-597.67 293.5,-597.67 293.5,-593.83 297.33,-590 301.17,-590 301.17,-590 348.83,-590 348.83,-590 352.67,-590 356.5,-593.83 356.5,-597.67 356.5,-597.67 356.5,-605.33 356.5,-605.33 356.5,-609.17 352.67,-613 348.83,-613"/>
<text text-anchor="middle" x="325" y="-597.8" font-family="Arial" font-size="14.00" fill="#000000">common.ts</text>
</g>
<!-- src/common.ts&#45;&gt;src/cache.ts -->
<!-- src/common.ts&#45;&gt;src/cache.ts -->
<g id="edge43" class="edge">
<title>src/common.ts&#45;&gt;src/cache.ts</title>
<path fill="none" stroke="black" d="M296.34,-589.96C279.03,-582.79 258.24,-571.37 246,-554 236.15,-540.02 234.09,-520.5 232.77,-505.7"/>
<polygon fill="black" stroke="black" points="236.22,-505.1 231.77,-495.48 229.26,-505.77 236.22,-505.1"/>
</g>
<!-- src/common.ts&#45;&gt;src/oracle.ts -->
<!-- src/common.ts&#45;&gt;src/oracle.ts -->
<g id="edge49" class="edge">
<title>src/common.ts&#45;&gt;src/oracle.ts</title>
<path fill="none" stroke="black" d="M350.06,-589.99C383.02,-572.39 436,-533.98 436,-484.5 436,-484.5 436,-484.5 436,-364.5 436,-328.74 418.8,-290 404.42,-267.56"/>
<polygon fill="black" stroke="black" points="407.25,-265.51 398.69,-259.27 401.49,-269.48 407.25,-265.51"/>
</g>
<!-- src/common.ts&#45;&gt;src/outcome.ts -->
<!-- src/common.ts&#45;&gt;src/outcome.ts -->
<g id="edge51" class="edge">
<title>src/common.ts&#45;&gt;src/outcome.ts</title>
<path fill="none" stroke="black" d="M296.92,-589.92C260.34,-575.68 199.12,-546.06 178,-495 171.66,-479.68 171.26,-460.8 170.86,-446.59"/>
<polygon fill="black" stroke="black" points="174.35,-446.19 170.43,-436.35 167.35,-446.49 174.35,-446.19"/>
</g>
<!-- src/common.ts&#45;&gt;src/question.ts -->
<!-- src/common.ts&#45;&gt;src/question.ts -->
<g id="edge53" class="edge">
<title>src/common.ts&#45;&gt;src/question.ts</title>
<path fill="none" stroke="black" d="M293.2,-599.07C229.7,-594.29 94,-573.59 94,-484.5 94,-484.5 94,-484.5 94,-423.5 94,-334.74 163.21,-245.84 192.56,-208.2"/>
<polygon fill="black" stroke="black" points="195.44,-210.21 198.8,-200.16 189.91,-205.92 195.44,-210.21"/>
</g>
<!-- src/common.ts&#45;&gt;src/rule.ts -->
<!-- src/common.ts&#45;&gt;src/rule.ts -->
<g id="edge57" class="edge">
<title>src/common.ts&#45;&gt;src/rule.ts</title>
<path fill="none" stroke="black" d="M326.89,-589.84C327.63,-553.67 315.31,-435.26 306.24,-387.12"/>
<polygon fill="black" stroke="black" points="309.64,-386.31 304.19,-377.23 302.79,-387.73 309.64,-386.31"/>
</g>
<!-- src/common.ts&#45;&gt;src/audit.ts -->
<!-- src/common.ts&#45;&gt;src/audit.ts -->
<g id="edge41" class="edge">
<title>src/common.ts&#45;&gt;src/audit.ts</title>
<path fill="none" stroke="black" d="M321.19,-589.78C315.75,-581.82 306.56,-570.77 297.77,-561.47"/>
<polygon fill="black" stroke="black" points="300.09,-558.84 290.58,-554.17 295.11,-563.75 300.09,-558.84"/>
</g>
<!-- src/common.ts&#45;&gt;src/diagnostic.ts -->
<!-- src/common.ts&#45;&gt;src/diagnostic.ts -->
<g id="edge45" class="edge">
<title>src/common.ts&#45;&gt;src/diagnostic.ts</title>
<path fill="none" stroke="black" d="M293.17,-596.96C239.6,-590.93 135.05,-577.02 106,-554 79.35,-532.88 74,-518.51 74,-484.5 74,-484.5 74,-484.5 74,-246.5 74,-195.29 130.24,-162.39 169.13,-145.17"/>
<polygon fill="black" stroke="black" points="170.78,-148.27 178.6,-141.13 168.03,-141.84 170.78,-148.27"/>
</g>
<!-- src/common.ts&#45;&gt;src/interview.ts -->
<!-- src/common.ts&#45;&gt;src/interview.ts -->
<g id="edge47" class="edge">
<title>src/common.ts&#45;&gt;src/interview.ts</title>
<path fill="none" stroke="black" d="M336.69,-589.73C351.73,-569.73 374,-525.19 374,-484.5 374,-484.5 374,-484.5 374,-423.5 374,-385.27 348.22,-346.89 328.14,-325.27"/>
<polygon fill="black" stroke="black" points="330.58,-322.76 321.06,-318.09 325.59,-327.67 330.58,-322.76"/>
</g>
<!-- src/common.ts&#45;&gt;src/requirement.ts -->
<!-- src/common.ts&#45;&gt;src/requirement.ts -->
<g id="edge55" class="edge">
<title>src/common.ts&#45;&gt;src/requirement.ts</title>
<path fill="none" stroke="black" d="M356.86,-594.47C382.33,-587.78 417.17,-575.06 441,-554 467.87,-530.25 482,-520.36 482,-484.5 482,-484.5 482,-484.5 482,-423.5 482,-389.51 492.39,-351.14 497.36,-328.17"/>
<polygon fill="black" stroke="black" points="500.82,-328.69 499.3,-318.21 493.95,-327.36 500.82,-328.69"/>
</g>
<!-- src/common.ts&#45;&gt;src/tag.ts -->
<!-- src/common.ts&#45;&gt;src/tag.ts -->
<g id="edge59" class="edge">
<title>src/common.ts&#45;&gt;src/tag.ts</title>
<path fill="none" stroke="black" d="M356.68,-599.3C422.27,-595 566,-575.24 566,-484.5 566,-484.5 566,-484.5 566,-423.5 566,-388.56 581.76,-350.5 590.58,-327.84"/>
<polygon fill="black" stroke="black" points="593.92,-328.9 594.16,-318.31 587.37,-326.44 593.92,-328.9"/>
</g>
<!-- src/common.ts&#45;&gt;exit_src -->
</g>
</svg>
