<?xml version="1.0" encoding="UTF-8" standalone="no"?>
<!DOCTYPE svg PUBLIC "-//W3C//DTD SVG 1.1//EN"
 "http://www.w3.org/Graphics/SVG/1.1/DTD/svg11.dtd">
<!-- Generated by graphviz version 2.43.0 (0)
 -->
<!-- Title: dependency&#45;graph&#45;@siteimprove/alfa&#45;act Pages: 1 -->
<svg width="709pt" height="645pt"
 viewBox="0.00 0.00 709.20 645.20" xmlns="http://www.w3.org/2000/svg" xmlns:xlink="http://www.w3.org/1999/xlink">
<g id="graph0" class="graph" transform="scale(1 1) rotate(0) translate(21.6 623.6)">
<title>dependency&#45;graph&#45;@siteimprove/alfa&#45;act</title>
<polygon fill="#ffffff" stroke="transparent" points="-21.6,21.6 -21.6,-623.6 687.6,-623.6 687.6,21.6 -21.6,21.6"/>
<g id="clust1" class="cluster">
<title>cluster_src</title>
<polygon fill="#ffffff" stroke="#000000" points="8,-8 8,-594 658,-594 658,-8 8,-8"/>
</g>
<g id="clust2" class="cluster">
<title>cluster_src</title>
<polygon fill="#ffffff" stroke="#000000" points="16,-16 16,-586 650,-586 650,-16 16,-16"/>
</g>
<!-- src/diagnostic.ts -->
<g id="node1" class="node">
<title>src/diagnostic.ts</title>
<path fill="none" stroke="#000000" d="M148.33,-106C148.33,-106 71.67,-106 71.67,-106 67.83,-106 64,-102.17 64,-98.33 64,-98.33 64,-90.67 64,-90.67 64,-86.83 67.83,-83 71.67,-83 71.67,-83 148.33,-83 148.33,-83 152.17,-83 156,-86.83 156,-90.67 156,-90.67 156,-98.33 156,-98.33 156,-102.17 152.17,-106 148.33,-106"/>
<text text-anchor="middle" x="110" y="-90.8" font-family="Arial" font-size="14.00" fill="#000000">diagnostic.ts</text>
</g>
<!-- exit_src -->
<!-- src/diagnostic.ts&#45;&gt;exit_src -->
<!-- src/cache.ts -->
<g id="node2" class="node">
<title>src/cache.ts</title>
<path fill="none" stroke="#000000" d="M239.83,-460C239.83,-460 188.17,-460 188.17,-460 184.33,-460 180.5,-456.17 180.5,-452.33 180.5,-452.33 180.5,-444.67 180.5,-444.67 180.5,-440.83 184.33,-437 188.17,-437 188.17,-437 239.83,-437 239.83,-437 243.67,-437 247.5,-440.83 247.5,-444.67 247.5,-444.67 247.5,-452.33 247.5,-452.33 247.5,-456.17 243.67,-460 239.83,-460"/>
<text text-anchor="middle" x="214" y="-444.8" font-family="Arial" font-size="14.00" fill="#000000">cache.ts</text>
</g>
<!-- src/outcome.ts -->
<g id="node5" class="node">
<title>src/outcome.ts</title>
<path fill="none" stroke="#000000" d="M199.83,-401C199.83,-401 132.17,-401 132.17,-401 128.33,-401 124.5,-397.17 124.5,-393.33 124.5,-393.33 124.5,-385.67 124.5,-385.67 124.5,-381.83 128.33,-378 132.17,-378 132.17,-378 199.83,-378 199.83,-378 203.67,-378 207.5,-381.83 207.5,-385.67 207.5,-385.67 207.5,-393.33 207.5,-393.33 207.5,-397.17 203.67,-401 199.83,-401"/>
<text text-anchor="middle" x="166" y="-385.8" font-family="Arial" font-size="14.00" fill="#000000">outcome.ts</text>
</g>
<!-- src/cache.ts&#45;&gt;src/outcome.ts -->
<!-- src/cache.ts&#45;&gt;src/outcome.ts -->
<g id="edge80" class="edge">
<title>src/cache.ts&#45;&gt;src/outcome.ts</title>
<path fill="none" stroke="black" stroke-dasharray="1,5" d="M210.38,-436.78C205.08,-428.82 196.08,-417.77 187.46,-408.47"/>
<polygon fill="black" stroke="black" points="189.86,-405.92 180.39,-401.17 184.83,-410.79 189.86,-405.92"/>
</g>
<!-- src/question.ts -->
<g id="node6" class="node">
<title>src/question.ts</title>
<path fill="none" stroke="#000000" d="M218.33,-165C218.33,-165 151.67,-165 151.67,-165 147.83,-165 144,-161.17 144,-157.33 144,-157.33 144,-149.67 144,-149.67 144,-145.83 147.83,-142 151.67,-142 151.67,-142 218.33,-142 218.33,-142 222.17,-142 226,-145.83 226,-149.67 226,-149.67 226,-157.33 226,-157.33 226,-161.17 222.17,-165 218.33,-165"/>
<text text-anchor="middle" x="185" y="-149.8" font-family="Arial" font-size="14.00" fill="#000000">question.ts</text>
</g>
<!-- src/cache.ts&#45;&gt;src/question.ts -->
<!-- src/cache.ts&#45;&gt;src/question.ts -->
<g id="edge82" class="edge">
<title>src/cache.ts&#45;&gt;src/question.ts</title>
<path fill="none" stroke="black" stroke-dasharray="1,5" d="M222.63,-436.91C228.21,-423.08 231.61,-398.25 226,-378 212.86,-330.55 182.14,-330.45 169,-283 166.27,-273.15 167.81,-270.15 169,-260 172.5,-230.05 181.41,-196.27 185.38,-175.18"/>
<polygon fill="black" stroke="black" points="188.87,-175.56 186.99,-165.14 181.95,-174.46 188.87,-175.56"/>
</g>
<!-- src/rule.ts -->
<g id="node9" class="node">
<title>src/rule.ts</title>
<path fill="none" stroke="#000000" d="M285.33,-342C285.33,-342 246.67,-342 246.67,-342 242.83,-342 239,-338.17 239,-334.33 239,-334.33 239,-326.67 239,-326.67 239,-322.83 242.83,-319 246.67,-319 246.67,-319 285.33,-319 285.33,-319 289.17,-319 293,-322.83 293,-326.67 293,-326.67 293,-334.33 293,-334.33 293,-338.17 289.17,-342 285.33,-342"/>
<text text-anchor="middle" x="266" y="-326.8" font-family="Arial" font-size="14.00" fill="#000000">rule.ts</text>
</g>
<!-- src/cache.ts&#45;&gt;src/rule.ts -->
<!-- src/cache.ts&#45;&gt;src/rule.ts -->
<g id="edge84" class="edge">
<title>src/cache.ts&#45;&gt;src/rule.ts</title>
<path fill="none" stroke="black" stroke-dasharray="1,5" d="M231.14,-436.79C248.88,-417.63 268.24,-377.15 272.63,-352.34"/>
<polygon fill="black" stroke="black" points="276.14,-352.45 273.54,-342.18 269.16,-351.83 276.14,-352.45"/>
</g>
<!-- src/cache.ts&#45;&gt;exit_src -->
<!-- src/interview.ts -->
<g id="node3" class="node">
<title>src/interview.ts</title>
<path fill="none" stroke="#000000" d="M299.83,-283C299.83,-283 232.17,-283 232.17,-283 228.33,-283 224.5,-279.17 224.5,-275.33 224.5,-275.33 224.5,-267.67 224.5,-267.67 224.5,-263.83 228.33,-260 232.17,-260 232.17,-260 299.83,-260 299.83,-260 303.67,-260 307.5,-263.83 307.5,-267.67 307.5,-267.67 307.5,-275.33 307.5,-275.33 307.5,-279.17 303.67,-283 299.83,-283"/>
<text text-anchor="middle" x="266" y="-267.8" font-family="Arial" font-size="14.00" fill="#000000">interview.ts</text>
</g>
<!-- src/interview.ts&#45;&gt;src/diagnostic.ts -->
<!-- src/interview.ts&#45;&gt;src/diagnostic.ts -->
<g id="edge46" class="edge">
<title>src/interview.ts&#45;&gt;src/diagnostic.ts</title>
<path fill="none" stroke="black" stroke-dasharray="1,5" d="M271.28,-259.67C276.25,-235.45 274.46,-176.33 244,-142 224.43,-119.94 193.39,-108.32 166.04,-102.21"/>
<polygon fill="black" stroke="black" points="166.65,-98.77 156.15,-100.2 165.25,-105.63 166.65,-98.77"/>
</g>
<!-- src/oracle.ts -->
<g id="node4" class="node">
<title>src/oracle.ts</title>
<path fill="none" stroke="#000000" d="M373.33,-224C373.33,-224 320.67,-224 320.67,-224 316.83,-224 313,-220.17 313,-216.33 313,-216.33 313,-208.67 313,-208.67 313,-204.83 316.83,-201 320.67,-201 320.67,-201 373.33,-201 373.33,-201 377.17,-201 381,-204.83 381,-208.67 381,-208.67 381,-216.33 381,-216.33 381,-220.17 377.17,-224 373.33,-224"/>
<text text-anchor="middle" x="347" y="-208.8" font-family="Arial" font-size="14.00" fill="#000000">oracle.ts</text>
</g>
<!-- src/interview.ts&#45;&gt;src/oracle.ts -->
<!-- src/interview.ts&#45;&gt;src/oracle.ts -->
<g id="edge48" class="edge">
<title>src/interview.ts&#45;&gt;src/oracle.ts</title>
<path fill="none" stroke="black" stroke-dasharray="1,5" d="M286.65,-259.78C299.87,-251.5 316.64,-239.89 329.26,-230.36"/>
<polygon fill="black" stroke="black" points="331.48,-233.07 337.24,-224.17 327.19,-227.54 331.48,-233.07"/>
</g>
<!-- src/interview.ts&#45;&gt;src/question.ts -->
<!-- src/interview.ts&#45;&gt;src/question.ts -->
<g id="edge50" class="edge">
<title>src/interview.ts&#45;&gt;src/question.ts</title>
<path fill="none" stroke="black" d="M262.64,-259.79C251.98,-240.03 222.67,-197.58 203.05,-173.04"/>
<polygon fill="black" stroke="black" points="205.63,-170.67 196.57,-165.18 200.23,-175.12 205.63,-170.67"/>
</g>
<!-- src/interview.ts&#45;&gt;src/rule.ts -->
<!-- src/interview.ts&#45;&gt;src/rule.ts -->
<g id="edge52" class="edge">
<title>src/interview.ts&#45;&gt;src/rule.ts</title>
<path fill="none" stroke="black" stroke-dasharray="1,5" d="M276.81,-283.17C279.36,-290.41 280.1,-300.2 279.03,-308.92"/>
<polygon fill="black" stroke="black" points="275.59,-308.26 276.82,-318.78 282.42,-309.78 275.59,-308.26"/>
</g>
<!-- src/interview.ts&#45;&gt;exit_src -->
<!-- src/oracle.ts&#45;&gt;src/question.ts -->
<!-- src/oracle.ts&#45;&gt;src/question.ts -->
<g id="edge42" class="edge">
<title>src/oracle.ts&#45;&gt;src/question.ts</title>
<path fill="none" stroke="black" stroke-dasharray="1,5" d="M322.3,-200.91C297.79,-191.71 259.91,-178.33 230.08,-168.29"/>
<polygon fill="black" stroke="black" points="230.9,-164.88 220.31,-165.03 228.68,-171.52 230.9,-164.88"/>
</g>
<!-- src/oracle.ts&#45;&gt;src/rule.ts -->
<!-- src/oracle.ts&#45;&gt;src/rule.ts -->
<g id="edge44" class="edge">
<title>src/oracle.ts&#45;&gt;src/rule.ts</title>
<path fill="none" stroke="black" stroke-dasharray="1,5" d="M358.37,-224.29C362.72,-238.77 358.38,-264.79 346,-283 335.69,-298.16 318.79,-310.36 302.52,-318.45"/>
<polygon fill="black" stroke="black" points="300.74,-315.41 293.07,-322.73 303.63,-321.79 300.74,-315.41"/>
</g>
<!-- src/oracle.ts&#45;&gt;exit_src -->
<!-- src/outcome.ts&#45;&gt;src/diagnostic.ts -->
<!-- src/outcome.ts&#45;&gt;src/diagnostic.ts -->
<g id="edge74" class="edge">
<title>src/outcome.ts&#45;&gt;src/diagnostic.ts</title>
<path fill="none" stroke="black" d="M157.01,-377.77C137.22,-359.16 94,-318.43 94,-272.5 94,-272.5 94,-272.5 94,-211.5 94,-177.51 104.39,-139.14 109.36,-116.17"/>
<polygon fill="black" stroke="black" points="112.82,-116.69 111.3,-106.21 105.95,-115.36 112.82,-116.69"/>
</g>
<!-- src/outcome.ts&#45;&gt;src/question.ts -->
<!-- src/outcome.ts&#45;&gt;src/question.ts -->
<g id="edge76" class="edge">
<title>src/outcome.ts&#45;&gt;src/question.ts</title>
<path fill="none" stroke="black" stroke-dasharray="1,5" d="M166.15,-377.89C160.84,-355.96 141.74,-304.02 149,-260 154.21,-228.4 170.63,-194.87 179.89,-174.3"/>
<polygon fill="black" stroke="black" points="183.13,-175.63 183.89,-165.06 176.71,-172.85 183.13,-175.63"/>
</g>
<!-- src/outcome.ts&#45;&gt;src/rule.ts -->
<!-- src/outcome.ts&#45;&gt;src/rule.ts -->
<g id="edge78" class="edge">
<title>src/outcome.ts&#45;&gt;src/rule.ts</title>
<path fill="none" stroke="black" stroke-dasharray="1,5" d="M200.74,-377.91C219.83,-369.57 241.33,-357.77 255.37,-348.17"/>
<polygon fill="black" stroke="black" points="257.45,-350.98 263.42,-342.22 253.3,-345.35 257.45,-350.98"/>
</g>
<!-- src/outcome.ts&#45;&gt;exit_src -->
<!-- src/question.ts&#45;&gt;src/diagnostic.ts -->
<!-- src/question.ts&#45;&gt;src/diagnostic.ts -->
<g id="edge24" class="edge">
<title>src/question.ts&#45;&gt;src/diagnostic.ts</title>
<path fill="none" stroke="black" d="M176.3,-141.78C166.77,-133.42 151.56,-121.66 138.03,-112.09"/>
<polygon fill="black" stroke="black" points="139.67,-108.97 129.45,-106.17 135.69,-114.73 139.67,-108.97"/>
</g>
<!-- src/question.ts&#45;&gt;exit_src -->
<!-- src/requirement.ts -->
<g id="node7" class="node">
<title>src/requirement.ts</title>
<path fill="none" stroke="#000000" d="M522.33,-283C522.33,-283 433.67,-283 433.67,-283 429.83,-283 426,-279.17 426,-275.33 426,-275.33 426,-267.67 426,-267.67 426,-263.83 429.83,-260 433.67,-260 433.67,-260 522.33,-260 522.33,-260 526.17,-260 530,-263.83 530,-267.67 530,-267.67 530,-275.33 530,-275.33 530,-279.17 526.17,-283 522.33,-283"/>
<text text-anchor="middle" x="478" y="-267.8" font-family="Arial" font-size="14.00" fill="#000000">requirement.ts</text>
</g>
<!-- src/requirement.ts&#45;&gt;exit_src -->
<!-- src/tag.ts -->
<g id="node8" class="node">
<title>src/tag.ts</title>
<path fill="none" stroke="#000000" d="M614.33,-283C614.33,-283 575.67,-283 575.67,-283 571.83,-283 568,-279.17 568,-275.33 568,-275.33 568,-267.67 568,-267.67 568,-263.83 571.83,-260 575.67,-260 575.67,-260 614.33,-260 614.33,-260 618.17,-260 622,-263.83 622,-267.67 622,-267.67 622,-275.33 622,-275.33 622,-279.17 618.17,-283 614.33,-283"/>
<text text-anchor="middle" x="595" y="-267.8" font-family="Arial" font-size="14.00" fill="#000000">tag.ts</text>
</g>
<!-- src/tag.ts&#45;&gt;exit_src -->
<!-- src/rule.ts&#45;&gt;src/diagnostic.ts -->
<!-- src/rule.ts&#45;&gt;src/diagnostic.ts -->
<g id="edge28" class="edge">
<title>src/rule.ts&#45;&gt;src/diagnostic.ts</title>
<path fill="none" stroke="black" stroke-dasharray="1,5" d="M255.26,-318.97C243.34,-310.49 225.04,-297.6 212,-283 165.77,-231.22 136.75,-152.31 121.25,-115.59"/>
<polygon fill="black" stroke="black" points="124.45,-114.17 117.24,-106.41 118.04,-116.98 124.45,-114.17"/>
</g>
<!-- src/rule.ts&#45;&gt;src/cache.ts -->
<!-- src/rule.ts&#45;&gt;src/cache.ts -->
<g id="edge26" class="edge">
<title>src/rule.ts&#45;&gt;src/cache.ts</title>
<path fill="none" stroke="black" d="M265.32,-342.18C259.69,-361.67 241.41,-403.26 227.97,-427.95"/>
<polygon fill="black" stroke="black" points="224.84,-426.38 222.91,-436.79 230.91,-429.85 224.84,-426.38"/>
</g>
<!-- src/rule.ts&#45;&gt;src/interview.ts -->
<!-- src/rule.ts&#45;&gt;src/interview.ts -->
<g id="edge30" class="edge">
<title>src/rule.ts&#45;&gt;src/interview.ts</title>
<path fill="none" stroke="black" d="M255.18,-318.78C252.64,-311.53 251.9,-301.74 252.98,-293.02"/>
<polygon fill="black" stroke="black" points="256.42,-293.7 255.19,-283.17 249.59,-292.16 256.42,-293.7"/>
</g>
<!-- src/rule.ts&#45;&gt;src/oracle.ts -->
<!-- src/rule.ts&#45;&gt;src/oracle.ts -->
<g id="edge32" class="edge">
<title>src/rule.ts&#45;&gt;src/oracle.ts</title>
<path fill="none" stroke="black" stroke-dasharray="1,5" d="M271.54,-318.76C282.36,-310.67 299.56,-298.36 310,-283 320.06,-268.21 324.81,-248.26 330.18,-233.52"/>
<polygon fill="black" stroke="black" points="333.41,-234.86 334.07,-224.29 326.96,-232.14 333.41,-234.86"/>
</g>
<!-- src/rule.ts&#45;&gt;src/outcome.ts -->
<!-- src/rule.ts&#45;&gt;src/outcome.ts -->
<g id="edge34" class="edge">
<title>src/rule.ts&#45;&gt;src/outcome.ts</title>
<path fill="none" stroke="black" d="M252.9,-342.03C239.13,-350.77 217.34,-363.32 198.94,-373.18"/>
<polygon fill="black" stroke="black" points="197.18,-370.15 189.96,-377.91 200.44,-376.35 197.18,-370.15"/>
</g>
<!-- src/rule.ts&#45;&gt;src/question.ts -->
<!-- src/rule.ts&#45;&gt;src/question.ts -->
<g id="edge36" class="edge">
<title>src/rule.ts&#45;&gt;src/question.ts</title>
<path fill="none" stroke="black" stroke-dasharray="1,5" d="M257.6,-318.69C247.95,-310.25 233.5,-297.53 225,-283 214.38,-264.84 203.07,-206.76 194.2,-175.27"/>
<polygon fill="black" stroke="black" points="197.43,-173.89 191.17,-165.35 190.74,-175.94 197.43,-173.89"/>
</g>
<!-- src/rule.ts&#45;&gt;src/requirement.ts -->
<!-- src/rule.ts&#45;&gt;src/requirement.ts -->
<g id="edge38" class="edge">
<title>src/rule.ts&#45;&gt;src/requirement.ts</title>
<path fill="none" stroke="black" d="M293.06,-323.4C328.77,-314.49 391.7,-297.7 434.19,-285.84"/>
<polygon fill="black" stroke="black" points="435.3,-289.17 443.99,-283.09 433.41,-282.43 435.3,-289.17"/>
</g>
<!-- src/rule.ts&#45;&gt;src/tag.ts -->
<!-- src/rule.ts&#45;&gt;src/tag.ts -->
<g id="edge40" class="edge">
<title>src/rule.ts&#45;&gt;src/tag.ts</title>
<path fill="none" stroke="black" d="M293.25,-325.83C343.93,-318.13 455,-299.64 548,-283 551.21,-282.43 554.53,-281.82 557.85,-281.21"/>
<polygon fill="black" stroke="black" points="558.53,-284.65 567.71,-279.37 557.24,-277.77 558.53,-284.65"/>
</g>
<!-- src/rule.ts&#45;&gt;exit_src -->
<!-- src/audit.ts -->
<g id="node10" class="node">
<title>src/audit.ts</title>
<path fill="none" stroke="#000000" d="M300.33,-519C300.33,-519 255.67,-519 255.67,-519 251.83,-519 248,-515.17 248,-511.33 248,-511.33 248,-503.67 248,-503.67 248,-499.83 251.83,-496 255.67,-496 255.67,-496 300.33,-496 300.33,-496 304.17,-496 308,-499.83 308,-503.67 308,-503.67 308,-511.33 308,-511.33 308,-515.17 304.17,-519 300.33,-519"/>
<text text-anchor="middle" x="278" y="-503.8" font-family="Arial" font-size="14.00" fill="#000000">audit.ts</text>
</g>
<!-- src/audit.ts&#45;&gt;src/cache.ts -->
<!-- src/audit.ts&#45;&gt;src/cache.ts -->
<g id="edge86" class="edge">
<title>src/audit.ts&#45;&gt;src/cache.ts</title>
<path fill="none" stroke="black" d="M271.37,-495.78C263.6,-487.58 251.01,-476.11 239.49,-466.64"/>
<polygon fill="black" stroke="black" points="241.39,-463.67 231.39,-460.17 237.02,-469.15 241.39,-463.67"/>
</g>
<!-- src/audit.ts&#45;&gt;src/oracle.ts -->
<!-- src/audit.ts&#45;&gt;src/oracle.ts -->
<g id="edge88" class="edge">
<title>src/audit.ts&#45;&gt;src/oracle.ts</title>
<path fill="none" stroke="black" stroke-dasharray="1,5" d="M285.34,-495.92C300.45,-464.07 330.53,-366.16 347,-283 350.18,-266.96 352.5,-248.61 352.69,-234.8"/>
<polygon fill="black" stroke="black" points="356.17,-234.28 352.31,-224.41 349.17,-234.53 356.17,-234.28"/>
</g>
<!-- src/audit.ts&#45;&gt;src/outcome.ts -->
<!-- src/audit.ts&#45;&gt;src/outcome.ts -->
<g id="edge90" class="edge">
<title>src/audit.ts&#45;&gt;src/outcome.ts</title>
<path fill="none" stroke="black" stroke-dasharray="1,5" d="M247.61,-499.93C225.42,-493.78 196.8,-482.05 181,-460 170.99,-446.04 170.23,-426.21 170.02,-411.3"/>
<polygon fill="black" stroke="black" points="173.51,-410.97 169.81,-401.04 166.51,-411.11 173.51,-410.97"/>
</g>
<!-- src/audit.ts&#45;&gt;src/question.ts -->
<!-- src/audit.ts&#45;&gt;src/question.ts -->
<g id="edge92" class="edge">
<title>src/audit.ts&#45;&gt;src/question.ts</title>
<path fill="none" stroke="black" stroke-dasharray="1,5" d="M281.14,-495.62C279.89,-481.9 272.72,-457.61 266,-437 235.22,-342.65 213.28,-322.21 199,-224 196.64,-207.75 195.38,-189.2 193.37,-175.35"/>
<polygon fill="black" stroke="black" points="196.79,-174.6 191.57,-165.39 189.9,-175.85 196.79,-174.6"/>
</g>
<!-- src/audit.ts&#45;&gt;src/rule.ts -->
<!-- src/audit.ts&#45;&gt;src/rule.ts -->
<g id="edge94" class="edge">
<title>src/audit.ts&#45;&gt;src/rule.ts</title>
<path fill="none" stroke="black" stroke-dasharray="1,5" d="M282.76,-495.82C286.31,-473.76 284.82,-421.61 281,-378 280.25,-369.43 279.09,-360.01 277.37,-351.9"/>
<polygon fill="black" stroke="black" points="280.73,-350.93 274.75,-342.19 273.97,-352.75 280.73,-350.93"/>
</g>
<!-- src/audit.ts&#45;&gt;exit_src -->
<!-- exit_src&#45;&gt;exit_src -->
<!-- exit_src&#45;&gt;exit_src -->
<!-- exit_src&#45;&gt;exit_src -->
<!-- exit_src&#45;&gt;exit_src -->
<!-- exit_src&#45;&gt;exit_src -->
<!-- exit_src&#45;&gt;exit_src -->
<!-- exit_src&#45;&gt;exit_src -->
<!-- exit_src&#45;&gt;exit_src -->
<!-- exit_src&#45;&gt;exit_src -->
<!-- exit_src&#45;&gt;exit_src -->
<!-- exit_src&#45;&gt;exit_src -->
<!-- name_src -->
<g id="node12" class="node">
<title>name_src</title>
<path fill="none" stroke="#ff0000" stroke-width="5" d="M528.33,-578C528.33,-578 489.67,-578 489.67,-578 485.83,-578 482,-574.17 482,-570.33 482,-570.33 482,-562.67 482,-562.67 482,-558.83 485.83,-555 489.67,-555 489.67,-555 528.33,-555 528.33,-555 532.17,-555 536,-558.83 536,-562.67 536,-562.67 536,-570.33 536,-570.33 536,-574.17 532.17,-578 528.33,-578"/>
<text text-anchor="middle" x="509" y="-562.8" font-family="Arial" font-size="14.00" fill="#000000">src</text>
</g>
<!-- src/index.ts -->
<g id="node13" class="node">
<title>src/index.ts</title>
<path fill="none" stroke="#ff0000" stroke-width="5" d="M350.83,-578C350.83,-578 303.17,-578 303.17,-578 299.33,-578 295.5,-574.17 295.5,-570.33 295.5,-570.33 295.5,-562.67 295.5,-562.67 295.5,-558.83 299.33,-555 303.17,-555 303.17,-555 350.83,-555 350.83,-555 354.67,-555 358.5,-558.83 358.5,-562.67 358.5,-562.67 358.5,-570.33 358.5,-570.33 358.5,-574.17 354.67,-578 350.83,-578"/>
<text text-anchor="middle" x="327" y="-562.8" font-family="Arial" font-size="14.00" fill="#000000">index.ts</text>
</g>
<!-- src/index.ts&#45;&gt;src/diagnostic.ts -->
<!-- src/index.ts&#45;&gt;src/diagnostic.ts -->
<g id="edge58" class="edge">
<title>src/index.ts&#45;&gt;src/diagnostic.ts</title>
<path fill="none" stroke="black" d="M295.27,-565.43C227.19,-563.16 74,-546.88 74,-449.5 74,-449.5 74,-449.5 74,-211.5 74,-175.72 92.84,-137.68 103.7,-115.28"/>
<polygon fill="black" stroke="black" points="106.9,-116.69 108.03,-106.16 100.58,-113.69 106.9,-116.69"/>
</g>
<!-- src/index.ts&#45;&gt;src/cache.ts -->
<!-- src/index.ts&#45;&gt;src/cache.ts -->
<g id="edge56" class="edge">
<title>src/index.ts&#45;&gt;src/cache.ts</title>
<path fill="none" stroke="black" d="M302.15,-554.95C284.84,-547.51 262.61,-535.83 248,-519 235.96,-505.13 229.57,-485.02 224.69,-470"/>
<polygon fill="black" stroke="black" points="227.87,-468.48 221.36,-460.12 221.24,-470.72 227.87,-468.48"/>
</g>
<!-- src/index.ts&#45;&gt;src/interview.ts -->
<!-- src/index.ts&#45;&gt;src/interview.ts -->
<g id="edge60" class="edge">
<title>src/index.ts&#45;&gt;src/interview.ts</title>
<path fill="none" stroke="black" d="M335.33,-554.73C344.75,-534.37 356,-488.74 356,-449.5 356,-449.5 356,-449.5 356,-388.5 356,-347.05 320.81,-309.85 294.24,-289.3"/>
<polygon fill="black" stroke="black" points="296.11,-286.33 285.97,-283.23 291.96,-291.97 296.11,-286.33"/>
</g>
<!-- src/index.ts&#45;&gt;src/oracle.ts -->
<!-- src/index.ts&#45;&gt;src/oracle.ts -->
<g id="edge62" class="edge">
<title>src/index.ts&#45;&gt;src/oracle.ts</title>
<path fill="none" stroke="black" d="M342.23,-554.94C362.95,-535.61 396,-492.58 396,-449.5 396,-449.5 396,-449.5 396,-329.5 396,-293.74 378.8,-255 364.42,-232.56"/>
<polygon fill="black" stroke="black" points="367.25,-230.51 358.69,-224.27 361.49,-234.48 367.25,-230.51"/>
</g>
<!-- src/index.ts&#45;&gt;src/outcome.ts -->
<!-- src/index.ts&#45;&gt;src/outcome.ts -->
<g id="edge64" class="edge">
<title>src/index.ts&#45;&gt;src/outcome.ts</title>
<path fill="none" stroke="black" d="M295.28,-555.4C255.64,-541.82 190.74,-513.02 168,-460 161.44,-444.7 163.93,-425.82 166.26,-411.6"/>
<polygon fill="black" stroke="black" points="169.78,-411.79 167.92,-401.35 162.87,-410.67 169.78,-411.79"/>
</g>
<!-- src/index.ts&#45;&gt;src/question.ts -->
<!-- src/index.ts&#45;&gt;src/question.ts -->
<g id="edge66" class="edge">
<title>src/index.ts&#45;&gt;src/question.ts</title>
<path fill="none" stroke="black" d="M295.38,-561.33C265.11,-556.13 219.96,-544.56 189,-519 142.99,-481.02 139.67,-458.83 125,-401 102.89,-313.88 115.96,-281.96 155,-201 159.91,-190.82 167.54,-181.02 174.1,-173.05"/>
<polygon fill="black" stroke="black" points="176.92,-175.13 180.62,-165.2 171.54,-170.66 176.92,-175.13"/>
</g>
<!-- src/index.ts&#45;&gt;src/requirement.ts -->
<!-- src/index.ts&#45;&gt;src/requirement.ts -->
<g id="edge68" class="edge">
<title>src/index.ts&#45;&gt;src/requirement.ts</title>
<path fill="none" stroke="black" d="M358.74,-558.45C405.56,-545.08 487,-511.65 487,-449.5 487,-449.5 487,-449.5 487,-388.5 487,-355.1 487,-316.29 484.55,-293.09"/>
<polygon fill="black" stroke="black" points="488,-292.47 483.14,-283.06 481.07,-293.45 488,-292.47"/>
</g>
<!-- src/index.ts&#45;&gt;src/tag.ts -->
<!-- src/index.ts&#45;&gt;src/tag.ts -->
<g id="edge72" class="edge">
<title>src/index.ts&#45;&gt;src/tag.ts</title>
<path fill="none" stroke="black" d="M358.7,-564.83C426.58,-561.69 579,-544.28 579,-449.5 579,-449.5 579,-449.5 579,-388.5 579,-354.51 589.39,-316.14 594.36,-293.17"/>
<polygon fill="black" stroke="black" points="597.82,-293.69 596.3,-283.21 590.95,-292.36 597.82,-293.69"/>
</g>
<!-- src/index.ts&#45;&gt;src/rule.ts -->
<!-- src/index.ts&#45;&gt;src/rule.ts -->
<g id="edge70" class="edge">
<title>src/index.ts&#45;&gt;src/rule.ts</title>
<path fill="none" stroke="black" d="M332.24,-554.57C333.54,-540.8 330.61,-516.45 326,-496 314.01,-442.8 293.22,-381.91 279,-351.29"/>
<polygon fill="black" stroke="black" points="282.03,-349.52 274.45,-342.12 275.76,-352.63 282.03,-349.52"/>
</g>
<!-- src/index.ts&#45;&gt;src/audit.ts -->
<!-- src/index.ts&#45;&gt;src/audit.ts -->
<g id="edge54" class="edge">
<title>src/index.ts&#45;&gt;src/audit.ts</title>
<path fill="none" stroke="black" d="M323.19,-554.78C317.75,-546.82 308.56,-535.77 299.77,-526.47"/>
<polygon fill="black" stroke="black" points="302.09,-523.84 292.58,-519.17 297.11,-528.75 302.09,-523.84"/>
</g>
<!-- src/index.ts&#45;&gt;exit_src -->
</g>
</svg>
