<?xml version="1.0" encoding="UTF-8" standalone="no"?>
<!DOCTYPE svg PUBLIC "-//W3C//DTD SVG 1.1//EN"
 "http://www.w3.org/Graphics/SVG/1.1/DTD/svg11.dtd">
<!-- Generated by graphviz version 2.43.0 (0)
 -->
<!-- Title: dependency&#45;graph&#45;@siteimprove/alfa&#45;act Pages: 1 -->
<svg width="661pt" height="645pt"
 viewBox="0.00 0.00 661.20 645.20" xmlns="http://www.w3.org/2000/svg" xmlns:xlink="http://www.w3.org/1999/xlink">
<g id="graph0" class="graph" transform="scale(1 1) rotate(0) translate(21.6 623.6)">
<title>dependency&#45;graph&#45;@siteimprove/alfa&#45;act</title>
<polygon fill="#ffffff" stroke="transparent" points="-21.6,21.6 -21.6,-623.6 639.6,-623.6 639.6,21.6 -21.6,21.6"/>
<g id="clust1" class="cluster">
<title>cluster_src</title>
<polygon fill="#ffffff" stroke="#000000" points="8,-8 8,-594 610,-594 610,-8 8,-8"/>
</g>
<g id="clust2" class="cluster">
<title>cluster_src</title>
<polygon fill="#ffffff" stroke="#000000" points="16,-16 16,-586 602,-586 602,-16 16,-16"/>
</g>
<g id="clust3" class="cluster">
<title>cluster_src/metadata</title>
<polygon fill="#ffffff" stroke="#000000" points="350,-75 350,-232 562,-232 562,-75 350,-75"/>
</g>
<g id="clust4" class="cluster">
<title>cluster_src/expectation</title>
<polygon fill="#ffffff" stroke="#000000" points="36,-75 36,-409 310,-409 310,-75 36,-75"/>
</g>
<!-- src/metadata/requirement.ts -->
<g id="node1" class="node">
<title>src/metadata/requirement.ts</title>
<path fill="none" stroke="#000000" d="M454.33,-165C454.33,-165 365.67,-165 365.67,-165 361.83,-165 358,-161.17 358,-157.33 358,-157.33 358,-149.67 358,-149.67 358,-145.83 361.83,-142 365.67,-142 365.67,-142 454.33,-142 454.33,-142 458.17,-142 462,-145.83 462,-149.67 462,-149.67 462,-157.33 462,-157.33 462,-161.17 458.17,-165 454.33,-165"/>
<text text-anchor="middle" x="410" y="-149.8" font-family="Arial" font-size="14.00" fill="#000000">requirement.ts</text>
</g>
<!-- exit_src/metadata -->
<!-- src/metadata/requirement.ts&#45;&gt;exit_src/metadata -->
<!-- src/metadata/tag.ts -->
<g id="node2" class="node">
<title>src/metadata/tag.ts</title>
<path fill="none" stroke="#000000" d="M526.33,-165C526.33,-165 487.67,-165 487.67,-165 483.83,-165 480,-161.17 480,-157.33 480,-157.33 480,-149.67 480,-149.67 480,-145.83 483.83,-142 487.67,-142 487.67,-142 526.33,-142 526.33,-142 530.17,-142 534,-145.83 534,-149.67 534,-149.67 534,-157.33 534,-157.33 534,-161.17 530.17,-165 526.33,-165"/>
<text text-anchor="middle" x="507" y="-149.8" font-family="Arial" font-size="14.00" fill="#000000">tag.ts</text>
</g>
<!-- src/metadata/tag.ts&#45;&gt;exit_src/metadata -->
<!-- src/cache.ts -->
<g id="node3" class="node">
<title>src/cache.ts</title>
<path fill="none" stroke="#000000" d="M352.83,-460C352.83,-460 301.17,-460 301.17,-460 297.33,-460 293.5,-456.17 293.5,-452.33 293.5,-452.33 293.5,-444.67 293.5,-444.67 293.5,-440.83 297.33,-437 301.17,-437 301.17,-437 352.83,-437 352.83,-437 356.67,-437 360.5,-440.83 360.5,-444.67 360.5,-444.67 360.5,-452.33 360.5,-452.33 360.5,-456.17 356.67,-460 352.83,-460"/>
<text text-anchor="middle" x="327" y="-444.8" font-family="Arial" font-size="14.00" fill="#000000">cache.ts</text>
</g>
<!-- name_src/expectation -->
<g id="node5" class="node">
<title>name_src/expectation</title>
<path fill="none" stroke="#0000ff" stroke-width="5" d="M294.33,-401C294.33,-401 223.67,-401 223.67,-401 219.83,-401 216,-397.17 216,-393.33 216,-393.33 216,-385.67 216,-385.67 216,-381.83 219.83,-378 223.67,-378 223.67,-378 294.33,-378 294.33,-378 298.17,-378 302,-381.83 302,-385.67 302,-385.67 302,-393.33 302,-393.33 302,-397.17 298.17,-401 294.33,-401"/>
<text text-anchor="middle" x="259" y="-385.8" font-family="Arial" font-size="14.00" fill="#000000">expectation</text>
</g>
<!-- src/cache.ts&#45;&gt;name_src/expectation -->
<g id="edge75" class="edge">
<title>src/cache.ts&#45;&gt;name_src/expectation</title>
<path fill="none" stroke="#00ff00" stroke-dasharray="1,5" d="M314.21,-436.78C307,-430.74 297.68,-422.92 288.75,-415.44"/>
<polygon fill="#00ff00" stroke="#00ff00" points="290.98,-412.74 281.07,-409 286.48,-418.1 290.98,-412.74"/>
</g>
<!-- src/outcome.ts -->
<g id="node8" class="node">
<title>src/outcome.ts</title>
<path fill="none" stroke="#000000" d="M441.83,-401C441.83,-401 374.17,-401 374.17,-401 370.33,-401 366.5,-397.17 366.5,-393.33 366.5,-393.33 366.5,-385.67 366.5,-385.67 366.5,-381.83 370.33,-378 374.17,-378 374.17,-378 441.83,-378 441.83,-378 445.67,-378 449.5,-381.83 449.5,-385.67 449.5,-385.67 449.5,-393.33 449.5,-393.33 449.5,-397.17 445.67,-401 441.83,-401"/>
<text text-anchor="middle" x="408" y="-385.8" font-family="Arial" font-size="14.00" fill="#000000">outcome.ts</text>
</g>
<!-- src/cache.ts&#45;&gt;src/outcome.ts -->
<!-- src/cache.ts&#45;&gt;src/outcome.ts -->
<g id="edge77" class="edge">
<title>src/cache.ts&#45;&gt;src/outcome.ts</title>
<path fill="none" stroke="black" stroke-dasharray="1,5" d="M347.65,-436.78C360.87,-428.5 377.64,-416.89 390.26,-407.36"/>
<polygon fill="black" stroke="black" points="392.48,-410.07 398.24,-401.17 388.19,-404.54 392.48,-410.07"/>
</g>
<!-- src/rule.ts -->
<g id="node15" class="node">
<title>src/rule.ts</title>
<path fill="none" stroke="#000000" d="M366.33,-283C366.33,-283 327.67,-283 327.67,-283 323.83,-283 320,-279.17 320,-275.33 320,-275.33 320,-267.67 320,-267.67 320,-263.83 323.83,-260 327.67,-260 327.67,-260 366.33,-260 366.33,-260 370.17,-260 374,-263.83 374,-267.67 374,-267.67 374,-275.33 374,-275.33 374,-279.17 370.17,-283 366.33,-283"/>
<text text-anchor="middle" x="347" y="-267.8" font-family="Arial" font-size="14.00" fill="#000000">rule.ts</text>
</g>
<!-- src/cache.ts&#45;&gt;src/rule.ts -->
<!-- src/cache.ts&#45;&gt;src/rule.ts -->
<g id="edge79" class="edge">
<title>src/cache.ts&#45;&gt;src/rule.ts</title>
<path fill="none" stroke="black" stroke-dasharray="1,5" d="M338.57,-436.82C353.79,-408.44 363.78,-330.78 358.29,-293.29"/>
<polygon fill="black" stroke="black" points="361.61,-292.08 356.09,-283.04 354.77,-293.56 361.61,-292.08"/>
</g>
<!-- exit_src -->
<!-- src/cache.ts&#45;&gt;exit_src -->
<!-- src/expectation/index.ts -->
<g id="node4" class="node">
<title>src/expectation/index.ts</title>
<path fill="none" stroke="#0000ff" stroke-width="5" d="M154.83,-401C154.83,-401 107.17,-401 107.17,-401 103.33,-401 99.5,-397.17 99.5,-393.33 99.5,-393.33 99.5,-385.67 99.5,-385.67 99.5,-381.83 103.33,-378 107.17,-378 107.17,-378 154.83,-378 154.83,-378 158.67,-378 162.5,-381.83 162.5,-385.67 162.5,-385.67 162.5,-393.33 162.5,-393.33 162.5,-397.17 158.67,-401 154.83,-401"/>
<text text-anchor="middle" x="131" y="-385.8" font-family="Arial" font-size="14.00" fill="#000000">index.ts</text>
</g>
<!-- src/expectation/diagnostic.ts -->
<g id="node9" class="node">
<title>src/expectation/diagnostic.ts</title>
<path fill="none" stroke="#000000" d="M128.33,-165C128.33,-165 51.67,-165 51.67,-165 47.83,-165 44,-161.17 44,-157.33 44,-157.33 44,-149.67 44,-149.67 44,-145.83 47.83,-142 51.67,-142 51.67,-142 128.33,-142 128.33,-142 132.17,-142 136,-145.83 136,-149.67 136,-149.67 136,-157.33 136,-157.33 136,-161.17 132.17,-165 128.33,-165"/>
<text text-anchor="middle" x="90" y="-149.8" font-family="Arial" font-size="14.00" fill="#000000">diagnostic.ts</text>
</g>
<!-- src/expectation/index.ts&#45;&gt;src/expectation/diagnostic.ts -->
<!-- src/expectation/index.ts&#45;&gt;src/expectation/diagnostic.ts -->
<g id="edge53" class="edge">
<title>src/expectation/index.ts&#45;&gt;src/expectation/diagnostic.ts</title>
<path fill="none" stroke="black" d="M125.41,-377.8C111.18,-360.06 77.64,-322.61 65,-283 52.91,-245.13 72.49,-200.04 83.84,-174.59"/>
<polygon fill="black" stroke="black" points="87.13,-175.83 87.97,-165.27 80.72,-173 87.13,-175.83"/>
</g>
<!-- src/expectation/finding.ts -->
<g id="node10" class="node">
<title>src/expectation/finding.ts</title>
<path fill="none" stroke="#000000" d="M127.83,-283C127.83,-283 72.17,-283 72.17,-283 68.33,-283 64.5,-279.17 64.5,-275.33 64.5,-275.33 64.5,-267.67 64.5,-267.67 64.5,-263.83 68.33,-260 72.17,-260 72.17,-260 127.83,-260 127.83,-260 131.67,-260 135.5,-263.83 135.5,-267.67 135.5,-267.67 135.5,-275.33 135.5,-275.33 135.5,-279.17 131.67,-283 127.83,-283"/>
<text text-anchor="middle" x="100" y="-267.8" font-family="Arial" font-size="14.00" fill="#000000">finding.ts</text>
</g>
<!-- src/expectation/index.ts&#45;&gt;src/expectation/finding.ts -->
<!-- src/expectation/index.ts&#45;&gt;src/expectation/finding.ts -->
<g id="edge55" class="edge">
<title>src/expectation/index.ts&#45;&gt;src/expectation/finding.ts</title>
<path fill="none" stroke="black" d="M132.25,-377.79C130.16,-358.46 119.58,-317.42 110.66,-292.68"/>
<polygon fill="black" stroke="black" points="113.85,-291.23 106.96,-283.18 107.33,-293.77 113.85,-291.23"/>
</g>
<!-- src/expectation/interview.ts -->
<g id="node11" class="node">
<title>src/expectation/interview.ts</title>
<path fill="none" stroke="#000000" d="M225.83,-342C225.83,-342 158.17,-342 158.17,-342 154.33,-342 150.5,-338.17 150.5,-334.33 150.5,-334.33 150.5,-326.67 150.5,-326.67 150.5,-322.83 154.33,-319 158.17,-319 158.17,-319 225.83,-319 225.83,-319 229.67,-319 233.5,-322.83 233.5,-326.67 233.5,-326.67 233.5,-334.33 233.5,-334.33 233.5,-338.17 229.67,-342 225.83,-342"/>
<text text-anchor="middle" x="192" y="-326.8" font-family="Arial" font-size="14.00" fill="#000000">interview.ts</text>
</g>
<!-- src/expectation/index.ts&#45;&gt;src/expectation/interview.ts -->
<!-- src/expectation/index.ts&#45;&gt;src/expectation/interview.ts -->
<g id="edge57" class="edge">
<title>src/expectation/index.ts&#45;&gt;src/expectation/interview.ts</title>
<path fill="none" stroke="black" d="M147.89,-377.78C157.8,-369.82 169.92,-358.77 179.09,-349.47"/>
<polygon fill="black" stroke="black" points="181.66,-351.85 185.98,-342.17 176.57,-347.04 181.66,-351.85"/>
</g>
<!-- src/expectation/oracle.ts -->
<g id="node12" class="node">
<title>src/expectation/oracle.ts</title>
<path fill="none" stroke="#000000" d="M274.33,-283C274.33,-283 221.67,-283 221.67,-283 217.83,-283 214,-279.17 214,-275.33 214,-275.33 214,-267.67 214,-267.67 214,-263.83 217.83,-260 221.67,-260 221.67,-260 274.33,-260 274.33,-260 278.17,-260 282,-263.83 282,-267.67 282,-267.67 282,-275.33 282,-275.33 282,-279.17 278.17,-283 274.33,-283"/>
<text text-anchor="middle" x="248" y="-267.8" font-family="Arial" font-size="14.00" fill="#000000">oracle.ts</text>
</g>
<!-- src/expectation/index.ts&#45;&gt;src/expectation/oracle.ts -->
<!-- src/expectation/index.ts&#45;&gt;src/expectation/oracle.ts -->
<g id="edge59" class="edge">
<title>src/expectation/index.ts&#45;&gt;src/expectation/oracle.ts</title>
<path fill="none" stroke="black" d="M162.55,-385.69C191.28,-381.28 231.75,-370.1 252,-342 262.13,-327.94 262.49,-307.86 259.27,-292.89"/>
<polygon fill="black" stroke="black" points="262.55,-291.66 256.37,-283.06 255.84,-293.64 262.55,-291.66"/>
</g>
<!-- src/expectation/question.ts -->
<g id="node13" class="node">
<title>src/expectation/question.ts</title>
<path fill="none" stroke="#000000" d="M203.33,-224C203.33,-224 136.67,-224 136.67,-224 132.83,-224 129,-220.17 129,-216.33 129,-216.33 129,-208.67 129,-208.67 129,-204.83 132.83,-201 136.67,-201 136.67,-201 203.33,-201 203.33,-201 207.17,-201 211,-204.83 211,-208.67 211,-208.67 211,-216.33 211,-216.33 211,-220.17 207.17,-224 203.33,-224"/>
<text text-anchor="middle" x="170" y="-208.8" font-family="Arial" font-size="14.00" fill="#000000">question.ts</text>
</g>
<!-- src/expectation/index.ts&#45;&gt;src/expectation/question.ts -->
<!-- src/expectation/index.ts&#45;&gt;src/expectation/question.ts -->
<g id="edge61" class="edge">
<title>src/expectation/index.ts&#45;&gt;src/expectation/question.ts</title>
<path fill="none" stroke="black" d="M138.64,-377.6C143.18,-363.86 146.66,-339.56 151,-319 157.28,-289.3 166.66,-255.45 170.6,-234.28"/>
<polygon fill="black" stroke="black" points="174.09,-234.61 172.15,-224.2 167.17,-233.55 174.09,-234.61"/>
</g>
<!-- exit_src/expectation -->
<!-- src/expectation/index.ts&#45;&gt;exit_src/expectation -->
<!-- src/metadata/index.ts -->
<g id="node6" class="node">
<title>src/metadata/index.ts</title>
<path fill="none" stroke="#ff0000" stroke-width="5" d="M530.83,-224C530.83,-224 483.17,-224 483.17,-224 479.33,-224 475.5,-220.17 475.5,-216.33 475.5,-216.33 475.5,-208.67 475.5,-208.67 475.5,-204.83 479.33,-201 483.17,-201 483.17,-201 530.83,-201 530.83,-201 534.67,-201 538.5,-204.83 538.5,-208.67 538.5,-208.67 538.5,-216.33 538.5,-216.33 538.5,-220.17 534.67,-224 530.83,-224"/>
<text text-anchor="middle" x="507" y="-208.8" font-family="Arial" font-size="14.00" fill="#000000">index.ts</text>
</g>
<!-- src/metadata/index.ts&#45;&gt;src/metadata/requirement.ts -->
<!-- src/metadata/index.ts&#45;&gt;src/metadata/requirement.ts -->
<g id="edge39" class="edge">
<title>src/metadata/index.ts&#45;&gt;src/metadata/requirement.ts</title>
<path fill="none" stroke="black" d="M494.17,-200.78C480.92,-192.1 460.15,-179.76 442.47,-170.01"/>
<polygon fill="black" stroke="black" points="444.02,-166.87 433.57,-165.17 440.69,-173.02 444.02,-166.87"/>
</g>
<!-- src/metadata/index.ts&#45;&gt;src/metadata/tag.ts -->
<!-- src/metadata/index.ts&#45;&gt;src/metadata/tag.ts -->
<g id="edge41" class="edge">
<title>src/metadata/index.ts&#45;&gt;src/metadata/tag.ts</title>
<path fill="none" stroke="black" d="M512.41,-200.78C513.67,-193.61 514.04,-183.95 513.53,-175.31"/>
<polygon fill="black" stroke="black" points="516.98,-174.73 512.4,-165.17 510.03,-175.5 516.98,-174.73"/>
</g>
<!-- src/metadata/index.ts&#45;&gt;exit_src/metadata -->
<!-- name_src/metadata -->
<g id="node7" class="node">
<title>name_src/metadata</title>
<path fill="none" stroke="#ff0000" stroke-width="5" d="M437.33,-224C437.33,-224 378.67,-224 378.67,-224 374.83,-224 371,-220.17 371,-216.33 371,-216.33 371,-208.67 371,-208.67 371,-204.83 374.83,-201 378.67,-201 378.67,-201 437.33,-201 437.33,-201 441.17,-201 445,-204.83 445,-208.67 445,-208.67 445,-216.33 445,-216.33 445,-220.17 441.17,-224 437.33,-224"/>
<text text-anchor="middle" x="408" y="-208.8" font-family="Arial" font-size="14.00" fill="#000000">metadata</text>
</g>
<!-- src/outcome.ts&#45;&gt;name_src/expectation -->
<g id="edge72" class="edge">
<title>src/outcome.ts&#45;&gt;name_src/expectation</title>
<path fill="none" stroke="#00ff00" d="M366.21,-389.5C348.17,-389.5 330.13,-389.5 312.09,-389.5"/>
<polygon fill="#00ff00" stroke="#00ff00" points="320,-386 310,-389.5 320,-393 320,-386"/>
</g>
<!-- src/outcome.ts&#45;&gt;src/rule.ts -->
<!-- src/outcome.ts&#45;&gt;src/rule.ts -->
<g id="edge74" class="edge">
<title>src/outcome.ts&#45;&gt;src/rule.ts</title>
<path fill="none" stroke="black" stroke-dasharray="1,5" d="M414.71,-377.79C413.75,-357.94 392.24,-315.21 371.8,-290.72"/>
<polygon fill="black" stroke="black" points="374.26,-288.22 364.94,-283.18 369.08,-292.93 374.26,-288.22"/>
</g>
<!-- src/outcome.ts&#45;&gt;exit_src -->
<!-- src/expectation/diagnostic.ts&#45;&gt;exit_src/expectation -->
<!-- src/expectation/finding.ts&#45;&gt;src/expectation/diagnostic.ts -->
<!-- src/expectation/finding.ts&#45;&gt;src/expectation/diagnostic.ts -->
<g id="edge51" class="edge">
<title>src/expectation/finding.ts&#45;&gt;src/expectation/diagnostic.ts</title>
<path fill="none" stroke="black" stroke-dasharray="1,5" d="M103.19,-259.79C104.59,-240.55 101.48,-199.79 97.06,-175.01"/>
<polygon fill="black" stroke="black" points="100.48,-174.26 95.03,-165.18 93.63,-175.68 100.48,-174.26"/>
</g>
<!-- src/expectation/finding.ts&#45;&gt;exit_src/expectation -->
<!-- src/expectation/interview.ts&#45;&gt;src/expectation/finding.ts -->
<!-- src/expectation/interview.ts&#45;&gt;src/expectation/finding.ts -->
<g id="edge81" class="edge">
<title>src/expectation/interview.ts&#45;&gt;src/expectation/finding.ts</title>
<path fill="none" stroke="black" d="M180.11,-318.78C167.74,-310.18 148.29,-297.99 131.57,-288.28"/>
<polygon fill="black" stroke="black" points="133.05,-285.09 122.63,-283.17 129.58,-291.17 133.05,-285.09"/>
</g>
<!-- src/expectation/interview.ts&#45;&gt;src/expectation/oracle.ts -->
<!-- src/expectation/interview.ts&#45;&gt;src/expectation/oracle.ts -->
<g id="edge83" class="edge">
<title>src/expectation/interview.ts&#45;&gt;src/expectation/oracle.ts</title>
<path fill="none" stroke="black" stroke-dasharray="1,5" d="M207.94,-318.78C216.98,-310.98 227.87,-300.21 236.16,-291.03"/>
<polygon fill="black" stroke="black" points="239.05,-293.04 242.92,-283.17 233.74,-288.48 239.05,-293.04"/>
</g>
<!-- src/expectation/interview.ts&#45;&gt;src/expectation/question.ts -->
<!-- src/expectation/interview.ts&#45;&gt;src/expectation/question.ts -->
<g id="edge85" class="edge">
<title>src/expectation/interview.ts&#45;&gt;src/expectation/question.ts</title>
<path fill="none" stroke="black" d="M194.08,-318.79C193.5,-299.55 186.16,-258.79 179.18,-234.01"/>
<polygon fill="black" stroke="black" points="182.44,-232.69 176.13,-224.18 175.76,-234.77 182.44,-232.69"/>
</g>
<!-- src/expectation/interview.ts&#45;&gt;src/rule.ts -->
<!-- src/expectation/interview.ts&#45;&gt;exit_src/expectation -->
<!-- src/expectation/oracle.ts&#45;&gt;src/expectation/question.ts -->
<!-- src/expectation/oracle.ts&#45;&gt;src/expectation/question.ts -->
<g id="edge96" class="edge">
<title>src/expectation/oracle.ts&#45;&gt;src/expectation/question.ts</title>
<path fill="none" stroke="black" stroke-dasharray="1,5" d="M238.74,-259.78C228.67,-251.34 212.64,-239.44 198.5,-229.82"/>
<polygon fill="black" stroke="black" points="200.27,-226.8 190.01,-224.17 196.4,-232.62 200.27,-226.8"/>
</g>
<!-- src/expectation/oracle.ts&#45;&gt;src/rule.ts -->
<!-- src/expectation/oracle.ts&#45;&gt;exit_src/expectation -->
<!-- src/expectation/question.ts&#45;&gt;src/expectation/diagnostic.ts -->
<!-- src/expectation/question.ts&#45;&gt;src/expectation/diagnostic.ts -->
<g id="edge49" class="edge">
<title>src/expectation/question.ts&#45;&gt;src/expectation/diagnostic.ts</title>
<path fill="none" stroke="black" d="M160.36,-200.78C150,-192.34 133.55,-180.44 119.07,-170.82"/>
<polygon fill="black" stroke="black" points="120.68,-167.69 110.38,-165.17 116.86,-173.56 120.68,-167.69"/>
</g>
<!-- src/expectation/question.ts&#45;&gt;exit_src/expectation -->
<!-- src/audit.ts -->
<g id="node14" class="node">
<title>src/audit.ts</title>
<path fill="none" stroke="#000000" d="M419.33,-519C419.33,-519 374.67,-519 374.67,-519 370.83,-519 367,-515.17 367,-511.33 367,-511.33 367,-503.67 367,-503.67 367,-499.83 370.83,-496 374.67,-496 374.67,-496 419.33,-496 419.33,-496 423.17,-496 427,-499.83 427,-503.67 427,-503.67 427,-511.33 427,-511.33 427,-515.17 423.17,-519 419.33,-519"/>
<text text-anchor="middle" x="397" y="-503.8" font-family="Arial" font-size="14.00" fill="#000000">audit.ts</text>
</g>
<!-- src/audit.ts&#45;&gt;src/cache.ts -->
<!-- src/audit.ts&#45;&gt;src/cache.ts -->
<g id="edge89" class="edge">
<title>src/audit.ts&#45;&gt;src/cache.ts</title>
<path fill="none" stroke="black" d="M389.24,-495.78C380.53,-487.5 366.54,-475.89 353.93,-466.36"/>
<polygon fill="black" stroke="black" points="355.64,-463.28 345.51,-460.17 351.5,-468.92 355.64,-463.28"/>
</g>
<!-- src/audit.ts&#45;&gt;name_src/expectation -->
<g id="edge90" class="edge">
<title>src/audit.ts&#45;&gt;name_src/expectation</title>
<path fill="none" stroke="#00ff00" stroke-dasharray="1,5" d="M366.58,-500.87C341.61,-494.78 306.93,-482.72 285,-460 272.11,-446.65 265.5,-426.32 262.18,-411.09"/>
<polygon fill="#00ff00" stroke="#00ff00" points="268.4,-416.86 261.3,-409 261.95,-419.57 268.4,-416.86"/>
</g>
<!-- src/audit.ts&#45;&gt;src/outcome.ts -->
<!-- src/audit.ts&#45;&gt;src/outcome.ts -->
<g id="edge92" class="edge">
<title>src/audit.ts&#45;&gt;src/outcome.ts</title>
<path fill="none" stroke="black" stroke-dasharray="1,5" d="M402.13,-495.79C407,-476.63 411.24,-436.15 411.35,-411.34"/>
<polygon fill="black" stroke="black" points="414.84,-411.09 411.1,-401.18 407.85,-411.26 414.84,-411.09"/>
</g>
<!-- src/audit.ts&#45;&gt;src/rule.ts -->
<!-- src/audit.ts&#45;&gt;src/rule.ts -->
<g id="edge94" class="edge">
<title>src/audit.ts&#45;&gt;src/rule.ts</title>
<path fill="none" stroke="black" stroke-dasharray="1,5" d="M399.18,-495.62C396.71,-481.9 387.42,-457.61 379,-437 373.88,-424.47 370.25,-422.14 367,-409 357.1,-369.02 355.56,-320.63 352.81,-293.53"/>
<polygon fill="black" stroke="black" points="356.25,-292.8 351.53,-283.31 349.3,-293.67 356.25,-292.8"/>
</g>
<!-- src/audit.ts&#45;&gt;exit_src -->
<!-- src/rule.ts&#45;&gt;src/cache.ts -->
<!-- src/rule.ts&#45;&gt;src/cache.ts -->
<g id="edge43" class="edge">
<title>src/rule.ts&#45;&gt;src/cache.ts</title>
<path fill="none" stroke="black" d="M349.23,-283.04C350.01,-311.38 341.44,-389.58 333.87,-427.01"/>
<polygon fill="black" stroke="black" points="330.45,-426.29 331.67,-436.82 337.28,-427.83 330.45,-426.29"/>
</g>
<!-- src/rule.ts&#45;&gt;name_src/expectation -->
<g id="edge44" class="edge">
<title>src/rule.ts&#45;&gt;name_src/expectation</title>
<path fill="none" stroke="#00ff00" d="M338.9,-283.18C333.25,-290.62 325.15,-301.3 316.26,-313.02"/>
<polygon fill="#00ff00" stroke="#00ff00" points="313.25,-311.19 310,-321.28 318.83,-315.42 313.25,-311.19"/>
</g>
<!-- src/rule.ts&#45;&gt;name_src/metadata -->
<g id="edge45" class="edge">
<title>src/rule.ts&#45;&gt;name_src/metadata</title>
<path fill="none" stroke="#00ff00" d="M358.47,-259.78C364.74,-253.92 372.8,-246.39 380.58,-239.12"/>
<polygon fill="#00ff00" stroke="#00ff00" points="383.29,-241.38 388.2,-232 378.51,-236.27 383.29,-241.38"/>
</g>
<!-- src/rule.ts&#45;&gt;src/outcome.ts -->
<!-- src/rule.ts&#45;&gt;src/outcome.ts -->
<g id="edge47" class="edge">
<title>src/rule.ts&#45;&gt;src/outcome.ts</title>
<path fill="none" stroke="black" d="M356.72,-283.18C369.96,-302.5 391.93,-343.53 402.64,-368.29"/>
<polygon fill="black" stroke="black" points="399.49,-369.84 406.48,-377.79 405.98,-367.21 399.49,-369.84"/>
</g>
<!-- src/rule.ts&#45;&gt;exit_src -->
<!-- exit_src/expectation&#45;&gt;src/rule.ts -->
<g id="edge87" class="edge">
<title>exit_src/expectation&#45;&gt;src/rule.ts</title>
<path fill="none" stroke="#0000ff" stroke-dasharray="1,5" d="M310,-239.81C313.25,-244.38 316.93,-248.77 320.73,-252.73"/>
<polygon fill="#0000ff" stroke="#0000ff" points="318.63,-255.56 328.28,-259.92 323.45,-250.49 318.63,-255.56"/>
</g>
<!-- exit_src/expectation&#45;&gt;src/rule.ts -->
<!-- exit_src/expectation&#45;&gt;exit_src -->
<!-- exit_src/expectation&#45;&gt;exit_src -->
<!-- exit_src/expectation&#45;&gt;exit_src -->
<!-- exit_src/expectation&#45;&gt;exit_src -->
<!-- exit_src/expectation&#45;&gt;exit_src -->
<!-- exit_src/expectation&#45;&gt;exit_src -->
<!-- exit_src&#45;&gt;exit_src -->
<!-- exit_src&#45;&gt;exit_src -->
<!-- exit_src&#45;&gt;exit_src -->
<!-- exit_src&#45;&gt;exit_src -->
<!-- exit_src&#45;&gt;exit_src -->
<!-- exit_src&#45;&gt;exit_src -->
<!-- exit_src&#45;&gt;exit_src -->
<!-- exit_src&#45;&gt;exit_src -->
<!-- exit_src&#45;&gt;exit_src -->
<!-- exit_src&#45;&gt;exit_src -->
<!-- exit_src&#45;&gt;exit_src -->
<!-- exit_src&#45;&gt;exit_src -->
<!-- exit_src&#45;&gt;exit_src -->
<!-- exit_src&#45;&gt;exit_src -->
<!-- name_src -->
<g id="node18" class="node">
<title>name_src</title>
<path fill="none" stroke="#00ff00" stroke-width="5" d="M571.33,-578C571.33,-578 532.67,-578 532.67,-578 528.83,-578 525,-574.17 525,-570.33 525,-570.33 525,-562.67 525,-562.67 525,-558.83 528.83,-555 532.67,-555 532.67,-555 571.33,-555 571.33,-555 575.17,-555 579,-558.83 579,-562.67 579,-562.67 579,-570.33 579,-570.33 579,-574.17 575.17,-578 571.33,-578"/>
<text text-anchor="middle" x="552" y="-562.8" font-family="Arial" font-size="14.00" fill="#000000">src</text>
</g>
<!-- src/index.ts -->
<g id="node19" class="node">
<title>src/index.ts</title>
<path fill="none" stroke="#00ff00" stroke-width="5" d="M473.83,-578C473.83,-578 426.17,-578 426.17,-578 422.33,-578 418.5,-574.17 418.5,-570.33 418.5,-570.33 418.5,-562.67 418.5,-562.67 418.5,-558.83 422.33,-555 426.17,-555 426.17,-555 473.83,-555 473.83,-555 477.67,-555 481.5,-558.83 481.5,-562.67 481.5,-562.67 481.5,-570.33 481.5,-570.33 481.5,-574.17 477.67,-578 473.83,-578"/>
<text text-anchor="middle" x="450" y="-562.8" font-family="Arial" font-size="14.00" fill="#000000">index.ts</text>
</g>
<!-- src/index.ts&#45;&gt;src/cache.ts -->
<!-- src/index.ts&#45;&gt;src/cache.ts -->
<g id="edge65" class="edge">
<title>src/index.ts&#45;&gt;src/cache.ts</title>
<path fill="none" stroke="black" d="M424.15,-554.86C406.16,-547.39 382.92,-535.72 367,-519 353.82,-505.17 345.64,-484.78 339.39,-469.66"/>
<polygon fill="black" stroke="black" points="342.49,-468 335.34,-460.18 336.05,-470.75 342.49,-468"/>
</g>
<!-- src/index.ts&#45;&gt;name_src/expectation -->
<g id="edge66" class="edge">
<title>src/index.ts&#45;&gt;name_src/expectation</title>
<path fill="none" stroke="#00ff00" d="M418.16,-558.27C374.27,-546.36 297.07,-517.92 266,-460 258.04,-445.16 256.66,-425.97 257.06,-411.51"/>
<polygon fill="#00ff00" stroke="#00ff00" points="258.7,-419.54 257.67,-409 251.9,-417.89 258.7,-419.54"/>
</g>
<!-- src/index.ts&#45;&gt;name_src/metadata -->
<g id="edge67" class="edge">
<title>src/index.ts&#45;&gt;name_src/metadata</title>
<path fill="none" stroke="#00ff00" d="M463.76,-554.99C486.39,-536.39 529,-495.31 529,-449.5 529,-449.5 529,-449.5 529,-329.5 529,-287.83 491.14,-256.48 457.78,-236.95"/>
<polygon fill="#00ff00" stroke="#00ff00" points="459.41,-233.85 448.98,-232 455.98,-239.95 459.41,-233.85"/>
</g>
<!-- src/index.ts&#45;&gt;src/outcome.ts -->
<!-- src/index.ts&#45;&gt;src/outcome.ts -->
<g id="edge69" class="edge">
<title>src/index.ts&#45;&gt;src/outcome.ts</title>
<path fill="none" stroke="black" d="M454.29,-554.62C454.47,-540.9 449.81,-516.62 445,-496 438.01,-466.03 428.62,-431.62 420.39,-410.47"/>
<polygon fill="black" stroke="black" points="423.59,-409.06 416.46,-401.23 417.15,-411.8 423.59,-409.06"/>
</g>
<!-- src/index.ts&#45;&gt;src/audit.ts -->
<!-- src/index.ts&#45;&gt;src/audit.ts -->
<g id="edge63" class="edge">
<title>src/index.ts&#45;&gt;src/audit.ts</title>
<path fill="none" stroke="black" d="M445.44,-554.78C439.38,-546.74 429.27,-535.55 419.75,-526.19"/>
<polygon fill="black" stroke="black" points="422,-523.5 412.33,-519.17 417.19,-528.59 422,-523.5"/>
</g>
<!-- src/index.ts&#45;&gt;src/rule.ts -->
<!-- src/index.ts&#45;&gt;src/rule.ts -->
<g id="edge71" class="edge">
<title>src/index.ts&#45;&gt;src/rule.ts</title>
<path fill="none" stroke="black" d="M461.53,-554.71C476.29,-534.68 498,-490.08 498,-449.5 498,-449.5 498,-449.5 498,-388.5 498,-331.53 428.6,-297.52 383.76,-282.21"/>
<polygon fill="black" stroke="black" points="384.64,-278.82 374.05,-279.06 382.48,-285.48 384.64,-278.82"/>
</g>
<!-- src/index.ts&#45;&gt;exit_src -->
<!-- exit_src/metadata&#45;&gt;exit_src -->
<!-- exit_src/metadata&#45;&gt;exit_src -->
<!-- exit_src/metadata&#45;&gt;exit_src -->
</g>
</svg>
