<?xml version="1.0" encoding="UTF-8" standalone="no"?>
<!DOCTYPE svg PUBLIC "-//W3C//DTD SVG 1.1//EN"
 "http://www.w3.org/Graphics/SVG/1.1/DTD/svg11.dtd">
<!-- Generated by graphviz version 2.43.0 (0)
 -->
<!-- Title: dependency&#45;graph&#45;[object Object] Pages: 1 -->
<svg width="300pt" height="385pt"
 viewBox="0.00 0.00 299.70 385.20" xmlns="http://www.w3.org/2000/svg" xmlns:xlink="http://www.w3.org/1999/xlink">
<g id="graph0" class="graph" transform="scale(1 1) rotate(0) translate(21.6 363.6)">
<title>dependency&#45;graph&#45;[object Object]</title>
<polygon fill="#ffffff" stroke="transparent" points="-21.6,21.6 -21.6,-363.6 278.1,-363.6 278.1,21.6 -21.6,21.6"/>
<g id="clust1" class="cluster">
<title>cluster_src</title>
<polygon fill="#ffffff" stroke="#000000" points="22.5,-43 22.5,-334 248.5,-334 248.5,-43 22.5,-43"/>
</g>
<g id="clust2" class="cluster">
<title>cluster_src</title>
<polygon fill="#ffffff" stroke="#000000" points="30.5,-51 30.5,-326 240.5,-326 240.5,-51 30.5,-51"/>
</g>
<!-- dependency&#45;graph&#45;[object Object] -->
<!-- src/page.ts -->
<g id="node2" class="node">
<title>src/page.ts</title>
<path fill="none" stroke="#000000" d="M184.33,-200C184.33,-200 138.67,-200 138.67,-200 134.83,-200 131,-196.17 131,-192.33 131,-192.33 131,-184.67 131,-184.67 131,-180.83 134.83,-177 138.67,-177 138.67,-177 184.33,-177 184.33,-177 188.17,-177 192,-180.83 192,-184.67 192,-184.67 192,-192.33 192,-192.33 192,-196.17 188.17,-200 184.33,-200"/>
<text text-anchor="middle" x="161.5" y="-184.8" font-family="Arial" font-size="14.00" fill="#000000">page.ts</text>
</g>
<!-- src/resource.ts -->
<g id="node3" class="node">
<title>src/resource.ts</title>
<path fill="none" stroke="#000000" d="M145.33,-141C145.33,-141 77.67,-141 77.67,-141 73.83,-141 70,-137.17 70,-133.33 70,-133.33 70,-125.67 70,-125.67 70,-121.83 73.83,-118 77.67,-118 77.67,-118 145.33,-118 145.33,-118 149.17,-118 153,-121.83 153,-125.67 153,-125.67 153,-133.33 153,-133.33 153,-137.17 149.17,-141 145.33,-141"/>
<text text-anchor="middle" x="111.5" y="-125.8" font-family="Arial" font-size="14.00" fill="#000000">resource.ts</text>
</g>
<!-- src/page.ts&#45;&gt;src/resource.ts -->
<!-- src/page.ts&#45;&gt;src/resource.ts -->
<g id="edge21" class="edge">
<title>src/page.ts&#45;&gt;src/resource.ts</title>
<path fill="none" stroke="black" d="M157.51,-176.78C151.92,-168.82 142.54,-157.77 133.59,-148.47"/>
<polygon fill="black" stroke="black" points="135.82,-145.75 126.27,-141.17 130.88,-150.71 135.82,-145.75"/>
</g>
<!-- exit_src -->
<!-- src/page.ts&#45;&gt;exit_src -->
<!-- src/resource.ts&#45;&gt;exit_src -->
<!-- src/site.ts -->
<g id="node4" class="node">
<title>src/site.ts</title>
<path fill="none" stroke="#000000" d="M84.83,-200C84.83,-200 46.17,-200 46.17,-200 42.33,-200 38.5,-196.17 38.5,-192.33 38.5,-192.33 38.5,-184.67 38.5,-184.67 38.5,-180.83 42.33,-177 46.17,-177 46.17,-177 84.83,-177 84.83,-177 88.67,-177 92.5,-180.83 92.5,-184.67 92.5,-184.67 92.5,-192.33 92.5,-192.33 92.5,-196.17 88.67,-200 84.83,-200"/>
<text text-anchor="middle" x="65.5" y="-184.8" font-family="Arial" font-size="14.00" fill="#000000">site.ts</text>
</g>
<!-- src/site.ts&#45;&gt;src/resource.ts -->
<!-- src/site.ts&#45;&gt;src/resource.ts -->
<g id="edge23" class="edge">
<title>src/site.ts&#45;&gt;src/resource.ts</title>
<path fill="none" stroke="black" d="M79.56,-176.78C87.07,-169.14 95.87,-158.65 102.5,-149.6"/>
<polygon fill="black" stroke="black" points="105.51,-151.4 108.29,-141.17 99.74,-147.43 105.51,-151.4"/>
</g>
<!-- src/site.ts&#45;&gt;exit_src -->
<!-- src/common.ts -->
<g id="node5" class="node">
<title>src/common.ts</title>
<path fill="none" stroke="#ff0000" stroke-width="5" d="M139.33,-259C139.33,-259 91.67,-259 91.67,-259 87.83,-259 84,-255.17 84,-251.33 84,-251.33 84,-243.67 84,-243.67 84,-239.83 87.83,-236 91.67,-236 91.67,-236 139.33,-236 139.33,-236 143.17,-236 147,-239.83 147,-243.67 147,-243.67 147,-251.33 147,-251.33 147,-255.17 143.17,-259 139.33,-259"/>
<text text-anchor="middle" x="115.5" y="-243.8" font-family="Arial" font-size="14.00" fill="#000000">common.ts</text>
</g>
<!-- src/common.ts&#45;&gt;src/page.ts -->
<!-- src/common.ts&#45;&gt;src/page.ts -->
<g id="edge13" class="edge">
<title>src/common.ts&#45;&gt;src/page.ts</title>
<path fill="none" stroke="black" d="M129.56,-235.78C137.07,-228.14 145.87,-217.65 152.5,-208.6"/>
<polygon fill="black" stroke="black" points="155.51,-210.4 158.29,-200.17 149.74,-206.43 155.51,-210.4"/>
</g>
<!-- src/common.ts&#45;&gt;src/resource.ts -->
<!-- src/common.ts&#45;&gt;src/resource.ts -->
<g id="edge15" class="edge">
<title>src/common.ts&#45;&gt;src/resource.ts</title>
<path fill="none" stroke="black" d="M119.24,-235.79C121.63,-216.63 120.64,-176.15 117.54,-151.34"/>
<polygon fill="black" stroke="black" points="120.96,-150.53 115.98,-141.18 114.04,-151.6 120.96,-150.53"/>
</g>
<!-- src/common.ts&#45;&gt;src/site.ts -->
<!-- src/common.ts&#45;&gt;src/site.ts -->
<g id="edge17" class="edge">
<title>src/common.ts&#45;&gt;src/site.ts</title>
<path fill="none" stroke="black" d="M111.51,-235.78C105.92,-227.82 96.54,-216.77 87.59,-207.47"/>
<polygon fill="black" stroke="black" points="89.82,-204.75 80.27,-200.17 84.88,-209.71 89.82,-204.75"/>
</g>
<!-- src/common.ts&#45;&gt;exit_src -->
<!-- name_src -->
<g id="node6" class="node">
<title>name_src</title>
<path fill="none" stroke="#ff0000" stroke-width="5" d="M220.83,-318C220.83,-318 182.17,-318 182.17,-318 178.33,-318 174.5,-314.17 174.5,-310.33 174.5,-310.33 174.5,-302.67 174.5,-302.67 174.5,-298.83 178.33,-295 182.17,-295 182.17,-295 220.83,-295 220.83,-295 224.67,-295 228.5,-298.83 228.5,-302.67 228.5,-302.67 228.5,-310.33 228.5,-310.33 228.5,-314.17 224.67,-318 220.83,-318"/>
<text text-anchor="middle" x="201.5" y="-302.8" font-family="Arial" font-size="14.00" fill="#000000">src</text>
</g>
<!-- exit_src&#45;&gt;dependency&#45;graph&#45;[object Object] -->
<!-- exit_src&#45;&gt;exit_src -->
<!-- exit_src&#45;&gt;exit_src -->
<!-- exit_src&#45;&gt;exit_src -->
<!-- exit_src&#45;&gt;exit_src -->
<!-- exit_src&#45;&gt;exit_src -->
<!-- src/native.ts -->
<g id="node8" class="node">
<title>src/native.ts</title>
<path fill="none" stroke="#000000" d="M141.33,-318C141.33,-318 89.67,-318 89.67,-318 85.83,-318 82,-314.17 82,-310.33 82,-310.33 82,-302.67 82,-302.67 82,-298.83 85.83,-295 89.67,-295 89.67,-295 141.33,-295 141.33,-295 145.17,-295 149,-298.83 149,-302.67 149,-302.67 149,-310.33 149,-310.33 149,-314.17 145.17,-318 141.33,-318"/>
<text text-anchor="middle" x="115.5" y="-302.8" font-family="Arial" font-size="14.00" fill="#000000">native.ts</text>
</g>
<!-- src/native.ts&#45;&gt;src/common.ts -->
<!-- src/native.ts&#45;&gt;src/common.ts -->
<g id="edge19" class="edge">
<title>src/native.ts&#45;&gt;src/common.ts</title>
<path fill="none" stroke="black" d="M120.91,-294.78C122.17,-287.61 122.54,-277.95 122.03,-269.31"/>
<polygon fill="black" stroke="black" points="125.48,-268.73 120.9,-259.17 118.53,-269.5 125.48,-268.73"/>
</g>
<!-- src/native.ts&#45;&gt;exit_src -->
</g>
</svg>
