<?xml version="1.0" encoding="UTF-8" standalone="no"?>
<!DOCTYPE svg PUBLIC "-//W3C//DTD SVG 1.1//EN"
 "http://www.w3.org/Graphics/SVG/1.1/DTD/svg11.dtd">
<!-- Generated by graphviz version 2.43.0 (0)
 -->
<!-- Title: dependency&#45;graph&#45;@siteimprove/alfa&#45;web Pages: 1 -->
<svg width="285pt" height="350pt"
 viewBox="0.00 0.00 285.20 350.20" xmlns="http://www.w3.org/2000/svg" xmlns:xlink="http://www.w3.org/1999/xlink">
<g id="graph0" class="graph" transform="scale(1 1) rotate(0) translate(21.6 328.6)">
<title>dependency&#45;graph&#45;@siteimprove/alfa&#45;web</title>
<polygon fill="#ffffff" stroke="transparent" points="-21.6,21.6 -21.6,-328.6 263.6,-328.6 263.6,21.6 -21.6,21.6"/>
<g id="clust1" class="cluster">
<title>cluster_src</title>
<polygon fill="#ffffff" stroke="#000000" points="8,-8 8,-299 234,-299 234,-8 8,-8"/>
</g>
<g id="clust2" class="cluster">
<title>cluster_src</title>
<polygon fill="#ffffff" stroke="#000000" points="16,-16 16,-291 226,-291 226,-16 16,-16"/>
</g>
<!-- src/resource.ts -->
<g id="node1" class="node">
<title>src/resource.ts</title>
<path fill="none" stroke="#000000" d="M138.83,-106C138.83,-106 71.17,-106 71.17,-106 67.33,-106 63.5,-102.17 63.5,-98.33 63.5,-98.33 63.5,-90.67 63.5,-90.67 63.5,-86.83 67.33,-83 71.17,-83 71.17,-83 138.83,-83 138.83,-83 142.67,-83 146.5,-86.83 146.5,-90.67 146.5,-90.67 146.5,-98.33 146.5,-98.33 146.5,-102.17 142.67,-106 138.83,-106"/>
<text text-anchor="middle" x="105" y="-90.8" font-family="Arial" font-size="14.00" fill="#000000">resource.ts</text>
</g>
<!-- exit_src -->
<!-- src/resource.ts&#45;&gt;exit_src -->
<!-- src/page.ts -->
<g id="node2" class="node">
<title>src/page.ts</title>
<path fill="none" stroke="#000000" d="M77.83,-165C77.83,-165 32.17,-165 32.17,-165 28.33,-165 24.5,-161.17 24.5,-157.33 24.5,-157.33 24.5,-149.67 24.5,-149.67 24.5,-145.83 28.33,-142 32.17,-142 32.17,-142 77.83,-142 77.83,-142 81.67,-142 85.5,-145.83 85.5,-149.67 85.5,-149.67 85.5,-157.33 85.5,-157.33 85.5,-161.17 81.67,-165 77.83,-165"/>
<text text-anchor="middle" x="55" y="-149.8" font-family="Arial" font-size="14.00" fill="#000000">page.ts</text>
</g>
<!-- src/page.ts&#45;&gt;src/resource.ts -->
<!-- src/page.ts&#45;&gt;src/resource.ts -->
<g id="edge12" class="edge">
<title>src/page.ts&#45;&gt;src/resource.ts</title>
<path fill="none" stroke="black" stroke-dasharray="1,5" d="M69.82,-141.78C77.94,-134.06 87.59,-123.43 94.89,-114.31"/>
<polygon fill="black" stroke="black" points="97.8,-116.26 101.04,-106.17 92.22,-112.04 97.8,-116.26"/>
</g>
<!-- src/page.ts&#45;&gt;exit_src -->
<!-- src/site.ts -->
<g id="node3" class="node">
<title>src/site.ts</title>
<path fill="none" stroke="#000000" d="M170.33,-165C170.33,-165 131.67,-165 131.67,-165 127.83,-165 124,-161.17 124,-157.33 124,-157.33 124,-149.67 124,-149.67 124,-145.83 127.83,-142 131.67,-142 131.67,-142 170.33,-142 170.33,-142 174.17,-142 178,-145.83 178,-149.67 178,-149.67 178,-157.33 178,-157.33 178,-161.17 174.17,-165 170.33,-165"/>
<text text-anchor="middle" x="151" y="-149.8" font-family="Arial" font-size="14.00" fill="#000000">site.ts</text>
</g>
<!-- src/site.ts&#45;&gt;src/resource.ts -->
<!-- src/site.ts&#45;&gt;src/resource.ts -->
<g id="edge20" class="edge">
<title>src/site.ts&#45;&gt;src/resource.ts</title>
<path fill="none" stroke="black" stroke-dasharray="1,5" d="M147.76,-141.78C142.78,-133.9 134.29,-122.99 126.08,-113.75"/>
<polygon fill="black" stroke="black" points="128.39,-111.1 119.02,-106.17 123.27,-115.88 128.39,-111.1"/>
</g>
<!-- src/site.ts&#45;&gt;exit_src -->
<!-- src/index.ts -->
<g id="node4" class="node">
<title>src/index.ts</title>
<path fill="none" stroke="#ff0000" stroke-width="5" d="M130.83,-224C130.83,-224 83.17,-224 83.17,-224 79.33,-224 75.5,-220.17 75.5,-216.33 75.5,-216.33 75.5,-208.67 75.5,-208.67 75.5,-204.83 79.33,-201 83.17,-201 83.17,-201 130.83,-201 130.83,-201 134.67,-201 138.5,-204.83 138.5,-208.67 138.5,-208.67 138.5,-216.33 138.5,-216.33 138.5,-220.17 134.67,-224 130.83,-224"/>
<text text-anchor="middle" x="107" y="-208.8" font-family="Arial" font-size="14.00" fill="#000000">index.ts</text>
</g>
<!-- src/index.ts&#45;&gt;src/resource.ts -->
<!-- src/index.ts&#45;&gt;src/resource.ts -->
<g id="edge16" class="edge">
<title>src/index.ts&#45;&gt;src/resource.ts</title>
<path fill="none" stroke="black" d="M110.93,-200.79C113.65,-181.63 113.35,-141.15 110.68,-116.34"/>
<polygon fill="black" stroke="black" points="114.12,-115.61 109.29,-106.18 107.18,-116.56 114.12,-115.61"/>
</g>
<!-- src/index.ts&#45;&gt;src/page.ts -->
<!-- src/index.ts&#45;&gt;src/page.ts -->
<g id="edge14" class="edge">
<title>src/index.ts&#45;&gt;src/page.ts</title>
<path fill="none" stroke="black" d="M102.63,-200.78C96.71,-192.74 86.8,-181.55 77.44,-172.19"/>
<polygon fill="black" stroke="black" points="79.77,-169.58 70.14,-165.17 74.92,-174.63 79.77,-169.58"/>
</g>
<!-- src/index.ts&#45;&gt;src/site.ts -->
<!-- src/index.ts&#45;&gt;src/site.ts -->
<g id="edge18" class="edge">
<title>src/index.ts&#45;&gt;src/site.ts</title>
<path fill="none" stroke="black" d="M120.69,-200.78C127.93,-193.14 136.35,-182.65 142.67,-173.6"/>
<polygon fill="black" stroke="black" points="145.63,-175.46 148.16,-165.17 139.77,-171.64 145.63,-175.46"/>
</g>
<!-- src/index.ts&#45;&gt;exit_src -->
<!-- exit_src&#45;&gt;exit_src -->
<!-- exit_src&#45;&gt;exit_src -->
<!-- exit_src&#45;&gt;exit_src -->
<!-- exit_src&#45;&gt;exit_src -->
<!-- exit_src&#45;&gt;exit_src -->
<!-- name_src -->
<g id="node6" class="node">
<title>name_src</title>
<path fill="none" stroke="#ff0000" stroke-width="5" d="M208.33,-283C208.33,-283 169.67,-283 169.67,-283 165.83,-283 162,-279.17 162,-275.33 162,-275.33 162,-267.67 162,-267.67 162,-263.83 165.83,-260 169.67,-260 169.67,-260 208.33,-260 208.33,-260 212.17,-260 216,-263.83 216,-267.67 216,-267.67 216,-275.33 216,-275.33 216,-279.17 212.17,-283 208.33,-283"/>
<text text-anchor="middle" x="189" y="-267.8" font-family="Arial" font-size="14.00" fill="#000000">src</text>
</g>
<!-- src/native.ts -->
<g id="node7" class="node">
<title>src/native.ts</title>
<path fill="none" stroke="#000000" d="M132.83,-283C132.83,-283 81.17,-283 81.17,-283 77.33,-283 73.5,-279.17 73.5,-275.33 73.5,-275.33 73.5,-267.67 73.5,-267.67 73.5,-263.83 77.33,-260 81.17,-260 81.17,-260 132.83,-260 132.83,-260 136.67,-260 140.5,-263.83 140.5,-267.67 140.5,-267.67 140.5,-275.33 140.5,-275.33 140.5,-279.17 136.67,-283 132.83,-283"/>
<text text-anchor="middle" x="107" y="-267.8" font-family="Arial" font-size="14.00" fill="#000000">native.ts</text>
</g>
<!-- src/native.ts&#45;&gt;src/index.ts -->
<!-- src/native.ts&#45;&gt;src/index.ts -->
<g id="edge22" class="edge">
<title>src/native.ts&#45;&gt;src/index.ts</title>
<path fill="none" stroke="black" stroke-dasharray="1,5" d="M112.41,-259.78C113.67,-252.61 114.04,-242.95 113.53,-234.31"/>
<polygon fill="black" stroke="black" points="116.98,-233.73 112.4,-224.17 110.03,-234.5 116.98,-233.73"/>
</g>
<!-- src/native.ts&#45;&gt;exit_src -->
</g>
</svg>
