<?xml version="1.0" encoding="UTF-8" standalone="no"?>
<!DOCTYPE svg PUBLIC "-//W3C//DTD SVG 1.1//EN"
 "http://www.w3.org/Graphics/SVG/1.1/DTD/svg11.dtd">
<!-- Generated by graphviz version 2.43.0 (0)
 -->
<!-- Title: dependency&#45;graph&#45;@siteimprove/alfa&#45;xpath Pages: 1 -->
<svg width="913pt" height="653pt"
 viewBox="0.00 0.00 913.20 653.20" xmlns="http://www.w3.org/2000/svg" xmlns:xlink="http://www.w3.org/1999/xlink">
<g id="graph0" class="graph" transform="scale(1 1) rotate(0) translate(21.6 631.6)">
<title>dependency&#45;graph&#45;@siteimprove/alfa&#45;xpath</title>
<polygon fill="#ffffff" stroke="transparent" points="-21.6,21.6 -21.6,-631.6 891.6,-631.6 891.6,21.6 -21.6,21.6"/>
<g id="clust1" class="cluster">
<title>cluster_src</title>
<polygon fill="#ffffff" stroke="#000000" points="8,-8 8,-602 862,-602 862,-8 8,-8"/>
</g>
<g id="clust2" class="cluster">
<title>cluster_src</title>
<polygon fill="#ffffff" stroke="#000000" points="16,-16 16,-594 854,-594 854,-16 16,-16"/>
</g>
<g id="clust3" class="cluster">
<title>cluster_src/functions</title>
<polygon fill="#ffffff" stroke="#000000" points="655,-429 655,-586 824,-586 824,-429 655,-429"/>
</g>
<g id="clust4" class="cluster">
<title>cluster_src/syntax</title>
<polygon fill="#ffffff" stroke="#000000" points="36,-75 36,-291 194,-291 194,-75 36,-75"/>
</g>
<!-- src/function.ts -->
<g id="node1" class="node">
<title>src/function.ts</title>
<path fill="none" stroke="#000000" d="M724.33,-401C724.33,-401 661.67,-401 661.67,-401 657.83,-401 654,-397.17 654,-393.33 654,-393.33 654,-385.67 654,-385.67 654,-381.83 657.83,-378 661.67,-378 661.67,-378 724.33,-378 724.33,-378 728.17,-378 732,-381.83 732,-385.67 732,-385.67 732,-393.33 732,-393.33 732,-397.17 728.17,-401 724.33,-401"/>
<text text-anchor="middle" x="693" y="-385.8" font-family="Arial" font-size="14.00" fill="#000000">function.ts</text>
</g>
<!-- src/types.ts -->
<g id="node2" class="node">
<title>src/types.ts</title>
<path fill="none" stroke="#000000" d="M573.83,-165C573.83,-165 526.17,-165 526.17,-165 522.33,-165 518.5,-161.17 518.5,-157.33 518.5,-157.33 518.5,-149.67 518.5,-149.67 518.5,-145.83 522.33,-142 526.17,-142 526.17,-142 573.83,-142 573.83,-142 577.67,-142 581.5,-145.83 581.5,-149.67 581.5,-149.67 581.5,-157.33 581.5,-157.33 581.5,-161.17 577.67,-165 573.83,-165"/>
<text text-anchor="middle" x="550" y="-149.8" font-family="Arial" font-size="14.00" fill="#000000">types.ts</text>
</g>
<!-- src/function.ts&#45;&gt;src/types.ts -->
<!-- src/function.ts&#45;&gt;src/types.ts -->
<g id="edge92" class="edge">
<title>src/function.ts&#45;&gt;src/types.ts</title>
<path fill="none" stroke="black" stroke-dasharray="1,5" d="M710.31,-377.81C739,-355.3 789.41,-301.66 764,-260 727.05,-199.42 642.96,-172.15 591.75,-161.11"/>
<polygon fill="black" stroke="black" points="592.16,-157.62 581.67,-159.05 590.76,-164.48 592.16,-157.62"/>
</g>
<!-- src/environment.ts -->
<g id="node13" class="node">
<title>src/environment.ts</title>
<path fill="none" stroke="#000000" d="M738.33,-283C738.33,-283 647.67,-283 647.67,-283 643.83,-283 640,-279.17 640,-275.33 640,-275.33 640,-267.67 640,-267.67 640,-263.83 643.83,-260 647.67,-260 647.67,-260 738.33,-260 738.33,-260 742.17,-260 746,-263.83 746,-267.67 746,-267.67 746,-275.33 746,-275.33 746,-279.17 742.17,-283 738.33,-283"/>
<text text-anchor="middle" x="693" y="-267.8" font-family="Arial" font-size="14.00" fill="#000000">environment.ts</text>
</g>
<!-- src/function.ts&#45;&gt;src/environment.ts -->
<!-- src/function.ts&#45;&gt;src/environment.ts -->
<g id="edge88" class="edge">
<title>src/function.ts&#45;&gt;src/environment.ts</title>
<path fill="none" stroke="black" stroke-dasharray="1,5" d="M705.34,-377.79C714.57,-358.46 715.72,-317.42 708.79,-292.68"/>
<polygon fill="black" stroke="black" points="712.04,-291.37 705.33,-283.18 705.47,-293.77 712.04,-291.37"/>
</g>
<!-- src/evaluate.ts -->
<g id="node14" class="node">
<title>src/evaluate.ts</title>
<path fill="none" stroke="#000000" d="M571.33,-342C571.33,-342 504.67,-342 504.67,-342 500.83,-342 497,-338.17 497,-334.33 497,-334.33 497,-326.67 497,-326.67 497,-322.83 500.83,-319 504.67,-319 504.67,-319 571.33,-319 571.33,-319 575.17,-319 579,-322.83 579,-326.67 579,-326.67 579,-334.33 579,-334.33 579,-338.17 575.17,-342 571.33,-342"/>
<text text-anchor="middle" x="538" y="-326.8" font-family="Arial" font-size="14.00" fill="#000000">evaluate.ts</text>
</g>
<!-- src/function.ts&#45;&gt;src/evaluate.ts -->
<!-- src/function.ts&#45;&gt;src/evaluate.ts -->
<g id="edge90" class="edge">
<title>src/function.ts&#45;&gt;src/evaluate.ts</title>
<path fill="none" stroke="black" stroke-dasharray="1,5" d="M658.82,-377.91C632.52,-368.83 596.57,-355.68 570.66,-345.69"/>
<polygon fill="black" stroke="black" points="571.85,-342.4 561.26,-342.03 569.31,-348.92 571.85,-342.4"/>
</g>
<!-- exit_src -->
<!-- src/function.ts&#45;&gt;exit_src -->
<!-- src/descriptors.ts -->
<g id="node5" class="node">
<title>src/descriptors.ts</title>
<path fill="none" stroke="#000000" d="M641.83,-106C641.83,-106 560.17,-106 560.17,-106 556.33,-106 552.5,-102.17 552.5,-98.33 552.5,-98.33 552.5,-90.67 552.5,-90.67 552.5,-86.83 556.33,-83 560.17,-83 560.17,-83 641.83,-83 641.83,-83 645.67,-83 649.5,-86.83 649.5,-90.67 649.5,-90.67 649.5,-98.33 649.5,-98.33 649.5,-102.17 645.67,-106 641.83,-106"/>
<text text-anchor="middle" x="601" y="-90.8" font-family="Arial" font-size="14.00" fill="#000000">descriptors.ts</text>
</g>
<!-- src/types.ts&#45;&gt;src/descriptors.ts -->
<!-- src/types.ts&#45;&gt;src/descriptors.ts -->
<g id="edge116" class="edge">
<title>src/types.ts&#45;&gt;src/descriptors.ts</title>
<path fill="none" stroke="black" stroke-dasharray="1,5" d="M565,-141.78C573.27,-134.06 583.1,-123.43 590.56,-114.31"/>
<polygon fill="black" stroke="black" points="593.5,-116.22 596.85,-106.17 587.97,-111.94 593.5,-116.22"/>
</g>
<!-- src/types.ts&#45;&gt;exit_src -->
<!-- src/matches.ts -->
<g id="node3" class="node">
<title>src/matches.ts</title>
<path fill="none" stroke="#000000" d="M513.83,-224C513.83,-224 446.17,-224 446.17,-224 442.33,-224 438.5,-220.17 438.5,-216.33 438.5,-216.33 438.5,-208.67 438.5,-208.67 438.5,-204.83 442.33,-201 446.17,-201 446.17,-201 513.83,-201 513.83,-201 517.67,-201 521.5,-204.83 521.5,-208.67 521.5,-208.67 521.5,-216.33 521.5,-216.33 521.5,-220.17 517.67,-224 513.83,-224"/>
<text text-anchor="middle" x="480" y="-208.8" font-family="Arial" font-size="14.00" fill="#000000">matches.ts</text>
</g>
<!-- src/matches.ts&#45;&gt;src/types.ts -->
<!-- src/matches.ts&#45;&gt;src/types.ts -->
<g id="edge120" class="edge">
<title>src/matches.ts&#45;&gt;src/types.ts</title>
<path fill="none" stroke="black" stroke-dasharray="1,5" d="M498.58,-200.78C509.98,-192.66 524.17,-181.33 534.89,-171.92"/>
<polygon fill="black" stroke="black" points="537.26,-174.49 542.3,-165.17 532.54,-169.32 537.26,-174.49"/>
</g>
<!-- src/matches.ts&#45;&gt;src/descriptors.ts -->
<!-- src/matches.ts&#45;&gt;src/descriptors.ts -->
<g id="edge118" class="edge">
<title>src/matches.ts&#45;&gt;src/descriptors.ts</title>
<path fill="none" stroke="black" d="M488.18,-200.83C494.75,-186 503,-159.07 519,-142 531.96,-128.17 549.95,-117.79 565.86,-110.38"/>
<polygon fill="black" stroke="black" points="567.7,-113.39 575.44,-106.15 564.87,-106.99 567.7,-113.39"/>
</g>
<!-- src/matches.ts&#45;&gt;exit_src -->
<!-- src/expression.ts -->
<g id="node4" class="node">
<title>src/expression.ts</title>
<path fill="none" stroke="#000000" d="M352.33,-106C352.33,-106 271.67,-106 271.67,-106 267.83,-106 264,-102.17 264,-98.33 264,-98.33 264,-90.67 264,-90.67 264,-86.83 267.83,-83 271.67,-83 271.67,-83 352.33,-83 352.33,-83 356.17,-83 360,-86.83 360,-90.67 360,-90.67 360,-98.33 360,-98.33 360,-102.17 356.17,-106 352.33,-106"/>
<text text-anchor="middle" x="312" y="-90.8" font-family="Arial" font-size="14.00" fill="#000000">expression.ts</text>
</g>
<!-- src/expression.ts&#45;&gt;exit_src -->
<!-- src/descriptors.ts&#45;&gt;exit_src -->
<!-- exit_src/functions -->
<!-- exit_src/functions&#45;&gt;src/function.ts -->
<g id="edge51" class="edge">
<title>exit_src/functions&#45;&gt;src/function.ts</title>
<path fill="none" stroke="#00ff00" stroke-dasharray="1,5" d="M728.51,-429C720.82,-422.42 712.79,-415.01 706.23,-408.47"/>
<polygon fill="#00ff00" stroke="#00ff00" points="708.66,-405.95 699.21,-401.17 703.62,-410.81 708.66,-405.95"/>
</g>
<!-- exit_src/functions&#45;&gt;src/function.ts -->
<!-- exit_src/functions&#45;&gt;src/descriptors.ts -->
<g id="edge49" class="edge">
<title>exit_src/functions&#45;&gt;src/descriptors.ts</title>
<path fill="none" stroke="#00ff00" d="M760.39,-429C769.47,-394.5 784.79,-318.52 763,-260 750.91,-227.52 738.18,-223.72 712,-201 689.65,-181.61 677.92,-184.87 656,-165 639.38,-149.94 623.86,-129.5 613.57,-114.69"/>
<polygon fill="#00ff00" stroke="#00ff00" points="616.39,-112.6 607.88,-106.29 610.59,-116.53 616.39,-112.6"/>
</g>
<!-- exit_src/functions&#45;&gt;exit_src -->
<!-- exit_src/functions&#45;&gt;exit_src -->
<!-- exit_src/syntax -->
<!-- exit_src/syntax&#45;&gt;src/expression.ts -->
<g id="edge53" class="edge">
<title>exit_src/syntax&#45;&gt;src/expression.ts</title>
<path fill="none" stroke="#0000ff" d="M194,-94.5C213.93,-94.5 233.87,-94.5 253.81,-94.5"/>
<polygon fill="#0000ff" stroke="#0000ff" points="253.82,-98 263.82,-94.5 253.82,-91 253.82,-98"/>
</g>
<!-- exit_src/syntax&#45;&gt;exit_src -->
<!-- exit_src/syntax&#45;&gt;exit_src -->
<!-- exit_src/syntax&#45;&gt;exit_src -->
<!-- src/syntax/lexer.ts -->
<g id="node8" class="node">
<title>src/syntax/lexer.ts</title>
<path fill="none" stroke="#000000" d="M115.83,-224C115.83,-224 72.17,-224 72.17,-224 68.33,-224 64.5,-220.17 64.5,-216.33 64.5,-216.33 64.5,-208.67 64.5,-208.67 64.5,-204.83 68.33,-201 72.17,-201 72.17,-201 115.83,-201 115.83,-201 119.67,-201 123.5,-204.83 123.5,-208.67 123.5,-208.67 123.5,-216.33 123.5,-216.33 123.5,-220.17 119.67,-224 115.83,-224"/>
<text text-anchor="middle" x="94" y="-208.8" font-family="Arial" font-size="14.00" fill="#000000">lexer.ts</text>
</g>
<!-- src/syntax/lexer.ts&#45;&gt;exit_src/syntax -->
<!-- src/syntax/token.ts -->
<g id="node9" class="node">
<title>src/syntax/token.ts</title>
<path fill="none" stroke="#000000" d="M158.33,-165C158.33,-165 109.67,-165 109.67,-165 105.83,-165 102,-161.17 102,-157.33 102,-157.33 102,-149.67 102,-149.67 102,-145.83 105.83,-142 109.67,-142 109.67,-142 158.33,-142 158.33,-142 162.17,-142 166,-145.83 166,-149.67 166,-149.67 166,-157.33 166,-157.33 166,-161.17 162.17,-165 158.33,-165"/>
<text text-anchor="middle" x="134" y="-149.8" font-family="Arial" font-size="14.00" fill="#000000">token.ts</text>
</g>
<!-- src/syntax/lexer.ts&#45;&gt;src/syntax/token.ts -->
<!-- src/syntax/lexer.ts&#45;&gt;src/syntax/token.ts -->
<g id="edge63" class="edge">
<title>src/syntax/lexer.ts&#45;&gt;src/syntax/token.ts</title>
<path fill="none" stroke="black" d="M106.94,-200.78C113.57,-193.22 121.17,-182.87 126.83,-173.88"/>
<polygon fill="black" stroke="black" points="129.9,-175.57 131.91,-165.17 123.85,-172.05 129.9,-175.57"/>
</g>
<!-- src/syntax/token.ts&#45;&gt;exit_src/syntax -->
<!-- src/functions/fn.ts -->
<g id="node10" class="node">
<title>src/functions/fn.ts</title>
<path fill="none" stroke="#000000" d="M803.33,-519C803.33,-519 764.67,-519 764.67,-519 760.83,-519 757,-515.17 757,-511.33 757,-511.33 757,-503.67 757,-503.67 757,-499.83 760.83,-496 764.67,-496 764.67,-496 803.33,-496 803.33,-496 807.17,-496 811,-499.83 811,-503.67 811,-503.67 811,-511.33 811,-511.33 811,-515.17 807.17,-519 803.33,-519"/>
<text text-anchor="middle" x="784" y="-503.8" font-family="Arial" font-size="14.00" fill="#000000">fn.ts</text>
</g>
<!-- src/functions/fn.ts&#45;&gt;src/function.ts -->
<!-- src/functions/fn.ts&#45;&gt;src/descriptors.ts -->
<!-- src/functions/fn.ts&#45;&gt;exit_src/functions -->
<!-- src/builder.ts -->
<g id="node11" class="node">
<title>src/builder.ts</title>
<path fill="none" stroke="#000000" d="M287.83,-283C287.83,-283 232.17,-283 232.17,-283 228.33,-283 224.5,-279.17 224.5,-275.33 224.5,-275.33 224.5,-267.67 224.5,-267.67 224.5,-263.83 228.33,-260 232.17,-260 232.17,-260 287.83,-260 287.83,-260 291.67,-260 295.5,-263.83 295.5,-267.67 295.5,-267.67 295.5,-275.33 295.5,-275.33 295.5,-279.17 291.67,-283 287.83,-283"/>
<text text-anchor="middle" x="260" y="-267.8" font-family="Arial" font-size="14.00" fill="#000000">builder.ts</text>
</g>
<!-- src/builder.ts&#45;&gt;src/expression.ts -->
<!-- src/builder.ts&#45;&gt;src/expression.ts -->
<g id="edge114" class="edge">
<title>src/builder.ts&#45;&gt;src/expression.ts</title>
<path fill="none" stroke="black" d="M266.62,-259.82C279.05,-231.44 302.5,-153.78 310.38,-116.29"/>
<polygon fill="black" stroke="black" points="313.9,-116.52 312.3,-106.04 307.02,-115.23 313.9,-116.52"/>
</g>
<!-- src/builder.ts&#45;&gt;exit_src -->
<!-- src/coerce.ts -->
<g id="node12" class="node">
<title>src/coerce.ts</title>
<path fill="none" stroke="#000000" d="M513.83,-283C513.83,-283 458.17,-283 458.17,-283 454.33,-283 450.5,-279.17 450.5,-275.33 450.5,-275.33 450.5,-267.67 450.5,-267.67 450.5,-263.83 454.33,-260 458.17,-260 458.17,-260 513.83,-260 513.83,-260 517.67,-260 521.5,-263.83 521.5,-267.67 521.5,-267.67 521.5,-275.33 521.5,-275.33 521.5,-279.17 517.67,-283 513.83,-283"/>
<text text-anchor="middle" x="486" y="-267.8" font-family="Arial" font-size="14.00" fill="#000000">coerce.ts</text>
</g>
<!-- src/coerce.ts&#45;&gt;src/types.ts -->
<!-- src/coerce.ts&#45;&gt;src/types.ts -->
<g id="edge45" class="edge">
<title>src/coerce.ts&#45;&gt;src/types.ts</title>
<path fill="none" stroke="black" stroke-dasharray="1,5" d="M507.1,-259.66C518.75,-251.01 531.99,-238.06 540,-224 548.6,-208.91 553.46,-189.74 554.67,-175.35"/>
<polygon fill="black" stroke="black" points="558.18,-175.08 554.86,-165.02 551.18,-174.95 558.18,-175.08"/>
</g>
<!-- src/coerce.ts&#45;&gt;src/matches.ts -->
<!-- src/coerce.ts&#45;&gt;src/matches.ts -->
<g id="edge43" class="edge">
<title>src/coerce.ts&#45;&gt;src/matches.ts</title>
<path fill="none" stroke="black" d="M490.28,-259.78C490.79,-252.53 490.13,-242.74 488.67,-234.02"/>
<polygon fill="black" stroke="black" points="492.07,-233.2 486.53,-224.17 485.23,-234.69 492.07,-233.2"/>
</g>
<!-- src/coerce.ts&#45;&gt;exit_src -->
<!-- src/environment.ts&#45;&gt;src/function.ts -->
<!-- src/environment.ts&#45;&gt;src/function.ts -->
<g id="edge39" class="edge">
<title>src/environment.ts&#45;&gt;src/function.ts</title>
<path fill="none" stroke="black" stroke-dasharray="1,5" d="M697.11,-283.18C700.16,-302.32 700.57,-342.8 698.33,-367.62"/>
<polygon fill="black" stroke="black" points="694.82,-367.45 697.11,-377.79 701.77,-368.28 694.82,-367.45"/>
</g>
<!-- src/environment.ts&#45;&gt;src/types.ts -->
<!-- src/environment.ts&#45;&gt;src/types.ts -->
<g id="edge41" class="edge">
<title>src/environment.ts&#45;&gt;src/types.ts</title>
<path fill="none" stroke="black" stroke-dasharray="1,5" d="M683.92,-259.79C662.14,-239.51 607.95,-195.34 575.43,-171.15"/>
<polygon fill="black" stroke="black" points="577.41,-168.26 567.27,-165.18 573.28,-173.91 577.41,-168.26"/>
</g>
<!-- src/environment.ts&#45;&gt;exit_src -->
<!-- src/evaluate.ts&#45;&gt;src/function.ts -->
<!-- src/evaluate.ts&#45;&gt;src/function.ts -->
<g id="edge104" class="edge">
<title>src/evaluate.ts&#45;&gt;src/function.ts</title>
<path fill="none" stroke="black" d="M579.04,-340.9C608.75,-349.85 646.57,-363.45 671.06,-373.83"/>
<polygon fill="black" stroke="black" points="669.81,-377.1 680.37,-377.91 672.62,-370.69 669.81,-377.1"/>
</g>
<!-- src/evaluate.ts&#45;&gt;src/types.ts -->
<!-- src/evaluate.ts&#45;&gt;src/types.ts -->
<g id="edge110" class="edge">
<title>src/evaluate.ts&#45;&gt;src/types.ts</title>
<path fill="none" stroke="black" stroke-dasharray="1,5" d="M542.18,-318.82C548.12,-290.44 553.82,-212.78 553.13,-175.29"/>
<polygon fill="black" stroke="black" points="556.62,-174.89 552.71,-165.04 549.62,-175.18 556.62,-174.89"/>
</g>
<!-- src/evaluate.ts&#45;&gt;src/matches.ts -->
<!-- src/evaluate.ts&#45;&gt;src/matches.ts -->
<g id="edge107" class="edge">
<title>src/evaluate.ts&#45;&gt;src/matches.ts</title>
<path fill="none" stroke="black" d="M545.26,-318.97C549.3,-304.77 549.59,-279.07 540,-260 534.01,-248.09 523.59,-237.75 512.99,-229.86"/>
<polygon fill="black" stroke="black" points="514.76,-226.83 504.53,-224.08 510.81,-232.61 514.76,-226.83"/>
</g>
<!-- src/evaluate.ts&#45;&gt;src/expression.ts -->
<!-- src/evaluate.ts&#45;&gt;src/expression.ts -->
<g id="edge102" class="edge">
<title>src/evaluate.ts&#45;&gt;src/expression.ts</title>
<path fill="none" stroke="black" stroke-dasharray="1,5" d="M504.56,-318.86C487.29,-312.8 466.74,-303.8 451,-291 389.46,-240.96 346.36,-154.02 325.27,-115.2"/>
<polygon fill="black" stroke="black" points="328.07,-113.04 320.15,-106.01 321.96,-116.45 328.07,-113.04"/>
</g>
<!-- src/evaluate.ts&#45;&gt;src/descriptors.ts -->
<!-- src/evaluate.ts&#45;&gt;src/descriptors.ts -->
<g id="edge98" class="edge">
<title>src/evaluate.ts&#45;&gt;src/descriptors.ts</title>
<path fill="none" stroke="black" d="M546.62,-318.9C560.99,-293.01 586.27,-224.34 600,-165 603.73,-148.88 606.31,-130.32 606.58,-116.44"/>
<polygon fill="black" stroke="black" points="610.08,-116.33 606.27,-106.44 603.08,-116.54 610.08,-116.33"/>
</g>
<!-- src/evaluate.ts&#45;&gt;src/builder.ts -->
<!-- src/evaluate.ts&#45;&gt;src/builder.ts -->
<g id="edge94" class="edge">
<title>src/evaluate.ts&#45;&gt;src/builder.ts</title>
<path fill="none" stroke="black" d="M496.85,-324.78C451.4,-319.36 376.71,-308.82 314,-291 309.77,-289.8 305.4,-288.32 301.05,-286.73"/>
<polygon fill="black" stroke="black" points="302.2,-283.42 291.61,-283.13 299.7,-289.96 302.2,-283.42"/>
</g>
<!-- src/evaluate.ts&#45;&gt;src/coerce.ts -->
<!-- src/evaluate.ts&#45;&gt;src/coerce.ts -->
<g id="edge96" class="edge">
<title>src/evaluate.ts&#45;&gt;src/coerce.ts</title>
<path fill="none" stroke="black" d="M533.63,-318.78C527.71,-310.74 517.8,-299.55 508.44,-290.19"/>
<polygon fill="black" stroke="black" points="510.77,-287.58 501.14,-283.17 505.92,-292.63 510.77,-287.58"/>
</g>
<!-- src/evaluate.ts&#45;&gt;src/environment.ts -->
<!-- src/evaluate.ts&#45;&gt;src/environment.ts -->
<g id="edge100" class="edge">
<title>src/evaluate.ts&#45;&gt;src/environment.ts</title>
<path fill="none" stroke="black" d="M572.18,-318.91C598.48,-309.83 634.43,-296.68 660.34,-286.69"/>
<polygon fill="black" stroke="black" points="661.69,-289.92 669.74,-283.03 659.15,-283.4 661.69,-289.92"/>
</g>
<!-- name_src/syntax -->
<g id="node15" class="node">
<title>name_src/syntax</title>
<path fill="none" stroke="#0000ff" stroke-width="5" d="M178.33,-283C178.33,-283 137.67,-283 137.67,-283 133.83,-283 130,-279.17 130,-275.33 130,-275.33 130,-267.67 130,-267.67 130,-263.83 133.83,-260 137.67,-260 137.67,-260 178.33,-260 178.33,-260 182.17,-260 186,-263.83 186,-267.67 186,-267.67 186,-275.33 186,-275.33 186,-279.17 182.17,-283 178.33,-283"/>
<text text-anchor="middle" x="158" y="-267.8" font-family="Arial" font-size="14.00" fill="#000000">syntax</text>
</g>
<!-- src/evaluate.ts&#45;&gt;name_src/syntax -->
<g id="edge108" class="edge">
<title>src/evaluate.ts&#45;&gt;name_src/syntax</title>
<path fill="none" stroke="#ff0000" d="M496.93,-330.35C432.65,-330.54 304.75,-326.3 199.76,-294.1"/>
<polygon fill="#ff0000" stroke="#ff0000" points="200.59,-290.69 190,-291 198.47,-297.36 200.59,-290.69"/>
</g>
<!-- src/walk.ts -->
<g id="node17" class="node">
<title>src/walk.ts</title>
<path fill="none" stroke="#000000" d="M364.33,-283C364.33,-283 321.67,-283 321.67,-283 317.83,-283 314,-279.17 314,-275.33 314,-275.33 314,-267.67 314,-267.67 314,-263.83 317.83,-260 321.67,-260 321.67,-260 364.33,-260 364.33,-260 368.17,-260 372,-263.83 372,-267.67 372,-267.67 372,-275.33 372,-275.33 372,-279.17 368.17,-283 364.33,-283"/>
<text text-anchor="middle" x="343" y="-267.8" font-family="Arial" font-size="14.00" fill="#000000">walk.ts</text>
</g>
<!-- src/evaluate.ts&#45;&gt;src/walk.ts -->
<!-- src/evaluate.ts&#45;&gt;src/walk.ts -->
<g id="edge112" class="edge">
<title>src/evaluate.ts&#45;&gt;src/walk.ts</title>
<path fill="none" stroke="black" d="M496.95,-319.2C468.08,-312.35 428.9,-302.5 395,-291 390.73,-289.55 386.29,-287.86 381.86,-286.1"/>
<polygon fill="black" stroke="black" points="382.84,-282.72 372.26,-282.21 380.21,-289.21 382.84,-282.72"/>
</g>
<!-- name_src/functions -->
<g id="node19" class="node">
<title>name_src/functions</title>
<path fill="none" stroke="#00ff00" stroke-width="5" d="M726.83,-578C726.83,-578 671.17,-578 671.17,-578 667.33,-578 663.5,-574.17 663.5,-570.33 663.5,-570.33 663.5,-562.67 663.5,-562.67 663.5,-558.83 667.33,-555 671.17,-555 671.17,-555 726.83,-555 726.83,-555 730.67,-555 734.5,-558.83 734.5,-562.67 734.5,-562.67 734.5,-570.33 734.5,-570.33 734.5,-574.17 730.67,-578 726.83,-578"/>
<text text-anchor="middle" x="699" y="-562.8" font-family="Arial" font-size="14.00" fill="#000000">functions</text>
</g>
<!-- src/evaluate.ts&#45;&gt;name_src/functions -->
<g id="edge105" class="edge">
<title>src/evaluate.ts&#45;&gt;name_src/functions</title>
<path fill="none" stroke="#ff0000" d="M545.38,-342.23C563.55,-368.63 611.7,-438.62 649.3,-493.26"/>
<polygon fill="#ff0000" stroke="#ff0000" points="646.45,-495.3 655,-501.55 652.22,-491.33 646.45,-495.3"/>
</g>
<!-- src/evaluate.ts&#45;&gt;exit_src -->
<!-- src/syntax/parser.ts -->
<g id="node16" class="node">
<title>src/syntax/parser.ts</title>
<path fill="none" stroke="#000000" d="M104.33,-283C104.33,-283 51.67,-283 51.67,-283 47.83,-283 44,-279.17 44,-275.33 44,-275.33 44,-267.67 44,-267.67 44,-263.83 47.83,-260 51.67,-260 51.67,-260 104.33,-260 104.33,-260 108.17,-260 112,-263.83 112,-267.67 112,-267.67 112,-275.33 112,-275.33 112,-279.17 108.17,-283 104.33,-283"/>
<text text-anchor="middle" x="78" y="-267.8" font-family="Arial" font-size="14.00" fill="#000000">parser.ts</text>
</g>
<!-- src/syntax/parser.ts&#45;&gt;src/expression.ts -->
<!-- src/syntax/parser.ts&#45;&gt;exit_src/syntax -->
<!-- src/syntax/parser.ts&#45;&gt;src/syntax/lexer.ts -->
<!-- src/syntax/parser.ts&#45;&gt;src/syntax/lexer.ts -->
<g id="edge55" class="edge">
<title>src/syntax/parser.ts&#45;&gt;src/syntax/lexer.ts</title>
<path fill="none" stroke="black" d="M86.42,-259.78C89.69,-252.61 92.77,-242.95 94.69,-234.31"/>
<polygon fill="black" stroke="black" points="98.18,-234.62 96.41,-224.17 91.28,-233.45 98.18,-234.62"/>
</g>
<!-- src/syntax/parser.ts&#45;&gt;src/syntax/token.ts -->
<!-- src/syntax/parser.ts&#45;&gt;src/syntax/token.ts -->
<g id="edge57" class="edge">
<title>src/syntax/parser.ts&#45;&gt;src/syntax/token.ts</title>
<path fill="none" stroke="black" d="M105.17,-259.91C119.22,-251.89 134.62,-239.6 142,-224 149.15,-208.87 148.85,-189.74 145.64,-175.39"/>
<polygon fill="black" stroke="black" points="148.9,-174.07 142.69,-165.48 142.19,-176.06 148.9,-174.07"/>
</g>
<!-- src/walk.ts&#45;&gt;src/expression.ts -->
<!-- src/walk.ts&#45;&gt;src/expression.ts -->
<g id="edge47" class="edge">
<title>src/walk.ts&#45;&gt;src/expression.ts</title>
<path fill="none" stroke="black" stroke-dasharray="1,5" d="M344.56,-259.82C343.52,-231.31 330.02,-153.11 320.11,-115.81"/>
<polygon fill="black" stroke="black" points="323.43,-114.68 317.3,-106.04 316.7,-116.62 323.43,-114.68"/>
</g>
<!-- src/walk.ts&#45;&gt;exit_src -->
<!-- src/functions/index.ts -->
<g id="node18" class="node">
<title>src/functions/index.ts</title>
<path fill="none" stroke="#00ff00" stroke-width="5" d="M807.83,-578C807.83,-578 760.17,-578 760.17,-578 756.33,-578 752.5,-574.17 752.5,-570.33 752.5,-570.33 752.5,-562.67 752.5,-562.67 752.5,-558.83 756.33,-555 760.17,-555 760.17,-555 807.83,-555 807.83,-555 811.67,-555 815.5,-558.83 815.5,-562.67 815.5,-562.67 815.5,-570.33 815.5,-570.33 815.5,-574.17 811.67,-578 807.83,-578"/>
<text text-anchor="middle" x="784" y="-562.8" font-family="Arial" font-size="14.00" fill="#000000">index.ts</text>
</g>
<!-- src/functions/index.ts&#45;&gt;src/function.ts -->
<!-- src/functions/index.ts&#45;&gt;exit_src/functions -->
<!-- src/functions/index.ts&#45;&gt;src/functions/fn.ts -->
<!-- src/functions/index.ts&#45;&gt;src/functions/fn.ts -->
<g id="edge61" class="edge">
<title>src/functions/index.ts&#45;&gt;src/functions/fn.ts</title>
<path fill="none" stroke="black" d="M789.41,-554.78C790.67,-547.61 791.04,-537.95 790.53,-529.31"/>
<polygon fill="black" stroke="black" points="793.98,-528.73 789.4,-519.17 787.03,-529.5 793.98,-528.73"/>
</g>
<!-- exit_src&#45;&gt;exit_src -->
<!-- exit_src&#45;&gt;exit_src -->
<!-- exit_src&#45;&gt;exit_src -->
<!-- exit_src&#45;&gt;exit_src -->
<!-- exit_src&#45;&gt;exit_src -->
<!-- exit_src&#45;&gt;exit_src -->
<!-- exit_src&#45;&gt;exit_src -->
<!-- exit_src&#45;&gt;exit_src -->
<!-- exit_src&#45;&gt;exit_src -->
<!-- exit_src&#45;&gt;exit_src -->
<!-- exit_src&#45;&gt;exit_src -->
<!-- exit_src&#45;&gt;exit_src -->
<!-- exit_src&#45;&gt;exit_src -->
<!-- exit_src&#45;&gt;exit_src -->
<!-- exit_src&#45;&gt;exit_src -->
<!-- exit_src&#45;&gt;exit_src -->
<!-- name_src -->
<g id="node21" class="node">
<title>name_src</title>
<path fill="none" stroke="#ff0000" stroke-width="5" d="M353.33,-578C353.33,-578 314.67,-578 314.67,-578 310.83,-578 307,-574.17 307,-570.33 307,-570.33 307,-562.67 307,-562.67 307,-558.83 310.83,-555 314.67,-555 314.67,-555 353.33,-555 353.33,-555 357.17,-555 361,-558.83 361,-562.67 361,-562.67 361,-570.33 361,-570.33 361,-574.17 357.17,-578 353.33,-578"/>
<text text-anchor="middle" x="334" y="-562.8" font-family="Arial" font-size="14.00" fill="#000000">src</text>
</g>
<!-- src/index.ts -->
<g id="node22" class="node">
<title>src/index.ts</title>
<path fill="none" stroke="#ff0000" stroke-width="5" d="M434.83,-460C434.83,-460 387.17,-460 387.17,-460 383.33,-460 379.5,-456.17 379.5,-452.33 379.5,-452.33 379.5,-444.67 379.5,-444.67 379.5,-440.83 383.33,-437 387.17,-437 387.17,-437 434.83,-437 434.83,-437 438.67,-437 442.5,-440.83 442.5,-444.67 442.5,-444.67 442.5,-452.33 442.5,-452.33 442.5,-456.17 438.67,-460 434.83,-460"/>
<text text-anchor="middle" x="411" y="-444.8" font-family="Arial" font-size="14.00" fill="#000000">index.ts</text>
</g>
<!-- src/index.ts&#45;&gt;src/function.ts -->
<!-- src/index.ts&#45;&gt;src/function.ts -->
<g id="edge77" class="edge">
<title>src/index.ts&#45;&gt;src/function.ts</title>
<path fill="none" stroke="black" d="M442.76,-441.93C491.81,-432.6 585.98,-413.65 643.84,-401.54"/>
<polygon fill="black" stroke="black" points="644.78,-404.92 653.85,-399.44 643.34,-398.07 644.78,-404.92"/>
</g>
<!-- src/index.ts&#45;&gt;src/types.ts -->
<!-- src/index.ts&#45;&gt;src/types.ts -->
<g id="edge84" class="edge">
<title>src/index.ts&#45;&gt;src/types.ts</title>
<path fill="none" stroke="black" d="M411.79,-436.77C408.17,-399.73 383.63,-275.36 439,-201 455.52,-178.81 484.13,-167.21 508.25,-161.14"/>
<polygon fill="black" stroke="black" points="509.29,-164.5 518.27,-158.87 507.74,-157.67 509.29,-164.5"/>
</g>
<!-- src/index.ts&#45;&gt;src/matches.ts -->
<!-- src/index.ts&#45;&gt;src/matches.ts -->
<g id="edge79" class="edge">
<title>src/index.ts&#45;&gt;src/matches.ts</title>
<path fill="none" stroke="black" d="M415.94,-436.91C426.48,-399.69 443.63,-276.31 451,-260 455.6,-249.81 463.02,-240 469.42,-232.04"/>
<polygon fill="black" stroke="black" points="472.2,-234.17 475.78,-224.2 466.77,-229.75 472.2,-234.17"/>
</g>
<!-- src/index.ts&#45;&gt;src/expression.ts -->
<!-- src/index.ts&#45;&gt;src/expression.ts -->
<g id="edge75" class="edge">
<title>src/index.ts&#45;&gt;src/expression.ts</title>
<path fill="none" stroke="black" d="M379.22,-443.42C323.33,-434.63 214,-408.05 214,-331.5 214,-331.5 214,-331.5 214,-211.5 214,-166.06 258.91,-130.81 288.09,-111.62"/>
<polygon fill="black" stroke="black" points="290.04,-114.53 296.57,-106.19 286.26,-108.63 290.04,-114.53"/>
</g>
<!-- src/index.ts&#45;&gt;src/descriptors.ts -->
<!-- src/index.ts&#45;&gt;src/descriptors.ts -->
<g id="edge69" class="edge">
<title>src/index.ts&#45;&gt;src/descriptors.ts</title>
<path fill="none" stroke="black" d="M442.69,-440.52C486.37,-428.17 562.88,-398.29 597,-342 641.22,-269.04 624.52,-160.48 610.68,-115.82"/>
<polygon fill="black" stroke="black" points="613.91,-114.45 607.35,-106.13 607.29,-116.72 613.91,-114.45"/>
</g>
<!-- src/index.ts&#45;&gt;src/builder.ts -->
<!-- src/index.ts&#45;&gt;src/builder.ts -->
<g id="edge65" class="edge">
<title>src/index.ts&#45;&gt;src/builder.ts</title>
<path fill="none" stroke="black" d="M405.23,-436.82C384.21,-407.7 314.62,-326.73 279.8,-290.46"/>
<polygon fill="black" stroke="black" points="282.03,-287.74 272.53,-283.04 277.03,-292.64 282.03,-287.74"/>
</g>
<!-- src/index.ts&#45;&gt;src/coerce.ts -->
<!-- src/index.ts&#45;&gt;src/coerce.ts -->
<g id="edge67" class="edge">
<title>src/index.ts&#45;&gt;src/coerce.ts</title>
<path fill="none" stroke="black" d="M424.25,-436.98C431.45,-427.67 439.16,-413.65 445,-401 462.21,-363.7 478.81,-318.66 485.18,-293.03"/>
<polygon fill="black" stroke="black" points="488.65,-293.51 487.3,-283.01 481.81,-292.06 488.65,-293.51"/>
</g>
<!-- src/index.ts&#45;&gt;src/environment.ts -->
<!-- src/index.ts&#45;&gt;src/environment.ts -->
<g id="edge71" class="edge">
<title>src/index.ts&#45;&gt;src/environment.ts</title>
<path fill="none" stroke="black" d="M442.57,-446.68C484.39,-444.32 558.13,-435.26 609,-401 649.91,-373.44 679.1,-321.54 689.86,-292.85"/>
<polygon fill="black" stroke="black" points="693.27,-293.69 693.07,-283.09 686.62,-291.5 693.27,-293.69"/>
</g>
<!-- src/index.ts&#45;&gt;src/evaluate.ts -->
<!-- src/index.ts&#45;&gt;src/evaluate.ts -->
<g id="edge73" class="edge">
<title>src/index.ts&#45;&gt;src/evaluate.ts</title>
<path fill="none" stroke="black" d="M432.67,-436.91C446.69,-427.79 464.45,-414.07 479,-401 497.1,-384.74 516.36,-364.77 528.15,-350.41"/>
<polygon fill="black" stroke="black" points="531.09,-352.33 534.44,-342.28 525.55,-348.05 531.09,-352.33"/>
</g>
<!-- src/index.ts&#45;&gt;name_src/syntax -->
<g id="edge80" class="edge">
<title>src/index.ts&#45;&gt;name_src/syntax</title>
<path fill="none" stroke="#ff0000" d="M379.28,-445.38C322.38,-440.33 209.73,-426.12 182,-401 151.13,-373.04 142.88,-322.11 146.71,-293.48"/>
<polygon fill="#ff0000" stroke="#ff0000" points="146.84,-301.55 147.85,-291 140.49,-298.62 146.84,-301.55"/>
</g>
<!-- src/index.ts&#45;&gt;name_src/syntax -->
<!-- src/index.ts&#45;&gt;name_src/syntax -->
<!-- src/index.ts&#45;&gt;src/walk.ts -->
<!-- src/index.ts&#45;&gt;src/walk.ts -->
<g id="edge86" class="edge">
<title>src/index.ts&#45;&gt;src/walk.ts</title>
<path fill="none" stroke="black" d="M410.3,-436.82C403.2,-408.19 372.94,-329.43 355.18,-292.33"/>
<polygon fill="black" stroke="black" points="358.13,-290.42 350.53,-283.04 351.88,-293.55 358.13,-290.42"/>
</g>
<!-- src/index.ts&#45;&gt;exit_src -->
</g>
</svg>
