<?xml version="1.0" encoding="UTF-8" standalone="no"?>
<!DOCTYPE svg PUBLIC "-//W3C//DTD SVG 1.1//EN"
 "http://www.w3.org/Graphics/SVG/1.1/DTD/svg11.dtd">
<!-- Generated by graphviz version 2.43.0 (0)
 -->
<!-- Title: dependency&#45;graph&#45;[object Object] Pages: 1 -->
<svg width="885pt" height="570pt"
 viewBox="0.00 0.00 885.20 570.20" xmlns="http://www.w3.org/2000/svg" xmlns:xlink="http://www.w3.org/1999/xlink">
<g id="graph0" class="graph" transform="scale(1 1) rotate(0) translate(21.6 548.6)">
<title>dependency&#45;graph&#45;[object Object]</title>
<polygon fill="#ffffff" stroke="transparent" points="-21.6,21.6 -21.6,-548.6 863.6,-548.6 863.6,21.6 -21.6,21.6"/>
<g id="clust1" class="cluster">
<title>cluster_src</title>
<polygon fill="#ffffff" stroke="#000000" points="8,-43 8,-519 834,-519 834,-43 8,-43"/>
</g>
<g id="clust2" class="cluster">
<title>cluster_src</title>
<polygon fill="#ffffff" stroke="#000000" points="16,-51 16,-511 826,-511 826,-51 16,-51"/>
</g>
<g id="clust3" class="cluster">
<title>cluster_src/functions</title>
<polygon fill="#ffffff" stroke="#000000" points="649,-346 649,-503 818,-503 818,-346 649,-346"/>
</g>
<g id="clust4" class="cluster">
<title>cluster_src/syntax</title>
<polygon fill="#ffffff" stroke="#000000" points="36,-110 36,-326 194,-326 194,-110 36,-110"/>
</g>
<!-- dependency&#45;graph&#45;[object Object] -->
<!-- src/expression.ts -->
<g id="node2" class="node">
<title>src/expression.ts</title>
<path fill="none" stroke="#000000" d="M293.33,-141C293.33,-141 212.67,-141 212.67,-141 208.83,-141 205,-137.17 205,-133.33 205,-133.33 205,-125.67 205,-125.67 205,-121.83 208.83,-118 212.67,-118 212.67,-118 293.33,-118 293.33,-118 297.17,-118 301,-121.83 301,-125.67 301,-125.67 301,-133.33 301,-133.33 301,-137.17 297.17,-141 293.33,-141"/>
<text text-anchor="middle" x="253" y="-125.8" font-family="Arial" font-size="14.00" fill="#000000">expression.ts</text>
</g>
<!-- exit_src -->
<!-- src/expression.ts&#45;&gt;exit_src -->
<!-- src/matches.ts -->
<g id="node3" class="node">
<title>src/matches.ts</title>
<path fill="none" stroke="#000000" d="M485.83,-259C485.83,-259 418.17,-259 418.17,-259 414.33,-259 410.5,-255.17 410.5,-251.33 410.5,-251.33 410.5,-243.67 410.5,-243.67 410.5,-239.83 414.33,-236 418.17,-236 418.17,-236 485.83,-236 485.83,-236 489.67,-236 493.5,-239.83 493.5,-243.67 493.5,-243.67 493.5,-251.33 493.5,-251.33 493.5,-255.17 489.67,-259 485.83,-259"/>
<text text-anchor="middle" x="452" y="-243.8" font-family="Arial" font-size="14.00" fill="#000000">matches.ts</text>
</g>
<!-- src/types.ts -->
<g id="node4" class="node">
<title>src/types.ts</title>
<path fill="none" stroke="#000000" d="M581.83,-200C581.83,-200 534.17,-200 534.17,-200 530.33,-200 526.5,-196.17 526.5,-192.33 526.5,-192.33 526.5,-184.67 526.5,-184.67 526.5,-180.83 530.33,-177 534.17,-177 534.17,-177 581.83,-177 581.83,-177 585.67,-177 589.5,-180.83 589.5,-184.67 589.5,-184.67 589.5,-192.33 589.5,-192.33 589.5,-196.17 585.67,-200 581.83,-200"/>
<text text-anchor="middle" x="558" y="-184.8" font-family="Arial" font-size="14.00" fill="#000000">types.ts</text>
</g>
<!-- src/matches.ts&#45;&gt;src/types.ts -->
<!-- src/matches.ts&#45;&gt;src/types.ts -->
<g id="edge109" class="edge">
<title>src/matches.ts&#45;&gt;src/types.ts</title>
<path fill="none" stroke="black" d="M477.08,-235.91C494.68,-227.27 517.84,-214.94 534.97,-205.16"/>
<polygon fill="black" stroke="black" points="536.91,-208.09 543.79,-200.03 533.39,-202.03 536.91,-208.09"/>
</g>
<!-- src/descriptors.ts -->
<g id="node8" class="node">
<title>src/descriptors.ts</title>
<path fill="none" stroke="#000000" d="M535.83,-141C535.83,-141 454.17,-141 454.17,-141 450.33,-141 446.5,-137.17 446.5,-133.33 446.5,-133.33 446.5,-125.67 446.5,-125.67 446.5,-121.83 450.33,-118 454.17,-118 454.17,-118 535.83,-118 535.83,-118 539.67,-118 543.5,-121.83 543.5,-125.67 543.5,-125.67 543.5,-133.33 543.5,-133.33 543.5,-137.17 539.67,-141 535.83,-141"/>
<text text-anchor="middle" x="495" y="-125.8" font-family="Arial" font-size="14.00" fill="#000000">descriptors.ts</text>
</g>
<!-- src/matches.ts&#45;&gt;src/descriptors.ts -->
<!-- src/matches.ts&#45;&gt;src/descriptors.ts -->
<g id="edge107" class="edge">
<title>src/matches.ts&#45;&gt;src/descriptors.ts</title>
<path fill="none" stroke="black" d="M460.08,-235.79C470.28,-216.55 485.78,-175.79 492.69,-151.01"/>
<polygon fill="black" stroke="black" points="496.12,-151.73 495.15,-141.18 489.33,-150.03 496.12,-151.73"/>
</g>
<!-- src/matches.ts&#45;&gt;exit_src -->
<!-- src/types.ts&#45;&gt;src/descriptors.ts -->
<!-- src/types.ts&#45;&gt;src/descriptors.ts -->
<g id="edge119" class="edge">
<title>src/types.ts&#45;&gt;src/descriptors.ts</title>
<path fill="none" stroke="black" d="M551.56,-176.78C543.94,-168.58 531.54,-157.11 520.19,-147.64"/>
<polygon fill="black" stroke="black" points="522.18,-144.74 512.2,-141.17 517.77,-150.18 522.18,-144.74"/>
</g>
<!-- src/types.ts&#45;&gt;exit_src -->
<!-- src/function.ts -->
<g id="node5" class="node">
<title>src/function.ts</title>
<path fill="#ff6c60" stroke="#000000" d="M750.33,-318C750.33,-318 687.67,-318 687.67,-318 683.83,-318 680,-314.17 680,-310.33 680,-310.33 680,-302.67 680,-302.67 680,-298.83 683.83,-295 687.67,-295 687.67,-295 750.33,-295 750.33,-295 754.17,-295 758,-298.83 758,-302.67 758,-302.67 758,-310.33 758,-310.33 758,-314.17 754.17,-318 750.33,-318"/>
<text text-anchor="middle" x="719" y="-302.8" font-family="Arial" font-size="14.00" fill="#000000">function.ts</text>
</g>
<!-- src/function.ts&#45;&gt;src/types.ts -->
<!-- src/function.ts&#45;&gt;src/types.ts -->
<g id="edge74" class="edge">
<title>src/function.ts&#45;&gt;src/types.ts</title>
<path fill="none" stroke="black" d="M730.4,-294.86C740.12,-280.08 749.1,-253.2 736,-236 731.87,-230.58 650.84,-209.99 599.42,-198.11"/>
<polygon fill="black" stroke="black" points="600.09,-194.67 589.56,-195.85 598.53,-201.49 600.09,-194.67"/>
</g>
<!-- src/environment.ts -->
<g id="node9" class="node">
<title>src/environment.ts</title>
<path fill="#ff6c60" stroke="#000000" d="M710.33,-259C710.33,-259 619.67,-259 619.67,-259 615.83,-259 612,-255.17 612,-251.33 612,-251.33 612,-243.67 612,-243.67 612,-239.83 615.83,-236 619.67,-236 619.67,-236 710.33,-236 710.33,-236 714.17,-236 718,-239.83 718,-243.67 718,-243.67 718,-251.33 718,-251.33 718,-255.17 714.17,-259 710.33,-259"/>
<text text-anchor="middle" x="665" y="-243.8" font-family="Arial" font-size="14.00" fill="#000000">environment.ts</text>
</g>
<!-- src/function.ts&#45;&gt;src/environment.ts -->
<!-- src/function.ts&#45;&gt;src/environment.ts -->
<g id="edge70" class="edge">
<title>src/function.ts&#45;&gt;src/environment.ts</title>
<path fill="none" stroke="black" d="M725.08,-294.78C721.59,-286.5 711.4,-274.89 699.64,-265.36"/>
<polygon fill="black" stroke="black" points="701.43,-262.33 691.32,-259.17 697.26,-267.95 701.43,-262.33"/>
</g>
<!-- src/evaluate.ts -->
<g id="node15" class="node">
<title>src/evaluate.ts</title>
<path fill="#ff6c60" stroke="#000000" d="M542.33,-377C542.33,-377 475.67,-377 475.67,-377 471.83,-377 468,-373.17 468,-369.33 468,-369.33 468,-361.67 468,-361.67 468,-357.83 471.83,-354 475.67,-354 475.67,-354 542.33,-354 542.33,-354 546.17,-354 550,-357.83 550,-361.67 550,-361.67 550,-369.33 550,-369.33 550,-373.17 546.17,-377 542.33,-377"/>
<text text-anchor="middle" x="509" y="-361.8" font-family="Arial" font-size="14.00" fill="#000000">evaluate.ts</text>
</g>
<!-- src/function.ts&#45;&gt;src/evaluate.ts -->
<!-- src/function.ts&#45;&gt;src/evaluate.ts -->
<g id="edge72" class="edge">
<title>src/function.ts&#45;&gt;src/evaluate.ts</title>
<path fill="none" stroke="black" d="M690.87,-318.06C657.2,-328.17 601.23,-343.38 560.02,-353.61"/>
<polygon fill="black" stroke="black" points="559.03,-350.25 550.15,-356.03 560.7,-357.04 559.03,-350.25"/>
</g>
<!-- src/function.ts&#45;&gt;exit_src -->
<!-- src/builder.ts -->
<g id="node6" class="node">
<title>src/builder.ts</title>
<path fill="none" stroke="#000000" d="M363.83,-318C363.83,-318 308.17,-318 308.17,-318 304.33,-318 300.5,-314.17 300.5,-310.33 300.5,-310.33 300.5,-302.67 300.5,-302.67 300.5,-298.83 304.33,-295 308.17,-295 308.17,-295 363.83,-295 363.83,-295 367.67,-295 371.5,-298.83 371.5,-302.67 371.5,-302.67 371.5,-310.33 371.5,-310.33 371.5,-314.17 367.67,-318 363.83,-318"/>
<text text-anchor="middle" x="336" y="-302.8" font-family="Arial" font-size="14.00" fill="#000000">builder.ts</text>
</g>
<!-- src/builder.ts&#45;&gt;src/expression.ts -->
<!-- src/builder.ts&#45;&gt;src/expression.ts -->
<g id="edge40" class="edge">
<title>src/builder.ts&#45;&gt;src/expression.ts</title>
<path fill="none" stroke="black" d="M334.38,-294.82C324.79,-266.07 287.5,-186.76 266.61,-149.85"/>
<polygon fill="black" stroke="black" points="269.51,-147.89 261.43,-141.04 263.48,-151.44 269.51,-147.89"/>
</g>
<!-- src/builder.ts&#45;&gt;exit_src -->
<!-- src/coerce.ts -->
<g id="node7" class="node">
<title>src/coerce.ts</title>
<path fill="none" stroke="#000000" d="M513.83,-318C513.83,-318 458.17,-318 458.17,-318 454.33,-318 450.5,-314.17 450.5,-310.33 450.5,-310.33 450.5,-302.67 450.5,-302.67 450.5,-298.83 454.33,-295 458.17,-295 458.17,-295 513.83,-295 513.83,-295 517.67,-295 521.5,-298.83 521.5,-302.67 521.5,-302.67 521.5,-310.33 521.5,-310.33 521.5,-314.17 517.67,-318 513.83,-318"/>
<text text-anchor="middle" x="486" y="-302.8" font-family="Arial" font-size="14.00" fill="#000000">coerce.ts</text>
</g>
<!-- src/coerce.ts&#45;&gt;src/matches.ts -->
<!-- src/coerce.ts&#45;&gt;src/matches.ts -->
<g id="edge42" class="edge">
<title>src/coerce.ts&#45;&gt;src/matches.ts</title>
<path fill="none" stroke="black" d="M485.02,-294.78C481.76,-287.06 475.75,-276.43 469.61,-267.31"/>
<polygon fill="black" stroke="black" points="472.44,-265.26 463.77,-259.17 466.76,-269.34 472.44,-265.26"/>
</g>
<!-- src/coerce.ts&#45;&gt;src/types.ts -->
<!-- src/coerce.ts&#45;&gt;src/types.ts -->
<g id="edge44" class="edge">
<title>src/coerce.ts&#45;&gt;src/types.ts</title>
<path fill="none" stroke="black" d="M496.76,-294.79C511.9,-275.37 537.92,-234.06 550.91,-209.35"/>
<polygon fill="black" stroke="black" points="554.16,-210.69 555.48,-200.18 547.89,-207.57 554.16,-210.69"/>
</g>
<!-- src/coerce.ts&#45;&gt;exit_src -->
<!-- src/descriptors.ts&#45;&gt;exit_src -->
<!-- src/environment.ts&#45;&gt;src/types.ts -->
<!-- src/environment.ts&#45;&gt;src/types.ts -->
<g id="edge48" class="edge">
<title>src/environment.ts&#45;&gt;src/types.ts</title>
<path fill="none" stroke="black" d="M650.29,-235.78C635.38,-227.02 612.16,-214.53 592.66,-204.74"/>
<polygon fill="black" stroke="black" points="593.95,-201.47 583.44,-200.17 590.85,-207.75 593.95,-201.47"/>
</g>
<!-- src/environment.ts&#45;&gt;src/function.ts -->
<!-- src/environment.ts&#45;&gt;src/function.ts -->
<g id="edge46" class="edge">
<title>src/environment.ts&#45;&gt;src/function.ts</title>
<path fill="none" stroke="black" d="M680.51,-259.17C689.27,-266.96 699.78,-277.72 707.76,-286.91"/>
<polygon fill="black" stroke="black" points="705.19,-289.29 714.25,-294.78 710.59,-284.84 705.19,-289.29"/>
</g>
<!-- src/environment.ts&#45;&gt;exit_src -->
<!-- src/functions/common.ts -->
<g id="node10" class="node">
<title>src/functions/common.ts</title>
<path fill="#ff6c60" stroke="#00ff00" stroke-width="5" d="M801.83,-495C801.83,-495 754.17,-495 754.17,-495 750.33,-495 746.5,-491.17 746.5,-487.33 746.5,-487.33 746.5,-479.67 746.5,-479.67 746.5,-475.83 750.33,-472 754.17,-472 754.17,-472 801.83,-472 801.83,-472 805.67,-472 809.5,-475.83 809.5,-479.67 809.5,-479.67 809.5,-487.33 809.5,-487.33 809.5,-491.17 805.67,-495 801.83,-495"/>
<text text-anchor="middle" x="778" y="-479.8" font-family="Arial" font-size="14.00" fill="#000000">common.ts</text>
</g>
<!-- src/functions/common.ts&#45;&gt;src/function.ts -->
<!-- exit_src/functions -->
<!-- src/functions/common.ts&#45;&gt;exit_src/functions -->
<!-- src/functions/fn.ts -->
<g id="node17" class="node">
<title>src/functions/fn.ts</title>
<path fill="#ff6c60" stroke="#000000" d="M751.33,-436C751.33,-436 712.67,-436 712.67,-436 708.83,-436 705,-432.17 705,-428.33 705,-428.33 705,-420.67 705,-420.67 705,-416.83 708.83,-413 712.67,-413 712.67,-413 751.33,-413 751.33,-413 755.17,-413 759,-416.83 759,-420.67 759,-420.67 759,-428.33 759,-428.33 759,-432.17 755.17,-436 751.33,-436"/>
<text text-anchor="middle" x="732" y="-420.8" font-family="Arial" font-size="14.00" fill="#000000">fn.ts</text>
</g>
<!-- src/functions/common.ts&#45;&gt;src/functions/fn.ts -->
<!-- src/functions/common.ts&#45;&gt;src/functions/fn.ts -->
<g id="edge82" class="edge">
<title>src/functions/common.ts&#45;&gt;src/functions/fn.ts</title>
<path fill="none" stroke="black" d="M774.76,-471.78C769.78,-463.9 761.29,-452.99 753.08,-443.75"/>
<polygon fill="black" stroke="black" points="755.39,-441.1 746.02,-436.17 750.27,-445.88 755.39,-441.1"/>
</g>
<!-- name_src/functions -->
<g id="node11" class="node">
<title>name_src/functions</title>
<path fill="none" stroke="#00ff00" stroke-width="5" d="M720.83,-495C720.83,-495 665.17,-495 665.17,-495 661.33,-495 657.5,-491.17 657.5,-487.33 657.5,-487.33 657.5,-479.67 657.5,-479.67 657.5,-475.83 661.33,-472 665.17,-472 665.17,-472 720.83,-472 720.83,-472 724.67,-472 728.5,-475.83 728.5,-479.67 728.5,-479.67 728.5,-487.33 728.5,-487.33 728.5,-491.17 724.67,-495 720.83,-495"/>
<text text-anchor="middle" x="693" y="-479.8" font-family="Arial" font-size="14.00" fill="#000000">functions</text>
</g>
<!-- src/syntax/parser.ts -->
<g id="node12" class="node">
<title>src/syntax/parser.ts</title>
<path fill="none" stroke="#000000" d="M178.33,-318C178.33,-318 125.67,-318 125.67,-318 121.83,-318 118,-314.17 118,-310.33 118,-310.33 118,-302.67 118,-302.67 118,-298.83 121.83,-295 125.67,-295 125.67,-295 178.33,-295 178.33,-295 182.17,-295 186,-298.83 186,-302.67 186,-302.67 186,-310.33 186,-310.33 186,-314.17 182.17,-318 178.33,-318"/>
<text text-anchor="middle" x="152" y="-302.8" font-family="Arial" font-size="14.00" fill="#000000">parser.ts</text>
</g>
<!-- src/syntax/parser.ts&#45;&gt;src/expression.ts -->
<!-- src/syntax/lexer.ts -->
<g id="node18" class="node">
<title>src/syntax/lexer.ts</title>
<path fill="none" stroke="#000000" d="M124.83,-259C124.83,-259 81.17,-259 81.17,-259 77.33,-259 73.5,-255.17 73.5,-251.33 73.5,-251.33 73.5,-243.67 73.5,-243.67 73.5,-239.83 77.33,-236 81.17,-236 81.17,-236 124.83,-236 124.83,-236 128.67,-236 132.5,-239.83 132.5,-243.67 132.5,-243.67 132.5,-251.33 132.5,-251.33 132.5,-255.17 128.67,-259 124.83,-259"/>
<text text-anchor="middle" x="103" y="-243.8" font-family="Arial" font-size="14.00" fill="#000000">lexer.ts</text>
</g>
<!-- src/syntax/parser.ts&#45;&gt;src/syntax/lexer.ts -->
<!-- src/syntax/parser.ts&#45;&gt;src/syntax/lexer.ts -->
<g id="edge115" class="edge">
<title>src/syntax/parser.ts&#45;&gt;src/syntax/lexer.ts</title>
<path fill="none" stroke="black" d="M148.19,-294.78C142.75,-286.82 133.56,-275.77 124.77,-266.47"/>
<polygon fill="black" stroke="black" points="127.09,-263.84 117.58,-259.17 122.11,-268.75 127.09,-263.84"/>
</g>
<!-- src/syntax/token.ts -->
<g id="node19" class="node">
<title>src/syntax/token.ts</title>
<path fill="none" stroke="#000000" d="M145.33,-200C145.33,-200 96.67,-200 96.67,-200 92.83,-200 89,-196.17 89,-192.33 89,-192.33 89,-184.67 89,-184.67 89,-180.83 92.83,-177 96.67,-177 96.67,-177 145.33,-177 145.33,-177 149.17,-177 153,-180.83 153,-184.67 153,-184.67 153,-192.33 153,-192.33 153,-196.17 149.17,-200 145.33,-200"/>
<text text-anchor="middle" x="121" y="-184.8" font-family="Arial" font-size="14.00" fill="#000000">token.ts</text>
</g>
<!-- src/syntax/parser.ts&#45;&gt;src/syntax/token.ts -->
<!-- src/syntax/parser.ts&#45;&gt;src/syntax/token.ts -->
<g id="edge117" class="edge">
<title>src/syntax/parser.ts&#45;&gt;src/syntax/token.ts</title>
<path fill="none" stroke="black" d="M157.58,-294.94C159.42,-281.15 156.93,-256.36 151,-236 148.3,-226.73 144.09,-216.93 139.46,-208.72"/>
<polygon fill="black" stroke="black" points="142.4,-206.83 134.1,-200.25 136.49,-210.58 142.4,-206.83"/>
</g>
<!-- exit_src/syntax -->
<!-- src/syntax/parser.ts&#45;&gt;exit_src/syntax -->
<!-- name_src/syntax -->
<g id="node13" class="node">
<title>name_src/syntax</title>
<path fill="none" stroke="#0000ff" stroke-width="5" d="M92.33,-318C92.33,-318 51.67,-318 51.67,-318 47.83,-318 44,-314.17 44,-310.33 44,-310.33 44,-302.67 44,-302.67 44,-298.83 47.83,-295 51.67,-295 51.67,-295 92.33,-295 92.33,-295 96.17,-295 100,-298.83 100,-302.67 100,-302.67 100,-310.33 100,-310.33 100,-314.17 96.17,-318 92.33,-318"/>
<text text-anchor="middle" x="72" y="-302.8" font-family="Arial" font-size="14.00" fill="#000000">syntax</text>
</g>
<!-- src/walk.ts -->
<g id="node14" class="node">
<title>src/walk.ts</title>
<path fill="none" stroke="#000000" d="M274.33,-318C274.33,-318 231.67,-318 231.67,-318 227.83,-318 224,-314.17 224,-310.33 224,-310.33 224,-302.67 224,-302.67 224,-298.83 227.83,-295 231.67,-295 231.67,-295 274.33,-295 274.33,-295 278.17,-295 282,-298.83 282,-302.67 282,-302.67 282,-310.33 282,-310.33 282,-314.17 278.17,-318 274.33,-318"/>
<text text-anchor="middle" x="253" y="-302.8" font-family="Arial" font-size="14.00" fill="#000000">walk.ts</text>
</g>
<!-- src/walk.ts&#45;&gt;src/expression.ts -->
<!-- src/walk.ts&#45;&gt;src/expression.ts -->
<g id="edge121" class="edge">
<title>src/walk.ts&#45;&gt;src/expression.ts</title>
<path fill="none" stroke="black" d="M256.45,-294.82C260.44,-266.44 260.81,-188.78 257.56,-151.29"/>
<polygon fill="black" stroke="black" points="261,-150.6 256.43,-141.04 254.04,-151.37 261,-150.6"/>
</g>
<!-- src/walk.ts&#45;&gt;exit_src -->
<!-- src/evaluate.ts&#45;&gt;src/expression.ts -->
<!-- src/evaluate.ts&#45;&gt;src/expression.ts -->
<g id="edge58" class="edge">
<title>src/evaluate.ts&#45;&gt;src/expression.ts</title>
<path fill="none" stroke="black" d="M494.95,-353.97C482.61,-346.93 465.07,-336.97 451,-326 378.3,-269.35 306.56,-185.4 272.61,-148.74"/>
<polygon fill="black" stroke="black" points="274.98,-146.15 265.57,-141.27 269.88,-150.95 274.98,-146.15"/>
</g>
<!-- src/evaluate.ts&#45;&gt;src/matches.ts -->
<!-- src/evaluate.ts&#45;&gt;src/matches.ts -->
<g id="edge63" class="edge">
<title>src/evaluate.ts&#45;&gt;src/matches.ts</title>
<path fill="none" stroke="black" d="M523.86,-353.56C536.84,-339.35 550.93,-314.12 540,-295 531.82,-280.7 517.34,-270.36 502.4,-263.12"/>
<polygon fill="black" stroke="black" points="503.65,-259.84 493.08,-259 500.81,-266.24 503.65,-259.84"/>
</g>
<!-- src/evaluate.ts&#45;&gt;src/types.ts -->
<!-- src/evaluate.ts&#45;&gt;src/types.ts -->
<g id="edge66" class="edge">
<title>src/evaluate.ts&#45;&gt;src/types.ts</title>
<path fill="none" stroke="black" d="M543.19,-353.85C555.76,-347.6 568.39,-338.44 575,-326 580.3,-316.03 573.3,-245.44 565.66,-209.88"/>
<polygon fill="black" stroke="black" points="569.04,-208.97 563.28,-200.07 562.24,-210.62 569.04,-208.97"/>
</g>
<!-- src/evaluate.ts&#45;&gt;src/function.ts -->
<!-- src/evaluate.ts&#45;&gt;src/function.ts -->
<g id="edge60" class="edge">
<title>src/evaluate.ts&#45;&gt;src/function.ts</title>
<path fill="none" stroke="black" d="M537.23,-353.91C571.49,-343.62 628.73,-328.09 670.09,-317.87"/>
<polygon fill="black" stroke="black" points="671.08,-321.23 679.97,-315.46 669.42,-314.43 671.08,-321.23"/>
</g>
<!-- src/evaluate.ts&#45;&gt;src/builder.ts -->
<!-- src/evaluate.ts&#45;&gt;src/builder.ts -->
<g id="edge50" class="edge">
<title>src/evaluate.ts&#45;&gt;src/builder.ts</title>
<path fill="none" stroke="black" d="M482.25,-353.91C455.33,-344.49 413.51,-330.67 381.42,-320.56"/>
<polygon fill="black" stroke="black" points="382.39,-317.2 371.8,-317.55 380.3,-323.88 382.39,-317.2"/>
</g>
<!-- src/evaluate.ts&#45;&gt;src/coerce.ts -->
<!-- src/evaluate.ts&#45;&gt;src/coerce.ts -->
<g id="edge52" class="edge">
<title>src/evaluate.ts&#45;&gt;src/coerce.ts</title>
<path fill="none" stroke="black" d="M510.09,-353.78C508.38,-346.29 504.61,-336.09 500.39,-327.16"/>
<polygon fill="black" stroke="black" points="503.43,-325.43 495.71,-318.17 497.22,-328.66 503.43,-325.43"/>
</g>
<!-- src/evaluate.ts&#45;&gt;src/descriptors.ts -->
<!-- src/evaluate.ts&#45;&gt;src/descriptors.ts -->
<g id="edge54" class="edge">
<title>src/evaluate.ts&#45;&gt;src/descriptors.ts</title>
<path fill="none" stroke="black" d="M527.39,-353.78C535.06,-346.59 542.58,-336.53 546,-326 550.26,-312.9 547.72,-308.67 546,-295 539.3,-241.66 520.83,-180.83 507.51,-150.25"/>
<polygon fill="black" stroke="black" points="510.63,-148.66 503.21,-141.1 504.29,-151.64 510.63,-148.66"/>
</g>
<!-- src/evaluate.ts&#45;&gt;src/environment.ts -->
<!-- src/evaluate.ts&#45;&gt;src/environment.ts -->
<g id="edge56" class="edge">
<title>src/evaluate.ts&#45;&gt;src/environment.ts</title>
<path fill="none" stroke="black" d="M550.06,-356.19C571.13,-350.09 596.09,-340.34 615,-326 635.61,-310.37 652.66,-285.74 661.12,-268.46"/>
<polygon fill="black" stroke="black" points="664.34,-269.82 665.07,-259.25 657.91,-267.06 664.34,-269.82"/>
</g>
<!-- src/evaluate.ts&#45;&gt;name_src/functions -->
<g id="edge61" class="edge">
<title>src/evaluate.ts&#45;&gt;name_src/functions</title>
<path fill="none" stroke="#ff0000" d="M525.67,-377.01C551.35,-393.2 601.64,-424.91 640.42,-449.35"/>
<polygon fill="#ff0000" stroke="#ff0000" points="638.68,-452.39 649,-454.76 642.41,-446.47 638.68,-452.39"/>
</g>
<!-- src/evaluate.ts&#45;&gt;name_src/syntax -->
<g id="edge64" class="edge">
<title>src/evaluate.ts&#45;&gt;name_src/syntax</title>
<path fill="none" stroke="#ff0000" d="M467.93,-362.46C383.86,-357.98 193.75,-346.26 118.79,-328.54"/>
<polygon fill="#ff0000" stroke="#ff0000" points="119.56,-325.12 109,-326 117.8,-331.9 119.56,-325.12"/>
</g>
<!-- src/evaluate.ts&#45;&gt;src/walk.ts -->
<!-- src/evaluate.ts&#45;&gt;src/walk.ts -->
<g id="edge68" class="edge">
<title>src/evaluate.ts&#45;&gt;src/walk.ts</title>
<path fill="none" stroke="black" d="M467.7,-359.68C425.13,-354.36 357.49,-344.05 301,-326 297.69,-324.94 294.29,-323.66 290.9,-322.27"/>
<polygon fill="black" stroke="black" points="292,-318.93 281.43,-318.16 289.21,-325.35 292,-318.93"/>
</g>
<!-- src/evaluate.ts&#45;&gt;exit_src -->
<!-- exit_src/functions&#45;&gt;src/function.ts -->
<g id="edge78" class="edge">
<title>exit_src/functions&#45;&gt;src/function.ts</title>
<path fill="none" stroke="#00ff00" d="M732.9,-346C729.3,-340.07 725.8,-333.48 723.03,-327.45"/>
<polygon fill="#00ff00" stroke="#00ff00" points="726.25,-326.09 719.21,-318.17 719.78,-328.75 726.25,-326.09"/>
</g>
<!-- exit_src/functions&#45;&gt;src/function.ts -->
<!-- exit_src/functions&#45;&gt;src/descriptors.ts -->
<g id="edge76" class="edge">
<title>exit_src/functions&#45;&gt;src/descriptors.ts</title>
<path fill="none" stroke="#00ff00" d="M769.43,-346C774.52,-340.16 779.3,-333.31 782,-326 796.22,-287.57 790.2,-265.72 762,-236 706.3,-177.3 613.86,-150.62 553.68,-138.96"/>
<polygon fill="#00ff00" stroke="#00ff00" points="554.05,-135.47 543.58,-137.08 552.77,-142.35 554.05,-135.47"/>
</g>
<!-- exit_src/functions&#45;&gt;exit_src -->
<!-- exit_src/functions&#45;&gt;exit_src -->
<!-- src/functions/fn.ts&#45;&gt;src/function.ts -->
<!-- src/functions/fn.ts&#45;&gt;src/descriptors.ts -->
<!-- src/functions/fn.ts&#45;&gt;exit_src/functions -->
<!-- src/syntax/lexer.ts&#45;&gt;src/syntax/token.ts -->
<!-- src/syntax/lexer.ts&#45;&gt;src/syntax/token.ts -->
<g id="edge111" class="edge">
<title>src/syntax/lexer.ts&#45;&gt;src/syntax/token.ts</title>
<path fill="none" stroke="black" d="M111.8,-235.78C115.36,-228.53 118.82,-218.74 121.03,-210.02"/>
<polygon fill="black" stroke="black" points="124.47,-210.67 123.03,-200.17 117.61,-209.27 124.47,-210.67"/>
</g>
<!-- src/syntax/lexer.ts&#45;&gt;exit_src/syntax -->
<!-- src/syntax/token.ts&#45;&gt;exit_src/syntax -->
<!-- exit_src/syntax&#45;&gt;src/expression.ts -->
<g id="edge113" class="edge">
<title>exit_src/syntax&#45;&gt;src/expression.ts</title>
<path fill="none" stroke="#0000ff" d="M194,-129.5C194.27,-129.5 194.53,-129.5 194.8,-129.5"/>
<polygon fill="#0000ff" stroke="#0000ff" points="194.9,-133 204.9,-129.5 194.9,-126 194.9,-133"/>
</g>
<!-- exit_src/syntax&#45;&gt;exit_src -->
<!-- exit_src/syntax&#45;&gt;exit_src -->
<!-- exit_src/syntax&#45;&gt;exit_src -->
<!-- name_src -->
<g id="node21" class="node">
<title>name_src</title>
<path fill="none" stroke="#ff0000" stroke-width="5" d="M350.33,-495C350.33,-495 311.67,-495 311.67,-495 307.83,-495 304,-491.17 304,-487.33 304,-487.33 304,-479.67 304,-479.67 304,-475.83 307.83,-472 311.67,-472 311.67,-472 350.33,-472 350.33,-472 354.17,-472 358,-475.83 358,-479.67 358,-479.67 358,-487.33 358,-487.33 358,-491.17 354.17,-495 350.33,-495"/>
<text text-anchor="middle" x="331" y="-479.8" font-family="Arial" font-size="14.00" fill="#000000">src</text>
</g>
<!-- exit_src&#45;&gt;dependency&#45;graph&#45;[object Object] -->
<!-- exit_src&#45;&gt;exit_src -->
<!-- exit_src&#45;&gt;exit_src -->
<!-- exit_src&#45;&gt;exit_src -->
<!-- exit_src&#45;&gt;exit_src -->
<!-- exit_src&#45;&gt;exit_src -->
<!-- exit_src&#45;&gt;exit_src -->
<!-- exit_src&#45;&gt;exit_src -->
<!-- exit_src&#45;&gt;exit_src -->
<!-- exit_src&#45;&gt;exit_src -->
<!-- exit_src&#45;&gt;exit_src -->
<!-- exit_src&#45;&gt;exit_src -->
<!-- exit_src&#45;&gt;exit_src -->
<!-- exit_src&#45;&gt;exit_src -->
<!-- exit_src&#45;&gt;exit_src -->
<!-- exit_src&#45;&gt;exit_src -->
<!-- exit_src&#45;&gt;exit_src -->
<!-- src/common.ts -->
<g id="node23" class="node">
<title>src/common.ts</title>
<path fill="none" stroke="#ff0000" stroke-width="5" d="M414.83,-436C414.83,-436 367.17,-436 367.17,-436 363.33,-436 359.5,-432.17 359.5,-428.33 359.5,-428.33 359.5,-420.67 359.5,-420.67 359.5,-416.83 363.33,-413 367.17,-413 367.17,-413 414.83,-413 414.83,-413 418.67,-413 422.5,-416.83 422.5,-420.67 422.5,-420.67 422.5,-428.33 422.5,-428.33 422.5,-432.17 418.67,-436 414.83,-436"/>
<text text-anchor="middle" x="391" y="-420.8" font-family="Arial" font-size="14.00" fill="#000000">common.ts</text>
</g>
<!-- src/common.ts&#45;&gt;src/expression.ts -->
<!-- src/common.ts&#45;&gt;src/expression.ts -->
<g id="edge94" class="edge">
<title>src/common.ts&#45;&gt;src/expression.ts</title>
<path fill="none" stroke="black" d="M359.47,-415.04C319.39,-403.26 252.5,-377.3 224,-326 191.76,-267.99 229.23,-187.06 246.21,-150.19"/>
<polygon fill="black" stroke="black" points="249.42,-151.57 250.38,-141.02 243.05,-148.68 249.42,-151.57"/>
</g>
<!-- src/common.ts&#45;&gt;src/matches.ts -->
<!-- src/common.ts&#45;&gt;src/matches.ts -->
<g id="edge98" class="edge">
<title>src/common.ts&#45;&gt;src/matches.ts</title>
<path fill="none" stroke="black" d="M398.17,-412.82C412.12,-384.31 439.74,-306.11 449.44,-268.81"/>
<polygon fill="black" stroke="black" points="452.85,-269.58 451.75,-259.04 446.04,-267.96 452.85,-269.58"/>
</g>
<!-- src/common.ts&#45;&gt;src/types.ts -->
<!-- src/common.ts&#45;&gt;src/types.ts -->
<g id="edge103" class="edge">
<title>src/common.ts&#45;&gt;src/types.ts</title>
<path fill="none" stroke="black" d="M422.52,-424.02C462.52,-423.3 530.24,-416.26 568,-377 589.76,-354.37 581.11,-267.13 577,-236 575.84,-227.25 573.91,-217.7 571.4,-209.55"/>
<polygon fill="black" stroke="black" points="574.66,-208.29 567.91,-200.13 568.1,-210.72 574.66,-208.29"/>
</g>
<!-- src/common.ts&#45;&gt;src/function.ts -->
<!-- src/common.ts&#45;&gt;src/function.ts -->
<g id="edge96" class="edge">
<title>src/common.ts&#45;&gt;src/function.ts</title>
<path fill="none" stroke="black" d="M422.76,-422.24C466.4,-419.3 545.37,-409.5 603,-377 619.7,-367.58 617.1,-356.72 633,-346 642.49,-339.6 666.43,-329.91 686.76,-321.86"/>
<polygon fill="black" stroke="black" points="688.06,-325.1 696.07,-318.17 685.48,-318.59 688.06,-325.1"/>
</g>
<!-- src/common.ts&#45;&gt;src/builder.ts -->
<!-- src/common.ts&#45;&gt;src/builder.ts -->
<g id="edge84" class="edge">
<title>src/common.ts&#45;&gt;src/builder.ts</title>
<path fill="none" stroke="black" d="M390.04,-412.79C383.89,-393.29 364.53,-351.69 350.46,-327.02"/>
<polygon fill="black" stroke="black" points="353.31,-324.97 345.17,-318.18 347.3,-328.56 353.31,-324.97"/>
</g>
<!-- src/common.ts&#45;&gt;src/coerce.ts -->
<!-- src/common.ts&#45;&gt;src/coerce.ts -->
<g id="edge86" class="edge">
<title>src/common.ts&#45;&gt;src/coerce.ts</title>
<path fill="none" stroke="black" d="M408.77,-412.7C419.5,-403.46 432.45,-389.67 443,-377 456.63,-360.63 471.07,-341.14 479.74,-326.98"/>
<polygon fill="black" stroke="black" points="482.87,-328.55 484.75,-318.12 476.78,-325.1 482.87,-328.55"/>
</g>
<!-- src/common.ts&#45;&gt;src/descriptors.ts -->
<!-- src/common.ts&#45;&gt;src/descriptors.ts -->
<g id="edge88" class="edge">
<title>src/common.ts&#45;&gt;src/descriptors.ts</title>
<path fill="none" stroke="black" d="M393.46,-412.81C394.06,-383.3 385.18,-298.72 411,-236 425.95,-199.69 458.83,-167.36 478.97,-148.34"/>
<polygon fill="black" stroke="black" points="481.6,-150.67 486.49,-141.26 476.81,-145.57 481.6,-150.67"/>
</g>
<!-- src/common.ts&#45;&gt;src/environment.ts -->
<!-- src/common.ts&#45;&gt;src/environment.ts -->
<g id="edge90" class="edge">
<title>src/common.ts&#45;&gt;src/environment.ts</title>
<path fill="none" stroke="black" d="M422.67,-422.76C463.69,-420.49 534.96,-411.54 583,-377 596.31,-367.43 590.28,-356.34 603,-346 622.21,-330.38 638.64,-344.58 655,-326 668.74,-310.39 672.9,-286.44 672.18,-269.3"/>
<polygon fill="black" stroke="black" points="675.63,-268.72 671.05,-259.17 668.68,-269.5 675.63,-268.72"/>
</g>
<!-- src/common.ts&#45;&gt;name_src/syntax -->
<g id="edge99" class="edge">
<title>src/common.ts&#45;&gt;name_src/syntax</title>
<path fill="none" stroke="#ff0000" d="M359.19,-420.24C316.41,-414.27 241.7,-400.03 182,-377 150.52,-364.86 117.07,-346.49 94.82,-331.68"/>
<polygon fill="#ff0000" stroke="#ff0000" points="96.8,-328.8 86.58,-326 92.82,-334.56 96.8,-328.8"/>
</g>
<!-- src/common.ts&#45;&gt;name_src/syntax -->
<!-- src/common.ts&#45;&gt;name_src/syntax -->
<!-- src/common.ts&#45;&gt;src/walk.ts -->
<!-- src/common.ts&#45;&gt;src/walk.ts -->
<g id="edge105" class="edge">
<title>src/common.ts&#45;&gt;src/walk.ts</title>
<path fill="none" stroke="black" d="M382.38,-412.79C361.56,-392.6 309.64,-348.72 278.12,-324.46"/>
<polygon fill="black" stroke="black" points="279.9,-321.42 269.81,-318.18 275.68,-327 279.9,-321.42"/>
</g>
<!-- src/common.ts&#45;&gt;src/evaluate.ts -->
<!-- src/common.ts&#45;&gt;src/evaluate.ts -->
<g id="edge92" class="edge">
<title>src/common.ts&#45;&gt;src/evaluate.ts</title>
<path fill="none" stroke="black" d="M418.31,-412.91C437.99,-404.15 464.21,-391.6 483.47,-381.76"/>
<polygon fill="black" stroke="black" points="485.31,-384.74 492.58,-377.03 482.09,-378.53 485.31,-384.74"/>
</g>
<!-- src/common.ts&#45;&gt;exit_src -->
</g>
</svg>
