<?xml version="1.0" encoding="UTF-8" standalone="no"?>
<!DOCTYPE svg PUBLIC "-//W3C//DTD SVG 1.1//EN"
 "http://www.w3.org/Graphics/SVG/1.1/DTD/svg11.dtd">
<!-- Generated by graphviz version 2.43.0 (0)
 -->
<!-- Title: dependency&#45;graph&#45;@siteimprove/alfa&#45;toolchain Pages: 1 -->
<svg width="2380pt" height="527pt"
 viewBox="0.00 0.00 2380.20 527.20" xmlns="http://www.w3.org/2000/svg" xmlns:xlink="http://www.w3.org/1999/xlink">
<g id="graph0" class="graph" transform="scale(1 1) rotate(0) translate(21.6 505.6)">
<title>dependency&#45;graph&#45;@siteimprove/alfa&#45;toolchain</title>
<polygon fill="#ffffff" stroke="transparent" points="-21.6,21.6 -21.6,-505.6 2358.6,-505.6 2358.6,21.6 -21.6,21.6"/>
<g id="clust1" class="cluster">
<title>cluster_src</title>
<polygon fill="#ffffff" stroke="#000000" points="8,-8 8,-476 2329,-476 2329,-8 8,-8"/>
</g>
<g id="clust2" class="cluster">
<title>cluster_src</title>
<polygon fill="#ffffff" stroke="#000000" points="16,-16 16,-468 2321,-468 2321,-16 16,-16"/>
</g>
<g id="clust3" class="cluster">
<title>cluster_src/dependency&#45;graph</title>
<polygon fill="#ffffff" stroke="#000000" points="1908,-75 1908,-409 2135,-409 2135,-75 1908,-75"/>
</g>
<g id="clust4" class="cluster">
<title>cluster_src/coverage</title>
<polygon fill="#ffffff" stroke="#000000" points="520,-134 520,-291 978,-291 978,-134 520,-134"/>
</g>
<g id="clust5" class="cluster">
<title>cluster_src/validation</title>
<polygon fill="#ffffff" stroke="#000000" points="998,-193 998,-409 1895,-409 1895,-193 998,-193"/>
</g>
<g id="clust6" class="cluster">
<title>cluster_src/changeset</title>
<polygon fill="#ffffff" stroke="#000000" points="24,-75 24,-232 512,-232 512,-75 24,-75"/>
</g>
<!-- src/dependency&#45;graph/rainbow.ts -->
<g id="node1" class="node">
<title>src/dependency&#45;graph/rainbow.ts</title>
<path fill="none" stroke="#000000" d="M2065.83,-165C2065.83,-165 2004.17,-165 2004.17,-165 2000.33,-165 1996.5,-161.17 1996.5,-157.33 1996.5,-157.33 1996.5,-149.67 1996.5,-149.67 1996.5,-145.83 2000.33,-142 2004.17,-142 2004.17,-142 2065.83,-142 2065.83,-142 2069.67,-142 2073.5,-145.83 2073.5,-149.67 2073.5,-149.67 2073.5,-157.33 2073.5,-157.33 2073.5,-161.17 2069.67,-165 2065.83,-165"/>
<text text-anchor="middle" x="2035" y="-149.8" font-family="Arial" font-size="14.00" fill="#000000">rainbow.ts</text>
</g>
<!-- exit_src/dependency&#45;graph -->
<!-- src/dependency&#45;graph/rainbow.ts&#45;&gt;exit_src/dependency&#45;graph -->
<!-- src/common.ts -->
<g id="node2" class="node">
<title>src/common.ts</title>
<path fill="none" stroke="#000000" d="M1403.33,-106C1403.33,-106 1334.67,-106 1334.67,-106 1330.83,-106 1327,-102.17 1327,-98.33 1327,-98.33 1327,-90.67 1327,-90.67 1327,-86.83 1330.83,-83 1334.67,-83 1334.67,-83 1403.33,-83 1403.33,-83 1407.17,-83 1411,-86.83 1411,-90.67 1411,-90.67 1411,-98.33 1411,-98.33 1411,-102.17 1407.17,-106 1403.33,-106"/>
<text text-anchor="middle" x="1369" y="-90.8" font-family="Arial" font-size="14.00" fill="#000000">common.ts</text>
</g>
<!-- exit_src -->
<!-- src/common.ts&#45;&gt;exit_src -->
<!-- exit_src/coverage -->
<!-- exit_src/coverage&#45;&gt;src/common.ts -->
<g id="edge70" class="edge">
<title>exit_src/coverage&#45;&gt;src/common.ts</title>
<path fill="none" stroke="#ff0000" d="M974,-134C1122.74,-106.96 1163.17,-126.18 1313,-106 1314.27,-105.83 1315.55,-105.65 1316.84,-105.46"/>
<polygon fill="#ff0000" stroke="#ff0000" points="1317.54,-108.89 1326.88,-103.88 1316.45,-101.98 1317.54,-108.89"/>
</g>
<!-- exit_src/coverage&#45;&gt;exit_src -->
<!-- exit_src/coverage&#45;&gt;exit_src -->
<!-- exit_src/coverage&#45;&gt;exit_src -->
<!-- src/coverage/transform&#45;unit&#45;test&#45;coverage&#45;data.ts -->
<g id="node4" class="node">
<title>src/coverage/transform&#45;unit&#45;test&#45;coverage&#45;data.ts</title>
<path fill="none" stroke="#000000" d="M942.33,-224C942.33,-224 725.67,-224 725.67,-224 721.83,-224 718,-220.17 718,-216.33 718,-216.33 718,-208.67 718,-208.67 718,-204.83 721.83,-201 725.67,-201 725.67,-201 942.33,-201 942.33,-201 946.17,-201 950,-204.83 950,-208.67 950,-208.67 950,-216.33 950,-216.33 950,-220.17 946.17,-224 942.33,-224"/>
<text text-anchor="middle" x="834" y="-208.8" font-family="Arial" font-size="14.00" fill="#000000">transform&#45;unit&#45;test&#45;coverage&#45;data.ts</text>
</g>
<!-- src/coverage/transform&#45;unit&#45;test&#45;coverage&#45;data.ts&#45;&gt;exit_src/coverage -->
<!-- src/dependency&#45;graph/dependency&#45;graph.ts -->
<g id="node5" class="node">
<title>src/dependency&#45;graph/dependency&#45;graph.ts</title>
<path fill="none" stroke="#000000" d="M2098.83,-224C2098.83,-224 1971.17,-224 1971.17,-224 1967.33,-224 1963.5,-220.17 1963.5,-216.33 1963.5,-216.33 1963.5,-208.67 1963.5,-208.67 1963.5,-204.83 1967.33,-201 1971.17,-201 1971.17,-201 2098.83,-201 2098.83,-201 2102.67,-201 2106.5,-204.83 2106.5,-208.67 2106.5,-208.67 2106.5,-216.33 2106.5,-216.33 2106.5,-220.17 2102.67,-224 2098.83,-224"/>
<text text-anchor="middle" x="2035" y="-208.8" font-family="Arial" font-size="14.00" fill="#000000">dependency&#45;graph.ts</text>
</g>
<!-- src/dependency&#45;graph/dependency&#45;graph.ts&#45;&gt;src/dependency&#45;graph/rainbow.ts -->
<!-- src/dependency&#45;graph/dependency&#45;graph.ts&#45;&gt;src/dependency&#45;graph/rainbow.ts -->
<g id="edge68" class="edge">
<title>src/dependency&#45;graph/dependency&#45;graph.ts&#45;&gt;src/dependency&#45;graph/rainbow.ts</title>
<path fill="none" stroke="black" d="M2040.41,-200.78C2041.67,-193.61 2042.04,-183.95 2041.53,-175.31"/>
<polygon fill="black" stroke="black" points="2044.98,-174.73 2040.4,-165.17 2038.03,-175.5 2044.98,-174.73"/>
</g>
<!-- src/dependency&#45;graph/dependency&#45;graph.ts&#45;&gt;exit_src/dependency&#45;graph -->
<!-- src/dependency&#45;graph/generate&#45;graphs.ts -->
<g id="node6" class="node">
<title>src/dependency&#45;graph/generate&#45;graphs.ts</title>
<path fill="none" stroke="#000000" d="M2046.33,-342C2046.33,-342 1931.67,-342 1931.67,-342 1927.83,-342 1924,-338.17 1924,-334.33 1924,-334.33 1924,-326.67 1924,-326.67 1924,-322.83 1927.83,-319 1931.67,-319 1931.67,-319 2046.33,-319 2046.33,-319 2050.17,-319 2054,-322.83 2054,-326.67 2054,-326.67 2054,-334.33 2054,-334.33 2054,-338.17 2050.17,-342 2046.33,-342"/>
<text text-anchor="middle" x="1989" y="-326.8" font-family="Arial" font-size="14.00" fill="#000000">generate&#45;graphs.ts</text>
</g>
<!-- src/dependency&#45;graph/generate&#45;graphs.ts&#45;&gt;src/common.ts -->
<!-- src/dependency&#45;graph/generate&#45;graphs.ts&#45;&gt;src/dependency&#45;graph/dependency&#45;graph.ts -->
<!-- src/dependency&#45;graph/generate&#45;graphs.ts&#45;&gt;src/dependency&#45;graph/dependency&#45;graph.ts -->
<g id="edge81" class="edge">
<title>src/dependency&#45;graph/generate&#45;graphs.ts&#45;&gt;src/dependency&#45;graph/dependency&#45;graph.ts</title>
<path fill="none" stroke="black" stroke-dasharray="1,5" d="M2012.47,-318.94C2022.42,-312.08 2032.65,-302.33 2038,-291 2046.42,-273.15 2047.18,-250.4 2044.6,-234.18"/>
<polygon fill="black" stroke="black" points="2047.95,-233.11 2042.34,-224.13 2041.12,-234.65 2047.95,-233.11"/>
</g>
<!-- src/dependency&#45;graph/generate&#45;graphs.ts&#45;&gt;exit_src/dependency&#45;graph -->
<!-- src/dependency&#45;graph/helpers.ts -->
<g id="node11" class="node">
<title>src/dependency&#45;graph/helpers.ts</title>
<path fill="none" stroke="#000000" d="M2011.83,-283C2011.83,-283 1952.17,-283 1952.17,-283 1948.33,-283 1944.5,-279.17 1944.5,-275.33 1944.5,-275.33 1944.5,-267.67 1944.5,-267.67 1944.5,-263.83 1948.33,-260 1952.17,-260 1952.17,-260 2011.83,-260 2011.83,-260 2015.67,-260 2019.5,-263.83 2019.5,-267.67 2019.5,-267.67 2019.5,-275.33 2019.5,-275.33 2019.5,-279.17 2015.67,-283 2011.83,-283"/>
<text text-anchor="middle" x="1982" y="-267.8" font-family="Arial" font-size="14.00" fill="#000000">helpers.ts</text>
</g>
<!-- src/dependency&#45;graph/generate&#45;graphs.ts&#45;&gt;src/dependency&#45;graph/helpers.ts -->
<!-- src/dependency&#45;graph/generate&#45;graphs.ts&#45;&gt;src/dependency&#45;graph/helpers.ts -->
<g id="edge83" class="edge">
<title>src/dependency&#45;graph/generate&#45;graphs.ts&#45;&gt;src/dependency&#45;graph/helpers.ts</title>
<path fill="none" stroke="black" d="M1993.09,-318.78C1993.48,-311.53 1992.64,-301.74 1991.03,-293.02"/>
<polygon fill="black" stroke="black" points="1994.41,-292.11 1988.71,-283.17 1987.6,-293.71 1994.41,-292.11"/>
</g>
<!-- src/changeset/get&#45;changeset&#45;details.ts -->
<g id="node7" class="node">
<title>src/changeset/get&#45;changeset&#45;details.ts</title>
<path fill="none" stroke="#000000" d="M496.33,-165C496.33,-165 351.67,-165 351.67,-165 347.83,-165 344,-161.17 344,-157.33 344,-157.33 344,-149.67 344,-149.67 344,-145.83 347.83,-142 351.67,-142 351.67,-142 496.33,-142 496.33,-142 500.17,-142 504,-145.83 504,-149.67 504,-149.67 504,-157.33 504,-157.33 504,-161.17 500.17,-165 496.33,-165"/>
<text text-anchor="middle" x="424" y="-149.8" font-family="Arial" font-size="14.00" fill="#000000">get&#45;changeset&#45;details.ts</text>
</g>
<!-- exit_src/changeset -->
<!-- src/changeset/get&#45;changeset&#45;details.ts&#45;&gt;exit_src/changeset -->
<!-- exit_src/validation -->
<!-- exit_src/validation&#45;&gt;src/common.ts -->
<g id="edge110" class="edge">
<title>exit_src/validation&#45;&gt;src/common.ts</title>
<path fill="none" stroke="#ccff00" d="M1419.97,-193C1415.38,-184.49 1409.88,-174.25 1405,-165 1396.22,-148.37 1386.41,-129.4 1379.25,-115.49"/>
<polygon fill="#ccff00" stroke="#ccff00" points="1382.24,-113.66 1374.56,-106.36 1376.02,-116.86 1382.24,-113.66"/>
</g>
<!-- name_src/changeset -->
<g id="node9" class="node">
<title>name_src/changeset</title>
<path fill="none" stroke="#cc00ff" stroke-width="5" d="M496.83,-224C496.83,-224 433.17,-224 433.17,-224 429.33,-224 425.5,-220.17 425.5,-216.33 425.5,-216.33 425.5,-208.67 425.5,-208.67 425.5,-204.83 429.33,-201 433.17,-201 433.17,-201 496.83,-201 496.83,-201 500.67,-201 504.5,-204.83 504.5,-208.67 504.5,-208.67 504.5,-216.33 504.5,-216.33 504.5,-220.17 500.67,-224 496.83,-224"/>
<text text-anchor="middle" x="465" y="-208.8" font-family="Arial" font-size="14.00" fill="#000000">changeset</text>
</g>
<!-- exit_src/validation&#45;&gt;name_src/changeset -->
<g id="edge77" class="edge">
<title>exit_src/validation&#45;&gt;name_src/changeset</title>
<path fill="none" stroke="#ccff00" d="M998,-253.81C784.13,-254.65 549.52,-252.38 525,-246 517.2,-243.97 509.33,-240.68 501.98,-236.93"/>
<polygon fill="#ccff00" stroke="#ccff00" points="503.44,-233.74 492.99,-232 500.08,-239.87 503.44,-233.74"/>
</g>
<!-- exit_src/validation&#45;&gt;exit_src -->
<!-- exit_src/validation&#45;&gt;exit_src -->
<!-- exit_src/validation&#45;&gt;exit_src -->
<!-- exit_src/validation&#45;&gt;exit_src -->
<!-- exit_src/validation&#45;&gt;exit_src -->
<!-- exit_src/validation&#45;&gt;exit_src -->
<!-- exit_src/validation&#45;&gt;exit_src -->
<!-- exit_src/dependency&#45;graph&#45;&gt;src/common.ts -->
<g id="edge79" class="edge">
<title>exit_src/dependency&#45;graph&#45;&gt;src/common.ts</title>
<path fill="none" stroke="#00ff66" d="M1908,-94.5C1745.89,-94.5 1583.77,-94.5 1421.66,-94.5"/>
<polygon fill="#00ff66" stroke="#00ff66" points="1421.3,-91 1411.3,-94.5 1421.3,-98 1421.3,-91"/>
</g>
<!-- exit_src/dependency&#45;graph&#45;&gt;exit_src -->
<!-- exit_src/dependency&#45;graph&#45;&gt;exit_src -->
<!-- exit_src/dependency&#45;graph&#45;&gt;exit_src -->
<!-- exit_src/dependency&#45;graph&#45;&gt;exit_src -->
<!-- exit_src/dependency&#45;graph&#45;&gt;exit_src -->
<!-- src/dependency&#45;graph/helpers.ts&#45;&gt;src/dependency&#45;graph/dependency&#45;graph.ts -->
<!-- src/dependency&#45;graph/helpers.ts&#45;&gt;src/dependency&#45;graph/dependency&#45;graph.ts -->
<g id="edge108" class="edge">
<title>src/dependency&#45;graph/helpers.ts&#45;&gt;src/dependency&#45;graph/dependency&#45;graph.ts</title>
<path fill="none" stroke="black" d="M1997.38,-259.78C2006,-251.98 2016.33,-241.21 2024.14,-232.03"/>
<polygon fill="black" stroke="black" points="2026.92,-234.15 2030.48,-224.17 2021.48,-229.76 2026.92,-234.15"/>
</g>
<!-- src/dependency&#45;graph/helpers.ts&#45;&gt;exit_src/dependency&#45;graph -->
<!-- src/changeset/helpers.ts -->
<g id="node12" class="node">
<title>src/changeset/helpers.ts</title>
<path fill="none" stroke="#000000" d="M298.83,-165C298.83,-165 239.17,-165 239.17,-165 235.33,-165 231.5,-161.17 231.5,-157.33 231.5,-157.33 231.5,-149.67 231.5,-149.67 231.5,-145.83 235.33,-142 239.17,-142 239.17,-142 298.83,-142 298.83,-142 302.67,-142 306.5,-145.83 306.5,-149.67 306.5,-149.67 306.5,-157.33 306.5,-157.33 306.5,-161.17 302.67,-165 298.83,-165"/>
<text text-anchor="middle" x="269" y="-149.8" font-family="Arial" font-size="14.00" fill="#000000">helpers.ts</text>
</g>
<!-- src/changeset/helpers.ts&#45;&gt;exit_src/changeset -->
<!-- src/validation/has&#45;extractor&#45;config.ts -->
<g id="node13" class="node">
<title>src/validation/has&#45;extractor&#45;config.ts</title>
<path fill="none" stroke="#000000" d="M1859.33,-283C1859.33,-283 1724.67,-283 1724.67,-283 1720.83,-283 1717,-279.17 1717,-275.33 1717,-275.33 1717,-267.67 1717,-267.67 1717,-263.83 1720.83,-260 1724.67,-260 1724.67,-260 1859.33,-260 1859.33,-260 1863.17,-260 1867,-263.83 1867,-267.67 1867,-267.67 1867,-275.33 1867,-275.33 1867,-279.17 1863.17,-283 1859.33,-283"/>
<text text-anchor="middle" x="1792" y="-267.8" font-family="Arial" font-size="14.00" fill="#000000">has&#45;extractor&#45;config.ts</text>
</g>
<!-- src/validation/has&#45;extractor&#45;config.ts&#45;&gt;exit_src/validation -->
<!-- src/validation/validate&#45;all.ts -->
<g id="node14" class="node">
<title>src/validation/validate&#45;all.ts</title>
<path fill="none" stroke="#000000" d="M1469.83,-342C1469.83,-342 1390.17,-342 1390.17,-342 1386.33,-342 1382.5,-338.17 1382.5,-334.33 1382.5,-334.33 1382.5,-326.67 1382.5,-326.67 1382.5,-322.83 1386.33,-319 1390.17,-319 1390.17,-319 1469.83,-319 1469.83,-319 1473.67,-319 1477.5,-322.83 1477.5,-326.67 1477.5,-326.67 1477.5,-334.33 1477.5,-334.33 1477.5,-338.17 1473.67,-342 1469.83,-342"/>
<text text-anchor="middle" x="1430" y="-326.8" font-family="Arial" font-size="14.00" fill="#000000">validate&#45;all.ts</text>
</g>
<!-- src/validation/validate&#45;all.ts&#45;&gt;src/common.ts -->
<!-- src/validation/validate&#45;all.ts&#45;&gt;exit_src/validation -->
<!-- src/validation/validate&#45;all.ts&#45;&gt;src/validation/has&#45;extractor&#45;config.ts -->
<!-- src/validation/validate&#45;all.ts&#45;&gt;src/validation/has&#45;extractor&#45;config.ts -->
<g id="edge112" class="edge">
<title>src/validation/validate&#45;all.ts&#45;&gt;src/validation/has&#45;extractor&#45;config.ts</title>
<path fill="none" stroke="black" d="M1477.78,-324.78C1535.11,-318.36 1633.55,-305.94 1717,-291 1726.49,-289.3 1736.54,-287.28 1746.11,-285.21"/>
<polygon fill="black" stroke="black" points="1746.87,-288.63 1755.88,-283.05 1745.36,-281.79 1746.87,-288.63"/>
</g>
<!-- src/validation/validate&#45;changesets.ts -->
<g id="node15" class="node">
<title>src/validation/validate&#45;changesets.ts</title>
<path fill="none" stroke="#000000" d="M1149.83,-283C1149.83,-283 1014.17,-283 1014.17,-283 1010.33,-283 1006.5,-279.17 1006.5,-275.33 1006.5,-275.33 1006.5,-267.67 1006.5,-267.67 1006.5,-263.83 1010.33,-260 1014.17,-260 1014.17,-260 1149.83,-260 1149.83,-260 1153.67,-260 1157.5,-263.83 1157.5,-267.67 1157.5,-267.67 1157.5,-275.33 1157.5,-275.33 1157.5,-279.17 1153.67,-283 1149.83,-283"/>
<text text-anchor="middle" x="1082" y="-267.8" font-family="Arial" font-size="14.00" fill="#000000">validate&#45;changesets.ts</text>
</g>
<!-- src/validation/validate&#45;all.ts&#45;&gt;src/validation/validate&#45;changesets.ts -->
<!-- src/validation/validate&#45;all.ts&#45;&gt;src/validation/validate&#45;changesets.ts -->
<g id="edge116" class="edge">
<title>src/validation/validate&#45;all.ts&#45;&gt;src/validation/validate&#45;changesets.ts</title>
<path fill="none" stroke="black" d="M1382.31,-322.63C1331.1,-315.65 1247.74,-304.04 1176,-291 1166.42,-289.26 1156.27,-287.22 1146.3,-285.14"/>
<polygon fill="black" stroke="black" points="1146.93,-281.7 1136.42,-283.07 1145.49,-288.55 1146.93,-281.7"/>
</g>
<!-- src/validation/validate&#45;package&#45;json.ts -->
<g id="node16" class="node">
<title>src/validation/validate&#45;package&#45;json.ts</title>
<path fill="none" stroke="#000000" d="M1330.33,-283C1330.33,-283 1183.67,-283 1183.67,-283 1179.83,-283 1176,-279.17 1176,-275.33 1176,-275.33 1176,-267.67 1176,-267.67 1176,-263.83 1179.83,-260 1183.67,-260 1183.67,-260 1330.33,-260 1330.33,-260 1334.17,-260 1338,-263.83 1338,-267.67 1338,-267.67 1338,-275.33 1338,-275.33 1338,-279.17 1334.17,-283 1330.33,-283"/>
<text text-anchor="middle" x="1257" y="-267.8" font-family="Arial" font-size="14.00" fill="#000000">validate&#45;package&#45;json.ts</text>
</g>
<!-- src/validation/validate&#45;all.ts&#45;&gt;src/validation/validate&#45;package&#45;json.ts -->
<!-- src/validation/validate&#45;all.ts&#45;&gt;src/validation/validate&#45;package&#45;json.ts -->
<g id="edge118" class="edge">
<title>src/validation/validate&#45;all.ts&#45;&gt;src/validation/validate&#45;package&#45;json.ts</title>
<path fill="none" stroke="black" d="M1403.25,-318.91C1376.74,-309.63 1335.81,-296.1 1303.92,-286.03"/>
<polygon fill="black" stroke="black" points="1304.93,-282.68 1294.34,-283.03 1302.84,-289.36 1304.93,-282.68"/>
</g>
<!-- src/validation/validate&#45;workspace&#45;tsconfig.ts -->
<g id="node17" class="node">
<title>src/validation/validate&#45;workspace&#45;tsconfig.ts</title>
<path fill="none" stroke="#000000" d="M1690.83,-283C1690.83,-283 1509.17,-283 1509.17,-283 1505.33,-283 1501.5,-279.17 1501.5,-275.33 1501.5,-275.33 1501.5,-267.67 1501.5,-267.67 1501.5,-263.83 1505.33,-260 1509.17,-260 1509.17,-260 1690.83,-260 1690.83,-260 1694.67,-260 1698.5,-263.83 1698.5,-267.67 1698.5,-267.67 1698.5,-275.33 1698.5,-275.33 1698.5,-279.17 1694.67,-283 1690.83,-283"/>
<text text-anchor="middle" x="1600" y="-267.8" font-family="Arial" font-size="14.00" fill="#000000">validate&#45;workspace&#45;tsconfig.ts</text>
</g>
<!-- src/validation/validate&#45;all.ts&#45;&gt;src/validation/validate&#45;workspace&#45;tsconfig.ts -->
<!-- src/validation/validate&#45;all.ts&#45;&gt;src/validation/validate&#45;workspace&#45;tsconfig.ts -->
<g id="edge120" class="edge">
<title>src/validation/validate&#45;all.ts&#45;&gt;src/validation/validate&#45;workspace&#45;tsconfig.ts</title>
<path fill="none" stroke="black" d="M1466.97,-318.91C1495.91,-309.75 1535.77,-296.45 1564.36,-286.43"/>
<polygon fill="black" stroke="black" points="1565.71,-289.66 1573.97,-283.03 1563.37,-283.06 1565.71,-289.66"/>
</g>
<!-- src/validation/is&#45;in&#45;clusters.ts -->
<g id="node28" class="node">
<title>src/validation/is&#45;in&#45;clusters.ts</title>
<path fill="none" stroke="#000000" d="M1475.83,-283C1475.83,-283 1384.17,-283 1384.17,-283 1380.33,-283 1376.5,-279.17 1376.5,-275.33 1376.5,-275.33 1376.5,-267.67 1376.5,-267.67 1376.5,-263.83 1380.33,-260 1384.17,-260 1384.17,-260 1475.83,-260 1475.83,-260 1479.67,-260 1483.5,-263.83 1483.5,-267.67 1483.5,-267.67 1483.5,-275.33 1483.5,-275.33 1483.5,-279.17 1479.67,-283 1475.83,-283"/>
<text text-anchor="middle" x="1430" y="-267.8" font-family="Arial" font-size="14.00" fill="#000000">is&#45;in&#45;clusters.ts</text>
</g>
<!-- src/validation/validate&#45;all.ts&#45;&gt;src/validation/is&#45;in&#45;clusters.ts -->
<!-- src/validation/validate&#45;all.ts&#45;&gt;src/validation/is&#45;in&#45;clusters.ts -->
<g id="edge114" class="edge">
<title>src/validation/validate&#45;all.ts&#45;&gt;src/validation/is&#45;in&#45;clusters.ts</title>
<path fill="none" stroke="black" d="M1435.41,-318.78C1436.67,-311.61 1437.04,-301.95 1436.53,-293.31"/>
<polygon fill="black" stroke="black" points="1439.98,-292.73 1435.4,-283.17 1433.03,-293.5 1439.98,-292.73"/>
</g>
<!-- src/validation/validate&#45;changesets.ts&#45;&gt;exit_src/validation -->
<!-- src/validation/validate&#45;package&#45;json.ts&#45;&gt;exit_src/validation -->
<!-- src/validation/validate&#45;workspace&#45;tsconfig.ts&#45;&gt;exit_src/validation -->
<!-- src/changeset/build&#45;changelog.ts -->
<g id="node18" class="node">
<title>src/changeset/build&#45;changelog.ts</title>
<path fill="none" stroke="#000000" d="M399.33,-224C399.33,-224 288.67,-224 288.67,-224 284.83,-224 281,-220.17 281,-216.33 281,-216.33 281,-208.67 281,-208.67 281,-204.83 284.83,-201 288.67,-201 288.67,-201 399.33,-201 399.33,-201 403.17,-201 407,-204.83 407,-208.67 407,-208.67 407,-216.33 407,-216.33 407,-220.17 403.17,-224 399.33,-224"/>
<text text-anchor="middle" x="344" y="-208.8" font-family="Arial" font-size="14.00" fill="#000000">build&#45;changelog.ts</text>
</g>
<!-- src/changeset/build&#45;changelog.ts&#45;&gt;src/changeset/get&#45;changeset&#45;details.ts -->
<!-- src/changeset/build&#45;changelog.ts&#45;&gt;src/changeset/get&#45;changeset&#45;details.ts -->
<g id="edge85" class="edge">
<title>src/changeset/build&#45;changelog.ts&#45;&gt;src/changeset/get&#45;changeset&#45;details.ts</title>
<path fill="none" stroke="black" d="M364.46,-200.78C377.53,-192.5 394.1,-180.89 406.55,-171.36"/>
<polygon fill="black" stroke="black" points="408.73,-174.11 414.42,-165.17 404.4,-168.61 408.73,-174.11"/>
</g>
<!-- src/changeset/build&#45;changelog.ts&#45;&gt;src/changeset/helpers.ts -->
<!-- src/changeset/build&#45;changelog.ts&#45;&gt;src/changeset/helpers.ts -->
<g id="edge87" class="edge">
<title>src/changeset/build&#45;changelog.ts&#45;&gt;src/changeset/helpers.ts</title>
<path fill="none" stroke="black" d="M335.3,-200.78C325.77,-192.42 310.56,-180.66 297.03,-171.09"/>
<polygon fill="black" stroke="black" points="298.67,-167.97 288.45,-165.17 294.69,-173.73 298.67,-167.97"/>
</g>
<!-- src/changeset/build&#45;changelog.ts&#45;&gt;exit_src/changeset -->
<!-- src/changeset/changelog&#45;global.ts -->
<g id="node19" class="node">
<title>src/changeset/changelog&#45;global.ts</title>
<path fill="none" stroke="#000000" d="M255.33,-224C255.33,-224 136.67,-224 136.67,-224 132.83,-224 129,-220.17 129,-216.33 129,-216.33 129,-208.67 129,-208.67 129,-204.83 132.83,-201 136.67,-201 136.67,-201 255.33,-201 255.33,-201 259.17,-201 263,-204.83 263,-208.67 263,-208.67 263,-216.33 263,-216.33 263,-220.17 259.17,-224 255.33,-224"/>
<text text-anchor="middle" x="196" y="-208.8" font-family="Arial" font-size="14.00" fill="#000000">changelog&#45;global.ts</text>
</g>
<!-- src/changeset/changelog&#45;global.ts&#45;&gt;src/changeset/helpers.ts -->
<!-- src/changeset/changelog&#45;global.ts&#45;&gt;src/changeset/helpers.ts -->
<g id="edge99" class="edge">
<title>src/changeset/changelog&#45;global.ts&#45;&gt;src/changeset/helpers.ts</title>
<path fill="none" stroke="black" d="M215.14,-200.78C226.97,-192.66 241.76,-181.33 252.97,-171.92"/>
<polygon fill="black" stroke="black" points="255.48,-174.37 260.73,-165.17 250.89,-169.09 255.48,-174.37"/>
</g>
<!-- src/changeset/changelog&#45;global.ts&#45;&gt;exit_src/changeset -->
<!-- src/changeset/changelog&#45;individual.cts -->
<g id="node20" class="node">
<title>src/changeset/changelog&#45;individual.cts</title>
<path fill="none" stroke="#000000" d="M185.83,-165C185.83,-165 40.17,-165 40.17,-165 36.33,-165 32.5,-161.17 32.5,-157.33 32.5,-157.33 32.5,-149.67 32.5,-149.67 32.5,-145.83 36.33,-142 40.17,-142 40.17,-142 185.83,-142 185.83,-142 189.67,-142 193.5,-145.83 193.5,-149.67 193.5,-149.67 193.5,-157.33 193.5,-157.33 193.5,-161.17 189.67,-165 185.83,-165"/>
<text text-anchor="middle" x="113" y="-149.8" font-family="Arial" font-size="14.00" fill="#000000">changelog&#45;individual.cts</text>
</g>
<!-- src/changeset/changelog&#45;individual.cts&#45;&gt;exit_src/changeset -->
<!-- src/coverage/generate&#45;unit&#45;test&#45;coverage&#45;report.ts -->
<g id="node21" class="node">
<title>src/coverage/generate&#45;unit&#45;test&#45;coverage&#45;report.ts</title>
<path fill="none" stroke="#000000" d="M952.33,-283C952.33,-283 731.67,-283 731.67,-283 727.83,-283 724,-279.17 724,-275.33 724,-275.33 724,-267.67 724,-267.67 724,-263.83 727.83,-260 731.67,-260 731.67,-260 952.33,-260 952.33,-260 956.17,-260 960,-263.83 960,-267.67 960,-267.67 960,-275.33 960,-275.33 960,-279.17 956.17,-283 952.33,-283"/>
<text text-anchor="middle" x="842" y="-267.8" font-family="Arial" font-size="14.00" fill="#000000">generate&#45;unit&#45;test&#45;coverage&#45;report.ts</text>
</g>
<!-- src/coverage/generate&#45;unit&#45;test&#45;coverage&#45;report.ts&#45;&gt;src/common.ts -->
<!-- src/coverage/generate&#45;unit&#45;test&#45;coverage&#45;report.ts&#45;&gt;exit_src/coverage -->
<!-- src/coverage/generate&#45;unit&#45;test&#45;coverage&#45;report.ts&#45;&gt;src/coverage/transform&#45;unit&#45;test&#45;coverage&#45;data.ts -->
<!-- src/coverage/generate&#45;unit&#45;test&#45;coverage&#45;report.ts&#45;&gt;src/coverage/transform&#45;unit&#45;test&#45;coverage&#45;data.ts -->
<g id="edge72" class="edge">
<title>src/coverage/generate&#45;unit&#45;test&#45;coverage&#45;report.ts&#45;&gt;src/coverage/transform&#45;unit&#45;test&#45;coverage&#45;data.ts</title>
<path fill="none" stroke="black" d="M845.91,-259.78C846.16,-252.53 845.15,-242.74 843.39,-234.02"/>
<polygon fill="black" stroke="black" points="846.74,-233.01 840.9,-224.17 839.96,-234.73 846.74,-233.01"/>
</g>
<!-- name_src/coverage -->
<g id="node22" class="node">
<title>name_src/coverage</title>
<path fill="none" stroke="#ff0000" stroke-width="5" d="M593.33,-283C593.33,-283 536.67,-283 536.67,-283 532.83,-283 529,-279.17 529,-275.33 529,-275.33 529,-267.67 529,-267.67 529,-263.83 532.83,-260 536.67,-260 536.67,-260 593.33,-260 593.33,-260 597.17,-260 601,-263.83 601,-267.67 601,-267.67 601,-275.33 601,-275.33 601,-279.17 597.17,-283 593.33,-283"/>
<text text-anchor="middle" x="565" y="-267.8" font-family="Arial" font-size="14.00" fill="#000000">coverage</text>
</g>
<!-- src/coverage/upload&#45;coverage&#45;report.ts -->
<g id="node23" class="node">
<title>src/coverage/upload&#45;coverage&#45;report.ts</title>
<path fill="none" stroke="#000000" d="M691.83,-224C691.83,-224 536.17,-224 536.17,-224 532.33,-224 528.5,-220.17 528.5,-216.33 528.5,-216.33 528.5,-208.67 528.5,-208.67 528.5,-204.83 532.33,-201 536.17,-201 536.17,-201 691.83,-201 691.83,-201 695.67,-201 699.5,-204.83 699.5,-208.67 699.5,-208.67 699.5,-216.33 699.5,-216.33 699.5,-220.17 695.67,-224 691.83,-224"/>
<text text-anchor="middle" x="614" y="-208.8" font-family="Arial" font-size="14.00" fill="#000000">upload&#45;coverage&#45;report.ts</text>
</g>
<!-- src/coverage/upload&#45;coverage&#45;report.ts&#45;&gt;exit_src/coverage -->
<!-- src/dependency&#45;graph/index.ts -->
<g id="node24" class="node">
<title>src/dependency&#45;graph/index.ts</title>
<path fill="none" stroke="#00ff66" stroke-width="5" d="M2118.83,-401C2118.83,-401 2071.17,-401 2071.17,-401 2067.33,-401 2063.5,-397.17 2063.5,-393.33 2063.5,-393.33 2063.5,-385.67 2063.5,-385.67 2063.5,-381.83 2067.33,-378 2071.17,-378 2071.17,-378 2118.83,-378 2118.83,-378 2122.67,-378 2126.5,-381.83 2126.5,-385.67 2126.5,-385.67 2126.5,-393.33 2126.5,-393.33 2126.5,-397.17 2122.67,-401 2118.83,-401"/>
<text text-anchor="middle" x="2095" y="-385.8" font-family="Arial" font-size="14.00" fill="#000000">index.ts</text>
</g>
<!-- src/dependency&#45;graph/index.ts&#45;&gt;src/dependency&#45;graph/dependency&#45;graph.ts -->
<!-- src/dependency&#45;graph/index.ts&#45;&gt;src/dependency&#45;graph/dependency&#45;graph.ts -->
<g id="edge74" class="edge">
<title>src/dependency&#45;graph/index.ts&#45;&gt;src/dependency&#45;graph/dependency&#45;graph.ts</title>
<path fill="none" stroke="black" d="M2094.79,-377.82C2089,-349.19 2062.34,-270.43 2046.27,-233.33"/>
<polygon fill="black" stroke="black" points="2049.37,-231.7 2042.05,-224.04 2043,-234.6 2049.37,-231.7"/>
</g>
<!-- src/dependency&#45;graph/index.ts&#45;&gt;src/dependency&#45;graph/generate&#45;graphs.ts -->
<!-- src/dependency&#45;graph/index.ts&#45;&gt;src/dependency&#45;graph/generate&#45;graphs.ts -->
<g id="edge76" class="edge">
<title>src/dependency&#45;graph/index.ts&#45;&gt;src/dependency&#45;graph/generate&#45;graphs.ts</title>
<path fill="none" stroke="black" d="M2080.47,-377.78C2065.72,-369.02 2042.72,-356.53 2023.39,-346.74"/>
<polygon fill="black" stroke="black" points="2024.76,-343.51 2014.25,-342.17 2021.63,-349.77 2024.76,-343.51"/>
</g>
<!-- src/dependency&#45;graph/index.ts&#45;&gt;exit_src/dependency&#45;graph -->
<!-- name_src/dependency&#45;graph -->
<g id="node25" class="node">
<title>name_src/dependency&#45;graph</title>
<path fill="none" stroke="#00ff66" stroke-width="5" d="M2037.83,-401C2037.83,-401 1924.17,-401 1924.17,-401 1920.33,-401 1916.5,-397.17 1916.5,-393.33 1916.5,-393.33 1916.5,-385.67 1916.5,-385.67 1916.5,-381.83 1920.33,-378 1924.17,-378 1924.17,-378 2037.83,-378 2037.83,-378 2041.67,-378 2045.5,-381.83 2045.5,-385.67 2045.5,-385.67 2045.5,-393.33 2045.5,-393.33 2045.5,-397.17 2041.67,-401 2037.83,-401"/>
<text text-anchor="middle" x="1981" y="-385.8" font-family="Arial" font-size="14.00" fill="#000000">dependency&#45;graph</text>
</g>
<!-- src/validation/index.ts -->
<g id="node26" class="node">
<title>src/validation/index.ts</title>
<path fill="none" stroke="#ccff00" stroke-width="5" d="M1453.83,-401C1453.83,-401 1406.17,-401 1406.17,-401 1402.33,-401 1398.5,-397.17 1398.5,-393.33 1398.5,-393.33 1398.5,-385.67 1398.5,-385.67 1398.5,-381.83 1402.33,-378 1406.17,-378 1406.17,-378 1453.83,-378 1453.83,-378 1457.67,-378 1461.5,-381.83 1461.5,-385.67 1461.5,-385.67 1461.5,-393.33 1461.5,-393.33 1461.5,-397.17 1457.67,-401 1453.83,-401"/>
<text text-anchor="middle" x="1430" y="-385.8" font-family="Arial" font-size="14.00" fill="#000000">index.ts</text>
</g>
<!-- src/validation/index.ts&#45;&gt;exit_src/validation -->
<!-- src/validation/index.ts&#45;&gt;src/validation/has&#45;extractor&#45;config.ts -->
<!-- src/validation/index.ts&#45;&gt;src/validation/has&#45;extractor&#45;config.ts -->
<g id="edge89" class="edge">
<title>src/validation/index.ts&#45;&gt;src/validation/has&#45;extractor&#45;config.ts</title>
<path fill="none" stroke="black" d="M1461.61,-379.59C1528.12,-359.45 1681.76,-310.3 1753.7,-286.23"/>
<polygon fill="black" stroke="black" points="1754.93,-289.51 1763.29,-283.01 1752.7,-282.88 1754.93,-289.51"/>
</g>
<!-- src/validation/index.ts&#45;&gt;src/validation/validate&#45;all.ts -->
<!-- src/validation/index.ts&#45;&gt;src/validation/validate&#45;all.ts -->
<g id="edge91" class="edge">
<title>src/validation/index.ts&#45;&gt;src/validation/validate&#45;all.ts</title>
<path fill="none" stroke="black" d="M1435.41,-377.78C1436.67,-370.61 1437.04,-360.95 1436.53,-352.31"/>
<polygon fill="black" stroke="black" points="1439.98,-351.73 1435.4,-342.17 1433.03,-352.5 1439.98,-351.73"/>
</g>
<!-- src/validation/index.ts&#45;&gt;src/validation/validate&#45;changesets.ts -->
<!-- src/validation/index.ts&#45;&gt;src/validation/validate&#45;changesets.ts -->
<g id="edge93" class="edge">
<title>src/validation/index.ts&#45;&gt;src/validation/validate&#45;changesets.ts</title>
<path fill="none" stroke="black" d="M1402.29,-377.9C1342.37,-356.8 1200.84,-309.57 1127.56,-286.17"/>
<polygon fill="black" stroke="black" points="1128.28,-282.73 1117.69,-283.04 1126.16,-289.4 1128.28,-282.73"/>
</g>
<!-- src/validation/index.ts&#45;&gt;src/validation/validate&#45;package&#45;json.ts -->
<!-- src/validation/index.ts&#45;&gt;src/validation/validate&#45;package&#45;json.ts -->
<g id="edge95" class="edge">
<title>src/validation/index.ts&#45;&gt;src/validation/validate&#45;package&#45;json.ts</title>
<path fill="none" stroke="black" d="M1418.15,-377.79C1390.82,-357.28 1324.06,-312.36 1285.46,-288.36"/>
<polygon fill="black" stroke="black" points="1287.11,-285.26 1276.76,-283.01 1283.45,-291.23 1287.11,-285.26"/>
</g>
<!-- src/validation/index.ts&#45;&gt;src/validation/validate&#45;workspace&#45;tsconfig.ts -->
<!-- src/validation/index.ts&#45;&gt;src/validation/validate&#45;workspace&#45;tsconfig.ts -->
<g id="edge97" class="edge">
<title>src/validation/index.ts&#45;&gt;src/validation/validate&#45;workspace&#45;tsconfig.ts</title>
<path fill="none" stroke="black" d="M1449.8,-377.79C1482.62,-357.6 1547.2,-313.72 1580.08,-289.46"/>
<polygon fill="black" stroke="black" points="1582.56,-291.98 1588.46,-283.18 1578.36,-286.38 1582.56,-291.98"/>
</g>
<!-- name_src/validation -->
<g id="node27" class="node">
<title>name_src/validation</title>
<path fill="none" stroke="#ccff00" stroke-width="5" d="M1072.33,-401C1072.33,-401 1013.67,-401 1013.67,-401 1009.83,-401 1006,-397.17 1006,-393.33 1006,-393.33 1006,-385.67 1006,-385.67 1006,-381.83 1009.83,-378 1013.67,-378 1013.67,-378 1072.33,-378 1072.33,-378 1076.17,-378 1080,-381.83 1080,-385.67 1080,-385.67 1080,-393.33 1080,-393.33 1080,-397.17 1076.17,-401 1072.33,-401"/>
<text text-anchor="middle" x="1043" y="-385.8" font-family="Arial" font-size="14.00" fill="#000000">validation</text>
</g>
<!-- src/validation/is&#45;in&#45;clusters.ts&#45;&gt;exit_src/validation -->
<!-- exit_src&#45;&gt;exit_src -->
<!-- exit_src&#45;&gt;exit_src -->
<!-- exit_src&#45;&gt;exit_src -->
<!-- exit_src&#45;&gt;exit_src -->
<!-- exit_src&#45;&gt;exit_src -->
<!-- exit_src&#45;&gt;exit_src -->
<!-- exit_src&#45;&gt;exit_src -->
<!-- exit_src&#45;&gt;exit_src -->
<!-- exit_src&#45;&gt;exit_src -->
<!-- exit_src&#45;&gt;exit_src -->
<!-- exit_src&#45;&gt;exit_src -->
<!-- exit_src&#45;&gt;exit_src -->
<!-- exit_src&#45;&gt;exit_src -->
<!-- exit_src&#45;&gt;exit_src -->
<!-- exit_src&#45;&gt;exit_src -->
<!-- exit_src&#45;&gt;exit_src -->
<!-- exit_src&#45;&gt;exit_src -->
<!-- exit_src&#45;&gt;exit_src -->
<!-- exit_src&#45;&gt;exit_src -->
<!-- exit_src&#45;&gt;exit_src -->
<!-- exit_src&#45;&gt;exit_src -->
<!-- exit_src&#45;&gt;exit_src -->
<!-- exit_src&#45;&gt;exit_src -->
<!-- name_src -->
<g id="node30" class="node">
<title>name_src</title>
<path fill="none" stroke="#0066ff" stroke-width="5" d="M1483.33,-460C1483.33,-460 1444.67,-460 1444.67,-460 1440.83,-460 1437,-456.17 1437,-452.33 1437,-452.33 1437,-444.67 1437,-444.67 1437,-440.83 1440.83,-437 1444.67,-437 1444.67,-437 1483.33,-437 1483.33,-437 1487.17,-437 1491,-440.83 1491,-444.67 1491,-444.67 1491,-452.33 1491,-452.33 1491,-456.17 1487.17,-460 1483.33,-460"/>
<text text-anchor="middle" x="1464" y="-444.8" font-family="Arial" font-size="14.00" fill="#000000">src</text>
</g>
<!-- src/create&#45;alfa&#45;package.ts -->
<g id="node31" class="node">
<title>src/create&#45;alfa&#45;package.ts</title>
<path fill="none" stroke="#000000" d="M2285.33,-106C2285.33,-106 2150.67,-106 2150.67,-106 2146.83,-106 2143,-102.17 2143,-98.33 2143,-98.33 2143,-90.67 2143,-90.67 2143,-86.83 2146.83,-83 2150.67,-83 2150.67,-83 2285.33,-83 2285.33,-83 2289.17,-83 2293,-86.83 2293,-90.67 2293,-90.67 2293,-98.33 2293,-98.33 2293,-102.17 2289.17,-106 2285.33,-106"/>
<text text-anchor="middle" x="2218" y="-90.8" font-family="Arial" font-size="14.00" fill="#000000">create&#45;alfa&#45;package.ts</text>
</g>
<!-- src/create&#45;alfa&#45;package.ts&#45;&gt;exit_src -->
<!-- src/index.ts -->
<g id="node32" class="node">
<title>src/index.ts</title>
<path fill="none" stroke="#0066ff" stroke-width="5" d="M570.83,-460C570.83,-460 523.17,-460 523.17,-460 519.33,-460 515.5,-456.17 515.5,-452.33 515.5,-452.33 515.5,-444.67 515.5,-444.67 515.5,-440.83 519.33,-437 523.17,-437 523.17,-437 570.83,-437 570.83,-437 574.67,-437 578.5,-440.83 578.5,-444.67 578.5,-444.67 578.5,-452.33 578.5,-452.33 578.5,-456.17 574.67,-460 570.83,-460"/>
<text text-anchor="middle" x="547" y="-444.8" font-family="Arial" font-size="14.00" fill="#000000">index.ts</text>
</g>
<!-- src/index.ts&#45;&gt;name_src/changeset -->
<g id="edge100" class="edge">
<title>src/index.ts&#45;&gt;name_src/changeset</title>
<path fill="none" stroke="#0066ff" d="M537.2,-436.84C515.33,-400.67 473.17,-282.26 464.16,-234.12"/>
<polygon fill="#0066ff" stroke="#0066ff" points="469.29,-240.99 463.68,-232 462.46,-242.52 469.29,-240.99"/>
</g>
<!-- src/index.ts&#45;&gt;name_src/changeset -->
<!-- src/index.ts&#45;&gt;name_src/changeset -->
<!-- src/index.ts&#45;&gt;name_src/coverage -->
<g id="edge103" class="edge">
<title>src/index.ts&#45;&gt;name_src/coverage</title>
<path fill="none" stroke="#0066ff" d="M544.65,-436.82C543.57,-408.44 551.19,-330.78 558.3,-293.29"/>
<polygon fill="#0066ff" stroke="#0066ff" points="558.01,-301.49 559.49,-291 551.79,-298.28 558.01,-301.49"/>
</g>
<!-- src/index.ts&#45;&gt;name_src/coverage -->
<!-- src/index.ts&#45;&gt;name_src/dependency&#45;graph -->
<g id="edge105" class="edge">
<title>src/index.ts&#45;&gt;name_src/dependency&#45;graph</title>
<path fill="none" stroke="#0066ff" d="M578.58,-447.43C754.04,-446.92 1611.09,-442.76 1898.04,-408.93"/>
<polygon fill="#0066ff" stroke="#0066ff" points="1898.5,-412.4 1908,-407.72 1897.65,-405.46 1898.5,-412.4"/>
</g>
<!-- src/index.ts&#45;&gt;name_src/validation -->
<g id="edge106" class="edge">
<title>src/index.ts&#45;&gt;name_src/validation</title>
<path fill="none" stroke="#0066ff" d="M578.63,-446.22C664.68,-442.51 902.55,-430.82 992.08,-411.35"/>
<polygon fill="#0066ff" stroke="#0066ff" points="993.08,-414.71 1002,-409 991.46,-407.9 993.08,-414.71"/>
</g>
<!-- src/index.ts&#45;&gt;exit_src -->
<!-- exit_src/changeset&#45;&gt;exit_src -->
<!-- exit_src/changeset&#45;&gt;exit_src -->
<!-- exit_src/changeset&#45;&gt;exit_src -->
<!-- exit_src/changeset&#45;&gt;exit_src -->
<!-- exit_src/changeset&#45;&gt;exit_src -->
</g>
</svg>
