<?xml version="1.0" encoding="UTF-8" standalone="no"?>
<!DOCTYPE svg PUBLIC "-//W3C//DTD SVG 1.1//EN"
 "http://www.w3.org/Graphics/SVG/1.1/DTD/svg11.dtd">
<!-- Generated by graphviz version 2.43.0 (0)
 -->
<!-- Title: dependency&#45;graph&#45;@siteimprove/alfa&#45;toolchain Pages: 1 -->
<svg width="2215pt" height="527pt"
 viewBox="0.00 0.00 2214.66 527.20" xmlns="http://www.w3.org/2000/svg" xmlns:xlink="http://www.w3.org/1999/xlink">
<g id="graph0" class="graph" transform="scale(1 1) rotate(0) translate(21.6 505.6)">
<title>dependency&#45;graph&#45;@siteimprove/alfa&#45;toolchain</title>
<polygon fill="#ffffff" stroke="transparent" points="-21.6,21.6 -21.6,-505.6 2193.06,-505.6 2193.06,21.6 -21.6,21.6"/>
<g id="clust1" class="cluster">
<title>cluster_src</title>
<polygon fill="#ffffff" stroke="#000000" points="8,-8 8,-476 2147,-476 2147,-8 8,-8"/>
</g>
<g id="clust2" class="cluster">
<title>cluster_src</title>
<polygon fill="#ffffff" stroke="#000000" points="16,-16 16,-468 2139,-468 2139,-16 16,-16"/>
</g>
<g id="clust3" class="cluster">
<title>cluster_src/dependency&#45;graph</title>
<polygon fill="#ffffff" stroke="#000000" points="986,-75 986,-409 1213,-409 1213,-75 986,-75"/>
</g>
<g id="clust4" class="cluster">
<title>cluster_src/coverage</title>
<polygon fill="#ffffff" stroke="#000000" points="520,-75 520,-232 978,-232 978,-75 520,-75"/>
</g>
<g id="clust5" class="cluster">
<title>cluster_src/validation</title>
<polygon fill="#ffffff" stroke="#000000" points="1221,-193 1221,-409 2119,-409 2119,-193 1221,-193"/>
</g>
<g id="clust6" class="cluster">
<title>cluster_src/changeset</title>
<polygon fill="#ffffff" stroke="#000000" points="24,-75 24,-232 512,-232 512,-75 24,-75"/>
</g>
<!-- src/dependency&#45;graph/rainbow.ts -->
<g id="node1" class="node">
<title>src/dependency&#45;graph/rainbow.ts</title>
<path fill="none" stroke="#000000" d="M1096.83,-165C1096.83,-165 1035.17,-165 1035.17,-165 1031.33,-165 1027.5,-161.17 1027.5,-157.33 1027.5,-157.33 1027.5,-149.67 1027.5,-149.67 1027.5,-145.83 1031.33,-142 1035.17,-142 1035.17,-142 1096.83,-142 1096.83,-142 1100.67,-142 1104.5,-145.83 1104.5,-149.67 1104.5,-149.67 1104.5,-157.33 1104.5,-157.33 1104.5,-161.17 1100.67,-165 1096.83,-165"/>
<text text-anchor="middle" x="1066" y="-149.8" font-family="Arial" font-size="14.00" fill="#000000">rainbow.ts</text>
</g>
<!-- exit_src/dependency&#45;graph -->
<!-- src/dependency&#45;graph/rainbow.ts&#45;&gt;exit_src/dependency&#45;graph -->
<!-- src/coverage/transform&#45;unit&#45;test&#45;coverage&#45;data.ts -->
<g id="node2" class="node">
<title>src/coverage/transform&#45;unit&#45;test&#45;coverage&#45;data.ts</title>
<path fill="none" stroke="#000000" d="M942.33,-165C942.33,-165 725.67,-165 725.67,-165 721.83,-165 718,-161.17 718,-157.33 718,-157.33 718,-149.67 718,-149.67 718,-145.83 721.83,-142 725.67,-142 725.67,-142 942.33,-142 942.33,-142 946.17,-142 950,-145.83 950,-149.67 950,-149.67 950,-157.33 950,-157.33 950,-161.17 946.17,-165 942.33,-165"/>
<text text-anchor="middle" x="834" y="-149.8" font-family="Arial" font-size="14.00" fill="#000000">transform&#45;unit&#45;test&#45;coverage&#45;data.ts</text>
</g>
<!-- exit_src/coverage -->
<!-- src/coverage/transform&#45;unit&#45;test&#45;coverage&#45;data.ts&#45;&gt;exit_src/coverage -->
<!-- src/dependency&#45;graph/dependency&#45;graph.ts -->
<g id="node3" class="node">
<title>src/dependency&#45;graph/dependency&#45;graph.ts</title>
<path fill="none" stroke="#000000" d="M1129.83,-224C1129.83,-224 1002.17,-224 1002.17,-224 998.33,-224 994.5,-220.17 994.5,-216.33 994.5,-216.33 994.5,-208.67 994.5,-208.67 994.5,-204.83 998.33,-201 1002.17,-201 1002.17,-201 1129.83,-201 1129.83,-201 1133.67,-201 1137.5,-204.83 1137.5,-208.67 1137.5,-208.67 1137.5,-216.33 1137.5,-216.33 1137.5,-220.17 1133.67,-224 1129.83,-224"/>
<text text-anchor="middle" x="1066" y="-208.8" font-family="Arial" font-size="14.00" fill="#000000">dependency&#45;graph.ts</text>
</g>
<!-- src/dependency&#45;graph/dependency&#45;graph.ts&#45;&gt;src/dependency&#45;graph/rainbow.ts -->
<!-- src/dependency&#45;graph/dependency&#45;graph.ts&#45;&gt;src/dependency&#45;graph/rainbow.ts -->
<g id="edge66" class="edge">
<title>src/dependency&#45;graph/dependency&#45;graph.ts&#45;&gt;src/dependency&#45;graph/rainbow.ts</title>
<path fill="none" stroke="black" d="M1071.41,-200.78C1072.67,-193.61 1073.04,-183.95 1072.53,-175.31"/>
<polygon fill="black" stroke="black" points="1075.98,-174.73 1071.4,-165.17 1069.03,-175.5 1075.98,-174.73"/>
</g>
<!-- src/dependency&#45;graph/dependency&#45;graph.ts&#45;&gt;exit_src/dependency&#45;graph -->
<!-- src/dependency&#45;graph/generate&#45;graphs.ts -->
<g id="node4" class="node">
<title>src/dependency&#45;graph/generate&#45;graphs.ts</title>
<path fill="none" stroke="#000000" d="M1177.33,-342C1177.33,-342 1062.67,-342 1062.67,-342 1058.83,-342 1055,-338.17 1055,-334.33 1055,-334.33 1055,-326.67 1055,-326.67 1055,-322.83 1058.83,-319 1062.67,-319 1062.67,-319 1177.33,-319 1177.33,-319 1181.17,-319 1185,-322.83 1185,-326.67 1185,-326.67 1185,-334.33 1185,-334.33 1185,-338.17 1181.17,-342 1177.33,-342"/>
<text text-anchor="middle" x="1120" y="-326.8" font-family="Arial" font-size="14.00" fill="#000000">generate&#45;graphs.ts</text>
</g>
<!-- src/dependency&#45;graph/generate&#45;graphs.ts&#45;&gt;src/dependency&#45;graph/dependency&#45;graph.ts -->
<!-- src/dependency&#45;graph/generate&#45;graphs.ts&#45;&gt;src/dependency&#45;graph/dependency&#45;graph.ts -->
<g id="edge75" class="edge">
<title>src/dependency&#45;graph/generate&#45;graphs.ts&#45;&gt;src/dependency&#45;graph/dependency&#45;graph.ts</title>
<path fill="none" stroke="black" stroke-dasharray="1,5" d="M1113.13,-318.96C1104.38,-310.47 1091.02,-297.57 1084,-283 1076.75,-267.95 1074.69,-249.05 1072.95,-234.76"/>
<polygon fill="black" stroke="black" points="1076.36,-233.88 1071.52,-224.45 1069.42,-234.84 1076.36,-233.88"/>
</g>
<!-- src/dependency&#45;graph/helpers.ts -->
<g id="node8" class="node">
<title>src/dependency&#45;graph/helpers.ts</title>
<path fill="none" stroke="#000000" d="M1150.83,-283C1150.83,-283 1091.17,-283 1091.17,-283 1087.33,-283 1083.5,-279.17 1083.5,-275.33 1083.5,-275.33 1083.5,-267.67 1083.5,-267.67 1083.5,-263.83 1087.33,-260 1091.17,-260 1091.17,-260 1150.83,-260 1150.83,-260 1154.67,-260 1158.5,-263.83 1158.5,-267.67 1158.5,-267.67 1158.5,-275.33 1158.5,-275.33 1158.5,-279.17 1154.67,-283 1150.83,-283"/>
<text text-anchor="middle" x="1121" y="-267.8" font-family="Arial" font-size="14.00" fill="#000000">helpers.ts</text>
</g>
<!-- src/dependency&#45;graph/generate&#45;graphs.ts&#45;&gt;src/dependency&#45;graph/helpers.ts -->
<!-- src/dependency&#45;graph/generate&#45;graphs.ts&#45;&gt;src/dependency&#45;graph/helpers.ts -->
<g id="edge77" class="edge">
<title>src/dependency&#45;graph/generate&#45;graphs.ts&#45;&gt;src/dependency&#45;graph/helpers.ts</title>
<path fill="none" stroke="black" d="M1125.6,-318.78C1126.98,-311.61 1127.52,-301.95 1127.16,-293.31"/>
<polygon fill="black" stroke="black" points="1130.63,-292.8 1126.22,-283.17 1123.66,-293.46 1130.63,-292.8"/>
</g>
<!-- src/dependency&#45;graph/generate&#45;graphs.ts&#45;&gt;exit_src/dependency&#45;graph -->
<!-- src/changeset/get&#45;changeset&#45;details.ts -->
<g id="node5" class="node">
<title>src/changeset/get&#45;changeset&#45;details.ts</title>
<path fill="none" stroke="#000000" d="M496.33,-165C496.33,-165 351.67,-165 351.67,-165 347.83,-165 344,-161.17 344,-157.33 344,-157.33 344,-149.67 344,-149.67 344,-145.83 347.83,-142 351.67,-142 351.67,-142 496.33,-142 496.33,-142 500.17,-142 504,-145.83 504,-149.67 504,-149.67 504,-157.33 504,-157.33 504,-161.17 500.17,-165 496.33,-165"/>
<text text-anchor="middle" x="424" y="-149.8" font-family="Arial" font-size="14.00" fill="#000000">get&#45;changeset&#45;details.ts</text>
</g>
<!-- exit_src/changeset -->
<!-- src/changeset/get&#45;changeset&#45;details.ts&#45;&gt;exit_src/changeset -->
<!-- exit_src/validation -->
<!-- name_src/changeset -->
<g id="node7" class="node">
<title>name_src/changeset</title>
<path fill="none" stroke="#cc00ff" stroke-width="5" d="M496.83,-224C496.83,-224 433.17,-224 433.17,-224 429.33,-224 425.5,-220.17 425.5,-216.33 425.5,-216.33 425.5,-208.67 425.5,-208.67 425.5,-204.83 429.33,-201 433.17,-201 433.17,-201 496.83,-201 496.83,-201 500.67,-201 504.5,-204.83 504.5,-208.67 504.5,-208.67 504.5,-216.33 504.5,-216.33 504.5,-220.17 500.67,-224 496.83,-224"/>
<text text-anchor="middle" x="465" y="-208.8" font-family="Arial" font-size="14.00" fill="#000000">changeset</text>
</g>
<!-- exit_src/validation&#45;&gt;name_src/changeset -->
<g id="edge73" class="edge">
<title>exit_src/validation&#45;&gt;name_src/changeset</title>
<path fill="none" stroke="#ccff00" d="M1221,-242.89C1216.65,-244.11 1212.3,-245.17 1208,-246 1133.5,-260.47 598.44,-265.11 525,-246 517.2,-243.97 509.33,-240.68 501.98,-236.93"/>
<polygon fill="#ccff00" stroke="#ccff00" points="503.44,-233.74 492.99,-232 500.08,-239.87 503.44,-233.74"/>
</g>
<!-- exit_src -->
<!-- exit_src/validation&#45;&gt;exit_src -->
<!-- exit_src/validation&#45;&gt;exit_src -->
<!-- exit_src/validation&#45;&gt;exit_src -->
<!-- exit_src/validation&#45;&gt;exit_src -->
<!-- exit_src/validation&#45;&gt;exit_src -->
<!-- exit_src/validation&#45;&gt;exit_src -->
<!-- exit_src/validation&#45;&gt;exit_src -->
<!-- src/dependency&#45;graph/helpers.ts&#45;&gt;src/dependency&#45;graph/dependency&#45;graph.ts -->
<!-- src/dependency&#45;graph/helpers.ts&#45;&gt;src/dependency&#45;graph/dependency&#45;graph.ts -->
<g id="edge102" class="edge">
<title>src/dependency&#45;graph/helpers.ts&#45;&gt;src/dependency&#45;graph/dependency&#45;graph.ts</title>
<path fill="none" stroke="black" d="M1116.07,-259.78C1109.72,-251.74 1099.22,-240.55 1089.37,-231.19"/>
<polygon fill="black" stroke="black" points="1091.44,-228.34 1081.7,-224.17 1086.72,-233.51 1091.44,-228.34"/>
</g>
<!-- src/dependency&#45;graph/helpers.ts&#45;&gt;exit_src/dependency&#45;graph -->
<!-- src/changeset/helpers.ts -->
<g id="node9" class="node">
<title>src/changeset/helpers.ts</title>
<path fill="none" stroke="#000000" d="M298.83,-165C298.83,-165 239.17,-165 239.17,-165 235.33,-165 231.5,-161.17 231.5,-157.33 231.5,-157.33 231.5,-149.67 231.5,-149.67 231.5,-145.83 235.33,-142 239.17,-142 239.17,-142 298.83,-142 298.83,-142 302.67,-142 306.5,-145.83 306.5,-149.67 306.5,-149.67 306.5,-157.33 306.5,-157.33 306.5,-161.17 302.67,-165 298.83,-165"/>
<text text-anchor="middle" x="269" y="-149.8" font-family="Arial" font-size="14.00" fill="#000000">helpers.ts</text>
</g>
<!-- src/changeset/helpers.ts&#45;&gt;exit_src/changeset -->
<!-- src/validation/has&#45;extractor&#45;config.ts -->
<g id="node10" class="node">
<title>src/validation/has&#45;extractor&#45;config.ts</title>
<path fill="none" stroke="#000000" d="M2083.33,-283C2083.33,-283 1948.67,-283 1948.67,-283 1944.83,-283 1941,-279.17 1941,-275.33 1941,-275.33 1941,-267.67 1941,-267.67 1941,-263.83 1944.83,-260 1948.67,-260 1948.67,-260 2083.33,-260 2083.33,-260 2087.17,-260 2091,-263.83 2091,-267.67 2091,-267.67 2091,-275.33 2091,-275.33 2091,-279.17 2087.17,-283 2083.33,-283"/>
<text text-anchor="middle" x="2016" y="-267.8" font-family="Arial" font-size="14.00" fill="#000000">has&#45;extractor&#45;config.ts</text>
</g>
<!-- src/validation/has&#45;extractor&#45;config.ts&#45;&gt;exit_src/validation -->
<!-- src/validation/validate&#45;all.ts -->
<g id="node11" class="node">
<title>src/validation/validate&#45;all.ts</title>
<path fill="none" stroke="#000000" d="M1665.83,-342C1665.83,-342 1586.17,-342 1586.17,-342 1582.33,-342 1578.5,-338.17 1578.5,-334.33 1578.5,-334.33 1578.5,-326.67 1578.5,-326.67 1578.5,-322.83 1582.33,-319 1586.17,-319 1586.17,-319 1665.83,-319 1665.83,-319 1669.67,-319 1673.5,-322.83 1673.5,-326.67 1673.5,-326.67 1673.5,-334.33 1673.5,-334.33 1673.5,-338.17 1669.67,-342 1665.83,-342"/>
<text text-anchor="middle" x="1626" y="-326.8" font-family="Arial" font-size="14.00" fill="#000000">validate&#45;all.ts</text>
</g>
<!-- src/validation/validate&#45;all.ts&#45;&gt;exit_src/validation -->
<!-- src/validation/validate&#45;all.ts&#45;&gt;src/validation/has&#45;extractor&#45;config.ts -->
<!-- src/validation/validate&#45;all.ts&#45;&gt;src/validation/has&#45;extractor&#45;config.ts -->
<g id="edge104" class="edge">
<title>src/validation/validate&#45;all.ts&#45;&gt;src/validation/has&#45;extractor&#45;config.ts</title>
<path fill="none" stroke="black" d="M1673.66,-323.18C1740,-313.87 1860.68,-296.29 1939.62,-284.48"/>
<polygon fill="black" stroke="black" points="1940.15,-287.94 1949.52,-283 1939.11,-281.02 1940.15,-287.94"/>
</g>
<!-- src/validation/validate&#45;changesets.ts -->
<g id="node12" class="node">
<title>src/validation/validate&#45;changesets.ts</title>
<path fill="none" stroke="#000000" d="M1372.83,-283C1372.83,-283 1237.17,-283 1237.17,-283 1233.33,-283 1229.5,-279.17 1229.5,-275.33 1229.5,-275.33 1229.5,-267.67 1229.5,-267.67 1229.5,-263.83 1233.33,-260 1237.17,-260 1237.17,-260 1372.83,-260 1372.83,-260 1376.67,-260 1380.5,-263.83 1380.5,-267.67 1380.5,-267.67 1380.5,-275.33 1380.5,-275.33 1380.5,-279.17 1376.67,-283 1372.83,-283"/>
<text text-anchor="middle" x="1305" y="-267.8" font-family="Arial" font-size="14.00" fill="#000000">validate&#45;changesets.ts</text>
</g>
<!-- src/validation/validate&#45;all.ts&#45;&gt;src/validation/validate&#45;changesets.ts -->
<!-- src/validation/validate&#45;all.ts&#45;&gt;src/validation/validate&#45;changesets.ts -->
<g id="edge108" class="edge">
<title>src/validation/validate&#45;all.ts&#45;&gt;src/validation/validate&#45;changesets.ts</title>
<path fill="none" stroke="black" d="M1578.16,-320.09C1525.69,-310.43 1440.96,-295.35 1379.74,-284.77"/>
<polygon fill="black" stroke="black" points="1380.19,-281.29 1369.74,-283.04 1379,-288.19 1380.19,-281.29"/>
</g>
<!-- src/validation/validate&#45;package&#45;json.ts -->
<g id="node13" class="node">
<title>src/validation/validate&#45;package&#45;json.ts</title>
<path fill="none" stroke="#000000" d="M1699.33,-283C1699.33,-283 1552.67,-283 1552.67,-283 1548.83,-283 1545,-279.17 1545,-275.33 1545,-275.33 1545,-267.67 1545,-267.67 1545,-263.83 1548.83,-260 1552.67,-260 1552.67,-260 1699.33,-260 1699.33,-260 1703.17,-260 1707,-263.83 1707,-267.67 1707,-267.67 1707,-275.33 1707,-275.33 1707,-279.17 1703.17,-283 1699.33,-283"/>
<text text-anchor="middle" x="1626" y="-267.8" font-family="Arial" font-size="14.00" fill="#000000">validate&#45;package&#45;json.ts</text>
</g>
<!-- src/validation/validate&#45;all.ts&#45;&gt;src/validation/validate&#45;package&#45;json.ts -->
<!-- src/validation/validate&#45;all.ts&#45;&gt;src/validation/validate&#45;package&#45;json.ts -->
<g id="edge110" class="edge">
<title>src/validation/validate&#45;all.ts&#45;&gt;src/validation/validate&#45;package&#45;json.ts</title>
<path fill="none" stroke="black" d="M1631.41,-318.78C1632.67,-311.61 1633.04,-301.95 1632.53,-293.31"/>
<polygon fill="black" stroke="black" points="1635.98,-292.73 1631.4,-283.17 1629.03,-293.5 1635.98,-292.73"/>
</g>
<!-- src/validation/validate&#45;workspace&#45;tsconfig.ts -->
<g id="node14" class="node">
<title>src/validation/validate&#45;workspace&#45;tsconfig.ts</title>
<path fill="none" stroke="#000000" d="M1914.83,-283C1914.83,-283 1733.17,-283 1733.17,-283 1729.33,-283 1725.5,-279.17 1725.5,-275.33 1725.5,-275.33 1725.5,-267.67 1725.5,-267.67 1725.5,-263.83 1729.33,-260 1733.17,-260 1733.17,-260 1914.83,-260 1914.83,-260 1918.67,-260 1922.5,-263.83 1922.5,-267.67 1922.5,-267.67 1922.5,-275.33 1922.5,-275.33 1922.5,-279.17 1918.67,-283 1914.83,-283"/>
<text text-anchor="middle" x="1824" y="-267.8" font-family="Arial" font-size="14.00" fill="#000000">validate&#45;workspace&#45;tsconfig.ts</text>
</g>
<!-- src/validation/validate&#45;all.ts&#45;&gt;src/validation/validate&#45;workspace&#45;tsconfig.ts -->
<!-- src/validation/validate&#45;all.ts&#45;&gt;src/validation/validate&#45;workspace&#45;tsconfig.ts -->
<g id="edge112" class="edge">
<title>src/validation/validate&#45;all.ts&#45;&gt;src/validation/validate&#45;workspace&#45;tsconfig.ts</title>
<path fill="none" stroke="black" d="M1668.17,-318.91C1702.04,-309.63 1749.22,-296.1 1782.83,-286.03"/>
<polygon fill="black" stroke="black" points="1784.23,-289.27 1792.8,-283.03 1782.21,-282.57 1784.23,-289.27"/>
</g>
<!-- src/validation/is&#45;in&#45;clusters.ts -->
<g id="node25" class="node">
<title>src/validation/is&#45;in&#45;clusters.ts</title>
<path fill="none" stroke="#000000" d="M1518.83,-283C1518.83,-283 1427.17,-283 1427.17,-283 1423.33,-283 1419.5,-279.17 1419.5,-275.33 1419.5,-275.33 1419.5,-267.67 1419.5,-267.67 1419.5,-263.83 1423.33,-260 1427.17,-260 1427.17,-260 1518.83,-260 1518.83,-260 1522.67,-260 1526.5,-263.83 1526.5,-267.67 1526.5,-267.67 1526.5,-275.33 1526.5,-275.33 1526.5,-279.17 1522.67,-283 1518.83,-283"/>
<text text-anchor="middle" x="1473" y="-267.8" font-family="Arial" font-size="14.00" fill="#000000">is&#45;in&#45;clusters.ts</text>
</g>
<!-- src/validation/validate&#45;all.ts&#45;&gt;src/validation/is&#45;in&#45;clusters.ts -->
<!-- src/validation/validate&#45;all.ts&#45;&gt;src/validation/is&#45;in&#45;clusters.ts -->
<g id="edge106" class="edge">
<title>src/validation/validate&#45;all.ts&#45;&gt;src/validation/is&#45;in&#45;clusters.ts</title>
<path fill="none" stroke="black" d="M1602.97,-318.91C1580.01,-309.75 1544.46,-296.45 1516.27,-286.43"/>
<polygon fill="black" stroke="black" points="1517.24,-283.06 1506.65,-283.03 1514.91,-289.66 1517.24,-283.06"/>
</g>
<!-- src/validation/validate&#45;changesets.ts&#45;&gt;exit_src/validation -->
<!-- src/validation/validate&#45;package&#45;json.ts&#45;&gt;exit_src/validation -->
<!-- src/validation/validate&#45;workspace&#45;tsconfig.ts&#45;&gt;exit_src/validation -->
<!-- src/changeset/build&#45;changelog.ts -->
<g id="node15" class="node">
<title>src/changeset/build&#45;changelog.ts</title>
<path fill="none" stroke="#000000" d="M399.33,-224C399.33,-224 288.67,-224 288.67,-224 284.83,-224 281,-220.17 281,-216.33 281,-216.33 281,-208.67 281,-208.67 281,-204.83 284.83,-201 288.67,-201 288.67,-201 399.33,-201 399.33,-201 403.17,-201 407,-204.83 407,-208.67 407,-208.67 407,-216.33 407,-216.33 407,-220.17 403.17,-224 399.33,-224"/>
<text text-anchor="middle" x="344" y="-208.8" font-family="Arial" font-size="14.00" fill="#000000">build&#45;changelog.ts</text>
</g>
<!-- src/changeset/build&#45;changelog.ts&#45;&gt;src/changeset/get&#45;changeset&#45;details.ts -->
<!-- src/changeset/build&#45;changelog.ts&#45;&gt;src/changeset/get&#45;changeset&#45;details.ts -->
<g id="edge79" class="edge">
<title>src/changeset/build&#45;changelog.ts&#45;&gt;src/changeset/get&#45;changeset&#45;details.ts</title>
<path fill="none" stroke="black" d="M364.46,-200.78C377.53,-192.5 394.1,-180.89 406.55,-171.36"/>
<polygon fill="black" stroke="black" points="408.73,-174.11 414.42,-165.17 404.4,-168.61 408.73,-174.11"/>
</g>
<!-- src/changeset/build&#45;changelog.ts&#45;&gt;src/changeset/helpers.ts -->
<!-- src/changeset/build&#45;changelog.ts&#45;&gt;src/changeset/helpers.ts -->
<g id="edge81" class="edge">
<title>src/changeset/build&#45;changelog.ts&#45;&gt;src/changeset/helpers.ts</title>
<path fill="none" stroke="black" d="M335.3,-200.78C325.77,-192.42 310.56,-180.66 297.03,-171.09"/>
<polygon fill="black" stroke="black" points="298.67,-167.97 288.45,-165.17 294.69,-173.73 298.67,-167.97"/>
</g>
<!-- src/changeset/build&#45;changelog.ts&#45;&gt;exit_src/changeset -->
<!-- src/changeset/changelog&#45;global.ts -->
<g id="node16" class="node">
<title>src/changeset/changelog&#45;global.ts</title>
<path fill="none" stroke="#000000" d="M255.33,-224C255.33,-224 136.67,-224 136.67,-224 132.83,-224 129,-220.17 129,-216.33 129,-216.33 129,-208.67 129,-208.67 129,-204.83 132.83,-201 136.67,-201 136.67,-201 255.33,-201 255.33,-201 259.17,-201 263,-204.83 263,-208.67 263,-208.67 263,-216.33 263,-216.33 263,-220.17 259.17,-224 255.33,-224"/>
<text text-anchor="middle" x="196" y="-208.8" font-family="Arial" font-size="14.00" fill="#000000">changelog&#45;global.ts</text>
</g>
<!-- src/changeset/changelog&#45;global.ts&#45;&gt;src/changeset/helpers.ts -->
<!-- src/changeset/changelog&#45;global.ts&#45;&gt;src/changeset/helpers.ts -->
<g id="edge93" class="edge">
<title>src/changeset/changelog&#45;global.ts&#45;&gt;src/changeset/helpers.ts</title>
<path fill="none" stroke="black" d="M215.14,-200.78C226.97,-192.66 241.76,-181.33 252.97,-171.92"/>
<polygon fill="black" stroke="black" points="255.48,-174.37 260.73,-165.17 250.89,-169.09 255.48,-174.37"/>
</g>
<!-- src/changeset/changelog&#45;global.ts&#45;&gt;exit_src/changeset -->
<!-- src/changeset/changelog&#45;individual.cts -->
<g id="node17" class="node">
<title>src/changeset/changelog&#45;individual.cts</title>
<path fill="none" stroke="#000000" d="M185.83,-165C185.83,-165 40.17,-165 40.17,-165 36.33,-165 32.5,-161.17 32.5,-157.33 32.5,-157.33 32.5,-149.67 32.5,-149.67 32.5,-145.83 36.33,-142 40.17,-142 40.17,-142 185.83,-142 185.83,-142 189.67,-142 193.5,-145.83 193.5,-149.67 193.5,-149.67 193.5,-157.33 193.5,-157.33 193.5,-161.17 189.67,-165 185.83,-165"/>
<text text-anchor="middle" x="113" y="-149.8" font-family="Arial" font-size="14.00" fill="#000000">changelog&#45;individual.cts</text>
</g>
<!-- src/changeset/changelog&#45;individual.cts&#45;&gt;exit_src/changeset -->
<!-- src/coverage/generate&#45;unit&#45;test&#45;coverage&#45;report.ts -->
<g id="node18" class="node">
<title>src/coverage/generate&#45;unit&#45;test&#45;coverage&#45;report.ts</title>
<path fill="none" stroke="#000000" d="M944.33,-224C944.33,-224 723.67,-224 723.67,-224 719.83,-224 716,-220.17 716,-216.33 716,-216.33 716,-208.67 716,-208.67 716,-204.83 719.83,-201 723.67,-201 723.67,-201 944.33,-201 944.33,-201 948.17,-201 952,-204.83 952,-208.67 952,-208.67 952,-216.33 952,-216.33 952,-220.17 948.17,-224 944.33,-224"/>
<text text-anchor="middle" x="834" y="-208.8" font-family="Arial" font-size="14.00" fill="#000000">generate&#45;unit&#45;test&#45;coverage&#45;report.ts</text>
</g>
<!-- src/coverage/generate&#45;unit&#45;test&#45;coverage&#45;report.ts&#45;&gt;src/coverage/transform&#45;unit&#45;test&#45;coverage&#45;data.ts -->
<!-- src/coverage/generate&#45;unit&#45;test&#45;coverage&#45;report.ts&#45;&gt;src/coverage/transform&#45;unit&#45;test&#45;coverage&#45;data.ts -->
<g id="edge68" class="edge">
<title>src/coverage/generate&#45;unit&#45;test&#45;coverage&#45;report.ts&#45;&gt;src/coverage/transform&#45;unit&#45;test&#45;coverage&#45;data.ts</title>
<path fill="none" stroke="black" d="M839.41,-200.78C840.67,-193.61 841.04,-183.95 840.53,-175.31"/>
<polygon fill="black" stroke="black" points="843.98,-174.73 839.4,-165.17 837.03,-175.5 843.98,-174.73"/>
</g>
<!-- src/coverage/generate&#45;unit&#45;test&#45;coverage&#45;report.ts&#45;&gt;exit_src/coverage -->
<!-- name_src/coverage -->
<g id="node19" class="node">
<title>name_src/coverage</title>
<path fill="none" stroke="#ff0000" stroke-width="5" d="M641.33,-224C641.33,-224 584.67,-224 584.67,-224 580.83,-224 577,-220.17 577,-216.33 577,-216.33 577,-208.67 577,-208.67 577,-204.83 580.83,-201 584.67,-201 584.67,-201 641.33,-201 641.33,-201 645.17,-201 649,-204.83 649,-208.67 649,-208.67 649,-216.33 649,-216.33 649,-220.17 645.17,-224 641.33,-224"/>
<text text-anchor="middle" x="613" y="-208.8" font-family="Arial" font-size="14.00" fill="#000000">coverage</text>
</g>
<!-- src/coverage/upload&#45;coverage&#45;report.ts -->
<g id="node20" class="node">
<title>src/coverage/upload&#45;coverage&#45;report.ts</title>
<path fill="none" stroke="#000000" d="M691.83,-165C691.83,-165 536.17,-165 536.17,-165 532.33,-165 528.5,-161.17 528.5,-157.33 528.5,-157.33 528.5,-149.67 528.5,-149.67 528.5,-145.83 532.33,-142 536.17,-142 536.17,-142 691.83,-142 691.83,-142 695.67,-142 699.5,-145.83 699.5,-149.67 699.5,-149.67 699.5,-157.33 699.5,-157.33 699.5,-161.17 695.67,-165 691.83,-165"/>
<text text-anchor="middle" x="614" y="-149.8" font-family="Arial" font-size="14.00" fill="#000000">upload&#45;coverage&#45;report.ts</text>
</g>
<!-- src/coverage/upload&#45;coverage&#45;report.ts&#45;&gt;exit_src/coverage -->
<!-- src/dependency&#45;graph/index.ts -->
<g id="node21" class="node">
<title>src/dependency&#45;graph/index.ts</title>
<path fill="none" stroke="#00ff66" stroke-width="5" d="M1196.83,-401C1196.83,-401 1149.17,-401 1149.17,-401 1145.33,-401 1141.5,-397.17 1141.5,-393.33 1141.5,-393.33 1141.5,-385.67 1141.5,-385.67 1141.5,-381.83 1145.33,-378 1149.17,-378 1149.17,-378 1196.83,-378 1196.83,-378 1200.67,-378 1204.5,-381.83 1204.5,-385.67 1204.5,-385.67 1204.5,-393.33 1204.5,-393.33 1204.5,-397.17 1200.67,-401 1196.83,-401"/>
<text text-anchor="middle" x="1173" y="-385.8" font-family="Arial" font-size="14.00" fill="#000000">index.ts</text>
</g>
<!-- src/dependency&#45;graph/index.ts&#45;&gt;src/dependency&#45;graph/dependency&#45;graph.ts -->
<!-- src/dependency&#45;graph/index.ts&#45;&gt;src/dependency&#45;graph/dependency&#45;graph.ts -->
<g id="edge70" class="edge">
<title>src/dependency&#45;graph/index.ts&#45;&gt;src/dependency&#45;graph/dependency&#45;graph.ts</title>
<path fill="none" stroke="black" d="M1144.66,-377.96C1111.39,-366.86 1060.53,-349.92 1055,-342 1032.28,-309.49 1050.16,-261.08 1060.71,-233.91"/>
<polygon fill="black" stroke="black" points="1064.08,-234.89 1064.41,-224.3 1057.55,-232.37 1064.08,-234.89"/>
</g>
<!-- src/dependency&#45;graph/index.ts&#45;&gt;src/dependency&#45;graph/generate&#45;graphs.ts -->
<!-- src/dependency&#45;graph/index.ts&#45;&gt;src/dependency&#45;graph/generate&#45;graphs.ts -->
<g id="edge72" class="edge">
<title>src/dependency&#45;graph/index.ts&#45;&gt;src/dependency&#45;graph/generate&#45;graphs.ts</title>
<path fill="none" stroke="black" d="M1168.44,-377.78C1162.38,-369.74 1152.27,-358.55 1142.75,-349.19"/>
<polygon fill="black" stroke="black" points="1145,-346.5 1135.33,-342.17 1140.19,-351.59 1145,-346.5"/>
</g>
<!-- src/dependency&#45;graph/index.ts&#45;&gt;exit_src/dependency&#45;graph -->
<!-- name_src/dependency&#45;graph -->
<g id="node22" class="node">
<title>name_src/dependency&#45;graph</title>
<path fill="none" stroke="#00ff66" stroke-width="5" d="M1115.83,-401C1115.83,-401 1002.17,-401 1002.17,-401 998.33,-401 994.5,-397.17 994.5,-393.33 994.5,-393.33 994.5,-385.67 994.5,-385.67 994.5,-381.83 998.33,-378 1002.17,-378 1002.17,-378 1115.83,-378 1115.83,-378 1119.67,-378 1123.5,-381.83 1123.5,-385.67 1123.5,-385.67 1123.5,-393.33 1123.5,-393.33 1123.5,-397.17 1119.67,-401 1115.83,-401"/>
<text text-anchor="middle" x="1059" y="-385.8" font-family="Arial" font-size="14.00" fill="#000000">dependency&#45;graph</text>
</g>
<!-- src/validation/index.ts -->
<g id="node23" class="node">
<title>src/validation/index.ts</title>
<path fill="none" stroke="#ccff00" stroke-width="5" d="M1716.83,-401C1716.83,-401 1669.17,-401 1669.17,-401 1665.33,-401 1661.5,-397.17 1661.5,-393.33 1661.5,-393.33 1661.5,-385.67 1661.5,-385.67 1661.5,-381.83 1665.33,-378 1669.17,-378 1669.17,-378 1716.83,-378 1716.83,-378 1720.67,-378 1724.5,-381.83 1724.5,-385.67 1724.5,-385.67 1724.5,-393.33 1724.5,-393.33 1724.5,-397.17 1720.67,-401 1716.83,-401"/>
<text text-anchor="middle" x="1693" y="-385.8" font-family="Arial" font-size="14.00" fill="#000000">index.ts</text>
</g>
<!-- src/validation/index.ts&#45;&gt;exit_src/validation -->
<!-- src/validation/index.ts&#45;&gt;src/validation/has&#45;extractor&#45;config.ts -->
<!-- src/validation/index.ts&#45;&gt;src/validation/has&#45;extractor&#45;config.ts -->
<g id="edge83" class="edge">
<title>src/validation/index.ts&#45;&gt;src/validation/has&#45;extractor&#45;config.ts</title>
<path fill="none" stroke="black" d="M1724.52,-378.61C1785.34,-358.02 1917.94,-310.47 1981.22,-286.64"/>
<polygon fill="black" stroke="black" points="1982.65,-289.85 1990.76,-283.03 1980.17,-283.3 1982.65,-289.85"/>
</g>
<!-- src/validation/index.ts&#45;&gt;src/validation/validate&#45;all.ts -->
<!-- src/validation/index.ts&#45;&gt;src/validation/validate&#45;all.ts -->
<g id="edge85" class="edge">
<title>src/validation/index.ts&#45;&gt;src/validation/validate&#45;all.ts</title>
<path fill="none" stroke="black" d="M1685.81,-377.78C1677.53,-369.5 1664.15,-357.89 1652.05,-348.36"/>
<polygon fill="black" stroke="black" points="1654.02,-345.47 1643.95,-342.17 1649.77,-351.03 1654.02,-345.47"/>
</g>
<!-- src/validation/index.ts&#45;&gt;src/validation/validate&#45;changesets.ts -->
<!-- src/validation/index.ts&#45;&gt;src/validation/validate&#45;changesets.ts -->
<g id="edge87" class="edge">
<title>src/validation/index.ts&#45;&gt;src/validation/validate&#45;changesets.ts</title>
<path fill="none" stroke="black" d="M1661.64,-377.9C1594.17,-356.71 1435.33,-309.18 1354.28,-285.89"/>
<polygon fill="black" stroke="black" points="1354.9,-282.42 1344.32,-283.04 1352.97,-289.15 1354.9,-282.42"/>
</g>
<!-- src/validation/index.ts&#45;&gt;src/validation/validate&#45;package&#45;json.ts -->
<!-- src/validation/index.ts&#45;&gt;src/validation/validate&#45;package&#45;json.ts -->
<g id="edge89" class="edge">
<title>src/validation/index.ts&#45;&gt;src/validation/validate&#45;package&#45;json.ts</title>
<path fill="none" stroke="black" d="M1699.85,-377.85C1703.33,-363.52 1702.56,-337.68 1692,-319 1685.04,-306.69 1673.43,-296.32 1661.77,-288.53"/>
<polygon fill="black" stroke="black" points="1663.27,-285.34 1652.92,-283.08 1659.6,-291.3 1663.27,-285.34"/>
</g>
<!-- src/validation/index.ts&#45;&gt;src/validation/validate&#45;workspace&#45;tsconfig.ts -->
<!-- src/validation/index.ts&#45;&gt;src/validation/validate&#45;workspace&#45;tsconfig.ts -->
<g id="edge91" class="edge">
<title>src/validation/index.ts&#45;&gt;src/validation/validate&#45;workspace&#45;tsconfig.ts</title>
<path fill="none" stroke="black" d="M1709.2,-377.79C1734.9,-357.85 1783.78,-314.84 1808.82,-290.41"/>
<polygon fill="black" stroke="black" points="1811.45,-292.72 1816.05,-283.18 1806.5,-287.77 1811.45,-292.72"/>
</g>
<!-- name_src/validation -->
<g id="node24" class="node">
<title>name_src/validation</title>
<path fill="none" stroke="#ccff00" stroke-width="5" d="M1295.33,-401C1295.33,-401 1236.67,-401 1236.67,-401 1232.83,-401 1229,-397.17 1229,-393.33 1229,-393.33 1229,-385.67 1229,-385.67 1229,-381.83 1232.83,-378 1236.67,-378 1236.67,-378 1295.33,-378 1295.33,-378 1299.17,-378 1303,-381.83 1303,-385.67 1303,-385.67 1303,-393.33 1303,-393.33 1303,-397.17 1299.17,-401 1295.33,-401"/>
<text text-anchor="middle" x="1266" y="-385.8" font-family="Arial" font-size="14.00" fill="#000000">validation</text>
</g>
<!-- src/validation/is&#45;in&#45;clusters.ts&#45;&gt;exit_src/validation -->
<!-- exit_src&#45;&gt;exit_src -->
<!-- exit_src&#45;&gt;exit_src -->
<!-- exit_src&#45;&gt;exit_src -->
<!-- exit_src&#45;&gt;exit_src -->
<!-- exit_src&#45;&gt;exit_src -->
<!-- exit_src&#45;&gt;exit_src -->
<!-- exit_src&#45;&gt;exit_src -->
<!-- exit_src&#45;&gt;exit_src -->
<!-- exit_src&#45;&gt;exit_src -->
<!-- exit_src&#45;&gt;exit_src -->
<!-- exit_src&#45;&gt;exit_src -->
<!-- exit_src&#45;&gt;exit_src -->
<!-- exit_src&#45;&gt;exit_src -->
<!-- exit_src&#45;&gt;exit_src -->
<!-- exit_src&#45;&gt;exit_src -->
<!-- exit_src&#45;&gt;exit_src -->
<!-- exit_src&#45;&gt;exit_src -->
<!-- exit_src&#45;&gt;exit_src -->
<!-- exit_src&#45;&gt;exit_src -->
<!-- exit_src&#45;&gt;exit_src -->
<!-- exit_src&#45;&gt;exit_src -->
<!-- exit_src&#45;&gt;exit_src -->
<!-- name_src -->
<g id="node27" class="node">
<title>name_src</title>
<path fill="none" stroke="#0066ff" stroke-width="5" d="M1440.33,-460C1440.33,-460 1401.67,-460 1401.67,-460 1397.83,-460 1394,-456.17 1394,-452.33 1394,-452.33 1394,-444.67 1394,-444.67 1394,-440.83 1397.83,-437 1401.67,-437 1401.67,-437 1440.33,-437 1440.33,-437 1444.17,-437 1448,-440.83 1448,-444.67 1448,-444.67 1448,-452.33 1448,-452.33 1448,-456.17 1444.17,-460 1440.33,-460"/>
<text text-anchor="middle" x="1421" y="-444.8" font-family="Arial" font-size="14.00" fill="#000000">src</text>
</g>
<!-- src/create&#45;alfa&#45;package.ts -->
<g id="node28" class="node">
<title>src/create&#45;alfa&#45;package.ts</title>
<path fill="none" stroke="#000000" d="M2123.33,-106C2123.33,-106 1988.67,-106 1988.67,-106 1984.83,-106 1981,-102.17 1981,-98.33 1981,-98.33 1981,-90.67 1981,-90.67 1981,-86.83 1984.83,-83 1988.67,-83 1988.67,-83 2123.33,-83 2123.33,-83 2127.17,-83 2131,-86.83 2131,-90.67 2131,-90.67 2131,-98.33 2131,-98.33 2131,-102.17 2127.17,-106 2123.33,-106"/>
<text text-anchor="middle" x="2056" y="-90.8" font-family="Arial" font-size="14.00" fill="#000000">create&#45;alfa&#45;package.ts</text>
</g>
<!-- src/create&#45;alfa&#45;package.ts&#45;&gt;exit_src -->
<!-- src/index.ts -->
<g id="node29" class="node">
<title>src/index.ts</title>
<path fill="none" stroke="#0066ff" stroke-width="5" d="M636.83,-460C636.83,-460 589.17,-460 589.17,-460 585.33,-460 581.5,-456.17 581.5,-452.33 581.5,-452.33 581.5,-444.67 581.5,-444.67 581.5,-440.83 585.33,-437 589.17,-437 589.17,-437 636.83,-437 636.83,-437 640.67,-437 644.5,-440.83 644.5,-444.67 644.5,-444.67 644.5,-452.33 644.5,-452.33 644.5,-456.17 640.67,-460 636.83,-460"/>
<text text-anchor="middle" x="613" y="-444.8" font-family="Arial" font-size="14.00" fill="#000000">index.ts</text>
</g>
<!-- src/index.ts&#45;&gt;name_src/changeset -->
<g id="edge94" class="edge">
<title>src/index.ts&#45;&gt;name_src/changeset</title>
<path fill="none" stroke="#0066ff" d="M600.19,-436.84C567.99,-400.52 491.92,-281.26 469.69,-233.52"/>
<polygon fill="#0066ff" stroke="#0066ff" points="477.09,-238.48 468.7,-232 471.22,-242.29 477.09,-238.48"/>
</g>
<!-- src/index.ts&#45;&gt;name_src/changeset -->
<!-- src/index.ts&#45;&gt;name_src/changeset -->
<!-- src/index.ts&#45;&gt;name_src/coverage -->
<g id="edge97" class="edge">
<title>src/index.ts&#45;&gt;name_src/coverage</title>
<path fill="none" stroke="#0066ff" d="M609.97,-436.84C605.38,-400.75 605.04,-282.75 608.94,-234.43"/>
<polygon fill="#0066ff" stroke="#0066ff" points="609.31,-242.58 609.96,-232 602.86,-239.86 609.31,-242.58"/>
</g>
<!-- src/index.ts&#45;&gt;name_src/coverage -->
<!-- src/index.ts&#45;&gt;name_src/dependency&#45;graph -->
<g id="edge99" class="edge">
<title>src/index.ts&#45;&gt;name_src/dependency&#45;graph</title>
<path fill="none" stroke="#0066ff" d="M644.61,-446.04C708.12,-442.72 855.82,-433.12 980.89,-410.84"/>
<polygon fill="#0066ff" stroke="#0066ff" points="981.79,-414.23 991,-409 980.54,-407.35 981.79,-414.23"/>
</g>
<!-- src/index.ts&#45;&gt;name_src/validation -->
<g id="edge100" class="edge">
<title>src/index.ts&#45;&gt;name_src/validation</title>
<path fill="none" stroke="#0066ff" d="M644.51,-446.73C749.39,-443.96 1086.91,-433.51 1211.05,-410.07"/>
<polygon fill="#0066ff" stroke="#0066ff" points="1211.89,-413.47 1221,-408.06 1210.51,-406.61 1211.89,-413.47"/>
</g>
<!-- src/index.ts&#45;&gt;exit_src -->
<!-- exit_src/dependency&#45;graph&#45;&gt;exit_src -->
<!-- exit_src/dependency&#45;graph&#45;&gt;exit_src -->
<!-- exit_src/dependency&#45;graph&#45;&gt;exit_src -->
<!-- exit_src/dependency&#45;graph&#45;&gt;exit_src -->
<!-- exit_src/dependency&#45;graph&#45;&gt;exit_src -->
<!-- exit_src/coverage&#45;&gt;exit_src -->
<!-- exit_src/coverage&#45;&gt;exit_src -->
<!-- exit_src/coverage&#45;&gt;exit_src -->
<!-- exit_src/changeset&#45;&gt;exit_src -->
<!-- exit_src/changeset&#45;&gt;exit_src -->
<!-- exit_src/changeset&#45;&gt;exit_src -->
<!-- exit_src/changeset&#45;&gt;exit_src -->
<!-- exit_src/changeset&#45;&gt;exit_src -->
</g>
</svg>
