<?xml version="1.0" encoding="UTF-8" standalone="no"?>
<!DOCTYPE svg PUBLIC "-//W3C//DTD SVG 1.1//EN"
 "http://www.w3.org/Graphics/SVG/1.1/DTD/svg11.dtd">
<!-- Generated by graphviz version 2.43.0 (0)
 -->
<!-- Title: dependency&#45;graph&#45;[object Object] Pages: 1 -->
<svg width="1677pt" height="444pt"
 viewBox="0.00 0.00 1677.20 444.20" xmlns="http://www.w3.org/2000/svg" xmlns:xlink="http://www.w3.org/1999/xlink">
<g id="graph0" class="graph" transform="scale(1 1) rotate(0) translate(21.6 422.6)">
<title>dependency&#45;graph&#45;[object Object]</title>
<polygon fill="#ffffff" stroke="transparent" points="-21.6,21.6 -21.6,-422.6 1655.6,-422.6 1655.6,21.6 -21.6,21.6"/>
<g id="clust1" class="cluster">
<title>cluster_src</title>
<polygon fill="#ffffff" stroke="#000000" points="8,-43 8,-393 1626,-393 1626,-43 8,-43"/>
</g>
<g id="clust2" class="cluster">
<title>cluster_src</title>
<polygon fill="#ffffff" stroke="#000000" points="16,-51 16,-385 1618,-385 1618,-51 16,-51"/>
</g>
<g id="clust3" class="cluster">
<title>cluster_src/changeset</title>
<polygon fill="#ffffff" stroke="#000000" points="24,-110 24,-267 504,-267 504,-110 24,-110"/>
</g>
<g id="clust4" class="cluster">
<title>cluster_src/dependency&#45;graph</title>
<polygon fill="#ffffff" stroke="#000000" points="524,-110 524,-326 818,-326 818,-110 524,-110"/>
</g>
<g id="clust5" class="cluster">
<title>cluster_src/validation</title>
<polygon fill="#ffffff" stroke="#000000" points="826,-110 826,-326 1598,-326 1598,-110 826,-110"/>
</g>
<!-- dependency&#45;graph&#45;[object Object] -->
<!-- src/changeset/get&#45;changeset&#45;details.ts -->
<g id="node2" class="node">
<title>src/changeset/get&#45;changeset&#45;details.ts</title>
<path fill="none" stroke="#000000" d="M316.33,-200C316.33,-200 171.67,-200 171.67,-200 167.83,-200 164,-196.17 164,-192.33 164,-192.33 164,-184.67 164,-184.67 164,-180.83 167.83,-177 171.67,-177 171.67,-177 316.33,-177 316.33,-177 320.17,-177 324,-180.83 324,-184.67 324,-184.67 324,-192.33 324,-192.33 324,-196.17 320.17,-200 316.33,-200"/>
<text text-anchor="middle" x="244" y="-184.8" font-family="Arial" font-size="14.00" fill="#000000">get&#45;changeset&#45;details.ts</text>
</g>
<!-- exit_src/changeset -->
<!-- src/changeset/get&#45;changeset&#45;details.ts&#45;&gt;exit_src/changeset -->
<!-- src/changeset/helpers.ts -->
<g id="node3" class="node">
<title>src/changeset/helpers.ts</title>
<path fill="none" stroke="#000000" d="M118.83,-200C118.83,-200 59.17,-200 59.17,-200 55.33,-200 51.5,-196.17 51.5,-192.33 51.5,-192.33 51.5,-184.67 51.5,-184.67 51.5,-180.83 55.33,-177 59.17,-177 59.17,-177 118.83,-177 118.83,-177 122.67,-177 126.5,-180.83 126.5,-184.67 126.5,-184.67 126.5,-192.33 126.5,-192.33 126.5,-196.17 122.67,-200 118.83,-200"/>
<text text-anchor="middle" x="89" y="-184.8" font-family="Arial" font-size="14.00" fill="#000000">helpers.ts</text>
</g>
<!-- src/changeset/helpers.ts&#45;&gt;exit_src/changeset -->
<!-- src/dependency&#45;graph/rainbow.ts -->
<g id="node4" class="node">
<title>src/dependency&#45;graph/rainbow.ts</title>
<path fill="none" stroke="#000000" d="M768.83,-200C768.83,-200 707.17,-200 707.17,-200 703.33,-200 699.5,-196.17 699.5,-192.33 699.5,-192.33 699.5,-184.67 699.5,-184.67 699.5,-180.83 703.33,-177 707.17,-177 707.17,-177 768.83,-177 768.83,-177 772.67,-177 776.5,-180.83 776.5,-184.67 776.5,-184.67 776.5,-192.33 776.5,-192.33 776.5,-196.17 772.67,-200 768.83,-200"/>
<text text-anchor="middle" x="738" y="-184.8" font-family="Arial" font-size="14.00" fill="#000000">rainbow.ts</text>
</g>
<!-- exit_src/dependency&#45;graph -->
<!-- src/dependency&#45;graph/rainbow.ts&#45;&gt;exit_src/dependency&#45;graph -->
<!-- src/dependency&#45;graph/dependency&#45;graph.ts -->
<g id="node5" class="node">
<title>src/dependency&#45;graph/dependency&#45;graph.ts</title>
<path fill="none" stroke="#000000" d="M801.83,-259C801.83,-259 674.17,-259 674.17,-259 670.33,-259 666.5,-255.17 666.5,-251.33 666.5,-251.33 666.5,-243.67 666.5,-243.67 666.5,-239.83 670.33,-236 674.17,-236 674.17,-236 801.83,-236 801.83,-236 805.67,-236 809.5,-239.83 809.5,-243.67 809.5,-243.67 809.5,-251.33 809.5,-251.33 809.5,-255.17 805.67,-259 801.83,-259"/>
<text text-anchor="middle" x="738" y="-243.8" font-family="Arial" font-size="14.00" fill="#000000">dependency&#45;graph.ts</text>
</g>
<!-- src/dependency&#45;graph/dependency&#45;graph.ts&#45;&gt;src/dependency&#45;graph/rainbow.ts -->
<!-- src/dependency&#45;graph/dependency&#45;graph.ts&#45;&gt;src/dependency&#45;graph/rainbow.ts -->
<g id="edge53" class="edge">
<title>src/dependency&#45;graph/dependency&#45;graph.ts&#45;&gt;src/dependency&#45;graph/rainbow.ts</title>
<path fill="none" stroke="black" d="M743.41,-235.78C744.67,-228.61 745.04,-218.95 744.53,-210.31"/>
<polygon fill="black" stroke="black" points="747.98,-209.73 743.4,-200.17 741.03,-210.5 747.98,-209.73"/>
</g>
<!-- src/dependency&#45;graph/dependency&#45;graph.ts&#45;&gt;exit_src/dependency&#45;graph -->
<!-- src/changeset/build&#45;changelog.ts -->
<g id="node6" class="node">
<title>src/changeset/build&#45;changelog.ts</title>
<path fill="none" stroke="#000000" d="M302.33,-259C302.33,-259 191.67,-259 191.67,-259 187.83,-259 184,-255.17 184,-251.33 184,-251.33 184,-243.67 184,-243.67 184,-239.83 187.83,-236 191.67,-236 191.67,-236 302.33,-236 302.33,-236 306.17,-236 310,-239.83 310,-243.67 310,-243.67 310,-251.33 310,-251.33 310,-255.17 306.17,-259 302.33,-259"/>
<text text-anchor="middle" x="247" y="-243.8" font-family="Arial" font-size="14.00" fill="#000000">build&#45;changelog.ts</text>
</g>
<!-- src/changeset/build&#45;changelog.ts&#45;&gt;src/changeset/get&#45;changeset&#45;details.ts -->
<!-- src/changeset/build&#45;changelog.ts&#45;&gt;src/changeset/get&#45;changeset&#45;details.ts -->
<g id="edge47" class="edge">
<title>src/changeset/build&#45;changelog.ts&#45;&gt;src/changeset/get&#45;changeset&#45;details.ts</title>
<path fill="none" stroke="black" d="M251.85,-235.78C252.73,-228.61 252.59,-218.95 251.62,-210.31"/>
<polygon fill="black" stroke="black" points="255.03,-209.48 249.96,-200.17 248.12,-210.61 255.03,-209.48"/>
</g>
<!-- src/changeset/build&#45;changelog.ts&#45;&gt;src/changeset/helpers.ts -->
<!-- src/changeset/build&#45;changelog.ts&#45;&gt;src/changeset/helpers.ts -->
<g id="edge49" class="edge">
<title>src/changeset/build&#45;changelog.ts&#45;&gt;src/changeset/helpers.ts</title>
<path fill="none" stroke="black" d="M223.04,-235.91C199.18,-226.71 162.24,-213.33 133.12,-203.29"/>
<polygon fill="black" stroke="black" points="134.16,-199.95 123.57,-200.03 131.9,-206.58 134.16,-199.95"/>
</g>
<!-- src/changeset/build&#45;changelog.ts&#45;&gt;exit_src/changeset -->
<!-- name_src/changeset -->
<g id="node7" class="node">
<title>name_src/changeset</title>
<path fill="none" stroke="#8000ff" stroke-width="5" d="M488.83,-259C488.83,-259 425.17,-259 425.17,-259 421.33,-259 417.5,-255.17 417.5,-251.33 417.5,-251.33 417.5,-243.67 417.5,-243.67 417.5,-239.83 421.33,-236 425.17,-236 425.17,-236 488.83,-236 488.83,-236 492.67,-236 496.5,-239.83 496.5,-243.67 496.5,-243.67 496.5,-251.33 496.5,-251.33 496.5,-255.17 492.67,-259 488.83,-259"/>
<text text-anchor="middle" x="457" y="-243.8" font-family="Arial" font-size="14.00" fill="#000000">changeset</text>
</g>
<!-- src/changeset/changelog&#45;global.ts -->
<g id="node8" class="node">
<title>src/changeset/changelog&#45;global.ts</title>
<path fill="none" stroke="#000000" d="M158.33,-259C158.33,-259 39.67,-259 39.67,-259 35.83,-259 32,-255.17 32,-251.33 32,-251.33 32,-243.67 32,-243.67 32,-239.83 35.83,-236 39.67,-236 39.67,-236 158.33,-236 158.33,-236 162.17,-236 166,-239.83 166,-243.67 166,-243.67 166,-251.33 166,-251.33 166,-255.17 162.17,-259 158.33,-259"/>
<text text-anchor="middle" x="99" y="-243.8" font-family="Arial" font-size="14.00" fill="#000000">changelog&#45;global.ts</text>
</g>
<!-- src/changeset/changelog&#45;global.ts&#45;&gt;src/changeset/helpers.ts -->
<!-- src/changeset/changelog&#45;global.ts&#45;&gt;src/changeset/helpers.ts -->
<g id="edge51" class="edge">
<title>src/changeset/changelog&#45;global.ts&#45;&gt;src/changeset/helpers.ts</title>
<path fill="none" stroke="black" d="M102.53,-235.78C102.53,-228.53 101.18,-218.74 99.11,-210.02"/>
<polygon fill="black" stroke="black" points="102.4,-208.82 96.28,-200.17 95.68,-210.75 102.4,-208.82"/>
</g>
<!-- src/changeset/changelog&#45;global.ts&#45;&gt;exit_src/changeset -->
<!-- src/changeset/changelog&#45;individual.ts -->
<g id="node9" class="node">
<title>src/changeset/changelog&#45;individual.ts</title>
<path fill="none" stroke="#000000" d="M488.33,-200C488.33,-200 349.67,-200 349.67,-200 345.83,-200 342,-196.17 342,-192.33 342,-192.33 342,-184.67 342,-184.67 342,-180.83 345.83,-177 349.67,-177 349.67,-177 488.33,-177 488.33,-177 492.17,-177 496,-180.83 496,-184.67 496,-184.67 496,-192.33 496,-192.33 496,-196.17 492.17,-200 488.33,-200"/>
<text text-anchor="middle" x="419" y="-184.8" font-family="Arial" font-size="14.00" fill="#000000">changelog&#45;individual.ts</text>
</g>
<!-- src/changeset/changelog&#45;individual.ts&#45;&gt;exit_src/changeset -->
<!-- src/dependency&#45;graph/generate&#45;graphs.ts -->
<g id="node10" class="node">
<title>src/dependency&#45;graph/generate&#45;graphs.ts</title>
<path fill="none" stroke="#000000" d="M802.33,-318C802.33,-318 687.67,-318 687.67,-318 683.83,-318 680,-314.17 680,-310.33 680,-310.33 680,-302.67 680,-302.67 680,-298.83 683.83,-295 687.67,-295 687.67,-295 802.33,-295 802.33,-295 806.17,-295 810,-298.83 810,-302.67 810,-302.67 810,-310.33 810,-310.33 810,-314.17 806.17,-318 802.33,-318"/>
<text text-anchor="middle" x="745" y="-302.8" font-family="Arial" font-size="14.00" fill="#000000">generate&#45;graphs.ts</text>
</g>
<!-- src/dependency&#45;graph/generate&#45;graphs.ts&#45;&gt;src/dependency&#45;graph/dependency&#45;graph.ts -->
<!-- src/dependency&#45;graph/generate&#45;graphs.ts&#45;&gt;src/dependency&#45;graph/dependency&#45;graph.ts -->
<g id="edge55" class="edge">
<title>src/dependency&#45;graph/generate&#45;graphs.ts&#45;&gt;src/dependency&#45;graph/dependency&#45;graph.ts</title>
<path fill="none" stroke="black" d="M749.09,-294.78C749.48,-287.53 748.64,-277.74 747.03,-269.02"/>
<polygon fill="black" stroke="black" points="750.41,-268.11 744.71,-259.17 743.6,-269.71 750.41,-268.11"/>
</g>
<!-- src/dependency&#45;graph/generate&#45;graphs.ts&#45;&gt;exit_src/dependency&#45;graph -->
<!-- name_src/dependency&#45;graph -->
<g id="node11" class="node">
<title>name_src/dependency&#45;graph</title>
<path fill="none" stroke="#80ff00" stroke-width="5" d="M653.83,-318C653.83,-318 540.17,-318 540.17,-318 536.33,-318 532.5,-314.17 532.5,-310.33 532.5,-310.33 532.5,-302.67 532.5,-302.67 532.5,-298.83 536.33,-295 540.17,-295 540.17,-295 653.83,-295 653.83,-295 657.67,-295 661.5,-298.83 661.5,-302.67 661.5,-302.67 661.5,-310.33 661.5,-310.33 661.5,-314.17 657.67,-318 653.83,-318"/>
<text text-anchor="middle" x="597" y="-302.8" font-family="Arial" font-size="14.00" fill="#000000">dependency&#45;graph</text>
</g>
<!-- src/validation/index.ts -->
<g id="node12" class="node">
<title>src/validation/index.ts</title>
<path fill="none" stroke="#ff0000" stroke-width="5" d="M1255.83,-318C1255.83,-318 1208.17,-318 1208.17,-318 1204.33,-318 1200.5,-314.17 1200.5,-310.33 1200.5,-310.33 1200.5,-302.67 1200.5,-302.67 1200.5,-298.83 1204.33,-295 1208.17,-295 1208.17,-295 1255.83,-295 1255.83,-295 1259.67,-295 1263.5,-298.83 1263.5,-302.67 1263.5,-302.67 1263.5,-310.33 1263.5,-310.33 1263.5,-314.17 1259.67,-318 1255.83,-318"/>
<text text-anchor="middle" x="1232" y="-302.8" font-family="Arial" font-size="14.00" fill="#000000">index.ts</text>
</g>
<!-- src/validation/has&#45;extractor&#45;config.ts -->
<g id="node14" class="node">
<title>src/validation/has&#45;extractor&#45;config.ts</title>
<path fill="none" stroke="#000000" d="M1212.33,-200C1212.33,-200 1077.67,-200 1077.67,-200 1073.83,-200 1070,-196.17 1070,-192.33 1070,-192.33 1070,-184.67 1070,-184.67 1070,-180.83 1073.83,-177 1077.67,-177 1077.67,-177 1212.33,-177 1212.33,-177 1216.17,-177 1220,-180.83 1220,-184.67 1220,-184.67 1220,-192.33 1220,-192.33 1220,-196.17 1216.17,-200 1212.33,-200"/>
<text text-anchor="middle" x="1145" y="-184.8" font-family="Arial" font-size="14.00" fill="#000000">has&#45;extractor&#45;config.ts</text>
</g>
<!-- src/validation/index.ts&#45;&gt;src/validation/has&#45;extractor&#45;config.ts -->
<!-- src/validation/index.ts&#45;&gt;src/validation/has&#45;extractor&#45;config.ts -->
<g id="edge62" class="edge">
<title>src/validation/index.ts&#45;&gt;src/validation/has&#45;extractor&#45;config.ts</title>
<path fill="none" stroke="black" d="M1218.7,-294.94C1208.21,-288.27 1194.36,-278.7 1185,-267 1171.36,-249.94 1163.04,-226.11 1156.66,-209.39"/>
<polygon fill="black" stroke="black" points="1159.88,-208 1152.91,-200.02 1153.38,-210.6 1159.88,-208"/>
</g>
<!-- src/validation/validate&#45;all.ts -->
<g id="node15" class="node">
<title>src/validation/validate&#45;all.ts</title>
<path fill="none" stroke="#000000" d="M1271.83,-259C1271.83,-259 1192.17,-259 1192.17,-259 1188.33,-259 1184.5,-255.17 1184.5,-251.33 1184.5,-251.33 1184.5,-243.67 1184.5,-243.67 1184.5,-239.83 1188.33,-236 1192.17,-236 1192.17,-236 1271.83,-236 1271.83,-236 1275.67,-236 1279.5,-239.83 1279.5,-243.67 1279.5,-243.67 1279.5,-251.33 1279.5,-251.33 1279.5,-255.17 1275.67,-259 1271.83,-259"/>
<text text-anchor="middle" x="1232" y="-243.8" font-family="Arial" font-size="14.00" fill="#000000">validate&#45;all.ts</text>
</g>
<!-- src/validation/index.ts&#45;&gt;src/validation/validate&#45;all.ts -->
<!-- src/validation/index.ts&#45;&gt;src/validation/validate&#45;all.ts -->
<g id="edge64" class="edge">
<title>src/validation/index.ts&#45;&gt;src/validation/validate&#45;all.ts</title>
<path fill="none" stroke="black" d="M1237.41,-294.78C1238.67,-287.61 1239.04,-277.95 1238.53,-269.31"/>
<polygon fill="black" stroke="black" points="1241.98,-268.73 1237.4,-259.17 1235.03,-269.5 1241.98,-268.73"/>
</g>
<!-- src/validation/validate&#45;changesets.ts -->
<g id="node16" class="node">
<title>src/validation/validate&#45;changesets.ts</title>
<path fill="none" stroke="#000000" d="M1401.83,-200C1401.83,-200 1266.17,-200 1266.17,-200 1262.33,-200 1258.5,-196.17 1258.5,-192.33 1258.5,-192.33 1258.5,-184.67 1258.5,-184.67 1258.5,-180.83 1262.33,-177 1266.17,-177 1266.17,-177 1401.83,-177 1401.83,-177 1405.67,-177 1409.5,-180.83 1409.5,-184.67 1409.5,-184.67 1409.5,-192.33 1409.5,-192.33 1409.5,-196.17 1405.67,-200 1401.83,-200"/>
<text text-anchor="middle" x="1334" y="-184.8" font-family="Arial" font-size="14.00" fill="#000000">validate&#45;changesets.ts</text>
</g>
<!-- src/validation/index.ts&#45;&gt;src/validation/validate&#45;changesets.ts -->
<!-- src/validation/index.ts&#45;&gt;src/validation/validate&#45;changesets.ts -->
<g id="edge66" class="edge">
<title>src/validation/index.ts&#45;&gt;src/validation/validate&#45;changesets.ts</title>
<path fill="none" stroke="black" d="M1259.95,-294.95C1272.87,-288.09 1287.4,-278.34 1298,-267 1313.77,-250.12 1326.38,-226.75 1332.44,-210.1"/>
<polygon fill="black" stroke="black" points="1335.87,-210.85 1335.45,-200.26 1329.18,-208.8 1335.87,-210.85"/>
</g>
<!-- src/validation/validate&#45;package&#45;json.ts -->
<g id="node17" class="node">
<title>src/validation/validate&#45;package&#45;json.ts</title>
<path fill="none" stroke="#000000" d="M1582.33,-200C1582.33,-200 1435.67,-200 1435.67,-200 1431.83,-200 1428,-196.17 1428,-192.33 1428,-192.33 1428,-184.67 1428,-184.67 1428,-180.83 1431.83,-177 1435.67,-177 1435.67,-177 1582.33,-177 1582.33,-177 1586.17,-177 1590,-180.83 1590,-184.67 1590,-184.67 1590,-192.33 1590,-192.33 1590,-196.17 1586.17,-200 1582.33,-200"/>
<text text-anchor="middle" x="1509" y="-184.8" font-family="Arial" font-size="14.00" fill="#000000">validate&#45;package&#45;json.ts</text>
</g>
<!-- src/validation/index.ts&#45;&gt;src/validation/validate&#45;package&#45;json.ts -->
<!-- src/validation/index.ts&#45;&gt;src/validation/validate&#45;package&#45;json.ts -->
<g id="edge68" class="edge">
<title>src/validation/index.ts&#45;&gt;src/validation/validate&#45;package&#45;json.ts</title>
<path fill="none" stroke="black" d="M1261.41,-294.9C1314.41,-274.1 1424.89,-227.92 1478.59,-204.19"/>
<polygon fill="black" stroke="black" points="1480.22,-207.3 1487.93,-200.04 1477.37,-200.9 1480.22,-207.3"/>
</g>
<!-- src/validation/validate&#45;workspace&#45;tsconfig.ts -->
<g id="node18" class="node">
<title>src/validation/validate&#45;workspace&#45;tsconfig.ts</title>
<path fill="none" stroke="#000000" d="M1043.83,-200C1043.83,-200 862.17,-200 862.17,-200 858.33,-200 854.5,-196.17 854.5,-192.33 854.5,-192.33 854.5,-184.67 854.5,-184.67 854.5,-180.83 858.33,-177 862.17,-177 862.17,-177 1043.83,-177 1043.83,-177 1047.67,-177 1051.5,-180.83 1051.5,-184.67 1051.5,-184.67 1051.5,-192.33 1051.5,-192.33 1051.5,-196.17 1047.67,-200 1043.83,-200"/>
<text text-anchor="middle" x="953" y="-184.8" font-family="Arial" font-size="14.00" fill="#000000">validate&#45;workspace&#45;tsconfig.ts</text>
</g>
<!-- src/validation/index.ts&#45;&gt;src/validation/validate&#45;workspace&#45;tsconfig.ts -->
<!-- src/validation/index.ts&#45;&gt;src/validation/validate&#45;workspace&#45;tsconfig.ts -->
<g id="edge70" class="edge">
<title>src/validation/index.ts&#45;&gt;src/validation/validate&#45;workspace&#45;tsconfig.ts</title>
<path fill="none" stroke="black" d="M1210.37,-294.79C1163.23,-273.81 1051.44,-227.26 991.82,-203.72"/>
<polygon fill="black" stroke="black" points="992.95,-200.41 982.36,-200.01 990.4,-206.92 992.95,-200.41"/>
</g>
<!-- exit_src/validation -->
<!-- src/validation/index.ts&#45;&gt;exit_src/validation -->
<!-- name_src/validation -->
<g id="node13" class="node">
<title>name_src/validation</title>
<path fill="none" stroke="#ff0000" stroke-width="5" d="M900.33,-318C900.33,-318 841.67,-318 841.67,-318 837.83,-318 834,-314.17 834,-310.33 834,-310.33 834,-302.67 834,-302.67 834,-298.83 837.83,-295 841.67,-295 841.67,-295 900.33,-295 900.33,-295 904.17,-295 908,-298.83 908,-302.67 908,-302.67 908,-310.33 908,-310.33 908,-314.17 904.17,-318 900.33,-318"/>
<text text-anchor="middle" x="871" y="-302.8" font-family="Arial" font-size="14.00" fill="#000000">validation</text>
</g>
<!-- src/validation/has&#45;extractor&#45;config.ts&#45;&gt;exit_src/validation -->
<!-- src/validation/validate&#45;all.ts&#45;&gt;src/validation/has&#45;extractor&#45;config.ts -->
<!-- src/validation/validate&#45;all.ts&#45;&gt;src/validation/has&#45;extractor&#45;config.ts -->
<g id="edge72" class="edge">
<title>src/validation/validate&#45;all.ts&#45;&gt;src/validation/has&#45;extractor&#45;config.ts</title>
<path fill="none" stroke="black" d="M1221.05,-235.78C1209.54,-227.26 1191.39,-215.21 1175.63,-205.55"/>
<polygon fill="black" stroke="black" points="1177.07,-202.33 1166.69,-200.17 1173.46,-208.32 1177.07,-202.33"/>
</g>
<!-- src/validation/validate&#45;all.ts&#45;&gt;src/validation/validate&#45;changesets.ts -->
<!-- src/validation/validate&#45;all.ts&#45;&gt;src/validation/validate&#45;changesets.ts -->
<g id="edge74" class="edge">
<title>src/validation/validate&#45;all.ts&#45;&gt;src/validation/validate&#45;changesets.ts</title>
<path fill="none" stroke="black" d="M1256.33,-235.91C1273.17,-227.35 1295.22,-215.17 1311.61,-205.44"/>
<polygon fill="black" stroke="black" points="1313.79,-208.21 1320.53,-200.03 1310.17,-202.22 1313.79,-208.21"/>
</g>
<!-- src/validation/validate&#45;all.ts&#45;&gt;src/validation/validate&#45;package&#45;json.ts -->
<!-- src/validation/validate&#45;all.ts&#45;&gt;src/validation/validate&#45;package&#45;json.ts -->
<g id="edge76" class="edge">
<title>src/validation/validate&#45;all.ts&#45;&gt;src/validation/validate&#45;package&#45;json.ts</title>
<path fill="none" stroke="black" d="M1279.71,-237.72C1327.98,-228.2 1402.4,-212.94 1453.32,-202.13"/>
<polygon fill="black" stroke="black" points="1454.12,-205.54 1463.18,-200.04 1452.67,-198.7 1454.12,-205.54"/>
</g>
<!-- src/validation/validate&#45;all.ts&#45;&gt;src/validation/validate&#45;workspace&#45;tsconfig.ts -->
<!-- src/validation/validate&#45;all.ts&#45;&gt;src/validation/validate&#45;workspace&#45;tsconfig.ts -->
<g id="edge78" class="edge">
<title>src/validation/validate&#45;all.ts&#45;&gt;src/validation/validate&#45;workspace&#45;tsconfig.ts</title>
<path fill="none" stroke="black" d="M1185.88,-235.98C1140.65,-226.39 1071.35,-212.21 1020.06,-202.03"/>
<polygon fill="black" stroke="black" points="1020.54,-198.56 1010.05,-200.06 1019.18,-205.43 1020.54,-198.56"/>
</g>
<!-- src/validation/validate&#45;all.ts&#45;&gt;exit_src/validation -->
<!-- src/validation/validate&#45;changesets.ts&#45;&gt;exit_src/validation -->
<!-- src/validation/validate&#45;package&#45;json.ts&#45;&gt;exit_src/validation -->
<!-- src/validation/validate&#45;workspace&#45;tsconfig.ts&#45;&gt;exit_src/validation -->
<!-- exit_src/validation&#45;&gt;name_src/changeset -->
<g id="edge79" class="edge">
<title>exit_src/validation&#45;&gt;name_src/changeset</title>
<path fill="none" stroke="#ff0000" d="M826,-140.47C824.66,-140.65 823.32,-140.83 822,-141 754.98,-149.75 577.41,-141.34 520,-177 512.71,-181.53 512.09,-186.4 509.32,-192.59"/>
<polygon fill="#ff0000" stroke="#ff0000" points="506.28,-190.86 504,-201.21 512.23,-194.54 506.28,-190.86"/>
</g>
<!-- exit_src -->
<!-- exit_src/validation&#45;&gt;exit_src -->
<!-- exit_src/validation&#45;&gt;exit_src -->
<!-- exit_src/validation&#45;&gt;exit_src -->
<!-- exit_src/validation&#45;&gt;exit_src -->
<!-- exit_src/validation&#45;&gt;exit_src -->
<!-- exit_src/validation&#45;&gt;exit_src -->
<!-- name_src -->
<g id="node20" class="node">
<title>name_src</title>
<path fill="none" stroke="#00ffff" stroke-width="5" d="M1105.33,-377C1105.33,-377 1066.67,-377 1066.67,-377 1062.83,-377 1059,-373.17 1059,-369.33 1059,-369.33 1059,-361.67 1059,-361.67 1059,-357.83 1062.83,-354 1066.67,-354 1066.67,-354 1105.33,-354 1105.33,-354 1109.17,-354 1113,-357.83 1113,-361.67 1113,-361.67 1113,-369.33 1113,-369.33 1113,-373.17 1109.17,-377 1105.33,-377"/>
<text text-anchor="middle" x="1086" y="-361.8" font-family="Arial" font-size="14.00" fill="#000000">src</text>
</g>
<!-- exit_src&#45;&gt;dependency&#45;graph&#45;[object Object] -->
<!-- exit_src&#45;&gt;exit_src -->
<!-- exit_src&#45;&gt;exit_src -->
<!-- exit_src&#45;&gt;exit_src -->
<!-- exit_src&#45;&gt;exit_src -->
<!-- exit_src&#45;&gt;exit_src -->
<!-- exit_src&#45;&gt;exit_src -->
<!-- exit_src&#45;&gt;exit_src -->
<!-- exit_src&#45;&gt;exit_src -->
<!-- exit_src&#45;&gt;exit_src -->
<!-- exit_src&#45;&gt;exit_src -->
<!-- exit_src&#45;&gt;exit_src -->
<!-- exit_src&#45;&gt;exit_src -->
<!-- exit_src&#45;&gt;exit_src -->
<!-- exit_src&#45;&gt;exit_src -->
<!-- exit_src&#45;&gt;exit_src -->
<!-- src/index.ts -->
<g id="node22" class="node">
<title>src/index.ts</title>
<path fill="none" stroke="#00ffff" stroke-width="5" d="M508.83,-377C508.83,-377 461.17,-377 461.17,-377 457.33,-377 453.5,-373.17 453.5,-369.33 453.5,-369.33 453.5,-361.67 453.5,-361.67 453.5,-357.83 457.33,-354 461.17,-354 461.17,-354 508.83,-354 508.83,-354 512.67,-354 516.5,-357.83 516.5,-361.67 516.5,-361.67 516.5,-369.33 516.5,-369.33 516.5,-373.17 512.67,-377 508.83,-377"/>
<text text-anchor="middle" x="485" y="-361.8" font-family="Arial" font-size="14.00" fill="#000000">index.ts</text>
</g>
<!-- src/index.ts&#45;&gt;name_src/changeset -->
<g id="edge56" class="edge">
<title>src/index.ts&#45;&gt;name_src/changeset</title>
<path fill="none" stroke="#00ffff" d="M474.19,-353.79C463.46,-334.63 452.89,-294.15 451.38,-269.34"/>
<polygon fill="#00ffff" stroke="#00ffff" points="454.95,-276.97 451.36,-267 447.95,-277.03 454.95,-276.97"/>
</g>
<!-- src/index.ts&#45;&gt;name_src/changeset -->
<!-- src/index.ts&#45;&gt;name_src/changeset -->
<!-- src/index.ts&#45;&gt;name_src/dependency&#45;graph -->
<g id="edge59" class="edge">
<title>src/index.ts&#45;&gt;name_src/dependency&#45;graph</title>
<path fill="none" stroke="#00ffff" d="M505.8,-353.91C518.65,-347.37 535.66,-338.72 551.5,-330.66"/>
<polygon fill="#00ffff" stroke="#00ffff" points="553.33,-333.65 560.65,-326 550.15,-327.41 553.33,-333.65"/>
</g>
<!-- src/index.ts&#45;&gt;name_src/validation -->
<g id="edge60" class="edge">
<title>src/index.ts&#45;&gt;name_src/validation</title>
<path fill="none" stroke="#00ffff" d="M516.58,-363.49C575.08,-361.06 704.23,-353.12 816.25,-327.27"/>
<polygon fill="#00ffff" stroke="#00ffff" points="817.08,-330.67 826,-324.97 815.46,-323.86 817.08,-330.67"/>
</g>
<!-- src/index.ts&#45;&gt;exit_src -->
<!-- exit_src/changeset&#45;&gt;exit_src -->
<!-- exit_src/changeset&#45;&gt;exit_src -->
<!-- exit_src/changeset&#45;&gt;exit_src -->
<!-- exit_src/changeset&#45;&gt;exit_src -->
<!-- exit_src/changeset&#45;&gt;exit_src -->
<!-- exit_src/dependency&#45;graph&#45;&gt;exit_src -->
<!-- exit_src/dependency&#45;graph&#45;&gt;exit_src -->
<!-- exit_src/dependency&#45;graph&#45;&gt;exit_src -->
</g>
</svg>
