<?xml version="1.0" encoding="UTF-8" standalone="no"?>
<!DOCTYPE svg PUBLIC "-//W3C//DTD SVG 1.1//EN"
 "http://www.w3.org/Graphics/SVG/1.1/DTD/svg11.dtd">
<!-- Generated by graphviz version 2.43.0 (0)
 -->
<!-- Title: dependency&#45;graph&#45;[object Object] Pages: 1 -->
<svg width="1189pt" height="621pt"
 viewBox="0.00 0.00 1189.20 621.20" xmlns="http://www.w3.org/2000/svg" xmlns:xlink="http://www.w3.org/1999/xlink">
<g id="graph0" class="graph" transform="scale(1 1) rotate(0) translate(21.6 599.6)">
<title>dependency&#45;graph&#45;[object Object]</title>
<polygon fill="#ffffff" stroke="transparent" points="-21.6,21.6 -21.6,-599.6 1167.6,-599.6 1167.6,21.6 -21.6,21.6"/>
<g id="clust1" class="cluster">
<title>cluster_src</title>
<polygon fill="#ffffff" stroke="#000000" points="8,-43 8,-570 1138,-570 1138,-43 8,-43"/>
</g>
<g id="clust2" class="cluster">
<title>cluster_src</title>
<polygon fill="#ffffff" stroke="#000000" points="16,-51 16,-562 1130,-562 1130,-51 16,-51"/>
</g>
<g id="clust3" class="cluster">
<title>cluster_src/changeset</title>
<polygon fill="#ffffff" stroke="#000000" points="326,-110 326,-267 807,-267 807,-110 326,-110"/>
</g>
<g id="clust4" class="cluster">
<title>cluster_src/dependency&#45;graph</title>
<polygon fill="#ffffff" stroke="#000000" points="24,-110 24,-326 318,-326 318,-110 24,-110"/>
</g>
<g id="clust5" class="cluster">
<title>cluster_src/validation</title>
<polygon fill="#ffffff" stroke="#000000" points="338,-287 338,-503 1110,-503 1110,-287 338,-287"/>
</g>
<!-- dependency&#45;graph&#45;[object Object] -->
<!-- src/changeset/get&#45;changeset&#45;details.ts -->
<g id="node2" class="node">
<title>src/changeset/get&#45;changeset&#45;details.ts</title>
<path fill="none" stroke="#000000" d="M486.33,-200C486.33,-200 341.67,-200 341.67,-200 337.83,-200 334,-196.17 334,-192.33 334,-192.33 334,-184.67 334,-184.67 334,-180.83 337.83,-177 341.67,-177 341.67,-177 486.33,-177 486.33,-177 490.17,-177 494,-180.83 494,-184.67 494,-184.67 494,-192.33 494,-192.33 494,-196.17 490.17,-200 486.33,-200"/>
<text text-anchor="middle" x="414" y="-184.8" font-family="Arial" font-size="14.00" fill="#000000">get&#45;changeset&#45;details.ts</text>
</g>
<!-- exit_src/changeset -->
<!-- src/changeset/get&#45;changeset&#45;details.ts&#45;&gt;exit_src/changeset -->
<!-- src/changeset/helpers.ts -->
<g id="node3" class="node">
<title>src/changeset/helpers.ts</title>
<path fill="none" stroke="#000000" d="M598.83,-200C598.83,-200 539.17,-200 539.17,-200 535.33,-200 531.5,-196.17 531.5,-192.33 531.5,-192.33 531.5,-184.67 531.5,-184.67 531.5,-180.83 535.33,-177 539.17,-177 539.17,-177 598.83,-177 598.83,-177 602.67,-177 606.5,-180.83 606.5,-184.67 606.5,-184.67 606.5,-192.33 606.5,-192.33 606.5,-196.17 602.67,-200 598.83,-200"/>
<text text-anchor="middle" x="569" y="-184.8" font-family="Arial" font-size="14.00" fill="#000000">helpers.ts</text>
</g>
<!-- src/changeset/helpers.ts&#45;&gt;exit_src/changeset -->
<!-- src/dependency&#45;graph/rainbow.ts -->
<g id="node4" class="node">
<title>src/dependency&#45;graph/rainbow.ts</title>
<path fill="none" stroke="#000000" d="M220.83,-200C220.83,-200 159.17,-200 159.17,-200 155.33,-200 151.5,-196.17 151.5,-192.33 151.5,-192.33 151.5,-184.67 151.5,-184.67 151.5,-180.83 155.33,-177 159.17,-177 159.17,-177 220.83,-177 220.83,-177 224.67,-177 228.5,-180.83 228.5,-184.67 228.5,-184.67 228.5,-192.33 228.5,-192.33 228.5,-196.17 224.67,-200 220.83,-200"/>
<text text-anchor="middle" x="190" y="-184.8" font-family="Arial" font-size="14.00" fill="#000000">rainbow.ts</text>
</g>
<!-- exit_src/dependency&#45;graph -->
<!-- src/dependency&#45;graph/rainbow.ts&#45;&gt;exit_src/dependency&#45;graph -->
<!-- src/dependency&#45;graph/dependency&#45;graph.ts -->
<g id="node5" class="node">
<title>src/dependency&#45;graph/dependency&#45;graph.ts</title>
<path fill="none" stroke="#000000" d="M253.83,-259C253.83,-259 126.17,-259 126.17,-259 122.33,-259 118.5,-255.17 118.5,-251.33 118.5,-251.33 118.5,-243.67 118.5,-243.67 118.5,-239.83 122.33,-236 126.17,-236 126.17,-236 253.83,-236 253.83,-236 257.67,-236 261.5,-239.83 261.5,-243.67 261.5,-243.67 261.5,-251.33 261.5,-251.33 261.5,-255.17 257.67,-259 253.83,-259"/>
<text text-anchor="middle" x="190" y="-243.8" font-family="Arial" font-size="14.00" fill="#000000">dependency&#45;graph.ts</text>
</g>
<!-- src/dependency&#45;graph/dependency&#45;graph.ts&#45;&gt;src/dependency&#45;graph/rainbow.ts -->
<!-- src/dependency&#45;graph/dependency&#45;graph.ts&#45;&gt;src/dependency&#45;graph/rainbow.ts -->
<g id="edge53" class="edge">
<title>src/dependency&#45;graph/dependency&#45;graph.ts&#45;&gt;src/dependency&#45;graph/rainbow.ts</title>
<path fill="none" stroke="black" d="M195.41,-235.78C196.67,-228.61 197.04,-218.95 196.53,-210.31"/>
<polygon fill="black" stroke="black" points="199.98,-209.73 195.4,-200.17 193.03,-210.5 199.98,-209.73"/>
</g>
<!-- src/dependency&#45;graph/dependency&#45;graph.ts&#45;&gt;exit_src/dependency&#45;graph -->
<!-- src/changeset/changelog&#45;global.ts -->
<g id="node6" class="node">
<title>src/changeset/changelog&#45;global.ts</title>
<path fill="none" stroke="#000000" d="M719.33,-259C719.33,-259 600.67,-259 600.67,-259 596.83,-259 593,-255.17 593,-251.33 593,-251.33 593,-243.67 593,-243.67 593,-239.83 596.83,-236 600.67,-236 600.67,-236 719.33,-236 719.33,-236 723.17,-236 727,-239.83 727,-243.67 727,-243.67 727,-251.33 727,-251.33 727,-255.17 723.17,-259 719.33,-259"/>
<text text-anchor="middle" x="660" y="-243.8" font-family="Arial" font-size="14.00" fill="#000000">changelog&#45;global.ts</text>
</g>
<!-- src/changeset/changelog&#45;global.ts&#45;&gt;src/changeset/helpers.ts -->
<!-- src/changeset/changelog&#45;global.ts&#45;&gt;src/changeset/helpers.ts -->
<g id="edge51" class="edge">
<title>src/changeset/changelog&#45;global.ts&#45;&gt;src/changeset/helpers.ts</title>
<path fill="none" stroke="black" d="M648.3,-235.78C636.08,-227.18 616.84,-214.99 600.3,-205.28"/>
<polygon fill="black" stroke="black" points="601.85,-202.13 591.44,-200.17 598.36,-208.2 601.85,-202.13"/>
</g>
<!-- src/changeset/changelog&#45;global.ts&#45;&gt;exit_src/changeset -->
<!-- name_src/changeset -->
<g id="node7" class="node">
<title>name_src/changeset</title>
<path fill="none" stroke="#8000ff" stroke-width="5" d="M566.83,-259C566.83,-259 503.17,-259 503.17,-259 499.33,-259 495.5,-255.17 495.5,-251.33 495.5,-251.33 495.5,-243.67 495.5,-243.67 495.5,-239.83 499.33,-236 503.17,-236 503.17,-236 566.83,-236 566.83,-236 570.67,-236 574.5,-239.83 574.5,-243.67 574.5,-243.67 574.5,-251.33 574.5,-251.33 574.5,-255.17 570.67,-259 566.83,-259"/>
<text text-anchor="middle" x="535" y="-243.8" font-family="Arial" font-size="14.00" fill="#000000">changeset</text>
</g>
<!-- src/changeset/changelog&#45;individual.ts -->
<g id="node8" class="node">
<title>src/changeset/changelog&#45;individual.ts</title>
<path fill="none" stroke="#000000" d="M771.33,-200C771.33,-200 632.67,-200 632.67,-200 628.83,-200 625,-196.17 625,-192.33 625,-192.33 625,-184.67 625,-184.67 625,-180.83 628.83,-177 632.67,-177 632.67,-177 771.33,-177 771.33,-177 775.17,-177 779,-180.83 779,-184.67 779,-184.67 779,-192.33 779,-192.33 779,-196.17 775.17,-200 771.33,-200"/>
<text text-anchor="middle" x="702" y="-184.8" font-family="Arial" font-size="14.00" fill="#000000">changelog&#45;individual.ts</text>
</g>
<!-- src/changeset/changelog&#45;individual.ts&#45;&gt;exit_src/changeset -->
<!-- src/dependency&#45;graph/generate&#45;graphs.ts -->
<g id="node9" class="node">
<title>src/dependency&#45;graph/generate&#45;graphs.ts</title>
<path fill="none" stroke="#000000" d="M302.33,-318C302.33,-318 187.67,-318 187.67,-318 183.83,-318 180,-314.17 180,-310.33 180,-310.33 180,-302.67 180,-302.67 180,-298.83 183.83,-295 187.67,-295 187.67,-295 302.33,-295 302.33,-295 306.17,-295 310,-298.83 310,-302.67 310,-302.67 310,-310.33 310,-310.33 310,-314.17 306.17,-318 302.33,-318"/>
<text text-anchor="middle" x="245" y="-302.8" font-family="Arial" font-size="14.00" fill="#000000">generate&#45;graphs.ts</text>
</g>
<!-- src/dependency&#45;graph/generate&#45;graphs.ts&#45;&gt;src/dependency&#45;graph/dependency&#45;graph.ts -->
<!-- src/dependency&#45;graph/generate&#45;graphs.ts&#45;&gt;src/dependency&#45;graph/dependency&#45;graph.ts -->
<g id="edge55" class="edge">
<title>src/dependency&#45;graph/generate&#45;graphs.ts&#45;&gt;src/dependency&#45;graph/dependency&#45;graph.ts</title>
<path fill="none" stroke="black" d="M240.07,-294.78C233.72,-286.74 223.22,-275.55 213.37,-266.19"/>
<polygon fill="black" stroke="black" points="215.44,-263.34 205.7,-259.17 210.72,-268.51 215.44,-263.34"/>
</g>
<!-- src/dependency&#45;graph/generate&#45;graphs.ts&#45;&gt;exit_src/dependency&#45;graph -->
<!-- name_src/dependency&#45;graph -->
<g id="node10" class="node">
<title>name_src/dependency&#45;graph</title>
<path fill="none" stroke="#80ff00" stroke-width="5" d="M153.83,-318C153.83,-318 40.17,-318 40.17,-318 36.33,-318 32.5,-314.17 32.5,-310.33 32.5,-310.33 32.5,-302.67 32.5,-302.67 32.5,-298.83 36.33,-295 40.17,-295 40.17,-295 153.83,-295 153.83,-295 157.67,-295 161.5,-298.83 161.5,-302.67 161.5,-302.67 161.5,-310.33 161.5,-310.33 161.5,-314.17 157.67,-318 153.83,-318"/>
<text text-anchor="middle" x="97" y="-302.8" font-family="Arial" font-size="14.00" fill="#000000">dependency&#45;graph</text>
</g>
<!-- src/validation/common.ts -->
<g id="node11" class="node">
<title>src/validation/common.ts</title>
<path fill="none" stroke="#ff0000" stroke-width="5" d="M716.83,-495C716.83,-495 669.17,-495 669.17,-495 665.33,-495 661.5,-491.17 661.5,-487.33 661.5,-487.33 661.5,-479.67 661.5,-479.67 661.5,-475.83 665.33,-472 669.17,-472 669.17,-472 716.83,-472 716.83,-472 720.67,-472 724.5,-475.83 724.5,-479.67 724.5,-479.67 724.5,-487.33 724.5,-487.33 724.5,-491.17 720.67,-495 716.83,-495"/>
<text text-anchor="middle" x="693" y="-479.8" font-family="Arial" font-size="14.00" fill="#000000">common.ts</text>
</g>
<!-- src/validation/has&#45;extractor&#45;config.ts -->
<g id="node13" class="node">
<title>src/validation/has&#45;extractor&#45;config.ts</title>
<path fill="none" stroke="#000000" d="M488.33,-377C488.33,-377 353.67,-377 353.67,-377 349.83,-377 346,-373.17 346,-369.33 346,-369.33 346,-361.67 346,-361.67 346,-357.83 349.83,-354 353.67,-354 353.67,-354 488.33,-354 488.33,-354 492.17,-354 496,-357.83 496,-361.67 496,-361.67 496,-369.33 496,-369.33 496,-373.17 492.17,-377 488.33,-377"/>
<text text-anchor="middle" x="421" y="-361.8" font-family="Arial" font-size="14.00" fill="#000000">has&#45;extractor&#45;config.ts</text>
</g>
<!-- src/validation/common.ts&#45;&gt;src/validation/has&#45;extractor&#45;config.ts -->
<!-- src/validation/common.ts&#45;&gt;src/validation/has&#45;extractor&#45;config.ts -->
<g id="edge61" class="edge">
<title>src/validation/common.ts&#45;&gt;src/validation/has&#45;extractor&#45;config.ts</title>
<path fill="none" stroke="black" d="M672.01,-471.79C626.24,-450.85 517.61,-404.45 459.32,-380.87"/>
<polygon fill="black" stroke="black" points="460.31,-377.49 449.73,-377.01 457.7,-383.99 460.31,-377.49"/>
</g>
<!-- src/validation/validate&#45;all.ts -->
<g id="node14" class="node">
<title>src/validation/validate&#45;all.ts</title>
<path fill="none" stroke="#000000" d="M732.83,-436C732.83,-436 653.17,-436 653.17,-436 649.33,-436 645.5,-432.17 645.5,-428.33 645.5,-428.33 645.5,-420.67 645.5,-420.67 645.5,-416.83 649.33,-413 653.17,-413 653.17,-413 732.83,-413 732.83,-413 736.67,-413 740.5,-416.83 740.5,-420.67 740.5,-420.67 740.5,-428.33 740.5,-428.33 740.5,-432.17 736.67,-436 732.83,-436"/>
<text text-anchor="middle" x="693" y="-420.8" font-family="Arial" font-size="14.00" fill="#000000">validate&#45;all.ts</text>
</g>
<!-- src/validation/common.ts&#45;&gt;src/validation/validate&#45;all.ts -->
<!-- src/validation/common.ts&#45;&gt;src/validation/validate&#45;all.ts -->
<g id="edge63" class="edge">
<title>src/validation/common.ts&#45;&gt;src/validation/validate&#45;all.ts</title>
<path fill="none" stroke="black" d="M698.41,-471.78C699.67,-464.61 700.04,-454.95 699.53,-446.31"/>
<polygon fill="black" stroke="black" points="702.98,-445.73 698.4,-436.17 696.03,-446.5 702.98,-445.73"/>
</g>
<!-- src/validation/validate&#45;changesets.ts -->
<g id="node15" class="node">
<title>src/validation/validate&#45;changesets.ts</title>
<path fill="none" stroke="#000000" d="M657.83,-377C657.83,-377 522.17,-377 522.17,-377 518.33,-377 514.5,-373.17 514.5,-369.33 514.5,-369.33 514.5,-361.67 514.5,-361.67 514.5,-357.83 518.33,-354 522.17,-354 522.17,-354 657.83,-354 657.83,-354 661.67,-354 665.5,-357.83 665.5,-361.67 665.5,-361.67 665.5,-369.33 665.5,-369.33 665.5,-373.17 661.67,-377 657.83,-377"/>
<text text-anchor="middle" x="590" y="-361.8" font-family="Arial" font-size="14.00" fill="#000000">validate&#45;changesets.ts</text>
</g>
<!-- src/validation/common.ts&#45;&gt;src/validation/validate&#45;changesets.ts -->
<!-- src/validation/common.ts&#45;&gt;src/validation/validate&#45;changesets.ts -->
<g id="edge65" class="edge">
<title>src/validation/common.ts&#45;&gt;src/validation/validate&#45;changesets.ts</title>
<path fill="none" stroke="black" d="M685.06,-471.69C674.86,-462.87 658.39,-449.67 646,-436 631.74,-420.27 618.49,-399.92 608.05,-385.31"/>
<polygon fill="black" stroke="black" points="610.7,-383.01 601.93,-377.05 605.07,-387.17 610.7,-383.01"/>
</g>
<!-- src/validation/validate&#45;package&#45;json.ts -->
<g id="node16" class="node">
<title>src/validation/validate&#45;package&#45;json.ts</title>
<path fill="none" stroke="#000000" d="M858.33,-377C858.33,-377 711.67,-377 711.67,-377 707.83,-377 704,-373.17 704,-369.33 704,-369.33 704,-361.67 704,-361.67 704,-357.83 707.83,-354 711.67,-354 711.67,-354 858.33,-354 858.33,-354 862.17,-354 866,-357.83 866,-361.67 866,-361.67 866,-369.33 866,-369.33 866,-373.17 862.17,-377 858.33,-377"/>
<text text-anchor="middle" x="785" y="-361.8" font-family="Arial" font-size="14.00" fill="#000000">validate&#45;package&#45;json.ts</text>
</g>
<!-- src/validation/common.ts&#45;&gt;src/validation/validate&#45;package&#45;json.ts -->
<!-- src/validation/common.ts&#45;&gt;src/validation/validate&#45;package&#45;json.ts -->
<g id="edge67" class="edge">
<title>src/validation/common.ts&#45;&gt;src/validation/validate&#45;package&#45;json.ts</title>
<path fill="none" stroke="black" d="M716.68,-472C730.66,-463.44 747.41,-450.44 759,-436 770.86,-421.23 780.23,-401.78 784.8,-387.22"/>
<polygon fill="black" stroke="black" points="788.28,-387.74 787.32,-377.19 781.49,-386.03 788.28,-387.74"/>
</g>
<!-- src/validation/validate&#45;workspace&#45;tsconfig.ts -->
<g id="node17" class="node">
<title>src/validation/validate&#45;workspace&#45;tsconfig.ts</title>
<path fill="none" stroke="#000000" d="M1073.83,-377C1073.83,-377 892.17,-377 892.17,-377 888.33,-377 884.5,-373.17 884.5,-369.33 884.5,-369.33 884.5,-361.67 884.5,-361.67 884.5,-357.83 888.33,-354 892.17,-354 892.17,-354 1073.83,-354 1073.83,-354 1077.67,-354 1081.5,-357.83 1081.5,-361.67 1081.5,-361.67 1081.5,-369.33 1081.5,-369.33 1081.5,-373.17 1077.67,-377 1073.83,-377"/>
<text text-anchor="middle" x="983" y="-361.8" font-family="Arial" font-size="14.00" fill="#000000">validate&#45;workspace&#45;tsconfig.ts</text>
</g>
<!-- src/validation/common.ts&#45;&gt;src/validation/validate&#45;workspace&#45;tsconfig.ts -->
<!-- src/validation/common.ts&#45;&gt;src/validation/validate&#45;workspace&#45;tsconfig.ts -->
<g id="edge69" class="edge">
<title>src/validation/common.ts&#45;&gt;src/validation/validate&#45;workspace&#45;tsconfig.ts</title>
<path fill="none" stroke="black" d="M723.6,-471.9C779.04,-451.06 895.06,-404.73 951.29,-381.05"/>
<polygon fill="black" stroke="black" points="952.91,-384.16 960.75,-377.04 950.18,-377.72 952.91,-384.16"/>
</g>
<!-- exit_src/validation -->
<!-- src/validation/common.ts&#45;&gt;exit_src/validation -->
<!-- name_src/validation -->
<g id="node12" class="node">
<title>name_src/validation</title>
<path fill="none" stroke="#ff0000" stroke-width="5" d="M412.33,-495C412.33,-495 353.67,-495 353.67,-495 349.83,-495 346,-491.17 346,-487.33 346,-487.33 346,-479.67 346,-479.67 346,-475.83 349.83,-472 353.67,-472 353.67,-472 412.33,-472 412.33,-472 416.17,-472 420,-475.83 420,-479.67 420,-479.67 420,-487.33 420,-487.33 420,-491.17 416.17,-495 412.33,-495"/>
<text text-anchor="middle" x="383" y="-479.8" font-family="Arial" font-size="14.00" fill="#000000">validation</text>
</g>
<!-- src/validation/has&#45;extractor&#45;config.ts&#45;&gt;exit_src/validation -->
<!-- src/validation/validate&#45;all.ts&#45;&gt;src/validation/has&#45;extractor&#45;config.ts -->
<!-- src/validation/validate&#45;all.ts&#45;&gt;src/validation/has&#45;extractor&#45;config.ts -->
<g id="edge71" class="edge">
<title>src/validation/validate&#45;all.ts&#45;&gt;src/validation/has&#45;extractor&#45;config.ts</title>
<path fill="none" stroke="black" d="M648.17,-412.98C604.21,-403.41 536.85,-389.27 486.83,-379.1"/>
<polygon fill="black" stroke="black" points="487.25,-375.61 476.76,-377.06 485.86,-382.47 487.25,-375.61"/>
</g>
<!-- src/validation/validate&#45;all.ts&#45;&gt;src/validation/validate&#45;changesets.ts -->
<!-- src/validation/validate&#45;all.ts&#45;&gt;src/validation/validate&#45;changesets.ts -->
<g id="edge73" class="edge">
<title>src/validation/validate&#45;all.ts&#45;&gt;src/validation/validate&#45;changesets.ts</title>
<path fill="none" stroke="black" d="M679.04,-412.78C664.75,-404.02 642.4,-391.53 623.59,-381.74"/>
<polygon fill="black" stroke="black" points="625.18,-378.62 614.69,-377.17 621.99,-384.85 625.18,-378.62"/>
</g>
<!-- src/validation/validate&#45;all.ts&#45;&gt;src/validation/validate&#45;package&#45;json.ts -->
<!-- src/validation/validate&#45;all.ts&#45;&gt;src/validation/validate&#45;package&#45;json.ts -->
<g id="edge75" class="edge">
<title>src/validation/validate&#45;all.ts&#45;&gt;src/validation/validate&#45;package&#45;json.ts</title>
<path fill="none" stroke="black" d="M715.72,-412.78C730.82,-404.34 750.28,-392.44 764.83,-382.82"/>
<polygon fill="black" stroke="black" points="766.85,-385.68 773.18,-377.17 762.93,-379.88 766.85,-385.68"/>
</g>
<!-- src/validation/validate&#45;all.ts&#45;&gt;src/validation/validate&#45;workspace&#45;tsconfig.ts -->
<!-- src/validation/validate&#45;all.ts&#45;&gt;src/validation/validate&#45;workspace&#45;tsconfig.ts -->
<g id="edge77" class="edge">
<title>src/validation/validate&#45;all.ts&#45;&gt;src/validation/validate&#45;workspace&#45;tsconfig.ts</title>
<path fill="none" stroke="black" d="M740.75,-415.09C791.1,-405.61 870.34,-390.08 924.42,-379.14"/>
<polygon fill="black" stroke="black" points="925.45,-382.5 934.55,-377.08 924.05,-375.64 925.45,-382.5"/>
</g>
<!-- src/validation/validate&#45;all.ts&#45;&gt;exit_src/validation -->
<!-- src/validation/validate&#45;changesets.ts&#45;&gt;exit_src/validation -->
<!-- src/validation/validate&#45;package&#45;json.ts&#45;&gt;exit_src/validation -->
<!-- src/validation/validate&#45;workspace&#45;tsconfig.ts&#45;&gt;exit_src/validation -->
<!-- exit_src/validation&#45;&gt;name_src/changeset -->
<g id="edge78" class="edge">
<title>exit_src/validation&#45;&gt;name_src/changeset</title>
<path fill="none" stroke="#ff0000" d="M752,-287C681.7,-273.05 659.15,-283.74 593.94,-269.32"/>
<polygon fill="#ff0000" stroke="#ff0000" points="594.53,-265.86 584,-267 592.94,-272.68 594.53,-265.86"/>
</g>
<!-- exit_src -->
<!-- exit_src/validation&#45;&gt;exit_src -->
<!-- exit_src/validation&#45;&gt;exit_src -->
<!-- exit_src/validation&#45;&gt;exit_src -->
<!-- exit_src/validation&#45;&gt;exit_src -->
<!-- exit_src/validation&#45;&gt;exit_src -->
<!-- exit_src/validation&#45;&gt;exit_src -->
<!-- name_src -->
<g id="node19" class="node">
<title>name_src</title>
<path fill="none" stroke="#00ffff" stroke-width="5" d="M768.33,-554C768.33,-554 729.67,-554 729.67,-554 725.83,-554 722,-550.17 722,-546.33 722,-546.33 722,-538.67 722,-538.67 722,-534.83 725.83,-531 729.67,-531 729.67,-531 768.33,-531 768.33,-531 772.17,-531 776,-534.83 776,-538.67 776,-538.67 776,-546.33 776,-546.33 776,-550.17 772.17,-554 768.33,-554"/>
<text text-anchor="middle" x="749" y="-538.8" font-family="Arial" font-size="14.00" fill="#000000">src</text>
</g>
<!-- exit_src&#45;&gt;dependency&#45;graph&#45;[object Object] -->
<!-- exit_src&#45;&gt;exit_src -->
<!-- exit_src&#45;&gt;exit_src -->
<!-- exit_src&#45;&gt;exit_src -->
<!-- exit_src&#45;&gt;exit_src -->
<!-- exit_src&#45;&gt;exit_src -->
<!-- exit_src&#45;&gt;exit_src -->
<!-- exit_src&#45;&gt;exit_src -->
<!-- exit_src&#45;&gt;exit_src -->
<!-- exit_src&#45;&gt;exit_src -->
<!-- exit_src&#45;&gt;exit_src -->
<!-- exit_src&#45;&gt;exit_src -->
<!-- exit_src&#45;&gt;exit_src -->
<!-- exit_src&#45;&gt;exit_src -->
<!-- exit_src&#45;&gt;exit_src -->
<!-- exit_src&#45;&gt;exit_src -->
<!-- src/common.ts -->
<g id="node21" class="node">
<title>src/common.ts</title>
<path fill="none" stroke="#00ffff" stroke-width="5" d="M350.83,-554C350.83,-554 303.17,-554 303.17,-554 299.33,-554 295.5,-550.17 295.5,-546.33 295.5,-546.33 295.5,-538.67 295.5,-538.67 295.5,-534.83 299.33,-531 303.17,-531 303.17,-531 350.83,-531 350.83,-531 354.67,-531 358.5,-534.83 358.5,-538.67 358.5,-538.67 358.5,-546.33 358.5,-546.33 358.5,-550.17 354.67,-554 350.83,-554"/>
<text text-anchor="middle" x="327" y="-538.8" font-family="Arial" font-size="14.00" fill="#000000">common.ts</text>
</g>
<!-- src/common.ts&#45;&gt;name_src/changeset -->
<g id="edge56" class="edge">
<title>src/common.ts&#45;&gt;name_src/changeset</title>
<path fill="none" stroke="#00ffff" d="M323.45,-530.82C315.43,-484.83 308.5,-305.3 325,-287 345.81,-263.92 427.62,-273.2 466.92,-268.72"/>
<polygon fill="#00ffff" stroke="#00ffff" points="467.73,-272.13 477,-267 466.55,-265.23 467.73,-272.13"/>
</g>
<!-- src/common.ts&#45;&gt;name_src/changeset -->
<!-- src/common.ts&#45;&gt;name_src/dependency&#45;graph -->
<g id="edge58" class="edge">
<title>src/common.ts&#45;&gt;name_src/dependency&#45;graph</title>
<path fill="none" stroke="#00ffff" d="M316.52,-530.84C282.2,-495.92 172.52,-384.34 122.41,-333.35"/>
<polygon fill="#00ffff" stroke="#00ffff" points="124.69,-330.68 115.18,-326 119.7,-335.59 124.69,-330.68"/>
</g>
<!-- src/common.ts&#45;&gt;name_src/validation -->
<g id="edge59" class="edge">
<title>src/common.ts&#45;&gt;name_src/validation</title>
<path fill="none" stroke="#00ffff" d="M337.53,-530.78C343.17,-525.04 350.38,-517.7 357.39,-510.57"/>
<polygon fill="#00ffff" stroke="#00ffff" points="360.31,-512.58 364.83,-503 355.32,-507.68 360.31,-512.58"/>
</g>
<!-- src/common.ts&#45;&gt;exit_src -->
<!-- exit_src/changeset&#45;&gt;exit_src -->
<!-- exit_src/changeset&#45;&gt;exit_src -->
<!-- exit_src/changeset&#45;&gt;exit_src -->
<!-- exit_src/changeset&#45;&gt;exit_src -->
<!-- exit_src/changeset&#45;&gt;exit_src -->
<!-- src/changeset/build&#45;changelog.ts -->
<g id="node23" class="node">
<title>src/changeset/build&#45;changelog.ts</title>
<path fill="none" stroke="#000000" d="M469.33,-259C469.33,-259 358.67,-259 358.67,-259 354.83,-259 351,-255.17 351,-251.33 351,-251.33 351,-243.67 351,-243.67 351,-239.83 354.83,-236 358.67,-236 358.67,-236 469.33,-236 469.33,-236 473.17,-236 477,-239.83 477,-243.67 477,-243.67 477,-251.33 477,-251.33 477,-255.17 473.17,-259 469.33,-259"/>
<text text-anchor="middle" x="414" y="-243.8" font-family="Arial" font-size="14.00" fill="#000000">build&#45;changelog.ts</text>
</g>
<!-- src/changeset/build&#45;changelog.ts&#45;&gt;src/changeset/get&#45;changeset&#45;details.ts -->
<!-- src/changeset/build&#45;changelog.ts&#45;&gt;src/changeset/get&#45;changeset&#45;details.ts -->
<g id="edge47" class="edge">
<title>src/changeset/build&#45;changelog.ts&#45;&gt;src/changeset/get&#45;changeset&#45;details.ts</title>
<path fill="none" stroke="black" d="M419.41,-235.78C420.67,-228.61 421.04,-218.95 420.53,-210.31"/>
<polygon fill="black" stroke="black" points="423.98,-209.73 419.4,-200.17 417.03,-210.5 423.98,-209.73"/>
</g>
<!-- src/changeset/build&#45;changelog.ts&#45;&gt;src/changeset/helpers.ts -->
<!-- src/changeset/build&#45;changelog.ts&#45;&gt;src/changeset/helpers.ts -->
<g id="edge49" class="edge">
<title>src/changeset/build&#45;changelog.ts&#45;&gt;src/changeset/helpers.ts</title>
<path fill="none" stroke="black" d="M448.18,-235.91C474.48,-226.83 510.43,-213.68 536.34,-203.69"/>
<polygon fill="black" stroke="black" points="537.69,-206.92 545.74,-200.03 535.15,-200.4 537.69,-206.92"/>
</g>
<!-- src/changeset/build&#45;changelog.ts&#45;&gt;exit_src/changeset -->
<!-- exit_src/dependency&#45;graph&#45;&gt;exit_src -->
<!-- exit_src/dependency&#45;graph&#45;&gt;exit_src -->
<!-- exit_src/dependency&#45;graph&#45;&gt;exit_src -->
</g>
</svg>
