<?xml version="1.0" encoding="UTF-8" standalone="no"?>
<!DOCTYPE svg PUBLIC "-//W3C//DTD SVG 1.1//EN"
 "http://www.w3.org/Graphics/SVG/1.1/DTD/svg11.dtd">
<!-- Generated by graphviz version 2.43.0 (0)
 -->
<!-- Title: dependency&#45;graph&#45;@siteimprove/alfa&#45;toolchain Pages: 1 -->
<svg width="2580pt" height="528pt"
 viewBox="0.00 0.00 2580.20 527.91" xmlns="http://www.w3.org/2000/svg" xmlns:xlink="http://www.w3.org/1999/xlink">
<g id="graph0" class="graph" transform="scale(1 1) rotate(0) translate(21.6 506.31)">
<title>dependency&#45;graph&#45;@siteimprove/alfa&#45;toolchain</title>
<polygon fill="#ffffff" stroke="transparent" points="-21.6,21.6 -21.6,-506.31 2558.6,-506.31 2558.6,21.6 -21.6,21.6"/>
<g id="clust1" class="cluster">
<title>cluster_src</title>
<polygon fill="#ffffff" stroke="#000000" points="8,-8.71 8,-476.71 2529,-476.71 2529,-8.71 8,-8.71"/>
</g>
<g id="clust2" class="cluster">
<title>cluster_src</title>
<polygon fill="#ffffff" stroke="#000000" points="16,-16.71 16,-468.71 2521,-468.71 2521,-16.71 16,-16.71"/>
</g>
<g id="clust3" class="cluster">
<title>cluster_src/typedoc</title>
<polygon fill="#ffffff" stroke="#000000" points="2322,-75.71 2322,-173.71 2513,-173.71 2513,-75.71 2322,-75.71"/>
</g>
<g id="clust4" class="cluster">
<title>cluster_src/dependency&#45;graph</title>
<polygon fill="#ffffff" stroke="#000000" points="1909,-75.71 1909,-409.71 2136,-409.71 2136,-75.71 1909,-75.71"/>
</g>
<g id="clust5" class="cluster">
<title>cluster_src/coverage</title>
<polygon fill="#ffffff" stroke="#000000" points="521,-134.71 521,-291.71 979,-291.71 979,-134.71 521,-134.71"/>
</g>
<g id="clust6" class="cluster">
<title>cluster_src/validation</title>
<polygon fill="#ffffff" stroke="#000000" points="999,-193.71 999,-409.71 1896,-409.71 1896,-193.71 999,-193.71"/>
</g>
<g id="clust7" class="cluster">
<title>cluster_src/changeset</title>
<polygon fill="#ffffff" stroke="#000000" points="24,-75.71 24,-232.71 513,-232.71 513,-75.71 24,-75.71"/>
</g>
<!-- src/dependency&#45;graph/rainbow.ts -->
<g id="node1" class="node">
<title>src/dependency&#45;graph/rainbow.ts</title>
<path fill="none" stroke="#000000" d="M2066.83,-165.71C2066.83,-165.71 2005.17,-165.71 2005.17,-165.71 2001.33,-165.71 1997.5,-161.87 1997.5,-158.04 1997.5,-158.04 1997.5,-150.37 1997.5,-150.37 1997.5,-146.54 2001.33,-142.71 2005.17,-142.71 2005.17,-142.71 2066.83,-142.71 2066.83,-142.71 2070.67,-142.71 2074.5,-146.54 2074.5,-150.37 2074.5,-150.37 2074.5,-158.04 2074.5,-158.04 2074.5,-161.87 2070.67,-165.71 2066.83,-165.71"/>
<text text-anchor="middle" x="2036" y="-150.51" font-family="Arial" font-size="14.00" fill="#000000">rainbow.ts</text>
</g>
<!-- exit_src/dependency&#45;graph -->
<!-- src/dependency&#45;graph/rainbow.ts&#45;&gt;exit_src/dependency&#45;graph -->
<!-- src/common.ts -->
<g id="node2" class="node">
<title>src/common.ts</title>
<path fill="none" stroke="#000000" d="M1473.33,-106.71C1473.33,-106.71 1404.67,-106.71 1404.67,-106.71 1400.83,-106.71 1397,-102.87 1397,-99.04 1397,-99.04 1397,-91.37 1397,-91.37 1397,-87.54 1400.83,-83.71 1404.67,-83.71 1404.67,-83.71 1473.33,-83.71 1473.33,-83.71 1477.17,-83.71 1481,-87.54 1481,-91.37 1481,-91.37 1481,-99.04 1481,-99.04 1481,-102.87 1477.17,-106.71 1473.33,-106.71"/>
<text text-anchor="middle" x="1439" y="-91.51" font-family="Arial" font-size="14.00" fill="#000000">common.ts</text>
</g>
<!-- exit_src -->
<!-- src/common.ts&#45;&gt;exit_src -->
<!-- exit_src/coverage -->
<!-- exit_src/coverage&#45;&gt;src/common.ts -->
<g id="edge73" class="edge">
<title>exit_src/coverage&#45;&gt;src/common.ts</title>
<path fill="none" stroke="#ff0000" d="M975,-134.71C1154.05,-103.44 1202.7,-129.72 1383,-106.71 1384.27,-106.55 1385.55,-106.37 1386.85,-106.19"/>
<polygon fill="#ff0000" stroke="#ff0000" points="1387.53,-109.63 1396.89,-104.65 1386.47,-102.71 1387.53,-109.63"/>
</g>
<!-- exit_src/coverage&#45;&gt;exit_src -->
<!-- exit_src/coverage&#45;&gt;exit_src -->
<!-- exit_src/coverage&#45;&gt;exit_src -->
<!-- src/coverage/transform&#45;unit&#45;test&#45;coverage&#45;data.ts -->
<g id="node4" class="node">
<title>src/coverage/transform&#45;unit&#45;test&#45;coverage&#45;data.ts</title>
<path fill="none" stroke="#000000" d="M963.33,-224.71C963.33,-224.71 746.67,-224.71 746.67,-224.71 742.83,-224.71 739,-220.87 739,-217.04 739,-217.04 739,-209.37 739,-209.37 739,-205.54 742.83,-201.71 746.67,-201.71 746.67,-201.71 963.33,-201.71 963.33,-201.71 967.17,-201.71 971,-205.54 971,-209.37 971,-209.37 971,-217.04 971,-217.04 971,-220.87 967.17,-224.71 963.33,-224.71"/>
<text text-anchor="middle" x="855" y="-209.51" font-family="Arial" font-size="14.00" fill="#000000">transform&#45;unit&#45;test&#45;coverage&#45;data.ts</text>
</g>
<!-- src/coverage/transform&#45;unit&#45;test&#45;coverage&#45;data.ts&#45;&gt;exit_src/coverage -->
<!-- src/dependency&#45;graph/dependency&#45;graph.ts -->
<g id="node5" class="node">
<title>src/dependency&#45;graph/dependency&#45;graph.ts</title>
<path fill="none" stroke="#000000" d="M2099.83,-224.71C2099.83,-224.71 1972.17,-224.71 1972.17,-224.71 1968.33,-224.71 1964.5,-220.87 1964.5,-217.04 1964.5,-217.04 1964.5,-209.37 1964.5,-209.37 1964.5,-205.54 1968.33,-201.71 1972.17,-201.71 1972.17,-201.71 2099.83,-201.71 2099.83,-201.71 2103.67,-201.71 2107.5,-205.54 2107.5,-209.37 2107.5,-209.37 2107.5,-217.04 2107.5,-217.04 2107.5,-220.87 2103.67,-224.71 2099.83,-224.71"/>
<text text-anchor="middle" x="2036" y="-209.51" font-family="Arial" font-size="14.00" fill="#000000">dependency&#45;graph.ts</text>
</g>
<!-- src/dependency&#45;graph/dependency&#45;graph.ts&#45;&gt;src/dependency&#45;graph/rainbow.ts -->
<!-- src/dependency&#45;graph/dependency&#45;graph.ts&#45;&gt;src/dependency&#45;graph/rainbow.ts -->
<g id="edge71" class="edge">
<title>src/dependency&#45;graph/dependency&#45;graph.ts&#45;&gt;src/dependency&#45;graph/rainbow.ts</title>
<path fill="none" stroke="black" d="M2041.41,-201.49C2042.67,-194.32 2043.04,-184.66 2042.53,-176.02"/>
<polygon fill="black" stroke="black" points="2045.98,-175.43 2041.4,-165.88 2039.03,-176.21 2045.98,-175.43"/>
</g>
<!-- src/dependency&#45;graph/dependency&#45;graph.ts&#45;&gt;exit_src/dependency&#45;graph -->
<!-- src/dependency&#45;graph/generate&#45;graphs.ts -->
<g id="node6" class="node">
<title>src/dependency&#45;graph/generate&#45;graphs.ts</title>
<path fill="none" stroke="#000000" d="M2047.33,-342.71C2047.33,-342.71 1932.67,-342.71 1932.67,-342.71 1928.83,-342.71 1925,-338.87 1925,-335.04 1925,-335.04 1925,-327.37 1925,-327.37 1925,-323.54 1928.83,-319.71 1932.67,-319.71 1932.67,-319.71 2047.33,-319.71 2047.33,-319.71 2051.17,-319.71 2055,-323.54 2055,-327.37 2055,-327.37 2055,-335.04 2055,-335.04 2055,-338.87 2051.17,-342.71 2047.33,-342.71"/>
<text text-anchor="middle" x="1990" y="-327.51" font-family="Arial" font-size="14.00" fill="#000000">generate&#45;graphs.ts</text>
</g>
<!-- src/dependency&#45;graph/generate&#45;graphs.ts&#45;&gt;src/common.ts -->
<!-- src/dependency&#45;graph/generate&#45;graphs.ts&#45;&gt;src/dependency&#45;graph/dependency&#45;graph.ts -->
<!-- src/dependency&#45;graph/generate&#45;graphs.ts&#45;&gt;src/dependency&#45;graph/dependency&#45;graph.ts -->
<g id="edge84" class="edge">
<title>src/dependency&#45;graph/generate&#45;graphs.ts&#45;&gt;src/dependency&#45;graph/dependency&#45;graph.ts</title>
<path fill="none" stroke="black" stroke-dasharray="1,5" d="M2013.47,-319.64C2023.42,-312.79 2033.65,-303.04 2039,-291.71 2047.42,-273.86 2048.18,-251.11 2045.6,-234.89"/>
<polygon fill="black" stroke="black" points="2048.95,-233.82 2043.34,-224.84 2042.12,-235.36 2048.95,-233.82"/>
</g>
<!-- src/dependency&#45;graph/generate&#45;graphs.ts&#45;&gt;exit_src/dependency&#45;graph -->
<!-- src/dependency&#45;graph/helpers.ts -->
<g id="node11" class="node">
<title>src/dependency&#45;graph/helpers.ts</title>
<path fill="none" stroke="#000000" d="M2012.83,-283.71C2012.83,-283.71 1953.17,-283.71 1953.17,-283.71 1949.33,-283.71 1945.5,-279.87 1945.5,-276.04 1945.5,-276.04 1945.5,-268.37 1945.5,-268.37 1945.5,-264.54 1949.33,-260.71 1953.17,-260.71 1953.17,-260.71 2012.83,-260.71 2012.83,-260.71 2016.67,-260.71 2020.5,-264.54 2020.5,-268.37 2020.5,-268.37 2020.5,-276.04 2020.5,-276.04 2020.5,-279.87 2016.67,-283.71 2012.83,-283.71"/>
<text text-anchor="middle" x="1983" y="-268.51" font-family="Arial" font-size="14.00" fill="#000000">helpers.ts</text>
</g>
<!-- src/dependency&#45;graph/generate&#45;graphs.ts&#45;&gt;src/dependency&#45;graph/helpers.ts -->
<!-- src/dependency&#45;graph/generate&#45;graphs.ts&#45;&gt;src/dependency&#45;graph/helpers.ts -->
<g id="edge86" class="edge">
<title>src/dependency&#45;graph/generate&#45;graphs.ts&#45;&gt;src/dependency&#45;graph/helpers.ts</title>
<path fill="none" stroke="black" d="M1994.09,-319.49C1994.48,-312.24 1993.64,-302.44 1992.03,-293.73"/>
<polygon fill="black" stroke="black" points="1995.41,-292.81 1989.71,-283.88 1988.6,-294.42 1995.41,-292.81"/>
</g>
<!-- src/changeset/get&#45;changeset&#45;details.ts -->
<g id="node7" class="node">
<title>src/changeset/get&#45;changeset&#45;details.ts</title>
<path fill="none" stroke="#000000" d="M297.33,-165.71C297.33,-165.71 152.67,-165.71 152.67,-165.71 148.83,-165.71 145,-161.87 145,-158.04 145,-158.04 145,-150.37 145,-150.37 145,-146.54 148.83,-142.71 152.67,-142.71 152.67,-142.71 297.33,-142.71 297.33,-142.71 301.17,-142.71 305,-146.54 305,-150.37 305,-150.37 305,-158.04 305,-158.04 305,-161.87 301.17,-165.71 297.33,-165.71"/>
<text text-anchor="middle" x="225" y="-150.51" font-family="Arial" font-size="14.00" fill="#000000">get&#45;changeset&#45;details.ts</text>
</g>
<!-- exit_src/changeset -->
<!-- src/changeset/get&#45;changeset&#45;details.ts&#45;&gt;exit_src/changeset -->
<!-- exit_src/validation -->
<!-- exit_src/validation&#45;&gt;src/common.ts -->
<g id="edge113" class="edge">
<title>exit_src/validation&#45;&gt;src/common.ts</title>
<path fill="none" stroke="#ffff00" d="M1487.23,-193.71C1483.13,-187.47 1478.7,-180.39 1475,-173.71 1464.45,-154.65 1454.16,-131.96 1447.3,-116.07"/>
<polygon fill="#ffff00" stroke="#ffff00" points="1450.46,-114.55 1443.32,-106.72 1444.02,-117.29 1450.46,-114.55"/>
</g>
<!-- name_src/changeset -->
<g id="node9" class="node">
<title>name_src/changeset</title>
<path fill="none" stroke="#ff00ff" stroke-width="5" d="M497.83,-224.71C497.83,-224.71 434.17,-224.71 434.17,-224.71 430.33,-224.71 426.5,-220.87 426.5,-217.04 426.5,-217.04 426.5,-209.37 426.5,-209.37 426.5,-205.54 430.33,-201.71 434.17,-201.71 434.17,-201.71 497.83,-201.71 497.83,-201.71 501.67,-201.71 505.5,-205.54 505.5,-209.37 505.5,-209.37 505.5,-217.04 505.5,-217.04 505.5,-220.87 501.67,-224.71 497.83,-224.71"/>
<text text-anchor="middle" x="466" y="-209.51" font-family="Arial" font-size="14.00" fill="#000000">changeset</text>
</g>
<!-- exit_src/validation&#45;&gt;name_src/changeset -->
<g id="edge80" class="edge">
<title>exit_src/validation&#45;&gt;name_src/changeset</title>
<path fill="none" stroke="#ffff00" d="M999,-255.29C778.76,-255.79 551.07,-253.23 526,-246.71 518.2,-244.68 510.33,-241.38 502.98,-237.64"/>
<polygon fill="#ffff00" stroke="#ffff00" points="504.44,-234.44 493.99,-232.71 501.08,-240.58 504.44,-234.44"/>
</g>
<!-- exit_src/validation&#45;&gt;exit_src -->
<!-- exit_src/validation&#45;&gt;exit_src -->
<!-- exit_src/validation&#45;&gt;exit_src -->
<!-- exit_src/validation&#45;&gt;exit_src -->
<!-- exit_src/validation&#45;&gt;exit_src -->
<!-- exit_src/validation&#45;&gt;exit_src -->
<!-- exit_src/validation&#45;&gt;exit_src -->
<!-- exit_src/dependency&#45;graph&#45;&gt;src/common.ts -->
<g id="edge82" class="edge">
<title>exit_src/dependency&#45;graph&#45;&gt;src/common.ts</title>
<path fill="none" stroke="#00ff00" d="M1909,-95.21C1769.79,-95.21 1630.59,-95.21 1491.38,-95.21"/>
<polygon fill="#00ff00" stroke="#00ff00" points="1491.16,-91.71 1481.16,-95.21 1491.16,-98.71 1491.16,-91.71"/>
</g>
<!-- exit_src/dependency&#45;graph&#45;&gt;exit_src -->
<!-- exit_src/dependency&#45;graph&#45;&gt;exit_src -->
<!-- exit_src/dependency&#45;graph&#45;&gt;exit_src -->
<!-- exit_src/dependency&#45;graph&#45;&gt;exit_src -->
<!-- exit_src/dependency&#45;graph&#45;&gt;exit_src -->
<!-- src/dependency&#45;graph/helpers.ts&#45;&gt;src/dependency&#45;graph/dependency&#45;graph.ts -->
<!-- src/dependency&#45;graph/helpers.ts&#45;&gt;src/dependency&#45;graph/dependency&#45;graph.ts -->
<g id="edge111" class="edge">
<title>src/dependency&#45;graph/helpers.ts&#45;&gt;src/dependency&#45;graph/dependency&#45;graph.ts</title>
<path fill="none" stroke="black" d="M1998.38,-260.49C2007,-252.68 2017.33,-241.92 2025.14,-232.74"/>
<polygon fill="black" stroke="black" points="2027.92,-234.86 2031.48,-224.88 2022.48,-230.47 2027.92,-234.86"/>
</g>
<!-- src/dependency&#45;graph/helpers.ts&#45;&gt;exit_src/dependency&#45;graph -->
<!-- src/changeset/helpers.ts -->
<g id="node12" class="node">
<title>src/changeset/helpers.ts</title>
<path fill="none" stroke="#000000" d="M118.83,-165.71C118.83,-165.71 59.17,-165.71 59.17,-165.71 55.33,-165.71 51.5,-161.87 51.5,-158.04 51.5,-158.04 51.5,-150.37 51.5,-150.37 51.5,-146.54 55.33,-142.71 59.17,-142.71 59.17,-142.71 118.83,-142.71 118.83,-142.71 122.67,-142.71 126.5,-146.54 126.5,-150.37 126.5,-150.37 126.5,-158.04 126.5,-158.04 126.5,-161.87 122.67,-165.71 118.83,-165.71"/>
<text text-anchor="middle" x="89" y="-150.51" font-family="Arial" font-size="14.00" fill="#000000">helpers.ts</text>
</g>
<!-- src/changeset/helpers.ts&#45;&gt;exit_src/changeset -->
<!-- src/validation/has&#45;extractor&#45;config.ts -->
<g id="node13" class="node">
<title>src/validation/has&#45;extractor&#45;config.ts</title>
<path fill="none" stroke="#000000" d="M1385.33,-283.71C1385.33,-283.71 1250.67,-283.71 1250.67,-283.71 1246.83,-283.71 1243,-279.87 1243,-276.04 1243,-276.04 1243,-268.37 1243,-268.37 1243,-264.54 1246.83,-260.71 1250.67,-260.71 1250.67,-260.71 1385.33,-260.71 1385.33,-260.71 1389.17,-260.71 1393,-264.54 1393,-268.37 1393,-268.37 1393,-276.04 1393,-276.04 1393,-279.87 1389.17,-283.71 1385.33,-283.71"/>
<text text-anchor="middle" x="1318" y="-268.51" font-family="Arial" font-size="14.00" fill="#000000">has&#45;extractor&#45;config.ts</text>
</g>
<!-- src/validation/has&#45;extractor&#45;config.ts&#45;&gt;exit_src/validation -->
<!-- src/validation/validate&#45;all.ts -->
<g id="node14" class="node">
<title>src/validation/validate&#45;all.ts</title>
<path fill="none" stroke="#000000" d="M1503.83,-342.71C1503.83,-342.71 1424.17,-342.71 1424.17,-342.71 1420.33,-342.71 1416.5,-338.87 1416.5,-335.04 1416.5,-335.04 1416.5,-327.37 1416.5,-327.37 1416.5,-323.54 1420.33,-319.71 1424.17,-319.71 1424.17,-319.71 1503.83,-319.71 1503.83,-319.71 1507.67,-319.71 1511.5,-323.54 1511.5,-327.37 1511.5,-327.37 1511.5,-335.04 1511.5,-335.04 1511.5,-338.87 1507.67,-342.71 1503.83,-342.71"/>
<text text-anchor="middle" x="1464" y="-327.51" font-family="Arial" font-size="14.00" fill="#000000">validate&#45;all.ts</text>
</g>
<!-- src/validation/validate&#45;all.ts&#45;&gt;src/common.ts -->
<!-- src/validation/validate&#45;all.ts&#45;&gt;exit_src/validation -->
<!-- src/validation/validate&#45;all.ts&#45;&gt;src/validation/has&#45;extractor&#45;config.ts -->
<!-- src/validation/validate&#45;all.ts&#45;&gt;src/validation/has&#45;extractor&#45;config.ts -->
<g id="edge115" class="edge">
<title>src/validation/validate&#45;all.ts&#45;&gt;src/validation/has&#45;extractor&#45;config.ts</title>
<path fill="none" stroke="black" d="M1442.27,-319.62C1420.53,-310.5 1386.82,-297.27 1359.92,-287.27"/>
<polygon fill="black" stroke="black" points="1360.95,-283.91 1350.35,-283.74 1358.52,-290.48 1360.95,-283.91"/>
</g>
<!-- src/validation/validate&#45;changesets.ts -->
<g id="node15" class="node">
<title>src/validation/validate&#45;changesets.ts</title>
<path fill="none" stroke="#000000" d="M1699.83,-283.71C1699.83,-283.71 1564.17,-283.71 1564.17,-283.71 1560.33,-283.71 1556.5,-279.87 1556.5,-276.04 1556.5,-276.04 1556.5,-268.37 1556.5,-268.37 1556.5,-264.54 1560.33,-260.71 1564.17,-260.71 1564.17,-260.71 1699.83,-260.71 1699.83,-260.71 1703.67,-260.71 1707.5,-264.54 1707.5,-268.37 1707.5,-268.37 1707.5,-276.04 1707.5,-276.04 1707.5,-279.87 1703.67,-283.71 1699.83,-283.71"/>
<text text-anchor="middle" x="1632" y="-268.51" font-family="Arial" font-size="14.00" fill="#000000">validate&#45;changesets.ts</text>
</g>
<!-- src/validation/validate&#45;all.ts&#45;&gt;src/validation/validate&#45;changesets.ts -->
<!-- src/validation/validate&#45;all.ts&#45;&gt;src/validation/validate&#45;changesets.ts -->
<g id="edge119" class="edge">
<title>src/validation/validate&#45;all.ts&#45;&gt;src/validation/validate&#45;changesets.ts</title>
<path fill="none" stroke="black" d="M1500.59,-319.62C1529.21,-310.46 1568.61,-297.15 1596.85,-287.13"/>
<polygon fill="black" stroke="black" points="1598.1,-290.4 1606.34,-283.74 1595.74,-283.81 1598.1,-290.4"/>
</g>
<!-- src/validation/validate&#45;package&#45;json.ts -->
<g id="node16" class="node">
<title>src/validation/validate&#45;package&#45;json.ts</title>
<path fill="none" stroke="#000000" d="M1880.33,-283.71C1880.33,-283.71 1733.67,-283.71 1733.67,-283.71 1729.83,-283.71 1726,-279.87 1726,-276.04 1726,-276.04 1726,-268.37 1726,-268.37 1726,-264.54 1729.83,-260.71 1733.67,-260.71 1733.67,-260.71 1880.33,-260.71 1880.33,-260.71 1884.17,-260.71 1888,-264.54 1888,-268.37 1888,-268.37 1888,-276.04 1888,-276.04 1888,-279.87 1884.17,-283.71 1880.33,-283.71"/>
<text text-anchor="middle" x="1807" y="-268.51" font-family="Arial" font-size="14.00" fill="#000000">validate&#45;package&#45;json.ts</text>
</g>
<!-- src/validation/validate&#45;all.ts&#45;&gt;src/validation/validate&#45;package&#45;json.ts -->
<!-- src/validation/validate&#45;all.ts&#45;&gt;src/validation/validate&#45;package&#45;json.ts -->
<g id="edge121" class="edge">
<title>src/validation/validate&#45;all.ts&#45;&gt;src/validation/validate&#45;package&#45;json.ts</title>
<path fill="none" stroke="black" d="M1511.66,-324.59C1564.48,-317.61 1651.65,-305 1726,-291.71 1736.01,-289.92 1746.62,-287.87 1756.76,-285.81"/>
<polygon fill="black" stroke="black" points="1757.63,-289.2 1766.71,-283.75 1756.21,-282.35 1757.63,-289.2"/>
</g>
<!-- src/validation/validate&#45;workspace&#45;tsconfig.ts -->
<g id="node17" class="node">
<title>src/validation/validate&#45;workspace&#45;tsconfig.ts</title>
<path fill="none" stroke="#000000" d="M1216.83,-283.71C1216.83,-283.71 1035.17,-283.71 1035.17,-283.71 1031.33,-283.71 1027.5,-279.87 1027.5,-276.04 1027.5,-276.04 1027.5,-268.37 1027.5,-268.37 1027.5,-264.54 1031.33,-260.71 1035.17,-260.71 1035.17,-260.71 1216.83,-260.71 1216.83,-260.71 1220.67,-260.71 1224.5,-264.54 1224.5,-268.37 1224.5,-268.37 1224.5,-276.04 1224.5,-276.04 1224.5,-279.87 1220.67,-283.71 1216.83,-283.71"/>
<text text-anchor="middle" x="1126" y="-268.51" font-family="Arial" font-size="14.00" fill="#000000">validate&#45;workspace&#45;tsconfig.ts</text>
</g>
<!-- src/validation/validate&#45;all.ts&#45;&gt;src/validation/validate&#45;workspace&#45;tsconfig.ts -->
<!-- src/validation/validate&#45;all.ts&#45;&gt;src/validation/validate&#45;workspace&#45;tsconfig.ts -->
<g id="edge123" class="edge">
<title>src/validation/validate&#45;all.ts&#45;&gt;src/validation/validate&#45;workspace&#45;tsconfig.ts</title>
<path fill="none" stroke="black" d="M1416.34,-321.09C1371.55,-313.32 1302.88,-301.85 1243,-291.71 1231.01,-289.68 1218.28,-287.51 1205.78,-285.4"/>
<polygon fill="black" stroke="black" points="1206.26,-281.93 1195.82,-283.72 1205.1,-288.83 1206.26,-281.93"/>
</g>
<!-- src/validation/is&#45;in&#45;clusters.ts -->
<g id="node28" class="node">
<title>src/validation/is&#45;in&#45;clusters.ts</title>
<path fill="none" stroke="#000000" d="M1509.83,-283.71C1509.83,-283.71 1418.17,-283.71 1418.17,-283.71 1414.33,-283.71 1410.5,-279.87 1410.5,-276.04 1410.5,-276.04 1410.5,-268.37 1410.5,-268.37 1410.5,-264.54 1414.33,-260.71 1418.17,-260.71 1418.17,-260.71 1509.83,-260.71 1509.83,-260.71 1513.67,-260.71 1517.5,-264.54 1517.5,-268.37 1517.5,-268.37 1517.5,-276.04 1517.5,-276.04 1517.5,-279.87 1513.67,-283.71 1509.83,-283.71"/>
<text text-anchor="middle" x="1464" y="-268.51" font-family="Arial" font-size="14.00" fill="#000000">is&#45;in&#45;clusters.ts</text>
</g>
<!-- src/validation/validate&#45;all.ts&#45;&gt;src/validation/is&#45;in&#45;clusters.ts -->
<!-- src/validation/validate&#45;all.ts&#45;&gt;src/validation/is&#45;in&#45;clusters.ts -->
<g id="edge117" class="edge">
<title>src/validation/validate&#45;all.ts&#45;&gt;src/validation/is&#45;in&#45;clusters.ts</title>
<path fill="none" stroke="black" d="M1469.41,-319.49C1470.67,-312.32 1471.04,-302.66 1470.53,-294.02"/>
<polygon fill="black" stroke="black" points="1473.98,-293.43 1469.4,-283.88 1467.03,-294.21 1473.98,-293.43"/>
</g>
<!-- src/validation/validate&#45;changesets.ts&#45;&gt;exit_src/validation -->
<!-- src/validation/validate&#45;package&#45;json.ts&#45;&gt;exit_src/validation -->
<!-- src/validation/validate&#45;workspace&#45;tsconfig.ts&#45;&gt;exit_src/validation -->
<!-- src/changeset/build&#45;changelog.ts -->
<g id="node18" class="node">
<title>src/changeset/build&#45;changelog.ts</title>
<path fill="none" stroke="#000000" d="M302.33,-224.71C302.33,-224.71 191.67,-224.71 191.67,-224.71 187.83,-224.71 184,-220.87 184,-217.04 184,-217.04 184,-209.37 184,-209.37 184,-205.54 187.83,-201.71 191.67,-201.71 191.67,-201.71 302.33,-201.71 302.33,-201.71 306.17,-201.71 310,-205.54 310,-209.37 310,-209.37 310,-217.04 310,-217.04 310,-220.87 306.17,-224.71 302.33,-224.71"/>
<text text-anchor="middle" x="247" y="-209.51" font-family="Arial" font-size="14.00" fill="#000000">build&#45;changelog.ts</text>
</g>
<!-- src/changeset/build&#45;changelog.ts&#45;&gt;src/changeset/get&#45;changeset&#45;details.ts -->
<!-- src/changeset/build&#45;changelog.ts&#45;&gt;src/changeset/get&#45;changeset&#45;details.ts -->
<g id="edge88" class="edge">
<title>src/changeset/build&#45;changelog.ts&#45;&gt;src/changeset/get&#45;changeset&#45;details.ts</title>
<path fill="none" stroke="black" d="M248.27,-201.49C246.7,-194 243.11,-183.8 239.04,-174.87"/>
<polygon fill="black" stroke="black" points="242.14,-173.24 234.52,-165.88 235.89,-176.39 242.14,-173.24"/>
</g>
<!-- src/changeset/build&#45;changelog.ts&#45;&gt;src/changeset/helpers.ts -->
<!-- src/changeset/build&#45;changelog.ts&#45;&gt;src/changeset/helpers.ts -->
<g id="edge90" class="edge">
<title>src/changeset/build&#45;changelog.ts&#45;&gt;src/changeset/helpers.ts</title>
<path fill="none" stroke="black" d="M222.86,-201.6C202.03,-194.05 171.59,-183.55 145,-173.71 141.31,-172.34 137.47,-170.89 133.6,-169.42"/>
<polygon fill="black" stroke="black" points="134.57,-166.04 123.98,-165.77 132.09,-172.59 134.57,-166.04"/>
</g>
<!-- src/changeset/build&#45;changelog.ts&#45;&gt;exit_src/changeset -->
<!-- src/changeset/changelog&#45;global.ts -->
<g id="node19" class="node">
<title>src/changeset/changelog&#45;global.ts</title>
<path fill="none" stroke="#000000" d="M158.33,-224.71C158.33,-224.71 39.67,-224.71 39.67,-224.71 35.83,-224.71 32,-220.87 32,-217.04 32,-217.04 32,-209.37 32,-209.37 32,-205.54 35.83,-201.71 39.67,-201.71 39.67,-201.71 158.33,-201.71 158.33,-201.71 162.17,-201.71 166,-205.54 166,-209.37 166,-209.37 166,-217.04 166,-217.04 166,-220.87 162.17,-224.71 158.33,-224.71"/>
<text text-anchor="middle" x="99" y="-209.51" font-family="Arial" font-size="14.00" fill="#000000">changelog&#45;global.ts</text>
</g>
<!-- src/changeset/changelog&#45;global.ts&#45;&gt;src/changeset/helpers.ts -->
<!-- src/changeset/changelog&#45;global.ts&#45;&gt;src/changeset/helpers.ts -->
<g id="edge102" class="edge">
<title>src/changeset/changelog&#45;global.ts&#45;&gt;src/changeset/helpers.ts</title>
<path fill="none" stroke="black" d="M102.53,-201.49C102.53,-194.24 101.18,-184.44 99.11,-175.73"/>
<polygon fill="black" stroke="black" points="102.4,-174.52 96.28,-165.88 95.68,-176.46 102.4,-174.52"/>
</g>
<!-- src/changeset/changelog&#45;global.ts&#45;&gt;exit_src/changeset -->
<!-- src/changeset/changelog&#45;individual.cts -->
<g id="node20" class="node">
<title>src/changeset/changelog&#45;individual.cts</title>
<path fill="none" stroke="#000000" d="M496.83,-165.71C496.83,-165.71 351.17,-165.71 351.17,-165.71 347.33,-165.71 343.5,-161.87 343.5,-158.04 343.5,-158.04 343.5,-150.37 343.5,-150.37 343.5,-146.54 347.33,-142.71 351.17,-142.71 351.17,-142.71 496.83,-142.71 496.83,-142.71 500.67,-142.71 504.5,-146.54 504.5,-150.37 504.5,-150.37 504.5,-158.04 504.5,-158.04 504.5,-161.87 500.67,-165.71 496.83,-165.71"/>
<text text-anchor="middle" x="424" y="-150.51" font-family="Arial" font-size="14.00" fill="#000000">changelog&#45;individual.cts</text>
</g>
<!-- src/changeset/changelog&#45;individual.cts&#45;&gt;exit_src/changeset -->
<!-- src/coverage/generate&#45;unit&#45;test&#45;coverage&#45;report.ts -->
<g id="node21" class="node">
<title>src/coverage/generate&#45;unit&#45;test&#45;coverage&#45;report.ts</title>
<path fill="none" stroke="#000000" d="M961.33,-283.71C961.33,-283.71 740.67,-283.71 740.67,-283.71 736.83,-283.71 733,-279.87 733,-276.04 733,-276.04 733,-268.37 733,-268.37 733,-264.54 736.83,-260.71 740.67,-260.71 740.67,-260.71 961.33,-260.71 961.33,-260.71 965.17,-260.71 969,-264.54 969,-268.37 969,-268.37 969,-276.04 969,-276.04 969,-279.87 965.17,-283.71 961.33,-283.71"/>
<text text-anchor="middle" x="851" y="-268.51" font-family="Arial" font-size="14.00" fill="#000000">generate&#45;unit&#45;test&#45;coverage&#45;report.ts</text>
</g>
<!-- src/coverage/generate&#45;unit&#45;test&#45;coverage&#45;report.ts&#45;&gt;src/common.ts -->
<!-- src/coverage/generate&#45;unit&#45;test&#45;coverage&#45;report.ts&#45;&gt;exit_src/coverage -->
<!-- src/coverage/generate&#45;unit&#45;test&#45;coverage&#45;report.ts&#45;&gt;src/coverage/transform&#45;unit&#45;test&#45;coverage&#45;data.ts -->
<!-- src/coverage/generate&#45;unit&#45;test&#45;coverage&#45;report.ts&#45;&gt;src/coverage/transform&#45;unit&#45;test&#45;coverage&#45;data.ts -->
<g id="edge75" class="edge">
<title>src/coverage/generate&#45;unit&#45;test&#45;coverage&#45;report.ts&#45;&gt;src/coverage/transform&#45;unit&#45;test&#45;coverage&#45;data.ts</title>
<path fill="none" stroke="black" d="M857.16,-260.49C858.92,-253.32 859.97,-243.66 860.07,-235.02"/>
<polygon fill="black" stroke="black" points="863.56,-234.73 859.65,-224.88 856.56,-235.02 863.56,-234.73"/>
</g>
<!-- name_src/coverage -->
<g id="node22" class="node">
<title>name_src/coverage</title>
<path fill="none" stroke="#ff0000" stroke-width="5" d="M594.33,-283.71C594.33,-283.71 537.67,-283.71 537.67,-283.71 533.83,-283.71 530,-279.87 530,-276.04 530,-276.04 530,-268.37 530,-268.37 530,-264.54 533.83,-260.71 537.67,-260.71 537.67,-260.71 594.33,-260.71 594.33,-260.71 598.17,-260.71 602,-264.54 602,-268.37 602,-268.37 602,-276.04 602,-276.04 602,-279.87 598.17,-283.71 594.33,-283.71"/>
<text text-anchor="middle" x="566" y="-268.51" font-family="Arial" font-size="14.00" fill="#000000">coverage</text>
</g>
<!-- src/coverage/upload&#45;coverage&#45;report.ts -->
<g id="node23" class="node">
<title>src/coverage/upload&#45;coverage&#45;report.ts</title>
<path fill="none" stroke="#000000" d="M692.83,-224.71C692.83,-224.71 537.17,-224.71 537.17,-224.71 533.33,-224.71 529.5,-220.87 529.5,-217.04 529.5,-217.04 529.5,-209.37 529.5,-209.37 529.5,-205.54 533.33,-201.71 537.17,-201.71 537.17,-201.71 692.83,-201.71 692.83,-201.71 696.67,-201.71 700.5,-205.54 700.5,-209.37 700.5,-209.37 700.5,-217.04 700.5,-217.04 700.5,-220.87 696.67,-224.71 692.83,-224.71"/>
<text text-anchor="middle" x="615" y="-209.51" font-family="Arial" font-size="14.00" fill="#000000">upload&#45;coverage&#45;report.ts</text>
</g>
<!-- src/coverage/upload&#45;coverage&#45;report.ts&#45;&gt;exit_src/coverage -->
<!-- src/dependency&#45;graph/index.ts -->
<g id="node24" class="node">
<title>src/dependency&#45;graph/index.ts</title>
<path fill="none" stroke="#00ff00" stroke-width="5" d="M2119.83,-401.71C2119.83,-401.71 2072.17,-401.71 2072.17,-401.71 2068.33,-401.71 2064.5,-397.87 2064.5,-394.04 2064.5,-394.04 2064.5,-386.37 2064.5,-386.37 2064.5,-382.54 2068.33,-378.71 2072.17,-378.71 2072.17,-378.71 2119.83,-378.71 2119.83,-378.71 2123.67,-378.71 2127.5,-382.54 2127.5,-386.37 2127.5,-386.37 2127.5,-394.04 2127.5,-394.04 2127.5,-397.87 2123.67,-401.71 2119.83,-401.71"/>
<text text-anchor="middle" x="2096" y="-386.51" font-family="Arial" font-size="14.00" fill="#000000">index.ts</text>
</g>
<!-- src/dependency&#45;graph/index.ts&#45;&gt;src/dependency&#45;graph/dependency&#45;graph.ts -->
<!-- src/dependency&#45;graph/index.ts&#45;&gt;src/dependency&#45;graph/dependency&#45;graph.ts -->
<g id="edge77" class="edge">
<title>src/dependency&#45;graph/index.ts&#45;&gt;src/dependency&#45;graph/dependency&#45;graph.ts</title>
<path fill="none" stroke="black" d="M2095.79,-378.52C2090,-349.9 2063.34,-271.14 2047.27,-234.04"/>
<polygon fill="black" stroke="black" points="2050.37,-232.4 2043.05,-224.75 2044,-235.3 2050.37,-232.4"/>
</g>
<!-- src/dependency&#45;graph/index.ts&#45;&gt;src/dependency&#45;graph/generate&#45;graphs.ts -->
<!-- src/dependency&#45;graph/index.ts&#45;&gt;src/dependency&#45;graph/generate&#45;graphs.ts -->
<g id="edge79" class="edge">
<title>src/dependency&#45;graph/index.ts&#45;&gt;src/dependency&#45;graph/generate&#45;graphs.ts</title>
<path fill="none" stroke="black" d="M2081.47,-378.49C2066.72,-369.73 2043.72,-357.24 2024.39,-347.45"/>
<polygon fill="black" stroke="black" points="2025.76,-344.22 2015.25,-342.88 2022.63,-350.48 2025.76,-344.22"/>
</g>
<!-- src/dependency&#45;graph/index.ts&#45;&gt;exit_src/dependency&#45;graph -->
<!-- name_src/dependency&#45;graph -->
<g id="node25" class="node">
<title>name_src/dependency&#45;graph</title>
<path fill="none" stroke="#00ff00" stroke-width="5" d="M2038.83,-401.71C2038.83,-401.71 1925.17,-401.71 1925.17,-401.71 1921.33,-401.71 1917.5,-397.87 1917.5,-394.04 1917.5,-394.04 1917.5,-386.37 1917.5,-386.37 1917.5,-382.54 1921.33,-378.71 1925.17,-378.71 1925.17,-378.71 2038.83,-378.71 2038.83,-378.71 2042.67,-378.71 2046.5,-382.54 2046.5,-386.37 2046.5,-386.37 2046.5,-394.04 2046.5,-394.04 2046.5,-397.87 2042.67,-401.71 2038.83,-401.71"/>
<text text-anchor="middle" x="1982" y="-386.51" font-family="Arial" font-size="14.00" fill="#000000">dependency&#45;graph</text>
</g>
<!-- src/validation/index.ts -->
<g id="node26" class="node">
<title>src/validation/index.ts</title>
<path fill="none" stroke="#ffff00" stroke-width="5" d="M1487.83,-401.71C1487.83,-401.71 1440.17,-401.71 1440.17,-401.71 1436.33,-401.71 1432.5,-397.87 1432.5,-394.04 1432.5,-394.04 1432.5,-386.37 1432.5,-386.37 1432.5,-382.54 1436.33,-378.71 1440.17,-378.71 1440.17,-378.71 1487.83,-378.71 1487.83,-378.71 1491.67,-378.71 1495.5,-382.54 1495.5,-386.37 1495.5,-386.37 1495.5,-394.04 1495.5,-394.04 1495.5,-397.87 1491.67,-401.71 1487.83,-401.71"/>
<text text-anchor="middle" x="1464" y="-386.51" font-family="Arial" font-size="14.00" fill="#000000">index.ts</text>
</g>
<!-- src/validation/index.ts&#45;&gt;exit_src/validation -->
<!-- src/validation/index.ts&#45;&gt;src/validation/has&#45;extractor&#45;config.ts -->
<!-- src/validation/index.ts&#45;&gt;src/validation/has&#45;extractor&#45;config.ts -->
<g id="edge92" class="edge">
<title>src/validation/index.ts&#45;&gt;src/validation/has&#45;extractor&#45;config.ts</title>
<path fill="none" stroke="black" d="M1454.64,-378.5C1432.34,-358.22 1377.01,-314.05 1343.86,-289.86"/>
<polygon fill="black" stroke="black" points="1345.71,-286.88 1335.55,-283.89 1341.63,-292.56 1345.71,-286.88"/>
</g>
<!-- src/validation/index.ts&#45;&gt;src/validation/validate&#45;all.ts -->
<!-- src/validation/index.ts&#45;&gt;src/validation/validate&#45;all.ts -->
<g id="edge94" class="edge">
<title>src/validation/index.ts&#45;&gt;src/validation/validate&#45;all.ts</title>
<path fill="none" stroke="black" d="M1469.41,-378.49C1470.67,-371.32 1471.04,-361.66 1470.53,-353.02"/>
<polygon fill="black" stroke="black" points="1473.98,-352.43 1469.4,-342.88 1467.03,-353.21 1473.98,-352.43"/>
</g>
<!-- src/validation/index.ts&#45;&gt;src/validation/validate&#45;changesets.ts -->
<!-- src/validation/index.ts&#45;&gt;src/validation/validate&#45;changesets.ts -->
<g id="edge96" class="edge">
<title>src/validation/index.ts&#45;&gt;src/validation/validate&#45;changesets.ts</title>
<path fill="none" stroke="black" d="M1483.62,-378.5C1516.09,-358.3 1579.91,-314.42 1612.37,-290.17"/>
<polygon fill="black" stroke="black" points="1614.8,-292.72 1620.64,-283.89 1610.56,-287.15 1614.8,-292.72"/>
</g>
<!-- src/validation/index.ts&#45;&gt;src/validation/validate&#45;package&#45;json.ts -->
<!-- src/validation/index.ts&#45;&gt;src/validation/validate&#45;package&#45;json.ts -->
<g id="edge98" class="edge">
<title>src/validation/index.ts&#45;&gt;src/validation/validate&#45;package&#45;json.ts</title>
<path fill="none" stroke="black" d="M1495.67,-379.81C1559.43,-359.46 1702.41,-311.18 1770.18,-287.21"/>
<polygon fill="black" stroke="black" points="1771.37,-290.5 1779.62,-283.86 1769.03,-283.91 1771.37,-290.5"/>
</g>
<!-- src/validation/index.ts&#45;&gt;src/validation/validate&#45;workspace&#45;tsconfig.ts -->
<!-- src/validation/index.ts&#45;&gt;src/validation/validate&#45;workspace&#45;tsconfig.ts -->
<g id="edge100" class="edge">
<title>src/validation/index.ts&#45;&gt;src/validation/validate&#45;workspace&#45;tsconfig.ts</title>
<path fill="none" stroke="black" d="M1437.21,-378.61C1379.11,-357.51 1241.64,-310.28 1170.38,-286.88"/>
<polygon fill="black" stroke="black" points="1171.38,-283.52 1160.78,-283.74 1169.2,-290.18 1171.38,-283.52"/>
</g>
<!-- name_src/validation -->
<g id="node27" class="node">
<title>name_src/validation</title>
<path fill="none" stroke="#ffff00" stroke-width="5" d="M1073.33,-401.71C1073.33,-401.71 1014.67,-401.71 1014.67,-401.71 1010.83,-401.71 1007,-397.87 1007,-394.04 1007,-394.04 1007,-386.37 1007,-386.37 1007,-382.54 1010.83,-378.71 1014.67,-378.71 1014.67,-378.71 1073.33,-378.71 1073.33,-378.71 1077.17,-378.71 1081,-382.54 1081,-386.37 1081,-386.37 1081,-394.04 1081,-394.04 1081,-397.87 1077.17,-401.71 1073.33,-401.71"/>
<text text-anchor="middle" x="1044" y="-386.51" font-family="Arial" font-size="14.00" fill="#000000">validation</text>
</g>
<!-- src/validation/is&#45;in&#45;clusters.ts&#45;&gt;exit_src/validation -->
<!-- exit_src&#45;&gt;exit_src -->
<!-- exit_src&#45;&gt;exit_src -->
<!-- exit_src&#45;&gt;exit_src -->
<!-- exit_src&#45;&gt;exit_src -->
<!-- exit_src&#45;&gt;exit_src -->
<!-- exit_src&#45;&gt;exit_src -->
<!-- exit_src&#45;&gt;exit_src -->
<!-- exit_src&#45;&gt;exit_src -->
<!-- exit_src&#45;&gt;exit_src -->
<!-- exit_src&#45;&gt;exit_src -->
<!-- exit_src&#45;&gt;exit_src -->
<!-- exit_src&#45;&gt;exit_src -->
<!-- exit_src&#45;&gt;exit_src -->
<!-- exit_src&#45;&gt;exit_src -->
<!-- exit_src&#45;&gt;exit_src -->
<!-- exit_src&#45;&gt;exit_src -->
<!-- exit_src&#45;&gt;exit_src -->
<!-- exit_src&#45;&gt;exit_src -->
<!-- exit_src&#45;&gt;exit_src -->
<!-- exit_src&#45;&gt;exit_src -->
<!-- exit_src&#45;&gt;exit_src -->
<!-- exit_src&#45;&gt;exit_src -->
<!-- exit_src&#45;&gt;exit_src -->
<!-- exit_src&#45;&gt;exit_src -->
<!-- name_src -->
<g id="node30" class="node">
<title>name_src</title>
<path fill="none" stroke="#00ffff" stroke-width="5" d="M1583.33,-460.71C1583.33,-460.71 1544.67,-460.71 1544.67,-460.71 1540.83,-460.71 1537,-456.87 1537,-453.04 1537,-453.04 1537,-445.37 1537,-445.37 1537,-441.54 1540.83,-437.71 1544.67,-437.71 1544.67,-437.71 1583.33,-437.71 1583.33,-437.71 1587.17,-437.71 1591,-441.54 1591,-445.37 1591,-445.37 1591,-453.04 1591,-453.04 1591,-456.87 1587.17,-460.71 1583.33,-460.71"/>
<text text-anchor="middle" x="1564" y="-445.51" font-family="Arial" font-size="14.00" fill="#000000">src</text>
</g>
<!-- src/create&#45;alfa&#45;package.ts -->
<g id="node31" class="node">
<title>src/create&#45;alfa&#45;package.ts</title>
<path fill="none" stroke="#000000" d="M2306.33,-106.71C2306.33,-106.71 2171.67,-106.71 2171.67,-106.71 2167.83,-106.71 2164,-102.87 2164,-99.04 2164,-99.04 2164,-91.37 2164,-91.37 2164,-87.54 2167.83,-83.71 2171.67,-83.71 2171.67,-83.71 2306.33,-83.71 2306.33,-83.71 2310.17,-83.71 2314,-87.54 2314,-91.37 2314,-91.37 2314,-99.04 2314,-99.04 2314,-102.87 2310.17,-106.71 2306.33,-106.71"/>
<text text-anchor="middle" x="2239" y="-91.51" font-family="Arial" font-size="14.00" fill="#000000">create&#45;alfa&#45;package.ts</text>
</g>
<!-- src/create&#45;alfa&#45;package.ts&#45;&gt;exit_src -->
<!-- src/index.ts -->
<g id="node32" class="node">
<title>src/index.ts</title>
<path fill="none" stroke="#00ffff" stroke-width="5" d="M571.83,-460.71C571.83,-460.71 524.17,-460.71 524.17,-460.71 520.33,-460.71 516.5,-456.87 516.5,-453.04 516.5,-453.04 516.5,-445.37 516.5,-445.37 516.5,-441.54 520.33,-437.71 524.17,-437.71 524.17,-437.71 571.83,-437.71 571.83,-437.71 575.67,-437.71 579.5,-441.54 579.5,-445.37 579.5,-445.37 579.5,-453.04 579.5,-453.04 579.5,-456.87 575.67,-460.71 571.83,-460.71"/>
<text text-anchor="middle" x="548" y="-445.51" font-family="Arial" font-size="14.00" fill="#000000">index.ts</text>
</g>
<!-- src/index.ts&#45;&gt;name_src/changeset -->
<g id="edge103" class="edge">
<title>src/index.ts&#45;&gt;name_src/changeset</title>
<path fill="none" stroke="#00ffff" d="M538.2,-437.55C516.33,-401.38 474.17,-282.96 465.16,-234.83"/>
<polygon fill="#00ffff" stroke="#00ffff" points="470.29,-241.7 464.68,-232.71 463.46,-243.23 470.29,-241.7"/>
</g>
<!-- src/index.ts&#45;&gt;name_src/changeset -->
<!-- src/index.ts&#45;&gt;name_src/changeset -->
<!-- src/index.ts&#45;&gt;name_src/coverage -->
<g id="edge106" class="edge">
<title>src/index.ts&#45;&gt;name_src/coverage</title>
<path fill="none" stroke="#00ffff" d="M545.65,-437.52C544.57,-409.14 552.19,-331.48 559.3,-294"/>
<polygon fill="#00ffff" stroke="#00ffff" points="559.01,-302.2 560.49,-291.71 552.79,-298.99 559.01,-302.2"/>
</g>
<!-- src/index.ts&#45;&gt;name_src/coverage -->
<!-- src/index.ts&#45;&gt;name_src/dependency&#45;graph -->
<g id="edge108" class="edge">
<title>src/index.ts&#45;&gt;name_src/dependency&#45;graph</title>
<path fill="none" stroke="#00ffff" d="M579.58,-448.14C755.04,-447.63 1612.09,-443.47 1899.04,-409.64"/>
<polygon fill="#00ffff" stroke="#00ffff" points="1899.5,-413.11 1909,-408.43 1898.65,-406.16 1899.5,-413.11"/>
</g>
<!-- src/index.ts&#45;&gt;name_src/validation -->
<g id="edge109" class="edge">
<title>src/index.ts&#45;&gt;name_src/validation</title>
<path fill="none" stroke="#00ffff" d="M579.63,-446.93C665.68,-443.22 903.55,-431.52 993.08,-412.06"/>
<polygon fill="#00ffff" stroke="#00ffff" points="994.08,-415.42 1003,-409.71 992.46,-408.61 994.08,-415.42"/>
</g>
<!-- src/index.ts&#45;&gt;exit_src -->
<!-- name_src/typedoc -->
<g id="node33" class="node">
<title>name_src/typedoc</title>
<path fill="none" stroke="#0000ff" stroke-width="5" d="M2497.33,-165.71C2497.33,-165.71 2448.67,-165.71 2448.67,-165.71 2444.83,-165.71 2441,-161.87 2441,-158.04 2441,-158.04 2441,-150.37 2441,-150.37 2441,-146.54 2444.83,-142.71 2448.67,-142.71 2448.67,-142.71 2497.33,-142.71 2497.33,-142.71 2501.17,-142.71 2505,-146.54 2505,-150.37 2505,-150.37 2505,-158.04 2505,-158.04 2505,-161.87 2501.17,-165.71 2497.33,-165.71"/>
<text text-anchor="middle" x="2473" y="-150.51" font-family="Arial" font-size="14.00" fill="#000000">typedoc</text>
</g>
<!-- exit_src/typedoc -->
<!-- exit_src/typedoc&#45;&gt;exit_src -->
<!-- src/typedoc/categorize.ts -->
<g id="node35" class="node">
<title>src/typedoc/categorize.ts</title>
<path fill="none" stroke="#000000" d="M2414.83,-165.71C2414.83,-165.71 2337.17,-165.71 2337.17,-165.71 2333.33,-165.71 2329.5,-161.87 2329.5,-158.04 2329.5,-158.04 2329.5,-150.37 2329.5,-150.37 2329.5,-146.54 2333.33,-142.71 2337.17,-142.71 2337.17,-142.71 2414.83,-142.71 2414.83,-142.71 2418.67,-142.71 2422.5,-146.54 2422.5,-150.37 2422.5,-150.37 2422.5,-158.04 2422.5,-158.04 2422.5,-161.87 2418.67,-165.71 2414.83,-165.71"/>
<text text-anchor="middle" x="2376" y="-150.51" font-family="Arial" font-size="14.00" fill="#000000">categorize.ts</text>
</g>
<!-- src/typedoc/categorize.ts&#45;&gt;exit_src/typedoc -->
<!-- exit_src/changeset&#45;&gt;exit_src -->
<!-- exit_src/changeset&#45;&gt;exit_src -->
<!-- exit_src/changeset&#45;&gt;exit_src -->
<!-- exit_src/changeset&#45;&gt;exit_src -->
<!-- exit_src/changeset&#45;&gt;exit_src -->
</g>
</svg>
