<?xml version="1.0" encoding="UTF-8" standalone="no"?>
<!DOCTYPE svg PUBLIC "-//W3C//DTD SVG 1.1//EN"
 "http://www.w3.org/Graphics/SVG/1.1/DTD/svg11.dtd">
<!-- Generated by graphviz version 2.43.0 (0)
 -->
<!-- Title: dependency&#45;graph&#45;@siteimprove/alfa&#45;toolchain Pages: 1 -->
<svg width="2263pt" height="409pt"
 viewBox="0.00 0.00 2263.20 409.20" xmlns="http://www.w3.org/2000/svg" xmlns:xlink="http://www.w3.org/1999/xlink">
<g id="graph0" class="graph" transform="scale(1 1) rotate(0) translate(21.6 387.6)">
<title>dependency&#45;graph&#45;@siteimprove/alfa&#45;toolchain</title>
<polygon fill="#ffffff" stroke="transparent" points="-21.6,21.6 -21.6,-387.6 2241.6,-387.6 2241.6,21.6 -21.6,21.6"/>
<g id="clust1" class="cluster">
<title>cluster_src</title>
<polygon fill="#ffffff" stroke="#000000" points="8,-8 8,-358 2212,-358 2212,-8 8,-8"/>
</g>
<g id="clust2" class="cluster">
<title>cluster_src</title>
<polygon fill="#ffffff" stroke="#000000" points="16,-16 16,-350 2204,-350 2204,-16 16,-16"/>
</g>
<g id="clust3" class="cluster">
<title>cluster_src/dependency&#45;graph</title>
<polygon fill="#ffffff" stroke="#000000" points="1662,-75 1662,-291 2018,-291 2018,-75 1662,-75"/>
</g>
<g id="clust4" class="cluster">
<title>cluster_src/coverage</title>
<polygon fill="#ffffff" stroke="#000000" points="532,-75 532,-232 874,-232 874,-75 532,-75"/>
</g>
<g id="clust5" class="cluster">
<title>cluster_src/validation</title>
<polygon fill="#ffffff" stroke="#000000" points="882,-75 882,-291 1654,-291 1654,-75 882,-75"/>
</g>
<g id="clust6" class="cluster">
<title>cluster_src/changeset</title>
<polygon fill="#ffffff" stroke="#000000" points="24,-75 24,-232 512,-232 512,-75 24,-75"/>
</g>
<!-- src/dependency&#45;graph/dependency&#45;graph.ts -->
<g id="node1" class="node">
<title>src/dependency&#45;graph/dependency&#45;graph.ts</title>
<path fill="none" stroke="#000000" d="M1883.83,-224C1883.83,-224 1756.17,-224 1756.17,-224 1752.33,-224 1748.5,-220.17 1748.5,-216.33 1748.5,-216.33 1748.5,-208.67 1748.5,-208.67 1748.5,-204.83 1752.33,-201 1756.17,-201 1756.17,-201 1883.83,-201 1883.83,-201 1887.67,-201 1891.5,-204.83 1891.5,-208.67 1891.5,-208.67 1891.5,-216.33 1891.5,-216.33 1891.5,-220.17 1887.67,-224 1883.83,-224"/>
<text text-anchor="middle" x="1820" y="-208.8" font-family="Arial" font-size="14.00" fill="#000000">dependency&#45;graph.ts</text>
</g>
<!-- src/dependency&#45;graph/rainbow.ts -->
<g id="node2" class="node">
<title>src/dependency&#45;graph/rainbow.ts</title>
<path fill="none" stroke="#000000" d="M1792.83,-165C1792.83,-165 1731.17,-165 1731.17,-165 1727.33,-165 1723.5,-161.17 1723.5,-157.33 1723.5,-157.33 1723.5,-149.67 1723.5,-149.67 1723.5,-145.83 1727.33,-142 1731.17,-142 1731.17,-142 1792.83,-142 1792.83,-142 1796.67,-142 1800.5,-145.83 1800.5,-149.67 1800.5,-149.67 1800.5,-157.33 1800.5,-157.33 1800.5,-161.17 1796.67,-165 1792.83,-165"/>
<text text-anchor="middle" x="1762" y="-149.8" font-family="Arial" font-size="14.00" fill="#000000">rainbow.ts</text>
</g>
<!-- src/dependency&#45;graph/dependency&#45;graph.ts&#45;&gt;src/dependency&#45;graph/rainbow.ts -->
<!-- src/dependency&#45;graph/dependency&#45;graph.ts&#45;&gt;src/dependency&#45;graph/rainbow.ts -->
<g id="edge56" class="edge">
<title>src/dependency&#45;graph/dependency&#45;graph.ts&#45;&gt;src/dependency&#45;graph/rainbow.ts</title>
<path fill="none" stroke="black" d="M1814.5,-200.78C1807.66,-192.66 1796.43,-181.33 1786,-171.92"/>
<polygon fill="black" stroke="black" points="1788.1,-169.11 1778.26,-165.17 1783.5,-174.38 1788.1,-169.11"/>
</g>
<!-- exit_src/dependency&#45;graph -->
<!-- src/dependency&#45;graph/dependency&#45;graph.ts&#45;&gt;exit_src/dependency&#45;graph -->
<!-- src/dependency&#45;graph/rainbow.ts&#45;&gt;exit_src/dependency&#45;graph -->
<!-- src/coverage/transform&#45;unit&#45;test&#45;coverage&#45;data.ts -->
<g id="node3" class="node">
<title>src/coverage/transform&#45;unit&#45;test&#45;coverage&#45;data.ts</title>
<path fill="none" stroke="#000000" d="M838.33,-165C838.33,-165 621.67,-165 621.67,-165 617.83,-165 614,-161.17 614,-157.33 614,-157.33 614,-149.67 614,-149.67 614,-145.83 617.83,-142 621.67,-142 621.67,-142 838.33,-142 838.33,-142 842.17,-142 846,-145.83 846,-149.67 846,-149.67 846,-157.33 846,-157.33 846,-161.17 842.17,-165 838.33,-165"/>
<text text-anchor="middle" x="730" y="-149.8" font-family="Arial" font-size="14.00" fill="#000000">transform&#45;unit&#45;test&#45;coverage&#45;data.ts</text>
</g>
<!-- exit_src/coverage -->
<!-- src/coverage/transform&#45;unit&#45;test&#45;coverage&#45;data.ts&#45;&gt;exit_src/coverage -->
<!-- src/changeset/get&#45;changeset&#45;details.ts -->
<g id="node4" class="node">
<title>src/changeset/get&#45;changeset&#45;details.ts</title>
<path fill="none" stroke="#000000" d="M316.33,-165C316.33,-165 171.67,-165 171.67,-165 167.83,-165 164,-161.17 164,-157.33 164,-157.33 164,-149.67 164,-149.67 164,-145.83 167.83,-142 171.67,-142 171.67,-142 316.33,-142 316.33,-142 320.17,-142 324,-145.83 324,-149.67 324,-149.67 324,-157.33 324,-157.33 324,-161.17 320.17,-165 316.33,-165"/>
<text text-anchor="middle" x="244" y="-149.8" font-family="Arial" font-size="14.00" fill="#000000">get&#45;changeset&#45;details.ts</text>
</g>
<!-- exit_src/changeset -->
<!-- src/changeset/get&#45;changeset&#45;details.ts&#45;&gt;exit_src/changeset -->
<!-- exit_src/validation -->
<!-- name_src/changeset -->
<g id="node6" class="node">
<title>name_src/changeset</title>
<path fill="none" stroke="#cc00ff" stroke-width="5" d="M496.83,-224C496.83,-224 433.17,-224 433.17,-224 429.33,-224 425.5,-220.17 425.5,-216.33 425.5,-216.33 425.5,-208.67 425.5,-208.67 425.5,-204.83 429.33,-201 433.17,-201 433.17,-201 496.83,-201 496.83,-201 500.67,-201 504.5,-204.83 504.5,-208.67 504.5,-208.67 504.5,-216.33 504.5,-216.33 504.5,-220.17 500.67,-224 496.83,-224"/>
<text text-anchor="middle" x="465" y="-208.8" font-family="Arial" font-size="14.00" fill="#000000">changeset</text>
</g>
<!-- exit_src/validation&#45;&gt;name_src/changeset -->
<g id="edge59" class="edge">
<title>exit_src/validation&#45;&gt;name_src/changeset</title>
<path fill="none" stroke="#ccff00" d="M882,-105.71C747.81,-119.05 529.88,-140.85 528,-142 520.67,-146.46 520.07,-151.37 517.31,-157.58"/>
<polygon fill="#ccff00" stroke="#ccff00" points="514.26,-155.86 512,-166.21 520.22,-159.53 514.26,-155.86"/>
</g>
<!-- exit_src -->
<!-- exit_src/validation&#45;&gt;exit_src -->
<!-- exit_src/validation&#45;&gt;exit_src -->
<!-- exit_src/validation&#45;&gt;exit_src -->
<!-- exit_src/validation&#45;&gt;exit_src -->
<!-- exit_src/validation&#45;&gt;exit_src -->
<!-- exit_src/validation&#45;&gt;exit_src -->
<!-- src/changeset/helpers.ts -->
<g id="node7" class="node">
<title>src/changeset/helpers.ts</title>
<path fill="none" stroke="#000000" d="M118.83,-165C118.83,-165 59.17,-165 59.17,-165 55.33,-165 51.5,-161.17 51.5,-157.33 51.5,-157.33 51.5,-149.67 51.5,-149.67 51.5,-145.83 55.33,-142 59.17,-142 59.17,-142 118.83,-142 118.83,-142 122.67,-142 126.5,-145.83 126.5,-149.67 126.5,-149.67 126.5,-157.33 126.5,-157.33 126.5,-161.17 122.67,-165 118.83,-165"/>
<text text-anchor="middle" x="89" y="-149.8" font-family="Arial" font-size="14.00" fill="#000000">helpers.ts</text>
</g>
<!-- src/changeset/helpers.ts&#45;&gt;exit_src/changeset -->
<!-- src/validation/has&#45;extractor&#45;config.ts -->
<g id="node8" class="node">
<title>src/validation/has&#45;extractor&#45;config.ts</title>
<path fill="none" stroke="#000000" d="M1052.33,-165C1052.33,-165 917.67,-165 917.67,-165 913.83,-165 910,-161.17 910,-157.33 910,-157.33 910,-149.67 910,-149.67 910,-145.83 913.83,-142 917.67,-142 917.67,-142 1052.33,-142 1052.33,-142 1056.17,-142 1060,-145.83 1060,-149.67 1060,-149.67 1060,-157.33 1060,-157.33 1060,-161.17 1056.17,-165 1052.33,-165"/>
<text text-anchor="middle" x="985" y="-149.8" font-family="Arial" font-size="14.00" fill="#000000">has&#45;extractor&#45;config.ts</text>
</g>
<!-- src/validation/has&#45;extractor&#45;config.ts&#45;&gt;exit_src/validation -->
<!-- src/validation/validate&#45;all.ts -->
<g id="node9" class="node">
<title>src/validation/validate&#45;all.ts</title>
<path fill="none" stroke="#000000" d="M1281.83,-224C1281.83,-224 1202.17,-224 1202.17,-224 1198.33,-224 1194.5,-220.17 1194.5,-216.33 1194.5,-216.33 1194.5,-208.67 1194.5,-208.67 1194.5,-204.83 1198.33,-201 1202.17,-201 1202.17,-201 1281.83,-201 1281.83,-201 1285.67,-201 1289.5,-204.83 1289.5,-208.67 1289.5,-208.67 1289.5,-216.33 1289.5,-216.33 1289.5,-220.17 1285.67,-224 1281.83,-224"/>
<text text-anchor="middle" x="1242" y="-208.8" font-family="Arial" font-size="14.00" fill="#000000">validate&#45;all.ts</text>
</g>
<!-- src/validation/validate&#45;all.ts&#45;&gt;exit_src/validation -->
<!-- src/validation/validate&#45;all.ts&#45;&gt;src/validation/has&#45;extractor&#45;config.ts -->
<!-- src/validation/validate&#45;all.ts&#45;&gt;src/validation/has&#45;extractor&#45;config.ts -->
<g id="edge83" class="edge">
<title>src/validation/validate&#45;all.ts&#45;&gt;src/validation/has&#45;extractor&#45;config.ts</title>
<path fill="none" stroke="black" d="M1199.94,-200.98C1158.59,-191.43 1095.12,-177.33 1047.81,-167.16"/>
<polygon fill="black" stroke="black" points="1048.49,-163.73 1037.98,-165.06 1047.02,-170.57 1048.49,-163.73"/>
</g>
<!-- src/validation/validate&#45;changesets.ts -->
<g id="node10" class="node">
<title>src/validation/validate&#45;changesets.ts</title>
<path fill="none" stroke="#000000" d="M1221.83,-165C1221.83,-165 1086.17,-165 1086.17,-165 1082.33,-165 1078.5,-161.17 1078.5,-157.33 1078.5,-157.33 1078.5,-149.67 1078.5,-149.67 1078.5,-145.83 1082.33,-142 1086.17,-142 1086.17,-142 1221.83,-142 1221.83,-142 1225.67,-142 1229.5,-145.83 1229.5,-149.67 1229.5,-149.67 1229.5,-157.33 1229.5,-157.33 1229.5,-161.17 1225.67,-165 1221.83,-165"/>
<text text-anchor="middle" x="1154" y="-149.8" font-family="Arial" font-size="14.00" fill="#000000">validate&#45;changesets.ts</text>
</g>
<!-- src/validation/validate&#45;all.ts&#45;&gt;src/validation/validate&#45;changesets.ts -->
<!-- src/validation/validate&#45;all.ts&#45;&gt;src/validation/validate&#45;changesets.ts -->
<g id="edge85" class="edge">
<title>src/validation/validate&#45;all.ts&#45;&gt;src/validation/validate&#45;changesets.ts</title>
<path fill="none" stroke="black" d="M1230.86,-200.78C1219.2,-192.26 1200.85,-180.21 1184.91,-170.55"/>
<polygon fill="black" stroke="black" points="1186.26,-167.28 1175.88,-165.17 1182.69,-173.29 1186.26,-167.28"/>
</g>
<!-- src/validation/validate&#45;package&#45;json.ts -->
<g id="node11" class="node">
<title>src/validation/validate&#45;package&#45;json.ts</title>
<path fill="none" stroke="#000000" d="M1422.33,-165C1422.33,-165 1275.67,-165 1275.67,-165 1271.83,-165 1268,-161.17 1268,-157.33 1268,-157.33 1268,-149.67 1268,-149.67 1268,-145.83 1271.83,-142 1275.67,-142 1275.67,-142 1422.33,-142 1422.33,-142 1426.17,-142 1430,-145.83 1430,-149.67 1430,-149.67 1430,-157.33 1430,-157.33 1430,-161.17 1426.17,-165 1422.33,-165"/>
<text text-anchor="middle" x="1349" y="-149.8" font-family="Arial" font-size="14.00" fill="#000000">validate&#45;package&#45;json.ts</text>
</g>
<!-- src/validation/validate&#45;all.ts&#45;&gt;src/validation/validate&#45;package&#45;json.ts -->
<!-- src/validation/validate&#45;all.ts&#45;&gt;src/validation/validate&#45;package&#45;json.ts -->
<g id="edge87" class="edge">
<title>src/validation/validate&#45;all.ts&#45;&gt;src/validation/validate&#45;package&#45;json.ts</title>
<path fill="none" stroke="black" d="M1267.26,-200.91C1285.01,-192.27 1308.4,-179.94 1325.7,-170.16"/>
<polygon fill="black" stroke="black" points="1327.69,-173.05 1334.61,-165.03 1324.2,-166.99 1327.69,-173.05"/>
</g>
<!-- src/validation/validate&#45;workspace&#45;tsconfig.ts -->
<g id="node12" class="node">
<title>src/validation/validate&#45;workspace&#45;tsconfig.ts</title>
<path fill="none" stroke="#000000" d="M1637.83,-165C1637.83,-165 1456.17,-165 1456.17,-165 1452.33,-165 1448.5,-161.17 1448.5,-157.33 1448.5,-157.33 1448.5,-149.67 1448.5,-149.67 1448.5,-145.83 1452.33,-142 1456.17,-142 1456.17,-142 1637.83,-142 1637.83,-142 1641.67,-142 1645.5,-145.83 1645.5,-149.67 1645.5,-149.67 1645.5,-157.33 1645.5,-157.33 1645.5,-161.17 1641.67,-165 1637.83,-165"/>
<text text-anchor="middle" x="1547" y="-149.8" font-family="Arial" font-size="14.00" fill="#000000">validate&#45;workspace&#45;tsconfig.ts</text>
</g>
<!-- src/validation/validate&#45;all.ts&#45;&gt;src/validation/validate&#45;workspace&#45;tsconfig.ts -->
<!-- src/validation/validate&#45;all.ts&#45;&gt;src/validation/validate&#45;workspace&#45;tsconfig.ts -->
<g id="edge89" class="edge">
<title>src/validation/validate&#45;all.ts&#45;&gt;src/validation/validate&#45;workspace&#45;tsconfig.ts</title>
<path fill="none" stroke="black" d="M1289.59,-203.51C1342.52,-194.03 1428,-178.11 1485.84,-166.99"/>
<polygon fill="black" stroke="black" points="1486.79,-170.38 1495.94,-165.05 1485.46,-163.5 1486.79,-170.38"/>
</g>
<!-- src/validation/validate&#45;changesets.ts&#45;&gt;exit_src/validation -->
<!-- src/validation/validate&#45;package&#45;json.ts&#45;&gt;exit_src/validation -->
<!-- src/validation/validate&#45;workspace&#45;tsconfig.ts&#45;&gt;exit_src/validation -->
<!-- src/changeset/build&#45;changelog.ts -->
<g id="node13" class="node">
<title>src/changeset/build&#45;changelog.ts</title>
<path fill="none" stroke="#000000" d="M302.33,-224C302.33,-224 191.67,-224 191.67,-224 187.83,-224 184,-220.17 184,-216.33 184,-216.33 184,-208.67 184,-208.67 184,-204.83 187.83,-201 191.67,-201 191.67,-201 302.33,-201 302.33,-201 306.17,-201 310,-204.83 310,-208.67 310,-208.67 310,-216.33 310,-216.33 310,-220.17 306.17,-224 302.33,-224"/>
<text text-anchor="middle" x="247" y="-208.8" font-family="Arial" font-size="14.00" fill="#000000">build&#45;changelog.ts</text>
</g>
<!-- src/changeset/build&#45;changelog.ts&#45;&gt;src/changeset/get&#45;changeset&#45;details.ts -->
<!-- src/changeset/build&#45;changelog.ts&#45;&gt;src/changeset/get&#45;changeset&#45;details.ts -->
<g id="edge61" class="edge">
<title>src/changeset/build&#45;changelog.ts&#45;&gt;src/changeset/get&#45;changeset&#45;details.ts</title>
<path fill="none" stroke="black" d="M251.85,-200.78C252.73,-193.61 252.59,-183.95 251.62,-175.31"/>
<polygon fill="black" stroke="black" points="255.03,-174.48 249.96,-165.17 248.12,-175.61 255.03,-174.48"/>
</g>
<!-- src/changeset/build&#45;changelog.ts&#45;&gt;src/changeset/helpers.ts -->
<!-- src/changeset/build&#45;changelog.ts&#45;&gt;src/changeset/helpers.ts -->
<g id="edge63" class="edge">
<title>src/changeset/build&#45;changelog.ts&#45;&gt;src/changeset/helpers.ts</title>
<path fill="none" stroke="black" d="M223.04,-200.91C199.18,-191.71 162.24,-178.33 133.12,-168.29"/>
<polygon fill="black" stroke="black" points="134.16,-164.95 123.57,-165.03 131.9,-171.58 134.16,-164.95"/>
</g>
<!-- src/changeset/build&#45;changelog.ts&#45;&gt;exit_src/changeset -->
<!-- src/changeset/changelog&#45;global.ts -->
<g id="node14" class="node">
<title>src/changeset/changelog&#45;global.ts</title>
<path fill="none" stroke="#000000" d="M158.33,-224C158.33,-224 39.67,-224 39.67,-224 35.83,-224 32,-220.17 32,-216.33 32,-216.33 32,-208.67 32,-208.67 32,-204.83 35.83,-201 39.67,-201 39.67,-201 158.33,-201 158.33,-201 162.17,-201 166,-204.83 166,-208.67 166,-208.67 166,-216.33 166,-216.33 166,-220.17 162.17,-224 158.33,-224"/>
<text text-anchor="middle" x="99" y="-208.8" font-family="Arial" font-size="14.00" fill="#000000">changelog&#45;global.ts</text>
</g>
<!-- src/changeset/changelog&#45;global.ts&#45;&gt;src/changeset/helpers.ts -->
<!-- src/changeset/changelog&#45;global.ts&#45;&gt;src/changeset/helpers.ts -->
<g id="edge75" class="edge">
<title>src/changeset/changelog&#45;global.ts&#45;&gt;src/changeset/helpers.ts</title>
<path fill="none" stroke="black" d="M102.53,-200.78C102.53,-193.53 101.18,-183.74 99.11,-175.02"/>
<polygon fill="black" stroke="black" points="102.4,-173.82 96.28,-165.17 95.68,-175.75 102.4,-173.82"/>
</g>
<!-- src/changeset/changelog&#45;global.ts&#45;&gt;exit_src/changeset -->
<!-- src/changeset/changelog&#45;individual.cts -->
<g id="node15" class="node">
<title>src/changeset/changelog&#45;individual.cts</title>
<path fill="none" stroke="#000000" d="M495.83,-165C495.83,-165 350.17,-165 350.17,-165 346.33,-165 342.5,-161.17 342.5,-157.33 342.5,-157.33 342.5,-149.67 342.5,-149.67 342.5,-145.83 346.33,-142 350.17,-142 350.17,-142 495.83,-142 495.83,-142 499.67,-142 503.5,-145.83 503.5,-149.67 503.5,-149.67 503.5,-157.33 503.5,-157.33 503.5,-161.17 499.67,-165 495.83,-165"/>
<text text-anchor="middle" x="423" y="-149.8" font-family="Arial" font-size="14.00" fill="#000000">changelog&#45;individual.cts</text>
</g>
<!-- src/changeset/changelog&#45;individual.cts&#45;&gt;exit_src/changeset -->
<!-- src/coverage/generate&#45;unit&#45;test&#45;coverage&#45;report.ts -->
<g id="node16" class="node">
<title>src/coverage/generate&#45;unit&#45;test&#45;coverage&#45;report.ts</title>
<path fill="none" stroke="#000000" d="M858.33,-224C858.33,-224 637.67,-224 637.67,-224 633.83,-224 630,-220.17 630,-216.33 630,-216.33 630,-208.67 630,-208.67 630,-204.83 633.83,-201 637.67,-201 637.67,-201 858.33,-201 858.33,-201 862.17,-201 866,-204.83 866,-208.67 866,-208.67 866,-216.33 866,-216.33 866,-220.17 862.17,-224 858.33,-224"/>
<text text-anchor="middle" x="748" y="-208.8" font-family="Arial" font-size="14.00" fill="#000000">generate&#45;unit&#45;test&#45;coverage&#45;report.ts</text>
</g>
<!-- src/coverage/generate&#45;unit&#45;test&#45;coverage&#45;report.ts&#45;&gt;src/coverage/transform&#45;unit&#45;test&#45;coverage&#45;data.ts -->
<!-- src/coverage/generate&#45;unit&#45;test&#45;coverage&#45;report.ts&#45;&gt;src/coverage/transform&#45;unit&#45;test&#45;coverage&#45;data.ts -->
<g id="edge58" class="edge">
<title>src/coverage/generate&#45;unit&#45;test&#45;coverage&#45;report.ts&#45;&gt;src/coverage/transform&#45;unit&#45;test&#45;coverage&#45;data.ts</title>
<path fill="none" stroke="black" d="M750.03,-200.78C748.99,-193.37 746.16,-183.3 742.77,-174.45"/>
<polygon fill="black" stroke="black" points="745.95,-172.97 738.77,-165.17 739.52,-175.74 745.95,-172.97"/>
</g>
<!-- src/coverage/generate&#45;unit&#45;test&#45;coverage&#45;report.ts&#45;&gt;exit_src/coverage -->
<!-- name_src/coverage -->
<g id="node17" class="node">
<title>name_src/coverage</title>
<path fill="none" stroke="#ff0000" stroke-width="5" d="M604.33,-224C604.33,-224 547.67,-224 547.67,-224 543.83,-224 540,-220.17 540,-216.33 540,-216.33 540,-208.67 540,-208.67 540,-204.83 543.83,-201 547.67,-201 547.67,-201 604.33,-201 604.33,-201 608.17,-201 612,-204.83 612,-208.67 612,-208.67 612,-216.33 612,-216.33 612,-220.17 608.17,-224 604.33,-224"/>
<text text-anchor="middle" x="576" y="-208.8" font-family="Arial" font-size="14.00" fill="#000000">coverage</text>
</g>
<!-- src/dependency&#45;graph/generate&#45;packages&#45;graphs.ts -->
<g id="node18" class="node">
<title>src/dependency&#45;graph/generate&#45;packages&#45;graphs.ts</title>
<path fill="none" stroke="#000000" d="M2002.33,-283C2002.33,-283 1825.67,-283 1825.67,-283 1821.83,-283 1818,-279.17 1818,-275.33 1818,-275.33 1818,-267.67 1818,-267.67 1818,-263.83 1821.83,-260 1825.67,-260 1825.67,-260 2002.33,-260 2002.33,-260 2006.17,-260 2010,-263.83 2010,-267.67 2010,-267.67 2010,-275.33 2010,-275.33 2010,-279.17 2006.17,-283 2002.33,-283"/>
<text text-anchor="middle" x="1914" y="-267.8" font-family="Arial" font-size="14.00" fill="#000000">generate&#45;packages&#45;graphs.ts</text>
</g>
<!-- src/dependency&#45;graph/generate&#45;packages&#45;graphs.ts&#45;&gt;src/dependency&#45;graph/dependency&#45;graph.ts -->
<!-- src/dependency&#45;graph/generate&#45;packages&#45;graphs.ts&#45;&gt;src/dependency&#45;graph/dependency&#45;graph.ts -->
<g id="edge54" class="edge">
<title>src/dependency&#45;graph/generate&#45;packages&#45;graphs.ts&#45;&gt;src/dependency&#45;graph/dependency&#45;graph.ts</title>
<path fill="none" stroke="black" d="M1901.73,-259.78C1889.06,-251.18 1869.18,-238.99 1852.13,-229.28"/>
<polygon fill="black" stroke="black" points="1853.44,-226 1843,-224.17 1850.02,-232.11 1853.44,-226"/>
</g>
<!-- src/dependency&#45;graph/generate&#45;packages&#45;graphs.ts&#45;&gt;exit_src/dependency&#45;graph -->
<!-- name_src/dependency&#45;graph -->
<g id="node19" class="node">
<title>name_src/dependency&#45;graph</title>
<path fill="none" stroke="#00ff66" stroke-width="5" d="M1791.83,-283C1791.83,-283 1678.17,-283 1678.17,-283 1674.33,-283 1670.5,-279.17 1670.5,-275.33 1670.5,-275.33 1670.5,-267.67 1670.5,-267.67 1670.5,-263.83 1674.33,-260 1678.17,-260 1678.17,-260 1791.83,-260 1791.83,-260 1795.67,-260 1799.5,-263.83 1799.5,-267.67 1799.5,-267.67 1799.5,-275.33 1799.5,-275.33 1799.5,-279.17 1795.67,-283 1791.83,-283"/>
<text text-anchor="middle" x="1735" y="-267.8" font-family="Arial" font-size="14.00" fill="#000000">dependency&#45;graph</text>
</g>
<!-- src/validation/index.ts -->
<g id="node20" class="node">
<title>src/validation/index.ts</title>
<path fill="none" stroke="#ccff00" stroke-width="5" d="M1265.83,-283C1265.83,-283 1218.17,-283 1218.17,-283 1214.33,-283 1210.5,-279.17 1210.5,-275.33 1210.5,-275.33 1210.5,-267.67 1210.5,-267.67 1210.5,-263.83 1214.33,-260 1218.17,-260 1218.17,-260 1265.83,-260 1265.83,-260 1269.67,-260 1273.5,-263.83 1273.5,-267.67 1273.5,-267.67 1273.5,-275.33 1273.5,-275.33 1273.5,-279.17 1269.67,-283 1265.83,-283"/>
<text text-anchor="middle" x="1242" y="-267.8" font-family="Arial" font-size="14.00" fill="#000000">index.ts</text>
</g>
<!-- src/validation/index.ts&#45;&gt;exit_src/validation -->
<!-- src/validation/index.ts&#45;&gt;src/validation/has&#45;extractor&#45;config.ts -->
<!-- src/validation/index.ts&#45;&gt;src/validation/has&#45;extractor&#45;config.ts -->
<g id="edge65" class="edge">
<title>src/validation/index.ts&#45;&gt;src/validation/has&#45;extractor&#45;config.ts</title>
<path fill="none" stroke="black" d="M1222.4,-259.79C1179.42,-238.9 1077.13,-192.64 1021.81,-169.01"/>
<polygon fill="black" stroke="black" points="1022.94,-165.69 1012.37,-165.01 1020.21,-172.14 1022.94,-165.69"/>
</g>
<!-- src/validation/index.ts&#45;&gt;src/validation/validate&#45;all.ts -->
<!-- src/validation/index.ts&#45;&gt;src/validation/validate&#45;all.ts -->
<g id="edge67" class="edge">
<title>src/validation/index.ts&#45;&gt;src/validation/validate&#45;all.ts</title>
<path fill="none" stroke="black" d="M1247.41,-259.78C1248.67,-252.61 1249.04,-242.95 1248.53,-234.31"/>
<polygon fill="black" stroke="black" points="1251.98,-233.73 1247.4,-224.17 1245.03,-234.5 1251.98,-233.73"/>
</g>
<!-- src/validation/index.ts&#45;&gt;src/validation/validate&#45;changesets.ts -->
<!-- src/validation/index.ts&#45;&gt;src/validation/validate&#45;changesets.ts -->
<g id="edge69" class="edge">
<title>src/validation/index.ts&#45;&gt;src/validation/validate&#45;changesets.ts</title>
<path fill="none" stroke="black" d="M1228.5,-259.74C1218.06,-253.07 1204.35,-243.56 1195,-232 1181.2,-214.94 1172.56,-191.11 1165.95,-174.39"/>
<polygon fill="black" stroke="black" points="1169.13,-172.92 1162.07,-165.02 1162.66,-175.6 1169.13,-172.92"/>
</g>
<!-- src/validation/index.ts&#45;&gt;src/validation/validate&#45;package&#45;json.ts -->
<!-- src/validation/index.ts&#45;&gt;src/validation/validate&#45;package&#45;json.ts -->
<g id="edge71" class="edge">
<title>src/validation/index.ts&#45;&gt;src/validation/validate&#45;package&#45;json.ts</title>
<path fill="none" stroke="black" d="M1269.46,-259.92C1282.39,-253 1297.06,-243.18 1308,-232 1324.63,-215.01 1338.79,-191.66 1345.99,-175.04"/>
<polygon fill="black" stroke="black" points="1349.44,-175.82 1349.68,-165.23 1342.89,-173.36 1349.44,-175.82"/>
</g>
<!-- src/validation/index.ts&#45;&gt;src/validation/validate&#45;workspace&#45;tsconfig.ts -->
<!-- src/validation/index.ts&#45;&gt;src/validation/validate&#45;workspace&#45;tsconfig.ts -->
<g id="edge73" class="edge">
<title>src/validation/index.ts&#45;&gt;src/validation/validate&#45;workspace&#45;tsconfig.ts</title>
<path fill="none" stroke="black" d="M1273.68,-260C1331.8,-239.18 1454.42,-192.61 1513.7,-168.93"/>
<polygon fill="black" stroke="black" points="1515.36,-172.04 1523.33,-165.06 1512.74,-165.54 1515.36,-172.04"/>
</g>
<!-- name_src/validation -->
<g id="node21" class="node">
<title>name_src/validation</title>
<path fill="none" stroke="#ccff00" stroke-width="5" d="M956.33,-283C956.33,-283 897.67,-283 897.67,-283 893.83,-283 890,-279.17 890,-275.33 890,-275.33 890,-267.67 890,-267.67 890,-263.83 893.83,-260 897.67,-260 897.67,-260 956.33,-260 956.33,-260 960.17,-260 964,-263.83 964,-267.67 964,-267.67 964,-275.33 964,-275.33 964,-279.17 960.17,-283 956.33,-283"/>
<text text-anchor="middle" x="927" y="-267.8" font-family="Arial" font-size="14.00" fill="#000000">validation</text>
</g>
<!-- exit_src&#45;&gt;exit_src -->
<!-- exit_src&#45;&gt;exit_src -->
<!-- exit_src&#45;&gt;exit_src -->
<!-- exit_src&#45;&gt;exit_src -->
<!-- exit_src&#45;&gt;exit_src -->
<!-- exit_src&#45;&gt;exit_src -->
<!-- exit_src&#45;&gt;exit_src -->
<!-- exit_src&#45;&gt;exit_src -->
<!-- exit_src&#45;&gt;exit_src -->
<!-- exit_src&#45;&gt;exit_src -->
<!-- exit_src&#45;&gt;exit_src -->
<!-- exit_src&#45;&gt;exit_src -->
<!-- exit_src&#45;&gt;exit_src -->
<!-- exit_src&#45;&gt;exit_src -->
<!-- exit_src&#45;&gt;exit_src -->
<!-- exit_src&#45;&gt;exit_src -->
<!-- exit_src&#45;&gt;exit_src -->
<!-- exit_src&#45;&gt;exit_src -->
<!-- name_src -->
<g id="node23" class="node">
<title>name_src</title>
<path fill="none" stroke="#0066ff" stroke-width="5" d="M1420.33,-342C1420.33,-342 1381.67,-342 1381.67,-342 1377.83,-342 1374,-338.17 1374,-334.33 1374,-334.33 1374,-326.67 1374,-326.67 1374,-322.83 1377.83,-319 1381.67,-319 1381.67,-319 1420.33,-319 1420.33,-319 1424.17,-319 1428,-322.83 1428,-326.67 1428,-326.67 1428,-334.33 1428,-334.33 1428,-338.17 1424.17,-342 1420.33,-342"/>
<text text-anchor="middle" x="1401" y="-326.8" font-family="Arial" font-size="14.00" fill="#000000">src</text>
</g>
<!-- src/create&#45;alfa&#45;package.ts -->
<g id="node24" class="node">
<title>src/create&#45;alfa&#45;package.ts</title>
<path fill="none" stroke="#000000" d="M2188.33,-106C2188.33,-106 2053.67,-106 2053.67,-106 2049.83,-106 2046,-102.17 2046,-98.33 2046,-98.33 2046,-90.67 2046,-90.67 2046,-86.83 2049.83,-83 2053.67,-83 2053.67,-83 2188.33,-83 2188.33,-83 2192.17,-83 2196,-86.83 2196,-90.67 2196,-90.67 2196,-98.33 2196,-98.33 2196,-102.17 2192.17,-106 2188.33,-106"/>
<text text-anchor="middle" x="2121" y="-90.8" font-family="Arial" font-size="14.00" fill="#000000">create&#45;alfa&#45;package.ts</text>
</g>
<!-- src/create&#45;alfa&#45;package.ts&#45;&gt;exit_src -->
<!-- src/index.ts -->
<g id="node25" class="node">
<title>src/index.ts</title>
<path fill="none" stroke="#0066ff" stroke-width="5" d="M579.83,-342C579.83,-342 532.17,-342 532.17,-342 528.33,-342 524.5,-338.17 524.5,-334.33 524.5,-334.33 524.5,-326.67 524.5,-326.67 524.5,-322.83 528.33,-319 532.17,-319 532.17,-319 579.83,-319 579.83,-319 583.67,-319 587.5,-322.83 587.5,-326.67 587.5,-326.67 587.5,-334.33 587.5,-334.33 587.5,-338.17 583.67,-342 579.83,-342"/>
<text text-anchor="middle" x="556" y="-326.8" font-family="Arial" font-size="14.00" fill="#000000">index.ts</text>
</g>
<!-- src/index.ts&#45;&gt;name_src/changeset -->
<g id="edge76" class="edge">
<title>src/index.ts&#45;&gt;name_src/changeset</title>
<path fill="none" stroke="#0066ff" d="M539.38,-318.79C517.86,-299.29 484.5,-257.69 469.91,-233.02"/>
<polygon fill="#0066ff" stroke="#0066ff" points="477.91,-237.98 469.16,-232 472.27,-242.13 477.91,-237.98"/>
</g>
<!-- src/index.ts&#45;&gt;name_src/changeset -->
<!-- src/index.ts&#45;&gt;name_src/changeset -->
<!-- src/index.ts&#45;&gt;name_src/coverage -->
<g id="edge79" class="edge">
<title>src/index.ts&#45;&gt;name_src/coverage</title>
<path fill="none" stroke="#0066ff" d="M557.85,-318.79C561.15,-299.63 568.13,-259.15 572.41,-234.34"/>
<polygon fill="#0066ff" stroke="#0066ff" points="573.43,-242.59 573.16,-232 566.77,-240.45 573.43,-242.59"/>
</g>
<!-- src/index.ts&#45;&gt;name_src/dependency&#45;graph -->
<g id="edge80" class="edge">
<title>src/index.ts&#45;&gt;name_src/dependency&#45;graph</title>
<path fill="none" stroke="#0066ff" d="M587.71,-329.25C742.76,-327.91 1422.73,-320.49 1652.08,-291.72"/>
<polygon fill="#0066ff" stroke="#0066ff" points="1652.54,-295.19 1662,-290.42 1651.63,-288.25 1652.54,-295.19"/>
</g>
<!-- src/index.ts&#45;&gt;name_src/validation -->
<g id="edge81" class="edge">
<title>src/index.ts&#45;&gt;name_src/validation</title>
<path fill="none" stroke="#0066ff" d="M587.55,-329.02C645.21,-327.47 771.33,-320.95 876.24,-293.62"/>
<polygon fill="#0066ff" stroke="#0066ff" points="877.25,-296.97 886,-291 875.43,-290.21 877.25,-296.97"/>
</g>
<!-- src/index.ts&#45;&gt;exit_src -->
<!-- exit_src/dependency&#45;graph&#45;&gt;exit_src -->
<!-- exit_src/dependency&#45;graph&#45;&gt;exit_src -->
<!-- exit_src/dependency&#45;graph&#45;&gt;exit_src -->
<!-- exit_src/coverage&#45;&gt;exit_src -->
<!-- exit_src/coverage&#45;&gt;exit_src -->
<!-- exit_src/changeset&#45;&gt;exit_src -->
<!-- exit_src/changeset&#45;&gt;exit_src -->
<!-- exit_src/changeset&#45;&gt;exit_src -->
<!-- exit_src/changeset&#45;&gt;exit_src -->
<!-- exit_src/changeset&#45;&gt;exit_src -->
</g>
</svg>
