<svg xmlns="http://www.w3.org/2000/svg" width="473" height="196"><g fill="#3c485e"><path d="M11.3 192.4h37.3l15-36.2 3.6-8.7c-9-7.1-17.6-15-26.5-22.5l-29.4 67.4z"/><path d="M117 22.6H84.8L50 103.1c10.1 4.3 20.2 8.6 30.4 11.9L101 64.5l20.5 50.5C78.2 146 42.2 86.8.9 108.3 49.4 94 66 165.9 114.1 149.6c0 0 8.4-3.1 17.6-9.7l6.8 16.3 14.7 36.2h37.3L117 22.6zM231.2 153.2c0 7.1 5.7 12 14 12 3.9 0 10.1-1.5 15.2-3.4l5.7 27.3c-6.9 3.2-14 6.6-26.5 6.6-24.6 0-40.8-16.2-40.8-40.5V2.8h32.4v150.4zm124.3-83.8v26.5h-37.1V192H286V95.9h-18.7V69.4H286V46.8C286 18.1 305.7.4 334.4.4c7.9 0 15 1.5 21.9 4.7l-7.4 26.3c-4.4-1.5-8.8-2.2-12.3-2.2-10.6 0-18.2 6.1-18.2 17.7v22.6h37.1v-.1zM473 111.9V192h-31v-10.1c-8.4 8.1-20.6 13.8-37.3 13.8-28 0-46.7-16-46.7-40 0-23.6 17.7-39.3 48.6-39.3H442v-2c0-12.3-8.4-20.6-20.9-20.6-14.7 0-23.1 5.7-25.5 17.9l-31-6.1c4.7-23.8 26.5-39.8 54.5-39.8 32.5-.1 53.9 16.4 53.9 46.1zm-31 30.4v-1.5h-35.9c-10.3 0-17.2 5.7-17.2 14 0 9.1 8.4 15 20.9 15 17.3.1 32.2-11.7 32.2-27.5z"/></g></svg>