<?xml version="1.0" encoding="UTF-8" standalone="no"?>
<!DOCTYPE svg PUBLIC "-//W3C//DTD SVG 1.1//EN"
 "http://www.w3.org/Graphics/SVG/1.1/DTD/svg11.dtd">
<!-- Generated by graphviz version 2.43.0 (0)
 -->
<!-- Title: dependency&#45;graph&#45;[object Object] Pages: 1 -->
<svg width="264pt" height="326pt"
 viewBox="0.00 0.00 264.20 326.20" xmlns="http://www.w3.org/2000/svg" xmlns:xlink="http://www.w3.org/1999/xlink">
<g id="graph0" class="graph" transform="scale(1 1) rotate(0) translate(21.6 304.6)">
<title>dependency&#45;graph&#45;[object Object]</title>
<polygon fill="#ffffff" stroke="transparent" points="-21.6,21.6 -21.6,-304.6 242.6,-304.6 242.6,21.6 -21.6,21.6"/>
<g id="clust1" class="cluster">
<title>cluster_src</title>
<polygon fill="#ffffff" stroke="#000000" points="44.5,-43 44.5,-275 212.5,-275 212.5,-43 44.5,-43"/>
</g>
<g id="clust2" class="cluster">
<title>cluster_src</title>
<polygon fill="#ffffff" stroke="#000000" points="52.5,-51 52.5,-267 204.5,-267 204.5,-51 52.5,-51"/>
</g>
<!-- dependency&#45;graph&#45;[object Object] -->
<!-- src/list.ts -->
<g id="node2" class="node">
<title>src/list.ts</title>
<path fill="none" stroke="#000000" d="M106.83,-200C106.83,-200 68.17,-200 68.17,-200 64.33,-200 60.5,-196.17 60.5,-192.33 60.5,-192.33 60.5,-184.67 60.5,-184.67 60.5,-180.83 64.33,-177 68.17,-177 68.17,-177 106.83,-177 106.83,-177 110.67,-177 114.5,-180.83 114.5,-184.67 114.5,-184.67 114.5,-192.33 114.5,-192.33 114.5,-196.17 110.67,-200 106.83,-200"/>
<text text-anchor="middle" x="87.5" y="-184.8" font-family="Arial" font-size="14.00" fill="#000000">list.ts</text>
</g>
<!-- src/node.ts -->
<g id="node3" class="node">
<title>src/node.ts</title>
<path fill="none" stroke="#000000" d="M134.33,-141C134.33,-141 88.67,-141 88.67,-141 84.83,-141 81,-137.17 81,-133.33 81,-133.33 81,-125.67 81,-125.67 81,-121.83 84.83,-118 88.67,-118 88.67,-118 134.33,-118 134.33,-118 138.17,-118 142,-121.83 142,-125.67 142,-125.67 142,-133.33 142,-133.33 142,-137.17 138.17,-141 134.33,-141"/>
<text text-anchor="middle" x="111.5" y="-125.8" font-family="Arial" font-size="14.00" fill="#000000">node.ts</text>
</g>
<!-- src/list.ts&#45;&gt;src/node.ts -->
<!-- src/list.ts&#45;&gt;src/node.ts -->
<g id="edge13" class="edge">
<title>src/list.ts&#45;&gt;src/node.ts</title>
<path fill="none" stroke="black" d="M97.43,-176.78C101.79,-169.45 106.34,-159.52 109.47,-150.74"/>
<polygon fill="black" stroke="black" points="112.82,-151.76 112.41,-141.17 106.13,-149.7 112.82,-151.76"/>
</g>
<!-- exit_src -->
<!-- src/list.ts&#45;&gt;exit_src -->
<!-- src/node.ts&#45;&gt;exit_src -->
<!-- name_src -->
<g id="node4" class="node">
<title>name_src</title>
<path fill="none" stroke="#ff0000" stroke-width="5" d="M188.83,-259C188.83,-259 150.17,-259 150.17,-259 146.33,-259 142.5,-255.17 142.5,-251.33 142.5,-251.33 142.5,-243.67 142.5,-243.67 142.5,-239.83 146.33,-236 150.17,-236 150.17,-236 188.83,-236 188.83,-236 192.67,-236 196.5,-239.83 196.5,-243.67 196.5,-243.67 196.5,-251.33 196.5,-251.33 196.5,-255.17 192.67,-259 188.83,-259"/>
<text text-anchor="middle" x="169.5" y="-243.8" font-family="Arial" font-size="14.00" fill="#000000">src</text>
</g>
<!-- exit_src&#45;&gt;dependency&#45;graph&#45;[object Object] -->
<!-- exit_src&#45;&gt;exit_src -->
<!-- exit_src&#45;&gt;exit_src -->
<!-- exit_src&#45;&gt;exit_src -->
<!-- src/index.ts -->
<g id="node6" class="node">
<title>src/index.ts</title>
<path fill="none" stroke="#ff0000" stroke-width="5" d="M116.33,-259C116.33,-259 68.67,-259 68.67,-259 64.83,-259 61,-255.17 61,-251.33 61,-251.33 61,-243.67 61,-243.67 61,-239.83 64.83,-236 68.67,-236 68.67,-236 116.33,-236 116.33,-236 120.17,-236 124,-239.83 124,-243.67 124,-243.67 124,-251.33 124,-251.33 124,-255.17 120.17,-259 116.33,-259"/>
<text text-anchor="middle" x="92.5" y="-243.8" font-family="Arial" font-size="14.00" fill="#000000">index.ts</text>
</g>
<!-- src/index.ts&#45;&gt;src/list.ts -->
<!-- src/index.ts&#45;&gt;src/list.ts -->
<g id="edge9" class="edge">
<title>src/index.ts&#45;&gt;src/list.ts</title>
<path fill="none" stroke="black" d="M96.97,-235.78C97.61,-228.53 97.11,-218.74 95.81,-210.02"/>
<polygon fill="black" stroke="black" points="99.23,-209.29 93.84,-200.17 92.37,-210.67 99.23,-209.29"/>
</g>
<!-- src/index.ts&#45;&gt;src/node.ts -->
<!-- src/index.ts&#45;&gt;src/node.ts -->
<g id="edge11" class="edge">
<title>src/index.ts&#45;&gt;src/node.ts</title>
<path fill="none" stroke="black" d="M109.44,-235.99C118.63,-227.14 128.34,-213.74 132.5,-200 137.47,-183.59 133.41,-164.34 127.24,-150.27"/>
<polygon fill="black" stroke="black" points="130.18,-148.32 122.48,-141.05 123.96,-151.54 130.18,-148.32"/>
</g>
<!-- src/index.ts&#45;&gt;exit_src -->
</g>
</svg>
