<?xml version="1.0" encoding="UTF-8" standalone="no"?>
<!DOCTYPE svg PUBLIC "-//W3C//DTD SVG 1.1//EN"
 "http://www.w3.org/Graphics/SVG/1.1/DTD/svg11.dtd">
<!-- Generated by graphviz version 2.43.0 (0)
 -->
<!-- Title: dependency&#45;graph&#45;@siteimprove/alfa&#45;list Pages: 1 -->
<svg width="227pt" height="291pt"
 viewBox="0.00 0.00 227.20 291.20" xmlns="http://www.w3.org/2000/svg" xmlns:xlink="http://www.w3.org/1999/xlink">
<g id="graph0" class="graph" transform="scale(1 1) rotate(0) translate(21.6 269.6)">
<title>dependency&#45;graph&#45;@siteimprove/alfa&#45;list</title>
<polygon fill="#ffffff" stroke="transparent" points="-21.6,21.6 -21.6,-269.6 205.6,-269.6 205.6,21.6 -21.6,21.6"/>
<g id="clust1" class="cluster">
<title>cluster_src</title>
<polygon fill="#ffffff" stroke="#000000" points="8,-8 8,-240 176,-240 176,-8 8,-8"/>
</g>
<g id="clust2" class="cluster">
<title>cluster_src</title>
<polygon fill="#ffffff" stroke="#000000" points="16,-16 16,-232 168,-232 168,-16 16,-16"/>
</g>
<!-- src/list.ts -->
<g id="node1" class="node">
<title>src/list.ts</title>
<path fill="none" stroke="#000000" d="M70.33,-165C70.33,-165 31.67,-165 31.67,-165 27.83,-165 24,-161.17 24,-157.33 24,-157.33 24,-149.67 24,-149.67 24,-145.83 27.83,-142 31.67,-142 31.67,-142 70.33,-142 70.33,-142 74.17,-142 78,-145.83 78,-149.67 78,-149.67 78,-157.33 78,-157.33 78,-161.17 74.17,-165 70.33,-165"/>
<text text-anchor="middle" x="51" y="-149.8" font-family="Arial" font-size="14.00" fill="#000000">list.ts</text>
</g>
<!-- src/node.ts -->
<g id="node2" class="node">
<title>src/node.ts</title>
<path fill="none" stroke="#000000" d="M97.83,-106C97.83,-106 52.17,-106 52.17,-106 48.33,-106 44.5,-102.17 44.5,-98.33 44.5,-98.33 44.5,-90.67 44.5,-90.67 44.5,-86.83 48.33,-83 52.17,-83 52.17,-83 97.83,-83 97.83,-83 101.67,-83 105.5,-86.83 105.5,-90.67 105.5,-90.67 105.5,-98.33 105.5,-98.33 105.5,-102.17 101.67,-106 97.83,-106"/>
<text text-anchor="middle" x="75" y="-90.8" font-family="Arial" font-size="14.00" fill="#000000">node.ts</text>
</g>
<!-- src/list.ts&#45;&gt;src/node.ts -->
<!-- src/list.ts&#45;&gt;src/node.ts -->
<g id="edge12" class="edge">
<title>src/list.ts&#45;&gt;src/node.ts</title>
<path fill="none" stroke="black" d="M60.93,-141.78C65.29,-134.45 69.84,-124.52 72.97,-115.74"/>
<polygon fill="black" stroke="black" points="76.32,-116.76 75.91,-106.17 69.63,-114.7 76.32,-116.76"/>
</g>
<!-- exit_src -->
<!-- src/list.ts&#45;&gt;exit_src -->
<!-- src/node.ts&#45;&gt;exit_src -->
<!-- exit_src&#45;&gt;exit_src -->
<!-- exit_src&#45;&gt;exit_src -->
<!-- exit_src&#45;&gt;exit_src -->
<!-- name_src -->
<g id="node4" class="node">
<title>name_src</title>
<path fill="none" stroke="#ff0000" stroke-width="5" d="M152.33,-224C152.33,-224 113.67,-224 113.67,-224 109.83,-224 106,-220.17 106,-216.33 106,-216.33 106,-208.67 106,-208.67 106,-204.83 109.83,-201 113.67,-201 113.67,-201 152.33,-201 152.33,-201 156.17,-201 160,-204.83 160,-208.67 160,-208.67 160,-216.33 160,-216.33 160,-220.17 156.17,-224 152.33,-224"/>
<text text-anchor="middle" x="133" y="-208.8" font-family="Arial" font-size="14.00" fill="#000000">src</text>
</g>
<!-- src/index.ts -->
<g id="node5" class="node">
<title>src/index.ts</title>
<path fill="none" stroke="#ff0000" stroke-width="5" d="M79.83,-224C79.83,-224 32.17,-224 32.17,-224 28.33,-224 24.5,-220.17 24.5,-216.33 24.5,-216.33 24.5,-208.67 24.5,-208.67 24.5,-204.83 28.33,-201 32.17,-201 32.17,-201 79.83,-201 79.83,-201 83.67,-201 87.5,-204.83 87.5,-208.67 87.5,-208.67 87.5,-216.33 87.5,-216.33 87.5,-220.17 83.67,-224 79.83,-224"/>
<text text-anchor="middle" x="56" y="-208.8" font-family="Arial" font-size="14.00" fill="#000000">index.ts</text>
</g>
<!-- src/index.ts&#45;&gt;src/list.ts -->
<!-- src/index.ts&#45;&gt;src/list.ts -->
<g id="edge8" class="edge">
<title>src/index.ts&#45;&gt;src/list.ts</title>
<path fill="none" stroke="black" d="M60.47,-200.78C61.11,-193.53 60.61,-183.74 59.31,-175.02"/>
<polygon fill="black" stroke="black" points="62.73,-174.29 57.34,-165.17 55.87,-175.67 62.73,-174.29"/>
</g>
<!-- src/index.ts&#45;&gt;src/node.ts -->
<!-- src/index.ts&#45;&gt;src/node.ts -->
<g id="edge10" class="edge">
<title>src/index.ts&#45;&gt;src/node.ts</title>
<path fill="none" stroke="black" d="M72.94,-200.99C82.13,-192.14 91.84,-178.74 96,-165 100.97,-148.59 96.91,-129.34 90.74,-115.27"/>
<polygon fill="black" stroke="black" points="93.68,-113.32 85.98,-106.05 87.46,-116.54 93.68,-113.32"/>
</g>
<!-- src/index.ts&#45;&gt;exit_src -->
</g>
</svg>
