<?xml version="1.0" encoding="UTF-8" standalone="no"?>
<!DOCTYPE svg PUBLIC "-//W3C//DTD SVG 1.1//EN"
 "http://www.w3.org/Graphics/SVG/1.1/DTD/svg11.dtd">
<!-- Generated by graphviz version 2.43.0 (0)
 -->
<!-- Title: dependency&#45;graph&#45;[object Object] Pages: 1 -->
<svg width="488pt" height="444pt"
 viewBox="0.00 0.00 488.20 444.20" xmlns="http://www.w3.org/2000/svg" xmlns:xlink="http://www.w3.org/1999/xlink">
<g id="graph0" class="graph" transform="scale(1 1) rotate(0) translate(21.6 422.6)">
<title>dependency&#45;graph&#45;[object Object]</title>
<polygon fill="#ffffff" stroke="transparent" points="-21.6,21.6 -21.6,-422.6 466.6,-422.6 466.6,21.6 -21.6,21.6"/>
<g id="clust1" class="cluster">
<title>cluster_src</title>
<polygon fill="#ffffff" stroke="#000000" points="8,-43 8,-393 437,-393 437,-43 8,-43"/>
</g>
<g id="clust2" class="cluster">
<title>cluster_src</title>
<polygon fill="#ffffff" stroke="#000000" points="16,-51 16,-385 429,-385 429,-51 16,-51"/>
</g>
<g id="clust3" class="cluster">
<title>cluster_src/criterion</title>
<polygon fill="#ffffff" stroke="#000000" points="24,-110 24,-208 181,-208 181,-110 24,-110"/>
</g>
<g id="clust4" class="cluster">
<title>cluster_src/technique</title>
<polygon fill="#ffffff" stroke="#000000" points="223,-110 223,-208 389,-208 389,-110 223,-110"/>
</g>
<!-- dependency&#45;graph&#45;[object Object] -->
<!-- src/criterion.ts -->
<g id="node2" class="node">
<title>src/criterion.ts</title>
<path fill="none" stroke="#000000" d="M181.83,-259C181.83,-259 118.17,-259 118.17,-259 114.33,-259 110.5,-255.17 110.5,-251.33 110.5,-251.33 110.5,-243.67 110.5,-243.67 110.5,-239.83 114.33,-236 118.17,-236 118.17,-236 181.83,-236 181.83,-236 185.67,-236 189.5,-239.83 189.5,-243.67 189.5,-243.67 189.5,-251.33 189.5,-251.33 189.5,-255.17 185.67,-259 181.83,-259"/>
<text text-anchor="middle" x="150" y="-243.8" font-family="Arial" font-size="14.00" fill="#000000">criterion.ts</text>
</g>
<!-- name_src/criterion -->
<g id="node4" class="node">
<title>name_src/criterion</title>
<path fill="none" stroke="#ff0000" stroke-width="5" d="M89.83,-200C89.83,-200 40.17,-200 40.17,-200 36.33,-200 32.5,-196.17 32.5,-192.33 32.5,-192.33 32.5,-184.67 32.5,-184.67 32.5,-180.83 36.33,-177 40.17,-177 40.17,-177 89.83,-177 89.83,-177 93.67,-177 97.5,-180.83 97.5,-184.67 97.5,-184.67 97.5,-192.33 97.5,-192.33 97.5,-196.17 93.67,-200 89.83,-200"/>
<text text-anchor="middle" x="65" y="-184.8" font-family="Arial" font-size="14.00" fill="#000000">criterion</text>
</g>
<!-- src/criterion.ts&#45;&gt;name_src/criterion -->
<g id="edge18" class="edge">
<title>src/criterion.ts&#45;&gt;name_src/criterion</title>
<path fill="none" stroke="#00ff00" d="M134.01,-235.78C124.73,-229.55 112.64,-221.44 101.17,-213.76"/>
<polygon fill="#00ff00" stroke="#00ff00" points="102.84,-210.66 92.58,-208 98.94,-216.47 102.84,-210.66"/>
</g>
<!-- exit_src -->
<!-- src/criterion.ts&#45;&gt;exit_src -->
<!-- src/criterion/data.ts -->
<g id="node3" class="node">
<title>src/criterion/data.ts</title>
<path fill="none" stroke="#000000" d="M164.83,-200C164.83,-200 123.17,-200 123.17,-200 119.33,-200 115.5,-196.17 115.5,-192.33 115.5,-192.33 115.5,-184.67 115.5,-184.67 115.5,-180.83 119.33,-177 123.17,-177 123.17,-177 164.83,-177 164.83,-177 168.67,-177 172.5,-180.83 172.5,-184.67 172.5,-184.67 172.5,-192.33 172.5,-192.33 172.5,-196.17 168.67,-200 164.83,-200"/>
<text text-anchor="middle" x="144" y="-184.8" font-family="Arial" font-size="14.00" fill="#000000">data.ts</text>
</g>
<!-- exit_src/criterion -->
<!-- src/criterion/data.ts&#45;&gt;exit_src/criterion -->
<!-- src/conformance.ts -->
<g id="node5" class="node">
<title>src/conformance.ts</title>
<path fill="none" stroke="#000000" d="M263.33,-318C263.33,-318 168.67,-318 168.67,-318 164.83,-318 161,-314.17 161,-310.33 161,-310.33 161,-302.67 161,-302.67 161,-298.83 164.83,-295 168.67,-295 168.67,-295 263.33,-295 263.33,-295 267.17,-295 271,-298.83 271,-302.67 271,-302.67 271,-310.33 271,-310.33 271,-314.17 267.17,-318 263.33,-318"/>
<text text-anchor="middle" x="216" y="-302.8" font-family="Arial" font-size="14.00" fill="#000000">conformance.ts</text>
</g>
<!-- src/conformance.ts&#45;&gt;src/criterion.ts -->
<!-- src/conformance.ts&#45;&gt;src/criterion.ts -->
<g id="edge17" class="edge">
<title>src/conformance.ts&#45;&gt;src/criterion.ts</title>
<path fill="none" stroke="black" d="M209,-294.78C200.86,-286.5 187.69,-274.89 175.75,-265.36"/>
<polygon fill="black" stroke="black" points="177.81,-262.53 167.76,-259.17 173.52,-268.07 177.81,-262.53"/>
</g>
<!-- src/conformance.ts&#45;&gt;exit_src -->
<!-- src/technique.ts -->
<g id="node6" class="node">
<title>src/technique.ts</title>
<path fill="none" stroke="#000000" d="M326.83,-259C326.83,-259 253.17,-259 253.17,-259 249.33,-259 245.5,-255.17 245.5,-251.33 245.5,-251.33 245.5,-243.67 245.5,-243.67 245.5,-239.83 249.33,-236 253.17,-236 253.17,-236 326.83,-236 326.83,-236 330.67,-236 334.5,-239.83 334.5,-243.67 334.5,-243.67 334.5,-251.33 334.5,-251.33 334.5,-255.17 330.67,-259 326.83,-259"/>
<text text-anchor="middle" x="290" y="-243.8" font-family="Arial" font-size="14.00" fill="#000000">technique.ts</text>
</g>
<!-- name_src/technique -->
<g id="node8" class="node">
<title>name_src/technique</title>
<path fill="none" stroke="#0000ff" stroke-width="5" d="M297.83,-200C297.83,-200 238.17,-200 238.17,-200 234.33,-200 230.5,-196.17 230.5,-192.33 230.5,-192.33 230.5,-184.67 230.5,-184.67 230.5,-180.83 234.33,-177 238.17,-177 238.17,-177 297.83,-177 297.83,-177 301.67,-177 305.5,-180.83 305.5,-184.67 305.5,-184.67 305.5,-192.33 305.5,-192.33 305.5,-196.17 301.67,-200 297.83,-200"/>
<text text-anchor="middle" x="268" y="-184.8" font-family="Arial" font-size="14.00" fill="#000000">technique</text>
</g>
<!-- src/technique.ts&#45;&gt;name_src/technique -->
<g id="edge25" class="edge">
<title>src/technique.ts&#45;&gt;name_src/technique</title>
<path fill="none" stroke="#00ff00" d="M285.86,-235.78C283.03,-228.45 279.2,-218.52 275.81,-209.74"/>
<polygon fill="#00ff00" stroke="#00ff00" points="282.07,-216 275.12,-208 275.57,-218.59 282.07,-216"/>
</g>
<!-- src/technique.ts&#45;&gt;exit_src -->
<!-- src/technique/data.ts -->
<g id="node7" class="node">
<title>src/technique/data.ts</title>
<path fill="none" stroke="#000000" d="M372.83,-200C372.83,-200 331.17,-200 331.17,-200 327.33,-200 323.5,-196.17 323.5,-192.33 323.5,-192.33 323.5,-184.67 323.5,-184.67 323.5,-180.83 327.33,-177 331.17,-177 331.17,-177 372.83,-177 372.83,-177 376.67,-177 380.5,-180.83 380.5,-184.67 380.5,-184.67 380.5,-192.33 380.5,-192.33 380.5,-196.17 376.67,-200 372.83,-200"/>
<text text-anchor="middle" x="352" y="-184.8" font-family="Arial" font-size="14.00" fill="#000000">data.ts</text>
</g>
<!-- exit_src/technique -->
<!-- src/technique/data.ts&#45;&gt;exit_src/technique -->
<!-- name_src -->
<g id="node9" class="node">
<title>name_src</title>
<path fill="none" stroke="#00ff00" stroke-width="5" d="M364.33,-377C364.33,-377 325.67,-377 325.67,-377 321.83,-377 318,-373.17 318,-369.33 318,-369.33 318,-361.67 318,-361.67 318,-357.83 321.83,-354 325.67,-354 325.67,-354 364.33,-354 364.33,-354 368.17,-354 372,-357.83 372,-361.67 372,-361.67 372,-369.33 372,-369.33 372,-373.17 368.17,-377 364.33,-377"/>
<text text-anchor="middle" x="345" y="-361.8" font-family="Arial" font-size="14.00" fill="#000000">src</text>
</g>
<!-- exit_src&#45;&gt;dependency&#45;graph&#45;[object Object] -->
<!-- exit_src&#45;&gt;exit_src -->
<!-- exit_src&#45;&gt;exit_src -->
<!-- exit_src&#45;&gt;exit_src -->
<!-- exit_src&#45;&gt;exit_src -->
<!-- exit_src&#45;&gt;exit_src -->
<!-- exit_src&#45;&gt;exit_src -->
<!-- src/index.ts -->
<g id="node11" class="node">
<title>src/index.ts</title>
<path fill="none" stroke="#00ff00" stroke-width="5" d="M239.83,-377C239.83,-377 192.17,-377 192.17,-377 188.33,-377 184.5,-373.17 184.5,-369.33 184.5,-369.33 184.5,-361.67 184.5,-361.67 184.5,-357.83 188.33,-354 192.17,-354 192.17,-354 239.83,-354 239.83,-354 243.67,-354 247.5,-357.83 247.5,-361.67 247.5,-361.67 247.5,-369.33 247.5,-369.33 247.5,-373.17 243.67,-377 239.83,-377"/>
<text text-anchor="middle" x="216" y="-361.8" font-family="Arial" font-size="14.00" fill="#000000">index.ts</text>
</g>
<!-- src/index.ts&#45;&gt;src/criterion.ts -->
<!-- src/index.ts&#45;&gt;src/criterion.ts -->
<g id="edge22" class="edge">
<title>src/index.ts&#45;&gt;src/criterion.ts</title>
<path fill="none" stroke="black" d="M199.81,-353.97C186.72,-346.25 169.59,-334.28 161,-318 153.18,-303.17 153.25,-283.98 153.52,-269.52"/>
<polygon fill="black" stroke="black" points="157.03,-269.15 153.63,-259.11 150.03,-269.08 157.03,-269.15"/>
</g>
<!-- src/index.ts&#45;&gt;src/conformance.ts -->
<!-- src/index.ts&#45;&gt;src/conformance.ts -->
<g id="edge20" class="edge">
<title>src/index.ts&#45;&gt;src/conformance.ts</title>
<path fill="none" stroke="black" d="M221.41,-353.78C222.67,-346.61 223.04,-336.95 222.53,-328.31"/>
<polygon fill="black" stroke="black" points="225.98,-327.73 221.4,-318.17 219.03,-328.5 225.98,-327.73"/>
</g>
<!-- src/index.ts&#45;&gt;src/technique.ts -->
<!-- src/index.ts&#45;&gt;src/technique.ts -->
<g id="edge24" class="edge">
<title>src/index.ts&#45;&gt;src/technique.ts</title>
<path fill="none" stroke="black" d="M246.3,-353.97C261.89,-346.12 279.35,-333.99 289,-318 297.83,-303.36 299.99,-283.9 298.65,-269.3"/>
<polygon fill="black" stroke="black" points="302.07,-268.54 297,-259.24 295.17,-269.67 302.07,-268.54"/>
</g>
<!-- src/index.ts&#45;&gt;exit_src -->
<!-- exit_src/criterion&#45;&gt;exit_src -->
<!-- exit_src/technique&#45;&gt;exit_src -->
</g>
</svg>
