<?xml version="1.0" encoding="UTF-8" standalone="no"?>
<!DOCTYPE svg PUBLIC "-//W3C//DTD SVG 1.1//EN"
 "http://www.w3.org/Graphics/SVG/1.1/DTD/svg11.dtd">
<!-- Generated by graphviz version 2.43.0 (0)
 -->
<!-- Title: dependency&#45;graph&#45;@siteimprove/alfa&#45;wcag Pages: 1 -->
<svg width="480pt" height="409pt"
 viewBox="0.00 0.00 480.20 409.20" xmlns="http://www.w3.org/2000/svg" xmlns:xlink="http://www.w3.org/1999/xlink">
<g id="graph0" class="graph" transform="scale(1 1) rotate(0) translate(21.6 387.6)">
<title>dependency&#45;graph&#45;@siteimprove/alfa&#45;wcag</title>
<polygon fill="#ffffff" stroke="transparent" points="-21.6,21.6 -21.6,-387.6 458.6,-387.6 458.6,21.6 -21.6,21.6"/>
<g id="clust1" class="cluster">
<title>cluster_src</title>
<polygon fill="#ffffff" stroke="#000000" points="8,-8 8,-358 429,-358 429,-8 8,-8"/>
</g>
<g id="clust2" class="cluster">
<title>cluster_src</title>
<polygon fill="#ffffff" stroke="#000000" points="16,-16 16,-350 421,-350 421,-16 16,-16"/>
</g>
<g id="clust3" class="cluster">
<title>cluster_src/technique</title>
<polygon fill="#ffffff" stroke="#000000" points="235,-75 235,-173 401,-173 401,-75 235,-75"/>
</g>
<g id="clust4" class="cluster">
<title>cluster_src/criterion</title>
<polygon fill="#ffffff" stroke="#000000" points="36,-75 36,-173 193,-173 193,-75 36,-75"/>
</g>
<!-- src/technique/data.ts -->
<g id="node1" class="node">
<title>src/technique/data.ts</title>
<path fill="none" stroke="#000000" d="M384.83,-165C384.83,-165 343.17,-165 343.17,-165 339.33,-165 335.5,-161.17 335.5,-157.33 335.5,-157.33 335.5,-149.67 335.5,-149.67 335.5,-145.83 339.33,-142 343.17,-142 343.17,-142 384.83,-142 384.83,-142 388.67,-142 392.5,-145.83 392.5,-149.67 392.5,-149.67 392.5,-157.33 392.5,-157.33 392.5,-161.17 388.67,-165 384.83,-165"/>
<text text-anchor="middle" x="364" y="-149.8" font-family="Arial" font-size="14.00" fill="#000000">data.ts</text>
</g>
<!-- exit_src/technique -->
<!-- src/technique/data.ts&#45;&gt;exit_src/technique -->
<!-- name_src/technique -->
<g id="node2" class="node">
<title>name_src/technique</title>
<path fill="none" stroke="#0000ff" stroke-width="5" d="M309.83,-165C309.83,-165 250.17,-165 250.17,-165 246.33,-165 242.5,-161.17 242.5,-157.33 242.5,-157.33 242.5,-149.67 242.5,-149.67 242.5,-145.83 246.33,-142 250.17,-142 250.17,-142 309.83,-142 309.83,-142 313.67,-142 317.5,-145.83 317.5,-149.67 317.5,-149.67 317.5,-157.33 317.5,-157.33 317.5,-161.17 313.67,-165 309.83,-165"/>
<text text-anchor="middle" x="280" y="-149.8" font-family="Arial" font-size="14.00" fill="#000000">technique</text>
</g>
<!-- src/criterion/data.ts -->
<g id="node3" class="node">
<title>src/criterion/data.ts</title>
<path fill="none" stroke="#000000" d="M176.83,-165C176.83,-165 135.17,-165 135.17,-165 131.33,-165 127.5,-161.17 127.5,-157.33 127.5,-157.33 127.5,-149.67 127.5,-149.67 127.5,-145.83 131.33,-142 135.17,-142 135.17,-142 176.83,-142 176.83,-142 180.67,-142 184.5,-145.83 184.5,-149.67 184.5,-149.67 184.5,-157.33 184.5,-157.33 184.5,-161.17 180.67,-165 176.83,-165"/>
<text text-anchor="middle" x="156" y="-149.8" font-family="Arial" font-size="14.00" fill="#000000">data.ts</text>
</g>
<!-- exit_src/criterion -->
<!-- src/criterion/data.ts&#45;&gt;exit_src/criterion -->
<!-- name_src/criterion -->
<g id="node4" class="node">
<title>name_src/criterion</title>
<path fill="none" stroke="#ff0000" stroke-width="5" d="M101.83,-165C101.83,-165 52.17,-165 52.17,-165 48.33,-165 44.5,-161.17 44.5,-157.33 44.5,-157.33 44.5,-149.67 44.5,-149.67 44.5,-145.83 48.33,-142 52.17,-142 52.17,-142 101.83,-142 101.83,-142 105.67,-142 109.5,-145.83 109.5,-149.67 109.5,-149.67 109.5,-157.33 109.5,-157.33 109.5,-161.17 105.67,-165 101.83,-165"/>
<text text-anchor="middle" x="77" y="-149.8" font-family="Arial" font-size="14.00" fill="#000000">criterion</text>
</g>
<!-- src/conformance.ts -->
<g id="node5" class="node">
<title>src/conformance.ts</title>
<path fill="none" stroke="#000000" d="M136.33,-283C136.33,-283 41.67,-283 41.67,-283 37.83,-283 34,-279.17 34,-275.33 34,-275.33 34,-267.67 34,-267.67 34,-263.83 37.83,-260 41.67,-260 41.67,-260 136.33,-260 136.33,-260 140.17,-260 144,-263.83 144,-267.67 144,-267.67 144,-275.33 144,-275.33 144,-279.17 140.17,-283 136.33,-283"/>
<text text-anchor="middle" x="89" y="-267.8" font-family="Arial" font-size="14.00" fill="#000000">conformance.ts</text>
</g>
<!-- src/criterion.ts -->
<g id="node6" class="node">
<title>src/criterion.ts</title>
<path fill="none" stroke="#000000" d="M157.83,-224C157.83,-224 94.17,-224 94.17,-224 90.33,-224 86.5,-220.17 86.5,-216.33 86.5,-216.33 86.5,-208.67 86.5,-208.67 86.5,-204.83 90.33,-201 94.17,-201 94.17,-201 157.83,-201 157.83,-201 161.67,-201 165.5,-204.83 165.5,-208.67 165.5,-208.67 165.5,-216.33 165.5,-216.33 165.5,-220.17 161.67,-224 157.83,-224"/>
<text text-anchor="middle" x="126" y="-208.8" font-family="Arial" font-size="14.00" fill="#000000">criterion.ts</text>
</g>
<!-- src/conformance.ts&#45;&gt;src/criterion.ts -->
<!-- src/conformance.ts&#45;&gt;src/criterion.ts -->
<g id="edge24" class="edge">
<title>src/conformance.ts&#45;&gt;src/criterion.ts</title>
<path fill="none" stroke="black" d="M101.37,-259.78C107.54,-252.29 114.51,-242.09 119.69,-233.16"/>
<polygon fill="black" stroke="black" points="122.87,-234.65 124.47,-224.17 116.69,-231.36 122.87,-234.65"/>
</g>
<!-- exit_src -->
<!-- src/conformance.ts&#45;&gt;exit_src -->
<!-- src/criterion.ts&#45;&gt;name_src/criterion -->
<g id="edge16" class="edge">
<title>src/criterion.ts&#45;&gt;name_src/criterion</title>
<path fill="none" stroke="#00ff00" d="M116.78,-200.78C110.08,-192.98 100.82,-182.21 92.93,-173.03"/>
<polygon fill="#00ff00" stroke="#00ff00" points="102.31,-169.93 92.18,-173 102.02,-176.92 102.31,-169.93"/>
</g>
<!-- src/criterion.ts&#45;&gt;exit_src -->
<!-- src/technique.ts -->
<g id="node7" class="node">
<title>src/technique.ts</title>
<path fill="none" stroke="#000000" d="M262.83,-283C262.83,-283 189.17,-283 189.17,-283 185.33,-283 181.5,-279.17 181.5,-275.33 181.5,-275.33 181.5,-267.67 181.5,-267.67 181.5,-263.83 185.33,-260 189.17,-260 189.17,-260 262.83,-260 262.83,-260 266.67,-260 270.5,-263.83 270.5,-267.67 270.5,-267.67 270.5,-275.33 270.5,-275.33 270.5,-279.17 266.67,-283 262.83,-283"/>
<text text-anchor="middle" x="226" y="-267.8" font-family="Arial" font-size="14.00" fill="#000000">technique.ts</text>
</g>
<!-- src/technique.ts&#45;&gt;name_src/technique -->
<g id="edge15" class="edge">
<title>src/technique.ts&#45;&gt;name_src/technique</title>
<path fill="none" stroke="#00ff00" d="M230.98,-259.79C240.02,-240.37 259.26,-199.06 270.76,-174.35"/>
<polygon fill="#00ff00" stroke="#00ff00" points="267.72,-182.68 272.03,-173 262.63,-177.88 267.72,-182.68"/>
</g>
<!-- src/technique.ts&#45;&gt;exit_src -->
<!-- exit_src&#45;&gt;exit_src -->
<!-- exit_src&#45;&gt;exit_src -->
<!-- exit_src&#45;&gt;exit_src -->
<!-- exit_src&#45;&gt;exit_src -->
<!-- exit_src&#45;&gt;exit_src -->
<!-- exit_src&#45;&gt;exit_src -->
<!-- name_src -->
<g id="node9" class="node">
<title>name_src</title>
<path fill="none" stroke="#00ff00" stroke-width="5" d="M333.33,-342C333.33,-342 294.67,-342 294.67,-342 290.83,-342 287,-338.17 287,-334.33 287,-334.33 287,-326.67 287,-326.67 287,-322.83 290.83,-319 294.67,-319 294.67,-319 333.33,-319 333.33,-319 337.17,-319 341,-322.83 341,-326.67 341,-326.67 341,-334.33 341,-334.33 341,-338.17 337.17,-342 333.33,-342"/>
<text text-anchor="middle" x="314" y="-326.8" font-family="Arial" font-size="14.00" fill="#000000">src</text>
</g>
<!-- src/index.ts -->
<g id="node10" class="node">
<title>src/index.ts</title>
<path fill="none" stroke="#00ff00" stroke-width="5" d="M186.83,-342C186.83,-342 139.17,-342 139.17,-342 135.33,-342 131.5,-338.17 131.5,-334.33 131.5,-334.33 131.5,-326.67 131.5,-326.67 131.5,-322.83 135.33,-319 139.17,-319 139.17,-319 186.83,-319 186.83,-319 190.67,-319 194.5,-322.83 194.5,-326.67 194.5,-326.67 194.5,-334.33 194.5,-334.33 194.5,-338.17 190.67,-342 186.83,-342"/>
<text text-anchor="middle" x="163" y="-326.8" font-family="Arial" font-size="14.00" fill="#000000">index.ts</text>
</g>
<!-- src/index.ts&#45;&gt;src/conformance.ts -->
<!-- src/index.ts&#45;&gt;src/conformance.ts -->
<g id="edge18" class="edge">
<title>src/index.ts&#45;&gt;src/conformance.ts</title>
<path fill="none" stroke="black" d="M154.49,-318.78C145.11,-310.42 130.1,-298.66 116.73,-289.09"/>
<polygon fill="black" stroke="black" points="118.46,-286.03 108.26,-283.17 114.46,-291.77 118.46,-286.03"/>
</g>
<!-- src/index.ts&#45;&gt;src/criterion.ts -->
<!-- src/index.ts&#45;&gt;src/criterion.ts -->
<g id="edge20" class="edge">
<title>src/index.ts&#45;&gt;src/criterion.ts</title>
<path fill="none" stroke="black" d="M168.9,-318.84C171.08,-304.94 168.96,-280.04 162,-260 158.59,-250.18 153.04,-240.11 147.11,-231.86"/>
<polygon fill="black" stroke="black" points="149.84,-229.67 140.88,-224.01 144.36,-234.02 149.84,-229.67"/>
</g>
<!-- src/index.ts&#45;&gt;src/technique.ts -->
<!-- src/index.ts&#45;&gt;src/technique.ts -->
<g id="edge22" class="edge">
<title>src/index.ts&#45;&gt;src/technique.ts</title>
<path fill="none" stroke="black" d="M180.26,-318.78C190.46,-310.82 202.97,-299.77 212.46,-290.47"/>
<polygon fill="black" stroke="black" points="215.11,-292.77 219.61,-283.17 210.11,-287.87 215.11,-292.77"/>
</g>
<!-- src/index.ts&#45;&gt;exit_src -->
<!-- exit_src/technique&#45;&gt;exit_src -->
<!-- exit_src/criterion&#45;&gt;exit_src -->
</g>
</svg>
