<?xml version="1.0" encoding="UTF-8" standalone="no"?>
<!DOCTYPE svg PUBLIC "-//W3C//DTD SVG 1.1//EN"
 "http://www.w3.org/Graphics/SVG/1.1/DTD/svg11.dtd">
<!-- Generated by graphviz version 2.43.0 (0)
 -->
<!-- Title: dependency&#45;graph&#45;[object Object] Pages: 1 -->
<svg width="264pt" height="267pt"
 viewBox="0.00 0.00 264.20 267.20" xmlns="http://www.w3.org/2000/svg" xmlns:xlink="http://www.w3.org/1999/xlink">
<g id="graph0" class="graph" transform="scale(1 1) rotate(0) translate(21.6 245.6)">
<title>dependency&#45;graph&#45;[object Object]</title>
<polygon fill="#ffffff" stroke="transparent" points="-21.6,21.6 -21.6,-245.6 242.6,-245.6 242.6,21.6 -21.6,21.6"/>
<g id="clust1" class="cluster">
<title>cluster_src</title>
<polygon fill="#ffffff" stroke="#000000" points="44.5,-43 44.5,-216 212.5,-216 212.5,-43 44.5,-43"/>
</g>
<g id="clust2" class="cluster">
<title>cluster_src</title>
<polygon fill="#ffffff" stroke="#000000" points="52.5,-51 52.5,-208 204.5,-208 204.5,-51 52.5,-51"/>
</g>
<!-- dependency&#45;graph&#45;[object Object] -->
<!-- src/clone.ts -->
<g id="node2" class="node">
<title>src/clone.ts</title>
<path fill="none" stroke="#000000" d="M116.33,-141C116.33,-141 68.67,-141 68.67,-141 64.83,-141 61,-137.17 61,-133.33 61,-133.33 61,-125.67 61,-125.67 61,-121.83 64.83,-118 68.67,-118 68.67,-118 116.33,-118 116.33,-118 120.17,-118 124,-121.83 124,-125.67 124,-125.67 124,-133.33 124,-133.33 124,-137.17 120.17,-141 116.33,-141"/>
<text text-anchor="middle" x="92.5" y="-125.8" font-family="Arial" font-size="14.00" fill="#000000">clone.ts</text>
</g>
<!-- exit_src -->
<!-- src/clone.ts&#45;&gt;exit_src -->
<!-- name_src -->
<g id="node3" class="node">
<title>name_src</title>
<path fill="none" stroke="#ff0000" stroke-width="5" d="M188.83,-200C188.83,-200 150.17,-200 150.17,-200 146.33,-200 142.5,-196.17 142.5,-192.33 142.5,-192.33 142.5,-184.67 142.5,-184.67 142.5,-180.83 146.33,-177 150.17,-177 150.17,-177 188.83,-177 188.83,-177 192.67,-177 196.5,-180.83 196.5,-184.67 196.5,-184.67 196.5,-192.33 196.5,-192.33 196.5,-196.17 192.67,-200 188.83,-200"/>
<text text-anchor="middle" x="169.5" y="-184.8" font-family="Arial" font-size="14.00" fill="#000000">src</text>
</g>
<!-- exit_src&#45;&gt;dependency&#45;graph&#45;[object Object] -->
<!-- exit_src&#45;&gt;exit_src -->
<!-- exit_src&#45;&gt;exit_src -->
<!-- src/common.ts -->
<g id="node5" class="node">
<title>src/common.ts</title>
<path fill="none" stroke="#ff0000" stroke-width="5" d="M116.33,-200C116.33,-200 68.67,-200 68.67,-200 64.83,-200 61,-196.17 61,-192.33 61,-192.33 61,-184.67 61,-184.67 61,-180.83 64.83,-177 68.67,-177 68.67,-177 116.33,-177 116.33,-177 120.17,-177 124,-180.83 124,-184.67 124,-184.67 124,-192.33 124,-192.33 124,-196.17 120.17,-200 116.33,-200"/>
<text text-anchor="middle" x="92.5" y="-184.8" font-family="Arial" font-size="14.00" fill="#000000">common.ts</text>
</g>
<!-- src/common.ts&#45;&gt;src/clone.ts -->
<!-- src/common.ts&#45;&gt;src/clone.ts -->
<g id="edge7" class="edge">
<title>src/common.ts&#45;&gt;src/clone.ts</title>
<path fill="none" stroke="black" d="M97.91,-176.78C99.17,-169.61 99.54,-159.95 99.03,-151.31"/>
<polygon fill="black" stroke="black" points="102.48,-150.73 97.9,-141.17 95.53,-151.5 102.48,-150.73"/>
</g>
<!-- src/common.ts&#45;&gt;exit_src -->
</g>
</svg>
