<?xml version="1.0" encoding="UTF-8" standalone="no"?>
<!DOCTYPE svg PUBLIC "-//W3C//DTD SVG 1.1//EN"
 "http://www.w3.org/Graphics/SVG/1.1/DTD/svg11.dtd">
<!-- Generated by graphviz version 2.43.0 (0)
 -->
<!-- Title: dependency&#45;graph&#45;@siteimprove/alfa&#45;aria Pages: 1 -->
<svg width="2752pt" height="792pt"
 viewBox="0.00 0.00 2752.20 791.52" xmlns="http://www.w3.org/2000/svg" xmlns:xlink="http://www.w3.org/1999/xlink">
<g id="graph0" class="graph" transform="scale(1 1) rotate(0) translate(21.6 769.92)">
<title>dependency&#45;graph&#45;@siteimprove/alfa&#45;aria</title>
<polygon fill="#ffffff" stroke="transparent" points="-21.6,21.6 -21.6,-769.92 2730.6,-769.92 2730.6,21.6 -21.6,21.6"/>
<g id="clust1" class="cluster">
<title>cluster_src</title>
<polygon fill="#ffffff" stroke="#000000" points="8,-28.32 8,-740.32 2701,-740.32 2701,-28.32 8,-28.32"/>
</g>
<g id="clust2" class="cluster">
<title>cluster_src</title>
<polygon fill="#ffffff" stroke="#000000" points="16,-36.32 16,-732.32 2693,-732.32 2693,-36.32 16,-36.32"/>
</g>
<g id="clust3" class="cluster">
<title>cluster_src/dom</title>
<polygon fill="#ffffff" stroke="#000000" points="1062,-449.32 1062,-724.32 2685,-724.32 2685,-449.32 1062,-449.32"/>
</g>
<g id="clust4" class="cluster">
<title>cluster_src/dom/predicate</title>
<polygon fill="#ffffff" stroke="#000000" points="1082,-508.32 1082,-665.32 2677,-665.32 2677,-508.32 1082,-508.32"/>
</g>
<g id="clust5" class="cluster">
<title>cluster_src/node</title>
<polygon fill="#ffffff" stroke="#000000" points="54,-449.32 54,-665.32 842,-665.32 842,-449.32 54,-449.32"/>
</g>
<g id="clust6" class="cluster">
<title>cluster_src/node/predicate</title>
<polygon fill="#ffffff" stroke="#000000" points="74,-508.32 74,-606.32 494,-606.32 494,-508.32 74,-508.32"/>
</g>
<g id="clust7" class="cluster">
<title>cluster_src/role</title>
<polygon fill="#ffffff" stroke="#000000" points="939,-95.32 939,-311.32 1239,-311.32 1239,-95.32 939,-95.32"/>
</g>
<g id="clust8" class="cluster">
<title>cluster_src/role/predicate</title>
<polygon fill="#ffffff" stroke="#000000" points="947,-154.32 947,-252.32 1145,-252.32 1145,-154.32 947,-154.32"/>
</g>
<g id="clust9" class="cluster">
<title>cluster_src/name</title>
<polygon fill="#ffffff" stroke="#000000" points="343,-95.32 343,-429.32 673,-429.32 673,-95.32 343,-95.32"/>
</g>
<g id="clust10" class="cluster">
<title>cluster_src/name/predicate</title>
<polygon fill="#ffffff" stroke="#000000" points="351,-213.32 351,-370.32 529,-370.32 529,-213.32 351,-213.32"/>
</g>
<g id="clust11" class="cluster">
<title>cluster_src/attribute</title>
<polygon fill="#ffffff" stroke="#000000" points="106,-95.32 106,-193.32 263,-193.32 263,-95.32 106,-95.32"/>
</g>
<!-- src/dom/predicate/has&#45;accessible&#45;name.ts -->
<g id="node1" class="node">
<title>src/dom/predicate/has&#45;accessible&#45;name.ts</title>
<path fill="#ff6c60" stroke="#000000" d="M1416.83,-598.32C1416.83,-598.32 1273.17,-598.32 1273.17,-598.32 1269.33,-598.32 1265.5,-594.48 1265.5,-590.65 1265.5,-590.65 1265.5,-582.98 1265.5,-582.98 1265.5,-579.15 1269.33,-575.32 1273.17,-575.32 1273.17,-575.32 1416.83,-575.32 1416.83,-575.32 1420.67,-575.32 1424.5,-579.15 1424.5,-582.98 1424.5,-582.98 1424.5,-590.65 1424.5,-590.65 1424.5,-594.48 1420.67,-598.32 1416.83,-598.32"/>
<text text-anchor="middle" x="1345" y="-583.12" font-family="Arial" font-size="14.00" fill="#000000">has&#45;accessible&#45;name.ts</text>
</g>
<!-- src/node.ts -->
<g id="node15" class="node">
<title>src/node.ts</title>
<path fill="#ff6c60" stroke="#000000" d="M885.83,-421.32C885.83,-421.32 840.17,-421.32 840.17,-421.32 836.33,-421.32 832.5,-417.48 832.5,-413.65 832.5,-413.65 832.5,-405.98 832.5,-405.98 832.5,-402.15 836.33,-398.32 840.17,-398.32 840.17,-398.32 885.83,-398.32 885.83,-398.32 889.67,-398.32 893.5,-402.15 893.5,-405.98 893.5,-405.98 893.5,-413.65 893.5,-413.65 893.5,-417.48 889.67,-421.32 885.83,-421.32"/>
<text text-anchor="middle" x="863" y="-406.12" font-family="Arial" font-size="14.00" fill="#000000">node.ts</text>
</g>
<!-- src/dom/predicate/has&#45;accessible&#45;name.ts&#45;&gt;src/node.ts -->
<!-- exit_src/dom/predicate -->
<!-- src/dom/predicate/has&#45;accessible&#45;name.ts&#45;&gt;exit_src/dom/predicate -->
<!-- name_src/dom/predicate -->
<g id="node2" class="node">
<title>name_src/dom/predicate</title>
<path fill="none" stroke="#0066ff" stroke-width="5" d="M2630.33,-657.32C2630.33,-657.32 2573.67,-657.32 2573.67,-657.32 2569.83,-657.32 2566,-653.48 2566,-649.65 2566,-649.65 2566,-641.98 2566,-641.98 2566,-638.15 2569.83,-634.32 2573.67,-634.32 2573.67,-634.32 2630.33,-634.32 2630.33,-634.32 2634.17,-634.32 2638,-638.15 2638,-641.98 2638,-641.98 2638,-649.65 2638,-649.65 2638,-653.48 2634.17,-657.32 2630.33,-657.32"/>
<text text-anchor="middle" x="2602" y="-642.12" font-family="Arial" font-size="14.00" fill="#000000">predicate</text>
</g>
<!-- src/dom/predicate/has&#45;explicit&#45;role.ts -->
<g id="node3" class="node">
<title>src/dom/predicate/has&#45;explicit&#45;role.ts</title>
<path fill="none" stroke="#000000" d="M2496.83,-598.32C2496.83,-598.32 2387.17,-598.32 2387.17,-598.32 2383.33,-598.32 2379.5,-594.48 2379.5,-590.65 2379.5,-590.65 2379.5,-582.98 2379.5,-582.98 2379.5,-579.15 2383.33,-575.32 2387.17,-575.32 2387.17,-575.32 2496.83,-575.32 2496.83,-575.32 2500.67,-575.32 2504.5,-579.15 2504.5,-582.98 2504.5,-582.98 2504.5,-590.65 2504.5,-590.65 2504.5,-594.48 2500.67,-598.32 2496.83,-598.32"/>
<text text-anchor="middle" x="2442" y="-583.12" font-family="Arial" font-size="14.00" fill="#000000">has&#45;explicit&#45;role.ts</text>
</g>
<!-- src/role.ts -->
<g id="node19" class="node">
<title>src/role.ts</title>
<path fill="#ff6c60" stroke="#000000" d="M901.33,-303.32C901.33,-303.32 862.67,-303.32 862.67,-303.32 858.83,-303.32 855,-299.48 855,-295.65 855,-295.65 855,-287.98 855,-287.98 855,-284.15 858.83,-280.32 862.67,-280.32 862.67,-280.32 901.33,-280.32 901.33,-280.32 905.17,-280.32 909,-284.15 909,-287.98 909,-287.98 909,-295.65 909,-295.65 909,-299.48 905.17,-303.32 901.33,-303.32"/>
<text text-anchor="middle" x="882" y="-288.12" font-family="Arial" font-size="14.00" fill="#000000">role.ts</text>
</g>
<!-- src/dom/predicate/has&#45;explicit&#45;role.ts&#45;&gt;src/role.ts -->
<!-- src/dom/predicate/has&#45;explicit&#45;role.ts&#45;&gt;exit_src/dom/predicate -->
<!-- src/dom/predicate/has&#45;heading&#45;level.ts -->
<g id="node4" class="node">
<title>src/dom/predicate/has&#45;heading&#45;level.ts</title>
<path fill="none" stroke="#000000" d="M1219.83,-598.32C1219.83,-598.32 1098.17,-598.32 1098.17,-598.32 1094.33,-598.32 1090.5,-594.48 1090.5,-590.65 1090.5,-590.65 1090.5,-582.98 1090.5,-582.98 1090.5,-579.15 1094.33,-575.32 1098.17,-575.32 1098.17,-575.32 1219.83,-575.32 1219.83,-575.32 1223.67,-575.32 1227.5,-579.15 1227.5,-582.98 1227.5,-582.98 1227.5,-590.65 1227.5,-590.65 1227.5,-594.48 1223.67,-598.32 1219.83,-598.32"/>
<text text-anchor="middle" x="1159" y="-583.12" font-family="Arial" font-size="14.00" fill="#000000">has&#45;heading&#45;level.ts</text>
</g>
<!-- src/dom/predicate/has&#45;heading&#45;level.ts&#45;&gt;src/node.ts -->
<!-- src/dom/predicate/has&#45;heading&#45;level.ts&#45;&gt;exit_src/dom/predicate -->
<!-- src/dom/predicate/has&#45;implicit&#45;role.ts -->
<g id="node5" class="node">
<title>src/dom/predicate/has&#45;implicit&#45;role.ts</title>
<path fill="none" stroke="#000000" d="M2661.33,-598.32C2661.33,-598.32 2550.67,-598.32 2550.67,-598.32 2546.83,-598.32 2543,-594.48 2543,-590.65 2543,-590.65 2543,-582.98 2543,-582.98 2543,-579.15 2546.83,-575.32 2550.67,-575.32 2550.67,-575.32 2661.33,-575.32 2661.33,-575.32 2665.17,-575.32 2669,-579.15 2669,-582.98 2669,-582.98 2669,-590.65 2669,-590.65 2669,-594.48 2665.17,-598.32 2661.33,-598.32"/>
<text text-anchor="middle" x="2606" y="-583.12" font-family="Arial" font-size="14.00" fill="#000000">has&#45;implicit&#45;role.ts</text>
</g>
<!-- src/dom/predicate/has&#45;implicit&#45;role.ts&#45;&gt;src/role.ts -->
<!-- src/dom/predicate/has&#45;implicit&#45;role.ts&#45;&gt;exit_src/dom/predicate -->
<!-- src/dom/predicate/has&#45;incorrect&#45;role&#45;without&#45;name.ts -->
<g id="node6" class="node">
<title>src/dom/predicate/has&#45;incorrect&#45;role&#45;without&#45;name.ts</title>
<path fill="none" stroke="#000000" d="M1758.33,-657.32C1758.33,-657.32 1551.67,-657.32 1551.67,-657.32 1547.83,-657.32 1544,-653.48 1544,-649.65 1544,-649.65 1544,-641.98 1544,-641.98 1544,-638.15 1547.83,-634.32 1551.67,-634.32 1551.67,-634.32 1758.33,-634.32 1758.33,-634.32 1762.17,-634.32 1766,-638.15 1766,-641.98 1766,-641.98 1766,-649.65 1766,-649.65 1766,-653.48 1762.17,-657.32 1758.33,-657.32"/>
<text text-anchor="middle" x="1655" y="-642.12" font-family="Arial" font-size="14.00" fill="#000000">has&#45;incorrect&#45;role&#45;without&#45;name.ts</text>
</g>
<!-- src/dom/predicate/has&#45;incorrect&#45;role&#45;without&#45;name.ts&#45;&gt;src/dom/predicate/has&#45;accessible&#45;name.ts -->
<!-- src/dom/predicate/has&#45;incorrect&#45;role&#45;without&#45;name.ts&#45;&gt;src/dom/predicate/has&#45;accessible&#45;name.ts -->
<g id="edge168" class="edge">
<title>src/dom/predicate/has&#45;incorrect&#45;role&#45;without&#45;name.ts&#45;&gt;src/dom/predicate/has&#45;accessible&#45;name.ts</title>
<path fill="none" stroke="black" d="M1598.36,-634.3C1555.38,-626.88 1495.02,-616.48 1442,-606.32 1432.46,-604.49 1422.35,-602.45 1412.39,-600.42"/>
<polygon fill="black" stroke="black" points="1413,-596.97 1402.51,-598.4 1411.6,-603.83 1413,-596.97"/>
</g>
<!-- src/dom/predicate/has&#45;incorrect&#45;role&#45;without&#45;name.ts&#45;&gt;src/dom/predicate/has&#45;explicit&#45;role.ts -->
<!-- src/dom/predicate/has&#45;incorrect&#45;role&#45;without&#45;name.ts&#45;&gt;src/dom/predicate/has&#45;explicit&#45;role.ts -->
<g id="edge170" class="edge">
<title>src/dom/predicate/has&#45;incorrect&#45;role&#45;without&#45;name.ts&#45;&gt;src/dom/predicate/has&#45;explicit&#45;role.ts</title>
<path fill="none" stroke="black" d="M1766.21,-641.75C1939.47,-636.37 2265.6,-624.11 2380,-606.32 2388.5,-604.99 2397.46,-603.08 2405.87,-600.98"/>
<polygon fill="black" stroke="black" points="2407.03,-604.3 2415.8,-598.36 2405.24,-597.53 2407.03,-604.3"/>
</g>
<!-- src/dom/predicate/has&#45;incorrect&#45;role&#45;without&#45;name.ts&#45;&gt;exit_src/dom/predicate -->
<!-- src/dom/predicate/has&#45;non&#45;default&#45;role.ts -->
<g id="node7" class="node">
<title>src/dom/predicate/has&#45;non&#45;default&#45;role.ts</title>
<path fill="none" stroke="#000000" d="M2540.33,-657.32C2540.33,-657.32 2403.67,-657.32 2403.67,-657.32 2399.83,-657.32 2396,-653.48 2396,-649.65 2396,-649.65 2396,-641.98 2396,-641.98 2396,-638.15 2399.83,-634.32 2403.67,-634.32 2403.67,-634.32 2540.33,-634.32 2540.33,-634.32 2544.17,-634.32 2548,-638.15 2548,-641.98 2548,-641.98 2548,-649.65 2548,-649.65 2548,-653.48 2544.17,-657.32 2540.33,-657.32"/>
<text text-anchor="middle" x="2472" y="-642.12" font-family="Arial" font-size="14.00" fill="#000000">has&#45;non&#45;default&#45;role.ts</text>
</g>
<!-- src/dom/predicate/has&#45;non&#45;default&#45;role.ts&#45;&gt;src/dom/predicate/has&#45;explicit&#45;role.ts -->
<!-- src/dom/predicate/has&#45;non&#45;default&#45;role.ts&#45;&gt;src/dom/predicate/has&#45;explicit&#45;role.ts -->
<g id="edge244" class="edge">
<title>src/dom/predicate/has&#45;non&#45;default&#45;role.ts&#45;&gt;src/dom/predicate/has&#45;explicit&#45;role.ts</title>
<path fill="none" stroke="black" d="M2471.77,-634.09C2469.09,-626.45 2463.9,-615.97 2458.46,-606.91"/>
<polygon fill="black" stroke="black" points="2461.39,-604.99 2453.02,-598.49 2455.51,-608.79 2461.39,-604.99"/>
</g>
<!-- src/dom/predicate/has&#45;non&#45;default&#45;role.ts&#45;&gt;src/dom/predicate/has&#45;implicit&#45;role.ts -->
<!-- src/dom/predicate/has&#45;non&#45;default&#45;role.ts&#45;&gt;src/dom/predicate/has&#45;implicit&#45;role.ts -->
<g id="edge246" class="edge">
<title>src/dom/predicate/has&#45;non&#45;default&#45;role.ts&#45;&gt;src/dom/predicate/has&#45;implicit&#45;role.ts</title>
<path fill="none" stroke="black" d="M2502.28,-634.23C2524.83,-625.31 2555.25,-612.46 2577.39,-602.54"/>
<polygon fill="black" stroke="black" points="2578.96,-605.67 2586.62,-598.35 2576.07,-599.29 2578.96,-605.67"/>
</g>
<!-- src/dom/predicate/has&#45;non&#45;default&#45;role.ts&#45;&gt;exit_src/dom/predicate -->
<!-- src/dom/predicate/has&#45;non&#45;empty&#45;accessible&#45;name.ts -->
<g id="node8" class="node">
<title>src/dom/predicate/has&#45;non&#45;empty&#45;accessible&#45;name.ts</title>
<path fill="none" stroke="#000000" d="M1451.33,-657.32C1451.33,-657.32 1238.67,-657.32 1238.67,-657.32 1234.83,-657.32 1231,-653.48 1231,-649.65 1231,-649.65 1231,-641.98 1231,-641.98 1231,-638.15 1234.83,-634.32 1238.67,-634.32 1238.67,-634.32 1451.33,-634.32 1451.33,-634.32 1455.17,-634.32 1459,-638.15 1459,-641.98 1459,-641.98 1459,-649.65 1459,-649.65 1459,-653.48 1455.17,-657.32 1451.33,-657.32"/>
<text text-anchor="middle" x="1345" y="-642.12" font-family="Arial" font-size="14.00" fill="#000000">has&#45;non&#45;empty&#45;accessible&#45;name.ts</text>
</g>
<!-- src/dom/predicate/has&#45;non&#45;empty&#45;accessible&#45;name.ts&#45;&gt;src/dom/predicate/has&#45;accessible&#45;name.ts -->
<!-- src/dom/predicate/has&#45;non&#45;empty&#45;accessible&#45;name.ts&#45;&gt;src/dom/predicate/has&#45;accessible&#45;name.ts -->
<g id="edge158" class="edge">
<title>src/dom/predicate/has&#45;non&#45;empty&#45;accessible&#45;name.ts&#45;&gt;src/dom/predicate/has&#45;accessible&#45;name.ts</title>
<path fill="none" stroke="black" d="M1350.41,-634.09C1351.67,-626.93 1352.04,-617.27 1351.53,-608.63"/>
<polygon fill="black" stroke="black" points="1354.98,-608.04 1350.4,-598.49 1348.03,-608.81 1354.98,-608.04"/>
</g>
<!-- src/dom/predicate/has&#45;non&#45;empty&#45;accessible&#45;name.ts&#45;&gt;exit_src/dom/predicate -->
<!-- src/dom/predicate/has&#45;role.ts -->
<g id="node9" class="node">
<title>src/dom/predicate/has&#45;role.ts</title>
<path fill="none" stroke="#000000" d="M1746.33,-598.32C1746.33,-598.32 1681.67,-598.32 1681.67,-598.32 1677.83,-598.32 1674,-594.48 1674,-590.65 1674,-590.65 1674,-582.98 1674,-582.98 1674,-579.15 1677.83,-575.32 1681.67,-575.32 1681.67,-575.32 1746.33,-575.32 1746.33,-575.32 1750.17,-575.32 1754,-579.15 1754,-582.98 1754,-582.98 1754,-590.65 1754,-590.65 1754,-594.48 1750.17,-598.32 1746.33,-598.32"/>
<text text-anchor="middle" x="1714" y="-583.12" font-family="Arial" font-size="14.00" fill="#000000">has&#45;role.ts</text>
</g>
<!-- src/dom/predicate/has&#45;role.ts&#45;&gt;src/node.ts -->
<!-- src/dom/predicate/has&#45;role.ts&#45;&gt;src/role.ts -->
<!-- src/dom/predicate/has&#45;role.ts&#45;&gt;exit_src/dom/predicate -->
<!-- src/dom/predicate/is&#45;included&#45;accessibility&#45;tree.ts -->
<g id="node10" class="node">
<title>src/dom/predicate/is&#45;included&#45;accessibility&#45;tree.ts</title>
<path fill="none" stroke="#000000" d="M2178.33,-598.32C2178.33,-598.32 1993.67,-598.32 1993.67,-598.32 1989.83,-598.32 1986,-594.48 1986,-590.65 1986,-590.65 1986,-582.98 1986,-582.98 1986,-579.15 1989.83,-575.32 1993.67,-575.32 1993.67,-575.32 2178.33,-575.32 2178.33,-575.32 2182.17,-575.32 2186,-579.15 2186,-582.98 2186,-582.98 2186,-590.65 2186,-590.65 2186,-594.48 2182.17,-598.32 2178.33,-598.32"/>
<text text-anchor="middle" x="2086" y="-583.12" font-family="Arial" font-size="14.00" fill="#000000">is&#45;included&#45;accessibility&#45;tree.ts</text>
</g>
<!-- src/index.ts -->
<g id="node50" class="node">
<title>src/index.ts</title>
<path fill="#ff6c60" stroke="#ff0000" stroke-width="5" d="M976.83,-362.32C976.83,-362.32 929.17,-362.32 929.17,-362.32 925.33,-362.32 921.5,-358.48 921.5,-354.65 921.5,-354.65 921.5,-346.98 921.5,-346.98 921.5,-343.15 925.33,-339.32 929.17,-339.32 929.17,-339.32 976.83,-339.32 976.83,-339.32 980.67,-339.32 984.5,-343.15 984.5,-346.98 984.5,-346.98 984.5,-354.65 984.5,-354.65 984.5,-358.48 980.67,-362.32 976.83,-362.32"/>
<text text-anchor="middle" x="953" y="-347.12" font-family="Arial" font-size="14.00" fill="#000000">index.ts</text>
</g>
<!-- src/dom/predicate/is&#45;included&#45;accessibility&#45;tree.ts&#45;&gt;src/index.ts -->
<!-- src/dom/predicate/is&#45;included&#45;accessibility&#45;tree.ts&#45;&gt;exit_src/dom/predicate -->
<!-- src/dom/predicate/is&#45;marked&#45;decorative.ts -->
<g id="node11" class="node">
<title>src/dom/predicate/is&#45;marked&#45;decorative.ts</title>
<path fill="none" stroke="#000000" d="M2354.33,-598.32C2354.33,-598.32 2211.67,-598.32 2211.67,-598.32 2207.83,-598.32 2204,-594.48 2204,-590.65 2204,-590.65 2204,-582.98 2204,-582.98 2204,-579.15 2207.83,-575.32 2211.67,-575.32 2211.67,-575.32 2354.33,-575.32 2354.33,-575.32 2358.17,-575.32 2362,-579.15 2362,-582.98 2362,-582.98 2362,-590.65 2362,-590.65 2362,-594.48 2358.17,-598.32 2354.33,-598.32"/>
<text text-anchor="middle" x="2283" y="-583.12" font-family="Arial" font-size="14.00" fill="#000000">is&#45;marked&#45;decorative.ts</text>
</g>
<!-- src/dom/predicate/is&#45;marked&#45;decorative.ts&#45;&gt;src/role.ts -->
<!-- src/dom/predicate/is&#45;marked&#45;decorative.ts&#45;&gt;exit_src/dom/predicate -->
<!-- src/dom/predicate/is&#45;perceivable.ts -->
<g id="node12" class="node">
<title>src/dom/predicate/is&#45;perceivable.ts</title>
<path fill="none" stroke="#000000" d="M2135.33,-657.32C2135.33,-657.32 2036.67,-657.32 2036.67,-657.32 2032.83,-657.32 2029,-653.48 2029,-649.65 2029,-649.65 2029,-641.98 2029,-641.98 2029,-638.15 2032.83,-634.32 2036.67,-634.32 2036.67,-634.32 2135.33,-634.32 2135.33,-634.32 2139.17,-634.32 2143,-638.15 2143,-641.98 2143,-641.98 2143,-649.65 2143,-649.65 2143,-653.48 2139.17,-657.32 2135.33,-657.32"/>
<text text-anchor="middle" x="2086" y="-642.12" font-family="Arial" font-size="14.00" fill="#000000">is&#45;perceivable.ts</text>
</g>
<!-- src/dom/predicate/is&#45;perceivable.ts&#45;&gt;src/dom/predicate/is&#45;included&#45;accessibility&#45;tree.ts -->
<!-- src/dom/predicate/is&#45;perceivable.ts&#45;&gt;src/dom/predicate/is&#45;included&#45;accessibility&#45;tree.ts -->
<g id="edge145" class="edge">
<title>src/dom/predicate/is&#45;perceivable.ts&#45;&gt;src/dom/predicate/is&#45;included&#45;accessibility&#45;tree.ts</title>
<path fill="none" stroke="black" d="M2091.41,-634.09C2092.67,-626.93 2093.04,-617.27 2092.53,-608.63"/>
<polygon fill="black" stroke="black" points="2095.98,-608.04 2091.4,-598.49 2089.03,-608.81 2095.98,-608.04"/>
</g>
<!-- src/dom/predicate/is&#45;perceivable.ts&#45;&gt;exit_src/dom/predicate -->
<!-- src/dom/predicate/is&#45;programmatically&#45;hidden.ts -->
<g id="node13" class="node">
<title>src/dom/predicate/is&#45;programmatically&#45;hidden.ts</title>
<path fill="none" stroke="#000000" d="M1628.33,-598.32C1628.33,-598.32 1449.67,-598.32 1449.67,-598.32 1445.83,-598.32 1442,-594.48 1442,-590.65 1442,-590.65 1442,-582.98 1442,-582.98 1442,-579.15 1445.83,-575.32 1449.67,-575.32 1449.67,-575.32 1628.33,-575.32 1628.33,-575.32 1632.17,-575.32 1636,-579.15 1636,-582.98 1636,-582.98 1636,-590.65 1636,-590.65 1636,-594.48 1632.17,-598.32 1628.33,-598.32"/>
<text text-anchor="middle" x="1539" y="-583.12" font-family="Arial" font-size="14.00" fill="#000000">is&#45;programmatically&#45;hidden.ts</text>
</g>
<!-- src/dom/predicate/is&#45;programmatically&#45;hidden.ts&#45;&gt;exit_src/dom/predicate -->
<!-- src/dom/predicate/is&#45;semantically&#45;disabled.ts -->
<g id="node14" class="node">
<title>src/dom/predicate/is&#45;semantically&#45;disabled.ts</title>
<path fill="none" stroke="#000000" d="M1939.83,-598.32C1939.83,-598.32 1780.17,-598.32 1780.17,-598.32 1776.33,-598.32 1772.5,-594.48 1772.5,-590.65 1772.5,-590.65 1772.5,-582.98 1772.5,-582.98 1772.5,-579.15 1776.33,-575.32 1780.17,-575.32 1780.17,-575.32 1939.83,-575.32 1939.83,-575.32 1943.67,-575.32 1947.5,-579.15 1947.5,-582.98 1947.5,-582.98 1947.5,-590.65 1947.5,-590.65 1947.5,-594.48 1943.67,-598.32 1939.83,-598.32"/>
<text text-anchor="middle" x="1860" y="-583.12" font-family="Arial" font-size="14.00" fill="#000000">is&#45;semantically&#45;disabled.ts</text>
</g>
<!-- src/dom/predicate/is&#45;semantically&#45;disabled.ts&#45;&gt;exit_src/dom/predicate -->
<!-- name_src/name -->
<g id="node18" class="node">
<title>name_src/name</title>
<path fill="none" stroke="#cc00ff" stroke-width="5" d="M657.33,-421.32C657.33,-421.32 618.67,-421.32 618.67,-421.32 614.83,-421.32 611,-417.48 611,-413.65 611,-413.65 611,-405.98 611,-405.98 611,-402.15 614.83,-398.32 618.67,-398.32 618.67,-398.32 657.33,-398.32 657.33,-398.32 661.17,-398.32 665,-402.15 665,-405.98 665,-405.98 665,-413.65 665,-413.65 665,-417.48 661.17,-421.32 657.33,-421.32"/>
<text text-anchor="middle" x="638" y="-406.12" font-family="Arial" font-size="14.00" fill="#000000">name</text>
</g>
<!-- src/node.ts&#45;&gt;name_src/name -->
<g id="edge260" class="edge">
<title>src/node.ts&#45;&gt;name_src/name</title>
<path fill="none" stroke="#ff0000" d="M832.49,-409.82C780.12,-409.82 727.74,-409.82 675.37,-409.82"/>
<polygon fill="#ff0000" stroke="#ff0000" points="683,-406.32 673,-409.82 683,-413.32 683,-406.32"/>
</g>
<!-- src/node.ts&#45;&gt;src/role.ts -->
<!-- src/node.ts&#45;&gt;src/role.ts -->
<g id="edge263" class="edge">
<title>src/node.ts&#45;&gt;src/role.ts</title>
<path fill="none" stroke="black" d="M868.87,-398.11C875.06,-378.95 882.09,-338.47 883.91,-313.66"/>
<polygon fill="black" stroke="black" points="887.42,-313.64 884.36,-303.5 880.42,-313.33 887.42,-313.64"/>
</g>
<!-- src/attribute.ts -->
<g id="node22" class="node">
<title>src/attribute.ts</title>
<path fill="#ff6c60" stroke="#000000" d="M812.33,-185.32C812.33,-185.32 747.67,-185.32 747.67,-185.32 743.83,-185.32 740,-181.48 740,-177.65 740,-177.65 740,-169.98 740,-169.98 740,-166.15 743.83,-162.32 747.67,-162.32 747.67,-162.32 812.33,-162.32 812.33,-162.32 816.17,-162.32 820,-166.15 820,-169.98 820,-169.98 820,-177.65 820,-177.65 820,-181.48 816.17,-185.32 812.33,-185.32"/>
<text text-anchor="middle" x="780" y="-170.12" font-family="Arial" font-size="14.00" fill="#000000">attribute.ts</text>
</g>
<!-- src/node.ts&#45;&gt;src/attribute.ts -->
<!-- src/node.ts&#45;&gt;src/attribute.ts -->
<g id="edge255" class="edge">
<title>src/node.ts&#45;&gt;src/attribute.ts</title>
<path fill="none" stroke="black" d="M854.19,-398.14C830.08,-375.16 766.31,-317.77 744,-252.32 738.41,-235.91 736.75,-229.06 744,-213.32 747.81,-205.04 754.37,-197.88 760.95,-192.06"/>
<polygon fill="black" stroke="black" points="763.56,-194.45 769.09,-185.41 759.13,-189.03 763.56,-194.45"/>
</g>
<!-- src/feature.ts -->
<g id="node31" class="node">
<title>src/feature.ts</title>
<path fill="#ff6c60" stroke="#000000" d="M808.83,-244.32C808.83,-244.32 751.17,-244.32 751.17,-244.32 747.33,-244.32 743.5,-240.48 743.5,-236.65 743.5,-236.65 743.5,-228.98 743.5,-228.98 743.5,-225.15 747.33,-221.32 751.17,-221.32 751.17,-221.32 808.83,-221.32 808.83,-221.32 812.67,-221.32 816.5,-225.15 816.5,-228.98 816.5,-228.98 816.5,-236.65 816.5,-236.65 816.5,-240.48 812.67,-244.32 808.83,-244.32"/>
<text text-anchor="middle" x="780" y="-229.12" font-family="Arial" font-size="14.00" fill="#000000">feature.ts</text>
</g>
<!-- src/node.ts&#45;&gt;src/feature.ts -->
<!-- src/node.ts&#45;&gt;src/feature.ts -->
<g id="edge257" class="edge">
<title>src/node.ts&#45;&gt;src/feature.ts</title>
<path fill="none" stroke="black" d="M861.38,-398.13C851.79,-369.39 814.5,-290.07 793.61,-253.17"/>
<polygon fill="black" stroke="black" points="796.51,-251.21 788.43,-244.36 790.48,-254.75 796.51,-251.21"/>
</g>
<!-- name_src/node -->
<g id="node40" class="node">
<title>name_src/node</title>
<path fill="none" stroke="#ccff00" stroke-width="5" d="M826.33,-657.32C826.33,-657.32 787.67,-657.32 787.67,-657.32 783.83,-657.32 780,-653.48 780,-649.65 780,-649.65 780,-641.98 780,-641.98 780,-638.15 783.83,-634.32 787.67,-634.32 787.67,-634.32 826.33,-634.32 826.33,-634.32 830.17,-634.32 834,-638.15 834,-641.98 834,-641.98 834,-649.65 834,-649.65 834,-653.48 830.17,-657.32 826.33,-657.32"/>
<text text-anchor="middle" x="807" y="-642.12" font-family="Arial" font-size="14.00" fill="#000000">node</text>
</g>
<!-- src/node.ts&#45;&gt;name_src/node -->
<g id="edge261" class="edge">
<title>src/node.ts&#45;&gt;name_src/node</title>
<path fill="none" stroke="#ff0000" d="M873.31,-421.61C879.46,-428.82 886.71,-438.88 890,-449.32 902.04,-487.46 902.3,-501.59 889,-539.32 880.59,-563.19 864.45,-585.88 848.7,-604.05"/>
<polygon fill="#ff0000" stroke="#ff0000" points="846.05,-601.77 842,-611.56 851.27,-606.43 846.05,-601.77"/>
</g>
<!-- src/node.ts&#45;&gt;src/index.ts -->
<!-- src/node.ts&#45;&gt;src/index.ts -->
<g id="edge259" class="edge">
<title>src/node.ts&#45;&gt;src/index.ts</title>
<path fill="none" stroke="black" d="M893.64,-399.28C911.53,-391.04 931.71,-378.93 944.62,-369"/>
<polygon fill="black" stroke="black" points="946.89,-371.67 952.29,-362.55 942.38,-366.31 946.89,-371.67"/>
</g>
<!-- exit_src -->
<!-- src/node.ts&#45;&gt;exit_src -->
<!-- exit_src/node -->
<!-- exit_src/node&#45;&gt;src/node.ts -->
<g id="edge140" class="edge">
<title>exit_src/node&#45;&gt;src/node.ts</title>
<path fill="none" stroke="#ccff00" d="M664,-449.32C713.15,-434.24 772.72,-419.52 822.17,-413.57"/>
<polygon fill="#ccff00" stroke="#ccff00" points="822.68,-417.04 832.24,-412.47 821.92,-410.08 822.68,-417.04"/>
</g>
<!-- exit_src/node&#45;&gt;src/node.ts -->
<!-- exit_src/node&#45;&gt;src/node.ts -->
<!-- exit_src/node&#45;&gt;src/node.ts -->
<!-- exit_src/node&#45;&gt;src/node.ts -->
<!-- exit_src/node&#45;&gt;src/node.ts -->
<!-- exit_src/node&#45;&gt;src/node.ts -->
<!-- exit_src/node&#45;&gt;name_src/name -->
<g id="edge141" class="edge">
<title>exit_src/node&#45;&gt;name_src/name</title>
<path fill="none" stroke="#ccff00" d="M643.5,-449.32C639.87,-443.57 636.76,-437.21 634.7,-431.34"/>
<polygon fill="#ccff00" stroke="#ccff00" points="641.93,-435.4 633.25,-429.32 636.24,-439.48 641.93,-435.4"/>
</g>
<!-- exit_src/node&#45;&gt;name_src/name -->
<!-- exit_src/node&#45;&gt;name_src/name -->
<!-- exit_src/node&#45;&gt;src/role.ts -->
<g id="edge156" class="edge">
<title>exit_src/node&#45;&gt;src/role.ts</title>
<path fill="none" stroke="#ccff00" d="M694.03,-449.32C703.17,-443.93 712.61,-437.3 720,-429.32 749.63,-397.34 728.3,-370.26 759,-339.32 781.51,-316.63 817,-304.12 844.81,-297.94"/>
<polygon fill="#ccff00" stroke="#ccff00" points="845.57,-301.36 854.67,-295.94 844.18,-294.5 845.57,-301.36"/>
</g>
<!-- exit_src/node&#45;&gt;src/role.ts -->
<!-- exit_src/node&#45;&gt;src/role.ts -->
<!-- exit_src/node&#45;&gt;src/attribute.ts -->
<g id="edge151" class="edge">
<title>exit_src/node&#45;&gt;src/attribute.ts</title>
<path fill="none" stroke="#ccff00" stroke-dasharray="1,5" d="M669.99,-449.32C673.46,-443.21 677.38,-436.21 680,-429.32 714.63,-338.28 665.22,-295.81 717,-213.32 722.81,-204.06 731.74,-196.37 741.13,-190.36"/>
<polygon fill="#ccff00" stroke="#ccff00" points="742.92,-193.37 749.81,-185.32 739.41,-187.32 742.92,-193.37"/>
</g>
<!-- exit_src/node&#45;&gt;src/attribute.ts -->
<!-- name_src/role -->
<g id="node30" class="node">
<title>name_src/role</title>
<path fill="none" stroke="#3300ff" stroke-width="5" d="M993.33,-303.32C993.33,-303.32 954.67,-303.32 954.67,-303.32 950.83,-303.32 947,-299.48 947,-295.65 947,-295.65 947,-287.98 947,-287.98 947,-284.15 950.83,-280.32 954.67,-280.32 954.67,-280.32 993.33,-280.32 993.33,-280.32 997.17,-280.32 1001,-284.15 1001,-287.98 1001,-287.98 1001,-295.65 1001,-295.65 1001,-299.48 997.17,-303.32 993.33,-303.32"/>
<text text-anchor="middle" x="974" y="-288.12" font-family="Arial" font-size="14.00" fill="#000000">role</text>
</g>
<!-- exit_src/node&#45;&gt;name_src/role -->
<g id="edge178" class="edge">
<title>exit_src/node&#45;&gt;name_src/role</title>
<path fill="none" stroke="#ccff00" d="M717.43,-449.32C741.82,-440.52 765.96,-431.45 768,-429.32 778,-418.85 767.58,-408.36 778,-398.32 810.92,-366.58 844.08,-402.06 877,-370.32 887.42,-360.27 877.57,-350.3 887,-339.32 902.72,-321.01 914.93,-323.44 933.82,-315.7"/>
<polygon fill="#ccff00" stroke="#ccff00" points="935.48,-318.78 943,-311.32 932.47,-312.47 935.48,-318.78"/>
</g>
<!-- exit_src/node&#45;&gt;exit_src -->
<!-- exit_src/node&#45;&gt;exit_src -->
<!-- exit_src/node&#45;&gt;exit_src -->
<!-- exit_src/node&#45;&gt;exit_src -->
<!-- exit_src/node&#45;&gt;exit_src -->
<!-- exit_src/node&#45;&gt;exit_src -->
<!-- exit_src/node&#45;&gt;exit_src -->
<!-- exit_src/node&#45;&gt;exit_src -->
<!-- src/name/index.ts -->
<g id="node17" class="node">
<title>src/name/index.ts</title>
<path fill="#ff6c60" stroke="#cc00ff" stroke-width="5" d="M584.83,-421.32C584.83,-421.32 537.17,-421.32 537.17,-421.32 533.33,-421.32 529.5,-417.48 529.5,-413.65 529.5,-413.65 529.5,-405.98 529.5,-405.98 529.5,-402.15 533.33,-398.32 537.17,-398.32 537.17,-398.32 584.83,-398.32 584.83,-398.32 588.67,-398.32 592.5,-402.15 592.5,-405.98 592.5,-405.98 592.5,-413.65 592.5,-413.65 592.5,-417.48 588.67,-421.32 584.83,-421.32"/>
<text text-anchor="middle" x="561" y="-406.12" font-family="Arial" font-size="14.00" fill="#000000">index.ts</text>
</g>
<!-- src/name/name.ts -->
<g id="node24" class="node">
<title>src/name/name.ts</title>
<path fill="#ff6c60" stroke="#000000" d="M616.83,-244.32C616.83,-244.32 567.17,-244.32 567.17,-244.32 563.33,-244.32 559.5,-240.48 559.5,-236.65 559.5,-236.65 559.5,-228.98 559.5,-228.98 559.5,-225.15 563.33,-221.32 567.17,-221.32 567.17,-221.32 616.83,-221.32 616.83,-221.32 620.67,-221.32 624.5,-225.15 624.5,-228.98 624.5,-228.98 624.5,-236.65 624.5,-236.65 624.5,-240.48 620.67,-244.32 616.83,-244.32"/>
<text text-anchor="middle" x="592" y="-229.12" font-family="Arial" font-size="14.00" fill="#000000">name.ts</text>
</g>
<!-- src/name/index.ts&#45;&gt;src/name/name.ts -->
<!-- src/name/index.ts&#45;&gt;src/name/name.ts -->
<g id="edge161" class="edge">
<title>src/name/index.ts&#45;&gt;src/name/name.ts</title>
<path fill="none" stroke="black" d="M566.34,-398.13C575.36,-369.75 589.49,-292.09 592.87,-254.6"/>
<polygon fill="black" stroke="black" points="596.38,-254.57 593.56,-244.36 589.4,-254.1 596.38,-254.57"/>
</g>
<!-- name_src/name/predicate -->
<g id="node26" class="node">
<title>name_src/name/predicate</title>
<path fill="none" stroke="#00ff66" stroke-width="5" d="M513.33,-362.32C513.33,-362.32 456.67,-362.32 456.67,-362.32 452.83,-362.32 449,-358.48 449,-354.65 449,-354.65 449,-346.98 449,-346.98 449,-343.15 452.83,-339.32 456.67,-339.32 456.67,-339.32 513.33,-339.32 513.33,-339.32 517.17,-339.32 521,-343.15 521,-346.98 521,-346.98 521,-354.65 521,-354.65 521,-358.48 517.17,-362.32 513.33,-362.32"/>
<text text-anchor="middle" x="485" y="-347.12" font-family="Arial" font-size="14.00" fill="#000000">predicate</text>
</g>
<!-- src/name/index.ts&#45;&gt;name_src/name/predicate -->
<g id="edge162" class="edge">
<title>src/name/index.ts&#45;&gt;name_src/name/predicate</title>
<path fill="none" stroke="#cc00ff" d="M546.7,-398.09C538.57,-391.99 528.02,-384.08 517.95,-376.52"/>
<polygon fill="#cc00ff" stroke="#cc00ff" points="519.76,-373.51 509.66,-370.31 515.56,-379.11 519.76,-373.51"/>
</g>
<!-- src/name/source.ts -->
<g id="node27" class="node">
<title>src/name/source.ts</title>
<path fill="none" stroke="#000000" d="M636.83,-185.32C636.83,-185.32 581.17,-185.32 581.17,-185.32 577.33,-185.32 573.5,-181.48 573.5,-177.65 573.5,-177.65 573.5,-169.98 573.5,-169.98 573.5,-166.15 577.33,-162.32 581.17,-162.32 581.17,-162.32 636.83,-162.32 636.83,-162.32 640.67,-162.32 644.5,-166.15 644.5,-169.98 644.5,-169.98 644.5,-177.65 644.5,-177.65 644.5,-181.48 640.67,-185.32 636.83,-185.32"/>
<text text-anchor="middle" x="609" y="-170.12" font-family="Arial" font-size="14.00" fill="#000000">source.ts</text>
</g>
<!-- src/name/index.ts&#45;&gt;src/name/source.ts -->
<!-- src/name/index.ts&#45;&gt;src/name/source.ts -->
<g id="edge164" class="edge">
<title>src/name/index.ts&#45;&gt;src/name/source.ts</title>
<path fill="none" stroke="black" d="M572.8,-398.03C592.76,-373.45 630.02,-310.86 643,-252.32 646.75,-235.39 647.92,-229.94 643,-213.32 640.93,-206.33 637.16,-199.43 632.74,-193.44"/>
<polygon fill="black" stroke="black" points="635.08,-190.79 625.95,-185.41 629.74,-195.31 635.08,-190.79"/>
</g>
<!-- src/name/state.ts -->
<g id="node28" class="node">
<title>src/name/state.ts</title>
<path fill="none" stroke="#000000" d="M527.33,-185.32C527.33,-185.32 482.67,-185.32 482.67,-185.32 478.83,-185.32 475,-181.48 475,-177.65 475,-177.65 475,-169.98 475,-169.98 475,-166.15 478.83,-162.32 482.67,-162.32 482.67,-162.32 527.33,-162.32 527.33,-162.32 531.17,-162.32 535,-166.15 535,-169.98 535,-169.98 535,-177.65 535,-177.65 535,-181.48 531.17,-185.32 527.33,-185.32"/>
<text text-anchor="middle" x="505" y="-170.12" font-family="Arial" font-size="14.00" fill="#000000">state.ts</text>
</g>
<!-- src/name/index.ts&#45;&gt;src/name/state.ts -->
<!-- src/name/index.ts&#45;&gt;src/name/state.ts -->
<g id="edge166" class="edge">
<title>src/name/index.ts&#45;&gt;src/name/state.ts</title>
<path fill="none" stroke="black" d="M565.34,-398.18C570.56,-368 568.95,-279.72 542,-213.32 539.09,-206.16 534.58,-199.09 529.57,-193"/>
<polygon fill="black" stroke="black" points="531.91,-190.37 522.55,-185.4 526.76,-195.12 531.91,-190.37"/>
</g>
<!-- exit_src/name -->
<!-- src/name/index.ts&#45;&gt;exit_src/name -->
<!-- src/role.ts&#45;&gt;src/attribute.ts -->
<!-- src/role.ts&#45;&gt;src/attribute.ts -->
<g id="edge180" class="edge">
<title>src/role.ts&#45;&gt;src/attribute.ts</title>
<path fill="none" stroke="black" stroke-dasharray="1,5" d="M865.47,-280.27C857.63,-272.67 849.02,-262.07 842,-252.32 829.97,-235.61 830.61,-228.77 817,-213.32 810.37,-205.79 802.22,-198.48 795.11,-192.28"/>
<polygon fill="black" stroke="black" points="797.24,-189.49 787.39,-185.58 792.65,-194.78 797.24,-189.49"/>
</g>
<!-- src/role.ts&#45;&gt;name_src/role -->
<g id="edge183" class="edge">
<title>src/role.ts&#45;&gt;name_src/role</title>
<path fill="none" stroke="#ff0000" d="M909.31,-284.61C918.53,-283.21 927.75,-282.85 936.96,-283.52"/>
<polygon fill="#ff0000" stroke="#ff0000" points="928.56,-282.84 939,-284.66 931.98,-276.72 928.56,-282.84"/>
</g>
<!-- src/role.ts&#45;&gt;name_src/role -->
<!-- src/role.ts&#45;&gt;src/feature.ts -->
<!-- src/role.ts&#45;&gt;src/feature.ts -->
<g id="edge182" class="edge">
<title>src/role.ts&#45;&gt;src/feature.ts</title>
<path fill="none" stroke="black" d="M857.67,-280.23C840.83,-271.67 818.78,-259.49 802.39,-249.75"/>
<polygon fill="black" stroke="black" points="803.83,-246.54 793.47,-244.35 800.21,-252.52 803.83,-246.54"/>
</g>
<!-- src/role.ts&#45;&gt;exit_src -->
<!-- exit_src/dom -->
<!-- exit_src/dom&#45;&gt;src/node.ts -->
<g id="edge186" class="edge">
<title>exit_src/dom&#45;&gt;src/node.ts</title>
<path fill="none" stroke="#33ff00" d="M1100,-449.32C1031.88,-432 951.42,-421.44 903.51,-415.87"/>
<polygon fill="#33ff00" stroke="#33ff00" points="903.85,-412.38 893.51,-414.72 903.05,-419.34 903.85,-412.38"/>
</g>
<!-- exit_src/dom&#45;&gt;src/node.ts -->
<!-- exit_src/dom&#45;&gt;src/node.ts -->
<!-- exit_src/dom&#45;&gt;name_src/name -->
<g id="edge159" class="edge">
<title>exit_src/dom&#45;&gt;name_src/name</title>
<path fill="none" stroke="#33ff00" d="M1062,-462.52C933.29,-455.56 727.48,-442.91 670.13,-431.75"/>
<polygon fill="#33ff00" stroke="#33ff00" points="670.54,-428.25 660,-429.32 668.91,-435.05 670.54,-428.25"/>
</g>
<!-- exit_src/dom&#45;&gt;name_src/name -->
<!-- exit_src/dom&#45;&gt;src/role.ts -->
<g id="edge147" class="edge">
<title>exit_src/dom&#45;&gt;src/role.ts</title>
<path fill="none" stroke="#33ff00" d="M1132.2,-449.32C1114.15,-434.37 1094.78,-413.41 1075,-398.32 1031.52,-365.13 1016.33,-362.95 967,-339.32 943.18,-327.9 915.81,-316.51 897.27,-307.86"/>
<polygon fill="#33ff00" stroke="#33ff00" points="898.72,-304.67 888.19,-303.47 895.68,-310.98 898.72,-304.67"/>
</g>
<!-- exit_src/dom&#45;&gt;src/role.ts -->
<!-- exit_src/dom&#45;&gt;src/role.ts -->
<!-- exit_src/dom&#45;&gt;src/role.ts -->
<!-- exit_src/dom&#45;&gt;name_src/role -->
<g id="edge189" class="edge">
<title>exit_src/dom&#45;&gt;name_src/role</title>
<path fill="none" stroke="#33ff00" d="M1165.65,-449.32C1163.98,-434.15 1164.21,-412.87 1175,-398.32 1194.96,-371.4 1226.21,-398.06 1245,-370.32 1252.72,-358.91 1253.88,-349.85 1245,-339.32 1242.47,-336.31 1170.9,-324.11 1101.95,-312.95"/>
<polygon fill="#33ff00" stroke="#33ff00" points="1102.23,-309.45 1091.8,-311.31 1101.12,-316.36 1102.23,-309.45"/>
</g>
<!-- exit_src/dom&#45;&gt;name_src/node -->
<g id="edge253" class="edge">
<title>exit_src/dom&#45;&gt;name_src/node</title>
<path fill="none" stroke="#33ff00" d="M1062,-512.93C1023.54,-544.54 1033.76,-578.39 988,-606.32 943.63,-633.39 883.05,-641.62 844.47,-644.01"/>
<polygon fill="#33ff00" stroke="#33ff00" points="851.04,-639.02 842,-644.54 852.51,-645.86 851.04,-639.02"/>
</g>
<!-- exit_src/dom&#45;&gt;src/index.ts -->
<g id="edge265" class="edge">
<title>exit_src/dom&#45;&gt;src/index.ts</title>
<path fill="none" stroke="#33ff00" d="M1145.53,-449.32C1121.04,-430.1 1085.19,-402.28 1078,-398.32 1051.42,-383.65 1019.28,-371.81 994.25,-363.75"/>
<polygon fill="#33ff00" stroke="#33ff00" points="995.28,-360.4 984.69,-360.74 993.18,-367.08 995.28,-360.4"/>
</g>
<!-- exit_src/dom&#45;&gt;exit_src -->
<!-- exit_src/dom&#45;&gt;exit_src -->
<!-- exit_src/dom&#45;&gt;exit_src -->
<!-- exit_src/dom&#45;&gt;exit_src -->
<!-- exit_src/dom&#45;&gt;exit_src -->
<!-- exit_src/dom&#45;&gt;exit_src -->
<!-- exit_src/dom&#45;&gt;exit_src -->
<!-- exit_src/dom&#45;&gt;exit_src -->
<!-- exit_src/dom&#45;&gt;exit_src -->
<!-- exit_src/dom&#45;&gt;exit_src -->
<!-- exit_src/dom&#45;&gt;exit_src -->
<!-- exit_src/dom&#45;&gt;exit_src -->
<!-- exit_src/dom&#45;&gt;exit_src -->
<!-- exit_src/dom&#45;&gt;exit_src -->
<!-- exit_src/role -->
<!-- exit_src/role&#45;&gt;src/role.ts -->
<g id="edge149" class="edge">
<title>exit_src/role&#45;&gt;src/role.ts</title>
<path fill="none" stroke="#3300ff" stroke-dasharray="1,5" d="M939,-158.36C913.02,-187.22 941.69,-215.01 921,-252.32 916.72,-260.04 910.41,-267.22 904.12,-273.24"/>
<polygon fill="#3300ff" stroke="#3300ff" points="901.44,-270.94 896.3,-280.2 906.1,-276.17 901.44,-270.94"/>
</g>
<!-- exit_src/role&#45;&gt;exit_src -->
<!-- exit_src/role&#45;&gt;exit_src -->
<!-- exit_src/role&#45;&gt;exit_src -->
<!-- src/attribute.ts&#45;&gt;src/role.ts -->
<!-- src/attribute.ts&#45;&gt;src/role.ts -->
<g id="edge200" class="edge">
<title>src/attribute.ts&#45;&gt;src/role.ts</title>
<path fill="none" stroke="black" d="M817.93,-185.42C831.42,-192.64 843.71,-202.76 853,-213.32 866.61,-228.77 865.97,-235.61 878,-252.32 882.5,-258.56 887.65,-265.16 891.28,-271.09"/>
<polygon fill="black" stroke="black" points="888.17,-272.7 895.58,-280.27 894.51,-269.73 888.17,-272.7"/>
</g>
<!-- src/attribute.ts&#45;&gt;name_src/role -->
<g id="edge201" class="edge">
<title>src/attribute.ts&#45;&gt;name_src/role</title>
<path fill="none" stroke="#ff0000" stroke-dasharray="1,5" d="M804.97,-185.46C821.25,-192.69 842.78,-202.83 861,-213.32 884.81,-227.02 910.13,-244.14 930.76,-258.79"/>
<polygon fill="#ff0000" stroke="#ff0000" points="928.83,-261.72 939,-264.69 932.91,-256.03 928.83,-261.72"/>
</g>
<!-- name_src/attribute -->
<g id="node35" class="node">
<title>name_src/attribute</title>
<path fill="none" stroke="#ff0099" stroke-width="5" d="M246.83,-185.32C246.83,-185.32 197.17,-185.32 197.17,-185.32 193.33,-185.32 189.5,-181.48 189.5,-177.65 189.5,-177.65 189.5,-169.98 189.5,-169.98 189.5,-166.15 193.33,-162.32 197.17,-162.32 197.17,-162.32 246.83,-162.32 246.83,-162.32 250.67,-162.32 254.5,-166.15 254.5,-169.98 254.5,-169.98 254.5,-177.65 254.5,-177.65 254.5,-181.48 250.67,-185.32 246.83,-185.32"/>
<text text-anchor="middle" x="222" y="-170.12" font-family="Arial" font-size="14.00" fill="#000000">attribute</text>
</g>
<!-- src/attribute.ts&#45;&gt;name_src/attribute -->
<g id="edge198" class="edge">
<title>src/attribute.ts&#45;&gt;name_src/attribute</title>
<path fill="none" stroke="#ff0000" d="M755.09,-185.46C739.38,-192.15 718.45,-199.88 699,-203.32 622.19,-216.87 425.48,-212.27 348,-203.32 319.78,-200.06 288.7,-192.82 264.47,-186.33"/>
<polygon fill="#ff0000" stroke="#ff0000" points="273.52,-186.88 263,-185.61 270.43,-193.16 273.52,-186.88"/>
</g>
<!-- src/attribute.ts&#45;&gt;exit_src -->
<!-- src/name/predicate/has&#45;value.ts -->
<g id="node23" class="node">
<title>src/name/predicate/has&#45;value.ts</title>
<path fill="none" stroke="#000000" d="M480.83,-303.32C480.83,-303.32 407.17,-303.32 407.17,-303.32 403.33,-303.32 399.5,-299.48 399.5,-295.65 399.5,-295.65 399.5,-287.98 399.5,-287.98 399.5,-284.15 403.33,-280.32 407.17,-280.32 407.17,-280.32 480.83,-280.32 480.83,-280.32 484.67,-280.32 488.5,-284.15 488.5,-287.98 488.5,-287.98 488.5,-295.65 488.5,-295.65 488.5,-299.48 484.67,-303.32 480.83,-303.32"/>
<text text-anchor="middle" x="444" y="-288.12" font-family="Arial" font-size="14.00" fill="#000000">has&#45;value.ts</text>
</g>
<!-- src/name/predicate/has&#45;value.ts&#45;&gt;src/name/name.ts -->
<!-- exit_src/name/predicate -->
<!-- src/name/predicate/has&#45;value.ts&#45;&gt;exit_src/name/predicate -->
<!-- src/name/name.ts&#45;&gt;src/role.ts -->
<!-- src/name/name.ts&#45;&gt;name_src/name/predicate -->
<g id="edge209" class="edge">
<title>src/name/name.ts&#45;&gt;name_src/name/predicate</title>
<path fill="none" stroke="#cc00ff" d="M582.15,-244.5C571.45,-256.1 553.52,-275.54 535.95,-294.58"/>
<polygon fill="#cc00ff" stroke="#cc00ff" points="533.2,-292.4 529,-302.12 538.35,-297.14 533.2,-292.4"/>
</g>
<!-- src/name/name.ts&#45;&gt;src/name/source.ts -->
<!-- src/name/name.ts&#45;&gt;src/name/source.ts -->
<g id="edge211" class="edge">
<title>src/name/name.ts&#45;&gt;src/name/source.ts</title>
<path fill="none" stroke="black" d="M589.79,-221.09C590.7,-213.69 593.35,-203.62 596.58,-194.77"/>
<polygon fill="black" stroke="black" points="599.83,-196.07 600.41,-185.49 593.36,-193.39 599.83,-196.07"/>
</g>
<!-- src/name/name.ts&#45;&gt;src/name/state.ts -->
<!-- src/name/name.ts&#45;&gt;src/name/state.ts -->
<g id="edge213" class="edge">
<title>src/name/name.ts&#45;&gt;src/name/state.ts</title>
<path fill="none" stroke="black" d="M581.05,-221.09C569.54,-212.58 551.39,-200.53 535.63,-190.86"/>
<polygon fill="black" stroke="black" points="537.07,-187.64 526.69,-185.49 533.46,-193.64 537.07,-187.64"/>
</g>
<!-- src/name/name.ts&#45;&gt;src/feature.ts -->
<!-- src/name/name.ts&#45;&gt;exit_src/name -->
<!-- src/name/predicate/index.ts -->
<g id="node25" class="node">
<title>src/name/predicate/index.ts</title>
<path fill="none" stroke="#00ff66" stroke-width="5" d="M422.83,-362.32C422.83,-362.32 375.17,-362.32 375.17,-362.32 371.33,-362.32 367.5,-358.48 367.5,-354.65 367.5,-354.65 367.5,-346.98 367.5,-346.98 367.5,-343.15 371.33,-339.32 375.17,-339.32 375.17,-339.32 422.83,-339.32 422.83,-339.32 426.67,-339.32 430.5,-343.15 430.5,-346.98 430.5,-346.98 430.5,-354.65 430.5,-354.65 430.5,-358.48 426.67,-362.32 422.83,-362.32"/>
<text text-anchor="middle" x="399" y="-347.12" font-family="Arial" font-size="14.00" fill="#000000">index.ts</text>
</g>
<!-- src/name/predicate/index.ts&#45;&gt;src/name/predicate/has&#45;value.ts -->
<!-- src/name/predicate/index.ts&#45;&gt;src/name/predicate/has&#45;value.ts -->
<g id="edge205" class="edge">
<title>src/name/predicate/index.ts&#45;&gt;src/name/predicate/has&#45;value.ts</title>
<path fill="none" stroke="black" d="M412.88,-339.09C420.25,-331.45 428.86,-320.97 435.34,-311.91"/>
<polygon fill="black" stroke="black" points="438.32,-313.75 440.98,-303.49 432.5,-309.85 438.32,-313.75"/>
</g>
<!-- src/name/predicate/index.ts&#45;&gt;exit_src/name/predicate -->
<!-- src/name/source.ts&#45;&gt;src/name/name.ts -->
<!-- src/name/source.ts&#45;&gt;src/name/name.ts -->
<g id="edge217" class="edge">
<title>src/name/source.ts&#45;&gt;src/name/name.ts</title>
<path fill="none" stroke="black" stroke-dasharray="1,5" d="M622.03,-185.49C623.78,-193.12 621.67,-203.6 616.96,-212.66"/>
<polygon fill="black" stroke="black" points="613.99,-210.81 611.43,-221.09 619.84,-214.65 613.99,-210.81"/>
</g>
<!-- src/name/source.ts&#45;&gt;exit_src/name -->
<!-- src/name/state.ts&#45;&gt;exit_src/name -->
<!-- src/role/predicate/has&#45;name.ts -->
<g id="node29" class="node">
<title>src/role/predicate/has&#45;name.ts</title>
<path fill="none" stroke="#000000" d="M1039.33,-244.32C1039.33,-244.32 962.67,-244.32 962.67,-244.32 958.83,-244.32 955,-240.48 955,-236.65 955,-236.65 955,-228.98 955,-228.98 955,-225.15 958.83,-221.32 962.67,-221.32 962.67,-221.32 1039.33,-221.32 1039.33,-221.32 1043.17,-221.32 1047,-225.15 1047,-228.98 1047,-228.98 1047,-236.65 1047,-236.65 1047,-240.48 1043.17,-244.32 1039.33,-244.32"/>
<text text-anchor="middle" x="1001" y="-229.12" font-family="Arial" font-size="14.00" fill="#000000">has&#45;name.ts</text>
</g>
<!-- src/role/predicate/has&#45;name.ts&#45;&gt;src/role.ts -->
<!-- exit_src/role/predicate -->
<!-- src/role/predicate/has&#45;name.ts&#45;&gt;exit_src/role/predicate -->
<!-- src/feature.ts&#45;&gt;name_src/name -->
<g id="edge238" class="edge">
<title>src/feature.ts&#45;&gt;name_src/name</title>
<path fill="none" stroke="#ff0000" d="M771.44,-244.36C753.69,-266.24 711.84,-317.82 679.7,-357.43"/>
<polygon fill="#ff0000" stroke="#ff0000" points="676.58,-355.72 673,-365.69 682.02,-360.13 676.58,-355.72"/>
</g>
<!-- src/feature.ts&#45;&gt;src/role.ts -->
<!-- src/feature.ts&#45;&gt;src/role.ts -->
<g id="edge240" class="edge">
<title>src/feature.ts&#45;&gt;src/role.ts</title>
<path fill="none" stroke="black" d="M815.31,-244.49C834.66,-252.84 856.49,-264.59 870.82,-274.17"/>
<polygon fill="black" stroke="black" points="868.89,-277.09 879.05,-280.09 872.98,-271.41 868.89,-277.09"/>
</g>
<!-- src/feature.ts&#45;&gt;src/attribute.ts -->
<!-- src/feature.ts&#45;&gt;src/attribute.ts -->
<g id="edge237" class="edge">
<title>src/feature.ts&#45;&gt;src/attribute.ts</title>
<path fill="none" stroke="black" d="M785.41,-221.09C786.67,-213.93 787.04,-204.27 786.53,-195.63"/>
<polygon fill="black" stroke="black" points="789.98,-195.04 785.4,-185.49 783.03,-195.81 789.98,-195.04"/>
</g>
<!-- src/feature.ts&#45;&gt;exit_src -->
<!-- src/role/data.ts -->
<g id="node32" class="node">
<title>src/role/data.ts</title>
<path fill="none" stroke="#000000" d="M1202.83,-185.32C1202.83,-185.32 1161.17,-185.32 1161.17,-185.32 1157.33,-185.32 1153.5,-181.48 1153.5,-177.65 1153.5,-177.65 1153.5,-169.98 1153.5,-169.98 1153.5,-166.15 1157.33,-162.32 1161.17,-162.32 1161.17,-162.32 1202.83,-162.32 1202.83,-162.32 1206.67,-162.32 1210.5,-166.15 1210.5,-169.98 1210.5,-169.98 1210.5,-177.65 1210.5,-177.65 1210.5,-181.48 1206.67,-185.32 1202.83,-185.32"/>
<text text-anchor="middle" x="1182" y="-170.12" font-family="Arial" font-size="14.00" fill="#000000">data.ts</text>
</g>
<!-- src/role/data.ts&#45;&gt;exit_src/role -->
<!-- src/role/predicate.ts -->
<g id="node33" class="node">
<title>src/role/predicate.ts</title>
<path fill="none" stroke="#000000" d="M1179.33,-303.32C1179.33,-303.32 1108.67,-303.32 1108.67,-303.32 1104.83,-303.32 1101,-299.48 1101,-295.65 1101,-295.65 1101,-287.98 1101,-287.98 1101,-284.15 1104.83,-280.32 1108.67,-280.32 1108.67,-280.32 1179.33,-280.32 1179.33,-280.32 1183.17,-280.32 1187,-284.15 1187,-287.98 1187,-287.98 1187,-295.65 1187,-295.65 1187,-299.48 1183.17,-303.32 1179.33,-303.32"/>
<text text-anchor="middle" x="1144" y="-288.12" font-family="Arial" font-size="14.00" fill="#000000">predicate.ts</text>
</g>
<!-- src/role/predicate.ts&#45;&gt;exit_src/role -->
<!-- name_src/role/predicate -->
<g id="node51" class="node">
<title>name_src/role/predicate</title>
<path fill="none" stroke="#ff9900" stroke-width="5" d="M1129.33,-244.32C1129.33,-244.32 1072.67,-244.32 1072.67,-244.32 1068.83,-244.32 1065,-240.48 1065,-236.65 1065,-236.65 1065,-228.98 1065,-228.98 1065,-225.15 1068.83,-221.32 1072.67,-221.32 1072.67,-221.32 1129.33,-221.32 1129.33,-221.32 1133.17,-221.32 1137,-225.15 1137,-228.98 1137,-228.98 1137,-236.65 1137,-236.65 1137,-240.48 1133.17,-244.32 1129.33,-244.32"/>
<text text-anchor="middle" x="1101" y="-229.12" font-family="Arial" font-size="14.00" fill="#000000">predicate</text>
</g>
<!-- src/role/predicate.ts&#45;&gt;name_src/role/predicate -->
<g id="edge266" class="edge">
<title>src/role/predicate.ts&#45;&gt;name_src/role/predicate</title>
<path fill="none" stroke="#3300ff" d="M1135.91,-280.09C1130.09,-272.37 1122.07,-261.75 1115.19,-252.63"/>
<polygon fill="#3300ff" stroke="#3300ff" points="1124.62,-251.59 1114.05,-252.32 1122.77,-258.34 1124.62,-251.59"/>
</g>
<!-- src/attribute/data.ts -->
<g id="node34" class="node">
<title>src/attribute/data.ts</title>
<path fill="none" stroke="#000000" d="M163.83,-185.32C163.83,-185.32 122.17,-185.32 122.17,-185.32 118.33,-185.32 114.5,-181.48 114.5,-177.65 114.5,-177.65 114.5,-169.98 114.5,-169.98 114.5,-166.15 118.33,-162.32 122.17,-162.32 122.17,-162.32 163.83,-162.32 163.83,-162.32 167.67,-162.32 171.5,-166.15 171.5,-169.98 171.5,-169.98 171.5,-177.65 171.5,-177.65 171.5,-181.48 167.67,-185.32 163.83,-185.32"/>
<text text-anchor="middle" x="143" y="-170.12" font-family="Arial" font-size="14.00" fill="#000000">data.ts</text>
</g>
<!-- exit_src/attribute -->
<!-- src/attribute/data.ts&#45;&gt;exit_src/attribute -->
<!-- exit_src/name&#45;&gt;src/role.ts -->
<g id="edge215" class="edge">
<title>exit_src/name&#45;&gt;src/role.ts</title>
<path fill="none" stroke="#cc00ff" d="M673,-127.01C741.28,-138.17 774.24,-109.41 829,-154.32 864.56,-183.48 876.33,-239.58 880.17,-269.99"/>
<polygon fill="#cc00ff" stroke="#cc00ff" points="876.73,-270.72 881.29,-280.28 883.69,-269.96 876.73,-270.72"/>
</g>
<!-- exit_src/name&#45;&gt;src/feature.ts -->
<g id="edge208" class="edge">
<title>exit_src/name&#45;&gt;src/feature.ts</title>
<path fill="none" stroke="#cc00ff" d="M673,-157.04C701.65,-177.06 734.47,-200 756.12,-215.13"/>
<polygon fill="#cc00ff" stroke="#cc00ff" points="754.48,-218.25 764.68,-221.11 758.49,-212.51 754.48,-218.25"/>
</g>
<!-- name_src/dom -->
<g id="node37" class="node">
<title>name_src/dom</title>
<path fill="none" stroke="#33ff00" stroke-width="5" d="M1116.33,-716.32C1116.33,-716.32 1077.67,-716.32 1077.67,-716.32 1073.83,-716.32 1070,-712.48 1070,-708.65 1070,-708.65 1070,-700.98 1070,-700.98 1070,-697.15 1073.83,-693.32 1077.67,-693.32 1077.67,-693.32 1116.33,-693.32 1116.33,-693.32 1120.17,-693.32 1124,-697.15 1124,-700.98 1124,-700.98 1124,-708.65 1124,-708.65 1124,-712.48 1120.17,-716.32 1116.33,-716.32"/>
<text text-anchor="middle" x="1097" y="-701.12" font-family="Arial" font-size="14.00" fill="#000000">dom</text>
</g>
<!-- exit_src/name&#45;&gt;name_src/dom -->
<g id="edge206" class="edge">
<title>exit_src/name&#45;&gt;name_src/dom</title>
<path fill="none" stroke="#cc00ff" d="M343,-188.34C335.11,-194.39 327.25,-202.38 319,-213.32 305.69,-230.96 315,-293.44 302,-311.32 224.58,-417.75 108,-336.64 40,-449.32 -9.66,-531.6 -18.85,-598.27 50,-665.32 88.95,-703.25 943.35,-684.87 1059.66,-693.02"/>
<polygon fill="#cc00ff" stroke="#cc00ff" points="1051.45,-693.13 1062,-694.09 1054.35,-686.76 1051.45,-693.13"/>
</g>
<!-- exit_src/name&#45;&gt;exit_src -->
<!-- exit_src/name&#45;&gt;exit_src -->
<!-- exit_src/name&#45;&gt;exit_src -->
<!-- exit_src/name&#45;&gt;exit_src -->
<!-- exit_src/name&#45;&gt;exit_src -->
<!-- exit_src/name&#45;&gt;exit_src -->
<!-- src/dom/dom.ts -->
<g id="node38" class="node">
<title>src/dom/dom.ts</title>
<path fill="#ff6c60" stroke="#000000" d="M2623.33,-716.32C2623.33,-716.32 2580.67,-716.32 2580.67,-716.32 2576.83,-716.32 2573,-712.48 2573,-708.65 2573,-708.65 2573,-700.98 2573,-700.98 2573,-697.15 2576.83,-693.32 2580.67,-693.32 2580.67,-693.32 2623.33,-693.32 2623.33,-693.32 2627.17,-693.32 2631,-697.15 2631,-700.98 2631,-700.98 2631,-708.65 2631,-708.65 2631,-712.48 2627.17,-716.32 2623.33,-716.32"/>
<text text-anchor="middle" x="2602" y="-701.12" font-family="Arial" font-size="14.00" fill="#000000">dom.ts</text>
</g>
<!-- src/dom/dom.ts&#45;&gt;name_src/dom/predicate -->
<g id="edge126" class="edge">
<title>src/dom/dom.ts&#45;&gt;name_src/dom/predicate</title>
<path fill="none" stroke="#33ff00" d="M2572.94,-702.23C2537.48,-698.04 2520.18,-686.17 2521.03,-674.49"/>
<polygon fill="#33ff00" stroke="#33ff00" points="2524.28,-675.82 2525.61,-665.31 2518.01,-672.7 2524.28,-675.82"/>
</g>
<!-- src/dom/dom.ts&#45;&gt;name_src/dom/predicate -->
<!-- src/dom/dom.ts&#45;&gt;name_src/dom/predicate -->
<!-- src/dom/dom.ts&#45;&gt;name_src/dom/predicate -->
<!-- src/dom/dom.ts&#45;&gt;name_src/dom/predicate -->
<!-- src/dom/dom.ts&#45;&gt;name_src/dom/predicate -->
<!-- src/dom/dom.ts&#45;&gt;name_src/dom/predicate -->
<!-- src/dom/dom.ts&#45;&gt;name_src/dom/predicate -->
<!-- src/dom/dom.ts&#45;&gt;name_src/dom/predicate -->
<!-- src/dom/dom.ts&#45;&gt;name_src/dom/predicate -->
<!-- src/dom/dom.ts&#45;&gt;name_src/dom/predicate -->
<!-- src/dom/dom.ts&#45;&gt;name_src/dom/predicate -->
<!-- src/dom/dom.ts&#45;&gt;name_src/dom/predicate -->
<!-- src/dom/dom.ts&#45;&gt;exit_src/dom -->
<!-- src/node/container.ts -->
<g id="node39" class="node">
<title>src/node/container.ts</title>
<path fill="#ff6c60" stroke="#000000" d="M826.33,-539.32C826.33,-539.32 755.67,-539.32 755.67,-539.32 751.83,-539.32 748,-535.48 748,-531.65 748,-531.65 748,-523.98 748,-523.98 748,-520.15 751.83,-516.32 755.67,-516.32 755.67,-516.32 826.33,-516.32 826.33,-516.32 830.17,-516.32 834,-520.15 834,-523.98 834,-523.98 834,-531.65 834,-531.65 834,-535.48 830.17,-539.32 826.33,-539.32"/>
<text text-anchor="middle" x="791" y="-524.12" font-family="Arial" font-size="14.00" fill="#000000">container.ts</text>
</g>
<!-- src/node/container.ts&#45;&gt;src/node.ts -->
<!-- src/node/container.ts&#45;&gt;exit_src/node -->
<!-- src/node/container.ts&#45;&gt;src/role.ts -->
<!-- src/node/element.ts -->
<g id="node41" class="node">
<title>src/node/element.ts</title>
<path fill="#ff6c60" stroke="#000000" d="M574.33,-539.32C574.33,-539.32 509.67,-539.32 509.67,-539.32 505.83,-539.32 502,-535.48 502,-531.65 502,-531.65 502,-523.98 502,-523.98 502,-520.15 505.83,-516.32 509.67,-516.32 509.67,-516.32 574.33,-516.32 574.33,-516.32 578.17,-516.32 582,-520.15 582,-523.98 582,-523.98 582,-531.65 582,-531.65 582,-535.48 578.17,-539.32 574.33,-539.32"/>
<text text-anchor="middle" x="542" y="-524.12" font-family="Arial" font-size="14.00" fill="#000000">element.ts</text>
</g>
<!-- src/node/element.ts&#45;&gt;src/node.ts -->
<!-- src/node/element.ts&#45;&gt;exit_src/node -->
<!-- src/node/element.ts&#45;&gt;src/role.ts -->
<!-- src/node/element.ts&#45;&gt;src/attribute.ts -->
<!-- src/node/inert.ts -->
<g id="node42" class="node">
<title>src/node/inert.ts</title>
<path fill="#ff6c60" stroke="#000000" d="M649.83,-539.32C649.83,-539.32 608.17,-539.32 608.17,-539.32 604.33,-539.32 600.5,-535.48 600.5,-531.65 600.5,-531.65 600.5,-523.98 600.5,-523.98 600.5,-520.15 604.33,-516.32 608.17,-516.32 608.17,-516.32 649.83,-516.32 649.83,-516.32 653.67,-516.32 657.5,-520.15 657.5,-523.98 657.5,-523.98 657.5,-531.65 657.5,-531.65 657.5,-535.48 653.67,-539.32 649.83,-539.32"/>
<text text-anchor="middle" x="629" y="-524.12" font-family="Arial" font-size="14.00" fill="#000000">inert.ts</text>
</g>
<!-- src/node/inert.ts&#45;&gt;src/node.ts -->
<!-- src/node/inert.ts&#45;&gt;exit_src/node -->
<!-- src/node/text.ts -->
<g id="node43" class="node">
<title>src/node/text.ts</title>
<path fill="#ff6c60" stroke="#000000" d="M722.33,-539.32C722.33,-539.32 683.67,-539.32 683.67,-539.32 679.83,-539.32 676,-535.48 676,-531.65 676,-531.65 676,-523.98 676,-523.98 676,-520.15 679.83,-516.32 683.67,-516.32 683.67,-516.32 722.33,-516.32 722.33,-516.32 726.17,-516.32 730,-520.15 730,-523.98 730,-523.98 730,-531.65 730,-531.65 730,-535.48 726.17,-539.32 722.33,-539.32"/>
<text text-anchor="middle" x="703" y="-524.12" font-family="Arial" font-size="14.00" fill="#000000">text.ts</text>
</g>
<!-- src/node/text.ts&#45;&gt;src/node.ts -->
<!-- src/node/text.ts&#45;&gt;exit_src/node -->
<!-- exit_src/name/predicate&#45;&gt;src/name/name.ts -->
<g id="edge235" class="edge">
<title>exit_src/name/predicate&#45;&gt;src/name/name.ts</title>
<path fill="none" stroke="#00ff66" stroke-dasharray="1,5" d="M529,-232.82C535.72,-232.82 542.44,-232.82 549.16,-232.82"/>
<polygon fill="#00ff66" stroke="#00ff66" points="549.44,-236.32 559.44,-232.82 549.44,-229.32 549.44,-236.32"/>
</g>
<!-- exit_src/name/predicate&#45;&gt;exit_src/name -->
<!-- exit_src/name/predicate&#45;&gt;exit_src/name -->
<!-- src/node/predicate/has&#45;attribute.ts -->
<g id="node45" class="node">
<title>src/node/predicate/has&#45;attribute.ts</title>
<path fill="none" stroke="#000000" d="M180.33,-598.32C180.33,-598.32 89.67,-598.32 89.67,-598.32 85.83,-598.32 82,-594.48 82,-590.65 82,-590.65 82,-582.98 82,-582.98 82,-579.15 85.83,-575.32 89.67,-575.32 89.67,-575.32 180.33,-575.32 180.33,-575.32 184.17,-575.32 188,-579.15 188,-582.98 188,-582.98 188,-590.65 188,-590.65 188,-594.48 184.17,-598.32 180.33,-598.32"/>
<text text-anchor="middle" x="135" y="-583.12" font-family="Arial" font-size="14.00" fill="#000000">has&#45;attribute.ts</text>
</g>
<!-- src/node/predicate/has&#45;attribute.ts&#45;&gt;src/node.ts -->
<!-- src/node/predicate/has&#45;attribute.ts&#45;&gt;src/attribute.ts -->
<!-- exit_src/node/predicate -->
<!-- src/node/predicate/has&#45;attribute.ts&#45;&gt;exit_src/node/predicate -->
<!-- name_src/node/predicate -->
<g id="node46" class="node">
<title>name_src/node/predicate</title>
<path fill="none" stroke="#00ffff" stroke-width="5" d="M380.33,-598.32C380.33,-598.32 323.67,-598.32 323.67,-598.32 319.83,-598.32 316,-594.48 316,-590.65 316,-590.65 316,-582.98 316,-582.98 316,-579.15 319.83,-575.32 323.67,-575.32 323.67,-575.32 380.33,-575.32 380.33,-575.32 384.17,-575.32 388,-579.15 388,-582.98 388,-582.98 388,-590.65 388,-590.65 388,-594.48 384.17,-598.32 380.33,-598.32"/>
<text text-anchor="middle" x="352" y="-583.12" font-family="Arial" font-size="14.00" fill="#000000">predicate</text>
</g>
<!-- src/node/predicate/has&#45;name.ts -->
<g id="node47" class="node">
<title>src/node/predicate/has&#45;name.ts</title>
<path fill="none" stroke="#000000" d="M290.33,-598.32C290.33,-598.32 213.67,-598.32 213.67,-598.32 209.83,-598.32 206,-594.48 206,-590.65 206,-590.65 206,-582.98 206,-582.98 206,-579.15 209.83,-575.32 213.67,-575.32 213.67,-575.32 290.33,-575.32 290.33,-575.32 294.17,-575.32 298,-579.15 298,-582.98 298,-582.98 298,-590.65 298,-590.65 298,-594.48 294.17,-598.32 290.33,-598.32"/>
<text text-anchor="middle" x="252" y="-583.12" font-family="Arial" font-size="14.00" fill="#000000">has&#45;name.ts</text>
</g>
<!-- src/node/predicate/has&#45;name.ts&#45;&gt;src/node.ts -->
<!-- src/node/predicate/has&#45;name.ts&#45;&gt;exit_src/node/predicate -->
<!-- src/node/predicate/has&#45;role.ts -->
<g id="node48" class="node">
<title>src/node/predicate/has&#45;role.ts</title>
<path fill="none" stroke="#000000" d="M478.33,-598.32C478.33,-598.32 413.67,-598.32 413.67,-598.32 409.83,-598.32 406,-594.48 406,-590.65 406,-590.65 406,-582.98 406,-582.98 406,-579.15 409.83,-575.32 413.67,-575.32 413.67,-575.32 478.33,-575.32 478.33,-575.32 482.17,-575.32 486,-579.15 486,-582.98 486,-582.98 486,-590.65 486,-590.65 486,-594.48 482.17,-598.32 478.33,-598.32"/>
<text text-anchor="middle" x="446" y="-583.12" font-family="Arial" font-size="14.00" fill="#000000">has&#45;role.ts</text>
</g>
<!-- src/node/predicate/has&#45;role.ts&#45;&gt;src/node.ts -->
<!-- src/node/predicate/has&#45;role.ts&#45;&gt;src/role.ts -->
<!-- src/node/predicate/has&#45;role.ts&#45;&gt;exit_src/node/predicate -->
<!-- src/node/predicate.ts -->
<g id="node49" class="node">
<title>src/node/predicate.ts</title>
<path fill="none" stroke="#000000" d="M387.33,-657.32C387.33,-657.32 316.67,-657.32 316.67,-657.32 312.83,-657.32 309,-653.48 309,-649.65 309,-649.65 309,-641.98 309,-641.98 309,-638.15 312.83,-634.32 316.67,-634.32 316.67,-634.32 387.33,-634.32 387.33,-634.32 391.17,-634.32 395,-638.15 395,-641.98 395,-641.98 395,-649.65 395,-649.65 395,-653.48 391.17,-657.32 387.33,-657.32"/>
<text text-anchor="middle" x="352" y="-642.12" font-family="Arial" font-size="14.00" fill="#000000">predicate.ts</text>
</g>
<!-- src/node/predicate.ts&#45;&gt;exit_src/node -->
<!-- src/node/predicate.ts&#45;&gt;name_src/node/predicate -->
<g id="edge247" class="edge">
<title>src/node/predicate.ts&#45;&gt;name_src/node/predicate</title>
<path fill="none" stroke="#ccff00" d="M341.18,-634.09C338.64,-626.85 337.9,-617.05 338.98,-608.34"/>
<polygon fill="#ccff00" stroke="#ccff00" points="338.05,-616.69 340.19,-606.32 332.05,-613.09 338.05,-616.69"/>
</g>
<!-- src/node/predicate.ts&#45;&gt;name_src/node/predicate -->
<!-- src/node/predicate.ts&#45;&gt;name_src/node/predicate -->
<!-- src/index.ts&#45;&gt;src/node.ts -->
<!-- src/index.ts&#45;&gt;src/node.ts -->
<g id="edge227" class="edge">
<title>src/index.ts&#45;&gt;src/node.ts</title>
<path fill="none" stroke="black" d="M941.55,-362.49C929.51,-371.07 910.5,-383.27 894.11,-392.99"/>
<polygon fill="black" stroke="black" points="892.22,-390.04 885.34,-398.09 895.74,-396.09 892.22,-390.04"/>
</g>
<!-- src/index.ts&#45;&gt;name_src/name -->
<g id="edge225" class="edge">
<title>src/index.ts&#45;&gt;name_src/name</title>
<path fill="none" stroke="#ff0000" d="M921.13,-355.3C870.09,-361.25 766.77,-374.83 675.26,-396.85"/>
<polygon fill="#ff0000" stroke="#ff0000" points="679.56,-389.97 673,-398.29 683.32,-395.88 679.56,-389.97"/>
</g>
<!-- src/index.ts&#45;&gt;src/role.ts -->
<!-- src/index.ts&#45;&gt;src/role.ts -->
<g id="edge233" class="edge">
<title>src/index.ts&#45;&gt;src/role.ts</title>
<path fill="none" stroke="black" d="M945.06,-339.09C936.11,-330.74 921.73,-318.98 908.86,-309.41"/>
<polygon fill="black" stroke="black" points="910.85,-306.52 900.7,-303.49 906.74,-312.19 910.85,-306.52"/>
</g>
<!-- src/index.ts&#45;&gt;src/attribute.ts -->
<!-- src/index.ts&#45;&gt;src/attribute.ts -->
<g id="edge221" class="edge">
<title>src/index.ts&#45;&gt;src/attribute.ts</title>
<path fill="none" stroke="black" d="M953.45,-339.24C948.63,-320.93 931.56,-284.83 927,-280.32 906.94,-260.46 889.72,-272.51 870,-252.32 856.67,-238.65 864.69,-227.58 852,-213.32 843.68,-203.97 832.54,-196.15 821.44,-190.05"/>
<polygon fill="black" stroke="black" points="822.69,-186.76 812.19,-185.34 819.51,-193 822.69,-186.76"/>
</g>
<!-- src/index.ts&#45;&gt;src/feature.ts -->
<!-- src/index.ts&#45;&gt;src/feature.ts -->
<g id="edge224" class="edge">
<title>src/index.ts&#45;&gt;src/feature.ts</title>
<path fill="none" stroke="black" d="M921.36,-341.13C901.08,-335.14 875.1,-325.63 855,-311.32 840.58,-301.05 841.41,-293.85 830,-280.32 821.84,-270.64 812.53,-260.05 803.97,-251.42"/>
<polygon fill="black" stroke="black" points="806.33,-248.83 796.7,-244.41 801.47,-253.87 806.33,-248.83"/>
</g>
<!-- src/index.ts&#45;&gt;name_src/dom -->
<g id="edge222" class="edge">
<title>src/index.ts&#45;&gt;name_src/dom</title>
<path fill="none" stroke="#ff0000" d="M955.54,-362.33C965.1,-400.92 1001.25,-538.12 1057.23,-646.99"/>
<polygon fill="#ff0000" stroke="#ff0000" points="1054.26,-648.87 1062,-656.11 1060.47,-645.62 1054.26,-648.87"/>
</g>
<!-- src/index.ts&#45;&gt;name_src/node -->
<g id="edge228" class="edge">
<title>src/index.ts&#45;&gt;name_src/node</title>
<path fill="none" stroke="#ff0000" d="M937.57,-362.37C926,-382.75 926,-428.95 926,-467.82 926,-528.82 926,-528.82 926,-528.82 926,-550.75 885.1,-581.96 850.6,-606.48"/>
<polygon fill="#ff0000" stroke="#ff0000" points="848.14,-603.93 842,-612.56 852.18,-609.65 848.14,-603.93"/>
</g>
<!-- src/index.ts&#45;&gt;name_src/node -->
<!-- src/index.ts&#45;&gt;name_src/node -->
<!-- src/index.ts&#45;&gt;name_src/node -->
<!-- src/index.ts&#45;&gt;exit_src -->
<!-- exit_src&#45;&gt;exit_src -->
<!-- exit_src&#45;&gt;exit_src -->
<!-- exit_src&#45;&gt;exit_src -->
<!-- exit_src&#45;&gt;exit_src -->
<!-- exit_src&#45;&gt;exit_src -->
<!-- exit_src&#45;&gt;exit_src -->
<!-- exit_src&#45;&gt;exit_src -->
<!-- exit_src&#45;&gt;exit_src -->
<!-- exit_src&#45;&gt;exit_src -->
<!-- exit_src&#45;&gt;exit_src -->
<!-- exit_src&#45;&gt;exit_src -->
<!-- exit_src&#45;&gt;exit_src -->
<!-- exit_src&#45;&gt;exit_src -->
<!-- exit_src&#45;&gt;exit_src -->
<!-- exit_src&#45;&gt;exit_src -->
<!-- exit_src&#45;&gt;exit_src -->
<!-- exit_src&#45;&gt;exit_src -->
<!-- exit_src&#45;&gt;exit_src -->
<!-- exit_src&#45;&gt;exit_src -->
<!-- exit_src&#45;&gt;exit_src -->
<!-- exit_src&#45;&gt;exit_src -->
<!-- exit_src&#45;&gt;exit_src -->
<!-- exit_src&#45;&gt;exit_src -->
<!-- exit_src&#45;&gt;exit_src -->
<!-- exit_src&#45;&gt;exit_src -->
<!-- exit_src&#45;&gt;exit_src -->
<!-- exit_src&#45;&gt;exit_src -->
<!-- exit_src&#45;&gt;exit_src -->
<!-- exit_src&#45;&gt;exit_src -->
<!-- exit_src&#45;&gt;exit_src -->
<!-- exit_src&#45;&gt;exit_src -->
<!-- exit_src&#45;&gt;exit_src -->
<!-- exit_src&#45;&gt;exit_src -->
<!-- exit_src&#45;&gt;exit_src -->
<!-- exit_src&#45;&gt;exit_src -->
<!-- exit_src&#45;&gt;exit_src -->
<!-- exit_src&#45;&gt;exit_src -->
<!-- name_src -->
<g id="node53" class="node">
<title>name_src</title>
<path fill="none" stroke="#ff0000" stroke-width="5" d="M557.33,-716.32C557.33,-716.32 518.67,-716.32 518.67,-716.32 514.83,-716.32 511,-712.48 511,-708.65 511,-708.65 511,-700.98 511,-700.98 511,-697.15 514.83,-693.32 518.67,-693.32 518.67,-693.32 557.33,-693.32 557.33,-693.32 561.17,-693.32 565,-697.15 565,-700.98 565,-700.98 565,-708.65 565,-708.65 565,-712.48 561.17,-716.32 557.33,-716.32"/>
<text text-anchor="middle" x="538" y="-701.12" font-family="Arial" font-size="14.00" fill="#000000">src</text>
</g>
<!-- exit_src/dom/predicate&#45;&gt;exit_src/dom -->
<!-- exit_src/dom/predicate&#45;&gt;exit_src/dom -->
<!-- exit_src/dom/predicate&#45;&gt;exit_src/dom -->
<!-- exit_src/dom/predicate&#45;&gt;exit_src/dom -->
<!-- exit_src/dom/predicate&#45;&gt;exit_src/dom -->
<!-- exit_src/dom/predicate&#45;&gt;exit_src/dom -->
<!-- exit_src/dom/predicate&#45;&gt;exit_src/dom -->
<!-- exit_src/dom/predicate&#45;&gt;exit_src/dom -->
<!-- exit_src/dom/predicate&#45;&gt;exit_src/dom -->
<!-- exit_src/dom/predicate&#45;&gt;exit_src/dom -->
<!-- exit_src/dom/predicate&#45;&gt;exit_src/dom -->
<!-- exit_src/dom/predicate&#45;&gt;exit_src/dom -->
<!-- exit_src/dom/predicate&#45;&gt;exit_src/dom -->
<!-- exit_src/node/predicate&#45;&gt;exit_src/node -->
<!-- exit_src/node/predicate&#45;&gt;exit_src/node -->
<!-- exit_src/node/predicate&#45;&gt;exit_src/node -->
<!-- exit_src/role/predicate&#45;&gt;exit_src/role -->
<!-- exit_src/attribute&#45;&gt;exit_src -->
</g>
</svg>
