<?xml version="1.0" encoding="UTF-8" standalone="no"?>
<!DOCTYPE svg PUBLIC "-//W3C//DTD SVG 1.1//EN"
 "http://www.w3.org/Graphics/SVG/1.1/DTD/svg11.dtd">
<!-- Generated by graphviz version 2.43.0 (0)
 -->
<!-- Title: dependency&#45;graph&#45;[object Object] Pages: 1 -->
<svg width="264pt" height="326pt"
 viewBox="0.00 0.00 264.20 326.20" xmlns="http://www.w3.org/2000/svg" xmlns:xlink="http://www.w3.org/1999/xlink">
<g id="graph0" class="graph" transform="scale(1 1) rotate(0) translate(21.6 304.6)">
<title>dependency&#45;graph&#45;[object Object]</title>
<polygon fill="#ffffff" stroke="transparent" points="-21.6,21.6 -21.6,-304.6 242.6,-304.6 242.6,21.6 -21.6,21.6"/>
<g id="clust1" class="cluster">
<title>cluster_src</title>
<polygon fill="#ffffff" stroke="#000000" points="44.5,-43 44.5,-275 212.5,-275 212.5,-43 44.5,-43"/>
</g>
<g id="clust2" class="cluster">
<title>cluster_src</title>
<polygon fill="#ffffff" stroke="#000000" points="52.5,-51 52.5,-267 204.5,-267 204.5,-51 52.5,-51"/>
</g>
<!-- dependency&#45;graph&#45;[object Object] -->
<!-- src/performance.ts -->
<g id="node2" class="node">
<title>src/performance.ts</title>
<path fill="none" stroke="#000000" d="M159.33,-200C159.33,-200 67.67,-200 67.67,-200 63.83,-200 60,-196.17 60,-192.33 60,-192.33 60,-184.67 60,-184.67 60,-180.83 63.83,-177 67.67,-177 67.67,-177 159.33,-177 159.33,-177 163.17,-177 167,-180.83 167,-184.67 167,-184.67 167,-192.33 167,-192.33 167,-196.17 163.17,-200 159.33,-200"/>
<text text-anchor="middle" x="113.5" y="-184.8" font-family="Arial" font-size="14.00" fill="#000000">performance.ts</text>
</g>
<!-- src/now.ts -->
<g id="node3" class="node">
<title>src/now.ts</title>
<path fill="none" stroke="#000000" d="M130.33,-141C130.33,-141 90.67,-141 90.67,-141 86.83,-141 83,-137.17 83,-133.33 83,-133.33 83,-125.67 83,-125.67 83,-121.83 86.83,-118 90.67,-118 90.67,-118 130.33,-118 130.33,-118 134.17,-118 138,-121.83 138,-125.67 138,-125.67 138,-133.33 138,-133.33 138,-137.17 134.17,-141 130.33,-141"/>
<text text-anchor="middle" x="110.5" y="-125.8" font-family="Arial" font-size="14.00" fill="#000000">now.ts</text>
</g>
<!-- src/performance.ts&#45;&gt;src/now.ts -->
<!-- src/performance.ts&#45;&gt;src/now.ts -->
<g id="edge11" class="edge">
<title>src/performance.ts&#45;&gt;src/now.ts</title>
<path fill="none" stroke="black" d="M118.35,-176.78C119.23,-169.61 119.09,-159.95 118.12,-151.31"/>
<polygon fill="black" stroke="black" points="121.53,-150.48 116.46,-141.17 114.62,-151.61 121.53,-150.48"/>
</g>
<!-- exit_src -->
<!-- src/performance.ts&#45;&gt;exit_src -->
<!-- src/now.ts&#45;&gt;exit_src -->
<!-- name_src -->
<g id="node4" class="node">
<title>name_src</title>
<path fill="none" stroke="#ff0000" stroke-width="5" d="M188.83,-259C188.83,-259 150.17,-259 150.17,-259 146.33,-259 142.5,-255.17 142.5,-251.33 142.5,-251.33 142.5,-243.67 142.5,-243.67 142.5,-239.83 146.33,-236 150.17,-236 150.17,-236 188.83,-236 188.83,-236 192.67,-236 196.5,-239.83 196.5,-243.67 196.5,-243.67 196.5,-251.33 196.5,-251.33 196.5,-255.17 192.67,-259 188.83,-259"/>
<text text-anchor="middle" x="169.5" y="-243.8" font-family="Arial" font-size="14.00" fill="#000000">src</text>
</g>
<!-- exit_src&#45;&gt;dependency&#45;graph&#45;[object Object] -->
<!-- exit_src&#45;&gt;exit_src -->
<!-- exit_src&#45;&gt;exit_src -->
<!-- exit_src&#45;&gt;exit_src -->
<!-- src/common.ts -->
<g id="node6" class="node">
<title>src/common.ts</title>
<path fill="none" stroke="#ff0000" stroke-width="5" d="M116.33,-259C116.33,-259 68.67,-259 68.67,-259 64.83,-259 61,-255.17 61,-251.33 61,-251.33 61,-243.67 61,-243.67 61,-239.83 64.83,-236 68.67,-236 68.67,-236 116.33,-236 116.33,-236 120.17,-236 124,-239.83 124,-243.67 124,-243.67 124,-251.33 124,-251.33 124,-255.17 120.17,-259 116.33,-259"/>
<text text-anchor="middle" x="92.5" y="-243.8" font-family="Arial" font-size="14.00" fill="#000000">common.ts</text>
</g>
<!-- src/common.ts&#45;&gt;src/performance.ts -->
<!-- src/common.ts&#45;&gt;src/performance.ts -->
<g id="edge9" class="edge">
<title>src/common.ts&#45;&gt;src/performance.ts</title>
<path fill="none" stroke="black" d="M101.86,-235.78C105.8,-228.53 109.78,-218.74 112.45,-210.02"/>
<polygon fill="black" stroke="black" points="115.88,-210.73 114.97,-200.17 109.1,-208.99 115.88,-210.73"/>
</g>
<!-- src/common.ts&#45;&gt;exit_src -->
</g>
</svg>
