<?xml version="1.0" encoding="UTF-8" standalone="no"?>
<!DOCTYPE svg PUBLIC "-//W3C//DTD SVG 1.1//EN"
 "http://www.w3.org/Graphics/SVG/1.1/DTD/svg11.dtd">
<!-- Generated by graphviz version 2.43.0 (0)
 -->
<!-- Title: dependency&#45;graph&#45;@siteimprove/alfa&#45;performance Pages: 1 -->
<svg width="227pt" height="291pt"
 viewBox="0.00 0.00 227.20 291.20" xmlns="http://www.w3.org/2000/svg" xmlns:xlink="http://www.w3.org/1999/xlink">
<g id="graph0" class="graph" transform="scale(1 1) rotate(0) translate(21.6 269.6)">
<title>dependency&#45;graph&#45;@siteimprove/alfa&#45;performance</title>
<polygon fill="#ffffff" stroke="transparent" points="-21.6,21.6 -21.6,-269.6 205.6,-269.6 205.6,21.6 -21.6,21.6"/>
<g id="clust1" class="cluster">
<title>cluster_src</title>
<polygon fill="#ffffff" stroke="#000000" points="8,-8 8,-240 176,-240 176,-8 8,-8"/>
</g>
<g id="clust2" class="cluster">
<title>cluster_src</title>
<polygon fill="#ffffff" stroke="#000000" points="16,-16 16,-232 168,-232 168,-16 16,-16"/>
</g>
<!-- src/now.ts -->
<g id="node1" class="node">
<title>src/now.ts</title>
<path fill="none" stroke="#000000" d="M93.83,-106C93.83,-106 54.17,-106 54.17,-106 50.33,-106 46.5,-102.17 46.5,-98.33 46.5,-98.33 46.5,-90.67 46.5,-90.67 46.5,-86.83 50.33,-83 54.17,-83 54.17,-83 93.83,-83 93.83,-83 97.67,-83 101.5,-86.83 101.5,-90.67 101.5,-90.67 101.5,-98.33 101.5,-98.33 101.5,-102.17 97.67,-106 93.83,-106"/>
<text text-anchor="middle" x="74" y="-90.8" font-family="Arial" font-size="14.00" fill="#000000">now.ts</text>
</g>
<!-- exit_src -->
<!-- src/now.ts&#45;&gt;exit_src -->
<!-- src/performance.ts -->
<g id="node2" class="node">
<title>src/performance.ts</title>
<path fill="none" stroke="#000000" d="M122.83,-165C122.83,-165 31.17,-165 31.17,-165 27.33,-165 23.5,-161.17 23.5,-157.33 23.5,-157.33 23.5,-149.67 23.5,-149.67 23.5,-145.83 27.33,-142 31.17,-142 31.17,-142 122.83,-142 122.83,-142 126.67,-142 130.5,-145.83 130.5,-149.67 130.5,-149.67 130.5,-157.33 130.5,-157.33 130.5,-161.17 126.67,-165 122.83,-165"/>
<text text-anchor="middle" x="77" y="-149.8" font-family="Arial" font-size="14.00" fill="#000000">performance.ts</text>
</g>
<!-- src/performance.ts&#45;&gt;src/now.ts -->
<!-- src/performance.ts&#45;&gt;src/now.ts -->
<g id="edge8" class="edge">
<title>src/performance.ts&#45;&gt;src/now.ts</title>
<path fill="none" stroke="black" d="M81.85,-141.78C82.73,-134.61 82.59,-124.95 81.62,-116.31"/>
<polygon fill="black" stroke="black" points="85.03,-115.48 79.96,-106.17 78.12,-116.61 85.03,-115.48"/>
</g>
<!-- src/performance.ts&#45;&gt;exit_src -->
<!-- exit_src&#45;&gt;exit_src -->
<!-- exit_src&#45;&gt;exit_src -->
<!-- exit_src&#45;&gt;exit_src -->
<!-- name_src -->
<g id="node4" class="node">
<title>name_src</title>
<path fill="none" stroke="#ff0000" stroke-width="5" d="M152.33,-224C152.33,-224 113.67,-224 113.67,-224 109.83,-224 106,-220.17 106,-216.33 106,-216.33 106,-208.67 106,-208.67 106,-204.83 109.83,-201 113.67,-201 113.67,-201 152.33,-201 152.33,-201 156.17,-201 160,-204.83 160,-208.67 160,-208.67 160,-216.33 160,-216.33 160,-220.17 156.17,-224 152.33,-224"/>
<text text-anchor="middle" x="133" y="-208.8" font-family="Arial" font-size="14.00" fill="#000000">src</text>
</g>
<!-- src/index.ts -->
<g id="node5" class="node">
<title>src/index.ts</title>
<path fill="none" stroke="#ff0000" stroke-width="5" d="M79.83,-224C79.83,-224 32.17,-224 32.17,-224 28.33,-224 24.5,-220.17 24.5,-216.33 24.5,-216.33 24.5,-208.67 24.5,-208.67 24.5,-204.83 28.33,-201 32.17,-201 32.17,-201 79.83,-201 79.83,-201 83.67,-201 87.5,-204.83 87.5,-208.67 87.5,-208.67 87.5,-216.33 87.5,-216.33 87.5,-220.17 83.67,-224 79.83,-224"/>
<text text-anchor="middle" x="56" y="-208.8" font-family="Arial" font-size="14.00" fill="#000000">index.ts</text>
</g>
<!-- src/index.ts&#45;&gt;src/performance.ts -->
<!-- src/index.ts&#45;&gt;src/performance.ts -->
<g id="edge10" class="edge">
<title>src/index.ts&#45;&gt;src/performance.ts</title>
<path fill="none" stroke="black" d="M65.36,-200.78C69.3,-193.53 73.28,-183.74 75.95,-175.02"/>
<polygon fill="black" stroke="black" points="79.38,-175.73 78.47,-165.17 72.6,-173.99 79.38,-175.73"/>
</g>
<!-- src/index.ts&#45;&gt;exit_src -->
</g>
</svg>
