<?xml version="1.0" encoding="UTF-8" standalone="no"?>
<!DOCTYPE svg PUBLIC "-//W3C//DTD SVG 1.1//EN"
 "http://www.w3.org/Graphics/SVG/1.1/DTD/svg11.dtd">
<!-- Generated by graphviz version 2.43.0 (0)
 -->
<!-- Title: dependency&#45;graph&#45;[object Object] Pages: 1 -->
<svg width="264pt" height="267pt"
 viewBox="0.00 0.00 264.20 267.20" xmlns="http://www.w3.org/2000/svg" xmlns:xlink="http://www.w3.org/1999/xlink">
<g id="graph0" class="graph" transform="scale(1 1) rotate(0) translate(21.6 245.6)">
<title>dependency&#45;graph&#45;[object Object]</title>
<polygon fill="#ffffff" stroke="transparent" points="-21.6,21.6 -21.6,-245.6 242.6,-245.6 242.6,21.6 -21.6,21.6"/>
<g id="clust1" class="cluster">
<title>cluster_src</title>
<polygon fill="#ffffff" stroke="#000000" points="42.5,-43 42.5,-216 210.5,-216 210.5,-43 42.5,-43"/>
</g>
<g id="clust2" class="cluster">
<title>cluster_src</title>
<polygon fill="#ffffff" stroke="#000000" points="50.5,-51 50.5,-208 202.5,-208 202.5,-51 50.5,-51"/>
</g>
<!-- dependency&#45;graph&#45;[object Object] -->
<!-- src/emitter.ts -->
<g id="node2" class="node">
<title>src/emitter.ts</title>
<path fill="none" stroke="#000000" d="M122.83,-141C122.83,-141 66.17,-141 66.17,-141 62.33,-141 58.5,-137.17 58.5,-133.33 58.5,-133.33 58.5,-125.67 58.5,-125.67 58.5,-121.83 62.33,-118 66.17,-118 66.17,-118 122.83,-118 122.83,-118 126.67,-118 130.5,-121.83 130.5,-125.67 130.5,-125.67 130.5,-133.33 130.5,-133.33 130.5,-137.17 126.67,-141 122.83,-141"/>
<text text-anchor="middle" x="94.5" y="-125.8" font-family="Arial" font-size="14.00" fill="#000000">emitter.ts</text>
</g>
<!-- exit_src -->
<!-- src/emitter.ts&#45;&gt;exit_src -->
<!-- name_src -->
<g id="node3" class="node">
<title>name_src</title>
<path fill="none" stroke="#ff0000" stroke-width="5" d="M186.83,-200C186.83,-200 148.17,-200 148.17,-200 144.33,-200 140.5,-196.17 140.5,-192.33 140.5,-192.33 140.5,-184.67 140.5,-184.67 140.5,-180.83 144.33,-177 148.17,-177 148.17,-177 186.83,-177 186.83,-177 190.67,-177 194.5,-180.83 194.5,-184.67 194.5,-184.67 194.5,-192.33 194.5,-192.33 194.5,-196.17 190.67,-200 186.83,-200"/>
<text text-anchor="middle" x="167.5" y="-184.8" font-family="Arial" font-size="14.00" fill="#000000">src</text>
</g>
<!-- exit_src&#45;&gt;dependency&#45;graph&#45;[object Object] -->
<!-- exit_src&#45;&gt;exit_src -->
<!-- exit_src&#45;&gt;exit_src -->
<!-- src/index.ts -->
<g id="node5" class="node">
<title>src/index.ts</title>
<path fill="none" stroke="#ff0000" stroke-width="5" d="M114.33,-200C114.33,-200 66.67,-200 66.67,-200 62.83,-200 59,-196.17 59,-192.33 59,-192.33 59,-184.67 59,-184.67 59,-180.83 62.83,-177 66.67,-177 66.67,-177 114.33,-177 114.33,-177 118.17,-177 122,-180.83 122,-184.67 122,-184.67 122,-192.33 122,-192.33 122,-196.17 118.17,-200 114.33,-200"/>
<text text-anchor="middle" x="90.5" y="-184.8" font-family="Arial" font-size="14.00" fill="#000000">index.ts</text>
</g>
<!-- src/index.ts&#45;&gt;src/emitter.ts -->
<!-- src/index.ts&#45;&gt;src/emitter.ts -->
<g id="edge7" class="edge">
<title>src/index.ts&#45;&gt;src/emitter.ts</title>
<path fill="none" stroke="black" d="M96.66,-176.78C98.42,-169.61 99.47,-159.95 99.57,-151.31"/>
<polygon fill="black" stroke="black" points="103.06,-151.02 99.15,-141.17 96.06,-151.31 103.06,-151.02"/>
</g>
<!-- src/index.ts&#45;&gt;exit_src -->
</g>
</svg>
