<?xml version="1.0" encoding="UTF-8" standalone="no"?>
<!DOCTYPE svg PUBLIC "-//W3C//DTD SVG 1.1//EN"
 "http://www.w3.org/Graphics/SVG/1.1/DTD/svg11.dtd">
<!-- Generated by graphviz version 2.43.0 (0)
 -->
<!-- Title: dependency&#45;graph&#45;@siteimprove/alfa&#45;functor Pages: 1 -->
<svg width="227pt" height="232pt"
 viewBox="0.00 0.00 227.20 232.20" xmlns="http://www.w3.org/2000/svg" xmlns:xlink="http://www.w3.org/1999/xlink">
<g id="graph0" class="graph" transform="scale(1 1) rotate(0) translate(21.6 210.6)">
<title>dependency&#45;graph&#45;@siteimprove/alfa&#45;functor</title>
<polygon fill="#ffffff" stroke="transparent" points="-21.6,21.6 -21.6,-210.6 205.6,-210.6 205.6,21.6 -21.6,21.6"/>
<g id="clust1" class="cluster">
<title>cluster_src</title>
<polygon fill="#ffffff" stroke="#000000" points="8,-8 8,-181 176,-181 176,-8 8,-8"/>
</g>
<g id="clust2" class="cluster">
<title>cluster_src</title>
<polygon fill="#ffffff" stroke="#000000" points="16,-16 16,-173 168,-173 168,-16 16,-16"/>
</g>
<!-- src/functor.ts -->
<g id="node1" class="node">
<title>src/functor.ts</title>
<path fill="none" stroke="#000000" d="M87.83,-106C87.83,-106 32.17,-106 32.17,-106 28.33,-106 24.5,-102.17 24.5,-98.33 24.5,-98.33 24.5,-90.67 24.5,-90.67 24.5,-86.83 28.33,-83 32.17,-83 32.17,-83 87.83,-83 87.83,-83 91.67,-83 95.5,-86.83 95.5,-90.67 95.5,-90.67 95.5,-98.33 95.5,-98.33 95.5,-102.17 91.67,-106 87.83,-106"/>
<text text-anchor="middle" x="60" y="-90.8" font-family="Arial" font-size="14.00" fill="#000000">functor.ts</text>
</g>
<!-- exit_src -->
<!-- src/functor.ts&#45;&gt;exit_src -->
<!-- exit_src&#45;&gt;exit_src -->
<!-- exit_src&#45;&gt;exit_src -->
<!-- name_src -->
<g id="node3" class="node">
<title>name_src</title>
<path fill="none" stroke="#ff0000" stroke-width="5" d="M152.33,-165C152.33,-165 113.67,-165 113.67,-165 109.83,-165 106,-161.17 106,-157.33 106,-157.33 106,-149.67 106,-149.67 106,-145.83 109.83,-142 113.67,-142 113.67,-142 152.33,-142 152.33,-142 156.17,-142 160,-145.83 160,-149.67 160,-149.67 160,-157.33 160,-157.33 160,-161.17 156.17,-165 152.33,-165"/>
<text text-anchor="middle" x="133" y="-149.8" font-family="Arial" font-size="14.00" fill="#000000">src</text>
</g>
<!-- src/index.ts -->
<g id="node4" class="node">
<title>src/index.ts</title>
<path fill="none" stroke="#ff0000" stroke-width="5" d="M79.83,-165C79.83,-165 32.17,-165 32.17,-165 28.33,-165 24.5,-161.17 24.5,-157.33 24.5,-157.33 24.5,-149.67 24.5,-149.67 24.5,-145.83 28.33,-142 32.17,-142 32.17,-142 79.83,-142 79.83,-142 83.67,-142 87.5,-145.83 87.5,-149.67 87.5,-149.67 87.5,-157.33 87.5,-157.33 87.5,-161.17 83.67,-165 79.83,-165"/>
<text text-anchor="middle" x="56" y="-149.8" font-family="Arial" font-size="14.00" fill="#000000">index.ts</text>
</g>
<!-- src/index.ts&#45;&gt;src/functor.ts -->
<!-- src/index.ts&#45;&gt;src/functor.ts -->
<g id="edge6" class="edge">
<title>src/index.ts&#45;&gt;src/functor.ts</title>
<path fill="none" stroke="black" stroke-dasharray="1,5" d="M62.16,-141.78C63.92,-134.61 64.97,-124.95 65.07,-116.31"/>
<polygon fill="black" stroke="black" points="68.56,-116.02 64.65,-106.17 61.56,-116.31 68.56,-116.02"/>
</g>
<!-- src/index.ts&#45;&gt;exit_src -->
</g>
</svg>
