<?xml version="1.0" encoding="UTF-8" standalone="no"?>
<!DOCTYPE svg PUBLIC "-//W3C//DTD SVG 1.1//EN"
 "http://www.w3.org/Graphics/SVG/1.1/DTD/svg11.dtd">
<!-- Generated by graphviz version 2.43.0 (0)
 -->
<!-- Title: dependency&#45;graph&#45;[object Object] Pages: 1 -->
<svg width="264pt" height="267pt"
 viewBox="0.00 0.00 264.20 267.20" xmlns="http://www.w3.org/2000/svg" xmlns:xlink="http://www.w3.org/1999/xlink">
<g id="graph0" class="graph" transform="scale(1 1) rotate(0) translate(21.6 245.6)">
<title>dependency&#45;graph&#45;[object Object]</title>
<polygon fill="#ffffff" stroke="transparent" points="-21.6,21.6 -21.6,-245.6 242.6,-245.6 242.6,21.6 -21.6,21.6"/>
<g id="clust1" class="cluster">
<title>cluster_src</title>
<polygon fill="#ffffff" stroke="#000000" points="38.5,-43 38.5,-216 206.5,-216 206.5,-43 38.5,-43"/>
</g>
<g id="clust2" class="cluster">
<title>cluster_src</title>
<polygon fill="#ffffff" stroke="#000000" points="46.5,-51 46.5,-208 198.5,-208 198.5,-51 46.5,-51"/>
</g>
<!-- dependency&#45;graph&#45;[object Object] -->
<!-- src/branched.ts -->
<g id="node2" class="node">
<title>src/branched.ts</title>
<path fill="none" stroke="#000000" d="M134.33,-141C134.33,-141 62.67,-141 62.67,-141 58.83,-141 55,-137.17 55,-133.33 55,-133.33 55,-125.67 55,-125.67 55,-121.83 58.83,-118 62.67,-118 62.67,-118 134.33,-118 134.33,-118 138.17,-118 142,-121.83 142,-125.67 142,-125.67 142,-133.33 142,-133.33 142,-137.17 138.17,-141 134.33,-141"/>
<text text-anchor="middle" x="98.5" y="-125.8" font-family="Arial" font-size="14.00" fill="#000000">branched.ts</text>
</g>
<!-- exit_src -->
<!-- src/branched.ts&#45;&gt;exit_src -->
<!-- name_src -->
<g id="node3" class="node">
<title>name_src</title>
<path fill="none" stroke="#ff0000" stroke-width="5" d="M182.83,-200C182.83,-200 144.17,-200 144.17,-200 140.33,-200 136.5,-196.17 136.5,-192.33 136.5,-192.33 136.5,-184.67 136.5,-184.67 136.5,-180.83 140.33,-177 144.17,-177 144.17,-177 182.83,-177 182.83,-177 186.67,-177 190.5,-180.83 190.5,-184.67 190.5,-184.67 190.5,-192.33 190.5,-192.33 190.5,-196.17 186.67,-200 182.83,-200"/>
<text text-anchor="middle" x="163.5" y="-184.8" font-family="Arial" font-size="14.00" fill="#000000">src</text>
</g>
<!-- exit_src&#45;&gt;dependency&#45;graph&#45;[object Object] -->
<!-- exit_src&#45;&gt;exit_src -->
<!-- exit_src&#45;&gt;exit_src -->
<!-- src/index.ts -->
<g id="node5" class="node">
<title>src/index.ts</title>
<path fill="none" stroke="#ff0000" stroke-width="5" d="M110.33,-200C110.33,-200 62.67,-200 62.67,-200 58.83,-200 55,-196.17 55,-192.33 55,-192.33 55,-184.67 55,-184.67 55,-180.83 58.83,-177 62.67,-177 62.67,-177 110.33,-177 110.33,-177 114.17,-177 118,-180.83 118,-184.67 118,-184.67 118,-192.33 118,-192.33 118,-196.17 114.17,-200 110.33,-200"/>
<text text-anchor="middle" x="86.5" y="-184.8" font-family="Arial" font-size="14.00" fill="#000000">index.ts</text>
</g>
<!-- src/index.ts&#45;&gt;src/branched.ts -->
<!-- src/index.ts&#45;&gt;src/branched.ts -->
<g id="edge7" class="edge">
<title>src/index.ts&#45;&gt;src/branched.ts</title>
<path fill="none" stroke="black" d="M94.17,-176.78C96.93,-169.61 99.34,-159.95 100.65,-151.31"/>
<polygon fill="black" stroke="black" points="104.15,-151.47 101.66,-141.17 97.18,-150.78 104.15,-151.47"/>
</g>
<!-- src/index.ts&#45;&gt;exit_src -->
</g>
</svg>
