<?xml version="1.0" encoding="UTF-8" standalone="no"?>
<!DOCTYPE svg PUBLIC "-//W3C//DTD SVG 1.1//EN"
 "http://www.w3.org/Graphics/SVG/1.1/DTD/svg11.dtd">
<!-- Generated by graphviz version 2.43.0 (0)
 -->
<!-- Title: dependency&#45;graph&#45;@siteimprove/alfa&#45;eaa Pages: 1 -->
<svg width="280pt" height="350pt"
 viewBox="0.00 0.00 280.20 350.20" xmlns="http://www.w3.org/2000/svg" xmlns:xlink="http://www.w3.org/1999/xlink">
<g id="graph0" class="graph" transform="scale(1 1) rotate(0) translate(21.6 328.6)">
<title>dependency&#45;graph&#45;@siteimprove/alfa&#45;eaa</title>
<polygon fill="#ffffff" stroke="transparent" points="-21.6,21.6 -21.6,-328.6 258.6,-328.6 258.6,21.6 -21.6,21.6"/>
<g id="clust1" class="cluster">
<title>cluster_src</title>
<polygon fill="#ffffff" stroke="#000000" points="8,-8 8,-299 229,-299 229,-8 8,-8"/>
</g>
<g id="clust2" class="cluster">
<title>cluster_src</title>
<polygon fill="#ffffff" stroke="#000000" points="16,-16 16,-291 221,-291 221,-16 16,-16"/>
</g>
<g id="clust3" class="cluster">
<title>cluster_src/criterion</title>
<polygon fill="#ffffff" stroke="#000000" points="24,-75 24,-173 181,-173 181,-75 24,-75"/>
</g>
<!-- src/eaa.ts -->
<g id="node1" class="node">
<title>src/eaa.ts</title>
<path fill="none" stroke="#000000" d="M128.33,-224C128.33,-224 89.67,-224 89.67,-224 85.83,-224 82,-220.17 82,-216.33 82,-216.33 82,-208.67 82,-208.67 82,-204.83 85.83,-201 89.67,-201 89.67,-201 128.33,-201 128.33,-201 132.17,-201 136,-204.83 136,-208.67 136,-208.67 136,-216.33 136,-216.33 136,-220.17 132.17,-224 128.33,-224"/>
<text text-anchor="middle" x="109" y="-208.8" font-family="Arial" font-size="14.00" fill="#000000">eaa.ts</text>
</g>
<!-- name_src/criterion -->
<g id="node3" class="node">
<title>name_src/criterion</title>
<path fill="none" stroke="#ff0000" stroke-width="5" d="M89.83,-165C89.83,-165 40.17,-165 40.17,-165 36.33,-165 32.5,-161.17 32.5,-157.33 32.5,-157.33 32.5,-149.67 32.5,-149.67 32.5,-145.83 36.33,-142 40.17,-142 40.17,-142 89.83,-142 89.83,-142 93.67,-142 97.5,-145.83 97.5,-149.67 97.5,-149.67 97.5,-157.33 97.5,-157.33 97.5,-161.17 93.67,-165 89.83,-165"/>
<text text-anchor="middle" x="65" y="-149.8" font-family="Arial" font-size="14.00" fill="#000000">criterion</text>
</g>
<!-- src/eaa.ts&#45;&gt;name_src/criterion -->
<g id="edge10" class="edge">
<title>src/eaa.ts&#45;&gt;name_src/criterion</title>
<path fill="none" stroke="#00ffff" d="M100.72,-200.78C94.76,-193.06 86.56,-182.43 79.52,-173.31"/>
<polygon fill="#00ffff" stroke="#00ffff" points="88.55,-178.07 79.24,-173 83.36,-182.76 88.55,-178.07"/>
</g>
<!-- exit_src -->
<!-- src/eaa.ts&#45;&gt;exit_src -->
<!-- src/criterion/data.ts -->
<g id="node2" class="node">
<title>src/criterion/data.ts</title>
<path fill="none" stroke="#000000" d="M164.83,-165C164.83,-165 123.17,-165 123.17,-165 119.33,-165 115.5,-161.17 115.5,-157.33 115.5,-157.33 115.5,-149.67 115.5,-149.67 115.5,-145.83 119.33,-142 123.17,-142 123.17,-142 164.83,-142 164.83,-142 168.67,-142 172.5,-145.83 172.5,-149.67 172.5,-149.67 172.5,-157.33 172.5,-157.33 172.5,-161.17 168.67,-165 164.83,-165"/>
<text text-anchor="middle" x="144" y="-149.8" font-family="Arial" font-size="14.00" fill="#000000">data.ts</text>
</g>
<!-- exit_src/criterion -->
<!-- src/criterion/data.ts&#45;&gt;exit_src/criterion -->
<!-- exit_src&#45;&gt;exit_src -->
<!-- exit_src&#45;&gt;exit_src -->
<!-- exit_src&#45;&gt;exit_src -->
<!-- name_src -->
<g id="node5" class="node">
<title>name_src</title>
<path fill="none" stroke="#00ffff" stroke-width="5" d="M205.33,-283C205.33,-283 166.67,-283 166.67,-283 162.83,-283 159,-279.17 159,-275.33 159,-275.33 159,-267.67 159,-267.67 159,-263.83 162.83,-260 166.67,-260 166.67,-260 205.33,-260 205.33,-260 209.17,-260 213,-263.83 213,-267.67 213,-267.67 213,-275.33 213,-275.33 213,-279.17 209.17,-283 205.33,-283"/>
<text text-anchor="middle" x="186" y="-267.8" font-family="Arial" font-size="14.00" fill="#000000">src</text>
</g>
<!-- src/index.ts -->
<g id="node6" class="node">
<title>src/index.ts</title>
<path fill="none" stroke="#00ffff" stroke-width="5" d="M132.83,-283C132.83,-283 85.17,-283 85.17,-283 81.33,-283 77.5,-279.17 77.5,-275.33 77.5,-275.33 77.5,-267.67 77.5,-267.67 77.5,-263.83 81.33,-260 85.17,-260 85.17,-260 132.83,-260 132.83,-260 136.67,-260 140.5,-263.83 140.5,-267.67 140.5,-267.67 140.5,-275.33 140.5,-275.33 140.5,-279.17 136.67,-283 132.83,-283"/>
<text text-anchor="middle" x="109" y="-267.8" font-family="Arial" font-size="14.00" fill="#000000">index.ts</text>
</g>
<!-- src/index.ts&#45;&gt;src/eaa.ts -->
<!-- src/index.ts&#45;&gt;src/eaa.ts -->
<g id="edge9" class="edge">
<title>src/index.ts&#45;&gt;src/eaa.ts</title>
<path fill="none" stroke="black" d="M114.41,-259.78C115.67,-252.61 116.04,-242.95 115.53,-234.31"/>
<polygon fill="black" stroke="black" points="118.98,-233.73 114.4,-224.17 112.03,-234.5 118.98,-233.73"/>
</g>
<!-- src/index.ts&#45;&gt;exit_src -->
<!-- exit_src/criterion&#45;&gt;exit_src -->
</g>
</svg>
