<?xml version="1.0" encoding="UTF-8" standalone="no"?>
<!DOCTYPE svg PUBLIC "-//W3C//DTD SVG 1.1//EN"
 "http://www.w3.org/Graphics/SVG/1.1/DTD/svg11.dtd">
<!-- Generated by graphviz version 2.43.0 (0)
 -->
<!-- Title: dependency&#45;graph&#45;@siteimprove/alfa&#45;map Pages: 1 -->
<svg width="227pt" height="350pt"
 viewBox="0.00 0.00 227.20 350.20" xmlns="http://www.w3.org/2000/svg" xmlns:xlink="http://www.w3.org/1999/xlink">
<g id="graph0" class="graph" transform="scale(1 1) rotate(0) translate(21.6 328.6)">
<title>dependency&#45;graph&#45;@siteimprove/alfa&#45;map</title>
<polygon fill="#ffffff" stroke="transparent" points="-21.6,21.6 -21.6,-328.6 205.6,-328.6 205.6,21.6 -21.6,21.6"/>
<g id="clust1" class="cluster">
<title>cluster_src</title>
<polygon fill="#ffffff" stroke="#000000" points="8,-8 8,-299 176,-299 176,-8 8,-8"/>
</g>
<g id="clust2" class="cluster">
<title>cluster_src</title>
<polygon fill="#ffffff" stroke="#000000" points="16,-16 16,-291 168,-291 168,-16 16,-16"/>
</g>
<!-- src/node.ts -->
<g id="node1" class="node">
<title>src/node.ts</title>
<path fill="none" stroke="#000000" d="M80.83,-165C80.83,-165 35.17,-165 35.17,-165 31.33,-165 27.5,-161.17 27.5,-157.33 27.5,-157.33 27.5,-149.67 27.5,-149.67 27.5,-145.83 31.33,-142 35.17,-142 35.17,-142 80.83,-142 80.83,-142 84.67,-142 88.5,-145.83 88.5,-149.67 88.5,-149.67 88.5,-157.33 88.5,-157.33 88.5,-161.17 84.67,-165 80.83,-165"/>
<text text-anchor="middle" x="58" y="-149.8" font-family="Arial" font-size="14.00" fill="#000000">node.ts</text>
</g>
<!-- src/status.ts -->
<g id="node3" class="node">
<title>src/status.ts</title>
<path fill="none" stroke="#000000" d="M83.83,-106C83.83,-106 32.17,-106 32.17,-106 28.33,-106 24.5,-102.17 24.5,-98.33 24.5,-98.33 24.5,-90.67 24.5,-90.67 24.5,-86.83 28.33,-83 32.17,-83 32.17,-83 83.83,-83 83.83,-83 87.67,-83 91.5,-86.83 91.5,-90.67 91.5,-90.67 91.5,-98.33 91.5,-98.33 91.5,-102.17 87.67,-106 83.83,-106"/>
<text text-anchor="middle" x="58" y="-90.8" font-family="Arial" font-size="14.00" fill="#000000">status.ts</text>
</g>
<!-- src/node.ts&#45;&gt;src/status.ts -->
<!-- src/node.ts&#45;&gt;src/status.ts -->
<g id="edge16" class="edge">
<title>src/node.ts&#45;&gt;src/status.ts</title>
<path fill="none" stroke="black" d="M63.41,-141.78C64.67,-134.61 65.04,-124.95 64.53,-116.31"/>
<polygon fill="black" stroke="black" points="67.98,-115.73 63.4,-106.17 61.03,-116.5 67.98,-115.73"/>
</g>
<!-- exit_src -->
<!-- src/node.ts&#45;&gt;exit_src -->
<!-- src/map.ts -->
<g id="node2" class="node">
<title>src/map.ts</title>
<path fill="none" stroke="#000000" d="M124.33,-224C124.33,-224 81.67,-224 81.67,-224 77.83,-224 74,-220.17 74,-216.33 74,-216.33 74,-208.67 74,-208.67 74,-204.83 77.83,-201 81.67,-201 81.67,-201 124.33,-201 124.33,-201 128.17,-201 132,-204.83 132,-208.67 132,-208.67 132,-216.33 132,-216.33 132,-220.17 128.17,-224 124.33,-224"/>
<text text-anchor="middle" x="103" y="-208.8" font-family="Arial" font-size="14.00" fill="#000000">map.ts</text>
</g>
<!-- src/map.ts&#45;&gt;src/node.ts -->
<!-- src/map.ts&#45;&gt;src/node.ts -->
<g id="edge10" class="edge">
<title>src/map.ts&#45;&gt;src/node.ts</title>
<path fill="none" stroke="black" d="M99.95,-200.78C95.11,-192.9 86.81,-181.99 78.75,-172.75"/>
<polygon fill="black" stroke="black" points="81.16,-170.19 71.83,-165.17 75.99,-174.92 81.16,-170.19"/>
</g>
<!-- src/map.ts&#45;&gt;exit_src -->
<!-- src/status.ts&#45;&gt;exit_src -->
<!-- exit_src&#45;&gt;exit_src -->
<!-- exit_src&#45;&gt;exit_src -->
<!-- exit_src&#45;&gt;exit_src -->
<!-- exit_src&#45;&gt;exit_src -->
<!-- name_src -->
<g id="node5" class="node">
<title>name_src</title>
<path fill="none" stroke="#ff0000" stroke-width="5" d="M152.33,-283C152.33,-283 113.67,-283 113.67,-283 109.83,-283 106,-279.17 106,-275.33 106,-275.33 106,-267.67 106,-267.67 106,-263.83 109.83,-260 113.67,-260 113.67,-260 152.33,-260 152.33,-260 156.17,-260 160,-263.83 160,-267.67 160,-267.67 160,-275.33 160,-275.33 160,-279.17 156.17,-283 152.33,-283"/>
<text text-anchor="middle" x="133" y="-267.8" font-family="Arial" font-size="14.00" fill="#000000">src</text>
</g>
<!-- src/index.ts -->
<g id="node6" class="node">
<title>src/index.ts</title>
<path fill="none" stroke="#ff0000" stroke-width="5" d="M79.83,-283C79.83,-283 32.17,-283 32.17,-283 28.33,-283 24.5,-279.17 24.5,-275.33 24.5,-275.33 24.5,-267.67 24.5,-267.67 24.5,-263.83 28.33,-260 32.17,-260 32.17,-260 79.83,-260 79.83,-260 83.67,-260 87.5,-263.83 87.5,-267.67 87.5,-267.67 87.5,-275.33 87.5,-275.33 87.5,-279.17 83.67,-283 79.83,-283"/>
<text text-anchor="middle" x="56" y="-267.8" font-family="Arial" font-size="14.00" fill="#000000">index.ts</text>
</g>
<!-- src/index.ts&#45;&gt;src/node.ts -->
<!-- src/index.ts&#45;&gt;src/node.ts -->
<g id="edge14" class="edge">
<title>src/index.ts&#45;&gt;src/node.ts</title>
<path fill="none" stroke="black" d="M60.3,-259.79C63.68,-240.63 64.78,-200.15 62.97,-175.34"/>
<polygon fill="black" stroke="black" points="66.43,-174.77 61.93,-165.18 59.46,-175.48 66.43,-174.77"/>
</g>
<!-- src/index.ts&#45;&gt;src/map.ts -->
<!-- src/index.ts&#45;&gt;src/map.ts -->
<g id="edge12" class="edge">
<title>src/index.ts&#45;&gt;src/map.ts</title>
<path fill="none" stroke="black" d="M70.25,-259.78C77.89,-252.14 86.87,-241.65 93.67,-232.6"/>
<polygon fill="black" stroke="black" points="96.7,-234.36 99.6,-224.17 90.98,-230.33 96.7,-234.36"/>
</g>
<!-- src/index.ts&#45;&gt;exit_src -->
</g>
</svg>
