<?xml version="1.0" encoding="UTF-8" standalone="no"?>
<!DOCTYPE svg PUBLIC "-//W3C//DTD SVG 1.1//EN"
 "http://www.w3.org/Graphics/SVG/1.1/DTD/svg11.dtd">
<!-- Generated by graphviz version 2.43.0 (0)
 -->
<!-- Title: dependency&#45;graph&#45;[object Object] Pages: 1 -->
<svg width="282pt" height="385pt"
 viewBox="0.00 0.00 281.70 385.20" xmlns="http://www.w3.org/2000/svg" xmlns:xlink="http://www.w3.org/1999/xlink">
<g id="graph0" class="graph" transform="scale(1 1) rotate(0) translate(21.6 363.6)">
<title>dependency&#45;graph&#45;[object Object]</title>
<polygon fill="#ffffff" stroke="transparent" points="-21.6,21.6 -21.6,-363.6 260.1,-363.6 260.1,21.6 -21.6,21.6"/>
<g id="clust1" class="cluster">
<title>cluster_src</title>
<polygon fill="#ffffff" stroke="#000000" points="62.5,-43 62.5,-334 230.5,-334 230.5,-43 62.5,-43"/>
</g>
<g id="clust2" class="cluster">
<title>cluster_src</title>
<polygon fill="#ffffff" stroke="#000000" points="70.5,-51 70.5,-326 222.5,-326 222.5,-51 70.5,-51"/>
</g>
<!-- dependency&#45;graph&#45;[object Object] -->
<!-- src/map.ts -->
<g id="node2" class="node">
<title>src/map.ts</title>
<path fill="none" stroke="#000000" d="M128.83,-259C128.83,-259 86.17,-259 86.17,-259 82.33,-259 78.5,-255.17 78.5,-251.33 78.5,-251.33 78.5,-243.67 78.5,-243.67 78.5,-239.83 82.33,-236 86.17,-236 86.17,-236 128.83,-236 128.83,-236 132.67,-236 136.5,-239.83 136.5,-243.67 136.5,-243.67 136.5,-251.33 136.5,-251.33 136.5,-255.17 132.67,-259 128.83,-259"/>
<text text-anchor="middle" x="107.5" y="-243.8" font-family="Arial" font-size="14.00" fill="#000000">map.ts</text>
</g>
<!-- src/node.ts -->
<g id="node3" class="node">
<title>src/node.ts</title>
<path fill="none" stroke="#000000" d="M155.33,-200C155.33,-200 109.67,-200 109.67,-200 105.83,-200 102,-196.17 102,-192.33 102,-192.33 102,-184.67 102,-184.67 102,-180.83 105.83,-177 109.67,-177 109.67,-177 155.33,-177 155.33,-177 159.17,-177 163,-180.83 163,-184.67 163,-184.67 163,-192.33 163,-192.33 163,-196.17 159.17,-200 155.33,-200"/>
<text text-anchor="middle" x="132.5" y="-184.8" font-family="Arial" font-size="14.00" fill="#000000">node.ts</text>
</g>
<!-- src/map.ts&#45;&gt;src/node.ts -->
<!-- src/map.ts&#45;&gt;src/node.ts -->
<g id="edge15" class="edge">
<title>src/map.ts&#45;&gt;src/node.ts</title>
<path fill="none" stroke="black" d="M117.61,-235.78C122.11,-228.45 126.83,-218.52 130.12,-209.74"/>
<polygon fill="black" stroke="black" points="133.46,-210.77 133.22,-200.17 126.8,-208.6 133.46,-210.77"/>
</g>
<!-- exit_src -->
<!-- src/map.ts&#45;&gt;exit_src -->
<!-- src/status.ts -->
<g id="node4" class="node">
<title>src/status.ts</title>
<path fill="none" stroke="#000000" d="M158.33,-141C158.33,-141 106.67,-141 106.67,-141 102.83,-141 99,-137.17 99,-133.33 99,-133.33 99,-125.67 99,-125.67 99,-121.83 102.83,-118 106.67,-118 106.67,-118 158.33,-118 158.33,-118 162.17,-118 166,-121.83 166,-125.67 166,-125.67 166,-133.33 166,-133.33 166,-137.17 162.17,-141 158.33,-141"/>
<text text-anchor="middle" x="132.5" y="-125.8" font-family="Arial" font-size="14.00" fill="#000000">status.ts</text>
</g>
<!-- src/node.ts&#45;&gt;src/status.ts -->
<!-- src/node.ts&#45;&gt;src/status.ts -->
<g id="edge17" class="edge">
<title>src/node.ts&#45;&gt;src/status.ts</title>
<path fill="none" stroke="black" d="M137.91,-176.78C139.17,-169.61 139.54,-159.95 139.03,-151.31"/>
<polygon fill="black" stroke="black" points="142.48,-150.73 137.9,-141.17 135.53,-151.5 142.48,-150.73"/>
</g>
<!-- src/node.ts&#45;&gt;exit_src -->
<!-- src/status.ts&#45;&gt;exit_src -->
<!-- name_src -->
<g id="node5" class="node">
<title>name_src</title>
<path fill="none" stroke="#ff0000" stroke-width="5" d="M206.83,-318C206.83,-318 168.17,-318 168.17,-318 164.33,-318 160.5,-314.17 160.5,-310.33 160.5,-310.33 160.5,-302.67 160.5,-302.67 160.5,-298.83 164.33,-295 168.17,-295 168.17,-295 206.83,-295 206.83,-295 210.67,-295 214.5,-298.83 214.5,-302.67 214.5,-302.67 214.5,-310.33 214.5,-310.33 214.5,-314.17 210.67,-318 206.83,-318"/>
<text text-anchor="middle" x="187.5" y="-302.8" font-family="Arial" font-size="14.00" fill="#000000">src</text>
</g>
<!-- exit_src&#45;&gt;dependency&#45;graph&#45;[object Object] -->
<!-- exit_src&#45;&gt;exit_src -->
<!-- exit_src&#45;&gt;exit_src -->
<!-- exit_src&#45;&gt;exit_src -->
<!-- exit_src&#45;&gt;exit_src -->
<!-- src/index.ts -->
<g id="node7" class="node">
<title>src/index.ts</title>
<path fill="none" stroke="#ff0000" stroke-width="5" d="M134.33,-318C134.33,-318 86.67,-318 86.67,-318 82.83,-318 79,-314.17 79,-310.33 79,-310.33 79,-302.67 79,-302.67 79,-298.83 82.83,-295 86.67,-295 86.67,-295 134.33,-295 134.33,-295 138.17,-295 142,-298.83 142,-302.67 142,-302.67 142,-310.33 142,-310.33 142,-314.17 138.17,-318 134.33,-318"/>
<text text-anchor="middle" x="110.5" y="-302.8" font-family="Arial" font-size="14.00" fill="#000000">index.ts</text>
</g>
<!-- src/index.ts&#45;&gt;src/map.ts -->
<!-- src/index.ts&#45;&gt;src/map.ts -->
<g id="edge11" class="edge">
<title>src/index.ts&#45;&gt;src/map.ts</title>
<path fill="none" stroke="black" d="M115.35,-294.78C116.23,-287.61 116.09,-277.95 115.12,-269.31"/>
<polygon fill="black" stroke="black" points="118.53,-268.48 113.46,-259.17 111.62,-269.61 118.53,-268.48"/>
</g>
<!-- src/index.ts&#45;&gt;src/node.ts -->
<!-- src/index.ts&#45;&gt;src/node.ts -->
<g id="edge13" class="edge">
<title>src/index.ts&#45;&gt;src/node.ts</title>
<path fill="none" stroke="black" d="M129.07,-294.87C139.1,-286.15 149.82,-272.99 154.5,-259 160,-242.54 155.46,-223.07 148.78,-208.92"/>
<polygon fill="black" stroke="black" points="151.8,-207.15 143.91,-200.09 145.67,-210.54 151.8,-207.15"/>
</g>
<!-- src/index.ts&#45;&gt;exit_src -->
</g>
</svg>
