<?xml version="1.0" encoding="UTF-8" standalone="no"?>
<!DOCTYPE svg PUBLIC "-//W3C//DTD SVG 1.1//EN"
 "http://www.w3.org/Graphics/SVG/1.1/DTD/svg11.dtd">
<!-- Generated by graphviz version 2.43.0 (0)
 -->
<!-- Title: dependency&#45;graph&#45;[object Object] Pages: 1 -->
<svg width="264pt" height="267pt"
 viewBox="0.00 0.00 264.20 267.20" xmlns="http://www.w3.org/2000/svg" xmlns:xlink="http://www.w3.org/1999/xlink">
<g id="graph0" class="graph" transform="scale(1 1) rotate(0) translate(21.6 245.6)">
<title>dependency&#45;graph&#45;[object Object]</title>
<polygon fill="#ffffff" stroke="transparent" points="-21.6,21.6 -21.6,-245.6 242.6,-245.6 242.6,21.6 -21.6,21.6"/>
<g id="clust1" class="cluster">
<title>cluster_src</title>
<polygon fill="#ffffff" stroke="#000000" points="43.5,-43 43.5,-216 211.5,-216 211.5,-43 43.5,-43"/>
</g>
<g id="clust2" class="cluster">
<title>cluster_src</title>
<polygon fill="#ffffff" stroke="#000000" points="51.5,-51 51.5,-208 203.5,-208 203.5,-51 51.5,-51"/>
</g>
<!-- dependency&#45;graph&#45;[object Object] -->
<!-- src/parser.ts -->
<g id="node2" class="node">
<title>src/parser.ts</title>
<path fill="none" stroke="#000000" d="M119.83,-141C119.83,-141 67.17,-141 67.17,-141 63.33,-141 59.5,-137.17 59.5,-133.33 59.5,-133.33 59.5,-125.67 59.5,-125.67 59.5,-121.83 63.33,-118 67.17,-118 67.17,-118 119.83,-118 119.83,-118 123.67,-118 127.5,-121.83 127.5,-125.67 127.5,-125.67 127.5,-133.33 127.5,-133.33 127.5,-137.17 123.67,-141 119.83,-141"/>
<text text-anchor="middle" x="93.5" y="-125.8" font-family="Arial" font-size="14.00" fill="#000000">parser.ts</text>
</g>
<!-- exit_src -->
<!-- src/parser.ts&#45;&gt;exit_src -->
<!-- name_src -->
<g id="node3" class="node">
<title>name_src</title>
<path fill="none" stroke="#ff0000" stroke-width="5" d="M187.83,-200C187.83,-200 149.17,-200 149.17,-200 145.33,-200 141.5,-196.17 141.5,-192.33 141.5,-192.33 141.5,-184.67 141.5,-184.67 141.5,-180.83 145.33,-177 149.17,-177 149.17,-177 187.83,-177 187.83,-177 191.67,-177 195.5,-180.83 195.5,-184.67 195.5,-184.67 195.5,-192.33 195.5,-192.33 195.5,-196.17 191.67,-200 187.83,-200"/>
<text text-anchor="middle" x="168.5" y="-184.8" font-family="Arial" font-size="14.00" fill="#000000">src</text>
</g>
<!-- exit_src&#45;&gt;dependency&#45;graph&#45;[object Object] -->
<!-- exit_src&#45;&gt;exit_src -->
<!-- exit_src&#45;&gt;exit_src -->
<!-- src/index.ts -->
<g id="node5" class="node">
<title>src/index.ts</title>
<path fill="none" stroke="#ff0000" stroke-width="5" d="M115.33,-200C115.33,-200 67.67,-200 67.67,-200 63.83,-200 60,-196.17 60,-192.33 60,-192.33 60,-184.67 60,-184.67 60,-180.83 63.83,-177 67.67,-177 67.67,-177 115.33,-177 115.33,-177 119.17,-177 123,-180.83 123,-184.67 123,-184.67 123,-192.33 123,-192.33 123,-196.17 119.17,-200 115.33,-200"/>
<text text-anchor="middle" x="91.5" y="-184.8" font-family="Arial" font-size="14.00" fill="#000000">index.ts</text>
</g>
<!-- src/index.ts&#45;&gt;src/parser.ts -->
<!-- src/index.ts&#45;&gt;src/parser.ts -->
<g id="edge7" class="edge">
<title>src/index.ts&#45;&gt;src/parser.ts</title>
<path fill="none" stroke="black" d="M97.29,-176.78C98.8,-169.61 99.51,-159.95 99.3,-151.31"/>
<polygon fill="black" stroke="black" points="102.77,-150.88 98.53,-141.17 95.79,-151.41 102.77,-150.88"/>
</g>
<!-- src/index.ts&#45;&gt;exit_src -->
</g>
</svg>
