<?xml version="1.0" encoding="UTF-8" standalone="no"?>
<!DOCTYPE svg PUBLIC "-//W3C//DTD SVG 1.1//EN"
 "http://www.w3.org/Graphics/SVG/1.1/DTD/svg11.dtd">
<!-- Generated by graphviz version 2.43.0 (0)
 -->
<!-- Title: dependency&#45;graph&#45;@siteimprove/alfa&#45;sequence Pages: 1 -->
<svg width="259pt" height="350pt"
 viewBox="0.00 0.00 259.20 350.20" xmlns="http://www.w3.org/2000/svg" xmlns:xlink="http://www.w3.org/1999/xlink">
<g id="graph0" class="graph" transform="scale(1 1) rotate(0) translate(21.6 328.6)">
<title>dependency&#45;graph&#45;@siteimprove/alfa&#45;sequence</title>
<polygon fill="#ffffff" stroke="transparent" points="-21.6,21.6 -21.6,-328.6 237.6,-328.6 237.6,21.6 -21.6,21.6"/>
<g id="clust1" class="cluster">
<title>cluster_src</title>
<polygon fill="#ffffff" stroke="#000000" points="8,-8 8,-299 208,-299 208,-8 8,-8"/>
</g>
<g id="clust2" class="cluster">
<title>cluster_src</title>
<polygon fill="#ffffff" stroke="#000000" points="16,-16 16,-291 200,-291 200,-16 16,-16"/>
</g>
<!-- src/nil.ts -->
<g id="node1" class="node">
<title>src/nil.ts</title>
<path fill="#ff6c60" stroke="#000000" d="M81.33,-224C81.33,-224 42.67,-224 42.67,-224 38.83,-224 35,-220.17 35,-216.33 35,-216.33 35,-208.67 35,-208.67 35,-204.83 38.83,-201 42.67,-201 42.67,-201 81.33,-201 81.33,-201 85.17,-201 89,-204.83 89,-208.67 89,-208.67 89,-216.33 89,-216.33 89,-220.17 85.17,-224 81.33,-224"/>
<text text-anchor="middle" x="62" y="-208.8" font-family="Arial" font-size="14.00" fill="#000000">nil.ts</text>
</g>
<!-- src/sequence.ts -->
<g id="node2" class="node">
<title>src/sequence.ts</title>
<path fill="#ff6c60" stroke="#000000" d="M144.83,-165C144.83,-165 71.17,-165 71.17,-165 67.33,-165 63.5,-161.17 63.5,-157.33 63.5,-157.33 63.5,-149.67 63.5,-149.67 63.5,-145.83 67.33,-142 71.17,-142 71.17,-142 144.83,-142 144.83,-142 148.67,-142 152.5,-145.83 152.5,-149.67 152.5,-149.67 152.5,-157.33 152.5,-157.33 152.5,-161.17 148.67,-165 144.83,-165"/>
<text text-anchor="middle" x="108" y="-149.8" font-family="Arial" font-size="14.00" fill="#000000">sequence.ts</text>
</g>
<!-- src/nil.ts&#45;&gt;src/sequence.ts -->
<!-- src/nil.ts&#45;&gt;src/sequence.ts -->
<g id="edge26" class="edge">
<title>src/nil.ts&#45;&gt;src/sequence.ts</title>
<path fill="none" stroke="black" d="M86.89,-200.78C96.76,-193.37 105.95,-183.3 111.32,-174.45"/>
<polygon fill="black" stroke="black" points="114.59,-175.72 115.6,-165.17 108.23,-172.79 114.59,-175.72"/>
</g>
<!-- src/cons.ts -->
<g id="node3" class="node">
<title>src/cons.ts</title>
<path fill="#ff6c60" stroke="#000000" d="M109.83,-106C109.83,-106 66.17,-106 66.17,-106 62.33,-106 58.5,-102.17 58.5,-98.33 58.5,-98.33 58.5,-90.67 58.5,-90.67 58.5,-86.83 62.33,-83 66.17,-83 66.17,-83 109.83,-83 109.83,-83 113.67,-83 117.5,-86.83 117.5,-90.67 117.5,-90.67 117.5,-98.33 117.5,-98.33 117.5,-102.17 113.67,-106 109.83,-106"/>
<text text-anchor="middle" x="88" y="-90.8" font-family="Arial" font-size="14.00" fill="#000000">cons.ts</text>
</g>
<!-- src/nil.ts&#45;&gt;src/cons.ts -->
<!-- src/nil.ts&#45;&gt;src/cons.ts -->
<g id="edge24" class="edge">
<title>src/nil.ts&#45;&gt;src/cons.ts</title>
<path fill="none" stroke="black" d="M76.85,-200.86C81.13,-186.99 75.59,-162.1 82,-142 85.05,-132.43 90.87,-123.13 95.1,-115.4"/>
<polygon fill="black" stroke="black" points="98.32,-116.79 99.38,-106.25 91.98,-113.83 98.32,-116.79"/>
</g>
<!-- exit_src -->
<!-- src/nil.ts&#45;&gt;exit_src -->
<!-- src/sequence.ts&#45;&gt;src/nil.ts -->
<!-- src/sequence.ts&#45;&gt;src/nil.ts -->
<g id="edge22" class="edge">
<title>src/sequence.ts&#45;&gt;src/nil.ts</title>
<path fill="none" stroke="black" d="M104.79,-165.17C99.83,-173.04 91.35,-183.94 83.13,-193.19"/>
<polygon fill="black" stroke="black" points="80.32,-191.07 76.06,-200.78 85.44,-195.84 80.32,-191.07"/>
</g>
<!-- src/sequence.ts&#45;&gt;src/cons.ts -->
<!-- src/sequence.ts&#45;&gt;src/cons.ts -->
<g id="edge20" class="edge">
<title>src/sequence.ts&#45;&gt;src/cons.ts</title>
<path fill="none" stroke="black" d="M120.47,-141.78C121.83,-134.06 119.08,-123.43 113.77,-114.31"/>
<polygon fill="black" stroke="black" points="116.62,-112.27 107.95,-106.17 110.92,-116.34 116.62,-112.27"/>
</g>
<!-- src/sequence.ts&#45;&gt;exit_src -->
<!-- src/cons.ts&#45;&gt;src/nil.ts -->
<!-- src/cons.ts&#45;&gt;src/nil.ts -->
<g id="edge10" class="edge">
<title>src/cons.ts&#45;&gt;src/nil.ts</title>
<path fill="none" stroke="black" d="M84.72,-106.25C78.51,-115.04 68.39,-128.23 64,-142 58.94,-157.86 61.32,-176.7 63.23,-190.76"/>
<polygon fill="black" stroke="black" points="59.78,-191.38 64.51,-200.86 66.73,-190.5 59.78,-191.38"/>
</g>
<!-- src/cons.ts&#45;&gt;src/sequence.ts -->
<!-- src/cons.ts&#45;&gt;src/sequence.ts -->
<g id="edge12" class="edge">
<title>src/cons.ts&#45;&gt;src/sequence.ts</title>
<path fill="none" stroke="black" d="M97.15,-106.17C100.96,-113.41 104.77,-123.2 107.29,-131.92"/>
<polygon fill="black" stroke="black" points="103.92,-132.87 109.65,-141.78 110.73,-131.24 103.92,-132.87"/>
</g>
<!-- src/cons.ts&#45;&gt;exit_src -->
<!-- exit_src&#45;&gt;exit_src -->
<!-- exit_src&#45;&gt;exit_src -->
<!-- exit_src&#45;&gt;exit_src -->
<!-- exit_src&#45;&gt;exit_src -->
<!-- name_src -->
<g id="node5" class="node">
<title>name_src</title>
<path fill="none" stroke="#ff0000" stroke-width="5" d="M184.33,-283C184.33,-283 145.67,-283 145.67,-283 141.83,-283 138,-279.17 138,-275.33 138,-275.33 138,-267.67 138,-267.67 138,-263.83 141.83,-260 145.67,-260 145.67,-260 184.33,-260 184.33,-260 188.17,-260 192,-263.83 192,-267.67 192,-267.67 192,-275.33 192,-275.33 192,-279.17 188.17,-283 184.33,-283"/>
<text text-anchor="middle" x="165" y="-267.8" font-family="Arial" font-size="14.00" fill="#000000">src</text>
</g>
<!-- src/index.ts -->
<g id="node6" class="node">
<title>src/index.ts</title>
<path fill="none" stroke="#ff0000" stroke-width="5" d="M111.83,-283C111.83,-283 64.17,-283 64.17,-283 60.33,-283 56.5,-279.17 56.5,-275.33 56.5,-275.33 56.5,-267.67 56.5,-267.67 56.5,-263.83 60.33,-260 64.17,-260 64.17,-260 111.83,-260 111.83,-260 115.67,-260 119.5,-263.83 119.5,-267.67 119.5,-267.67 119.5,-275.33 119.5,-275.33 119.5,-279.17 115.67,-283 111.83,-283"/>
<text text-anchor="middle" x="88" y="-267.8" font-family="Arial" font-size="14.00" fill="#000000">index.ts</text>
</g>
<!-- src/index.ts&#45;&gt;src/nil.ts -->
<!-- src/index.ts&#45;&gt;src/nil.ts -->
<g id="edge16" class="edge">
<title>src/index.ts&#45;&gt;src/nil.ts</title>
<path fill="none" stroke="black" d="M88.52,-259.78C86.4,-252.22 82.02,-241.87 77.27,-232.88"/>
<polygon fill="black" stroke="black" points="80.29,-231.1 72.27,-224.17 74.22,-234.59 80.29,-231.1"/>
</g>
<!-- src/index.ts&#45;&gt;src/sequence.ts -->
<!-- src/index.ts&#45;&gt;src/sequence.ts -->
<g id="edge18" class="edge">
<title>src/index.ts&#45;&gt;src/sequence.ts</title>
<path fill="none" stroke="black" d="M97.63,-259.83C101.68,-250.43 104.79,-236.35 107,-224 109.89,-207.88 112.5,-189.53 113.03,-175.74"/>
<polygon fill="black" stroke="black" points="116.53,-175.34 112.94,-165.37 109.53,-175.4 116.53,-175.34"/>
</g>
<!-- src/index.ts&#45;&gt;src/cons.ts -->
<!-- src/index.ts&#45;&gt;src/cons.ts -->
<g id="edge14" class="edge">
<title>src/index.ts&#45;&gt;src/cons.ts</title>
<path fill="none" stroke="black" d="M104.65,-259.76C125.44,-241.99 158.54,-204.47 171,-165 174.08,-155.25 175.94,-150.95 171,-142 161.92,-125.57 144.33,-114.16 127.57,-106.76"/>
<polygon fill="black" stroke="black" points="128.44,-103.34 117.86,-102.85 125.83,-109.83 128.44,-103.34"/>
</g>
<!-- src/index.ts&#45;&gt;exit_src -->
</g>
</svg>
