<?xml version="1.0" encoding="UTF-8" standalone="no"?>
<!DOCTYPE svg PUBLIC "-//W3C//DTD SVG 1.1//EN"
 "http://www.w3.org/Graphics/SVG/1.1/DTD/svg11.dtd">
<!-- Generated by graphviz version 2.43.0 (0)
 -->
<!-- Title: dependency&#45;graph&#45;[object Object] Pages: 1 -->
<svg width="282pt" height="385pt"
 viewBox="0.00 0.00 281.70 385.20" xmlns="http://www.w3.org/2000/svg" xmlns:xlink="http://www.w3.org/1999/xlink">
<g id="graph0" class="graph" transform="scale(1 1) rotate(0) translate(21.6 363.6)">
<title>dependency&#45;graph&#45;[object Object]</title>
<polygon fill="#ffffff" stroke="transparent" points="-21.6,21.6 -21.6,-363.6 260.1,-363.6 260.1,21.6 -21.6,21.6"/>
<g id="clust1" class="cluster">
<title>cluster_src</title>
<polygon fill="#ffffff" stroke="#000000" points="30.5,-43 30.5,-334 230.5,-334 230.5,-43 30.5,-43"/>
</g>
<g id="clust2" class="cluster">
<title>cluster_src</title>
<polygon fill="#ffffff" stroke="#000000" points="38.5,-51 38.5,-326 222.5,-326 222.5,-51 38.5,-51"/>
</g>
<!-- dependency&#45;graph&#45;[object Object] -->
<!-- src/nil.ts -->
<g id="node2" class="node">
<title>src/nil.ts</title>
<path fill="#ff6c60" stroke="#000000" d="M103.83,-259C103.83,-259 65.17,-259 65.17,-259 61.33,-259 57.5,-255.17 57.5,-251.33 57.5,-251.33 57.5,-243.67 57.5,-243.67 57.5,-239.83 61.33,-236 65.17,-236 65.17,-236 103.83,-236 103.83,-236 107.67,-236 111.5,-239.83 111.5,-243.67 111.5,-243.67 111.5,-251.33 111.5,-251.33 111.5,-255.17 107.67,-259 103.83,-259"/>
<text text-anchor="middle" x="84.5" y="-243.8" font-family="Arial" font-size="14.00" fill="#000000">nil.ts</text>
</g>
<!-- src/sequence.ts -->
<g id="node3" class="node">
<title>src/sequence.ts</title>
<path fill="#ff6c60" stroke="#000000" d="M167.33,-200C167.33,-200 93.67,-200 93.67,-200 89.83,-200 86,-196.17 86,-192.33 86,-192.33 86,-184.67 86,-184.67 86,-180.83 89.83,-177 93.67,-177 93.67,-177 167.33,-177 167.33,-177 171.17,-177 175,-180.83 175,-184.67 175,-184.67 175,-192.33 175,-192.33 175,-196.17 171.17,-200 167.33,-200"/>
<text text-anchor="middle" x="130.5" y="-184.8" font-family="Arial" font-size="14.00" fill="#000000">sequence.ts</text>
</g>
<!-- src/nil.ts&#45;&gt;src/sequence.ts -->
<!-- src/nil.ts&#45;&gt;src/sequence.ts -->
<g id="edge23" class="edge">
<title>src/nil.ts&#45;&gt;src/sequence.ts</title>
<path fill="none" stroke="black" d="M87.74,-235.78C92.72,-227.9 101.21,-216.99 109.42,-207.75"/>
<polygon fill="black" stroke="black" points="112.23,-209.88 116.48,-200.17 107.11,-205.1 112.23,-209.88"/>
</g>
<!-- src/cons.ts -->
<g id="node4" class="node">
<title>src/cons.ts</title>
<path fill="#ff6c60" stroke="#000000" d="M132.33,-141C132.33,-141 88.67,-141 88.67,-141 84.83,-141 81,-137.17 81,-133.33 81,-133.33 81,-125.67 81,-125.67 81,-121.83 84.83,-118 88.67,-118 88.67,-118 132.33,-118 132.33,-118 136.17,-118 140,-121.83 140,-125.67 140,-125.67 140,-133.33 140,-133.33 140,-137.17 136.17,-141 132.33,-141"/>
<text text-anchor="middle" x="110.5" y="-125.8" font-family="Arial" font-size="14.00" fill="#000000">cons.ts</text>
</g>
<!-- src/nil.ts&#45;&gt;src/cons.ts -->
<!-- src/nil.ts&#45;&gt;src/cons.ts -->
<g id="edge21" class="edge">
<title>src/nil.ts&#45;&gt;src/cons.ts</title>
<path fill="none" stroke="black" d="M99.35,-235.86C103.63,-221.99 98.09,-197.1 104.5,-177 107.55,-167.43 113.37,-158.13 117.6,-150.4"/>
<polygon fill="black" stroke="black" points="120.82,-151.79 121.88,-141.25 114.48,-148.83 120.82,-151.79"/>
</g>
<!-- exit_src -->
<!-- src/nil.ts&#45;&gt;exit_src -->
<!-- src/sequence.ts&#45;&gt;src/nil.ts -->
<!-- src/sequence.ts&#45;&gt;src/nil.ts -->
<g id="edge27" class="edge">
<title>src/sequence.ts&#45;&gt;src/nil.ts</title>
<path fill="none" stroke="black" d="M138.1,-200.17C135.82,-208.36 127.41,-219.83 117.14,-229.31"/>
<polygon fill="black" stroke="black" points="114.82,-226.68 109.39,-235.78 119.31,-232.06 114.82,-226.68"/>
</g>
<!-- src/sequence.ts&#45;&gt;src/cons.ts -->
<!-- src/sequence.ts&#45;&gt;src/cons.ts -->
<g id="edge25" class="edge">
<title>src/sequence.ts&#45;&gt;src/cons.ts</title>
<path fill="none" stroke="black" d="M142.97,-176.78C144.33,-169.06 141.58,-158.43 136.27,-149.31"/>
<polygon fill="black" stroke="black" points="139.12,-147.27 130.45,-141.17 133.42,-151.34 139.12,-147.27"/>
</g>
<!-- src/sequence.ts&#45;&gt;exit_src -->
<!-- src/cons.ts&#45;&gt;src/nil.ts -->
<!-- src/cons.ts&#45;&gt;src/nil.ts -->
<g id="edge11" class="edge">
<title>src/cons.ts&#45;&gt;src/nil.ts</title>
<path fill="none" stroke="black" d="M107.22,-141.25C101.01,-150.04 90.89,-163.23 86.5,-177 81.44,-192.86 83.82,-211.7 85.73,-225.76"/>
<polygon fill="black" stroke="black" points="82.28,-226.38 87.01,-235.86 89.23,-225.5 82.28,-226.38"/>
</g>
<!-- src/cons.ts&#45;&gt;src/sequence.ts -->
<!-- src/cons.ts&#45;&gt;src/sequence.ts -->
<g id="edge13" class="edge">
<title>src/cons.ts&#45;&gt;src/sequence.ts</title>
<path fill="none" stroke="black" d="M119.65,-141.17C123.46,-148.41 127.27,-158.2 129.79,-166.92"/>
<polygon fill="black" stroke="black" points="126.42,-167.87 132.15,-176.78 133.23,-166.24 126.42,-167.87"/>
</g>
<!-- src/cons.ts&#45;&gt;exit_src -->
<!-- name_src -->
<g id="node5" class="node">
<title>name_src</title>
<path fill="none" stroke="#ff0000" stroke-width="5" d="M206.83,-318C206.83,-318 168.17,-318 168.17,-318 164.33,-318 160.5,-314.17 160.5,-310.33 160.5,-310.33 160.5,-302.67 160.5,-302.67 160.5,-298.83 164.33,-295 168.17,-295 168.17,-295 206.83,-295 206.83,-295 210.67,-295 214.5,-298.83 214.5,-302.67 214.5,-302.67 214.5,-310.33 214.5,-310.33 214.5,-314.17 210.67,-318 206.83,-318"/>
<text text-anchor="middle" x="187.5" y="-302.8" font-family="Arial" font-size="14.00" fill="#000000">src</text>
</g>
<!-- exit_src&#45;&gt;dependency&#45;graph&#45;[object Object] -->
<!-- exit_src&#45;&gt;exit_src -->
<!-- exit_src&#45;&gt;exit_src -->
<!-- exit_src&#45;&gt;exit_src -->
<!-- exit_src&#45;&gt;exit_src -->
<!-- src/index.ts -->
<g id="node7" class="node">
<title>src/index.ts</title>
<path fill="none" stroke="#ff0000" stroke-width="5" d="M134.33,-318C134.33,-318 86.67,-318 86.67,-318 82.83,-318 79,-314.17 79,-310.33 79,-310.33 79,-302.67 79,-302.67 79,-298.83 82.83,-295 86.67,-295 86.67,-295 134.33,-295 134.33,-295 138.17,-295 142,-298.83 142,-302.67 142,-302.67 142,-310.33 142,-310.33 142,-314.17 138.17,-318 134.33,-318"/>
<text text-anchor="middle" x="110.5" y="-302.8" font-family="Arial" font-size="14.00" fill="#000000">index.ts</text>
</g>
<!-- src/index.ts&#45;&gt;src/nil.ts -->
<!-- src/index.ts&#45;&gt;src/nil.ts -->
<g id="edge17" class="edge">
<title>src/index.ts&#45;&gt;src/nil.ts</title>
<path fill="none" stroke="black" d="M111.02,-294.78C108.9,-287.22 104.52,-276.87 99.77,-267.88"/>
<polygon fill="black" stroke="black" points="102.79,-266.1 94.77,-259.17 96.72,-269.59 102.79,-266.1"/>
</g>
<!-- src/index.ts&#45;&gt;src/sequence.ts -->
<!-- src/index.ts&#45;&gt;src/sequence.ts -->
<g id="edge19" class="edge">
<title>src/index.ts&#45;&gt;src/sequence.ts</title>
<path fill="none" stroke="black" d="M120.13,-294.83C124.18,-285.43 127.29,-271.35 129.5,-259 132.39,-242.88 135,-224.53 135.53,-210.74"/>
<polygon fill="black" stroke="black" points="139.03,-210.34 135.44,-200.37 132.03,-210.4 139.03,-210.34"/>
</g>
<!-- src/index.ts&#45;&gt;src/cons.ts -->
<!-- src/index.ts&#45;&gt;src/cons.ts -->
<g id="edge15" class="edge">
<title>src/index.ts&#45;&gt;src/cons.ts</title>
<path fill="none" stroke="black" d="M127.15,-294.76C147.94,-276.99 181.04,-239.47 193.5,-200 196.58,-190.25 198.44,-185.95 193.5,-177 184.42,-160.57 166.83,-149.16 150.07,-141.76"/>
<polygon fill="black" stroke="black" points="150.94,-138.34 140.36,-137.85 148.33,-144.83 150.94,-138.34"/>
</g>
<!-- src/index.ts&#45;&gt;exit_src -->
</g>
</svg>
