<?xml version="1.0" encoding="UTF-8" standalone="no"?>
<!DOCTYPE svg PUBLIC "-//W3C//DTD SVG 1.1//EN"
 "http://www.w3.org/Graphics/SVG/1.1/DTD/svg11.dtd">
<!-- Generated by graphviz version 2.43.0 (0)
 -->
<!-- Title: dependency&#45;graph&#45;[object Object] Pages: 1 -->
<svg width="264pt" height="267pt"
 viewBox="0.00 0.00 264.20 267.20" xmlns="http://www.w3.org/2000/svg" xmlns:xlink="http://www.w3.org/1999/xlink">
<g id="graph0" class="graph" transform="scale(1 1) rotate(0) translate(21.6 245.6)">
<title>dependency&#45;graph&#45;[object Object]</title>
<polygon fill="#ffffff" stroke="transparent" points="-21.6,21.6 -21.6,-245.6 242.6,-245.6 242.6,21.6 -21.6,21.6"/>
<g id="clust1" class="cluster">
<title>cluster_src</title>
<polygon fill="#ffffff" stroke="#000000" points="36.5,-43 36.5,-216 204.5,-216 204.5,-43 36.5,-43"/>
</g>
<g id="clust2" class="cluster">
<title>cluster_src</title>
<polygon fill="#ffffff" stroke="#000000" points="44.5,-51 44.5,-208 196.5,-208 196.5,-51 44.5,-51"/>
</g>
<!-- dependency&#45;graph&#45;[object Object] -->
<!-- src/trampoline.ts -->
<g id="node2" class="node">
<title>src/trampoline.ts</title>
<path fill="none" stroke="#000000" d="M140.33,-141C140.33,-141 60.67,-141 60.67,-141 56.83,-141 53,-137.17 53,-133.33 53,-133.33 53,-125.67 53,-125.67 53,-121.83 56.83,-118 60.67,-118 60.67,-118 140.33,-118 140.33,-118 144.17,-118 148,-121.83 148,-125.67 148,-125.67 148,-133.33 148,-133.33 148,-137.17 144.17,-141 140.33,-141"/>
<text text-anchor="middle" x="100.5" y="-125.8" font-family="Arial" font-size="14.00" fill="#000000">trampoline.ts</text>
</g>
<!-- exit_src -->
<!-- src/trampoline.ts&#45;&gt;exit_src -->
<!-- name_src -->
<g id="node3" class="node">
<title>name_src</title>
<path fill="none" stroke="#ff0000" stroke-width="5" d="M180.83,-200C180.83,-200 142.17,-200 142.17,-200 138.33,-200 134.5,-196.17 134.5,-192.33 134.5,-192.33 134.5,-184.67 134.5,-184.67 134.5,-180.83 138.33,-177 142.17,-177 142.17,-177 180.83,-177 180.83,-177 184.67,-177 188.5,-180.83 188.5,-184.67 188.5,-184.67 188.5,-192.33 188.5,-192.33 188.5,-196.17 184.67,-200 180.83,-200"/>
<text text-anchor="middle" x="161.5" y="-184.8" font-family="Arial" font-size="14.00" fill="#000000">src</text>
</g>
<!-- exit_src&#45;&gt;dependency&#45;graph&#45;[object Object] -->
<!-- exit_src&#45;&gt;exit_src -->
<!-- exit_src&#45;&gt;exit_src -->
<!-- src/common.ts -->
<g id="node5" class="node">
<title>src/common.ts</title>
<path fill="none" stroke="#ff0000" stroke-width="5" d="M108.33,-200C108.33,-200 60.67,-200 60.67,-200 56.83,-200 53,-196.17 53,-192.33 53,-192.33 53,-184.67 53,-184.67 53,-180.83 56.83,-177 60.67,-177 60.67,-177 108.33,-177 108.33,-177 112.17,-177 116,-180.83 116,-184.67 116,-184.67 116,-192.33 116,-192.33 116,-196.17 112.17,-200 108.33,-200"/>
<text text-anchor="middle" x="84.5" y="-184.8" font-family="Arial" font-size="14.00" fill="#000000">common.ts</text>
</g>
<!-- src/common.ts&#45;&gt;src/trampoline.ts -->
<!-- src/common.ts&#45;&gt;src/trampoline.ts -->
<g id="edge7" class="edge">
<title>src/common.ts&#45;&gt;src/trampoline.ts</title>
<path fill="none" stroke="black" d="M92.92,-176.78C96.19,-169.61 99.27,-159.95 101.19,-151.31"/>
<polygon fill="black" stroke="black" points="104.68,-151.62 102.91,-141.17 97.78,-150.45 104.68,-151.62"/>
</g>
<!-- src/common.ts&#45;&gt;exit_src -->
</g>
</svg>
