<?xml version="1.0" encoding="UTF-8" standalone="no"?>
<!DOCTYPE svg PUBLIC "-//W3C//DTD SVG 1.1//EN"
 "http://www.w3.org/Graphics/SVG/1.1/DTD/svg11.dtd">
<!-- Generated by graphviz version 2.43.0 (0)
 -->
<!-- Title: dependency&#45;graph&#45;@siteimprove/alfa&#45;cascade Pages: 1 -->
<svg width="793pt" height="527pt"
 viewBox="0.00 0.00 793.20 527.20" xmlns="http://www.w3.org/2000/svg" xmlns:xlink="http://www.w3.org/1999/xlink">
<g id="graph0" class="graph" transform="scale(1 1) rotate(0) translate(21.6 505.6)">
<title>dependency&#45;graph&#45;@siteimprove/alfa&#45;cascade</title>
<polygon fill="#ffffff" stroke="transparent" points="-21.6,21.6 -21.6,-505.6 771.6,-505.6 771.6,21.6 -21.6,21.6"/>
<g id="clust1" class="cluster">
<title>cluster_src</title>
<polygon fill="#ffffff" stroke="#000000" points="8,-8 8,-476 742,-476 742,-8 8,-8"/>
</g>
<g id="clust2" class="cluster">
<title>cluster_src</title>
<polygon fill="#ffffff" stroke="#000000" points="16,-16 16,-468 734,-468 734,-16 16,-16"/>
</g>
<g id="clust3" class="cluster">
<title>cluster_src/precedence</title>
<polygon fill="#ffffff" stroke="#000000" points="284,-75 284,-291 694,-291 694,-75 284,-75"/>
</g>
<!-- src/precedence/encapsulation.ts -->
<g id="node1" class="node">
<title>src/precedence/encapsulation.ts</title>
<path fill="none" stroke="#000000" d="M398.33,-165C398.33,-165 299.67,-165 299.67,-165 295.83,-165 292,-161.17 292,-157.33 292,-157.33 292,-149.67 292,-149.67 292,-145.83 295.83,-142 299.67,-142 299.67,-142 398.33,-142 398.33,-142 402.17,-142 406,-145.83 406,-149.67 406,-149.67 406,-157.33 406,-157.33 406,-161.17 402.17,-165 398.33,-165"/>
<text text-anchor="middle" x="349" y="-149.8" font-family="Arial" font-size="14.00" fill="#000000">encapsulation.ts</text>
</g>
<!-- exit_src/precedence -->
<!-- src/precedence/encapsulation.ts&#45;&gt;exit_src/precedence -->
<!-- src/precedence/layer.ts -->
<g id="node2" class="node">
<title>src/precedence/layer.ts</title>
<path fill="none" stroke="#000000" d="M475.83,-165C475.83,-165 432.17,-165 432.17,-165 428.33,-165 424.5,-161.17 424.5,-157.33 424.5,-157.33 424.5,-149.67 424.5,-149.67 424.5,-145.83 428.33,-142 432.17,-142 432.17,-142 475.83,-142 475.83,-142 479.67,-142 483.5,-145.83 483.5,-149.67 483.5,-149.67 483.5,-157.33 483.5,-157.33 483.5,-161.17 479.67,-165 475.83,-165"/>
<text text-anchor="middle" x="454" y="-149.8" font-family="Arial" font-size="14.00" fill="#000000">layer.ts</text>
</g>
<!-- src/precedence/layer.ts&#45;&gt;exit_src/precedence -->
<!-- src/precedence/order.ts -->
<g id="node3" class="node">
<title>src/precedence/order.ts</title>
<path fill="none" stroke="#000000" d="M576.33,-165C576.33,-165 529.67,-165 529.67,-165 525.83,-165 522,-161.17 522,-157.33 522,-157.33 522,-149.67 522,-149.67 522,-145.83 525.83,-142 529.67,-142 529.67,-142 576.33,-142 576.33,-142 580.17,-142 584,-145.83 584,-149.67 584,-149.67 584,-157.33 584,-157.33 584,-161.17 580.17,-165 576.33,-165"/>
<text text-anchor="middle" x="553" y="-149.8" font-family="Arial" font-size="14.00" fill="#000000">order.ts</text>
</g>
<!-- src/precedence/order.ts&#45;&gt;exit_src/precedence -->
<!-- src/precedence/origin.ts -->
<g id="node4" class="node">
<title>src/precedence/origin.ts</title>
<path fill="none" stroke="#000000" d="M658.33,-165C658.33,-165 609.67,-165 609.67,-165 605.83,-165 602,-161.17 602,-157.33 602,-157.33 602,-149.67 602,-149.67 602,-145.83 605.83,-142 609.67,-142 609.67,-142 658.33,-142 658.33,-142 662.17,-142 666,-145.83 666,-149.67 666,-149.67 666,-157.33 666,-157.33 666,-161.17 662.17,-165 658.33,-165"/>
<text text-anchor="middle" x="634" y="-149.8" font-family="Arial" font-size="14.00" fill="#000000">origin.ts</text>
</g>
<!-- src/precedence/origin.ts&#45;&gt;exit_src/precedence -->
<!-- src/precedence/precedence.ts -->
<g id="node5" class="node">
<title>src/precedence/precedence.ts</title>
<path fill="none" stroke="#000000" d="M555.83,-224C555.83,-224 470.17,-224 470.17,-224 466.33,-224 462.5,-220.17 462.5,-216.33 462.5,-216.33 462.5,-208.67 462.5,-208.67 462.5,-204.83 466.33,-201 470.17,-201 470.17,-201 555.83,-201 555.83,-201 559.67,-201 563.5,-204.83 563.5,-208.67 563.5,-208.67 563.5,-216.33 563.5,-216.33 563.5,-220.17 559.67,-224 555.83,-224"/>
<text text-anchor="middle" x="513" y="-208.8" font-family="Arial" font-size="14.00" fill="#000000">precedence.ts</text>
</g>
<!-- src/precedence/precedence.ts&#45;&gt;src/precedence/encapsulation.ts -->
<!-- src/precedence/precedence.ts&#45;&gt;src/precedence/encapsulation.ts -->
<g id="edge60" class="edge">
<title>src/precedence/precedence.ts&#45;&gt;src/precedence/encapsulation.ts</title>
<path fill="none" stroke="black" d="M487.93,-200.91C462.99,-191.67 424.41,-178.21 394.17,-168.16"/>
<polygon fill="black" stroke="black" points="395.27,-164.84 384.68,-165.03 393.08,-171.49 395.27,-164.84"/>
</g>
<!-- src/precedence/precedence.ts&#45;&gt;src/precedence/layer.ts -->
<!-- src/precedence/precedence.ts&#45;&gt;src/precedence/layer.ts -->
<g id="edge62" class="edge">
<title>src/precedence/precedence.ts&#45;&gt;src/precedence/layer.ts</title>
<path fill="none" stroke="black" d="M507.31,-200.78C500.33,-192.66 488.9,-181.33 478.3,-171.92"/>
<polygon fill="black" stroke="black" points="480.32,-169.03 470.45,-165.17 475.76,-174.34 480.32,-169.03"/>
</g>
<!-- src/precedence/precedence.ts&#45;&gt;src/precedence/order.ts -->
<!-- src/precedence/precedence.ts&#45;&gt;src/precedence/order.ts -->
<g id="edge64" class="edge">
<title>src/precedence/precedence.ts&#45;&gt;src/precedence/order.ts</title>
<path fill="none" stroke="black" d="M525.94,-200.78C532.57,-193.22 540.17,-182.87 545.83,-173.88"/>
<polygon fill="black" stroke="black" points="548.9,-175.57 550.91,-165.17 542.85,-172.05 548.9,-175.57"/>
</g>
<!-- src/precedence/precedence.ts&#45;&gt;src/precedence/origin.ts -->
<!-- src/precedence/precedence.ts&#45;&gt;src/precedence/origin.ts -->
<g id="edge66" class="edge">
<title>src/precedence/precedence.ts&#45;&gt;src/precedence/origin.ts</title>
<path fill="none" stroke="black" d="M540.86,-200.91C561.1,-192.11 588.13,-179.49 607.94,-169.62"/>
<polygon fill="black" stroke="black" points="609.68,-172.67 617.02,-165.03 606.52,-166.42 609.68,-172.67"/>
</g>
<!-- src/precedence/precedence.ts&#45;&gt;exit_src/precedence -->
<!-- src/precedence/index.ts -->
<g id="node6" class="node">
<title>src/precedence/index.ts</title>
<path fill="none" stroke="#ff0000" stroke-width="5" d="M536.83,-283C536.83,-283 489.17,-283 489.17,-283 485.33,-283 481.5,-279.17 481.5,-275.33 481.5,-275.33 481.5,-267.67 481.5,-267.67 481.5,-263.83 485.33,-260 489.17,-260 489.17,-260 536.83,-260 536.83,-260 540.67,-260 544.5,-263.83 544.5,-267.67 544.5,-267.67 544.5,-275.33 544.5,-275.33 544.5,-279.17 540.67,-283 536.83,-283"/>
<text text-anchor="middle" x="513" y="-267.8" font-family="Arial" font-size="14.00" fill="#000000">index.ts</text>
</g>
<!-- src/precedence/index.ts&#45;&gt;src/precedence/encapsulation.ts -->
<!-- src/precedence/index.ts&#45;&gt;src/precedence/encapsulation.ts -->
<g id="edge34" class="edge">
<title>src/precedence/index.ts&#45;&gt;src/precedence/encapsulation.ts</title>
<path fill="none" stroke="black" d="M504.1,-259.96C491.92,-250.65 470.97,-236.62 453,-224 427.54,-206.12 398.76,-184.92 377.72,-170.68"/>
<polygon fill="black" stroke="black" points="379.48,-167.65 369.21,-165.03 375.61,-173.48 379.48,-167.65"/>
</g>
<!-- src/precedence/index.ts&#45;&gt;src/precedence/layer.ts -->
<!-- src/precedence/index.ts&#45;&gt;src/precedence/layer.ts -->
<g id="edge36" class="edge">
<title>src/precedence/index.ts&#45;&gt;src/precedence/layer.ts</title>
<path fill="none" stroke="black" d="M499.02,-259.95C486.91,-252.08 470.74,-239.96 463,-224 455.69,-208.92 456.31,-189.75 456.97,-175.36"/>
<polygon fill="black" stroke="black" points="460.48,-175.15 457.36,-165.02 453.49,-174.88 460.48,-175.15"/>
</g>
<!-- src/precedence/index.ts&#45;&gt;src/precedence/order.ts -->
<!-- src/precedence/index.ts&#45;&gt;src/precedence/order.ts -->
<g id="edge38" class="edge">
<title>src/precedence/index.ts&#45;&gt;src/precedence/order.ts</title>
<path fill="none" stroke="black" d="M542.97,-259.86C557.91,-252.03 574.17,-239.98 582,-224 589.96,-207.75 582.63,-187.78 573.08,-173.42"/>
<polygon fill="black" stroke="black" points="575.78,-171.18 566.98,-165.29 570.18,-175.38 575.78,-171.18"/>
</g>
<!-- src/precedence/index.ts&#45;&gt;src/precedence/origin.ts -->
<!-- src/precedence/index.ts&#45;&gt;src/precedence/origin.ts -->
<g id="edge40" class="edge">
<title>src/precedence/index.ts&#45;&gt;src/precedence/origin.ts</title>
<path fill="none" stroke="black" d="M538.18,-259.91C553.76,-251.21 573.13,-238.06 588,-224 603.99,-208.88 619.27,-188.97 628.09,-174.33"/>
<polygon fill="black" stroke="black" points="631.37,-175.62 633.08,-165.17 625.22,-172.27 631.37,-175.62"/>
</g>
<!-- src/precedence/index.ts&#45;&gt;src/precedence/precedence.ts -->
<!-- src/precedence/index.ts&#45;&gt;src/precedence/precedence.ts -->
<g id="edge42" class="edge">
<title>src/precedence/index.ts&#45;&gt;src/precedence/precedence.ts</title>
<path fill="none" stroke="black" d="M518.41,-259.78C519.67,-252.61 520.04,-242.95 519.53,-234.31"/>
<polygon fill="black" stroke="black" points="522.98,-233.73 518.4,-224.17 516.03,-234.5 522.98,-233.73"/>
</g>
<!-- src/precedence/index.ts&#45;&gt;exit_src/precedence -->
<!-- name_src/precedence -->
<g id="node7" class="node">
<title>name_src/precedence</title>
<path fill="none" stroke="#ff0000" stroke-width="5" d="M373.83,-283C373.83,-283 302.17,-283 302.17,-283 298.33,-283 294.5,-279.17 294.5,-275.33 294.5,-275.33 294.5,-267.67 294.5,-267.67 294.5,-263.83 298.33,-260 302.17,-260 302.17,-260 373.83,-260 373.83,-260 377.67,-260 381.5,-263.83 381.5,-267.67 381.5,-267.67 381.5,-275.33 381.5,-275.33 381.5,-279.17 377.67,-283 373.83,-283"/>
<text text-anchor="middle" x="338" y="-267.8" font-family="Arial" font-size="14.00" fill="#000000">precedence</text>
</g>
<!-- src/user&#45;agent.ts -->
<g id="node8" class="node">
<title>src/user&#45;agent.ts</title>
<path fill="none" stroke="#000000" d="M147.83,-224C147.83,-224 68.17,-224 68.17,-224 64.33,-224 60.5,-220.17 60.5,-216.33 60.5,-216.33 60.5,-208.67 60.5,-208.67 60.5,-204.83 64.33,-201 68.17,-201 68.17,-201 147.83,-201 147.83,-201 151.67,-201 155.5,-204.83 155.5,-208.67 155.5,-208.67 155.5,-216.33 155.5,-216.33 155.5,-220.17 151.67,-224 147.83,-224"/>
<text text-anchor="middle" x="108" y="-208.8" font-family="Arial" font-size="14.00" fill="#000000">user&#45;agent.ts</text>
</g>
<!-- exit_src -->
<!-- src/user&#45;agent.ts&#45;&gt;exit_src -->
<!-- src/block.ts -->
<g id="node9" class="node">
<title>src/block.ts</title>
<path fill="none" stroke="#000000" d="M268.33,-283C268.33,-283 221.67,-283 221.67,-283 217.83,-283 214,-279.17 214,-275.33 214,-275.33 214,-267.67 214,-267.67 214,-263.83 217.83,-260 221.67,-260 221.67,-260 268.33,-260 268.33,-260 272.17,-260 276,-263.83 276,-267.67 276,-267.67 276,-275.33 276,-275.33 276,-279.17 272.17,-283 268.33,-283"/>
<text text-anchor="middle" x="245" y="-267.8" font-family="Arial" font-size="14.00" fill="#000000">block.ts</text>
</g>
<!-- src/block.ts&#45;&gt;name_src/precedence -->
<g id="edge43" class="edge">
<title>src/block.ts&#45;&gt;name_src/precedence</title>
<path fill="none" stroke="#00ffff" d="M276.24,-271.5C276.4,-271.5 276.57,-271.5 276.73,-271.5"/>
<polygon fill="#00ffff" stroke="#00ffff" points="274,-275 284,-271.5 274,-268 274,-275"/>
</g>
<!-- src/block.ts&#45;&gt;src/user&#45;agent.ts -->
<!-- src/block.ts&#45;&gt;src/user&#45;agent.ts -->
<g id="edge45" class="edge">
<title>src/block.ts&#45;&gt;src/user&#45;agent.ts</title>
<path fill="none" stroke="black" d="M224.94,-259.91C204.73,-250.83 173.29,-237.68 148.03,-227.69"/>
<polygon fill="black" stroke="black" points="149.28,-224.42 138.69,-224.03 146.72,-230.94 149.28,-224.42"/>
</g>
<!-- src/block.ts&#45;&gt;exit_src -->
<!-- src/ancestor&#45;filter.ts -->
<g id="node10" class="node">
<title>src/ancestor&#45;filter.ts</title>
<path fill="none" stroke="#000000" d="M168.33,-283C168.33,-283 71.67,-283 71.67,-283 67.83,-283 64,-279.17 64,-275.33 64,-275.33 64,-267.67 64,-267.67 64,-263.83 67.83,-260 71.67,-260 71.67,-260 168.33,-260 168.33,-260 172.17,-260 176,-263.83 176,-267.67 176,-267.67 176,-275.33 176,-275.33 176,-279.17 172.17,-283 168.33,-283"/>
<text text-anchor="middle" x="120" y="-267.8" font-family="Arial" font-size="14.00" fill="#000000">ancestor&#45;filter.ts</text>
</g>
<!-- src/ancestor&#45;filter.ts&#45;&gt;exit_src -->
<!-- src/cascade.ts -->
<g id="node11" class="node">
<title>src/cascade.ts</title>
<path fill="none" stroke="#000000" d="M203.83,-401C203.83,-401 138.17,-401 138.17,-401 134.33,-401 130.5,-397.17 130.5,-393.33 130.5,-393.33 130.5,-385.67 130.5,-385.67 130.5,-381.83 134.33,-378 138.17,-378 138.17,-378 203.83,-378 203.83,-378 207.67,-378 211.5,-381.83 211.5,-385.67 211.5,-385.67 211.5,-393.33 211.5,-393.33 211.5,-397.17 207.67,-401 203.83,-401"/>
<text text-anchor="middle" x="171" y="-385.8" font-family="Arial" font-size="14.00" fill="#000000">cascade.ts</text>
</g>
<!-- src/cascade.ts&#45;&gt;src/user&#45;agent.ts -->
<!-- src/cascade.ts&#45;&gt;src/user&#45;agent.ts -->
<g id="edge76" class="edge">
<title>src/cascade.ts&#45;&gt;src/user&#45;agent.ts</title>
<path fill="none" stroke="black" d="M153.47,-377.88C127.1,-363.25 79.62,-333.75 64,-291 59.27,-278.06 58.32,-272.55 64,-260 69.34,-248.22 79.3,-238.24 88.52,-230.59"/>
<polygon fill="black" stroke="black" points="90.92,-233.15 96.63,-224.22 86.6,-227.64 90.92,-233.15"/>
</g>
<!-- src/cascade.ts&#45;&gt;src/block.ts -->
<!-- src/cascade.ts&#45;&gt;src/block.ts -->
<g id="edge70" class="edge">
<title>src/cascade.ts&#45;&gt;src/block.ts</title>
<path fill="none" stroke="black" d="M201.3,-377.97C216.89,-370.12 234.35,-357.99 244,-342 252.83,-327.36 254.99,-307.9 253.65,-293.3"/>
<polygon fill="black" stroke="black" points="257.07,-292.54 252,-283.24 250.17,-293.67 257.07,-292.54"/>
</g>
<!-- src/cascade.ts&#45;&gt;src/ancestor&#45;filter.ts -->
<!-- src/cascade.ts&#45;&gt;src/ancestor&#45;filter.ts -->
<g id="edge68" class="edge">
<title>src/cascade.ts&#45;&gt;src/ancestor&#45;filter.ts</title>
<path fill="none" stroke="black" d="M154.36,-377.88C141.24,-370.19 124.29,-358.28 116,-342 108.27,-326.83 112.73,-307.71 117.01,-293.36"/>
<polygon fill="black" stroke="black" points="120.46,-294.05 120.04,-283.47 113.77,-292 120.46,-294.05"/>
</g>
<!-- src/rule&#45;tree.ts -->
<g id="node12" class="node">
<title>src/rule&#45;tree.ts</title>
<path fill="none" stroke="#000000" d="M337.83,-342C337.83,-342 272.17,-342 272.17,-342 268.33,-342 264.5,-338.17 264.5,-334.33 264.5,-334.33 264.5,-326.67 264.5,-326.67 264.5,-322.83 268.33,-319 272.17,-319 272.17,-319 337.83,-319 337.83,-319 341.67,-319 345.5,-322.83 345.5,-326.67 345.5,-326.67 345.5,-334.33 345.5,-334.33 345.5,-338.17 341.67,-342 337.83,-342"/>
<text text-anchor="middle" x="305" y="-326.8" font-family="Arial" font-size="14.00" fill="#000000">rule&#45;tree.ts</text>
</g>
<!-- src/cascade.ts&#45;&gt;src/rule&#45;tree.ts -->
<!-- src/cascade.ts&#45;&gt;src/rule&#45;tree.ts -->
<g id="edge72" class="edge">
<title>src/cascade.ts&#45;&gt;src/rule&#45;tree.ts</title>
<path fill="none" stroke="black" d="M201.28,-377.91C223.83,-368.99 254.25,-356.14 276.39,-346.22"/>
<polygon fill="black" stroke="black" points="277.96,-349.35 285.62,-342.03 275.07,-342.98 277.96,-349.35"/>
</g>
<!-- src/selector&#45;map.ts -->
<g id="node13" class="node">
<title>src/selector&#45;map.ts</title>
<path fill="none" stroke="#000000" d="M218.33,-342C218.33,-342 123.67,-342 123.67,-342 119.83,-342 116,-338.17 116,-334.33 116,-334.33 116,-326.67 116,-326.67 116,-322.83 119.83,-319 123.67,-319 123.67,-319 218.33,-319 218.33,-319 222.17,-319 226,-322.83 226,-326.67 226,-326.67 226,-334.33 226,-334.33 226,-338.17 222.17,-342 218.33,-342"/>
<text text-anchor="middle" x="171" y="-326.8" font-family="Arial" font-size="14.00" fill="#000000">selector&#45;map.ts</text>
</g>
<!-- src/cascade.ts&#45;&gt;src/selector&#45;map.ts -->
<!-- src/cascade.ts&#45;&gt;src/selector&#45;map.ts -->
<g id="edge74" class="edge">
<title>src/cascade.ts&#45;&gt;src/selector&#45;map.ts</title>
<path fill="none" stroke="black" d="M176.41,-377.78C177.67,-370.61 178.04,-360.95 177.53,-352.31"/>
<polygon fill="black" stroke="black" points="180.98,-351.73 176.4,-342.17 174.03,-352.5 180.98,-351.73"/>
</g>
<!-- src/cascade.ts&#45;&gt;exit_src -->
<!-- src/rule&#45;tree.ts&#45;&gt;name_src/precedence -->
<g id="edge48" class="edge">
<title>src/rule&#45;tree.ts&#45;&gt;name_src/precedence</title>
<path fill="none" stroke="#00ffff" d="M311.21,-318.78C315.59,-311.22 321.57,-300.87 326.78,-291.88"/>
<polygon fill="#00ffff" stroke="#00ffff" points="322.44,-300.13 327.82,-291 317.92,-294.78 322.44,-300.13"/>
</g>
<!-- src/rule&#45;tree.ts&#45;&gt;src/block.ts -->
<!-- src/rule&#45;tree.ts&#45;&gt;src/block.ts -->
<g id="edge47" class="edge">
<title>src/rule&#45;tree.ts&#45;&gt;src/block.ts</title>
<path fill="none" stroke="black" d="M299.13,-318.78C291.93,-310.58 280.14,-299.11 269.29,-289.64"/>
<polygon fill="black" stroke="black" points="271.54,-286.95 261.64,-283.17 267.02,-292.3 271.54,-286.95"/>
</g>
<!-- src/rule&#45;tree.ts&#45;&gt;exit_src -->
<!-- src/selector&#45;map.ts&#45;&gt;name_src/precedence -->
<g id="edge53" class="edge">
<title>src/selector&#45;map.ts&#45;&gt;name_src/precedence</title>
<path fill="none" stroke="#00ffff" d="M205.86,-318.97C227.28,-312.35 255.52,-303.39 281.53,-294.33"/>
<polygon fill="#00ffff" stroke="#00ffff" points="282.73,-297.62 291,-291 280.41,-291.02 282.73,-297.62"/>
</g>
<!-- src/selector&#45;map.ts&#45;&gt;src/block.ts -->
<!-- src/selector&#45;map.ts&#45;&gt;src/block.ts -->
<g id="edge52" class="edge">
<title>src/selector&#45;map.ts&#45;&gt;src/block.ts</title>
<path fill="none" stroke="black" d="M190.33,-318.78C202.3,-310.66 217.29,-299.33 228.66,-289.92"/>
<polygon fill="black" stroke="black" points="231.22,-292.33 236.55,-283.17 226.67,-287.01 231.22,-292.33"/>
</g>
<!-- src/selector&#45;map.ts&#45;&gt;src/ancestor&#45;filter.ts -->
<!-- src/selector&#45;map.ts&#45;&gt;src/ancestor&#45;filter.ts -->
<g id="edge50" class="edge">
<title>src/selector&#45;map.ts&#45;&gt;src/ancestor&#45;filter.ts</title>
<path fill="none" stroke="black" stroke-dasharray="1,5" d="M166.82,-318.78C161.03,-310.74 151.32,-299.55 142.13,-290.19"/>
<polygon fill="black" stroke="black" points="144.55,-287.66 134.95,-283.17 139.65,-292.67 144.55,-287.66"/>
</g>
<!-- src/selector&#45;map.ts&#45;&gt;exit_src -->
<!-- exit_src&#45;&gt;exit_src -->
<!-- exit_src&#45;&gt;exit_src -->
<!-- exit_src&#45;&gt;exit_src -->
<!-- exit_src&#45;&gt;exit_src -->
<!-- exit_src&#45;&gt;exit_src -->
<!-- exit_src&#45;&gt;exit_src -->
<!-- exit_src&#45;&gt;exit_src -->
<!-- exit_src&#45;&gt;exit_src -->
<!-- exit_src&#45;&gt;exit_src -->
<!-- exit_src&#45;&gt;exit_src -->
<!-- exit_src&#45;&gt;exit_src -->
<!-- exit_src&#45;&gt;exit_src -->
<!-- exit_src&#45;&gt;exit_src -->
<!-- name_src -->
<g id="node15" class="node">
<title>name_src</title>
<path fill="none" stroke="#00ffff" stroke-width="5" d="M559.33,-460C559.33,-460 520.67,-460 520.67,-460 516.83,-460 513,-456.17 513,-452.33 513,-452.33 513,-444.67 513,-444.67 513,-440.83 516.83,-437 520.67,-437 520.67,-437 559.33,-437 559.33,-437 563.17,-437 567,-440.83 567,-444.67 567,-444.67 567,-452.33 567,-452.33 567,-456.17 563.17,-460 559.33,-460"/>
<text text-anchor="middle" x="540" y="-444.8" font-family="Arial" font-size="14.00" fill="#000000">src</text>
</g>
<!-- src/index.ts -->
<g id="node16" class="node">
<title>src/index.ts</title>
<path fill="none" stroke="#00ffff" stroke-width="5" d="M328.83,-460C328.83,-460 281.17,-460 281.17,-460 277.33,-460 273.5,-456.17 273.5,-452.33 273.5,-452.33 273.5,-444.67 273.5,-444.67 273.5,-440.83 277.33,-437 281.17,-437 281.17,-437 328.83,-437 328.83,-437 332.67,-437 336.5,-440.83 336.5,-444.67 336.5,-444.67 336.5,-452.33 336.5,-452.33 336.5,-456.17 332.67,-460 328.83,-460"/>
<text text-anchor="middle" x="305" y="-444.8" font-family="Arial" font-size="14.00" fill="#000000">index.ts</text>
</g>
<!-- src/index.ts&#45;&gt;name_src/precedence -->
<g id="edge56" class="edge">
<title>src/index.ts&#45;&gt;name_src/precedence</title>
<path fill="none" stroke="#00ffff" d="M311.94,-436.99C323.59,-418.65 346.64,-379.18 355,-342 358.74,-325.39 353.6,-306.64 348.02,-292.81"/>
<polygon fill="#00ffff" stroke="#00ffff" points="355.28,-297.35 346.8,-291 349.47,-301.25 355.28,-297.35"/>
</g>
<!-- src/index.ts&#45;&gt;src/cascade.ts -->
<!-- src/index.ts&#45;&gt;src/cascade.ts -->
<g id="edge55" class="edge">
<title>src/index.ts&#45;&gt;src/cascade.ts</title>
<path fill="none" stroke="black" d="M285.5,-436.91C265.86,-427.87 235.29,-414.79 210.61,-404.82"/>
<polygon fill="black" stroke="black" points="211.72,-401.49 201.13,-401.03 209.12,-407.99 211.72,-401.49"/>
</g>
<!-- src/index.ts&#45;&gt;src/rule&#45;tree.ts -->
<!-- src/index.ts&#45;&gt;src/rule&#45;tree.ts -->
<g id="edge58" class="edge">
<title>src/index.ts&#45;&gt;src/rule&#45;tree.ts</title>
<path fill="none" stroke="black" d="M309.11,-436.79C312.16,-417.63 312.57,-377.15 310.33,-352.34"/>
<polygon fill="black" stroke="black" points="313.77,-351.69 309.11,-342.18 306.82,-352.52 313.77,-351.69"/>
</g>
<!-- src/index.ts&#45;&gt;exit_src -->
<!-- exit_src/precedence&#45;&gt;exit_src -->
<!-- exit_src/precedence&#45;&gt;exit_src -->
<!-- exit_src/precedence&#45;&gt;exit_src -->
<!-- exit_src/precedence&#45;&gt;exit_src -->
<!-- exit_src/precedence&#45;&gt;exit_src -->
<!-- exit_src/precedence&#45;&gt;exit_src -->
</g>
</svg>
