<?xml version="1.0" encoding="UTF-8" standalone="no"?>
<!DOCTYPE svg PUBLIC "-//W3C//DTD SVG 1.1//EN"
 "http://www.w3.org/Graphics/SVG/1.1/DTD/svg11.dtd">
<!-- Generated by graphviz version 2.43.0 (0)
 -->
<!-- Title: dependency&#45;graph&#45;[object Object] Pages: 1 -->
<svg width="793pt" height="562pt"
 viewBox="0.00 0.00 793.20 562.20" xmlns="http://www.w3.org/2000/svg" xmlns:xlink="http://www.w3.org/1999/xlink">
<g id="graph0" class="graph" transform="scale(1 1) rotate(0) translate(21.6 540.6)">
<title>dependency&#45;graph&#45;[object Object]</title>
<polygon fill="#ffffff" stroke="transparent" points="-21.6,21.6 -21.6,-540.6 771.6,-540.6 771.6,21.6 -21.6,21.6"/>
<g id="clust1" class="cluster">
<title>cluster_src</title>
<polygon fill="#ffffff" stroke="#000000" points="8,-43 8,-511 742,-511 742,-43 8,-43"/>
</g>
<g id="clust2" class="cluster">
<title>cluster_src</title>
<polygon fill="#ffffff" stroke="#000000" points="16,-51 16,-503 734,-503 734,-51 16,-51"/>
</g>
<g id="clust3" class="cluster">
<title>cluster_src/precedence</title>
<polygon fill="#ffffff" stroke="#000000" points="36,-110 36,-326 446,-326 446,-110 36,-110"/>
</g>
<!-- dependency&#45;graph&#45;[object Object] -->
<!-- src/precedence/index.ts -->
<g id="node2" class="node">
<title>src/precedence/index.ts</title>
<path fill="none" stroke="#ff0000" stroke-width="5" d="M382.83,-318C382.83,-318 335.17,-318 335.17,-318 331.33,-318 327.5,-314.17 327.5,-310.33 327.5,-310.33 327.5,-302.67 327.5,-302.67 327.5,-298.83 331.33,-295 335.17,-295 335.17,-295 382.83,-295 382.83,-295 386.67,-295 390.5,-298.83 390.5,-302.67 390.5,-302.67 390.5,-310.33 390.5,-310.33 390.5,-314.17 386.67,-318 382.83,-318"/>
<text text-anchor="middle" x="359" y="-302.8" font-family="Arial" font-size="14.00" fill="#000000">index.ts</text>
</g>
<!-- src/precedence/encapsulation.ts -->
<g id="node10" class="node">
<title>src/precedence/encapsulation.ts</title>
<path fill="none" stroke="#000000" d="M150.33,-200C150.33,-200 51.67,-200 51.67,-200 47.83,-200 44,-196.17 44,-192.33 44,-192.33 44,-184.67 44,-184.67 44,-180.83 47.83,-177 51.67,-177 51.67,-177 150.33,-177 150.33,-177 154.17,-177 158,-180.83 158,-184.67 158,-184.67 158,-192.33 158,-192.33 158,-196.17 154.17,-200 150.33,-200"/>
<text text-anchor="middle" x="101" y="-184.8" font-family="Arial" font-size="14.00" fill="#000000">encapsulation.ts</text>
</g>
<!-- src/precedence/index.ts&#45;&gt;src/precedence/encapsulation.ts -->
<!-- src/precedence/index.ts&#45;&gt;src/precedence/encapsulation.ts -->
<g id="edge53" class="edge">
<title>src/precedence/index.ts&#45;&gt;src/precedence/encapsulation.ts</title>
<path fill="none" stroke="black" d="M328.78,-294.97C294.32,-284.3 240.68,-268.1 221,-259 188.42,-243.95 153.82,-221.04 129.97,-205.68"/>
<polygon fill="black" stroke="black" points="131.69,-202.63 121.38,-200.2 127.92,-208.53 131.69,-202.63"/>
</g>
<!-- src/precedence/layer.ts -->
<g id="node11" class="node">
<title>src/precedence/layer.ts</title>
<path fill="none" stroke="#000000" d="M227.83,-200C227.83,-200 184.17,-200 184.17,-200 180.33,-200 176.5,-196.17 176.5,-192.33 176.5,-192.33 176.5,-184.67 176.5,-184.67 176.5,-180.83 180.33,-177 184.17,-177 184.17,-177 227.83,-177 227.83,-177 231.67,-177 235.5,-180.83 235.5,-184.67 235.5,-184.67 235.5,-192.33 235.5,-192.33 235.5,-196.17 231.67,-200 227.83,-200"/>
<text text-anchor="middle" x="206" y="-184.8" font-family="Arial" font-size="14.00" fill="#000000">layer.ts</text>
</g>
<!-- src/precedence/index.ts&#45;&gt;src/precedence/layer.ts -->
<!-- src/precedence/index.ts&#45;&gt;src/precedence/layer.ts -->
<g id="edge55" class="edge">
<title>src/precedence/index.ts&#45;&gt;src/precedence/layer.ts</title>
<path fill="none" stroke="black" d="M331.5,-294.91C298.12,-283.5 245.94,-266.03 239,-259 225.96,-245.78 219.99,-225.15 215.62,-209.8"/>
<polygon fill="black" stroke="black" points="218.96,-208.77 212.78,-200.17 212.25,-210.75 218.96,-208.77"/>
</g>
<!-- src/precedence/order.ts -->
<g id="node12" class="node">
<title>src/precedence/order.ts</title>
<path fill="none" stroke="#000000" d="M328.33,-200C328.33,-200 281.67,-200 281.67,-200 277.83,-200 274,-196.17 274,-192.33 274,-192.33 274,-184.67 274,-184.67 274,-180.83 277.83,-177 281.67,-177 281.67,-177 328.33,-177 328.33,-177 332.17,-177 336,-180.83 336,-184.67 336,-184.67 336,-192.33 336,-192.33 336,-196.17 332.17,-200 328.33,-200"/>
<text text-anchor="middle" x="305" y="-184.8" font-family="Arial" font-size="14.00" fill="#000000">order.ts</text>
</g>
<!-- src/precedence/index.ts&#45;&gt;src/precedence/order.ts -->
<!-- src/precedence/index.ts&#45;&gt;src/precedence/order.ts -->
<g id="edge57" class="edge">
<title>src/precedence/index.ts&#45;&gt;src/precedence/order.ts</title>
<path fill="none" stroke="black" d="M365.6,-294.55C368.53,-280.34 367.23,-255.1 358,-236 352.61,-224.86 343.58,-214.61 334.36,-206.58"/>
<polygon fill="black" stroke="black" points="336.29,-203.65 326.29,-200.14 331.92,-209.12 336.29,-203.65"/>
</g>
<!-- src/precedence/origin.ts -->
<g id="node13" class="node">
<title>src/precedence/origin.ts</title>
<path fill="none" stroke="#000000" d="M410.33,-200C410.33,-200 361.67,-200 361.67,-200 357.83,-200 354,-196.17 354,-192.33 354,-192.33 354,-184.67 354,-184.67 354,-180.83 357.83,-177 361.67,-177 361.67,-177 410.33,-177 410.33,-177 414.17,-177 418,-180.83 418,-184.67 418,-184.67 418,-192.33 418,-192.33 418,-196.17 414.17,-200 410.33,-200"/>
<text text-anchor="middle" x="386" y="-184.8" font-family="Arial" font-size="14.00" fill="#000000">origin.ts</text>
</g>
<!-- src/precedence/index.ts&#45;&gt;src/precedence/origin.ts -->
<!-- src/precedence/index.ts&#45;&gt;src/precedence/origin.ts -->
<g id="edge59" class="edge">
<title>src/precedence/index.ts&#45;&gt;src/precedence/origin.ts</title>
<path fill="none" stroke="black" d="M365.6,-294.79C373.12,-275.63 382.94,-235.15 386.47,-210.34"/>
<polygon fill="black" stroke="black" points="389.98,-210.51 387.62,-200.18 383.02,-209.72 389.98,-210.51"/>
</g>
<!-- src/precedence/precedence.ts -->
<g id="node14" class="node">
<title>src/precedence/precedence.ts</title>
<path fill="none" stroke="#000000" d="M331.83,-259C331.83,-259 246.17,-259 246.17,-259 242.33,-259 238.5,-255.17 238.5,-251.33 238.5,-251.33 238.5,-243.67 238.5,-243.67 238.5,-239.83 242.33,-236 246.17,-236 246.17,-236 331.83,-236 331.83,-236 335.67,-236 339.5,-239.83 339.5,-243.67 339.5,-243.67 339.5,-251.33 339.5,-251.33 339.5,-255.17 335.67,-259 331.83,-259"/>
<text text-anchor="middle" x="289" y="-243.8" font-family="Arial" font-size="14.00" fill="#000000">precedence.ts</text>
</g>
<!-- src/precedence/index.ts&#45;&gt;src/precedence/precedence.ts -->
<!-- src/precedence/index.ts&#45;&gt;src/precedence/precedence.ts -->
<g id="edge61" class="edge">
<title>src/precedence/index.ts&#45;&gt;src/precedence/precedence.ts</title>
<path fill="none" stroke="black" d="M351.24,-294.78C342.53,-286.5 328.54,-274.89 315.93,-265.36"/>
<polygon fill="black" stroke="black" points="317.64,-262.28 307.51,-259.17 313.5,-267.92 317.64,-262.28"/>
</g>
<!-- exit_src/precedence -->
<!-- src/precedence/index.ts&#45;&gt;exit_src/precedence -->
<!-- name_src/precedence -->
<g id="node3" class="node">
<title>name_src/precedence</title>
<path fill="none" stroke="#ff0000" stroke-width="5" d="M301.83,-318C301.83,-318 230.17,-318 230.17,-318 226.33,-318 222.5,-314.17 222.5,-310.33 222.5,-310.33 222.5,-302.67 222.5,-302.67 222.5,-298.83 226.33,-295 230.17,-295 230.17,-295 301.83,-295 301.83,-295 305.67,-295 309.5,-298.83 309.5,-302.67 309.5,-302.67 309.5,-310.33 309.5,-310.33 309.5,-314.17 305.67,-318 301.83,-318"/>
<text text-anchor="middle" x="266" y="-302.8" font-family="Arial" font-size="14.00" fill="#000000">precedence</text>
</g>
<!-- src/user&#45;agent.ts -->
<g id="node4" class="node">
<title>src/user&#45;agent.ts</title>
<path fill="none" stroke="#000000" d="M661.83,-259C661.83,-259 582.17,-259 582.17,-259 578.33,-259 574.5,-255.17 574.5,-251.33 574.5,-251.33 574.5,-243.67 574.5,-243.67 574.5,-239.83 578.33,-236 582.17,-236 582.17,-236 661.83,-236 661.83,-236 665.67,-236 669.5,-239.83 669.5,-243.67 669.5,-243.67 669.5,-251.33 669.5,-251.33 669.5,-255.17 665.67,-259 661.83,-259"/>
<text text-anchor="middle" x="622" y="-243.8" font-family="Arial" font-size="14.00" fill="#000000">user&#45;agent.ts</text>
</g>
<!-- exit_src -->
<!-- src/user&#45;agent.ts&#45;&gt;exit_src -->
<!-- src/ancestor&#45;filter.ts -->
<g id="node5" class="node">
<title>src/ancestor&#45;filter.ts</title>
<path fill="none" stroke="#000000" d="M658.33,-318C658.33,-318 561.67,-318 561.67,-318 557.83,-318 554,-314.17 554,-310.33 554,-310.33 554,-302.67 554,-302.67 554,-298.83 557.83,-295 561.67,-295 561.67,-295 658.33,-295 658.33,-295 662.17,-295 666,-298.83 666,-302.67 666,-302.67 666,-310.33 666,-310.33 666,-314.17 662.17,-318 658.33,-318"/>
<text text-anchor="middle" x="610" y="-302.8" font-family="Arial" font-size="14.00" fill="#000000">ancestor&#45;filter.ts</text>
</g>
<!-- src/ancestor&#45;filter.ts&#45;&gt;exit_src -->
<!-- src/block.ts -->
<g id="node6" class="node">
<title>src/block.ts</title>
<path fill="none" stroke="#000000" d="M508.33,-318C508.33,-318 461.67,-318 461.67,-318 457.83,-318 454,-314.17 454,-310.33 454,-310.33 454,-302.67 454,-302.67 454,-298.83 457.83,-295 461.67,-295 461.67,-295 508.33,-295 508.33,-295 512.17,-295 516,-298.83 516,-302.67 516,-302.67 516,-310.33 516,-310.33 516,-314.17 512.17,-318 508.33,-318"/>
<text text-anchor="middle" x="485" y="-302.8" font-family="Arial" font-size="14.00" fill="#000000">block.ts</text>
</g>
<!-- src/block.ts&#45;&gt;name_src/precedence -->
<g id="edge34" class="edge">
<title>src/block.ts&#45;&gt;name_src/precedence</title>
<path fill="none" stroke="#00ffff" d="M473.93,-318.25C465.7,-326.09 453.74,-335.7 441,-340 393.41,-356.05 376.69,-352.31 328,-340 319.89,-337.95 311.69,-334.6 304.03,-330.8"/>
<polygon fill="#00ffff" stroke="#00ffff" points="305.46,-327.6 294.99,-326 302.17,-333.78 305.46,-327.6"/>
</g>
<!-- src/block.ts&#45;&gt;src/user&#45;agent.ts -->
<!-- src/block.ts&#45;&gt;src/user&#45;agent.ts -->
<g id="edge36" class="edge">
<title>src/block.ts&#45;&gt;src/user&#45;agent.ts</title>
<path fill="none" stroke="black" d="M515.84,-294.91C538.96,-285.95 570.23,-273.02 592.92,-263.09"/>
<polygon fill="black" stroke="black" points="594.34,-266.28 602.07,-259.03 591.51,-259.88 594.34,-266.28"/>
</g>
<!-- src/block.ts&#45;&gt;exit_src -->
<!-- src/rule&#45;tree.ts -->
<g id="node7" class="node">
<title>src/rule&#45;tree.ts</title>
<path fill="none" stroke="#000000" d="M457.83,-377C457.83,-377 392.17,-377 392.17,-377 388.33,-377 384.5,-373.17 384.5,-369.33 384.5,-369.33 384.5,-361.67 384.5,-361.67 384.5,-357.83 388.33,-354 392.17,-354 392.17,-354 457.83,-354 457.83,-354 461.67,-354 465.5,-357.83 465.5,-361.67 465.5,-361.67 465.5,-369.33 465.5,-369.33 465.5,-373.17 461.67,-377 457.83,-377"/>
<text text-anchor="middle" x="425" y="-361.8" font-family="Arial" font-size="14.00" fill="#000000">rule&#45;tree.ts</text>
</g>
<!-- src/rule&#45;tree.ts&#45;&gt;name_src/precedence -->
<g id="edge72" class="edge">
<title>src/rule&#45;tree.ts&#45;&gt;name_src/precedence</title>
<path fill="none" stroke="#00ffff" d="M395.47,-353.91C376.29,-347.04 350.59,-337.82 327.14,-329.42"/>
<polygon fill="#00ffff" stroke="#00ffff" points="328.19,-326.08 317.6,-326 325.83,-332.67 328.19,-326.08"/>
</g>
<!-- src/rule&#45;tree.ts&#45;&gt;src/block.ts -->
<!-- src/rule&#45;tree.ts&#45;&gt;src/block.ts -->
<g id="edge71" class="edge">
<title>src/rule&#45;tree.ts&#45;&gt;src/block.ts</title>
<path fill="none" stroke="black" d="M441.7,-353.78C451.38,-345.9 463.16,-334.99 472.13,-325.75"/>
<polygon fill="black" stroke="black" points="474.93,-327.88 479.17,-318.17 469.8,-323.12 474.93,-327.88"/>
</g>
<!-- src/rule&#45;tree.ts&#45;&gt;exit_src -->
<!-- src/selector&#45;map.ts -->
<g id="node8" class="node">
<title>src/selector&#45;map.ts</title>
<path fill="none" stroke="#000000" d="M606.33,-377C606.33,-377 511.67,-377 511.67,-377 507.83,-377 504,-373.17 504,-369.33 504,-369.33 504,-361.67 504,-361.67 504,-357.83 507.83,-354 511.67,-354 511.67,-354 606.33,-354 606.33,-354 610.17,-354 614,-357.83 614,-361.67 614,-361.67 614,-369.33 614,-369.33 614,-373.17 610.17,-377 606.33,-377"/>
<text text-anchor="middle" x="559" y="-361.8" font-family="Arial" font-size="14.00" fill="#000000">selector&#45;map.ts</text>
</g>
<!-- src/selector&#45;map.ts&#45;&gt;name_src/precedence -->
<g id="edge77" class="edge">
<title>src/selector&#45;map.ts&#45;&gt;name_src/precedence</title>
<path fill="none" stroke="#00ffff" d="M504,-356.83C449.35,-349.02 368.17,-336.87 328.74,-328.27"/>
<polygon fill="#00ffff" stroke="#00ffff" points="329.53,-324.86 319,-326 327.94,-331.68 329.53,-324.86"/>
</g>
<!-- src/selector&#45;map.ts&#45;&gt;src/ancestor&#45;filter.ts -->
<!-- src/selector&#45;map.ts&#45;&gt;src/ancestor&#45;filter.ts -->
<g id="edge74" class="edge">
<title>src/selector&#45;map.ts&#45;&gt;src/ancestor&#45;filter.ts</title>
<path fill="none" stroke="black" d="M574,-353.78C582.27,-346.06 592.1,-335.43 599.56,-326.31"/>
<polygon fill="black" stroke="black" points="602.5,-328.22 605.85,-318.17 596.97,-323.94 602.5,-328.22"/>
</g>
<!-- src/selector&#45;map.ts&#45;&gt;src/block.ts -->
<!-- src/selector&#45;map.ts&#45;&gt;src/block.ts -->
<g id="edge76" class="edge">
<title>src/selector&#45;map.ts&#45;&gt;src/block.ts</title>
<path fill="none" stroke="black" d="M550.49,-353.78C541.11,-345.42 526.1,-333.66 512.73,-324.09"/>
<polygon fill="black" stroke="black" points="514.46,-321.03 504.26,-318.17 510.46,-326.77 514.46,-321.03"/>
</g>
<!-- src/selector&#45;map.ts&#45;&gt;exit_src -->
<!-- src/cascade.ts -->
<g id="node9" class="node">
<title>src/cascade.ts</title>
<path fill="none" stroke="#000000" d="M591.83,-436C591.83,-436 526.17,-436 526.17,-436 522.33,-436 518.5,-432.17 518.5,-428.33 518.5,-428.33 518.5,-420.67 518.5,-420.67 518.5,-416.83 522.33,-413 526.17,-413 526.17,-413 591.83,-413 591.83,-413 595.67,-413 599.5,-416.83 599.5,-420.67 599.5,-420.67 599.5,-428.33 599.5,-428.33 599.5,-432.17 595.67,-436 591.83,-436"/>
<text text-anchor="middle" x="559" y="-420.8" font-family="Arial" font-size="14.00" fill="#000000">cascade.ts</text>
</g>
<!-- src/cascade.ts&#45;&gt;src/user&#45;agent.ts -->
<!-- src/cascade.ts&#45;&gt;src/user&#45;agent.ts -->
<g id="edge46" class="edge">
<title>src/cascade.ts&#45;&gt;src/user&#45;agent.ts</title>
<path fill="none" stroke="black" d="M588.55,-412.95C620.31,-398.3 667.86,-368.69 684,-326 688.87,-313.11 689.68,-307.55 684,-295 678.41,-282.65 667.73,-272.28 656.69,-264.49"/>
<polygon fill="black" stroke="black" points="658.55,-261.53 648.25,-259.05 654.76,-267.41 658.55,-261.53"/>
</g>
<!-- src/cascade.ts&#45;&gt;src/ancestor&#45;filter.ts -->
<!-- src/cascade.ts&#45;&gt;src/ancestor&#45;filter.ts -->
<g id="edge38" class="edge">
<title>src/cascade.ts&#45;&gt;src/ancestor&#45;filter.ts</title>
<path fill="none" stroke="black" d="M591.12,-412.88C606.76,-405.19 623.71,-393.28 632,-377 639.95,-361.39 635,-341.58 627.49,-327.11"/>
<polygon fill="black" stroke="black" points="630.45,-325.24 622.31,-318.47 624.45,-328.84 630.45,-325.24"/>
</g>
<!-- src/cascade.ts&#45;&gt;src/block.ts -->
<!-- src/cascade.ts&#45;&gt;src/block.ts -->
<g id="edge40" class="edge">
<title>src/cascade.ts&#45;&gt;src/block.ts</title>
<path fill="none" stroke="black" d="M544.01,-412.97C531.11,-405.12 513.65,-392.99 504,-377 495.17,-362.36 493.01,-342.9 491.39,-328.3"/>
<polygon fill="black" stroke="black" points="494.85,-327.73 490.15,-318.24 487.9,-328.59 494.85,-327.73"/>
</g>
<!-- src/cascade.ts&#45;&gt;src/rule&#45;tree.ts -->
<!-- src/cascade.ts&#45;&gt;src/rule&#45;tree.ts -->
<g id="edge42" class="edge">
<title>src/cascade.ts&#45;&gt;src/rule&#45;tree.ts</title>
<path fill="none" stroke="black" d="M539.5,-412.91C519.86,-403.87 489.29,-390.79 464.61,-380.82"/>
<polygon fill="black" stroke="black" points="465.72,-377.49 455.13,-377.03 463.12,-383.99 465.72,-377.49"/>
</g>
<!-- src/cascade.ts&#45;&gt;src/selector&#45;map.ts -->
<!-- src/cascade.ts&#45;&gt;src/selector&#45;map.ts -->
<g id="edge44" class="edge">
<title>src/cascade.ts&#45;&gt;src/selector&#45;map.ts</title>
<path fill="none" stroke="black" d="M564.41,-412.78C565.67,-405.61 566.04,-395.95 565.53,-387.31"/>
<polygon fill="black" stroke="black" points="568.98,-386.73 564.4,-377.17 562.03,-387.5 568.98,-386.73"/>
</g>
<!-- src/cascade.ts&#45;&gt;exit_src -->
<!-- src/precedence/encapsulation.ts&#45;&gt;exit_src/precedence -->
<!-- src/precedence/layer.ts&#45;&gt;exit_src/precedence -->
<!-- src/precedence/order.ts&#45;&gt;exit_src/precedence -->
<!-- src/precedence/origin.ts&#45;&gt;exit_src/precedence -->
<!-- src/precedence/precedence.ts&#45;&gt;src/precedence/encapsulation.ts -->
<!-- src/precedence/precedence.ts&#45;&gt;src/precedence/encapsulation.ts -->
<g id="edge63" class="edge">
<title>src/precedence/precedence.ts&#45;&gt;src/precedence/encapsulation.ts</title>
<path fill="none" stroke="black" d="M259.47,-235.91C230.39,-226.59 185.63,-212.98 151.03,-202.9"/>
<polygon fill="black" stroke="black" points="151.69,-199.45 141.11,-200.03 149.74,-206.17 151.69,-199.45"/>
</g>
<!-- src/precedence/precedence.ts&#45;&gt;src/precedence/layer.ts -->
<!-- src/precedence/precedence.ts&#45;&gt;src/precedence/layer.ts -->
<g id="edge65" class="edge">
<title>src/precedence/precedence.ts&#45;&gt;src/precedence/layer.ts</title>
<path fill="none" stroke="black" d="M278.8,-235.78C267.89,-227.26 250.59,-215.21 235.51,-205.55"/>
<polygon fill="black" stroke="black" points="237.28,-202.52 226.94,-200.17 233.55,-208.45 237.28,-202.52"/>
</g>
<!-- src/precedence/precedence.ts&#45;&gt;src/precedence/order.ts -->
<!-- src/precedence/precedence.ts&#45;&gt;src/precedence/order.ts -->
<g id="edge67" class="edge">
<title>src/precedence/precedence.ts&#45;&gt;src/precedence/order.ts</title>
<path fill="none" stroke="black" d="M297.42,-235.78C300.69,-228.61 303.77,-218.95 305.69,-210.31"/>
<polygon fill="black" stroke="black" points="309.18,-210.62 307.41,-200.17 302.28,-209.45 309.18,-210.62"/>
</g>
<!-- src/precedence/precedence.ts&#45;&gt;src/precedence/origin.ts -->
<!-- src/precedence/precedence.ts&#45;&gt;src/precedence/origin.ts -->
<g id="edge69" class="edge">
<title>src/precedence/precedence.ts&#45;&gt;src/precedence/origin.ts</title>
<path fill="none" stroke="black" d="M312.41,-235.91C328.49,-227.35 349.47,-215.17 365.01,-205.44"/>
<polygon fill="black" stroke="black" points="366.92,-208.37 373.46,-200.03 363.15,-202.47 366.92,-208.37"/>
</g>
<!-- src/precedence/precedence.ts&#45;&gt;exit_src/precedence -->
<!-- name_src -->
<g id="node15" class="node">
<title>name_src</title>
<path fill="none" stroke="#00ffff" stroke-width="5" d="M667.33,-495C667.33,-495 628.67,-495 628.67,-495 624.83,-495 621,-491.17 621,-487.33 621,-487.33 621,-479.67 621,-479.67 621,-475.83 624.83,-472 628.67,-472 628.67,-472 667.33,-472 667.33,-472 671.17,-472 675,-475.83 675,-479.67 675,-479.67 675,-487.33 675,-487.33 675,-491.17 671.17,-495 667.33,-495"/>
<text text-anchor="middle" x="648" y="-479.8" font-family="Arial" font-size="14.00" fill="#000000">src</text>
</g>
<!-- exit_src&#45;&gt;dependency&#45;graph&#45;[object Object] -->
<!-- exit_src&#45;&gt;exit_src -->
<!-- exit_src&#45;&gt;exit_src -->
<!-- exit_src&#45;&gt;exit_src -->
<!-- exit_src&#45;&gt;exit_src -->
<!-- exit_src&#45;&gt;exit_src -->
<!-- exit_src&#45;&gt;exit_src -->
<!-- exit_src&#45;&gt;exit_src -->
<!-- exit_src&#45;&gt;exit_src -->
<!-- exit_src&#45;&gt;exit_src -->
<!-- exit_src&#45;&gt;exit_src -->
<!-- exit_src&#45;&gt;exit_src -->
<!-- exit_src&#45;&gt;exit_src -->
<!-- exit_src&#45;&gt;exit_src -->
<!-- src/index.ts -->
<g id="node17" class="node">
<title>src/index.ts</title>
<path fill="none" stroke="#00ffff" stroke-width="5" d="M533.83,-495C533.83,-495 486.17,-495 486.17,-495 482.33,-495 478.5,-491.17 478.5,-487.33 478.5,-487.33 478.5,-479.67 478.5,-479.67 478.5,-475.83 482.33,-472 486.17,-472 486.17,-472 533.83,-472 533.83,-472 537.67,-472 541.5,-475.83 541.5,-479.67 541.5,-479.67 541.5,-487.33 541.5,-487.33 541.5,-491.17 537.67,-495 533.83,-495"/>
<text text-anchor="middle" x="510" y="-479.8" font-family="Arial" font-size="14.00" fill="#000000">index.ts</text>
</g>
<!-- src/index.ts&#45;&gt;name_src/precedence -->
<g id="edge49" class="edge">
<title>src/index.ts&#45;&gt;name_src/precedence</title>
<path fill="none" stroke="#00ffff" d="M495.1,-471.82C456.76,-444.32 353.9,-370.54 300,-331.89"/>
<polygon fill="#00ffff" stroke="#00ffff" points="301.96,-328.98 291.79,-326 297.88,-334.67 301.96,-328.98"/>
</g>
<!-- src/index.ts&#45;&gt;src/rule&#45;tree.ts -->
<!-- src/index.ts&#45;&gt;src/rule&#45;tree.ts -->
<g id="edge51" class="edge">
<title>src/index.ts&#45;&gt;src/rule&#45;tree.ts</title>
<path fill="none" stroke="black" d="M506.27,-471.79C494.93,-452.03 464.16,-409.58 443.69,-385.04"/>
<polygon fill="black" stroke="black" points="446.11,-382.48 436.93,-377.18 440.8,-387.04 446.11,-382.48"/>
</g>
<!-- src/index.ts&#45;&gt;src/cascade.ts -->
<!-- src/index.ts&#45;&gt;src/cascade.ts -->
<g id="edge48" class="edge">
<title>src/index.ts&#45;&gt;src/cascade.ts</title>
<path fill="none" stroke="black" d="M524.63,-471.78C532.62,-464.06 542.08,-453.43 549.22,-444.31"/>
<polygon fill="black" stroke="black" points="552.1,-446.3 555.23,-436.17 546.47,-442.14 552.1,-446.3"/>
</g>
<!-- src/index.ts&#45;&gt;exit_src -->
<!-- exit_src/precedence&#45;&gt;exit_src -->
<!-- exit_src/precedence&#45;&gt;exit_src -->
<!-- exit_src/precedence&#45;&gt;exit_src -->
<!-- exit_src/precedence&#45;&gt;exit_src -->
<!-- exit_src/precedence&#45;&gt;exit_src -->
<!-- exit_src/precedence&#45;&gt;exit_src -->
</g>
</svg>
