<?xml version="1.0" encoding="UTF-8" standalone="no"?>
<!DOCTYPE svg PUBLIC "-//W3C//DTD SVG 1.1//EN"
 "http://www.w3.org/Graphics/SVG/1.1/DTD/svg11.dtd">
<!-- Generated by graphviz version 2.43.0 (0)
 -->
<!-- Title: dependency&#45;graph&#45;[object Object] Pages: 1 -->
<svg width="288pt" height="385pt"
 viewBox="0.00 0.00 287.70 385.20" xmlns="http://www.w3.org/2000/svg" xmlns:xlink="http://www.w3.org/1999/xlink">
<g id="graph0" class="graph" transform="scale(1 1) rotate(0) translate(21.6 363.6)">
<title>dependency&#45;graph&#45;[object Object]</title>
<polygon fill="#ffffff" stroke="transparent" points="-21.6,21.6 -21.6,-363.6 266.1,-363.6 266.1,21.6 -21.6,21.6"/>
<g id="clust1" class="cluster">
<title>cluster_src</title>
<polygon fill="#ffffff" stroke="#000000" points="8,-43 8,-334 236,-334 236,-43 8,-43"/>
</g>
<g id="clust2" class="cluster">
<title>cluster_src</title>
<polygon fill="#ffffff" stroke="#000000" points="16,-51 16,-326 228,-326 228,-51 16,-51"/>
</g>
<g id="clust3" class="cluster">
<title>cluster_src/language</title>
<polygon fill="#ffffff" stroke="#000000" points="24,-110 24,-208 188,-208 188,-110 24,-110"/>
</g>
<!-- dependency&#45;graph&#45;[object Object] -->
<!-- src/language.ts -->
<g id="node2" class="node">
<title>src/language.ts</title>
<path fill="none" stroke="#000000" d="M151.33,-259C151.33,-259 80.67,-259 80.67,-259 76.83,-259 73,-255.17 73,-251.33 73,-251.33 73,-243.67 73,-243.67 73,-239.83 76.83,-236 80.67,-236 80.67,-236 151.33,-236 151.33,-236 155.17,-236 159,-239.83 159,-243.67 159,-243.67 159,-251.33 159,-251.33 159,-255.17 155.17,-259 151.33,-259"/>
<text text-anchor="middle" x="116" y="-243.8" font-family="Arial" font-size="14.00" fill="#000000">language.ts</text>
</g>
<!-- name_src/language -->
<g id="node4" class="node">
<title>name_src/language</title>
<path fill="none" stroke="#ff0000" stroke-width="5" d="M96.33,-200C96.33,-200 39.67,-200 39.67,-200 35.83,-200 32,-196.17 32,-192.33 32,-192.33 32,-184.67 32,-184.67 32,-180.83 35.83,-177 39.67,-177 39.67,-177 96.33,-177 96.33,-177 100.17,-177 104,-180.83 104,-184.67 104,-184.67 104,-192.33 104,-192.33 104,-196.17 100.17,-200 96.33,-200"/>
<text text-anchor="middle" x="68" y="-184.8" font-family="Arial" font-size="14.00" fill="#000000">language</text>
</g>
<!-- src/language.ts&#45;&gt;name_src/language -->
<g id="edge11" class="edge">
<title>src/language.ts&#45;&gt;name_src/language</title>
<path fill="none" stroke="#00ffff" d="M106.97,-235.78C100.4,-227.98 91.34,-217.21 83.61,-208.03"/>
<polygon fill="#00ffff" stroke="#00ffff" points="93.16,-205.02 82.99,-208 92.79,-212.01 93.16,-205.02"/>
</g>
<!-- exit_src -->
<!-- src/language.ts&#45;&gt;exit_src -->
<!-- src/language/data.ts -->
<g id="node3" class="node">
<title>src/language/data.ts</title>
<path fill="none" stroke="#000000" d="M171.83,-200C171.83,-200 130.17,-200 130.17,-200 126.33,-200 122.5,-196.17 122.5,-192.33 122.5,-192.33 122.5,-184.67 122.5,-184.67 122.5,-180.83 126.33,-177 130.17,-177 130.17,-177 171.83,-177 171.83,-177 175.67,-177 179.5,-180.83 179.5,-184.67 179.5,-184.67 179.5,-192.33 179.5,-192.33 179.5,-196.17 175.67,-200 171.83,-200"/>
<text text-anchor="middle" x="151" y="-184.8" font-family="Arial" font-size="14.00" fill="#000000">data.ts</text>
</g>
<!-- exit_src/language -->
<!-- src/language/data.ts&#45;&gt;exit_src/language -->
<!-- name_src -->
<g id="node5" class="node">
<title>name_src</title>
<path fill="none" stroke="#00ffff" stroke-width="5" d="M212.33,-318C212.33,-318 173.67,-318 173.67,-318 169.83,-318 166,-314.17 166,-310.33 166,-310.33 166,-302.67 166,-302.67 166,-298.83 169.83,-295 173.67,-295 173.67,-295 212.33,-295 212.33,-295 216.17,-295 220,-298.83 220,-302.67 220,-302.67 220,-310.33 220,-310.33 220,-314.17 216.17,-318 212.33,-318"/>
<text text-anchor="middle" x="193" y="-302.8" font-family="Arial" font-size="14.00" fill="#000000">src</text>
</g>
<!-- exit_src&#45;&gt;dependency&#45;graph&#45;[object Object] -->
<!-- exit_src&#45;&gt;exit_src -->
<!-- exit_src&#45;&gt;exit_src -->
<!-- exit_src&#45;&gt;exit_src -->
<!-- src/index.ts -->
<g id="node7" class="node">
<title>src/index.ts</title>
<path fill="none" stroke="#00ffff" stroke-width="5" d="M139.83,-318C139.83,-318 92.17,-318 92.17,-318 88.33,-318 84.5,-314.17 84.5,-310.33 84.5,-310.33 84.5,-302.67 84.5,-302.67 84.5,-298.83 88.33,-295 92.17,-295 92.17,-295 139.83,-295 139.83,-295 143.67,-295 147.5,-298.83 147.5,-302.67 147.5,-302.67 147.5,-310.33 147.5,-310.33 147.5,-314.17 143.67,-318 139.83,-318"/>
<text text-anchor="middle" x="116" y="-302.8" font-family="Arial" font-size="14.00" fill="#000000">index.ts</text>
</g>
<!-- src/index.ts&#45;&gt;src/language.ts -->
<!-- src/index.ts&#45;&gt;src/language.ts -->
<g id="edge10" class="edge">
<title>src/index.ts&#45;&gt;src/language.ts</title>
<path fill="none" stroke="black" d="M121.41,-294.78C122.67,-287.61 123.04,-277.95 122.53,-269.31"/>
<polygon fill="black" stroke="black" points="125.98,-268.73 121.4,-259.17 119.03,-269.5 125.98,-268.73"/>
</g>
<!-- src/index.ts&#45;&gt;exit_src -->
<!-- exit_src/language&#45;&gt;exit_src -->
</g>
</svg>
