<?xml version="1.0" encoding="UTF-8" standalone="no"?>
<!DOCTYPE svg PUBLIC "-//W3C//DTD SVG 1.1//EN"
 "http://www.w3.org/Graphics/SVG/1.1/DTD/svg11.dtd">
<!-- Generated by graphviz version 2.43.0 (0)
 -->
<!-- Title: dependency&#45;graph&#45;@siteimprove/alfa&#45;iana Pages: 1 -->
<svg width="287pt" height="350pt"
 viewBox="0.00 0.00 287.20 350.20" xmlns="http://www.w3.org/2000/svg" xmlns:xlink="http://www.w3.org/1999/xlink">
<g id="graph0" class="graph" transform="scale(1 1) rotate(0) translate(21.6 328.6)">
<title>dependency&#45;graph&#45;@siteimprove/alfa&#45;iana</title>
<polygon fill="#ffffff" stroke="transparent" points="-21.6,21.6 -21.6,-328.6 265.6,-328.6 265.6,21.6 -21.6,21.6"/>
<g id="clust1" class="cluster">
<title>cluster_src</title>
<polygon fill="#ffffff" stroke="#000000" points="8,-8 8,-299 236,-299 236,-8 8,-8"/>
</g>
<g id="clust2" class="cluster">
<title>cluster_src</title>
<polygon fill="#ffffff" stroke="#000000" points="16,-16 16,-291 228,-291 228,-16 16,-16"/>
</g>
<g id="clust3" class="cluster">
<title>cluster_src/language</title>
<polygon fill="#ffffff" stroke="#000000" points="24,-75 24,-173 188,-173 188,-75 24,-75"/>
</g>
<!-- src/language/data.ts -->
<g id="node1" class="node">
<title>src/language/data.ts</title>
<path fill="none" stroke="#000000" d="M171.83,-165C171.83,-165 130.17,-165 130.17,-165 126.33,-165 122.5,-161.17 122.5,-157.33 122.5,-157.33 122.5,-149.67 122.5,-149.67 122.5,-145.83 126.33,-142 130.17,-142 130.17,-142 171.83,-142 171.83,-142 175.67,-142 179.5,-145.83 179.5,-149.67 179.5,-149.67 179.5,-157.33 179.5,-157.33 179.5,-161.17 175.67,-165 171.83,-165"/>
<text text-anchor="middle" x="151" y="-149.8" font-family="Arial" font-size="14.00" fill="#000000">data.ts</text>
</g>
<!-- exit_src/language -->
<!-- src/language/data.ts&#45;&gt;exit_src/language -->
<!-- name_src/language -->
<g id="node2" class="node">
<title>name_src/language</title>
<path fill="none" stroke="#ff0000" stroke-width="5" d="M96.33,-165C96.33,-165 39.67,-165 39.67,-165 35.83,-165 32,-161.17 32,-157.33 32,-157.33 32,-149.67 32,-149.67 32,-145.83 35.83,-142 39.67,-142 39.67,-142 96.33,-142 96.33,-142 100.17,-142 104,-145.83 104,-149.67 104,-149.67 104,-157.33 104,-157.33 104,-161.17 100.17,-165 96.33,-165"/>
<text text-anchor="middle" x="68" y="-149.8" font-family="Arial" font-size="14.00" fill="#000000">language</text>
</g>
<!-- src/language.ts -->
<g id="node3" class="node">
<title>src/language.ts</title>
<path fill="none" stroke="#000000" d="M151.33,-224C151.33,-224 80.67,-224 80.67,-224 76.83,-224 73,-220.17 73,-216.33 73,-216.33 73,-208.67 73,-208.67 73,-204.83 76.83,-201 80.67,-201 80.67,-201 151.33,-201 151.33,-201 155.17,-201 159,-204.83 159,-208.67 159,-208.67 159,-216.33 159,-216.33 159,-220.17 155.17,-224 151.33,-224"/>
<text text-anchor="middle" x="116" y="-208.8" font-family="Arial" font-size="14.00" fill="#000000">language.ts</text>
</g>
<!-- src/language.ts&#45;&gt;name_src/language -->
<g id="edge8" class="edge">
<title>src/language.ts&#45;&gt;name_src/language</title>
<path fill="none" stroke="#00ffff" d="M106.97,-200.78C100.4,-192.98 91.34,-182.21 83.61,-173.03"/>
<polygon fill="#00ffff" stroke="#00ffff" points="93.16,-170.02 82.99,-173 92.79,-177.01 93.16,-170.02"/>
</g>
<!-- exit_src -->
<!-- src/language.ts&#45;&gt;exit_src -->
<!-- exit_src&#45;&gt;exit_src -->
<!-- exit_src&#45;&gt;exit_src -->
<!-- exit_src&#45;&gt;exit_src -->
<!-- name_src -->
<g id="node5" class="node">
<title>name_src</title>
<path fill="none" stroke="#00ffff" stroke-width="5" d="M212.33,-283C212.33,-283 173.67,-283 173.67,-283 169.83,-283 166,-279.17 166,-275.33 166,-275.33 166,-267.67 166,-267.67 166,-263.83 169.83,-260 173.67,-260 173.67,-260 212.33,-260 212.33,-260 216.17,-260 220,-263.83 220,-267.67 220,-267.67 220,-275.33 220,-275.33 220,-279.17 216.17,-283 212.33,-283"/>
<text text-anchor="middle" x="193" y="-267.8" font-family="Arial" font-size="14.00" fill="#000000">src</text>
</g>
<!-- src/index.ts -->
<g id="node6" class="node">
<title>src/index.ts</title>
<path fill="none" stroke="#00ffff" stroke-width="5" d="M139.83,-283C139.83,-283 92.17,-283 92.17,-283 88.33,-283 84.5,-279.17 84.5,-275.33 84.5,-275.33 84.5,-267.67 84.5,-267.67 84.5,-263.83 88.33,-260 92.17,-260 92.17,-260 139.83,-260 139.83,-260 143.67,-260 147.5,-263.83 147.5,-267.67 147.5,-267.67 147.5,-275.33 147.5,-275.33 147.5,-279.17 143.67,-283 139.83,-283"/>
<text text-anchor="middle" x="116" y="-267.8" font-family="Arial" font-size="14.00" fill="#000000">index.ts</text>
</g>
<!-- src/index.ts&#45;&gt;src/language.ts -->
<!-- src/index.ts&#45;&gt;src/language.ts -->
<g id="edge10" class="edge">
<title>src/index.ts&#45;&gt;src/language.ts</title>
<path fill="none" stroke="black" d="M121.41,-259.78C122.67,-252.61 123.04,-242.95 122.53,-234.31"/>
<polygon fill="black" stroke="black" points="125.98,-233.73 121.4,-224.17 119.03,-234.5 125.98,-233.73"/>
</g>
<!-- src/index.ts&#45;&gt;exit_src -->
<!-- exit_src/language&#45;&gt;exit_src -->
</g>
</svg>
