<?xml version="1.0" encoding="UTF-8" standalone="no"?>
<!DOCTYPE svg PUBLIC "-//W3C//DTD SVG 1.1//EN"
 "http://www.w3.org/Graphics/SVG/1.1/DTD/svg11.dtd">
<!-- Generated by graphviz version 2.43.0 (0)
 -->
<!-- Title: dependency&#45;graph&#45;[object Object] Pages: 1 -->
<svg width="300pt" height="444pt"
 viewBox="0.00 0.00 299.70 444.20" xmlns="http://www.w3.org/2000/svg" xmlns:xlink="http://www.w3.org/1999/xlink">
<g id="graph0" class="graph" transform="scale(1 1) rotate(0) translate(21.6 422.6)">
<title>dependency&#45;graph&#45;[object Object]</title>
<polygon fill="#ffffff" stroke="transparent" points="-21.6,21.6 -21.6,-422.6 278.1,-422.6 278.1,21.6 -21.6,21.6"/>
<g id="clust1" class="cluster">
<title>cluster_src</title>
<polygon fill="#ffffff" stroke="#000000" points="54.5,-43 54.5,-393 248.5,-393 248.5,-43 54.5,-43"/>
</g>
<g id="clust2" class="cluster">
<title>cluster_src</title>
<polygon fill="#ffffff" stroke="#000000" points="62.5,-51 62.5,-385 240.5,-385 240.5,-51 62.5,-51"/>
</g>
<!-- dependency&#45;graph&#45;[object Object] -->
<!-- src/maybe.ts -->
<g id="node2" class="node">
<title>src/maybe.ts</title>
<path fill="none" stroke="#000000" d="M155.83,-318C155.83,-318 99.17,-318 99.17,-318 95.33,-318 91.5,-314.17 91.5,-310.33 91.5,-310.33 91.5,-302.67 91.5,-302.67 91.5,-298.83 95.33,-295 99.17,-295 99.17,-295 155.83,-295 155.83,-295 159.67,-295 163.5,-298.83 163.5,-302.67 163.5,-302.67 163.5,-310.33 163.5,-310.33 163.5,-314.17 159.67,-318 155.83,-318"/>
<text text-anchor="middle" x="127.5" y="-302.8" font-family="Arial" font-size="14.00" fill="#000000">maybe.ts</text>
</g>
<!-- src/option.ts -->
<g id="node4" class="node">
<title>src/option.ts</title>
<path fill="#ff6c60" stroke="#000000" d="M184.83,-259C184.83,-259 132.17,-259 132.17,-259 128.33,-259 124.5,-255.17 124.5,-251.33 124.5,-251.33 124.5,-243.67 124.5,-243.67 124.5,-239.83 128.33,-236 132.17,-236 132.17,-236 184.83,-236 184.83,-236 188.67,-236 192.5,-239.83 192.5,-243.67 192.5,-243.67 192.5,-251.33 192.5,-251.33 192.5,-255.17 188.67,-259 184.83,-259"/>
<text text-anchor="middle" x="158.5" y="-243.8" font-family="Arial" font-size="14.00" fill="#000000">option.ts</text>
</g>
<!-- src/maybe.ts&#45;&gt;src/option.ts -->
<!-- src/maybe.ts&#45;&gt;src/option.ts -->
<g id="edge21" class="edge">
<title>src/maybe.ts&#45;&gt;src/option.ts</title>
<path fill="none" stroke="black" d="M138.74,-294.78C144.07,-287.37 149.9,-277.3 154.12,-268.45"/>
<polygon fill="black" stroke="black" points="157.38,-269.74 158.1,-259.17 150.94,-266.99 157.38,-269.74"/>
</g>
<!-- exit_src -->
<!-- src/maybe.ts&#45;&gt;exit_src -->
<!-- src/none.ts -->
<g id="node3" class="node">
<title>src/none.ts</title>
<path fill="#ff6c60" stroke="#000000" d="M144.33,-200C144.33,-200 98.67,-200 98.67,-200 94.83,-200 91,-196.17 91,-192.33 91,-192.33 91,-184.67 91,-184.67 91,-180.83 94.83,-177 98.67,-177 98.67,-177 144.33,-177 144.33,-177 148.17,-177 152,-180.83 152,-184.67 152,-184.67 152,-192.33 152,-192.33 152,-196.17 148.17,-200 144.33,-200"/>
<text text-anchor="middle" x="121.5" y="-184.8" font-family="Arial" font-size="14.00" fill="#000000">none.ts</text>
</g>
<!-- src/none.ts&#45;&gt;src/option.ts -->
<!-- src/none.ts&#45;&gt;src/option.ts -->
<g id="edge23" class="edge">
<title>src/none.ts&#45;&gt;src/option.ts</title>
<path fill="none" stroke="black" d="M139.23,-200.17C146.64,-207.57 153.89,-217.63 158.47,-226.49"/>
<polygon fill="black" stroke="black" points="155.27,-227.91 162.36,-235.78 161.72,-225.2 155.27,-227.91"/>
</g>
<!-- src/some.ts -->
<g id="node5" class="node">
<title>src/some.ts</title>
<path fill="#ff6c60" stroke="#000000" d="M168.33,-141C168.33,-141 118.67,-141 118.67,-141 114.83,-141 111,-137.17 111,-133.33 111,-133.33 111,-125.67 111,-125.67 111,-121.83 114.83,-118 118.67,-118 118.67,-118 168.33,-118 168.33,-118 172.17,-118 176,-121.83 176,-125.67 176,-125.67 176,-133.33 176,-133.33 176,-137.17 172.17,-141 168.33,-141"/>
<text text-anchor="middle" x="143.5" y="-125.8" font-family="Arial" font-size="14.00" fill="#000000">some.ts</text>
</g>
<!-- src/none.ts&#45;&gt;src/some.ts -->
<!-- src/none.ts&#45;&gt;src/some.ts -->
<g id="edge25" class="edge">
<title>src/none.ts&#45;&gt;src/some.ts</title>
<path fill="none" stroke="black" d="M120.23,-176.78C121.8,-169.29 125.39,-159.09 129.46,-150.16"/>
<polygon fill="black" stroke="black" points="132.61,-151.68 133.98,-141.17 126.36,-148.54 132.61,-151.68"/>
</g>
<!-- src/none.ts&#45;&gt;exit_src -->
<!-- src/option.ts&#45;&gt;src/none.ts -->
<!-- src/option.ts&#45;&gt;src/none.ts -->
<g id="edge27" class="edge">
<title>src/option.ts&#45;&gt;src/none.ts</title>
<path fill="none" stroke="black" d="M140.72,-235.78C133.31,-228.37 126.07,-218.3 121.5,-209.45"/>
<polygon fill="black" stroke="black" points="124.71,-208.05 117.62,-200.17 118.25,-210.75 124.71,-208.05"/>
</g>
<!-- src/option.ts&#45;&gt;src/some.ts -->
<!-- src/option.ts&#45;&gt;src/some.ts -->
<g id="edge29" class="edge">
<title>src/option.ts&#45;&gt;src/some.ts</title>
<path fill="none" stroke="black" d="M154.22,-235.56C153.65,-221.77 156.31,-197.42 152.5,-177 150.84,-168.12 147.55,-158.76 144.83,-150.78"/>
<polygon fill="black" stroke="black" points="148.16,-149.71 141.79,-141.25 141.5,-151.84 148.16,-149.71"/>
</g>
<!-- src/option.ts&#45;&gt;exit_src -->
<!-- src/some.ts&#45;&gt;src/none.ts -->
<!-- src/some.ts&#45;&gt;src/none.ts -->
<g id="edge31" class="edge">
<title>src/some.ts&#45;&gt;src/none.ts</title>
<path fill="none" stroke="black" d="M155.59,-141.17C156.69,-148.88 153.58,-159.5 147.97,-168.63"/>
<polygon fill="black" stroke="black" points="145.06,-166.67 141.87,-176.78 150.67,-170.87 145.06,-166.67"/>
</g>
<!-- src/some.ts&#45;&gt;src/option.ts -->
<!-- src/some.ts&#45;&gt;src/option.ts -->
<g id="edge33" class="edge">
<title>src/some.ts&#45;&gt;src/option.ts</title>
<path fill="none" stroke="black" d="M170.54,-141.25C180.35,-150.47 186.12,-164.24 188.5,-177 191.6,-193.59 190.42,-212.78 184.32,-226.79"/>
<polygon fill="black" stroke="black" points="181.23,-225.14 179.3,-235.56 187.3,-228.62 181.23,-225.14"/>
</g>
<!-- src/some.ts&#45;&gt;exit_src -->
<!-- name_src -->
<g id="node6" class="node">
<title>name_src</title>
<path fill="none" stroke="#ff0000" stroke-width="5" d="M224.83,-377C224.83,-377 186.17,-377 186.17,-377 182.33,-377 178.5,-373.17 178.5,-369.33 178.5,-369.33 178.5,-361.67 178.5,-361.67 178.5,-357.83 182.33,-354 186.17,-354 186.17,-354 224.83,-354 224.83,-354 228.67,-354 232.5,-357.83 232.5,-361.67 232.5,-361.67 232.5,-369.33 232.5,-369.33 232.5,-373.17 228.67,-377 224.83,-377"/>
<text text-anchor="middle" x="205.5" y="-361.8" font-family="Arial" font-size="14.00" fill="#000000">src</text>
</g>
<!-- exit_src&#45;&gt;dependency&#45;graph&#45;[object Object] -->
<!-- exit_src&#45;&gt;exit_src -->
<!-- exit_src&#45;&gt;exit_src -->
<!-- exit_src&#45;&gt;exit_src -->
<!-- exit_src&#45;&gt;exit_src -->
<!-- exit_src&#45;&gt;exit_src -->
<!-- src/index.ts -->
<g id="node8" class="node">
<title>src/index.ts</title>
<path fill="none" stroke="#ff0000" stroke-width="5" d="M152.33,-377C152.33,-377 104.67,-377 104.67,-377 100.83,-377 97,-373.17 97,-369.33 97,-369.33 97,-361.67 97,-361.67 97,-357.83 100.83,-354 104.67,-354 104.67,-354 152.33,-354 152.33,-354 156.17,-354 160,-357.83 160,-361.67 160,-361.67 160,-369.33 160,-369.33 160,-373.17 156.17,-377 152.33,-377"/>
<text text-anchor="middle" x="128.5" y="-361.8" font-family="Arial" font-size="14.00" fill="#000000">index.ts</text>
</g>
<!-- src/index.ts&#45;&gt;src/maybe.ts -->
<!-- src/index.ts&#45;&gt;src/maybe.ts -->
<g id="edge13" class="edge">
<title>src/index.ts&#45;&gt;src/maybe.ts</title>
<path fill="none" stroke="black" d="M133.72,-353.78C134.85,-346.61 135.06,-336.95 134.39,-328.31"/>
<polygon fill="black" stroke="black" points="137.84,-327.65 133.09,-318.17 130.89,-328.54 137.84,-327.65"/>
</g>
<!-- src/index.ts&#45;&gt;src/none.ts -->
<!-- src/index.ts&#45;&gt;src/none.ts -->
<g id="edge15" class="edge">
<title>src/index.ts&#45;&gt;src/none.ts</title>
<path fill="none" stroke="black" d="M120.37,-353.92C111.11,-345.59 97.63,-332.91 91.5,-318 76.08,-280.5 99.61,-234.65 113.47,-209.1"/>
<polygon fill="black" stroke="black" points="116.67,-210.52 118.36,-200.06 110.52,-207.19 116.67,-210.52"/>
</g>
<!-- src/index.ts&#45;&gt;src/option.ts -->
<!-- src/index.ts&#45;&gt;src/option.ts -->
<g id="edge17" class="edge">
<title>src/index.ts&#45;&gt;src/option.ts</title>
<path fill="none" stroke="black" d="M150.65,-353.95C162.58,-345.54 175.62,-332.77 181.5,-318 187.94,-301.83 182.99,-282.33 175.76,-268.1"/>
<polygon fill="black" stroke="black" points="178.6,-266.03 170.5,-259.2 172.58,-269.59 178.6,-266.03"/>
</g>
<!-- src/index.ts&#45;&gt;src/some.ts -->
<!-- src/index.ts&#45;&gt;src/some.ts -->
<g id="edge19" class="edge">
<title>src/index.ts&#45;&gt;src/some.ts</title>
<path fill="none" stroke="black" d="M150.47,-353.87C163.08,-345.25 177.84,-332.22 187.5,-318 203.31,-294.72 205.3,-286.66 210.5,-259 218.38,-217.07 188.65,-172.67 166.02,-148.6"/>
<polygon fill="black" stroke="black" points="168.23,-145.86 158.69,-141.25 163.27,-150.8 168.23,-145.86"/>
</g>
<!-- src/index.ts&#45;&gt;exit_src -->
</g>
</svg>
