<?xml version="1.0" encoding="UTF-8" standalone="no"?>
<!DOCTYPE svg PUBLIC "-//W3C//DTD SVG 1.1//EN"
 "http://www.w3.org/Graphics/SVG/1.1/DTD/svg11.dtd">
<!-- Generated by graphviz version 2.43.0 (0)
 -->
<!-- Title: dependency&#45;graph&#45;@siteimprove/alfa&#45;option Pages: 1 -->
<svg width="303pt" height="350pt"
 viewBox="0.00 0.00 303.20 350.20" xmlns="http://www.w3.org/2000/svg" xmlns:xlink="http://www.w3.org/1999/xlink">
<g id="graph0" class="graph" transform="scale(1 1) rotate(0) translate(21.6 328.6)">
<title>dependency&#45;graph&#45;@siteimprove/alfa&#45;option</title>
<polygon fill="#ffffff" stroke="transparent" points="-21.6,21.6 -21.6,-328.6 281.6,-328.6 281.6,21.6 -21.6,21.6"/>
<g id="clust1" class="cluster">
<title>cluster_src</title>
<polygon fill="#ffffff" stroke="#000000" points="8,-8 8,-299 252,-299 252,-8 8,-8"/>
</g>
<g id="clust2" class="cluster">
<title>cluster_src</title>
<polygon fill="#ffffff" stroke="#000000" points="16,-16 16,-291 244,-291 244,-16 16,-16"/>
</g>
<!-- src/none.ts -->
<g id="node1" class="node">
<title>src/none.ts</title>
<path fill="none" stroke="#000000" d="M97.83,-224C97.83,-224 52.17,-224 52.17,-224 48.33,-224 44.5,-220.17 44.5,-216.33 44.5,-216.33 44.5,-208.67 44.5,-208.67 44.5,-204.83 48.33,-201 52.17,-201 52.17,-201 97.83,-201 97.83,-201 101.67,-201 105.5,-204.83 105.5,-208.67 105.5,-208.67 105.5,-216.33 105.5,-216.33 105.5,-220.17 101.67,-224 97.83,-224"/>
<text text-anchor="middle" x="75" y="-208.8" font-family="Arial" font-size="14.00" fill="#000000">none.ts</text>
</g>
<!-- src/option.ts -->
<g id="node2" class="node">
<title>src/option.ts</title>
<path fill="none" stroke="#000000" d="M153.33,-165C153.33,-165 100.67,-165 100.67,-165 96.83,-165 93,-161.17 93,-157.33 93,-157.33 93,-149.67 93,-149.67 93,-145.83 96.83,-142 100.67,-142 100.67,-142 153.33,-142 153.33,-142 157.17,-142 161,-145.83 161,-149.67 161,-149.67 161,-157.33 161,-157.33 161,-161.17 157.17,-165 153.33,-165"/>
<text text-anchor="middle" x="127" y="-149.8" font-family="Arial" font-size="14.00" fill="#000000">option.ts</text>
</g>
<!-- src/none.ts&#45;&gt;src/option.ts -->
<!-- src/none.ts&#45;&gt;src/option.ts -->
<g id="edge16" class="edge">
<title>src/none.ts&#45;&gt;src/option.ts</title>
<path fill="none" stroke="black" stroke-dasharray="1,5" d="M79.37,-200.78C85.29,-192.74 95.2,-181.55 104.56,-172.19"/>
<polygon fill="black" stroke="black" points="107.08,-174.63 111.86,-165.17 102.23,-169.58 107.08,-174.63"/>
</g>
<!-- src/some.ts -->
<g id="node3" class="node">
<title>src/some.ts</title>
<path fill="none" stroke="#000000" d="M121.83,-106C121.83,-106 72.17,-106 72.17,-106 68.33,-106 64.5,-102.17 64.5,-98.33 64.5,-98.33 64.5,-90.67 64.5,-90.67 64.5,-86.83 68.33,-83 72.17,-83 72.17,-83 121.83,-83 121.83,-83 125.67,-83 129.5,-86.83 129.5,-90.67 129.5,-90.67 129.5,-98.33 129.5,-98.33 129.5,-102.17 125.67,-106 121.83,-106"/>
<text text-anchor="middle" x="97" y="-90.8" font-family="Arial" font-size="14.00" fill="#000000">some.ts</text>
</g>
<!-- src/none.ts&#45;&gt;src/some.ts -->
<!-- src/none.ts&#45;&gt;src/some.ts -->
<g id="edge18" class="edge">
<title>src/none.ts&#45;&gt;src/some.ts</title>
<path fill="none" stroke="black" stroke-dasharray="1,5" d="M94.73,-200.59C104.2,-186.83 106.83,-162.51 111,-142 112.73,-133.51 115.18,-124.3 115.71,-116.34"/>
<polygon fill="black" stroke="black" points="119.18,-115.8 114.91,-106.11 112.2,-116.35 119.18,-115.8"/>
</g>
<!-- exit_src -->
<!-- src/none.ts&#45;&gt;exit_src -->
<!-- src/option.ts&#45;&gt;src/none.ts -->
<!-- src/option.ts&#45;&gt;src/none.ts -->
<g id="edge28" class="edge">
<title>src/option.ts&#45;&gt;src/none.ts</title>
<path fill="none" stroke="black" d="M133.47,-165.17C130.3,-173.44 120.53,-185.05 109.12,-194.58"/>
<polygon fill="black" stroke="black" points="106.83,-191.92 101.02,-200.78 111.08,-197.48 106.83,-191.92"/>
</g>
<!-- src/option.ts&#45;&gt;src/some.ts -->
<!-- src/option.ts&#45;&gt;src/some.ts -->
<g id="edge30" class="edge">
<title>src/option.ts&#45;&gt;src/some.ts</title>
<path fill="none" stroke="black" d="M137.59,-141.78C137.59,-133.9 132.79,-122.99 125.64,-113.75"/>
<polygon fill="black" stroke="black" points="128.12,-111.27 118.83,-106.17 122.91,-115.95 128.12,-111.27"/>
</g>
<!-- src/option.ts&#45;&gt;exit_src -->
<!-- src/some.ts&#45;&gt;src/none.ts -->
<!-- src/some.ts&#45;&gt;src/none.ts -->
<g id="edge12" class="edge">
<title>src/some.ts&#45;&gt;src/none.ts</title>
<path fill="none" stroke="black" d="M100.68,-106.11C99.65,-115.46 95.54,-129.51 93,-142 89.71,-158.18 87.38,-176.74 84.57,-190.61"/>
<polygon fill="black" stroke="black" points="81.11,-190.05 82.19,-200.59 87.92,-191.67 81.11,-190.05"/>
</g>
<!-- src/some.ts&#45;&gt;src/option.ts -->
<!-- src/some.ts&#45;&gt;src/option.ts -->
<g id="edge14" class="edge">
<title>src/some.ts&#45;&gt;src/option.ts</title>
<path fill="none" stroke="black" stroke-dasharray="1,5" d="M108.02,-106.17C113.21,-113.57 118.87,-123.63 122.95,-132.49"/>
<polygon fill="black" stroke="black" points="119.73,-133.86 126.77,-141.78 126.2,-131.2 119.73,-133.86"/>
</g>
<!-- src/some.ts&#45;&gt;exit_src -->
<!-- src/maybe.ts -->
<g id="node4" class="node">
<title>src/maybe.ts</title>
<path fill="none" stroke="#000000" d="M208.33,-224C208.33,-224 151.67,-224 151.67,-224 147.83,-224 144,-220.17 144,-216.33 144,-216.33 144,-208.67 144,-208.67 144,-204.83 147.83,-201 151.67,-201 151.67,-201 208.33,-201 208.33,-201 212.17,-201 216,-204.83 216,-208.67 216,-208.67 216,-216.33 216,-216.33 216,-220.17 212.17,-224 208.33,-224"/>
<text text-anchor="middle" x="180" y="-208.8" font-family="Arial" font-size="14.00" fill="#000000">maybe.ts</text>
</g>
<!-- src/maybe.ts&#45;&gt;src/option.ts -->
<!-- src/maybe.ts&#45;&gt;src/option.ts -->
<g id="edge32" class="edge">
<title>src/maybe.ts&#45;&gt;src/option.ts</title>
<path fill="none" stroke="black" d="M175.44,-200.78C169.38,-192.74 159.27,-181.55 149.75,-172.19"/>
<polygon fill="black" stroke="black" points="152,-169.5 142.33,-165.17 147.19,-174.59 152,-169.5"/>
</g>
<!-- src/maybe.ts&#45;&gt;exit_src -->
<!-- exit_src&#45;&gt;exit_src -->
<!-- exit_src&#45;&gt;exit_src -->
<!-- exit_src&#45;&gt;exit_src -->
<!-- exit_src&#45;&gt;exit_src -->
<!-- exit_src&#45;&gt;exit_src -->
<!-- name_src -->
<g id="node6" class="node">
<title>name_src</title>
<path fill="none" stroke="#ff0000" stroke-width="5" d="M224.33,-283C224.33,-283 185.67,-283 185.67,-283 181.83,-283 178,-279.17 178,-275.33 178,-275.33 178,-267.67 178,-267.67 178,-263.83 181.83,-260 185.67,-260 185.67,-260 224.33,-260 224.33,-260 228.17,-260 232,-263.83 232,-267.67 232,-267.67 232,-275.33 232,-275.33 232,-279.17 228.17,-283 224.33,-283"/>
<text text-anchor="middle" x="205" y="-267.8" font-family="Arial" font-size="14.00" fill="#000000">src</text>
</g>
<!-- src/index.ts -->
<g id="node7" class="node">
<title>src/index.ts</title>
<path fill="none" stroke="#ff0000" stroke-width="5" d="M148.83,-283C148.83,-283 101.17,-283 101.17,-283 97.33,-283 93.5,-279.17 93.5,-275.33 93.5,-275.33 93.5,-267.67 93.5,-267.67 93.5,-263.83 97.33,-260 101.17,-260 101.17,-260 148.83,-260 148.83,-260 152.67,-260 156.5,-263.83 156.5,-267.67 156.5,-267.67 156.5,-275.33 156.5,-275.33 156.5,-279.17 152.67,-283 148.83,-283"/>
<text text-anchor="middle" x="125" y="-267.8" font-family="Arial" font-size="14.00" fill="#000000">index.ts</text>
</g>
<!-- src/index.ts&#45;&gt;src/none.ts -->
<!-- src/index.ts&#45;&gt;src/none.ts -->
<g id="edge22" class="edge">
<title>src/index.ts&#45;&gt;src/none.ts</title>
<path fill="none" stroke="black" d="M121.01,-259.78C115.42,-251.82 106.04,-240.77 97.09,-231.47"/>
<polygon fill="black" stroke="black" points="99.32,-228.75 89.77,-224.17 94.38,-233.71 99.32,-228.75"/>
</g>
<!-- src/index.ts&#45;&gt;src/option.ts -->
<!-- src/index.ts&#45;&gt;src/option.ts -->
<g id="edge24" class="edge">
<title>src/index.ts&#45;&gt;src/option.ts</title>
<path fill="none" stroke="black" d="M129.3,-259.79C132.68,-240.63 133.78,-200.15 131.97,-175.34"/>
<polygon fill="black" stroke="black" points="135.43,-174.77 130.93,-165.18 128.46,-175.48 135.43,-174.77"/>
</g>
<!-- src/index.ts&#45;&gt;src/some.ts -->
<!-- src/index.ts&#45;&gt;src/some.ts -->
<g id="edge26" class="edge">
<title>src/index.ts&#45;&gt;src/some.ts</title>
<path fill="none" stroke="black" d="M93.15,-260.34C75.44,-253.37 54.98,-242.03 44,-224 21.1,-186.39 59.9,-139.05 82.74,-113.63"/>
<polygon fill="black" stroke="black" points="85.36,-115.95 89.49,-106.19 80.18,-111.24 85.36,-115.95"/>
</g>
<!-- src/index.ts&#45;&gt;src/maybe.ts -->
<!-- src/index.ts&#45;&gt;src/maybe.ts -->
<g id="edge20" class="edge">
<title>src/index.ts&#45;&gt;src/maybe.ts</title>
<path fill="none" stroke="black" d="M140.76,-259.78C149.65,-251.98 160.36,-241.21 168.49,-232.03"/>
<polygon fill="black" stroke="black" points="171.34,-234.08 175.1,-224.17 165.99,-229.57 171.34,-234.08"/>
</g>
<!-- src/index.ts&#45;&gt;exit_src -->
</g>
</svg>
