<?xml version="1.0" encoding="UTF-8" standalone="no"?>
<!DOCTYPE svg PUBLIC "-//W3C//DTD SVG 1.1//EN"
 "http://www.w3.org/Graphics/SVG/1.1/DTD/svg11.dtd">
<!-- Generated by graphviz version 2.43.0 (0)
 -->
<!-- Title: dependency&#45;graph&#45;[object Object] Pages: 1 -->
<svg width="264pt" height="326pt"
 viewBox="0.00 0.00 264.20 326.20" xmlns="http://www.w3.org/2000/svg" xmlns:xlink="http://www.w3.org/1999/xlink">
<g id="graph0" class="graph" transform="scale(1 1) rotate(0) translate(21.6 304.6)">
<title>dependency&#45;graph&#45;[object Object]</title>
<polygon fill="#ffffff" stroke="transparent" points="-21.6,21.6 -21.6,-304.6 242.6,-304.6 242.6,21.6 -21.6,21.6"/>
<g id="clust1" class="cluster">
<title>cluster_src</title>
<polygon fill="#ffffff" stroke="#000000" points="44.5,-43 44.5,-275 212.5,-275 212.5,-43 44.5,-43"/>
</g>
<g id="clust2" class="cluster">
<title>cluster_src</title>
<polygon fill="#ffffff" stroke="#000000" points="52.5,-51 52.5,-267 204.5,-267 204.5,-51 52.5,-51"/>
</g>
<!-- dependency&#45;graph&#45;[object Object] -->
<!-- src/hashable.ts -->
<g id="node2" class="node">
<title>src/hashable.ts</title>
<path fill="#ff6c60" stroke="#000000" d="M138.83,-200C138.83,-200 68.17,-200 68.17,-200 64.33,-200 60.5,-196.17 60.5,-192.33 60.5,-192.33 60.5,-184.67 60.5,-184.67 60.5,-180.83 64.33,-177 68.17,-177 68.17,-177 138.83,-177 138.83,-177 142.67,-177 146.5,-180.83 146.5,-184.67 146.5,-184.67 146.5,-192.33 146.5,-192.33 146.5,-196.17 142.67,-200 138.83,-200"/>
<text text-anchor="middle" x="103.5" y="-184.8" font-family="Arial" font-size="14.00" fill="#000000">hashable.ts</text>
</g>
<!-- src/hash.ts -->
<g id="node3" class="node">
<title>src/hash.ts</title>
<path fill="#ff6c60" stroke="#000000" d="M132.83,-141C132.83,-141 88.17,-141 88.17,-141 84.33,-141 80.5,-137.17 80.5,-133.33 80.5,-133.33 80.5,-125.67 80.5,-125.67 80.5,-121.83 84.33,-118 88.17,-118 88.17,-118 132.83,-118 132.83,-118 136.67,-118 140.5,-121.83 140.5,-125.67 140.5,-125.67 140.5,-133.33 140.5,-133.33 140.5,-137.17 136.67,-141 132.83,-141"/>
<text text-anchor="middle" x="110.5" y="-125.8" font-family="Arial" font-size="14.00" fill="#000000">hash.ts</text>
</g>
<!-- src/hashable.ts&#45;&gt;src/hash.ts -->
<!-- src/hashable.ts&#45;&gt;src/hash.ts -->
<g id="edge11" class="edge">
<title>src/hashable.ts&#45;&gt;src/hash.ts</title>
<path fill="none" stroke="black" d="M121.05,-176.78C125.75,-169.53 128.05,-159.74 127.51,-151.02"/>
<polygon fill="black" stroke="black" points="130.91,-150.22 125.4,-141.17 124.07,-151.68 130.91,-150.22"/>
</g>
<!-- exit_src -->
<!-- src/hashable.ts&#45;&gt;exit_src -->
<!-- src/hash.ts&#45;&gt;src/hashable.ts -->
<!-- src/hash.ts&#45;&gt;src/hashable.ts -->
<g id="edge9" class="edge">
<title>src/hash.ts&#45;&gt;src/hashable.ts</title>
<path fill="none" stroke="black" d="M114.59,-141.17C114.98,-148.41 114.15,-158.2 112.54,-166.92"/>
<polygon fill="black" stroke="black" points="109.1,-166.24 110.23,-176.78 115.92,-167.84 109.1,-166.24"/>
</g>
<!-- src/hash.ts&#45;&gt;exit_src -->
<!-- name_src -->
<g id="node4" class="node">
<title>name_src</title>
<path fill="none" stroke="#ff0000" stroke-width="5" d="M188.83,-259C188.83,-259 150.17,-259 150.17,-259 146.33,-259 142.5,-255.17 142.5,-251.33 142.5,-251.33 142.5,-243.67 142.5,-243.67 142.5,-239.83 146.33,-236 150.17,-236 150.17,-236 188.83,-236 188.83,-236 192.67,-236 196.5,-239.83 196.5,-243.67 196.5,-243.67 196.5,-251.33 196.5,-251.33 196.5,-255.17 192.67,-259 188.83,-259"/>
<text text-anchor="middle" x="169.5" y="-243.8" font-family="Arial" font-size="14.00" fill="#000000">src</text>
</g>
<!-- exit_src&#45;&gt;dependency&#45;graph&#45;[object Object] -->
<!-- exit_src&#45;&gt;exit_src -->
<!-- exit_src&#45;&gt;exit_src -->
<!-- exit_src&#45;&gt;exit_src -->
<!-- src/common.ts -->
<g id="node6" class="node">
<title>src/common.ts</title>
<path fill="none" stroke="#ff0000" stroke-width="5" d="M116.33,-259C116.33,-259 68.67,-259 68.67,-259 64.83,-259 61,-255.17 61,-251.33 61,-251.33 61,-243.67 61,-243.67 61,-239.83 64.83,-236 68.67,-236 68.67,-236 116.33,-236 116.33,-236 120.17,-236 124,-239.83 124,-243.67 124,-243.67 124,-251.33 124,-251.33 124,-255.17 120.17,-259 116.33,-259"/>
<text text-anchor="middle" x="92.5" y="-243.8" font-family="Arial" font-size="14.00" fill="#000000">common.ts</text>
</g>
<!-- src/common.ts&#45;&gt;src/hashable.ts -->
<!-- src/common.ts&#45;&gt;src/hashable.ts -->
<g id="edge15" class="edge">
<title>src/common.ts&#45;&gt;src/hashable.ts</title>
<path fill="none" stroke="black" d="M99.98,-235.78C102.62,-228.61 104.86,-218.95 106.01,-210.31"/>
<polygon fill="black" stroke="black" points="109.51,-210.43 106.84,-200.17 102.54,-209.85 109.51,-210.43"/>
</g>
<!-- src/common.ts&#45;&gt;src/hash.ts -->
<!-- src/common.ts&#45;&gt;src/hash.ts -->
<g id="edge13" class="edge">
<title>src/common.ts&#45;&gt;src/hash.ts</title>
<path fill="none" stroke="black" d="M123.9,-235.96C139.41,-228.24 156.29,-216.26 164.5,-200 174.02,-181.14 157.78,-161.03 140.52,-147.32"/>
<polygon fill="black" stroke="black" points="142.21,-144.22 132.07,-141.14 138.07,-149.87 142.21,-144.22"/>
</g>
<!-- src/common.ts&#45;&gt;exit_src -->
</g>
</svg>
