<?xml version="1.0" encoding="UTF-8" standalone="no"?>
<!DOCTYPE svg PUBLIC "-//W3C//DTD SVG 1.1//EN"
 "http://www.w3.org/Graphics/SVG/1.1/DTD/svg11.dtd">
<!-- Generated by graphviz version 2.43.0 (0)
 -->
<!-- Title: dependency&#45;graph&#45;@siteimprove/alfa&#45;hash Pages: 1 -->
<svg width="227pt" height="291pt"
 viewBox="0.00 0.00 227.20 291.20" xmlns="http://www.w3.org/2000/svg" xmlns:xlink="http://www.w3.org/1999/xlink">
<g id="graph0" class="graph" transform="scale(1 1) rotate(0) translate(21.6 269.6)">
<title>dependency&#45;graph&#45;@siteimprove/alfa&#45;hash</title>
<polygon fill="#ffffff" stroke="transparent" points="-21.6,21.6 -21.6,-269.6 205.6,-269.6 205.6,21.6 -21.6,21.6"/>
<g id="clust1" class="cluster">
<title>cluster_src</title>
<polygon fill="#ffffff" stroke="#000000" points="8,-8 8,-240 176,-240 176,-8 8,-8"/>
</g>
<g id="clust2" class="cluster">
<title>cluster_src</title>
<polygon fill="#ffffff" stroke="#000000" points="16,-16 16,-232 168,-232 168,-16 16,-16"/>
</g>
<!-- src/hash.ts -->
<g id="node1" class="node">
<title>src/hash.ts</title>
<path fill="none" stroke="#000000" d="M78.33,-165C78.33,-165 33.67,-165 33.67,-165 29.83,-165 26,-161.17 26,-157.33 26,-157.33 26,-149.67 26,-149.67 26,-145.83 29.83,-142 33.67,-142 33.67,-142 78.33,-142 78.33,-142 82.17,-142 86,-145.83 86,-149.67 86,-149.67 86,-157.33 86,-157.33 86,-161.17 82.17,-165 78.33,-165"/>
<text text-anchor="middle" x="56" y="-149.8" font-family="Arial" font-size="14.00" fill="#000000">hash.ts</text>
</g>
<!-- src/hashable.ts -->
<g id="node2" class="node">
<title>src/hashable.ts</title>
<path fill="none" stroke="#000000" d="M122.33,-106C122.33,-106 51.67,-106 51.67,-106 47.83,-106 44,-102.17 44,-98.33 44,-98.33 44,-90.67 44,-90.67 44,-86.83 47.83,-83 51.67,-83 51.67,-83 122.33,-83 122.33,-83 126.17,-83 130,-86.83 130,-90.67 130,-90.67 130,-98.33 130,-98.33 130,-102.17 126.17,-106 122.33,-106"/>
<text text-anchor="middle" x="87" y="-90.8" font-family="Arial" font-size="14.00" fill="#000000">hashable.ts</text>
</g>
<!-- src/hash.ts&#45;&gt;src/hashable.ts -->
<!-- src/hash.ts&#45;&gt;src/hashable.ts -->
<g id="edge14" class="edge">
<title>src/hash.ts&#45;&gt;src/hashable.ts</title>
<path fill="none" stroke="black" d="M78.07,-141.78C85.82,-134.53 92.24,-124.74 95.37,-116.02"/>
<polygon fill="black" stroke="black" points="98.81,-116.67 97.4,-106.17 91.95,-115.26 98.81,-116.67"/>
</g>
<!-- exit_src -->
<!-- src/hash.ts&#45;&gt;exit_src -->
<!-- src/hashable.ts&#45;&gt;src/hash.ts -->
<!-- src/hashable.ts&#45;&gt;src/hash.ts -->
<g id="edge8" class="edge">
<title>src/hashable.ts&#45;&gt;src/hash.ts</title>
<path fill="none" stroke="black" stroke-dasharray="1,5" d="M86.6,-106.17C83.79,-113.8 78.43,-124.28 72.83,-133.35"/>
<polygon fill="black" stroke="black" points="69.85,-131.51 67.24,-141.78 75.69,-135.38 69.85,-131.51"/>
</g>
<!-- src/hashable.ts&#45;&gt;exit_src -->
<!-- exit_src&#45;&gt;exit_src -->
<!-- exit_src&#45;&gt;exit_src -->
<!-- exit_src&#45;&gt;exit_src -->
<!-- name_src -->
<g id="node4" class="node">
<title>name_src</title>
<path fill="none" stroke="#ff0000" stroke-width="5" d="M152.33,-224C152.33,-224 113.67,-224 113.67,-224 109.83,-224 106,-220.17 106,-216.33 106,-216.33 106,-208.67 106,-208.67 106,-204.83 109.83,-201 113.67,-201 113.67,-201 152.33,-201 152.33,-201 156.17,-201 160,-204.83 160,-208.67 160,-208.67 160,-216.33 160,-216.33 160,-220.17 156.17,-224 152.33,-224"/>
<text text-anchor="middle" x="133" y="-208.8" font-family="Arial" font-size="14.00" fill="#000000">src</text>
</g>
<!-- src/index.ts -->
<g id="node5" class="node">
<title>src/index.ts</title>
<path fill="none" stroke="#ff0000" stroke-width="5" d="M79.83,-224C79.83,-224 32.17,-224 32.17,-224 28.33,-224 24.5,-220.17 24.5,-216.33 24.5,-216.33 24.5,-208.67 24.5,-208.67 24.5,-204.83 28.33,-201 32.17,-201 32.17,-201 79.83,-201 79.83,-201 83.67,-201 87.5,-204.83 87.5,-208.67 87.5,-208.67 87.5,-216.33 87.5,-216.33 87.5,-220.17 83.67,-224 79.83,-224"/>
<text text-anchor="middle" x="56" y="-208.8" font-family="Arial" font-size="14.00" fill="#000000">index.ts</text>
</g>
<!-- src/index.ts&#45;&gt;src/hash.ts -->
<!-- src/index.ts&#45;&gt;src/hash.ts -->
<g id="edge10" class="edge">
<title>src/index.ts&#45;&gt;src/hash.ts</title>
<path fill="none" stroke="black" d="M61.41,-200.78C62.67,-193.61 63.04,-183.95 62.53,-175.31"/>
<polygon fill="black" stroke="black" points="65.98,-174.73 61.4,-165.17 59.03,-175.5 65.98,-174.73"/>
</g>
<!-- src/index.ts&#45;&gt;src/hashable.ts -->
<!-- src/index.ts&#45;&gt;src/hashable.ts -->
<g id="edge12" class="edge">
<title>src/index.ts&#45;&gt;src/hashable.ts</title>
<path fill="none" stroke="black" d="M76.28,-200.77C87.12,-192.19 98.81,-179.26 104,-165 109.81,-149.02 106.88,-129.73 101.55,-115.53"/>
<polygon fill="black" stroke="black" points="104.64,-113.88 97.33,-106.21 98.26,-116.77 104.64,-113.88"/>
</g>
<!-- src/index.ts&#45;&gt;exit_src -->
</g>
</svg>
