<?xml version="1.0" encoding="UTF-8" standalone="no"?>
<!DOCTYPE svg PUBLIC "-//W3C//DTD SVG 1.1//EN"
 "http://www.w3.org/Graphics/SVG/1.1/DTD/svg11.dtd">
<!-- Generated by graphviz version 2.43.0 (0)
 -->
<!-- Title: dependency&#45;graph&#45;[object Object] Pages: 1 -->
<svg width="285pt" height="326pt"
 viewBox="0.00 0.00 285.20 326.20" xmlns="http://www.w3.org/2000/svg" xmlns:xlink="http://www.w3.org/1999/xlink">
<g id="graph0" class="graph" transform="scale(1 1) rotate(0) translate(21.6 304.6)">
<title>dependency&#45;graph&#45;[object Object]</title>
<polygon fill="#ffffff" stroke="transparent" points="-21.6,21.6 -21.6,-304.6 263.6,-304.6 263.6,21.6 -21.6,21.6"/>
<g id="clust1" class="cluster">
<title>cluster_src</title>
<polygon fill="#ffffff" stroke="#000000" points="8,-43 8,-275 234,-275 234,-43 8,-43"/>
</g>
<g id="clust2" class="cluster">
<title>cluster_src</title>
<polygon fill="#ffffff" stroke="#000000" points="16,-51 16,-267 226,-267 226,-51 16,-51"/>
</g>
<!-- dependency&#45;graph&#45;[object Object] -->
<!-- src/matrix.ts -->
<g id="node2" class="node">
<title>src/matrix.ts</title>
<path fill="none" stroke="#000000" d="M84.33,-200C84.33,-200 31.67,-200 31.67,-200 27.83,-200 24,-196.17 24,-192.33 24,-192.33 24,-184.67 24,-184.67 24,-180.83 27.83,-177 31.67,-177 31.67,-177 84.33,-177 84.33,-177 88.17,-177 92,-180.83 92,-184.67 92,-184.67 92,-192.33 92,-192.33 92,-196.17 88.17,-200 84.33,-200"/>
<text text-anchor="middle" x="58" y="-184.8" font-family="Arial" font-size="14.00" fill="#000000">matrix.ts</text>
</g>
<!-- src/real.ts -->
<g id="node3" class="node">
<title>src/real.ts</title>
<path fill="none" stroke="#000000" d="M130.33,-141C130.33,-141 91.67,-141 91.67,-141 87.83,-141 84,-137.17 84,-133.33 84,-133.33 84,-125.67 84,-125.67 84,-121.83 87.83,-118 91.67,-118 91.67,-118 130.33,-118 130.33,-118 134.17,-118 138,-121.83 138,-125.67 138,-125.67 138,-133.33 138,-133.33 138,-137.17 134.17,-141 130.33,-141"/>
<text text-anchor="middle" x="111" y="-125.8" font-family="Arial" font-size="14.00" fill="#000000">real.ts</text>
</g>
<!-- src/matrix.ts&#45;&gt;src/real.ts -->
<!-- src/matrix.ts&#45;&gt;src/real.ts -->
<g id="edge17" class="edge">
<title>src/matrix.ts&#45;&gt;src/real.ts</title>
<path fill="none" stroke="black" d="M73.38,-176.78C82,-168.98 92.33,-158.21 100.14,-149.03"/>
<polygon fill="black" stroke="black" points="102.92,-151.15 106.48,-141.17 97.48,-146.76 102.92,-151.15"/>
</g>
<!-- exit_src -->
<!-- src/matrix.ts&#45;&gt;exit_src -->
<!-- src/real.ts&#45;&gt;exit_src -->
<!-- src/vector.ts -->
<g id="node4" class="node">
<title>src/vector.ts</title>
<path fill="none" stroke="#000000" d="M189.83,-200C189.83,-200 138.17,-200 138.17,-200 134.33,-200 130.5,-196.17 130.5,-192.33 130.5,-192.33 130.5,-184.67 130.5,-184.67 130.5,-180.83 134.33,-177 138.17,-177 138.17,-177 189.83,-177 189.83,-177 193.67,-177 197.5,-180.83 197.5,-184.67 197.5,-184.67 197.5,-192.33 197.5,-192.33 197.5,-196.17 193.67,-200 189.83,-200"/>
<text text-anchor="middle" x="164" y="-184.8" font-family="Arial" font-size="14.00" fill="#000000">vector.ts</text>
</g>
<!-- src/vector.ts&#45;&gt;src/real.ts -->
<!-- src/vector.ts&#45;&gt;src/real.ts -->
<g id="edge19" class="edge">
<title>src/vector.ts&#45;&gt;src/real.ts</title>
<path fill="none" stroke="black" d="M159.44,-176.78C153.38,-168.74 143.27,-157.55 133.75,-148.19"/>
<polygon fill="black" stroke="black" points="136,-145.5 126.33,-141.17 131.19,-150.59 136,-145.5"/>
</g>
<!-- src/vector.ts&#45;&gt;exit_src -->
<!-- name_src -->
<g id="node5" class="node">
<title>name_src</title>
<path fill="none" stroke="#ff0000" stroke-width="5" d="M208.33,-259C208.33,-259 169.67,-259 169.67,-259 165.83,-259 162,-255.17 162,-251.33 162,-251.33 162,-243.67 162,-243.67 162,-239.83 165.83,-236 169.67,-236 169.67,-236 208.33,-236 208.33,-236 212.17,-236 216,-239.83 216,-243.67 216,-243.67 216,-251.33 216,-251.33 216,-255.17 212.17,-259 208.33,-259"/>
<text text-anchor="middle" x="189" y="-243.8" font-family="Arial" font-size="14.00" fill="#000000">src</text>
</g>
<!-- exit_src&#45;&gt;dependency&#45;graph&#45;[object Object] -->
<!-- exit_src&#45;&gt;exit_src -->
<!-- exit_src&#45;&gt;exit_src -->
<!-- exit_src&#45;&gt;exit_src -->
<!-- exit_src&#45;&gt;exit_src -->
<!-- src/common.ts -->
<g id="node7" class="node">
<title>src/common.ts</title>
<path fill="none" stroke="#ff0000" stroke-width="5" d="M134.83,-259C134.83,-259 87.17,-259 87.17,-259 83.33,-259 79.5,-255.17 79.5,-251.33 79.5,-251.33 79.5,-243.67 79.5,-243.67 79.5,-239.83 83.33,-236 87.17,-236 87.17,-236 134.83,-236 134.83,-236 138.67,-236 142.5,-239.83 142.5,-243.67 142.5,-243.67 142.5,-251.33 142.5,-251.33 142.5,-255.17 138.67,-259 134.83,-259"/>
<text text-anchor="middle" x="111" y="-243.8" font-family="Arial" font-size="14.00" fill="#000000">common.ts</text>
</g>
<!-- src/common.ts&#45;&gt;src/matrix.ts -->
<!-- src/common.ts&#45;&gt;src/matrix.ts -->
<g id="edge11" class="edge">
<title>src/common.ts&#45;&gt;src/matrix.ts</title>
<path fill="none" stroke="black" d="M106.44,-235.78C100.38,-227.74 90.27,-216.55 80.75,-207.19"/>
<polygon fill="black" stroke="black" points="83,-204.5 73.33,-200.17 78.19,-209.59 83,-204.5"/>
</g>
<!-- src/common.ts&#45;&gt;src/real.ts -->
<!-- src/common.ts&#45;&gt;src/real.ts -->
<g id="edge13" class="edge">
<title>src/common.ts&#45;&gt;src/real.ts</title>
<path fill="none" stroke="black" d="M115.11,-235.79C118.16,-216.63 118.57,-176.15 116.33,-151.34"/>
<polygon fill="black" stroke="black" points="119.77,-150.69 115.11,-141.18 112.82,-151.52 119.77,-150.69"/>
</g>
<!-- src/common.ts&#45;&gt;src/vector.ts -->
<!-- src/common.ts&#45;&gt;src/vector.ts -->
<g id="edge15" class="edge">
<title>src/common.ts&#45;&gt;src/vector.ts</title>
<path fill="none" stroke="black" d="M126.38,-235.78C135,-227.98 145.33,-217.21 153.14,-208.03"/>
<polygon fill="black" stroke="black" points="155.92,-210.15 159.48,-200.17 150.48,-205.76 155.92,-210.15"/>
</g>
<!-- src/common.ts&#45;&gt;exit_src -->
</g>
</svg>
