<?xml version="1.0" encoding="UTF-8" standalone="no"?>
<!DOCTYPE svg PUBLIC "-//W3C//DTD SVG 1.1//EN"
 "http://www.w3.org/Graphics/SVG/1.1/DTD/svg11.dtd">
<!-- Generated by graphviz version 2.43.0 (0)
 -->
<!-- Title: dependency&#45;graph&#45;@siteimprove/alfa&#45;math Pages: 1 -->
<svg width="239pt" height="350pt"
 viewBox="0.00 0.00 239.20 350.20" xmlns="http://www.w3.org/2000/svg" xmlns:xlink="http://www.w3.org/1999/xlink">
<g id="graph0" class="graph" transform="scale(1 1) rotate(0) translate(21.6 328.6)">
<title>dependency&#45;graph&#45;@siteimprove/alfa&#45;math</title>
<polygon fill="#ffffff" stroke="transparent" points="-21.6,21.6 -21.6,-328.6 217.6,-328.6 217.6,21.6 -21.6,21.6"/>
<g id="clust1" class="cluster">
<title>cluster_src</title>
<polygon fill="#ffffff" stroke="#000000" points="8,-8 8,-299 188,-299 188,-8 8,-8"/>
</g>
<g id="clust2" class="cluster">
<title>cluster_src</title>
<polygon fill="#ffffff" stroke="#000000" points="16,-16 16,-291 180,-291 180,-16 16,-16"/>
</g>
<!-- src/real.ts -->
<g id="node1" class="node">
<title>src/real.ts</title>
<path fill="none" stroke="#000000" d="M100.33,-106C100.33,-106 61.67,-106 61.67,-106 57.83,-106 54,-102.17 54,-98.33 54,-98.33 54,-90.67 54,-90.67 54,-86.83 57.83,-83 61.67,-83 61.67,-83 100.33,-83 100.33,-83 104.17,-83 108,-86.83 108,-90.67 108,-90.67 108,-98.33 108,-98.33 108,-102.17 104.17,-106 100.33,-106"/>
<text text-anchor="middle" x="81" y="-90.8" font-family="Arial" font-size="14.00" fill="#000000">real.ts</text>
</g>
<!-- exit_src -->
<!-- src/real.ts&#45;&gt;exit_src -->
<!-- src/vector.ts -->
<g id="node2" class="node">
<title>src/vector.ts</title>
<path fill="none" stroke="#000000" d="M143.83,-165C143.83,-165 92.17,-165 92.17,-165 88.33,-165 84.5,-161.17 84.5,-157.33 84.5,-157.33 84.5,-149.67 84.5,-149.67 84.5,-145.83 88.33,-142 92.17,-142 92.17,-142 143.83,-142 143.83,-142 147.67,-142 151.5,-145.83 151.5,-149.67 151.5,-149.67 151.5,-157.33 151.5,-157.33 151.5,-161.17 147.67,-165 143.83,-165"/>
<text text-anchor="middle" x="118" y="-149.8" font-family="Arial" font-size="14.00" fill="#000000">vector.ts</text>
</g>
<!-- src/vector.ts&#45;&gt;src/real.ts -->
<!-- src/vector.ts&#45;&gt;src/real.ts -->
<g id="edge10" class="edge">
<title>src/vector.ts&#45;&gt;src/real.ts</title>
<path fill="none" stroke="black" d="M116.45,-141.78C112.79,-134.06 106.22,-123.43 99.6,-114.31"/>
<polygon fill="black" stroke="black" points="102.21,-111.96 93.33,-106.17 96.66,-116.23 102.21,-111.96"/>
</g>
<!-- src/vector.ts&#45;&gt;exit_src -->
<!-- src/matrix.ts -->
<g id="node3" class="node">
<title>src/matrix.ts</title>
<path fill="none" stroke="#000000" d="M104.33,-224C104.33,-224 51.67,-224 51.67,-224 47.83,-224 44,-220.17 44,-216.33 44,-216.33 44,-208.67 44,-208.67 44,-204.83 47.83,-201 51.67,-201 51.67,-201 104.33,-201 104.33,-201 108.17,-201 112,-204.83 112,-208.67 112,-208.67 112,-216.33 112,-216.33 112,-220.17 108.17,-224 104.33,-224"/>
<text text-anchor="middle" x="78" y="-208.8" font-family="Arial" font-size="14.00" fill="#000000">matrix.ts</text>
</g>
<!-- src/matrix.ts&#45;&gt;src/real.ts -->
<!-- src/matrix.ts&#45;&gt;src/real.ts -->
<g id="edge12" class="edge">
<title>src/matrix.ts&#45;&gt;src/real.ts</title>
<path fill="none" stroke="black" d="M83.41,-200.66C85.17,-186.98 83.89,-162.73 85,-142 85.45,-133.62 86.35,-124.43 86.67,-116.45"/>
<polygon fill="black" stroke="black" points="90.17,-116.17 86.64,-106.19 83.17,-116.2 90.17,-116.17"/>
</g>
<!-- src/matrix.ts&#45;&gt;src/vector.ts -->
<!-- src/matrix.ts&#45;&gt;src/vector.ts -->
<g id="edge14" class="edge">
<title>src/matrix.ts&#45;&gt;src/vector.ts</title>
<path fill="none" stroke="black" d="M90.94,-200.78C97.57,-193.22 105.17,-182.87 110.83,-173.88"/>
<polygon fill="black" stroke="black" points="113.9,-175.57 115.91,-165.17 107.85,-172.05 113.9,-175.57"/>
</g>
<!-- src/matrix.ts&#45;&gt;exit_src -->
<!-- exit_src&#45;&gt;exit_src -->
<!-- exit_src&#45;&gt;exit_src -->
<!-- exit_src&#45;&gt;exit_src -->
<!-- exit_src&#45;&gt;exit_src -->
<!-- name_src -->
<g id="node5" class="node">
<title>name_src</title>
<path fill="none" stroke="#ff0000" stroke-width="5" d="M164.33,-283C164.33,-283 125.67,-283 125.67,-283 121.83,-283 118,-279.17 118,-275.33 118,-275.33 118,-267.67 118,-267.67 118,-263.83 121.83,-260 125.67,-260 125.67,-260 164.33,-260 164.33,-260 168.17,-260 172,-263.83 172,-267.67 172,-267.67 172,-275.33 172,-275.33 172,-279.17 168.17,-283 164.33,-283"/>
<text text-anchor="middle" x="145" y="-267.8" font-family="Arial" font-size="14.00" fill="#000000">src</text>
</g>
<!-- src/index.ts -->
<g id="node6" class="node">
<title>src/index.ts</title>
<path fill="none" stroke="#ff0000" stroke-width="5" d="M91.83,-283C91.83,-283 44.17,-283 44.17,-283 40.33,-283 36.5,-279.17 36.5,-275.33 36.5,-275.33 36.5,-267.67 36.5,-267.67 36.5,-263.83 40.33,-260 44.17,-260 44.17,-260 91.83,-260 91.83,-260 95.67,-260 99.5,-263.83 99.5,-267.67 99.5,-267.67 99.5,-275.33 99.5,-275.33 99.5,-279.17 95.67,-283 91.83,-283"/>
<text text-anchor="middle" x="68" y="-267.8" font-family="Arial" font-size="14.00" fill="#000000">index.ts</text>
</g>
<!-- src/index.ts&#45;&gt;src/real.ts -->
<!-- src/index.ts&#45;&gt;src/real.ts -->
<g id="edge18" class="edge">
<title>src/index.ts&#45;&gt;src/real.ts</title>
<path fill="none" stroke="black" d="M64.72,-259.75C58.51,-250.96 48.39,-237.77 44,-224 40.9,-214.26 41.91,-211.01 44,-201 50.56,-169.54 67.03,-135.97 76.14,-115.36"/>
<polygon fill="black" stroke="black" points="79.39,-116.67 80.05,-106.09 72.94,-113.95 79.39,-116.67"/>
</g>
<!-- src/index.ts&#45;&gt;src/vector.ts -->
<!-- src/index.ts&#45;&gt;src/vector.ts -->
<g id="edge20" class="edge">
<title>src/index.ts&#45;&gt;src/vector.ts</title>
<path fill="none" stroke="black" d="M94.25,-259.95C107.96,-251.88 122.98,-239.5 130,-224 136.98,-208.6 135.42,-189.25 131.11,-174.89"/>
<polygon fill="black" stroke="black" points="134.36,-173.57 127.57,-165.43 127.8,-176.02 134.36,-173.57"/>
</g>
<!-- src/index.ts&#45;&gt;src/matrix.ts -->
<!-- src/index.ts&#45;&gt;src/matrix.ts -->
<g id="edge16" class="edge">
<title>src/index.ts&#45;&gt;src/matrix.ts</title>
<path fill="none" stroke="black" d="M75.29,-259.78C77.81,-252.61 79.87,-242.95 80.88,-234.31"/>
<polygon fill="black" stroke="black" points="84.38,-234.38 81.53,-224.17 77.39,-233.93 84.38,-234.38"/>
</g>
<!-- src/index.ts&#45;&gt;exit_src -->
</g>
</svg>
