<?xml version="1.0" encoding="UTF-8" standalone="no"?>
<!DOCTYPE svg PUBLIC "-//W3C//DTD SVG 1.1//EN"
 "http://www.w3.org/Graphics/SVG/1.1/DTD/svg11.dtd">
<!-- Generated by graphviz version 2.43.0 (0)
 -->
<!-- Title: dependency&#45;graph&#45;@siteimprove/alfa&#45;math Pages: 1 -->
<svg width="285pt" height="291pt"
 viewBox="0.00 0.00 285.20 291.20" xmlns="http://www.w3.org/2000/svg" xmlns:xlink="http://www.w3.org/1999/xlink">
<g id="graph0" class="graph" transform="scale(1 1) rotate(0) translate(21.6 269.6)">
<title>dependency&#45;graph&#45;@siteimprove/alfa&#45;math</title>
<polygon fill="#ffffff" stroke="transparent" points="-21.6,21.6 -21.6,-269.6 263.6,-269.6 263.6,21.6 -21.6,21.6"/>
<g id="clust1" class="cluster">
<title>cluster_src</title>
<polygon fill="#ffffff" stroke="#000000" points="8,-8 8,-240 234,-240 234,-8 8,-8"/>
</g>
<g id="clust2" class="cluster">
<title>cluster_src</title>
<polygon fill="#ffffff" stroke="#000000" points="16,-16 16,-232 226,-232 226,-16 16,-16"/>
</g>
<!-- src/real.ts -->
<g id="node1" class="node">
<title>src/real.ts</title>
<path fill="none" stroke="#000000" d="M130.33,-106C130.33,-106 91.67,-106 91.67,-106 87.83,-106 84,-102.17 84,-98.33 84,-98.33 84,-90.67 84,-90.67 84,-86.83 87.83,-83 91.67,-83 91.67,-83 130.33,-83 130.33,-83 134.17,-83 138,-86.83 138,-90.67 138,-90.67 138,-98.33 138,-98.33 138,-102.17 134.17,-106 130.33,-106"/>
<text text-anchor="middle" x="111" y="-90.8" font-family="Arial" font-size="14.00" fill="#000000">real.ts</text>
</g>
<!-- exit_src -->
<!-- src/real.ts&#45;&gt;exit_src -->
<!-- src/matrix.ts -->
<g id="node2" class="node">
<title>src/matrix.ts</title>
<path fill="none" stroke="#000000" d="M84.33,-165C84.33,-165 31.67,-165 31.67,-165 27.83,-165 24,-161.17 24,-157.33 24,-157.33 24,-149.67 24,-149.67 24,-145.83 27.83,-142 31.67,-142 31.67,-142 84.33,-142 84.33,-142 88.17,-142 92,-145.83 92,-149.67 92,-149.67 92,-157.33 92,-157.33 92,-161.17 88.17,-165 84.33,-165"/>
<text text-anchor="middle" x="58" y="-149.8" font-family="Arial" font-size="14.00" fill="#000000">matrix.ts</text>
</g>
<!-- src/matrix.ts&#45;&gt;src/real.ts -->
<!-- src/matrix.ts&#45;&gt;src/real.ts -->
<g id="edge12" class="edge">
<title>src/matrix.ts&#45;&gt;src/real.ts</title>
<path fill="none" stroke="black" d="M73.38,-141.78C82,-133.98 92.33,-123.21 100.14,-114.03"/>
<polygon fill="black" stroke="black" points="102.92,-116.15 106.48,-106.17 97.48,-111.76 102.92,-116.15"/>
</g>
<!-- src/matrix.ts&#45;&gt;exit_src -->
<!-- src/vector.ts -->
<g id="node3" class="node">
<title>src/vector.ts</title>
<path fill="none" stroke="#000000" d="M189.83,-165C189.83,-165 138.17,-165 138.17,-165 134.33,-165 130.5,-161.17 130.5,-157.33 130.5,-157.33 130.5,-149.67 130.5,-149.67 130.5,-145.83 134.33,-142 138.17,-142 138.17,-142 189.83,-142 189.83,-142 193.67,-142 197.5,-145.83 197.5,-149.67 197.5,-149.67 197.5,-157.33 197.5,-157.33 197.5,-161.17 193.67,-165 189.83,-165"/>
<text text-anchor="middle" x="164" y="-149.8" font-family="Arial" font-size="14.00" fill="#000000">vector.ts</text>
</g>
<!-- src/vector.ts&#45;&gt;src/real.ts -->
<!-- src/vector.ts&#45;&gt;src/real.ts -->
<g id="edge10" class="edge">
<title>src/vector.ts&#45;&gt;src/real.ts</title>
<path fill="none" stroke="black" d="M159.44,-141.78C153.38,-133.74 143.27,-122.55 133.75,-113.19"/>
<polygon fill="black" stroke="black" points="136,-110.5 126.33,-106.17 131.19,-115.59 136,-110.5"/>
</g>
<!-- src/vector.ts&#45;&gt;exit_src -->
<!-- exit_src&#45;&gt;exit_src -->
<!-- exit_src&#45;&gt;exit_src -->
<!-- exit_src&#45;&gt;exit_src -->
<!-- exit_src&#45;&gt;exit_src -->
<!-- name_src -->
<g id="node5" class="node">
<title>name_src</title>
<path fill="none" stroke="#ff0000" stroke-width="5" d="M208.33,-224C208.33,-224 169.67,-224 169.67,-224 165.83,-224 162,-220.17 162,-216.33 162,-216.33 162,-208.67 162,-208.67 162,-204.83 165.83,-201 169.67,-201 169.67,-201 208.33,-201 208.33,-201 212.17,-201 216,-204.83 216,-208.67 216,-208.67 216,-216.33 216,-216.33 216,-220.17 212.17,-224 208.33,-224"/>
<text text-anchor="middle" x="189" y="-208.8" font-family="Arial" font-size="14.00" fill="#000000">src</text>
</g>
<!-- src/index.ts -->
<g id="node6" class="node">
<title>src/index.ts</title>
<path fill="none" stroke="#ff0000" stroke-width="5" d="M134.83,-224C134.83,-224 87.17,-224 87.17,-224 83.33,-224 79.5,-220.17 79.5,-216.33 79.5,-216.33 79.5,-208.67 79.5,-208.67 79.5,-204.83 83.33,-201 87.17,-201 87.17,-201 134.83,-201 134.83,-201 138.67,-201 142.5,-204.83 142.5,-208.67 142.5,-208.67 142.5,-216.33 142.5,-216.33 142.5,-220.17 138.67,-224 134.83,-224"/>
<text text-anchor="middle" x="111" y="-208.8" font-family="Arial" font-size="14.00" fill="#000000">index.ts</text>
</g>
<!-- src/index.ts&#45;&gt;src/real.ts -->
<!-- src/index.ts&#45;&gt;src/real.ts -->
<g id="edge16" class="edge">
<title>src/index.ts&#45;&gt;src/real.ts</title>
<path fill="none" stroke="black" d="M115.11,-200.79C118.16,-181.63 118.57,-141.15 116.33,-116.34"/>
<polygon fill="black" stroke="black" points="119.77,-115.69 115.11,-106.18 112.82,-116.52 119.77,-115.69"/>
</g>
<!-- src/index.ts&#45;&gt;src/matrix.ts -->
<!-- src/index.ts&#45;&gt;src/matrix.ts -->
<g id="edge14" class="edge">
<title>src/index.ts&#45;&gt;src/matrix.ts</title>
<path fill="none" stroke="black" d="M106.44,-200.78C100.38,-192.74 90.27,-181.55 80.75,-172.19"/>
<polygon fill="black" stroke="black" points="83,-169.5 73.33,-165.17 78.19,-174.59 83,-169.5"/>
</g>
<!-- src/index.ts&#45;&gt;src/vector.ts -->
<!-- src/index.ts&#45;&gt;src/vector.ts -->
<g id="edge18" class="edge">
<title>src/index.ts&#45;&gt;src/vector.ts</title>
<path fill="none" stroke="black" d="M126.38,-200.78C135,-192.98 145.33,-182.21 153.14,-173.03"/>
<polygon fill="black" stroke="black" points="155.92,-175.15 159.48,-165.17 150.48,-170.76 155.92,-175.15"/>
</g>
<!-- src/index.ts&#45;&gt;exit_src -->
</g>
</svg>
