<?xml version="1.0" encoding="UTF-8" standalone="no"?>
<!DOCTYPE svg PUBLIC "-//W3C//DTD SVG 1.1//EN"
 "http://www.w3.org/Graphics/SVG/1.1/DTD/svg11.dtd">
<!-- Generated by graphviz version 2.43.0 (0)
 -->
<!-- Title: dependency&#45;graph&#45;[object Object] Pages: 1 -->
<svg width="264pt" height="267pt"
 viewBox="0.00 0.00 264.20 267.20" xmlns="http://www.w3.org/2000/svg" xmlns:xlink="http://www.w3.org/1999/xlink">
<g id="graph0" class="graph" transform="scale(1 1) rotate(0) translate(21.6 245.6)">
<title>dependency&#45;graph&#45;[object Object]</title>
<polygon fill="#ffffff" stroke="transparent" points="-21.6,21.6 -21.6,-245.6 242.6,-245.6 242.6,21.6 -21.6,21.6"/>
<g id="clust1" class="cluster">
<title>cluster_src</title>
<polygon fill="#ffffff" stroke="#000000" points="34.5,-43 34.5,-216 202.5,-216 202.5,-43 34.5,-43"/>
</g>
<g id="clust2" class="cluster">
<title>cluster_src</title>
<polygon fill="#ffffff" stroke="#000000" points="42.5,-51 42.5,-208 194.5,-208 194.5,-51 42.5,-51"/>
</g>
<!-- dependency&#45;graph&#45;[object Object] -->
<!-- src/continuation.ts -->
<g id="node2" class="node">
<title>src/continuation.ts</title>
<path fill="none" stroke="#000000" d="M146.83,-141C146.83,-141 58.17,-141 58.17,-141 54.33,-141 50.5,-137.17 50.5,-133.33 50.5,-133.33 50.5,-125.67 50.5,-125.67 50.5,-121.83 54.33,-118 58.17,-118 58.17,-118 146.83,-118 146.83,-118 150.67,-118 154.5,-121.83 154.5,-125.67 154.5,-125.67 154.5,-133.33 154.5,-133.33 154.5,-137.17 150.67,-141 146.83,-141"/>
<text text-anchor="middle" x="102.5" y="-125.8" font-family="Arial" font-size="14.00" fill="#000000">continuation.ts</text>
</g>
<!-- exit_src -->
<!-- src/continuation.ts&#45;&gt;exit_src -->
<!-- name_src -->
<g id="node3" class="node">
<title>name_src</title>
<path fill="none" stroke="#ff0000" stroke-width="5" d="M178.83,-200C178.83,-200 140.17,-200 140.17,-200 136.33,-200 132.5,-196.17 132.5,-192.33 132.5,-192.33 132.5,-184.67 132.5,-184.67 132.5,-180.83 136.33,-177 140.17,-177 140.17,-177 178.83,-177 178.83,-177 182.67,-177 186.5,-180.83 186.5,-184.67 186.5,-184.67 186.5,-192.33 186.5,-192.33 186.5,-196.17 182.67,-200 178.83,-200"/>
<text text-anchor="middle" x="159.5" y="-184.8" font-family="Arial" font-size="14.00" fill="#000000">src</text>
</g>
<!-- exit_src&#45;&gt;dependency&#45;graph&#45;[object Object] -->
<!-- exit_src&#45;&gt;exit_src -->
<!-- exit_src&#45;&gt;exit_src -->
<!-- src/index.ts -->
<g id="node5" class="node">
<title>src/index.ts</title>
<path fill="none" stroke="#ff0000" stroke-width="5" d="M106.33,-200C106.33,-200 58.67,-200 58.67,-200 54.83,-200 51,-196.17 51,-192.33 51,-192.33 51,-184.67 51,-184.67 51,-180.83 54.83,-177 58.67,-177 58.67,-177 106.33,-177 106.33,-177 110.17,-177 114,-180.83 114,-184.67 114,-184.67 114,-192.33 114,-192.33 114,-196.17 110.17,-200 106.33,-200"/>
<text text-anchor="middle" x="82.5" y="-184.8" font-family="Arial" font-size="14.00" fill="#000000">index.ts</text>
</g>
<!-- src/index.ts&#45;&gt;src/continuation.ts -->
<!-- src/index.ts&#45;&gt;src/continuation.ts -->
<g id="edge7" class="edge">
<title>src/index.ts&#45;&gt;src/continuation.ts</title>
<path fill="none" stroke="black" d="M91.67,-176.78C95.49,-169.53 99.29,-159.74 101.81,-151.02"/>
<polygon fill="black" stroke="black" points="105.24,-151.71 104.16,-141.17 98.43,-150.09 105.24,-151.71"/>
</g>
<!-- src/index.ts&#45;&gt;exit_src -->
</g>
</svg>
