<?xml version="1.0" encoding="UTF-8" standalone="no"?>
<!DOCTYPE svg PUBLIC "-//W3C//DTD SVG 1.1//EN"
 "http://www.w3.org/Graphics/SVG/1.1/DTD/svg11.dtd">
<!-- Generated by graphviz version 2.43.0 (0)
 -->
<!-- Title: dependency&#45;graph&#45;@siteimprove/alfa&#45;json Pages: 1 -->
<svg width="229pt" height="350pt"
 viewBox="0.00 0.00 229.20 350.20" xmlns="http://www.w3.org/2000/svg" xmlns:xlink="http://www.w3.org/1999/xlink">
<g id="graph0" class="graph" transform="scale(1 1) rotate(0) translate(21.6 328.6)">
<title>dependency&#45;graph&#45;@siteimprove/alfa&#45;json</title>
<polygon fill="#ffffff" stroke="transparent" points="-21.6,21.6 -21.6,-328.6 207.6,-328.6 207.6,21.6 -21.6,21.6"/>
<g id="clust1" class="cluster">
<title>cluster_src</title>
<polygon fill="#ffffff" stroke="#000000" points="8,-8 8,-299 178,-299 178,-8 8,-8"/>
</g>
<g id="clust2" class="cluster">
<title>cluster_src</title>
<polygon fill="#ffffff" stroke="#000000" points="16,-16 16,-291 170,-291 170,-16 16,-16"/>
</g>
<!-- src/json.ts -->
<g id="node1" class="node">
<title>src/json.ts</title>
<path fill="none" stroke="#000000" d="M77.33,-165C77.33,-165 36.67,-165 36.67,-165 32.83,-165 29,-161.17 29,-157.33 29,-157.33 29,-149.67 29,-149.67 29,-145.83 32.83,-142 36.67,-142 36.67,-142 77.33,-142 77.33,-142 81.17,-142 85,-145.83 85,-149.67 85,-149.67 85,-157.33 85,-157.33 85,-161.17 81.17,-165 77.33,-165"/>
<text text-anchor="middle" x="57" y="-149.8" font-family="Arial" font-size="14.00" fill="#000000">json.ts</text>
</g>
<!-- src/builtin.ts -->
<g id="node3" class="node">
<title>src/builtin.ts</title>
<path fill="none" stroke="#000000" d="M82.33,-106C82.33,-106 31.67,-106 31.67,-106 27.83,-106 24,-102.17 24,-98.33 24,-98.33 24,-90.67 24,-90.67 24,-86.83 27.83,-83 31.67,-83 31.67,-83 82.33,-83 82.33,-83 86.17,-83 90,-86.83 90,-90.67 90,-90.67 90,-98.33 90,-98.33 90,-102.17 86.17,-106 82.33,-106"/>
<text text-anchor="middle" x="57" y="-90.8" font-family="Arial" font-size="14.00" fill="#000000">builtin.ts</text>
</g>
<!-- src/json.ts&#45;&gt;src/builtin.ts -->
<!-- src/json.ts&#45;&gt;src/builtin.ts -->
<g id="edge16" class="edge">
<title>src/json.ts&#45;&gt;src/builtin.ts</title>
<path fill="none" stroke="black" d="M62.41,-141.78C63.67,-134.61 64.04,-124.95 63.53,-116.31"/>
<polygon fill="black" stroke="black" points="66.98,-115.73 62.4,-106.17 60.03,-116.5 66.98,-115.73"/>
</g>
<!-- exit_src -->
<!-- src/json.ts&#45;&gt;exit_src -->
<!-- src/serializable.ts -->
<g id="node2" class="node">
<title>src/serializable.ts</title>
<path fill="none" stroke="#000000" d="M134.33,-224C134.33,-224 51.67,-224 51.67,-224 47.83,-224 44,-220.17 44,-216.33 44,-216.33 44,-208.67 44,-208.67 44,-204.83 47.83,-201 51.67,-201 51.67,-201 134.33,-201 134.33,-201 138.17,-201 142,-204.83 142,-208.67 142,-208.67 142,-216.33 142,-216.33 142,-220.17 138.17,-224 134.33,-224"/>
<text text-anchor="middle" x="93" y="-208.8" font-family="Arial" font-size="14.00" fill="#000000">serializable.ts</text>
</g>
<!-- src/serializable.ts&#45;&gt;src/json.ts -->
<!-- src/serializable.ts&#45;&gt;src/json.ts -->
<g id="edge10" class="edge">
<title>src/serializable.ts&#45;&gt;src/json.ts</title>
<path fill="none" stroke="black" stroke-dasharray="1,5" d="M91.64,-200.78C88.12,-193.06 81.73,-182.43 75.27,-173.31"/>
<polygon fill="black" stroke="black" points="77.96,-171.06 69.14,-165.17 72.36,-175.27 77.96,-171.06"/>
</g>
<!-- src/serializable.ts&#45;&gt;exit_src -->
<!-- src/builtin.ts&#45;&gt;exit_src -->
<!-- exit_src&#45;&gt;exit_src -->
<!-- exit_src&#45;&gt;exit_src -->
<!-- exit_src&#45;&gt;exit_src -->
<!-- exit_src&#45;&gt;exit_src -->
<!-- name_src -->
<g id="node5" class="node">
<title>name_src</title>
<path fill="none" stroke="#ff0000" stroke-width="5" d="M154.33,-283C154.33,-283 115.67,-283 115.67,-283 111.83,-283 108,-279.17 108,-275.33 108,-275.33 108,-267.67 108,-267.67 108,-263.83 111.83,-260 115.67,-260 115.67,-260 154.33,-260 154.33,-260 158.17,-260 162,-263.83 162,-267.67 162,-267.67 162,-275.33 162,-275.33 162,-279.17 158.17,-283 154.33,-283"/>
<text text-anchor="middle" x="135" y="-267.8" font-family="Arial" font-size="14.00" fill="#000000">src</text>
</g>
<!-- src/index.ts -->
<g id="node6" class="node">
<title>src/index.ts</title>
<path fill="none" stroke="#ff0000" stroke-width="5" d="M81.83,-283C81.83,-283 34.17,-283 34.17,-283 30.33,-283 26.5,-279.17 26.5,-275.33 26.5,-275.33 26.5,-267.67 26.5,-267.67 26.5,-263.83 30.33,-260 34.17,-260 34.17,-260 81.83,-260 81.83,-260 85.67,-260 89.5,-263.83 89.5,-267.67 89.5,-267.67 89.5,-275.33 89.5,-275.33 89.5,-279.17 85.67,-283 81.83,-283"/>
<text text-anchor="middle" x="58" y="-267.8" font-family="Arial" font-size="14.00" fill="#000000">index.ts</text>
</g>
<!-- src/index.ts&#45;&gt;src/json.ts -->
<!-- src/index.ts&#45;&gt;src/json.ts -->
<g id="edge12" class="edge">
<title>src/index.ts&#45;&gt;src/json.ts</title>
<path fill="none" stroke="black" d="M58.21,-259.95C54.44,-250.86 47.08,-237.15 44,-224 41.67,-214.05 41.76,-210.97 44,-201 46.04,-191.91 50.07,-182.51 53.52,-174.56"/>
<polygon fill="black" stroke="black" points="56.85,-175.67 57.51,-165.09 50.4,-172.95 56.85,-175.67"/>
</g>
<!-- src/index.ts&#45;&gt;src/serializable.ts -->
<!-- src/index.ts&#45;&gt;src/serializable.ts -->
<g id="edge14" class="edge">
<title>src/index.ts&#45;&gt;src/serializable.ts</title>
<path fill="none" stroke="black" d="M69.99,-259.78C75.9,-252.29 82.52,-242.09 87.38,-233.16"/>
<polygon fill="black" stroke="black" points="90.53,-234.69 91.85,-224.17 84.26,-231.57 90.53,-234.69"/>
</g>
<!-- src/index.ts&#45;&gt;exit_src -->
</g>
</svg>
