<?xml version="1.0" encoding="UTF-8" standalone="no"?>
<!DOCTYPE svg PUBLIC "-//W3C//DTD SVG 1.1//EN"
 "http://www.w3.org/Graphics/SVG/1.1/DTD/svg11.dtd">
<!-- Generated by graphviz version 2.43.0 (0)
 -->
<!-- Title: dependency&#45;graph&#45;[object Object] Pages: 1 -->
<svg width="282pt" height="385pt"
 viewBox="0.00 0.00 281.70 385.20" xmlns="http://www.w3.org/2000/svg" xmlns:xlink="http://www.w3.org/1999/xlink">
<g id="graph0" class="graph" transform="scale(1 1) rotate(0) translate(21.6 363.6)">
<title>dependency&#45;graph&#45;[object Object]</title>
<polygon fill="#ffffff" stroke="transparent" points="-21.6,21.6 -21.6,-363.6 260.1,-363.6 260.1,21.6 -21.6,21.6"/>
<g id="clust1" class="cluster">
<title>cluster_src</title>
<polygon fill="#ffffff" stroke="#000000" points="60.5,-43 60.5,-334 230.5,-334 230.5,-43 60.5,-43"/>
</g>
<g id="clust2" class="cluster">
<title>cluster_src</title>
<polygon fill="#ffffff" stroke="#000000" points="68.5,-51 68.5,-326 222.5,-326 222.5,-51 68.5,-51"/>
</g>
<!-- dependency&#45;graph&#45;[object Object] -->
<!-- src/json.ts -->
<g id="node2" class="node">
<title>src/json.ts</title>
<path fill="none" stroke="#000000" d="M129.83,-200C129.83,-200 89.17,-200 89.17,-200 85.33,-200 81.5,-196.17 81.5,-192.33 81.5,-192.33 81.5,-184.67 81.5,-184.67 81.5,-180.83 85.33,-177 89.17,-177 89.17,-177 129.83,-177 129.83,-177 133.67,-177 137.5,-180.83 137.5,-184.67 137.5,-184.67 137.5,-192.33 137.5,-192.33 137.5,-196.17 133.67,-200 129.83,-200"/>
<text text-anchor="middle" x="109.5" y="-184.8" font-family="Arial" font-size="14.00" fill="#000000">json.ts</text>
</g>
<!-- src/builtin.ts -->
<g id="node4" class="node">
<title>src/builtin.ts</title>
<path fill="none" stroke="#000000" d="M134.83,-141C134.83,-141 84.17,-141 84.17,-141 80.33,-141 76.5,-137.17 76.5,-133.33 76.5,-133.33 76.5,-125.67 76.5,-125.67 76.5,-121.83 80.33,-118 84.17,-118 84.17,-118 134.83,-118 134.83,-118 138.67,-118 142.5,-121.83 142.5,-125.67 142.5,-125.67 142.5,-133.33 142.5,-133.33 142.5,-137.17 138.67,-141 134.83,-141"/>
<text text-anchor="middle" x="109.5" y="-125.8" font-family="Arial" font-size="14.00" fill="#000000">builtin.ts</text>
</g>
<!-- src/json.ts&#45;&gt;src/builtin.ts -->
<!-- src/json.ts&#45;&gt;src/builtin.ts -->
<g id="edge15" class="edge">
<title>src/json.ts&#45;&gt;src/builtin.ts</title>
<path fill="none" stroke="black" d="M114.91,-176.78C116.17,-169.61 116.54,-159.95 116.03,-151.31"/>
<polygon fill="black" stroke="black" points="119.48,-150.73 114.9,-141.17 112.53,-151.5 119.48,-150.73"/>
</g>
<!-- exit_src -->
<!-- src/json.ts&#45;&gt;exit_src -->
<!-- src/serializable.ts -->
<g id="node3" class="node">
<title>src/serializable.ts</title>
<path fill="none" stroke="#000000" d="M186.83,-259C186.83,-259 104.17,-259 104.17,-259 100.33,-259 96.5,-255.17 96.5,-251.33 96.5,-251.33 96.5,-243.67 96.5,-243.67 96.5,-239.83 100.33,-236 104.17,-236 104.17,-236 186.83,-236 186.83,-236 190.67,-236 194.5,-239.83 194.5,-243.67 194.5,-243.67 194.5,-251.33 194.5,-251.33 194.5,-255.17 190.67,-259 186.83,-259"/>
<text text-anchor="middle" x="145.5" y="-243.8" font-family="Arial" font-size="14.00" fill="#000000">serializable.ts</text>
</g>
<!-- src/serializable.ts&#45;&gt;src/json.ts -->
<!-- src/serializable.ts&#45;&gt;src/json.ts -->
<g id="edge17" class="edge">
<title>src/serializable.ts&#45;&gt;src/json.ts</title>
<path fill="none" stroke="black" d="M144.14,-235.78C140.62,-228.06 134.23,-217.43 127.77,-208.31"/>
<polygon fill="black" stroke="black" points="130.46,-206.06 121.64,-200.17 124.86,-210.27 130.46,-206.06"/>
</g>
<!-- src/serializable.ts&#45;&gt;exit_src -->
<!-- src/builtin.ts&#45;&gt;exit_src -->
<!-- name_src -->
<g id="node5" class="node">
<title>name_src</title>
<path fill="none" stroke="#ff0000" stroke-width="5" d="M206.83,-318C206.83,-318 168.17,-318 168.17,-318 164.33,-318 160.5,-314.17 160.5,-310.33 160.5,-310.33 160.5,-302.67 160.5,-302.67 160.5,-298.83 164.33,-295 168.17,-295 168.17,-295 206.83,-295 206.83,-295 210.67,-295 214.5,-298.83 214.5,-302.67 214.5,-302.67 214.5,-310.33 214.5,-310.33 214.5,-314.17 210.67,-318 206.83,-318"/>
<text text-anchor="middle" x="187.5" y="-302.8" font-family="Arial" font-size="14.00" fill="#000000">src</text>
</g>
<!-- exit_src&#45;&gt;dependency&#45;graph&#45;[object Object] -->
<!-- exit_src&#45;&gt;exit_src -->
<!-- exit_src&#45;&gt;exit_src -->
<!-- exit_src&#45;&gt;exit_src -->
<!-- exit_src&#45;&gt;exit_src -->
<!-- src/index.ts -->
<g id="node7" class="node">
<title>src/index.ts</title>
<path fill="none" stroke="#ff0000" stroke-width="5" d="M134.33,-318C134.33,-318 86.67,-318 86.67,-318 82.83,-318 79,-314.17 79,-310.33 79,-310.33 79,-302.67 79,-302.67 79,-298.83 82.83,-295 86.67,-295 86.67,-295 134.33,-295 134.33,-295 138.17,-295 142,-298.83 142,-302.67 142,-302.67 142,-310.33 142,-310.33 142,-314.17 138.17,-318 134.33,-318"/>
<text text-anchor="middle" x="110.5" y="-302.8" font-family="Arial" font-size="14.00" fill="#000000">index.ts</text>
</g>
<!-- src/index.ts&#45;&gt;src/json.ts -->
<!-- src/index.ts&#45;&gt;src/json.ts -->
<g id="edge11" class="edge">
<title>src/index.ts&#45;&gt;src/json.ts</title>
<path fill="none" stroke="black" d="M110.71,-294.95C106.94,-285.86 99.58,-272.15 96.5,-259 94.17,-249.05 94.26,-245.97 96.5,-236 98.54,-226.91 102.57,-217.51 106.02,-209.56"/>
<polygon fill="black" stroke="black" points="109.35,-210.67 110.01,-200.09 102.9,-207.95 109.35,-210.67"/>
</g>
<!-- src/index.ts&#45;&gt;src/serializable.ts -->
<!-- src/index.ts&#45;&gt;src/serializable.ts -->
<g id="edge13" class="edge">
<title>src/index.ts&#45;&gt;src/serializable.ts</title>
<path fill="none" stroke="black" d="M122.49,-294.78C128.4,-287.29 135.02,-277.09 139.88,-268.16"/>
<polygon fill="black" stroke="black" points="143.03,-269.69 144.35,-259.17 136.76,-266.57 143.03,-269.69"/>
</g>
<!-- src/index.ts&#45;&gt;exit_src -->
</g>
</svg>
