<?xml version="1.0" encoding="UTF-8" standalone="no"?>
<!DOCTYPE svg PUBLIC "-//W3C//DTD SVG 1.1//EN"
 "http://www.w3.org/Graphics/SVG/1.1/DTD/svg11.dtd">
<!-- Generated by graphviz version 2.43.0 (0)
 -->
<!-- Title: dependency&#45;graph&#45;[object Object] Pages: 1 -->
<svg width="732pt" height="503pt"
 viewBox="0.00 0.00 732.20 503.20" xmlns="http://www.w3.org/2000/svg" xmlns:xlink="http://www.w3.org/1999/xlink">
<g id="graph0" class="graph" transform="scale(1 1) rotate(0) translate(21.6 481.6)">
<title>dependency&#45;graph&#45;[object Object]</title>
<polygon fill="#ffffff" stroke="transparent" points="-21.6,21.6 -21.6,-481.6 710.6,-481.6 710.6,21.6 -21.6,21.6"/>
<g id="clust1" class="cluster">
<title>cluster_src</title>
<polygon fill="#ffffff" stroke="#000000" points="8,-43 8,-452 681,-452 681,-43 8,-43"/>
</g>
<g id="clust2" class="cluster">
<title>cluster_src</title>
<polygon fill="#ffffff" stroke="#000000" points="16,-51 16,-444 673,-444 673,-51 16,-51"/>
</g>
<g id="clust3" class="cluster">
<title>cluster_src/cell</title>
<polygon fill="#ffffff" stroke="#000000" points="425,-169 425,-385 665,-385 665,-169 425,-169"/>
</g>
<g id="clust4" class="cluster">
<title>cluster_src/cell/predicate</title>
<polygon fill="#ffffff" stroke="#000000" points="433,-228 433,-326 645,-326 645,-228 433,-228"/>
</g>
<!-- dependency&#45;graph&#45;[object Object] -->
<!-- src/slot.ts -->
<g id="node2" class="node">
<title>src/slot.ts</title>
<path fill="none" stroke="#000000" d="M164.33,-141C164.33,-141 125.67,-141 125.67,-141 121.83,-141 118,-137.17 118,-133.33 118,-133.33 118,-125.67 118,-125.67 118,-121.83 121.83,-118 125.67,-118 125.67,-118 164.33,-118 164.33,-118 168.17,-118 172,-121.83 172,-125.67 172,-125.67 172,-133.33 172,-133.33 172,-137.17 168.17,-141 164.33,-141"/>
<text text-anchor="middle" x="145" y="-125.8" font-family="Arial" font-size="14.00" fill="#000000">slot.ts</text>
</g>
<!-- exit_src -->
<!-- src/slot.ts&#45;&gt;exit_src -->
<!-- src/anchored.ts -->
<g id="node3" class="node">
<title>src/anchored.ts</title>
<path fill="none" stroke="#000000" d="M263.83,-200C263.83,-200 192.17,-200 192.17,-200 188.33,-200 184.5,-196.17 184.5,-192.33 184.5,-192.33 184.5,-184.67 184.5,-184.67 184.5,-180.83 188.33,-177 192.17,-177 192.17,-177 263.83,-177 263.83,-177 267.67,-177 271.5,-180.83 271.5,-184.67 271.5,-184.67 271.5,-192.33 271.5,-192.33 271.5,-196.17 267.67,-200 263.83,-200"/>
<text text-anchor="middle" x="228" y="-184.8" font-family="Arial" font-size="14.00" fill="#000000">anchored.ts</text>
</g>
<!-- src/anchored.ts&#45;&gt;src/slot.ts -->
<!-- src/anchored.ts&#45;&gt;src/slot.ts -->
<g id="edge28" class="edge">
<title>src/anchored.ts&#45;&gt;src/slot.ts</title>
<path fill="none" stroke="black" stroke-dasharray="1,5" d="M217.8,-176.78C206.89,-168.26 189.59,-156.21 174.51,-146.55"/>
<polygon fill="black" stroke="black" points="176.28,-143.52 165.94,-141.17 172.55,-149.45 176.28,-143.52"/>
</g>
<!-- src/anchored.ts&#45;&gt;exit_src -->
<!-- src/cell/predicate.ts -->
<g id="node4" class="node">
<title>src/cell/predicate.ts</title>
<path fill="none" stroke="#000000" d="M617.33,-377C617.33,-377 546.67,-377 546.67,-377 542.83,-377 539,-373.17 539,-369.33 539,-369.33 539,-361.67 539,-361.67 539,-357.83 542.83,-354 546.67,-354 546.67,-354 617.33,-354 617.33,-354 621.17,-354 625,-357.83 625,-361.67 625,-361.67 625,-369.33 625,-369.33 625,-373.17 621.17,-377 617.33,-377"/>
<text text-anchor="middle" x="582" y="-361.8" font-family="Arial" font-size="14.00" fill="#000000">predicate.ts</text>
</g>
<!-- name_src/cell/predicate -->
<g id="node8" class="node">
<title>name_src/cell/predicate</title>
<path fill="none" stroke="#0000ff" stroke-width="5" d="M505.33,-318C505.33,-318 448.67,-318 448.67,-318 444.83,-318 441,-314.17 441,-310.33 441,-310.33 441,-302.67 441,-302.67 441,-298.83 444.83,-295 448.67,-295 448.67,-295 505.33,-295 505.33,-295 509.17,-295 513,-298.83 513,-302.67 513,-302.67 513,-310.33 513,-310.33 513,-314.17 509.17,-318 505.33,-318"/>
<text text-anchor="middle" x="477" y="-302.8" font-family="Arial" font-size="14.00" fill="#000000">predicate</text>
</g>
<!-- src/cell/predicate.ts&#45;&gt;name_src/cell/predicate -->
<g id="edge36" class="edge">
<title>src/cell/predicate.ts&#45;&gt;name_src/cell/predicate</title>
<path fill="none" stroke="#ff0000" d="M562.25,-353.78C550.33,-347.31 534.67,-338.81 520.02,-330.86"/>
<polygon fill="#ff0000" stroke="#ff0000" points="521.54,-327.69 511.08,-326 518.2,-333.85 521.54,-327.69"/>
</g>
<!-- exit_src/cell -->
<!-- src/cell/predicate.ts&#45;&gt;exit_src/cell -->
<!-- name_src/cell -->
<g id="node5" class="node">
<title>name_src/cell</title>
<path fill="none" stroke="#ff0000" stroke-width="5" d="M481.33,-377C481.33,-377 442.67,-377 442.67,-377 438.83,-377 435,-373.17 435,-369.33 435,-369.33 435,-361.67 435,-361.67 435,-357.83 438.83,-354 442.67,-354 442.67,-354 481.33,-354 481.33,-354 485.17,-354 489,-357.83 489,-361.67 489,-361.67 489,-369.33 489,-369.33 489,-373.17 485.17,-377 481.33,-377"/>
<text text-anchor="middle" x="462" y="-361.8" font-family="Arial" font-size="14.00" fill="#000000">cell</text>
</g>
<!-- src/scope.ts -->
<g id="node6" class="node">
<title>src/scope.ts</title>
<path fill="none" stroke="#000000" d="M348.83,-200C348.83,-200 297.17,-200 297.17,-200 293.33,-200 289.5,-196.17 289.5,-192.33 289.5,-192.33 289.5,-184.67 289.5,-184.67 289.5,-180.83 293.33,-177 297.17,-177 297.17,-177 348.83,-177 348.83,-177 352.67,-177 356.5,-180.83 356.5,-184.67 356.5,-184.67 356.5,-192.33 356.5,-192.33 356.5,-196.17 352.67,-200 348.83,-200"/>
<text text-anchor="middle" x="323" y="-184.8" font-family="Arial" font-size="14.00" fill="#000000">scope.ts</text>
</g>
<!-- src/scope.ts&#45;&gt;exit_src -->
<!-- src/cell/predicate/has&#45;element.ts -->
<g id="node7" class="node">
<title>src/cell/predicate/has&#45;element.ts</title>
<path fill="none" stroke="#000000" d="M629.33,-318C629.33,-318 538.67,-318 538.67,-318 534.83,-318 531,-314.17 531,-310.33 531,-310.33 531,-302.67 531,-302.67 531,-298.83 534.83,-295 538.67,-295 538.67,-295 629.33,-295 629.33,-295 633.17,-295 637,-298.83 637,-302.67 637,-302.67 637,-310.33 637,-310.33 637,-314.17 633.17,-318 629.33,-318"/>
<text text-anchor="middle" x="584" y="-302.8" font-family="Arial" font-size="14.00" fill="#000000">has&#45;element.ts</text>
</g>
<!-- src/cell.ts -->
<g id="node9" class="node">
<title>src/cell.ts</title>
<path fill="none" stroke="#000000" d="M374.33,-259C374.33,-259 335.67,-259 335.67,-259 331.83,-259 328,-255.17 328,-251.33 328,-251.33 328,-243.67 328,-243.67 328,-239.83 331.83,-236 335.67,-236 335.67,-236 374.33,-236 374.33,-236 378.17,-236 382,-239.83 382,-243.67 382,-243.67 382,-251.33 382,-251.33 382,-255.17 378.17,-259 374.33,-259"/>
<text text-anchor="middle" x="355" y="-243.8" font-family="Arial" font-size="14.00" fill="#000000">cell.ts</text>
</g>
<!-- src/cell/predicate/has&#45;element.ts&#45;&gt;src/cell.ts -->
<!-- exit_src/cell/predicate -->
<!-- src/cell/predicate/has&#45;element.ts&#45;&gt;exit_src/cell/predicate -->
<!-- src/cell.ts&#45;&gt;src/slot.ts -->
<!-- src/cell.ts&#45;&gt;src/slot.ts -->
<g id="edge35" class="edge">
<title>src/cell.ts&#45;&gt;src/slot.ts</title>
<path fill="none" stroke="black" stroke-dasharray="1,5" d="M366.79,-235.83C378.51,-219.46 391.01,-188.03 375,-169 351.24,-140.74 241.43,-133.22 182.42,-131.22"/>
<polygon fill="black" stroke="black" points="182.48,-127.72 172.38,-130.92 182.26,-134.72 182.48,-127.72"/>
</g>
<!-- src/cell.ts&#45;&gt;src/anchored.ts -->
<!-- src/cell.ts&#45;&gt;src/anchored.ts -->
<g id="edge30" class="edge">
<title>src/cell.ts&#45;&gt;src/anchored.ts</title>
<path fill="none" stroke="black" d="M336.8,-235.91C318.35,-226.91 289.56,-213.91 266.17,-203.95"/>
<polygon fill="black" stroke="black" points="267.42,-200.68 256.84,-200.03 264.7,-207.14 267.42,-200.68"/>
</g>
<!-- src/cell.ts&#45;&gt;name_src/cell -->
<g id="edge31" class="edge">
<title>src/cell.ts&#45;&gt;name_src/cell</title>
<path fill="none" stroke="#00ff00" d="M364.85,-259.18C377,-272.35 398.47,-295.63 418.14,-316.95"/>
<polygon fill="#00ff00" stroke="#00ff00" points="415.65,-319.42 425,-324.39 420.8,-314.67 415.65,-319.42"/>
</g>
<!-- src/cell.ts&#45;&gt;src/scope.ts -->
<!-- src/cell.ts&#45;&gt;src/scope.ts -->
<g id="edge33" class="edge">
<title>src/cell.ts&#45;&gt;src/scope.ts</title>
<path fill="none" stroke="black" stroke-dasharray="1,5" d="M354.39,-235.78C351.44,-228.14 345.89,-217.65 340.13,-208.6"/>
<polygon fill="black" stroke="black" points="342.92,-206.47 334.39,-200.17 337.13,-210.41 342.92,-206.47"/>
</g>
<!-- src/cell.ts&#45;&gt;exit_src -->
<!-- exit_src/cell&#45;&gt;src/cell.ts -->
<g id="edge38" class="edge">
<title>exit_src/cell&#45;&gt;src/cell.ts</title>
<path fill="none" stroke="#ff0000" stroke-dasharray="1,5" d="M425,-214.32C412.1,-220.25 398.72,-226.4 387.16,-231.72"/>
<polygon fill="#ff0000" stroke="#ff0000" points="385.66,-228.56 378.03,-235.91 388.58,-234.92 385.66,-228.56"/>
</g>
<!-- exit_src/cell&#45;&gt;exit_src -->
<!-- exit_src/cell&#45;&gt;exit_src -->
<!-- src/column.ts -->
<g id="node11" class="node">
<title>src/column.ts</title>
<path fill="none" stroke="#000000" d="M242.83,-259C242.83,-259 183.17,-259 183.17,-259 179.33,-259 175.5,-255.17 175.5,-251.33 175.5,-251.33 175.5,-243.67 175.5,-243.67 175.5,-239.83 179.33,-236 183.17,-236 183.17,-236 242.83,-236 242.83,-236 246.67,-236 250.5,-239.83 250.5,-243.67 250.5,-243.67 250.5,-251.33 250.5,-251.33 250.5,-255.17 246.67,-259 242.83,-259"/>
<text text-anchor="middle" x="213" y="-243.8" font-family="Arial" font-size="14.00" fill="#000000">column.ts</text>
</g>
<!-- src/column.ts&#45;&gt;src/slot.ts -->
<!-- src/column.ts&#45;&gt;src/slot.ts -->
<g id="edge42" class="edge">
<title>src/column.ts&#45;&gt;src/slot.ts</title>
<path fill="none" stroke="black" d="M203.54,-235.96C193.15,-227.65 177.81,-214.98 169,-200 160.22,-185.08 156.56,-165.65 153.56,-151.12"/>
<polygon fill="black" stroke="black" points="156.93,-150.13 151.33,-141.13 150.1,-151.66 156.93,-150.13"/>
</g>
<!-- src/column.ts&#45;&gt;src/anchored.ts -->
<!-- src/column.ts&#45;&gt;src/anchored.ts -->
<g id="edge40" class="edge">
<title>src/column.ts&#45;&gt;src/anchored.ts</title>
<path fill="none" stroke="black" d="M221.23,-235.78C224.38,-228.61 227.29,-218.95 229.05,-210.31"/>
<polygon fill="black" stroke="black" points="232.55,-210.59 230.59,-200.17 225.63,-209.53 232.55,-210.59"/>
</g>
<!-- src/column.ts&#45;&gt;exit_src -->
<!-- src/row.ts -->
<g id="node12" class="node">
<title>src/row.ts</title>
<path fill="none" stroke="#000000" d="M110.33,-259C110.33,-259 71.67,-259 71.67,-259 67.83,-259 64,-255.17 64,-251.33 64,-251.33 64,-243.67 64,-243.67 64,-239.83 67.83,-236 71.67,-236 71.67,-236 110.33,-236 110.33,-236 114.17,-236 118,-239.83 118,-243.67 118,-243.67 118,-251.33 118,-251.33 118,-255.17 114.17,-259 110.33,-259"/>
<text text-anchor="middle" x="91" y="-243.8" font-family="Arial" font-size="14.00" fill="#000000">row.ts</text>
</g>
<!-- src/row.ts&#45;&gt;src/slot.ts -->
<!-- src/row.ts&#45;&gt;src/slot.ts -->
<g id="edge66" class="edge">
<title>src/row.ts&#45;&gt;src/slot.ts</title>
<path fill="none" stroke="black" d="M100.07,-235.92C107.86,-220.7 117.42,-191.96 129,-169 132.17,-162.71 136.13,-156.17 139.59,-150.31"/>
<polygon fill="black" stroke="black" points="142.84,-151.67 144.71,-141.24 136.75,-148.23 142.84,-151.67"/>
</g>
<!-- src/row.ts&#45;&gt;src/anchored.ts -->
<!-- src/row.ts&#45;&gt;src/anchored.ts -->
<g id="edge64" class="edge">
<title>src/row.ts&#45;&gt;src/anchored.ts</title>
<path fill="none" stroke="black" d="M118.13,-237.34C141.36,-228.44 174.53,-214.76 198.42,-204.3"/>
<polygon fill="black" stroke="black" points="199.99,-207.44 207.71,-200.19 197.15,-201.04 199.99,-207.44"/>
</g>
<!-- src/row.ts&#45;&gt;exit_src -->
<!-- src/group.ts -->
<g id="node13" class="node">
<title>src/group.ts</title>
<path fill="none" stroke="#000000" d="M141.83,-318C141.83,-318 92.17,-318 92.17,-318 88.33,-318 84.5,-314.17 84.5,-310.33 84.5,-310.33 84.5,-302.67 84.5,-302.67 84.5,-298.83 88.33,-295 92.17,-295 92.17,-295 141.83,-295 141.83,-295 145.67,-295 149.5,-298.83 149.5,-302.67 149.5,-302.67 149.5,-310.33 149.5,-310.33 149.5,-314.17 145.67,-318 141.83,-318"/>
<text text-anchor="middle" x="117" y="-302.8" font-family="Arial" font-size="14.00" fill="#000000">group.ts</text>
</g>
<!-- src/group.ts&#45;&gt;src/column.ts -->
<!-- src/group.ts&#45;&gt;src/column.ts -->
<g id="edge44" class="edge">
<title>src/group.ts&#45;&gt;src/column.ts</title>
<path fill="none" stroke="black" d="M140.47,-294.78C156.16,-286.34 176.46,-274.44 191.69,-264.82"/>
<polygon fill="black" stroke="black" points="193.93,-267.54 200.43,-259.17 190.13,-261.66 193.93,-267.54"/>
</g>
<!-- src/group.ts&#45;&gt;src/row.ts -->
<!-- src/group.ts&#45;&gt;src/row.ts -->
<g id="edge46" class="edge">
<title>src/group.ts&#45;&gt;src/row.ts</title>
<path fill="none" stroke="black" d="M117.52,-294.78C115.4,-287.22 111.02,-276.87 106.27,-267.88"/>
<polygon fill="black" stroke="black" points="109.29,-266.1 101.27,-259.17 103.22,-269.59 109.29,-266.1"/>
</g>
<!-- src/group.ts&#45;&gt;exit_src -->
<!-- src/table.ts -->
<g id="node14" class="node">
<title>src/table.ts</title>
<path fill="none" stroke="#000000" d="M242.33,-377C242.33,-377 197.67,-377 197.67,-377 193.83,-377 190,-373.17 190,-369.33 190,-369.33 190,-361.67 190,-361.67 190,-357.83 193.83,-354 197.67,-354 197.67,-354 242.33,-354 242.33,-354 246.17,-354 250,-357.83 250,-361.67 250,-361.67 250,-369.33 250,-369.33 250,-373.17 246.17,-377 242.33,-377"/>
<text text-anchor="middle" x="220" y="-361.8" font-family="Arial" font-size="14.00" fill="#000000">table.ts</text>
</g>
<!-- src/table.ts&#45;&gt;src/slot.ts -->
<!-- src/table.ts&#45;&gt;src/slot.ts -->
<g id="edge78" class="edge">
<title>src/table.ts&#45;&gt;src/slot.ts</title>
<path fill="none" stroke="black" d="M223.19,-353.73C221.91,-339.7 213.76,-314.66 203,-295 193.4,-277.46 185.72,-276.48 176,-259 162.32,-234.4 158.2,-227.66 153,-200 149.97,-183.9 150.44,-165.34 150.2,-151.45"/>
<polygon fill="black" stroke="black" points="153.7,-151.29 149.78,-141.45 146.7,-151.59 153.7,-151.29"/>
</g>
<!-- src/table.ts&#45;&gt;src/scope.ts -->
<!-- src/table.ts&#45;&gt;src/scope.ts -->
<g id="edge76" class="edge">
<title>src/table.ts&#45;&gt;src/scope.ts</title>
<path fill="none" stroke="black" d="M229.74,-353.82C250.61,-325.19 297.31,-246.43 315.8,-209.33"/>
<polygon fill="black" stroke="black" points="319.08,-210.58 320.22,-200.04 312.76,-207.57 319.08,-210.58"/>
</g>
<!-- src/table.ts&#45;&gt;src/cell.ts -->
<!-- src/table.ts&#45;&gt;src/cell.ts -->
<g id="edge68" class="edge">
<title>src/table.ts&#45;&gt;src/cell.ts</title>
<path fill="none" stroke="black" d="M236.57,-353.79C262.95,-333.85 313.32,-290.84 339.2,-266.41"/>
<polygon fill="black" stroke="black" points="341.92,-268.64 346.68,-259.18 337.06,-263.61 341.92,-268.64"/>
</g>
<!-- src/table.ts&#45;&gt;src/column.ts -->
<!-- src/table.ts&#45;&gt;src/column.ts -->
<g id="edge70" class="edge">
<title>src/table.ts&#45;&gt;src/column.ts</title>
<path fill="none" stroke="black" d="M223.47,-353.79C225.36,-334.63 223.32,-294.15 219.58,-269.34"/>
<polygon fill="black" stroke="black" points="222.97,-268.4 217.75,-259.18 216.08,-269.64 222.97,-268.4"/>
</g>
<!-- src/table.ts&#45;&gt;src/row.ts -->
<!-- src/table.ts&#45;&gt;src/row.ts -->
<g id="edge74" class="edge">
<title>src/table.ts&#45;&gt;src/row.ts</title>
<path fill="none" stroke="black" d="M217.23,-353.91C211.38,-346.28 201.4,-335.67 193,-326 181.39,-312.64 181,-307.01 168,-295 155.42,-283.38 139.73,-272.45 125.67,-264.11"/>
<polygon fill="black" stroke="black" points="127.14,-260.92 116.71,-259.03 123.68,-267.01 127.14,-260.92"/>
</g>
<!-- src/table.ts&#45;&gt;src/group.ts -->
<!-- src/table.ts&#45;&gt;src/group.ts -->
<g id="edge72" class="edge">
<title>src/table.ts&#45;&gt;src/group.ts</title>
<path fill="none" stroke="black" stroke-dasharray="1,5" d="M206.04,-353.78C191.75,-345.02 169.4,-332.53 150.59,-322.74"/>
<polygon fill="black" stroke="black" points="152.18,-319.62 141.69,-318.17 148.99,-325.85 152.18,-319.62"/>
</g>
<!-- src/table.ts&#45;&gt;exit_src -->
<!-- name_src -->
<g id="node15" class="node">
<title>name_src</title>
<path fill="none" stroke="#00ff00" stroke-width="5" d="M511.33,-436C511.33,-436 472.67,-436 472.67,-436 468.83,-436 465,-432.17 465,-428.33 465,-428.33 465,-420.67 465,-420.67 465,-416.83 468.83,-413 472.67,-413 472.67,-413 511.33,-413 511.33,-413 515.17,-413 519,-416.83 519,-420.67 519,-420.67 519,-428.33 519,-428.33 519,-432.17 515.17,-436 511.33,-436"/>
<text text-anchor="middle" x="492" y="-420.8" font-family="Arial" font-size="14.00" fill="#000000">src</text>
</g>
<!-- exit_src&#45;&gt;dependency&#45;graph&#45;[object Object] -->
<!-- exit_src&#45;&gt;exit_src -->
<!-- exit_src&#45;&gt;exit_src -->
<!-- exit_src&#45;&gt;exit_src -->
<!-- exit_src&#45;&gt;exit_src -->
<!-- exit_src&#45;&gt;exit_src -->
<!-- exit_src&#45;&gt;exit_src -->
<!-- exit_src&#45;&gt;exit_src -->
<!-- exit_src&#45;&gt;exit_src -->
<!-- exit_src&#45;&gt;exit_src -->
<!-- exit_src&#45;&gt;exit_src -->
<!-- exit_src&#45;&gt;exit_src -->
<!-- src/index.ts -->
<g id="node17" class="node">
<title>src/index.ts</title>
<path fill="none" stroke="#00ff00" stroke-width="5" d="M292.83,-436C292.83,-436 245.17,-436 245.17,-436 241.33,-436 237.5,-432.17 237.5,-428.33 237.5,-428.33 237.5,-420.67 237.5,-420.67 237.5,-416.83 241.33,-413 245.17,-413 245.17,-413 292.83,-413 292.83,-413 296.67,-413 300.5,-416.83 300.5,-420.67 300.5,-420.67 300.5,-428.33 300.5,-428.33 300.5,-432.17 296.67,-436 292.83,-436"/>
<text text-anchor="middle" x="269" y="-420.8" font-family="Arial" font-size="14.00" fill="#000000">index.ts</text>
</g>
<!-- src/index.ts&#45;&gt;src/slot.ts -->
<!-- src/index.ts&#45;&gt;src/slot.ts -->
<g id="edge60" class="edge">
<title>src/index.ts&#45;&gt;src/slot.ts</title>
<path fill="none" stroke="black" d="M237.33,-419.36C194.57,-413.71 121.82,-402.26 101,-385 79.07,-366.83 84.12,-353.3 76,-326 63.49,-283.94 49.31,-269.35 64,-228 76.08,-194 107.07,-165.11 127.24,-147.8"/>
<polygon fill="black" stroke="black" points="129.77,-150.24 135.14,-141.11 125.25,-144.9 129.77,-150.24"/>
</g>
<!-- src/index.ts&#45;&gt;src/anchored.ts -->
<!-- src/index.ts&#45;&gt;src/anchored.ts -->
<g id="edge48" class="edge">
<title>src/index.ts&#45;&gt;src/anchored.ts</title>
<path fill="none" stroke="black" d="M274.93,-412.83C284.54,-382.57 294.98,-294.09 269,-228 266,-220.38 260.88,-213.15 255.15,-207.06"/>
<polygon fill="black" stroke="black" points="257.36,-204.33 247.68,-200.01 252.55,-209.42 257.36,-204.33"/>
</g>
<!-- src/index.ts&#45;&gt;src/scope.ts -->
<!-- src/index.ts&#45;&gt;src/scope.ts -->
<g id="edge58" class="edge">
<title>src/index.ts&#45;&gt;src/scope.ts</title>
<path fill="none" stroke="black" d="M279.79,-412.76C283.55,-405.07 286.62,-394.44 289,-385 304.97,-321.76 320.64,-246.17 324.31,-210.32"/>
<polygon fill="black" stroke="black" points="327.82,-210.38 325.07,-200.15 320.84,-209.86 327.82,-210.38"/>
</g>
<!-- src/index.ts&#45;&gt;src/cell.ts -->
<!-- src/index.ts&#45;&gt;src/cell.ts -->
<g id="edge50" class="edge">
<title>src/index.ts&#45;&gt;src/cell.ts</title>
<path fill="none" stroke="black" d="M293.49,-412.84C304.21,-405.95 315.7,-396.2 323,-385 346.74,-348.56 357.21,-297.8 358.53,-269.57"/>
<polygon fill="black" stroke="black" points="362.03,-269.3 358.56,-259.29 355.03,-269.27 362.03,-269.3"/>
</g>
<!-- src/index.ts&#45;&gt;src/column.ts -->
<!-- src/index.ts&#45;&gt;src/column.ts -->
<g id="edge52" class="edge">
<title>src/index.ts&#45;&gt;src/column.ts</title>
<path fill="none" stroke="black" d="M274.54,-412.96C276.34,-399.18 273.8,-374.4 268,-354 259.09,-322.67 242.87,-288.45 229.94,-267.74"/>
<polygon fill="black" stroke="black" points="232.73,-265.61 224.27,-259.23 226.91,-269.49 232.73,-265.61"/>
</g>
<!-- src/index.ts&#45;&gt;src/row.ts -->
<!-- src/index.ts&#45;&gt;src/row.ts -->
<g id="edge56" class="edge">
<title>src/index.ts&#45;&gt;src/row.ts</title>
<path fill="none" stroke="black" d="M237.25,-418.24C192.13,-409.19 112.41,-385.5 85,-326 76.61,-307.8 82.71,-285.1 87.79,-268.98"/>
<polygon fill="black" stroke="black" points="91.27,-269.6 90.96,-259.01 84.6,-267.48 91.27,-269.6"/>
</g>
<!-- src/index.ts&#45;&gt;src/group.ts -->
<!-- src/index.ts&#45;&gt;src/group.ts -->
<g id="edge54" class="edge">
<title>src/index.ts&#45;&gt;src/group.ts</title>
<path fill="none" stroke="black" d="M243.28,-412.97C226.99,-406.57 206.24,-397.25 190,-385 168.29,-368.62 149.3,-343.46 135.73,-326.29"/>
<polygon fill="black" stroke="black" points="138.14,-323.7 129.14,-318.12 132.69,-328.1 138.14,-323.7"/>
</g>
<!-- src/index.ts&#45;&gt;src/table.ts -->
<!-- src/index.ts&#45;&gt;src/table.ts -->
<g id="edge62" class="edge">
<title>src/index.ts&#45;&gt;src/table.ts</title>
<path fill="none" stroke="black" d="M265.19,-412.78C259.75,-404.82 250.56,-393.77 241.77,-384.47"/>
<polygon fill="black" stroke="black" points="244.09,-381.84 234.58,-377.17 239.11,-386.75 244.09,-381.84"/>
</g>
<!-- src/index.ts&#45;&gt;exit_src -->
<!-- exit_src/cell/predicate&#45;&gt;exit_src/cell -->
</g>
</svg>
