<?xml version="1.0" encoding="UTF-8" standalone="no"?>
<!DOCTYPE svg PUBLIC "-//W3C//DTD SVG 1.1//EN"
 "http://www.w3.org/Graphics/SVG/1.1/DTD/svg11.dtd">
<!-- Generated by graphviz version 2.43.0 (0)
 -->
<!-- Title: dependency&#45;graph&#45;@siteimprove/alfa&#45;table Pages: 1 -->
<svg width="725pt" height="468pt"
 viewBox="0.00 0.00 725.20 468.20" xmlns="http://www.w3.org/2000/svg" xmlns:xlink="http://www.w3.org/1999/xlink">
<g id="graph0" class="graph" transform="scale(1 1) rotate(0) translate(21.6 446.6)">
<title>dependency&#45;graph&#45;@siteimprove/alfa&#45;table</title>
<polygon fill="#ffffff" stroke="transparent" points="-21.6,21.6 -21.6,-446.6 703.6,-446.6 703.6,21.6 -21.6,21.6"/>
<g id="clust1" class="cluster">
<title>cluster_src</title>
<polygon fill="#ffffff" stroke="#000000" points="8,-8 8,-417 674,-417 674,-8 8,-8"/>
</g>
<g id="clust2" class="cluster">
<title>cluster_src</title>
<polygon fill="#ffffff" stroke="#000000" points="16,-16 16,-409 666,-409 666,-16 16,-16"/>
</g>
<g id="clust3" class="cluster">
<title>cluster_src/cell</title>
<polygon fill="#ffffff" stroke="#000000" points="406,-134 406,-350 646,-350 646,-134 406,-134"/>
</g>
<g id="clust4" class="cluster">
<title>cluster_src/cell/predicate</title>
<polygon fill="#ffffff" stroke="#000000" points="414,-193 414,-291 626,-291 626,-193 414,-193"/>
</g>
<!-- src/column.ts -->
<g id="node1" class="node">
<title>src/column.ts</title>
<path fill="none" stroke="#000000" d="M211.83,-224C211.83,-224 152.17,-224 152.17,-224 148.33,-224 144.5,-220.17 144.5,-216.33 144.5,-216.33 144.5,-208.67 144.5,-208.67 144.5,-204.83 148.33,-201 152.17,-201 152.17,-201 211.83,-201 211.83,-201 215.67,-201 219.5,-204.83 219.5,-208.67 219.5,-208.67 219.5,-216.33 219.5,-216.33 219.5,-220.17 215.67,-224 211.83,-224"/>
<text text-anchor="middle" x="182" y="-208.8" font-family="Arial" font-size="14.00" fill="#000000">column.ts</text>
</g>
<!-- src/slot.ts -->
<g id="node3" class="node">
<title>src/slot.ts</title>
<path fill="none" stroke="#000000" d="M164.33,-106C164.33,-106 125.67,-106 125.67,-106 121.83,-106 118,-102.17 118,-98.33 118,-98.33 118,-90.67 118,-90.67 118,-86.83 121.83,-83 125.67,-83 125.67,-83 164.33,-83 164.33,-83 168.17,-83 172,-86.83 172,-90.67 172,-90.67 172,-98.33 172,-98.33 172,-102.17 168.17,-106 164.33,-106"/>
<text text-anchor="middle" x="145" y="-90.8" font-family="Arial" font-size="14.00" fill="#000000">slot.ts</text>
</g>
<!-- src/column.ts&#45;&gt;src/slot.ts -->
<!-- src/column.ts&#45;&gt;src/slot.ts -->
<g id="edge35" class="edge">
<title>src/column.ts&#45;&gt;src/slot.ts</title>
<path fill="none" stroke="black" d="M175.55,-200.98C167.21,-192.51 154.63,-179.62 149,-165 143.04,-149.5 144.91,-130.63 146.54,-116.47"/>
<polygon fill="black" stroke="black" points="150.04,-116.6 147.64,-106.28 143.08,-115.84 150.04,-116.6"/>
</g>
<!-- src/anchored.ts -->
<g id="node4" class="node">
<title>src/anchored.ts</title>
<path fill="none" stroke="#000000" d="M243.83,-165C243.83,-165 172.17,-165 172.17,-165 168.33,-165 164.5,-161.17 164.5,-157.33 164.5,-157.33 164.5,-149.67 164.5,-149.67 164.5,-145.83 168.33,-142 172.17,-142 172.17,-142 243.83,-142 243.83,-142 247.67,-142 251.5,-145.83 251.5,-149.67 251.5,-149.67 251.5,-157.33 251.5,-157.33 251.5,-161.17 247.67,-165 243.83,-165"/>
<text text-anchor="middle" x="208" y="-149.8" font-family="Arial" font-size="14.00" fill="#000000">anchored.ts</text>
</g>
<!-- src/column.ts&#45;&gt;src/anchored.ts -->
<!-- src/column.ts&#45;&gt;src/anchored.ts -->
<g id="edge33" class="edge">
<title>src/column.ts&#45;&gt;src/anchored.ts</title>
<path fill="none" stroke="black" d="M192.3,-200.78C196.93,-193.45 201.82,-183.52 205.26,-174.74"/>
<polygon fill="black" stroke="black" points="208.61,-175.77 208.53,-165.17 201.98,-173.5 208.61,-175.77"/>
</g>
<!-- exit_src -->
<!-- src/column.ts&#45;&gt;exit_src -->
<!-- src/row.ts -->
<g id="node2" class="node">
<title>src/row.ts</title>
<path fill="none" stroke="#000000" d="M118.33,-224C118.33,-224 79.67,-224 79.67,-224 75.83,-224 72,-220.17 72,-216.33 72,-216.33 72,-208.67 72,-208.67 72,-204.83 75.83,-201 79.67,-201 79.67,-201 118.33,-201 118.33,-201 122.17,-201 126,-204.83 126,-208.67 126,-208.67 126,-216.33 126,-216.33 126,-220.17 122.17,-224 118.33,-224"/>
<text text-anchor="middle" x="99" y="-208.8" font-family="Arial" font-size="14.00" fill="#000000">row.ts</text>
</g>
<!-- src/row.ts&#45;&gt;src/slot.ts -->
<!-- src/row.ts&#45;&gt;src/slot.ts -->
<g id="edge39" class="edge">
<title>src/row.ts&#45;&gt;src/slot.ts</title>
<path fill="none" stroke="black" d="M107.36,-200.79C118.06,-181.55 134.61,-140.79 142.16,-116.01"/>
<polygon fill="black" stroke="black" points="145.59,-116.75 144.87,-106.18 138.84,-114.89 145.59,-116.75"/>
</g>
<!-- src/row.ts&#45;&gt;src/anchored.ts -->
<!-- src/row.ts&#45;&gt;src/anchored.ts -->
<g id="edge37" class="edge">
<title>src/row.ts&#45;&gt;src/anchored.ts</title>
<path fill="none" stroke="black" d="M124.63,-200.91C142.69,-192.27 166.51,-179.94 184.15,-170.16"/>
<polygon fill="black" stroke="black" points="186.25,-172.99 193.24,-165.03 182.81,-166.9 186.25,-172.99"/>
</g>
<!-- src/row.ts&#45;&gt;exit_src -->
<!-- src/slot.ts&#45;&gt;exit_src -->
<!-- src/anchored.ts&#45;&gt;src/slot.ts -->
<!-- src/anchored.ts&#45;&gt;src/slot.ts -->
<g id="edge31" class="edge">
<title>src/anchored.ts&#45;&gt;src/slot.ts</title>
<path fill="none" stroke="black" stroke-dasharray="1,5" d="M201.56,-141.78C193.94,-133.58 181.54,-122.11 170.19,-112.64"/>
<polygon fill="black" stroke="black" points="172.18,-109.74 162.2,-106.17 167.77,-115.18 172.18,-109.74"/>
</g>
<!-- src/anchored.ts&#45;&gt;exit_src -->
<!-- src/cell/predicate/has&#45;element.ts -->
<g id="node5" class="node">
<title>src/cell/predicate/has&#45;element.ts</title>
<path fill="none" stroke="#000000" d="M610.33,-283C610.33,-283 519.67,-283 519.67,-283 515.83,-283 512,-279.17 512,-275.33 512,-275.33 512,-267.67 512,-267.67 512,-263.83 515.83,-260 519.67,-260 519.67,-260 610.33,-260 610.33,-260 614.17,-260 618,-263.83 618,-267.67 618,-267.67 618,-275.33 618,-275.33 618,-279.17 614.17,-283 610.33,-283"/>
<text text-anchor="middle" x="565" y="-267.8" font-family="Arial" font-size="14.00" fill="#000000">has&#45;element.ts</text>
</g>
<!-- src/cell.ts -->
<g id="node7" class="node">
<title>src/cell.ts</title>
<path fill="none" stroke="#000000" d="M363.33,-224C363.33,-224 324.67,-224 324.67,-224 320.83,-224 317,-220.17 317,-216.33 317,-216.33 317,-208.67 317,-208.67 317,-204.83 320.83,-201 324.67,-201 324.67,-201 363.33,-201 363.33,-201 367.17,-201 371,-204.83 371,-208.67 371,-208.67 371,-216.33 371,-216.33 371,-220.17 367.17,-224 363.33,-224"/>
<text text-anchor="middle" x="344" y="-208.8" font-family="Arial" font-size="14.00" fill="#000000">cell.ts</text>
</g>
<!-- src/cell/predicate/has&#45;element.ts&#45;&gt;src/cell.ts -->
<!-- exit_src/cell/predicate -->
<!-- src/cell/predicate/has&#45;element.ts&#45;&gt;exit_src/cell/predicate -->
<!-- name_src/cell/predicate -->
<g id="node6" class="node">
<title>name_src/cell/predicate</title>
<path fill="none" stroke="#0000ff" stroke-width="5" d="M486.33,-283C486.33,-283 429.67,-283 429.67,-283 425.83,-283 422,-279.17 422,-275.33 422,-275.33 422,-267.67 422,-267.67 422,-263.83 425.83,-260 429.67,-260 429.67,-260 486.33,-260 486.33,-260 490.17,-260 494,-263.83 494,-267.67 494,-267.67 494,-275.33 494,-275.33 494,-279.17 490.17,-283 486.33,-283"/>
<text text-anchor="middle" x="458" y="-267.8" font-family="Arial" font-size="14.00" fill="#000000">predicate</text>
</g>
<!-- src/cell.ts&#45;&gt;src/slot.ts -->
<!-- src/cell.ts&#45;&gt;src/slot.ts -->
<g id="edge75" class="edge">
<title>src/cell.ts&#45;&gt;src/slot.ts</title>
<path fill="none" stroke="black" stroke-dasharray="1,5" d="M341.06,-200.95C330.42,-184.45 301.19,-152.52 270,-134 242.94,-117.93 208.3,-107.56 182.19,-101.68"/>
<polygon fill="black" stroke="black" points="182.8,-98.23 172.29,-99.57 181.34,-105.07 182.8,-98.23"/>
</g>
<!-- src/cell.ts&#45;&gt;src/anchored.ts -->
<!-- src/cell.ts&#45;&gt;src/anchored.ts -->
<g id="edge70" class="edge">
<title>src/cell.ts&#45;&gt;src/anchored.ts</title>
<path fill="none" stroke="black" d="M324.13,-200.91C304.17,-191.87 273.14,-178.79 248.11,-168.82"/>
<polygon fill="black" stroke="black" points="249.09,-165.44 238.5,-165.03 246.52,-171.96 249.09,-165.44"/>
</g>
<!-- src/scope.ts -->
<g id="node9" class="node">
<title>src/scope.ts</title>
<path fill="none" stroke="#000000" d="M369.83,-165C369.83,-165 318.17,-165 318.17,-165 314.33,-165 310.5,-161.17 310.5,-157.33 310.5,-157.33 310.5,-149.67 310.5,-149.67 310.5,-145.83 314.33,-142 318.17,-142 318.17,-142 369.83,-142 369.83,-142 373.67,-142 377.5,-145.83 377.5,-149.67 377.5,-149.67 377.5,-157.33 377.5,-157.33 377.5,-161.17 373.67,-165 369.83,-165"/>
<text text-anchor="middle" x="344" y="-149.8" font-family="Arial" font-size="14.00" fill="#000000">scope.ts</text>
</g>
<!-- src/cell.ts&#45;&gt;src/scope.ts -->
<!-- src/cell.ts&#45;&gt;src/scope.ts -->
<g id="edge73" class="edge">
<title>src/cell.ts&#45;&gt;src/scope.ts</title>
<path fill="none" stroke="black" stroke-dasharray="1,5" d="M349.41,-200.78C350.67,-193.61 351.04,-183.95 350.53,-175.31"/>
<polygon fill="black" stroke="black" points="353.98,-174.73 349.4,-165.17 347.03,-175.5 353.98,-174.73"/>
</g>
<!-- name_src/cell -->
<g id="node12" class="node">
<title>name_src/cell</title>
<path fill="none" stroke="#ff0000" stroke-width="5" d="M460.33,-342C460.33,-342 421.67,-342 421.67,-342 417.83,-342 414,-338.17 414,-334.33 414,-334.33 414,-326.67 414,-326.67 414,-322.83 417.83,-319 421.67,-319 421.67,-319 460.33,-319 460.33,-319 464.17,-319 468,-322.83 468,-326.67 468,-326.67 468,-334.33 468,-334.33 468,-338.17 464.17,-342 460.33,-342"/>
<text text-anchor="middle" x="441" y="-326.8" font-family="Arial" font-size="14.00" fill="#000000">cell</text>
</g>
<!-- src/cell.ts&#45;&gt;name_src/cell -->
<g id="edge71" class="edge">
<title>src/cell.ts&#45;&gt;name_src/cell</title>
<path fill="none" stroke="#00ff00" d="M352.93,-224.18C363.58,-236.91 382.11,-259.08 399.44,-279.8"/>
<polygon fill="#00ff00" stroke="#00ff00" points="396.9,-282.22 406,-287.65 402.27,-277.73 396.9,-282.22"/>
</g>
<!-- src/cell.ts&#45;&gt;exit_src -->
<!-- src/group.ts -->
<g id="node8" class="node">
<title>src/group.ts</title>
<path fill="none" stroke="#000000" d="M138.83,-283C138.83,-283 89.17,-283 89.17,-283 85.33,-283 81.5,-279.17 81.5,-275.33 81.5,-275.33 81.5,-267.67 81.5,-267.67 81.5,-263.83 85.33,-260 89.17,-260 89.17,-260 138.83,-260 138.83,-260 142.67,-260 146.5,-263.83 146.5,-267.67 146.5,-267.67 146.5,-275.33 146.5,-275.33 146.5,-279.17 142.67,-283 138.83,-283"/>
<text text-anchor="middle" x="114" y="-267.8" font-family="Arial" font-size="14.00" fill="#000000">group.ts</text>
</g>
<!-- src/group.ts&#45;&gt;src/column.ts -->
<!-- src/group.ts&#45;&gt;src/column.ts -->
<g id="edge27" class="edge">
<title>src/group.ts&#45;&gt;src/column.ts</title>
<path fill="none" stroke="black" d="M132.2,-259.78C143.21,-251.74 156.84,-240.55 167.19,-231.19"/>
<polygon fill="black" stroke="black" points="169.77,-233.57 174.67,-224.17 164.98,-228.47 169.77,-233.57"/>
</g>
<!-- src/group.ts&#45;&gt;src/row.ts -->
<!-- src/group.ts&#45;&gt;src/row.ts -->
<g id="edge29" class="edge">
<title>src/group.ts&#45;&gt;src/row.ts</title>
<path fill="none" stroke="black" d="M116.59,-259.78C115.95,-252.45 113.69,-242.52 110.82,-233.74"/>
<polygon fill="black" stroke="black" points="114.01,-232.3 107.21,-224.17 107.46,-234.77 114.01,-232.3"/>
</g>
<!-- src/group.ts&#45;&gt;exit_src -->
<!-- src/scope.ts&#45;&gt;exit_src -->
<!-- src/table.ts -->
<g id="node10" class="node">
<title>src/table.ts</title>
<path fill="none" stroke="#000000" d="M254.33,-342C254.33,-342 209.67,-342 209.67,-342 205.83,-342 202,-338.17 202,-334.33 202,-334.33 202,-326.67 202,-326.67 202,-322.83 205.83,-319 209.67,-319 209.67,-319 254.33,-319 254.33,-319 258.17,-319 262,-322.83 262,-326.67 262,-326.67 262,-334.33 262,-334.33 262,-338.17 258.17,-342 254.33,-342"/>
<text text-anchor="middle" x="232" y="-326.8" font-family="Arial" font-size="14.00" fill="#000000">table.ts</text>
</g>
<!-- src/table.ts&#45;&gt;src/column.ts -->
<!-- src/table.ts&#45;&gt;src/column.ts -->
<g id="edge60" class="edge">
<title>src/table.ts&#45;&gt;src/column.ts</title>
<path fill="none" stroke="black" d="M231.5,-318.79C226.19,-299.29 208.63,-257.69 195.61,-233.02"/>
<polygon fill="black" stroke="black" points="198.62,-231.23 190.71,-224.18 192.5,-234.62 198.62,-231.23"/>
</g>
<!-- src/table.ts&#45;&gt;src/row.ts -->
<!-- src/table.ts&#45;&gt;src/row.ts -->
<g id="edge64" class="edge">
<title>src/table.ts&#45;&gt;src/row.ts</title>
<path fill="none" stroke="black" d="M227.02,-318.94C215.19,-305.14 188.54,-280.34 165,-260 153.18,-249.79 139.64,-238.72 127.75,-229.94"/>
<polygon fill="black" stroke="black" points="129.59,-226.96 119.42,-224 125.53,-232.66 129.59,-226.96"/>
</g>
<!-- src/table.ts&#45;&gt;src/slot.ts -->
<!-- src/table.ts&#45;&gt;src/slot.ts -->
<g id="edge68" class="edge">
<title>src/table.ts&#45;&gt;src/slot.ts</title>
<path fill="none" stroke="black" d="M240.08,-318.7C251.63,-293.89 265.42,-231.96 238,-193 218,-164.58 186.87,-192 165,-165 154.09,-151.53 151.9,-131.65 150.57,-116.6"/>
<polygon fill="black" stroke="black" points="154.02,-115.85 149.6,-106.22 147.05,-116.5 154.02,-115.85"/>
</g>
<!-- src/table.ts&#45;&gt;src/cell.ts -->
<!-- src/table.ts&#45;&gt;src/cell.ts -->
<g id="edge58" class="edge">
<title>src/table.ts&#45;&gt;src/cell.ts</title>
<path fill="none" stroke="black" d="M262.26,-321.27C278.82,-314.87 298.39,-304.75 312,-291 327.99,-274.85 339.27,-251.18 344.12,-234.25"/>
<polygon fill="black" stroke="black" points="347.59,-234.77 346.35,-224.25 340.75,-233.24 347.59,-234.77"/>
</g>
<!-- src/table.ts&#45;&gt;src/group.ts -->
<!-- src/table.ts&#45;&gt;src/group.ts -->
<g id="edge62" class="edge">
<title>src/table.ts&#45;&gt;src/group.ts</title>
<path fill="none" stroke="black" stroke-dasharray="1,5" d="M215.47,-318.91C198.59,-309.99 172.18,-297.14 150.47,-287.22"/>
<polygon fill="black" stroke="black" points="151.73,-283.95 141.18,-283.03 148.86,-290.33 151.73,-283.95"/>
</g>
<!-- src/table.ts&#45;&gt;src/scope.ts -->
<!-- src/table.ts&#45;&gt;src/scope.ts -->
<g id="edge66" class="edge">
<title>src/table.ts&#45;&gt;src/scope.ts</title>
<path fill="none" stroke="black" d="M249.31,-318.92C257.25,-311.47 265.77,-301.07 272,-291 297.22,-250.25 290.29,-232.79 317,-193 321.77,-185.9 327.86,-178.85 333.22,-172.76"/>
<polygon fill="black" stroke="black" points="335.95,-174.96 339.91,-165.14 330.68,-170.35 335.95,-174.96"/>
</g>
<!-- src/table.ts&#45;&gt;exit_src -->
<!-- src/cell/predicate.ts -->
<g id="node11" class="node">
<title>src/cell/predicate.ts</title>
<path fill="none" stroke="#000000" d="M597.33,-342C597.33,-342 526.67,-342 526.67,-342 522.83,-342 519,-338.17 519,-334.33 519,-334.33 519,-326.67 519,-326.67 519,-322.83 522.83,-319 526.67,-319 526.67,-319 597.33,-319 597.33,-319 601.17,-319 605,-322.83 605,-326.67 605,-326.67 605,-334.33 605,-334.33 605,-338.17 601.17,-342 597.33,-342"/>
<text text-anchor="middle" x="562" y="-326.8" font-family="Arial" font-size="14.00" fill="#000000">predicate.ts</text>
</g>
<!-- src/cell/predicate.ts&#45;&gt;name_src/cell/predicate -->
<g id="edge40" class="edge">
<title>src/cell/predicate.ts&#45;&gt;name_src/cell/predicate</title>
<path fill="none" stroke="#ff0000" d="M542.44,-318.78C530.64,-312.31 515.12,-303.81 500.61,-295.86"/>
<polygon fill="#ff0000" stroke="#ff0000" points="502.2,-292.74 491.75,-291 498.84,-298.87 502.2,-292.74"/>
</g>
<!-- exit_src/cell -->
<!-- src/cell/predicate.ts&#45;&gt;exit_src/cell -->
<!-- exit_src/cell&#45;&gt;src/cell.ts -->
<g id="edge77" class="edge">
<title>exit_src/cell&#45;&gt;src/cell.ts</title>
<path fill="none" stroke="#ff0000" stroke-dasharray="1,5" d="M406,-181.03C395.23,-186.33 384.28,-191.71 374.63,-196.45"/>
<polygon fill="#ff0000" stroke="#ff0000" points="372.98,-193.36 365.55,-200.91 376.07,-199.64 372.98,-193.36"/>
</g>
<!-- exit_src/cell&#45;&gt;exit_src -->
<!-- exit_src/cell&#45;&gt;exit_src -->
<!-- exit_src&#45;&gt;exit_src -->
<!-- exit_src&#45;&gt;exit_src -->
<!-- exit_src&#45;&gt;exit_src -->
<!-- exit_src&#45;&gt;exit_src -->
<!-- exit_src&#45;&gt;exit_src -->
<!-- exit_src&#45;&gt;exit_src -->
<!-- exit_src&#45;&gt;exit_src -->
<!-- exit_src&#45;&gt;exit_src -->
<!-- exit_src&#45;&gt;exit_src -->
<!-- exit_src&#45;&gt;exit_src -->
<!-- exit_src&#45;&gt;exit_src -->
<!-- name_src -->
<g id="node15" class="node">
<title>name_src</title>
<path fill="none" stroke="#00ff00" stroke-width="5" d="M490.33,-401C490.33,-401 451.67,-401 451.67,-401 447.83,-401 444,-397.17 444,-393.33 444,-393.33 444,-385.67 444,-385.67 444,-381.83 447.83,-378 451.67,-378 451.67,-378 490.33,-378 490.33,-378 494.17,-378 498,-381.83 498,-385.67 498,-385.67 498,-393.33 498,-393.33 498,-397.17 494.17,-401 490.33,-401"/>
<text text-anchor="middle" x="471" y="-385.8" font-family="Arial" font-size="14.00" fill="#000000">src</text>
</g>
<!-- src/index.ts -->
<g id="node16" class="node">
<title>src/index.ts</title>
<path fill="none" stroke="#00ff00" stroke-width="5" d="M255.83,-401C255.83,-401 208.17,-401 208.17,-401 204.33,-401 200.5,-397.17 200.5,-393.33 200.5,-393.33 200.5,-385.67 200.5,-385.67 200.5,-381.83 204.33,-378 208.17,-378 208.17,-378 255.83,-378 255.83,-378 259.67,-378 263.5,-381.83 263.5,-385.67 263.5,-385.67 263.5,-393.33 263.5,-393.33 263.5,-397.17 259.67,-401 255.83,-401"/>
<text text-anchor="middle" x="232" y="-385.8" font-family="Arial" font-size="14.00" fill="#000000">index.ts</text>
</g>
<!-- src/index.ts&#45;&gt;src/column.ts -->
<!-- src/index.ts&#45;&gt;src/column.ts -->
<g id="edge46" class="edge">
<title>src/index.ts&#45;&gt;src/column.ts</title>
<path fill="none" stroke="black" d="M224.58,-377.85C217.2,-370.96 207.22,-361.21 202,-350 184.35,-312.12 185.75,-261.9 185.45,-234.15"/>
<polygon fill="black" stroke="black" points="188.95,-233.95 185.17,-224.05 181.95,-234.14 188.95,-233.95"/>
</g>
<!-- src/index.ts&#45;&gt;src/row.ts -->
<!-- src/index.ts&#45;&gt;src/row.ts -->
<g id="edge50" class="edge">
<title>src/index.ts&#45;&gt;src/row.ts</title>
<path fill="none" stroke="black" d="M200.25,-378.25C163.23,-365.35 104.65,-338.85 82,-291 73,-271.99 83.14,-249.01 91.52,-233.03"/>
<polygon fill="black" stroke="black" points="94.68,-234.55 96.33,-224.08 88.51,-231.24 94.68,-234.55"/>
</g>
<!-- src/index.ts&#45;&gt;src/slot.ts -->
<!-- src/index.ts&#45;&gt;src/slot.ts -->
<g id="edge54" class="edge">
<title>src/index.ts&#45;&gt;src/slot.ts</title>
<path fill="none" stroke="black" d="M200.44,-387.48C170.39,-384.66 125.92,-375.89 97,-350 76.03,-331.23 79.61,-318.58 74,-291 65.31,-248.31 57.08,-233.93 72,-193 83.89,-160.38 112.03,-131.11 129.94,-113.34"/>
<polygon fill="black" stroke="black" points="132.7,-115.53 137.36,-106.02 127.79,-110.55 132.7,-115.53"/>
</g>
<!-- src/index.ts&#45;&gt;src/anchored.ts -->
<!-- src/index.ts&#45;&gt;src/anchored.ts -->
<g id="edge42" class="edge">
<title>src/index.ts&#45;&gt;src/anchored.ts</title>
<path fill="none" stroke="black" d="M255.4,-377.99C265.25,-371.16 275.23,-361.41 280,-350 285.31,-337.29 281.5,-332.7 280,-319 273.74,-261.98 278.4,-243.93 252,-193 248,-185.28 242.05,-177.91 235.71,-171.74"/>
<polygon fill="black" stroke="black" points="237.99,-169.08 228.18,-165.08 233.35,-174.32 237.99,-169.08"/>
</g>
<!-- src/index.ts&#45;&gt;src/cell.ts -->
<!-- src/index.ts&#45;&gt;src/cell.ts -->
<g id="edge44" class="edge">
<title>src/index.ts&#45;&gt;src/cell.ts</title>
<path fill="none" stroke="black" d="M258.98,-377.85C271.31,-370.96 285.08,-361.21 295,-350 325.27,-315.78 341.44,-263.42 345.52,-234.5"/>
<polygon fill="black" stroke="black" points="349.03,-234.62 346.51,-224.33 342.06,-233.94 349.03,-234.62"/>
</g>
<!-- src/index.ts&#45;&gt;src/group.ts -->
<!-- src/index.ts&#45;&gt;src/group.ts -->
<g id="edge48" class="edge">
<title>src/index.ts&#45;&gt;src/group.ts</title>
<path fill="none" stroke="black" d="M222.3,-377.77C212.56,-370.57 198.29,-360.52 187,-350 167.32,-331.67 148.14,-307.32 134.02,-290.84"/>
<polygon fill="black" stroke="black" points="136.37,-288.2 127.13,-283.01 131.11,-292.83 136.37,-288.2"/>
</g>
<!-- src/index.ts&#45;&gt;src/scope.ts -->
<!-- src/index.ts&#45;&gt;src/scope.ts -->
<g id="edge52" class="edge">
<title>src/index.ts&#45;&gt;src/scope.ts</title>
<path fill="none" stroke="black" d="M263.76,-378.78C279.21,-372.17 296.97,-362.38 310,-350 357.92,-304.47 370.73,-287.52 389,-224 392.81,-210.76 394.06,-205.82 389,-193 385.86,-185.05 380.22,-177.77 373.88,-171.74"/>
<polygon fill="black" stroke="black" points="376.12,-169.05 366.23,-165.26 371.6,-174.39 376.12,-169.05"/>
</g>
<!-- src/index.ts&#45;&gt;src/table.ts -->
<!-- src/index.ts&#45;&gt;src/table.ts -->
<g id="edge56" class="edge">
<title>src/index.ts&#45;&gt;src/table.ts</title>
<path fill="none" stroke="black" d="M237.41,-377.78C238.67,-370.61 239.04,-360.95 238.53,-352.31"/>
<polygon fill="black" stroke="black" points="241.98,-351.73 237.4,-342.17 235.03,-352.5 241.98,-351.73"/>
</g>
<!-- src/index.ts&#45;&gt;exit_src -->
<!-- exit_src/cell/predicate&#45;&gt;exit_src/cell -->
</g>
</svg>
