<?xml version="1.0" encoding="UTF-8" standalone="no"?>
<!DOCTYPE svg PUBLIC "-//W3C//DTD SVG 1.1//EN"
 "http://www.w3.org/Graphics/SVG/1.1/DTD/svg11.dtd">
<!-- Generated by graphviz version 2.43.0 (0)
 -->
<!-- Title: dependency&#45;graph&#45;@siteimprove/alfa&#45;time Pages: 1 -->
<svg width="227pt" height="291pt"
 viewBox="0.00 0.00 227.20 291.20" xmlns="http://www.w3.org/2000/svg" xmlns:xlink="http://www.w3.org/1999/xlink">
<g id="graph0" class="graph" transform="scale(1 1) rotate(0) translate(21.6 269.6)">
<title>dependency&#45;graph&#45;@siteimprove/alfa&#45;time</title>
<polygon fill="#ffffff" stroke="transparent" points="-21.6,21.6 -21.6,-269.6 205.6,-269.6 205.6,21.6 -21.6,21.6"/>
<g id="clust1" class="cluster">
<title>cluster_src</title>
<polygon fill="#ffffff" stroke="#000000" points="8,-8 8,-240 176,-240 176,-8 8,-8"/>
</g>
<g id="clust2" class="cluster">
<title>cluster_src</title>
<polygon fill="#ffffff" stroke="#000000" points="16,-16 16,-232 168,-232 168,-16 16,-16"/>
</g>
<!-- src/time.ts -->
<g id="node1" class="node">
<title>src/time.ts</title>
<path fill="none" stroke="#000000" d="M73.83,-106C73.83,-106 32.17,-106 32.17,-106 28.33,-106 24.5,-102.17 24.5,-98.33 24.5,-98.33 24.5,-90.67 24.5,-90.67 24.5,-86.83 28.33,-83 32.17,-83 32.17,-83 73.83,-83 73.83,-83 77.67,-83 81.5,-86.83 81.5,-90.67 81.5,-90.67 81.5,-98.33 81.5,-98.33 81.5,-102.17 77.67,-106 73.83,-106"/>
<text text-anchor="middle" x="53" y="-90.8" font-family="Arial" font-size="14.00" fill="#000000">time.ts</text>
</g>
<!-- exit_src -->
<!-- src/time.ts&#45;&gt;exit_src -->
<!-- src/timeout.ts -->
<g id="node2" class="node">
<title>src/timeout.ts</title>
<path fill="none" stroke="#000000" d="M112.33,-165C112.33,-165 51.67,-165 51.67,-165 47.83,-165 44,-161.17 44,-157.33 44,-157.33 44,-149.67 44,-149.67 44,-145.83 47.83,-142 51.67,-142 51.67,-142 112.33,-142 112.33,-142 116.17,-142 120,-145.83 120,-149.67 120,-149.67 120,-157.33 120,-157.33 120,-161.17 116.17,-165 112.33,-165"/>
<text text-anchor="middle" x="82" y="-149.8" font-family="Arial" font-size="14.00" fill="#000000">timeout.ts</text>
</g>
<!-- src/timeout.ts&#45;&gt;src/time.ts -->
<!-- src/timeout.ts&#45;&gt;src/time.ts -->
<g id="edge8" class="edge">
<title>src/timeout.ts&#45;&gt;src/time.ts</title>
<path fill="none" stroke="black" d="M81.96,-141.78C79.44,-134.22 74.51,-123.87 69.29,-114.88"/>
<polygon fill="black" stroke="black" points="72.11,-112.79 63.83,-106.17 66.18,-116.5 72.11,-112.79"/>
</g>
<!-- src/timeout.ts&#45;&gt;exit_src -->
<!-- exit_src&#45;&gt;exit_src -->
<!-- exit_src&#45;&gt;exit_src -->
<!-- exit_src&#45;&gt;exit_src -->
<!-- name_src -->
<g id="node4" class="node">
<title>name_src</title>
<path fill="none" stroke="#ff0000" stroke-width="5" d="M152.33,-224C152.33,-224 113.67,-224 113.67,-224 109.83,-224 106,-220.17 106,-216.33 106,-216.33 106,-208.67 106,-208.67 106,-204.83 109.83,-201 113.67,-201 113.67,-201 152.33,-201 152.33,-201 156.17,-201 160,-204.83 160,-208.67 160,-208.67 160,-216.33 160,-216.33 160,-220.17 156.17,-224 152.33,-224"/>
<text text-anchor="middle" x="133" y="-208.8" font-family="Arial" font-size="14.00" fill="#000000">src</text>
</g>
<!-- src/index.ts -->
<g id="node5" class="node">
<title>src/index.ts</title>
<path fill="none" stroke="#ff0000" stroke-width="5" d="M79.83,-224C79.83,-224 32.17,-224 32.17,-224 28.33,-224 24.5,-220.17 24.5,-216.33 24.5,-216.33 24.5,-208.67 24.5,-208.67 24.5,-204.83 28.33,-201 32.17,-201 32.17,-201 79.83,-201 79.83,-201 83.67,-201 87.5,-204.83 87.5,-208.67 87.5,-208.67 87.5,-216.33 87.5,-216.33 87.5,-220.17 83.67,-224 79.83,-224"/>
<text text-anchor="middle" x="56" y="-208.8" font-family="Arial" font-size="14.00" fill="#000000">index.ts</text>
</g>
<!-- src/index.ts&#45;&gt;src/time.ts -->
<!-- src/index.ts&#45;&gt;src/time.ts -->
<g id="edge10" class="edge">
<title>src/index.ts&#45;&gt;src/time.ts</title>
<path fill="none" stroke="black" d="M56.81,-200.87C53.53,-191.72 46.8,-177.99 44,-165 40.44,-148.46 45.71,-129.93 50.11,-116.16"/>
<polygon fill="black" stroke="black" points="53.56,-116.86 53.27,-106.27 46.9,-114.73 53.56,-116.86"/>
</g>
<!-- src/index.ts&#45;&gt;src/timeout.ts -->
<!-- src/index.ts&#45;&gt;src/timeout.ts -->
<g id="edge12" class="edge">
<title>src/index.ts&#45;&gt;src/timeout.ts</title>
<path fill="none" stroke="black" d="M66.3,-200.78C70.93,-193.45 75.82,-183.52 79.26,-174.74"/>
<polygon fill="black" stroke="black" points="82.61,-175.77 82.53,-165.17 75.98,-173.5 82.61,-175.77"/>
</g>
<!-- src/index.ts&#45;&gt;exit_src -->
</g>
</svg>
