<?xml version="1.0" encoding="UTF-8" standalone="no"?>
<!DOCTYPE svg PUBLIC "-//W3C//DTD SVG 1.1//EN"
 "http://www.w3.org/Graphics/SVG/1.1/DTD/svg11.dtd">
<!-- Generated by graphviz version 2.43.0 (0)
 -->
<!-- Title: dependency&#45;graph&#45;[object Object] Pages: 1 -->
<svg width="264pt" height="267pt"
 viewBox="0.00 0.00 264.20 267.20" xmlns="http://www.w3.org/2000/svg" xmlns:xlink="http://www.w3.org/1999/xlink">
<g id="graph0" class="graph" transform="scale(1 1) rotate(0) translate(21.6 245.6)">
<title>dependency&#45;graph&#45;[object Object]</title>
<polygon fill="#ffffff" stroke="transparent" points="-21.6,21.6 -21.6,-245.6 242.6,-245.6 242.6,21.6 -21.6,21.6"/>
<g id="clust1" class="cluster">
<title>cluster_src</title>
<polygon fill="#ffffff" stroke="#000000" points="41.5,-43 41.5,-216 209.5,-216 209.5,-43 41.5,-43"/>
</g>
<g id="clust2" class="cluster">
<title>cluster_src</title>
<polygon fill="#ffffff" stroke="#000000" points="49.5,-51 49.5,-208 201.5,-208 201.5,-51 49.5,-51"/>
</g>
<!-- dependency&#45;graph&#45;[object Object] -->
<!-- src/foldable.ts -->
<g id="node2" class="node">
<title>src/foldable.ts</title>
<path fill="none" stroke="#000000" d="M127.83,-141C127.83,-141 65.17,-141 65.17,-141 61.33,-141 57.5,-137.17 57.5,-133.33 57.5,-133.33 57.5,-125.67 57.5,-125.67 57.5,-121.83 61.33,-118 65.17,-118 65.17,-118 127.83,-118 127.83,-118 131.67,-118 135.5,-121.83 135.5,-125.67 135.5,-125.67 135.5,-133.33 135.5,-133.33 135.5,-137.17 131.67,-141 127.83,-141"/>
<text text-anchor="middle" x="96.5" y="-125.8" font-family="Arial" font-size="14.00" fill="#000000">foldable.ts</text>
</g>
<!-- exit_src -->
<!-- src/foldable.ts&#45;&gt;exit_src -->
<!-- name_src -->
<g id="node3" class="node">
<title>name_src</title>
<path fill="none" stroke="#ff0000" stroke-width="5" d="M185.83,-200C185.83,-200 147.17,-200 147.17,-200 143.33,-200 139.5,-196.17 139.5,-192.33 139.5,-192.33 139.5,-184.67 139.5,-184.67 139.5,-180.83 143.33,-177 147.17,-177 147.17,-177 185.83,-177 185.83,-177 189.67,-177 193.5,-180.83 193.5,-184.67 193.5,-184.67 193.5,-192.33 193.5,-192.33 193.5,-196.17 189.67,-200 185.83,-200"/>
<text text-anchor="middle" x="166.5" y="-184.8" font-family="Arial" font-size="14.00" fill="#000000">src</text>
</g>
<!-- exit_src&#45;&gt;dependency&#45;graph&#45;[object Object] -->
<!-- exit_src&#45;&gt;exit_src -->
<!-- exit_src&#45;&gt;exit_src -->
<!-- src/common.ts -->
<g id="node5" class="node">
<title>src/common.ts</title>
<path fill="none" stroke="#ff0000" stroke-width="5" d="M113.33,-200C113.33,-200 65.67,-200 65.67,-200 61.83,-200 58,-196.17 58,-192.33 58,-192.33 58,-184.67 58,-184.67 58,-180.83 61.83,-177 65.67,-177 65.67,-177 113.33,-177 113.33,-177 117.17,-177 121,-180.83 121,-184.67 121,-184.67 121,-192.33 121,-192.33 121,-196.17 117.17,-200 113.33,-200"/>
<text text-anchor="middle" x="89.5" y="-184.8" font-family="Arial" font-size="14.00" fill="#000000">common.ts</text>
</g>
<!-- src/common.ts&#45;&gt;src/foldable.ts -->
<!-- src/common.ts&#45;&gt;src/foldable.ts -->
<g id="edge7" class="edge">
<title>src/common.ts&#45;&gt;src/foldable.ts</title>
<path fill="none" stroke="black" d="M96.23,-176.78C98.36,-169.61 99.92,-159.95 100.47,-151.31"/>
<polygon fill="black" stroke="black" points="103.97,-151.21 100.59,-141.17 96.97,-151.13 103.97,-151.21"/>
</g>
<!-- src/common.ts&#45;&gt;exit_src -->
</g>
</svg>
