<?xml version="1.0" encoding="UTF-8" standalone="no"?>
<!DOCTYPE svg PUBLIC "-//W3C//DTD SVG 1.1//EN"
 "http://www.w3.org/Graphics/SVG/1.1/DTD/svg11.dtd">
<!-- Generated by graphviz version 2.43.0 (0)
 -->
<!-- Title: dependency&#45;graph&#45;@siteimprove/alfa&#45;encoding Pages: 1 -->
<svg width="286pt" height="232pt"
 viewBox="0.00 0.00 286.20 232.20" xmlns="http://www.w3.org/2000/svg" xmlns:xlink="http://www.w3.org/1999/xlink">
<g id="graph0" class="graph" transform="scale(1 1) rotate(0) translate(21.6 210.6)">
<title>dependency&#45;graph&#45;@siteimprove/alfa&#45;encoding</title>
<polygon fill="#ffffff" stroke="transparent" points="-21.6,21.6 -21.6,-210.6 264.6,-210.6 264.6,21.6 -21.6,21.6"/>
<g id="clust1" class="cluster">
<title>cluster_src</title>
<polygon fill="#ffffff" stroke="#000000" points="8,-8 8,-181 235,-181 235,-8 8,-8"/>
</g>
<g id="clust2" class="cluster">
<title>cluster_src</title>
<polygon fill="#ffffff" stroke="#000000" points="16,-16 16,-173 227,-173 227,-16 16,-16"/>
</g>
<!-- src/decoder.ts -->
<g id="node1" class="node">
<title>src/decoder.ts</title>
<path fill="none" stroke="#000000" d="M94.83,-106C94.83,-106 31.17,-106 31.17,-106 27.33,-106 23.5,-102.17 23.5,-98.33 23.5,-98.33 23.5,-90.67 23.5,-90.67 23.5,-86.83 27.33,-83 31.17,-83 31.17,-83 94.83,-83 94.83,-83 98.67,-83 102.5,-86.83 102.5,-90.67 102.5,-90.67 102.5,-98.33 102.5,-98.33 102.5,-102.17 98.67,-106 94.83,-106"/>
<text text-anchor="middle" x="63" y="-90.8" font-family="Arial" font-size="14.00" fill="#000000">decoder.ts</text>
</g>
<!-- exit_src -->
<!-- src/decoder.ts&#45;&gt;exit_src -->
<!-- src/encoder.ts -->
<g id="node2" class="node">
<title>src/encoder.ts</title>
<path fill="none" stroke="#000000" d="M191.83,-106C191.83,-106 128.17,-106 128.17,-106 124.33,-106 120.5,-102.17 120.5,-98.33 120.5,-98.33 120.5,-90.67 120.5,-90.67 120.5,-86.83 124.33,-83 128.17,-83 128.17,-83 191.83,-83 191.83,-83 195.67,-83 199.5,-86.83 199.5,-90.67 199.5,-90.67 199.5,-98.33 199.5,-98.33 199.5,-102.17 195.67,-106 191.83,-106"/>
<text text-anchor="middle" x="160" y="-90.8" font-family="Arial" font-size="14.00" fill="#000000">encoder.ts</text>
</g>
<!-- src/encoder.ts&#45;&gt;exit_src -->
<!-- exit_src&#45;&gt;exit_src -->
<!-- exit_src&#45;&gt;exit_src -->
<!-- exit_src&#45;&gt;exit_src -->
<!-- name_src -->
<g id="node4" class="node">
<title>name_src</title>
<path fill="none" stroke="#ff0000" stroke-width="5" d="M211.33,-165C211.33,-165 172.67,-165 172.67,-165 168.83,-165 165,-161.17 165,-157.33 165,-157.33 165,-149.67 165,-149.67 165,-145.83 168.83,-142 172.67,-142 172.67,-142 211.33,-142 211.33,-142 215.17,-142 219,-145.83 219,-149.67 219,-149.67 219,-157.33 219,-157.33 219,-161.17 215.17,-165 211.33,-165"/>
<text text-anchor="middle" x="192" y="-149.8" font-family="Arial" font-size="14.00" fill="#000000">src</text>
</g>
<!-- src/index.ts -->
<g id="node5" class="node">
<title>src/index.ts</title>
<path fill="none" stroke="#ff0000" stroke-width="5" d="M138.83,-165C138.83,-165 91.17,-165 91.17,-165 87.33,-165 83.5,-161.17 83.5,-157.33 83.5,-157.33 83.5,-149.67 83.5,-149.67 83.5,-145.83 87.33,-142 91.17,-142 91.17,-142 138.83,-142 138.83,-142 142.67,-142 146.5,-145.83 146.5,-149.67 146.5,-149.67 146.5,-157.33 146.5,-157.33 146.5,-161.17 142.67,-165 138.83,-165"/>
<text text-anchor="middle" x="115" y="-149.8" font-family="Arial" font-size="14.00" fill="#000000">index.ts</text>
</g>
<!-- src/index.ts&#45;&gt;src/decoder.ts -->
<!-- src/index.ts&#45;&gt;src/decoder.ts -->
<g id="edge8" class="edge">
<title>src/index.ts&#45;&gt;src/decoder.ts</title>
<path fill="none" stroke="black" d="M110.63,-141.78C104.71,-133.74 94.8,-122.55 85.44,-113.19"/>
<polygon fill="black" stroke="black" points="87.77,-110.58 78.14,-106.17 82.92,-115.63 87.77,-110.58"/>
</g>
<!-- src/index.ts&#45;&gt;src/encoder.ts -->
<!-- src/index.ts&#45;&gt;src/encoder.ts -->
<g id="edge10" class="edge">
<title>src/index.ts&#45;&gt;src/encoder.ts</title>
<path fill="none" stroke="black" d="M128.88,-141.78C136.25,-134.14 144.86,-123.65 151.34,-114.6"/>
<polygon fill="black" stroke="black" points="154.32,-116.43 156.98,-106.17 148.5,-112.53 154.32,-116.43"/>
</g>
<!-- src/index.ts&#45;&gt;exit_src -->
</g>
</svg>
