<?xml version="1.0" encoding="UTF-8" standalone="no"?>
<!DOCTYPE svg PUBLIC "-//W3C//DTD SVG 1.1//EN"
 "http://www.w3.org/Graphics/SVG/1.1/DTD/svg11.dtd">
<!-- Generated by graphviz version 2.43.0 (0)
 -->
<!-- Title: dependency&#45;graph&#45;[object Object] Pages: 1 -->
<svg width="287pt" height="267pt"
 viewBox="0.00 0.00 286.70 267.20" xmlns="http://www.w3.org/2000/svg" xmlns:xlink="http://www.w3.org/1999/xlink">
<g id="graph0" class="graph" transform="scale(1 1) rotate(0) translate(21.6 245.6)">
<title>dependency&#45;graph&#45;[object Object]</title>
<polygon fill="#ffffff" stroke="transparent" points="-21.6,21.6 -21.6,-245.6 265.1,-245.6 265.1,21.6 -21.6,21.6"/>
<g id="clust1" class="cluster">
<title>cluster_src</title>
<polygon fill="#ffffff" stroke="#000000" points="8,-43 8,-216 235,-216 235,-43 8,-43"/>
</g>
<g id="clust2" class="cluster">
<title>cluster_src</title>
<polygon fill="#ffffff" stroke="#000000" points="16,-51 16,-208 227,-208 227,-51 16,-51"/>
</g>
<!-- dependency&#45;graph&#45;[object Object] -->
<!-- src/decoder.ts -->
<g id="node2" class="node">
<title>src/decoder.ts</title>
<path fill="none" stroke="#000000" d="M94.83,-141C94.83,-141 31.17,-141 31.17,-141 27.33,-141 23.5,-137.17 23.5,-133.33 23.5,-133.33 23.5,-125.67 23.5,-125.67 23.5,-121.83 27.33,-118 31.17,-118 31.17,-118 94.83,-118 94.83,-118 98.67,-118 102.5,-121.83 102.5,-125.67 102.5,-125.67 102.5,-133.33 102.5,-133.33 102.5,-137.17 98.67,-141 94.83,-141"/>
<text text-anchor="middle" x="63" y="-125.8" font-family="Arial" font-size="14.00" fill="#000000">decoder.ts</text>
</g>
<!-- exit_src -->
<!-- src/decoder.ts&#45;&gt;exit_src -->
<!-- src/encoder.ts -->
<g id="node3" class="node">
<title>src/encoder.ts</title>
<path fill="none" stroke="#000000" d="M191.83,-141C191.83,-141 128.17,-141 128.17,-141 124.33,-141 120.5,-137.17 120.5,-133.33 120.5,-133.33 120.5,-125.67 120.5,-125.67 120.5,-121.83 124.33,-118 128.17,-118 128.17,-118 191.83,-118 191.83,-118 195.67,-118 199.5,-121.83 199.5,-125.67 199.5,-125.67 199.5,-133.33 199.5,-133.33 199.5,-137.17 195.67,-141 191.83,-141"/>
<text text-anchor="middle" x="160" y="-125.8" font-family="Arial" font-size="14.00" fill="#000000">encoder.ts</text>
</g>
<!-- src/encoder.ts&#45;&gt;exit_src -->
<!-- name_src -->
<g id="node4" class="node">
<title>name_src</title>
<path fill="none" stroke="#ff0000" stroke-width="5" d="M211.33,-200C211.33,-200 172.67,-200 172.67,-200 168.83,-200 165,-196.17 165,-192.33 165,-192.33 165,-184.67 165,-184.67 165,-180.83 168.83,-177 172.67,-177 172.67,-177 211.33,-177 211.33,-177 215.17,-177 219,-180.83 219,-184.67 219,-184.67 219,-192.33 219,-192.33 219,-196.17 215.17,-200 211.33,-200"/>
<text text-anchor="middle" x="192" y="-184.8" font-family="Arial" font-size="14.00" fill="#000000">src</text>
</g>
<!-- exit_src&#45;&gt;dependency&#45;graph&#45;[object Object] -->
<!-- exit_src&#45;&gt;exit_src -->
<!-- exit_src&#45;&gt;exit_src -->
<!-- exit_src&#45;&gt;exit_src -->
<!-- src/common.ts -->
<g id="node6" class="node">
<title>src/common.ts</title>
<path fill="none" stroke="#ff0000" stroke-width="5" d="M138.83,-200C138.83,-200 91.17,-200 91.17,-200 87.33,-200 83.5,-196.17 83.5,-192.33 83.5,-192.33 83.5,-184.67 83.5,-184.67 83.5,-180.83 87.33,-177 91.17,-177 91.17,-177 138.83,-177 138.83,-177 142.67,-177 146.5,-180.83 146.5,-184.67 146.5,-184.67 146.5,-192.33 146.5,-192.33 146.5,-196.17 142.67,-200 138.83,-200"/>
<text text-anchor="middle" x="115" y="-184.8" font-family="Arial" font-size="14.00" fill="#000000">common.ts</text>
</g>
<!-- src/common.ts&#45;&gt;src/decoder.ts -->
<!-- src/common.ts&#45;&gt;src/decoder.ts -->
<g id="edge9" class="edge">
<title>src/common.ts&#45;&gt;src/decoder.ts</title>
<path fill="none" stroke="black" d="M110.63,-176.78C104.71,-168.74 94.8,-157.55 85.44,-148.19"/>
<polygon fill="black" stroke="black" points="87.77,-145.58 78.14,-141.17 82.92,-150.63 87.77,-145.58"/>
</g>
<!-- src/common.ts&#45;&gt;src/encoder.ts -->
<!-- src/common.ts&#45;&gt;src/encoder.ts -->
<g id="edge11" class="edge">
<title>src/common.ts&#45;&gt;src/encoder.ts</title>
<path fill="none" stroke="black" d="M128.88,-176.78C136.25,-169.14 144.86,-158.65 151.34,-149.6"/>
<polygon fill="black" stroke="black" points="154.32,-151.43 156.98,-141.17 148.5,-147.53 154.32,-151.43"/>
</g>
<!-- src/common.ts&#45;&gt;exit_src -->
</g>
</svg>
