<?xml version="1.0" encoding="UTF-8" standalone="no"?>
<!DOCTYPE svg PUBLIC "-//W3C//DTD SVG 1.1//EN"
 "http://www.w3.org/Graphics/SVG/1.1/DTD/svg11.dtd">
<!-- Generated by graphviz version 2.43.0 (0)
 -->
<!-- Title: dependency&#45;graph&#45;[object Object] Pages: 1 -->
<svg width="282pt" height="385pt"
 viewBox="0.00 0.00 281.70 385.20" xmlns="http://www.w3.org/2000/svg" xmlns:xlink="http://www.w3.org/1999/xlink">
<g id="graph0" class="graph" transform="scale(1 1) rotate(0) translate(21.6 363.6)">
<title>dependency&#45;graph&#45;[object Object]</title>
<polygon fill="#ffffff" stroke="transparent" points="-21.6,21.6 -21.6,-363.6 260.1,-363.6 260.1,21.6 -21.6,21.6"/>
<g id="clust1" class="cluster">
<title>cluster_src</title>
<polygon fill="#ffffff" stroke="#000000" points="62.5,-43 62.5,-334 230.5,-334 230.5,-43 62.5,-43"/>
</g>
<g id="clust2" class="cluster">
<title>cluster_src</title>
<polygon fill="#ffffff" stroke="#000000" points="70.5,-51 70.5,-326 222.5,-326 222.5,-51 70.5,-51"/>
</g>
<!-- dependency&#45;graph&#45;[object Object] -->
<!-- src/result.ts -->
<g id="node2" class="node">
<title>src/result.ts</title>
<path fill="none" stroke="#000000" d="M134.83,-259C134.83,-259 86.17,-259 86.17,-259 82.33,-259 78.5,-255.17 78.5,-251.33 78.5,-251.33 78.5,-243.67 78.5,-243.67 78.5,-239.83 82.33,-236 86.17,-236 86.17,-236 134.83,-236 134.83,-236 138.67,-236 142.5,-239.83 142.5,-243.67 142.5,-243.67 142.5,-251.33 142.5,-251.33 142.5,-255.17 138.67,-259 134.83,-259"/>
<text text-anchor="middle" x="110.5" y="-243.8" font-family="Arial" font-size="14.00" fill="#000000">result.ts</text>
</g>
<!-- src/err.ts -->
<g id="node3" class="node">
<title>src/err.ts</title>
<path fill="none" stroke="#000000" d="M144.83,-141C144.83,-141 106.17,-141 106.17,-141 102.33,-141 98.5,-137.17 98.5,-133.33 98.5,-133.33 98.5,-125.67 98.5,-125.67 98.5,-121.83 102.33,-118 106.17,-118 106.17,-118 144.83,-118 144.83,-118 148.67,-118 152.5,-121.83 152.5,-125.67 152.5,-125.67 152.5,-133.33 152.5,-133.33 152.5,-137.17 148.67,-141 144.83,-141"/>
<text text-anchor="middle" x="125.5" y="-125.8" font-family="Arial" font-size="14.00" fill="#000000">err.ts</text>
</g>
<!-- src/result.ts&#45;&gt;src/err.ts -->
<!-- src/result.ts&#45;&gt;src/err.ts -->
<g id="edge23" class="edge">
<title>src/result.ts&#45;&gt;src/err.ts</title>
<path fill="none" stroke="black" d="M127.95,-235.57C134.7,-221.81 133.08,-197.47 136.5,-177 137.94,-168.42 140.77,-159.29 141.95,-151.42"/>
<polygon fill="black" stroke="black" points="145.45,-151.4 142.2,-141.32 138.45,-151.23 145.45,-151.4"/>
</g>
<!-- src/ok.ts -->
<g id="node4" class="node">
<title>src/ok.ts</title>
<path fill="none" stroke="#000000" d="M164.83,-200C164.83,-200 126.17,-200 126.17,-200 122.33,-200 118.5,-196.17 118.5,-192.33 118.5,-192.33 118.5,-184.67 118.5,-184.67 118.5,-180.83 122.33,-177 126.17,-177 126.17,-177 164.83,-177 164.83,-177 168.67,-177 172.5,-180.83 172.5,-184.67 172.5,-184.67 172.5,-192.33 172.5,-192.33 172.5,-196.17 168.67,-200 164.83,-200"/>
<text text-anchor="middle" x="145.5" y="-184.8" font-family="Arial" font-size="14.00" fill="#000000">ok.ts</text>
</g>
<!-- src/result.ts&#45;&gt;src/ok.ts -->
<!-- src/result.ts&#45;&gt;src/ok.ts -->
<g id="edge25" class="edge">
<title>src/result.ts&#45;&gt;src/ok.ts</title>
<path fill="none" stroke="black" d="M133.32,-235.78C141.58,-228.53 148.69,-218.74 152.43,-210.02"/>
<polygon fill="black" stroke="black" points="155.86,-210.74 155.16,-200.17 149.11,-208.88 155.86,-210.74"/>
</g>
<!-- exit_src -->
<!-- src/result.ts&#45;&gt;exit_src -->
<!-- src/err.ts&#45;&gt;src/result.ts -->
<!-- src/err.ts&#45;&gt;src/result.ts -->
<g id="edge11" class="edge">
<title>src/err.ts&#45;&gt;src/result.ts</title>
<path fill="none" stroke="black" stroke-dasharray="1,5" d="M127.82,-141.32C125.74,-150.58 120.61,-164.37 118.5,-177 115.83,-192.99 116.23,-211.35 115.92,-225.17"/>
<polygon fill="black" stroke="black" points="112.41,-225.41 115.41,-235.57 119.4,-225.76 112.41,-225.41"/>
</g>
<!-- src/err.ts&#45;&gt;exit_src -->
<!-- src/ok.ts&#45;&gt;src/result.ts -->
<!-- src/ok.ts&#45;&gt;src/result.ts -->
<g id="edge21" class="edge">
<title>src/ok.ts&#45;&gt;src/result.ts</title>
<path fill="none" stroke="black" stroke-dasharray="1,5" d="M144.35,-200.17C140.97,-207.88 134.78,-218.5 128.48,-227.63"/>
<polygon fill="black" stroke="black" points="125.6,-225.65 122.49,-235.78 131.24,-229.79 125.6,-225.65"/>
</g>
<!-- src/ok.ts&#45;&gt;src/err.ts -->
<!-- src/ok.ts&#45;&gt;src/err.ts -->
<g id="edge19" class="edge">
<title>src/ok.ts&#45;&gt;src/err.ts</title>
<path fill="none" stroke="black" d="M147.15,-176.78C145.85,-169.37 142.67,-159.3 138.97,-150.45"/>
<polygon fill="black" stroke="black" points="142.05,-148.76 134.65,-141.17 135.7,-151.72 142.05,-148.76"/>
</g>
<!-- src/ok.ts&#45;&gt;exit_src -->
<!-- name_src -->
<g id="node5" class="node">
<title>name_src</title>
<path fill="none" stroke="#ff0000" stroke-width="5" d="M206.83,-318C206.83,-318 168.17,-318 168.17,-318 164.33,-318 160.5,-314.17 160.5,-310.33 160.5,-310.33 160.5,-302.67 160.5,-302.67 160.5,-298.83 164.33,-295 168.17,-295 168.17,-295 206.83,-295 206.83,-295 210.67,-295 214.5,-298.83 214.5,-302.67 214.5,-302.67 214.5,-310.33 214.5,-310.33 214.5,-314.17 210.67,-318 206.83,-318"/>
<text text-anchor="middle" x="187.5" y="-302.8" font-family="Arial" font-size="14.00" fill="#000000">src</text>
</g>
<!-- exit_src&#45;&gt;dependency&#45;graph&#45;[object Object] -->
<!-- exit_src&#45;&gt;exit_src -->
<!-- exit_src&#45;&gt;exit_src -->
<!-- exit_src&#45;&gt;exit_src -->
<!-- exit_src&#45;&gt;exit_src -->
<!-- src/index.ts -->
<g id="node7" class="node">
<title>src/index.ts</title>
<path fill="none" stroke="#ff0000" stroke-width="5" d="M134.33,-318C134.33,-318 86.67,-318 86.67,-318 82.83,-318 79,-314.17 79,-310.33 79,-310.33 79,-302.67 79,-302.67 79,-298.83 82.83,-295 86.67,-295 86.67,-295 134.33,-295 134.33,-295 138.17,-295 142,-298.83 142,-302.67 142,-302.67 142,-310.33 142,-310.33 142,-314.17 138.17,-318 134.33,-318"/>
<text text-anchor="middle" x="110.5" y="-302.8" font-family="Arial" font-size="14.00" fill="#000000">index.ts</text>
</g>
<!-- src/index.ts&#45;&gt;src/result.ts -->
<!-- src/index.ts&#45;&gt;src/result.ts -->
<g id="edge17" class="edge">
<title>src/index.ts&#45;&gt;src/result.ts</title>
<path fill="none" stroke="black" d="M115.91,-294.78C117.17,-287.61 117.54,-277.95 117.03,-269.31"/>
<polygon fill="black" stroke="black" points="120.48,-268.73 115.9,-259.17 113.53,-269.5 120.48,-268.73"/>
</g>
<!-- src/index.ts&#45;&gt;src/err.ts -->
<!-- src/index.ts&#45;&gt;src/err.ts -->
<g id="edge13" class="edge">
<title>src/index.ts&#45;&gt;src/err.ts</title>
<path fill="none" stroke="black" d="M131.25,-294.84C143.22,-286.1 157.2,-272.94 166.5,-259 182.22,-235.45 185.07,-227.78 190.5,-200 192.46,-189.97 194.84,-186.25 190.5,-177 184.55,-164.33 173.27,-153.92 161.65,-146.18"/>
<polygon fill="black" stroke="black" points="163.15,-143 152.78,-140.8 159.51,-148.98 163.15,-143"/>
</g>
<!-- src/index.ts&#45;&gt;src/ok.ts -->
<!-- src/index.ts&#45;&gt;src/ok.ts -->
<g id="edge15" class="edge">
<title>src/index.ts&#45;&gt;src/ok.ts</title>
<path fill="none" stroke="black" d="M131.43,-294.91C142.73,-286.4 155.02,-273.5 160.5,-259 166.49,-243.14 164.14,-223.84 159.3,-209.6"/>
<polygon fill="black" stroke="black" points="162.48,-208.15 155.42,-200.26 156.02,-210.83 162.48,-208.15"/>
</g>
<!-- src/index.ts&#45;&gt;exit_src -->
</g>
</svg>
