<?xml version="1.0" encoding="UTF-8" standalone="no"?>
<!DOCTYPE svg PUBLIC "-//W3C//DTD SVG 1.1//EN"
 "http://www.w3.org/Graphics/SVG/1.1/DTD/svg11.dtd">
<!-- Generated by graphviz version 2.43.0 (0)
 -->
<!-- Title: dependency&#45;graph&#45;@siteimprove/alfa&#45;result Pages: 1 -->
<svg width="227pt" height="350pt"
 viewBox="0.00 0.00 227.20 350.20" xmlns="http://www.w3.org/2000/svg" xmlns:xlink="http://www.w3.org/1999/xlink">
<g id="graph0" class="graph" transform="scale(1 1) rotate(0) translate(21.6 328.6)">
<title>dependency&#45;graph&#45;@siteimprove/alfa&#45;result</title>
<polygon fill="#ffffff" stroke="transparent" points="-21.6,21.6 -21.6,-328.6 205.6,-328.6 205.6,21.6 -21.6,21.6"/>
<g id="clust1" class="cluster">
<title>cluster_src</title>
<polygon fill="#ffffff" stroke="#000000" points="8,-8 8,-299 176,-299 176,-8 8,-8"/>
</g>
<g id="clust2" class="cluster">
<title>cluster_src</title>
<polygon fill="#ffffff" stroke="#000000" points="16,-16 16,-291 168,-291 168,-16 16,-16"/>
</g>
<!-- src/err.ts -->
<g id="node1" class="node">
<title>src/err.ts</title>
<path fill="none" stroke="#000000" d="M75.33,-224C75.33,-224 36.67,-224 36.67,-224 32.83,-224 29,-220.17 29,-216.33 29,-216.33 29,-208.67 29,-208.67 29,-204.83 32.83,-201 36.67,-201 36.67,-201 75.33,-201 75.33,-201 79.17,-201 83,-204.83 83,-208.67 83,-208.67 83,-216.33 83,-216.33 83,-220.17 79.17,-224 75.33,-224"/>
<text text-anchor="middle" x="56" y="-208.8" font-family="Arial" font-size="14.00" fill="#000000">err.ts</text>
</g>
<!-- src/result.ts -->
<g id="node3" class="node">
<title>src/result.ts</title>
<path fill="none" stroke="#000000" d="M100.33,-165C100.33,-165 51.67,-165 51.67,-165 47.83,-165 44,-161.17 44,-157.33 44,-157.33 44,-149.67 44,-149.67 44,-145.83 47.83,-142 51.67,-142 51.67,-142 100.33,-142 100.33,-142 104.17,-142 108,-145.83 108,-149.67 108,-149.67 108,-157.33 108,-157.33 108,-161.17 104.17,-165 100.33,-165"/>
<text text-anchor="middle" x="76" y="-149.8" font-family="Arial" font-size="14.00" fill="#000000">result.ts</text>
</g>
<!-- src/err.ts&#45;&gt;src/result.ts -->
<!-- src/err.ts&#45;&gt;src/result.ts -->
<g id="edge14" class="edge">
<title>src/err.ts&#45;&gt;src/result.ts</title>
<path fill="none" stroke="black" stroke-dasharray="1,5" d="M76,-200.78C82.28,-193.61 86.79,-183.95 88.28,-175.31"/>
<polygon fill="black" stroke="black" points="91.78,-175.24 88.46,-165.17 84.78,-175.11 91.78,-175.24"/>
</g>
<!-- exit_src -->
<!-- src/err.ts&#45;&gt;exit_src -->
<!-- src/ok.ts -->
<g id="node2" class="node">
<title>src/ok.ts</title>
<path fill="none" stroke="#000000" d="M110.33,-106C110.33,-106 71.67,-106 71.67,-106 67.83,-106 64,-102.17 64,-98.33 64,-98.33 64,-90.67 64,-90.67 64,-86.83 67.83,-83 71.67,-83 71.67,-83 110.33,-83 110.33,-83 114.17,-83 118,-86.83 118,-90.67 118,-90.67 118,-98.33 118,-98.33 118,-102.17 114.17,-106 110.33,-106"/>
<text text-anchor="middle" x="91" y="-90.8" font-family="Arial" font-size="14.00" fill="#000000">ok.ts</text>
</g>
<!-- src/ok.ts&#45;&gt;src/result.ts -->
<!-- src/ok.ts&#45;&gt;src/result.ts -->
<g id="edge22" class="edge">
<title>src/ok.ts&#45;&gt;src/result.ts</title>
<path fill="none" stroke="black" stroke-dasharray="1,5" d="M99,-106.17C99.66,-113.65 97.68,-123.85 94.1,-132.78"/>
<polygon fill="black" stroke="black" points="90.95,-131.26 89.64,-141.78 97.22,-134.37 90.95,-131.26"/>
</g>
<!-- src/ok.ts&#45;&gt;exit_src -->
<!-- src/result.ts&#45;&gt;src/err.ts -->
<!-- src/result.ts&#45;&gt;src/err.ts -->
<g id="edge10" class="edge">
<title>src/result.ts&#45;&gt;src/err.ts</title>
<path fill="none" stroke="black" d="M77.66,-165.17C76.37,-172.57 73.19,-182.63 69.5,-191.49"/>
<polygon fill="black" stroke="black" points="66.22,-190.24 65.17,-200.78 72.57,-193.19 66.22,-190.24"/>
</g>
<!-- src/result.ts&#45;&gt;src/ok.ts -->
<!-- src/result.ts&#45;&gt;src/ok.ts -->
<g id="edge12" class="edge">
<title>src/result.ts&#45;&gt;src/ok.ts</title>
<path fill="none" stroke="black" d="M68,-141.78C67.34,-134.29 69.33,-124.09 72.92,-115.16"/>
<polygon fill="black" stroke="black" points="76.07,-116.69 77.39,-106.17 69.8,-113.57 76.07,-116.69"/>
</g>
<!-- src/result.ts&#45;&gt;exit_src -->
<!-- exit_src&#45;&gt;exit_src -->
<!-- exit_src&#45;&gt;exit_src -->
<!-- exit_src&#45;&gt;exit_src -->
<!-- exit_src&#45;&gt;exit_src -->
<!-- name_src -->
<g id="node5" class="node">
<title>name_src</title>
<path fill="none" stroke="#ff0000" stroke-width="5" d="M152.33,-283C152.33,-283 113.67,-283 113.67,-283 109.83,-283 106,-279.17 106,-275.33 106,-275.33 106,-267.67 106,-267.67 106,-263.83 109.83,-260 113.67,-260 113.67,-260 152.33,-260 152.33,-260 156.17,-260 160,-263.83 160,-267.67 160,-267.67 160,-275.33 160,-275.33 160,-279.17 156.17,-283 152.33,-283"/>
<text text-anchor="middle" x="133" y="-267.8" font-family="Arial" font-size="14.00" fill="#000000">src</text>
</g>
<!-- src/index.ts -->
<g id="node6" class="node">
<title>src/index.ts</title>
<path fill="none" stroke="#ff0000" stroke-width="5" d="M79.83,-283C79.83,-283 32.17,-283 32.17,-283 28.33,-283 24.5,-279.17 24.5,-275.33 24.5,-275.33 24.5,-267.67 24.5,-267.67 24.5,-263.83 28.33,-260 32.17,-260 32.17,-260 79.83,-260 79.83,-260 83.67,-260 87.5,-263.83 87.5,-267.67 87.5,-267.67 87.5,-275.33 87.5,-275.33 87.5,-279.17 83.67,-283 79.83,-283"/>
<text text-anchor="middle" x="56" y="-267.8" font-family="Arial" font-size="14.00" fill="#000000">index.ts</text>
</g>
<!-- src/index.ts&#45;&gt;src/err.ts -->
<!-- src/index.ts&#45;&gt;src/err.ts -->
<g id="edge16" class="edge">
<title>src/index.ts&#45;&gt;src/err.ts</title>
<path fill="none" stroke="black" d="M61.41,-259.78C62.67,-252.61 63.04,-242.95 62.53,-234.31"/>
<polygon fill="black" stroke="black" points="65.98,-233.73 61.4,-224.17 59.03,-234.5 65.98,-233.73"/>
</g>
<!-- src/index.ts&#45;&gt;src/ok.ts -->
<!-- src/index.ts&#45;&gt;src/ok.ts -->
<g id="edge18" class="edge">
<title>src/index.ts&#45;&gt;src/ok.ts</title>
<path fill="none" stroke="black" d="M75.54,-259.74C86.52,-250.95 99.07,-237.76 107,-224 120.76,-200.14 121.73,-192.21 126,-165 127.59,-154.9 128.58,-151.89 126,-142 123.47,-132.27 118.4,-122.42 112.71,-114.31"/>
<polygon fill="black" stroke="black" points="115.33,-111.97 106.4,-106.27 109.82,-116.3 115.33,-111.97"/>
</g>
<!-- src/index.ts&#45;&gt;src/result.ts -->
<!-- src/index.ts&#45;&gt;src/result.ts -->
<g id="edge20" class="edge">
<title>src/index.ts&#45;&gt;src/result.ts</title>
<path fill="none" stroke="black" d="M74.89,-259.93C85.15,-251.25 96.18,-238.1 101,-224 106.66,-207.44 101.19,-187.97 93.64,-173.86"/>
<polygon fill="black" stroke="black" points="96.43,-171.71 88.19,-165.05 90.47,-175.4 96.43,-171.71"/>
</g>
<!-- src/index.ts&#45;&gt;exit_src -->
</g>
</svg>
