<?xml version="1.0" encoding="UTF-8" standalone="no"?>
<!DOCTYPE svg PUBLIC "-//W3C//DTD SVG 1.1//EN"
 "http://www.w3.org/Graphics/SVG/1.1/DTD/svg11.dtd">
<!-- Generated by graphviz version 2.43.0 (0)
 -->
<!-- Title: dependency&#45;graph&#45;[object Object] Pages: 1 -->
<svg width="282pt" height="385pt"
 viewBox="0.00 0.00 281.70 385.20" xmlns="http://www.w3.org/2000/svg" xmlns:xlink="http://www.w3.org/1999/xlink">
<g id="graph0" class="graph" transform="scale(1 1) rotate(0) translate(21.6 363.6)">
<title>dependency&#45;graph&#45;[object Object]</title>
<polygon fill="#ffffff" stroke="transparent" points="-21.6,21.6 -21.6,-363.6 260.1,-363.6 260.1,21.6 -21.6,21.6"/>
<g id="clust1" class="cluster">
<title>cluster_src</title>
<polygon fill="#ffffff" stroke="#000000" points="54.5,-43 54.5,-334 230.5,-334 230.5,-43 54.5,-43"/>
</g>
<g id="clust2" class="cluster">
<title>cluster_src</title>
<polygon fill="#ffffff" stroke="#000000" points="62.5,-51 62.5,-326 222.5,-326 222.5,-51 62.5,-51"/>
</g>
<!-- dependency&#45;graph&#45;[object Object] -->
<!-- src/ok.ts -->
<g id="node2" class="node">
<title>src/ok.ts</title>
<path fill="#ff6c60" stroke="#000000" d="M116.83,-259C116.83,-259 78.17,-259 78.17,-259 74.33,-259 70.5,-255.17 70.5,-251.33 70.5,-251.33 70.5,-243.67 70.5,-243.67 70.5,-239.83 74.33,-236 78.17,-236 78.17,-236 116.83,-236 116.83,-236 120.67,-236 124.5,-239.83 124.5,-243.67 124.5,-243.67 124.5,-251.33 124.5,-251.33 124.5,-255.17 120.67,-259 116.83,-259"/>
<text text-anchor="middle" x="97.5" y="-243.8" font-family="Arial" font-size="14.00" fill="#000000">ok.ts</text>
</g>
<!-- src/result.ts -->
<g id="node3" class="node">
<title>src/result.ts</title>
<path fill="#ff6c60" stroke="#000000" d="M166.83,-200C166.83,-200 118.17,-200 118.17,-200 114.33,-200 110.5,-196.17 110.5,-192.33 110.5,-192.33 110.5,-184.67 110.5,-184.67 110.5,-180.83 114.33,-177 118.17,-177 118.17,-177 166.83,-177 166.83,-177 170.67,-177 174.5,-180.83 174.5,-184.67 174.5,-184.67 174.5,-192.33 174.5,-192.33 174.5,-196.17 170.67,-200 166.83,-200"/>
<text text-anchor="middle" x="142.5" y="-184.8" font-family="Arial" font-size="14.00" fill="#000000">result.ts</text>
</g>
<!-- src/ok.ts&#45;&gt;src/result.ts -->
<!-- src/ok.ts&#45;&gt;src/result.ts -->
<g id="edge23" class="edge">
<title>src/ok.ts&#45;&gt;src/result.ts</title>
<path fill="none" stroke="black" d="M100.55,-235.78C105.39,-227.9 113.69,-216.99 121.75,-207.75"/>
<polygon fill="black" stroke="black" points="124.51,-209.92 128.67,-200.17 119.34,-205.19 124.51,-209.92"/>
</g>
<!-- src/err.ts -->
<g id="node4" class="node">
<title>src/err.ts</title>
<path fill="#ff6c60" stroke="#000000" d="M136.83,-141C136.83,-141 98.17,-141 98.17,-141 94.33,-141 90.5,-137.17 90.5,-133.33 90.5,-133.33 90.5,-125.67 90.5,-125.67 90.5,-121.83 94.33,-118 98.17,-118 98.17,-118 136.83,-118 136.83,-118 140.67,-118 144.5,-121.83 144.5,-125.67 144.5,-125.67 144.5,-133.33 144.5,-133.33 144.5,-137.17 140.67,-141 136.83,-141"/>
<text text-anchor="middle" x="117.5" y="-125.8" font-family="Arial" font-size="14.00" fill="#000000">err.ts</text>
</g>
<!-- src/ok.ts&#45;&gt;src/err.ts -->
<!-- src/ok.ts&#45;&gt;src/err.ts -->
<g id="edge21" class="edge">
<title>src/ok.ts&#45;&gt;src/err.ts</title>
<path fill="none" stroke="black" d="M116.02,-235.55C124.06,-221.76 124.48,-197.4 128.5,-177 130.18,-168.46 133.06,-159.35 134.21,-151.47"/>
<polygon fill="black" stroke="black" points="137.71,-151.41 134.38,-141.35 130.72,-151.29 137.71,-151.41"/>
</g>
<!-- exit_src -->
<!-- src/ok.ts&#45;&gt;exit_src -->
<!-- src/result.ts&#45;&gt;src/ok.ts -->
<!-- src/result.ts&#45;&gt;src/ok.ts -->
<g id="edge27" class="edge">
<title>src/result.ts&#45;&gt;src/ok.ts</title>
<path fill="none" stroke="black" d="M150.28,-200.17C148.15,-208.36 139.95,-219.83 129.84,-229.31"/>
<polygon fill="black" stroke="black" points="127.56,-226.64 122.2,-235.78 132.09,-231.98 127.56,-226.64"/>
</g>
<!-- src/result.ts&#45;&gt;src/err.ts -->
<!-- src/result.ts&#45;&gt;src/err.ts -->
<g id="edge25" class="edge">
<title>src/result.ts&#45;&gt;src/err.ts</title>
<path fill="none" stroke="black" d="M154.03,-176.78C154.72,-168.98 150.95,-158.21 144.73,-149.03"/>
<polygon fill="black" stroke="black" points="147.4,-146.76 138.39,-141.17 141.95,-151.15 147.4,-146.76"/>
</g>
<!-- src/result.ts&#45;&gt;exit_src -->
<!-- src/err.ts&#45;&gt;src/ok.ts -->
<!-- src/err.ts&#45;&gt;src/ok.ts -->
<g id="edge11" class="edge">
<title>src/err.ts&#45;&gt;src/ok.ts</title>
<path fill="none" stroke="black" d="M120,-141.35C118.04,-150.63 112.97,-164.44 110.5,-177 107.33,-193.09 106.4,-211.66 104.88,-225.55"/>
<polygon fill="black" stroke="black" points="101.4,-225.16 103.48,-235.55 108.33,-226.13 101.4,-225.16"/>
</g>
<!-- src/err.ts&#45;&gt;src/result.ts -->
<!-- src/err.ts&#45;&gt;src/result.ts -->
<g id="edge13" class="edge">
<title>src/err.ts&#45;&gt;src/result.ts</title>
<path fill="none" stroke="black" d="M127.58,-141.17C132.08,-148.49 136.8,-158.42 140.09,-167.21"/>
<polygon fill="black" stroke="black" points="136.79,-168.35 143.21,-176.78 143.44,-166.19 136.79,-168.35"/>
</g>
<!-- src/err.ts&#45;&gt;exit_src -->
<!-- name_src -->
<g id="node5" class="node">
<title>name_src</title>
<path fill="none" stroke="#ff0000" stroke-width="5" d="M206.83,-318C206.83,-318 168.17,-318 168.17,-318 164.33,-318 160.5,-314.17 160.5,-310.33 160.5,-310.33 160.5,-302.67 160.5,-302.67 160.5,-298.83 164.33,-295 168.17,-295 168.17,-295 206.83,-295 206.83,-295 210.67,-295 214.5,-298.83 214.5,-302.67 214.5,-302.67 214.5,-310.33 214.5,-310.33 214.5,-314.17 210.67,-318 206.83,-318"/>
<text text-anchor="middle" x="187.5" y="-302.8" font-family="Arial" font-size="14.00" fill="#000000">src</text>
</g>
<!-- exit_src&#45;&gt;dependency&#45;graph&#45;[object Object] -->
<!-- exit_src&#45;&gt;exit_src -->
<!-- exit_src&#45;&gt;exit_src -->
<!-- exit_src&#45;&gt;exit_src -->
<!-- exit_src&#45;&gt;exit_src -->
<!-- src/common.ts -->
<g id="node7" class="node">
<title>src/common.ts</title>
<path fill="none" stroke="#ff0000" stroke-width="5" d="M134.33,-318C134.33,-318 86.67,-318 86.67,-318 82.83,-318 79,-314.17 79,-310.33 79,-310.33 79,-302.67 79,-302.67 79,-298.83 82.83,-295 86.67,-295 86.67,-295 134.33,-295 134.33,-295 138.17,-295 142,-298.83 142,-302.67 142,-302.67 142,-310.33 142,-310.33 142,-314.17 138.17,-318 134.33,-318"/>
<text text-anchor="middle" x="110.5" y="-302.8" font-family="Arial" font-size="14.00" fill="#000000">common.ts</text>
</g>
<!-- src/common.ts&#45;&gt;src/ok.ts -->
<!-- src/common.ts&#45;&gt;src/ok.ts -->
<g id="edge17" class="edge">
<title>src/common.ts&#45;&gt;src/ok.ts</title>
<path fill="none" stroke="black" d="M113.47,-294.78C113.08,-287.45 111.17,-277.52 108.61,-268.74"/>
<polygon fill="black" stroke="black" points="111.88,-267.5 105.34,-259.17 105.26,-269.77 111.88,-267.5"/>
</g>
<!-- src/common.ts&#45;&gt;src/result.ts -->
<!-- src/common.ts&#45;&gt;src/result.ts -->
<g id="edge19" class="edge">
<title>src/common.ts&#45;&gt;src/result.ts</title>
<path fill="none" stroke="black" d="M124.24,-294.84C131.36,-285.67 138.58,-271.93 142.5,-259 147.34,-243.01 149.58,-224.18 149.22,-210.16"/>
<polygon fill="black" stroke="black" points="152.7,-209.76 148.38,-200.09 145.73,-210.34 152.7,-209.76"/>
</g>
<!-- src/common.ts&#45;&gt;src/err.ts -->
<!-- src/common.ts&#45;&gt;src/err.ts -->
<g id="edge15" class="edge">
<title>src/common.ts&#45;&gt;src/err.ts</title>
<path fill="none" stroke="black" d="M127,-294.73C147.56,-276.91 180.22,-239.33 192.5,-200 195.55,-190.24 197.21,-186.07 192.5,-177 184.54,-161.65 168.92,-150.29 153.86,-142.65"/>
<polygon fill="black" stroke="black" points="155.18,-139.4 144.64,-138.36 152.23,-145.75 155.18,-139.4"/>
</g>
<!-- src/common.ts&#45;&gt;exit_src -->
</g>
</svg>
