<?xml version="1.0" encoding="UTF-8" standalone="no"?>
<!DOCTYPE svg PUBLIC "-//W3C//DTD SVG 1.1//EN"
 "http://www.w3.org/Graphics/SVG/1.1/DTD/svg11.dtd">
<!-- Generated by graphviz version 2.43.0 (0)
 -->
<!-- Title: dependency&#45;graph&#45;@siteimprove/alfa&#45;either Pages: 1 -->
<svg width="229pt" height="350pt"
 viewBox="0.00 0.00 229.20 350.20" xmlns="http://www.w3.org/2000/svg" xmlns:xlink="http://www.w3.org/1999/xlink">
<g id="graph0" class="graph" transform="scale(1 1) rotate(0) translate(21.6 328.6)">
<title>dependency&#45;graph&#45;@siteimprove/alfa&#45;either</title>
<polygon fill="#ffffff" stroke="transparent" points="-21.6,21.6 -21.6,-328.6 207.6,-328.6 207.6,21.6 -21.6,21.6"/>
<g id="clust1" class="cluster">
<title>cluster_src</title>
<polygon fill="#ffffff" stroke="#000000" points="8,-8 8,-299 178,-299 178,-8 8,-8"/>
</g>
<g id="clust2" class="cluster">
<title>cluster_src</title>
<polygon fill="#ffffff" stroke="#000000" points="16,-16 16,-291 170,-291 170,-16 16,-16"/>
</g>
<!-- src/left.ts -->
<g id="node1" class="node">
<title>src/left.ts</title>
<path fill="none" stroke="#000000" d="M70.33,-224C70.33,-224 31.67,-224 31.67,-224 27.83,-224 24,-220.17 24,-216.33 24,-216.33 24,-208.67 24,-208.67 24,-204.83 27.83,-201 31.67,-201 31.67,-201 70.33,-201 70.33,-201 74.17,-201 78,-204.83 78,-208.67 78,-208.67 78,-216.33 78,-216.33 78,-220.17 74.17,-224 70.33,-224"/>
<text text-anchor="middle" x="51" y="-208.8" font-family="Arial" font-size="14.00" fill="#000000">left.ts</text>
</g>
<!-- src/right.ts -->
<g id="node2" class="node">
<title>src/right.ts</title>
<path fill="none" stroke="#000000" d="M113.83,-165C113.83,-165 72.17,-165 72.17,-165 68.33,-165 64.5,-161.17 64.5,-157.33 64.5,-157.33 64.5,-149.67 64.5,-149.67 64.5,-145.83 68.33,-142 72.17,-142 72.17,-142 113.83,-142 113.83,-142 117.67,-142 121.5,-145.83 121.5,-149.67 121.5,-149.67 121.5,-157.33 121.5,-157.33 121.5,-161.17 117.67,-165 113.83,-165"/>
<text text-anchor="middle" x="93" y="-149.8" font-family="Arial" font-size="14.00" fill="#000000">right.ts</text>
</g>
<!-- src/left.ts&#45;&gt;src/right.ts -->
<!-- src/left.ts&#45;&gt;src/right.ts -->
<g id="edge16" class="edge">
<title>src/left.ts&#45;&gt;src/right.ts</title>
<path fill="none" stroke="black" stroke-dasharray="1,5" d="M53.49,-200.78C57.91,-192.9 65.64,-181.99 73.21,-172.75"/>
<polygon fill="black" stroke="black" points="75.86,-175.03 79.73,-165.17 70.55,-170.47 75.86,-175.03"/>
</g>
<!-- src/either.ts -->
<g id="node3" class="node">
<title>src/either.ts</title>
<path fill="none" stroke="#000000" d="M100.33,-106C100.33,-106 51.67,-106 51.67,-106 47.83,-106 44,-102.17 44,-98.33 44,-98.33 44,-90.67 44,-90.67 44,-86.83 47.83,-83 51.67,-83 51.67,-83 100.33,-83 100.33,-83 104.17,-83 108,-86.83 108,-90.67 108,-90.67 108,-98.33 108,-98.33 108,-102.17 104.17,-106 100.33,-106"/>
<text text-anchor="middle" x="76" y="-90.8" font-family="Arial" font-size="14.00" fill="#000000">either.ts</text>
</g>
<!-- src/left.ts&#45;&gt;src/either.ts -->
<!-- src/left.ts&#45;&gt;src/either.ts -->
<g id="edge14" class="edge">
<title>src/left.ts&#45;&gt;src/either.ts</title>
<path fill="none" stroke="black" stroke-dasharray="1,5" d="M69.2,-200.97C77.5,-187.21 78.02,-162.45 83,-142 85.12,-133.3 88.72,-124.15 90.59,-116.29"/>
<polygon fill="black" stroke="black" points="94.08,-116.56 91.73,-106.23 87.12,-115.77 94.08,-116.56"/>
</g>
<!-- exit_src -->
<!-- src/left.ts&#45;&gt;exit_src -->
<!-- src/right.ts&#45;&gt;src/left.ts -->
<!-- src/right.ts&#45;&gt;src/left.ts -->
<g id="edge26" class="edge">
<title>src/right.ts&#45;&gt;src/left.ts</title>
<path fill="none" stroke="black" stroke-dasharray="1,5" d="M101.34,-165.17C99.66,-173.28 92.19,-184.61 82.71,-194.03"/>
<polygon fill="black" stroke="black" points="80.27,-191.51 75.13,-200.78 84.93,-196.74 80.27,-191.51"/>
</g>
<!-- src/right.ts&#45;&gt;src/either.ts -->
<!-- src/right.ts&#45;&gt;src/either.ts -->
<g id="edge24" class="edge">
<title>src/right.ts&#45;&gt;src/either.ts</title>
<path fill="none" stroke="black" stroke-dasharray="1,5" d="M106.04,-141.78C107.78,-134.14 105.65,-123.65 100.93,-114.6"/>
<polygon fill="black" stroke="black" points="103.81,-112.6 95.39,-106.17 97.96,-116.45 103.81,-112.6"/>
</g>
<!-- src/right.ts&#45;&gt;exit_src -->
<!-- src/either.ts&#45;&gt;src/left.ts -->
<!-- src/either.ts&#45;&gt;src/left.ts -->
<g id="edge10" class="edge">
<title>src/either.ts&#45;&gt;src/left.ts</title>
<path fill="none" stroke="black" d="M77.35,-106.23C74.45,-115.43 68.12,-129.19 65,-142 61.07,-158.14 59.92,-176.96 58.3,-190.94"/>
<polygon fill="black" stroke="black" points="54.82,-190.57 56.85,-200.97 61.75,-191.58 54.82,-190.57"/>
</g>
<!-- src/either.ts&#45;&gt;src/right.ts -->
<!-- src/either.ts&#45;&gt;src/right.ts -->
<g id="edge12" class="edge">
<title>src/either.ts&#45;&gt;src/right.ts</title>
<path fill="none" stroke="black" d="M84.59,-106.17C88.02,-113.41 91.31,-123.2 93.37,-131.92"/>
<polygon fill="black" stroke="black" points="89.94,-132.59 95.21,-141.78 96.82,-131.31 89.94,-132.59"/>
</g>
<!-- src/either.ts&#45;&gt;exit_src -->
<!-- exit_src&#45;&gt;exit_src -->
<!-- exit_src&#45;&gt;exit_src -->
<!-- exit_src&#45;&gt;exit_src -->
<!-- exit_src&#45;&gt;exit_src -->
<!-- name_src -->
<g id="node5" class="node">
<title>name_src</title>
<path fill="none" stroke="#ff0000" stroke-width="5" d="M154.33,-283C154.33,-283 115.67,-283 115.67,-283 111.83,-283 108,-279.17 108,-275.33 108,-275.33 108,-267.67 108,-267.67 108,-263.83 111.83,-260 115.67,-260 115.67,-260 154.33,-260 154.33,-260 158.17,-260 162,-263.83 162,-267.67 162,-267.67 162,-275.33 162,-275.33 162,-279.17 158.17,-283 154.33,-283"/>
<text text-anchor="middle" x="135" y="-267.8" font-family="Arial" font-size="14.00" fill="#000000">src</text>
</g>
<!-- src/index.ts -->
<g id="node6" class="node">
<title>src/index.ts</title>
<path fill="none" stroke="#ff0000" stroke-width="5" d="M81.83,-283C81.83,-283 34.17,-283 34.17,-283 30.33,-283 26.5,-279.17 26.5,-275.33 26.5,-275.33 26.5,-267.67 26.5,-267.67 26.5,-263.83 30.33,-260 34.17,-260 34.17,-260 81.83,-260 81.83,-260 85.67,-260 89.5,-263.83 89.5,-267.67 89.5,-267.67 89.5,-275.33 89.5,-275.33 89.5,-279.17 85.67,-283 81.83,-283"/>
<text text-anchor="middle" x="58" y="-267.8" font-family="Arial" font-size="14.00" fill="#000000">index.ts</text>
</g>
<!-- src/index.ts&#45;&gt;src/left.ts -->
<!-- src/index.ts&#45;&gt;src/left.ts -->
<g id="edge20" class="edge">
<title>src/index.ts&#45;&gt;src/left.ts</title>
<path fill="none" stroke="black" d="M62.09,-259.78C62.48,-252.53 61.64,-242.74 60.03,-234.02"/>
<polygon fill="black" stroke="black" points="63.41,-233.11 57.71,-224.17 56.6,-234.71 63.41,-233.11"/>
</g>
<!-- src/index.ts&#45;&gt;src/right.ts -->
<!-- src/index.ts&#45;&gt;src/right.ts -->
<g id="edge22" class="edge">
<title>src/index.ts&#45;&gt;src/right.ts</title>
<path fill="none" stroke="black" d="M74.01,-259.79C82.55,-250.81 91.55,-237.36 96,-224 101.26,-208.23 102.6,-189.38 101.33,-175.3"/>
<polygon fill="black" stroke="black" points="104.75,-174.52 99.77,-165.17 97.83,-175.59 104.75,-174.52"/>
</g>
<!-- src/index.ts&#45;&gt;src/either.ts -->
<!-- src/index.ts&#45;&gt;src/either.ts -->
<g id="edge18" class="edge">
<title>src/index.ts&#45;&gt;src/either.ts</title>
<path fill="none" stroke="black" d="M74.71,-259.79C95.56,-242.06 128.61,-204.6 140,-165 142.83,-155.18 144.3,-151.27 140,-142 134.21,-129.53 123.25,-119.19 111.91,-111.45"/>
<polygon fill="black" stroke="black" points="113.58,-108.37 103.24,-106.05 109.88,-114.31 113.58,-108.37"/>
</g>
<!-- src/index.ts&#45;&gt;exit_src -->
</g>
</svg>
