<?xml version="1.0" encoding="UTF-8" standalone="no"?>
<!DOCTYPE svg PUBLIC "-//W3C//DTD SVG 1.1//EN"
 "http://www.w3.org/Graphics/SVG/1.1/DTD/svg11.dtd">
<!-- Generated by graphviz version 2.43.0 (0)
 -->
<!-- Title: dependency&#45;graph&#45;[object Object] Pages: 1 -->
<svg width="282pt" height="385pt"
 viewBox="0.00 0.00 281.70 385.20" xmlns="http://www.w3.org/2000/svg" xmlns:xlink="http://www.w3.org/1999/xlink">
<g id="graph0" class="graph" transform="scale(1 1) rotate(0) translate(21.6 363.6)">
<title>dependency&#45;graph&#45;[object Object]</title>
<polygon fill="#ffffff" stroke="transparent" points="-21.6,21.6 -21.6,-363.6 260.1,-363.6 260.1,21.6 -21.6,21.6"/>
<g id="clust1" class="cluster">
<title>cluster_src</title>
<polygon fill="#ffffff" stroke="#000000" points="60.5,-43 60.5,-334 230.5,-334 230.5,-43 60.5,-43"/>
</g>
<g id="clust2" class="cluster">
<title>cluster_src</title>
<polygon fill="#ffffff" stroke="#000000" points="68.5,-51 68.5,-326 222.5,-326 222.5,-51 68.5,-51"/>
</g>
<!-- dependency&#45;graph&#45;[object Object] -->
<!-- src/left.ts -->
<g id="node2" class="node">
<title>src/left.ts</title>
<path fill="#ff6c60" stroke="#000000" d="M122.83,-259C122.83,-259 84.17,-259 84.17,-259 80.33,-259 76.5,-255.17 76.5,-251.33 76.5,-251.33 76.5,-243.67 76.5,-243.67 76.5,-239.83 80.33,-236 84.17,-236 84.17,-236 122.83,-236 122.83,-236 126.67,-236 130.5,-239.83 130.5,-243.67 130.5,-243.67 130.5,-251.33 130.5,-251.33 130.5,-255.17 126.67,-259 122.83,-259"/>
<text text-anchor="middle" x="103.5" y="-243.8" font-family="Arial" font-size="14.00" fill="#000000">left.ts</text>
</g>
<!-- src/right.ts -->
<g id="node3" class="node">
<title>src/right.ts</title>
<path fill="#ff6c60" stroke="#000000" d="M166.33,-200C166.33,-200 124.67,-200 124.67,-200 120.83,-200 117,-196.17 117,-192.33 117,-192.33 117,-184.67 117,-184.67 117,-180.83 120.83,-177 124.67,-177 124.67,-177 166.33,-177 166.33,-177 170.17,-177 174,-180.83 174,-184.67 174,-184.67 174,-192.33 174,-192.33 174,-196.17 170.17,-200 166.33,-200"/>
<text text-anchor="middle" x="145.5" y="-184.8" font-family="Arial" font-size="14.00" fill="#000000">right.ts</text>
</g>
<!-- src/left.ts&#45;&gt;src/right.ts -->
<!-- src/left.ts&#45;&gt;src/right.ts -->
<g id="edge23" class="edge">
<title>src/left.ts&#45;&gt;src/right.ts</title>
<path fill="none" stroke="black" d="M105.99,-235.78C110.41,-227.9 118.14,-216.99 125.71,-207.75"/>
<polygon fill="black" stroke="black" points="128.36,-210.03 132.23,-200.17 123.05,-205.47 128.36,-210.03"/>
</g>
<!-- src/either.ts -->
<g id="node4" class="node">
<title>src/either.ts</title>
<path fill="#ff6c60" stroke="#000000" d="M152.83,-141C152.83,-141 104.17,-141 104.17,-141 100.33,-141 96.5,-137.17 96.5,-133.33 96.5,-133.33 96.5,-125.67 96.5,-125.67 96.5,-121.83 100.33,-118 104.17,-118 104.17,-118 152.83,-118 152.83,-118 156.67,-118 160.5,-121.83 160.5,-125.67 160.5,-125.67 160.5,-133.33 160.5,-133.33 160.5,-137.17 156.67,-141 152.83,-141"/>
<text text-anchor="middle" x="128.5" y="-125.8" font-family="Arial" font-size="14.00" fill="#000000">either.ts</text>
</g>
<!-- src/left.ts&#45;&gt;src/either.ts -->
<!-- src/left.ts&#45;&gt;src/either.ts -->
<g id="edge21" class="edge">
<title>src/left.ts&#45;&gt;src/either.ts</title>
<path fill="none" stroke="black" d="M121.7,-235.97C130,-222.21 130.52,-197.45 135.5,-177 137.62,-168.3 141.22,-159.15 143.09,-151.29"/>
<polygon fill="black" stroke="black" points="146.58,-151.56 144.23,-141.23 139.62,-150.77 146.58,-151.56"/>
</g>
<!-- exit_src -->
<!-- src/left.ts&#45;&gt;exit_src -->
<!-- src/right.ts&#45;&gt;src/left.ts -->
<!-- src/right.ts&#45;&gt;src/left.ts -->
<g id="edge27" class="edge">
<title>src/right.ts&#45;&gt;src/left.ts</title>
<path fill="none" stroke="black" d="M153.84,-200.17C152.16,-208.28 144.69,-219.61 135.21,-229.03"/>
<polygon fill="black" stroke="black" points="132.77,-226.51 127.63,-235.78 137.43,-231.74 132.77,-226.51"/>
</g>
<!-- src/right.ts&#45;&gt;src/either.ts -->
<!-- src/right.ts&#45;&gt;src/either.ts -->
<g id="edge25" class="edge">
<title>src/right.ts&#45;&gt;src/either.ts</title>
<path fill="none" stroke="black" d="M158.54,-176.78C160.28,-169.14 158.15,-158.65 153.43,-149.6"/>
<polygon fill="black" stroke="black" points="156.31,-147.6 147.89,-141.17 150.46,-151.45 156.31,-147.6"/>
</g>
<!-- src/right.ts&#45;&gt;exit_src -->
<!-- src/either.ts&#45;&gt;src/left.ts -->
<!-- src/either.ts&#45;&gt;src/left.ts -->
<g id="edge11" class="edge">
<title>src/either.ts&#45;&gt;src/left.ts</title>
<path fill="none" stroke="black" d="M129.85,-141.23C126.95,-150.43 120.62,-164.19 117.5,-177 113.57,-193.14 112.42,-211.96 110.8,-225.94"/>
<polygon fill="black" stroke="black" points="107.32,-225.57 109.35,-235.97 114.25,-226.58 107.32,-225.57"/>
</g>
<!-- src/either.ts&#45;&gt;src/right.ts -->
<!-- src/either.ts&#45;&gt;src/right.ts -->
<g id="edge13" class="edge">
<title>src/either.ts&#45;&gt;src/right.ts</title>
<path fill="none" stroke="black" d="M137.09,-141.17C140.52,-148.41 143.81,-158.2 145.87,-166.92"/>
<polygon fill="black" stroke="black" points="142.44,-167.59 147.71,-176.78 149.32,-166.31 142.44,-167.59"/>
</g>
<!-- src/either.ts&#45;&gt;exit_src -->
<!-- name_src -->
<g id="node5" class="node">
<title>name_src</title>
<path fill="none" stroke="#ff0000" stroke-width="5" d="M206.83,-318C206.83,-318 168.17,-318 168.17,-318 164.33,-318 160.5,-314.17 160.5,-310.33 160.5,-310.33 160.5,-302.67 160.5,-302.67 160.5,-298.83 164.33,-295 168.17,-295 168.17,-295 206.83,-295 206.83,-295 210.67,-295 214.5,-298.83 214.5,-302.67 214.5,-302.67 214.5,-310.33 214.5,-310.33 214.5,-314.17 210.67,-318 206.83,-318"/>
<text text-anchor="middle" x="187.5" y="-302.8" font-family="Arial" font-size="14.00" fill="#000000">src</text>
</g>
<!-- exit_src&#45;&gt;dependency&#45;graph&#45;[object Object] -->
<!-- exit_src&#45;&gt;exit_src -->
<!-- exit_src&#45;&gt;exit_src -->
<!-- exit_src&#45;&gt;exit_src -->
<!-- exit_src&#45;&gt;exit_src -->
<!-- src/index.ts -->
<g id="node7" class="node">
<title>src/index.ts</title>
<path fill="none" stroke="#ff0000" stroke-width="5" d="M134.33,-318C134.33,-318 86.67,-318 86.67,-318 82.83,-318 79,-314.17 79,-310.33 79,-310.33 79,-302.67 79,-302.67 79,-298.83 82.83,-295 86.67,-295 86.67,-295 134.33,-295 134.33,-295 138.17,-295 142,-298.83 142,-302.67 142,-302.67 142,-310.33 142,-310.33 142,-314.17 138.17,-318 134.33,-318"/>
<text text-anchor="middle" x="110.5" y="-302.8" font-family="Arial" font-size="14.00" fill="#000000">index.ts</text>
</g>
<!-- src/index.ts&#45;&gt;src/left.ts -->
<!-- src/index.ts&#45;&gt;src/left.ts -->
<g id="edge17" class="edge">
<title>src/index.ts&#45;&gt;src/left.ts</title>
<path fill="none" stroke="black" d="M114.59,-294.78C114.98,-287.53 114.14,-277.74 112.53,-269.02"/>
<polygon fill="black" stroke="black" points="115.91,-268.11 110.21,-259.17 109.1,-269.71 115.91,-268.11"/>
</g>
<!-- src/index.ts&#45;&gt;src/right.ts -->
<!-- src/index.ts&#45;&gt;src/right.ts -->
<g id="edge19" class="edge">
<title>src/index.ts&#45;&gt;src/right.ts</title>
<path fill="none" stroke="black" d="M126.51,-294.79C135.05,-285.81 144.05,-272.36 148.5,-259 153.76,-243.23 155.1,-224.38 153.83,-210.3"/>
<polygon fill="black" stroke="black" points="157.25,-209.52 152.27,-200.17 150.33,-210.59 157.25,-209.52"/>
</g>
<!-- src/index.ts&#45;&gt;src/either.ts -->
<!-- src/index.ts&#45;&gt;src/either.ts -->
<g id="edge15" class="edge">
<title>src/index.ts&#45;&gt;src/either.ts</title>
<path fill="none" stroke="black" d="M127.21,-294.79C148.06,-277.06 181.11,-239.6 192.5,-200 195.33,-190.18 196.8,-186.27 192.5,-177 186.71,-164.53 175.75,-154.19 164.41,-146.45"/>
<polygon fill="black" stroke="black" points="166.08,-143.37 155.74,-141.05 162.38,-149.31 166.08,-143.37"/>
</g>
<!-- src/index.ts&#45;&gt;exit_src -->
</g>
</svg>
